<?xml version="1.0" encoding="utf-8"?>
<svg version="1.1" xmlns="http://www.w3.org/2000/svg" viewBox="-2.2188113432947625 -2.123295799447726 4.239010444582364 3.193254795035828" style="enable-background:new -2.2188113432947625 -2.123295799447726 4.239010444582364 3.193254795035828;">
<style type="text/css">
  .face_stroke {fill:none; stroke:#000000; stroke-width:0.02; stroke-miterlimit:10;}
  .face_text {fill:#000000; font-family:monospace;}
  .edge_text {fill:#ff0000; font-family:monospace;}
  .edge_bg {fill:#f3f3f3; stroke:#606060; stroke-width:0.01;}
</style>
<polygon class="face_stroke" points="0.288675134594813,-0.5 -0.5773502691896258,-7.07050159149938e-17 0.288675134594813,0.5"/>
<polygon class="face_stroke" points="0.2886750397644132,0.4999999999999999 1.2397315560595668,0.8090169943749475 1.82751680835204,2.0834935792808685e-16 1.239731556059567,-0.8090169943749473 0.28867503976441344,-0.5000000000000001"/>
<polygon class="face_stroke" points="1.2397317805908492,-0.8090171293386964 0.4965869551134551,-1.4781477356975548 0.2886752642956955,-0.5000001349637491"/>
<polygon class="face_stroke" points="0.4965871820100126,-1.4781478542188247 -0.36943822177442587,-1.9781478542188247 -1.1125830472518201,-1.3090172478599664 -0.7058464041760204,-0.3954717902173659 0.288675491192253,-0.5000002534850188"/>
<polygon class="face_stroke" points="-1.1125835927165997,-1.3090170503592007 -2.0261290503592004,-0.9022804072834003 -1.6193924072834007,0.011265050359200446 -0.7058469496407995,-0.3954715927165993"/>
<polygon class="face_stroke" points="-1.6193920503592005,0.011265592716599715 -1.2126554072834006,0.9248110503592004 -0.2991099496407995,0.5180744072834007 -0.7058465927165998,-0.39547105035920066"/>
<text class="face_text" text-anchor="middle" dominant-baseline="middle" transform="matrix(0.006386509590071656 0 0 0.006386509590071656 0.0 0.0)">1</text>
<text class="face_text" text-anchor="middle" dominant-baseline="middle" transform="matrix(0.006386509590071656 0 0 0.006386509590071656 0.976866 0.0)">0</text>
<text class="face_text" text-anchor="middle" dominant-baseline="middle" transform="matrix(0.006386509590071656 0 0 0.006386509590071656 0.674998 -0.929055)">20</text>
<text class="face_text" text-anchor="middle" dominant-baseline="middle" transform="matrix(0.006386509590071656 0 0 0.006386509590071656 -0.280521 -1.132157)">18</text>
<text class="face_text" text-anchor="middle" dominant-baseline="middle" transform="matrix(0.006386509590071656 0 0 0.006386509590071656 -1.365988 -0.648876)">19</text>
<text class="face_text" text-anchor="middle" dominant-baseline="middle" transform="matrix(0.006386509590071656 0 0 0.006386509590071656 -0.959251 0.26467)">2</text>
<rect class="edge_bg" x="0.22480994386369668" y="-0.06386509590071664" width="0.1277301918014331" height="0.1277301918014331"/>
<text class="edge_text" text-anchor="middle" dominant-baseline="middle" transform="matrix(0.006386509590071656 0 0 0.006386509590071656 0.2886750397644132 -8.427908566546547e-17)">2</text>
<rect class="edge_bg" x="0.700338426542556" y="-0.7183737280519391" width="0.1277301918014331" height="0.1277301918014331"/>
<text class="edge_text" text-anchor="middle" dominant-baseline="middle" transform="matrix(0.006386509590071656 0 0 0.006386509590071656 0.7642035224432725 -0.6545086321512226)">30</text>
<rect class="edge_bg" x="0.3287662407004165" y="-1.0529391497526384" width="0.1277301918014331" height="0.1277301918014331"/>
<text class="edge_text" text-anchor="middle" dominant-baseline="middle" transform="matrix(0.006386509590071656 0 0 0.006386509590071656 0.39263133660113303 -0.9890740538519218)">31</text>
<rect class="edge_bg" x="-0.9730803670794159" y="-0.9161094174386166" width="0.1277301918014331" height="0.1277301918014331"/>
<text class="edge_text" text-anchor="middle" dominant-baseline="middle" transform="matrix(0.006386509590071656 0 0 0.006386509590071656 -0.9092152711786994 -0.8522443215379001)">25</text>
<rect class="edge_bg" x="-1.2264844174386167" y="-0.2559678247220171" width="0.1277301918014331" height="0.1277301918014331"/>
<text class="edge_text" text-anchor="middle" dominant-baseline="middle" transform="matrix(0.006386509590071656 0 0 0.006386509590071656 -1.1626193215379002 -0.19210272882130058)">29</text>
</svg>
