<?xml version="1.0" encoding="utf-8"?>
<svg version="1.1" xmlns="http://www.w3.org/2000/svg" viewBox="-9.015595832608685 -7.610285439903947 16.92317966230849 16.620008878350987" style="enable-background:new -9.015595832608685 -7.610285439903947 16.92317966230849 16.620008878350987;">
<style type="text/css">
  .face_stroke {fill:none; stroke:#000000; stroke-width:0.02; stroke-miterlimit:10;}
  .face_text {fill:#000000; font-family:monospace;}
  .edge_text {fill:#ff0000; font-family:monospace;}
  .edge_bg {fill:#f3f3f3; stroke:#606060; stroke-width:0.01;}
</style>
<polygon class="face_stroke" points="0.288675134594813,-0.5 -0.5773502691896258,-7.07050159149938e-17 0.288675134594813,0.5"/>
<polygon class="face_stroke" points="0.28867486540518683,0.4999999999999999 1.1547002691896258,1.414100318299876e-16 0.28867486540518755,-0.5000000000000003"/>
<polygon class="face_stroke" points="0.2886756028557982,0.4999995721904793 -0.438698038717249,1.1862412100592117 -0.9882070167880563,2.02172902147215 -1.3302271601137239,2.961421642258056 -1.4463200742389546,3.954660000000003 -1.3302271601137239,4.947898357741947 -0.9882070167880541,5.887590978527855 -0.4386980387172472,6.723078789940791 0.2886756028558022,7.409320427809524 1.154701006640245,7.909320427809524 2.1126905189557306,8.196123660520612 3.1109986772269953,8.254268489431087 4.095806430239204,8.080620311764157 5.0140225371194775,7.6845405457250004 5.816145729874521,7.087381954022214 6.458933339561057,6.321337510903242 6.90773251976152,5.427704870579831 7.138348390503962,4.454660000000007 7.138348390503963,3.4546600000000067 6.907732519761526,2.4816151294201862 6.4589333395610655,1.5879824890967726 5.816145729874528,0.821938045977793 5.014022537119489,0.22477945427500678 4.095806430239216,-0.17130031176415317 3.1109986772270086,-0.3449484894310868 2.112690518955744,-0.28680366052061457 1.1547010066402574,-4.278095300236373e-07"/>
<polygon class="face_stroke" points="0.2886747187374587,0.49999986821580067 -0.6693147919094768,0.2131966299313534 -0.43869892682798173,1.1862415018528463"/>
<polygon class="face_stroke" points="-0.6693140731720179,0.2131964981471539 -1.396687718737459,0.8994381317841991 -0.43869820809052357,1.186241370068647"/>
<polygon class="face_stroke" points="-0.6693139773887578,0.21319680913518013 -0.11980499445728121,-0.6222909990808427 0.22221515433529815,-1.5619836178769588 0.3383080742389546,-2.5552219749435006 0.2222151658921505,-3.5484603333608447 -0.11980497196660789,-4.488152956136545 -0.6693139451767434,-5.323640770746396 -1.3966875827574006,-6.009882412846818 -2.262712983632956,-6.509882417885149 -3.220702494279892,-6.796685656169597 -4.219010652212885,-6.854830490887993 -5.203818406235339,-6.681182318950443 -6.122034515419911,-6.28510255825325 -6.924157711649082,-5.687943971217029 -7.566945325792289,-4.921899531837637 -8.015744511191695,-4.028266894125232 -8.24636038759508,-3.055222024887077 -8.246360393412845,-2.055222024887077 -8.01574452833135,-1.0821771529655841 -7.56694535332983,-0.18854451003116068 -6.924157748099955,0.5774999368274032 -6.12203455881904,1.1746585331967512 -5.2038184542430646,1.5707383045778731 -4.219010702241101,1.744386487974182 -3.2207025436315595,1.6862416648716265 -2.262713029647517,1.3994384377338926 -1.3966876229541962,0.8994384427722237"/>
<text class="face_text" text-anchor="middle" dominant-baseline="middle" transform="matrix(0.033240017756701976 0 0 0.033240017756701976 0.0 0.0)">0</text>
<text class="face_text" text-anchor="middle" dominant-baseline="middle" transform="matrix(0.033240017756701976 0 0 0.033240017756701976 0.57735 0.0)">53</text>
<text class="face_text" text-anchor="middle" dominant-baseline="middle" transform="matrix(0.033240017756701976 0 0 0.033240017756701976 2.860575 3.95466)">55</text>
<text class="face_text" text-anchor="middle" dominant-baseline="middle" transform="matrix(0.033240017756701976 0 0 0.033240017756701976 -0.273113 0.633146)">1</text>
<text class="face_text" text-anchor="middle" dominant-baseline="middle" transform="matrix(0.033240017756701976 0 0 0.033240017756701976 -0.8349 0.766292)">2</text>
<text class="face_text" text-anchor="middle" dominant-baseline="middle" transform="matrix(0.033240017756701976 0 0 0.033240017756701976 -3.968587 -2.555222)">54</text>
<rect class="edge_bg" x="-0.043725312161832675" y="-0.3324001775670198" width="0.6648003551340395" height="0.6648003551340395"/>
<text class="edge_text" text-anchor="middle" dominant-baseline="middle" transform="matrix(0.033240017756701976 0 0 0.033240017756701976 0.28867486540518705 -3.535250795749691e-17)">0</text>
<rect class="edge_bg" x="0.38928812718099987" y="-0.08240060537654087" width="0.6648003551340395" height="0.6648003551340395"/>
<text class="edge_text" text-anchor="middle" dominant-baseline="middle" transform="matrix(0.033240017756701976 0 0 0.033240017756701976 0.7216883047480196 0.24999957219047886)">6</text>
<rect class="edge_bg" x="-0.4074122816122814" y="0.5107205074673036" width="0.6648003551340395" height="0.6648003551340395"/>
<text class="edge_text" text-anchor="middle" dominant-baseline="middle" transform="matrix(0.033240017756701976 0 0 0.033240017756701976 -0.07501210404526162 0.8431206850343234)">5</text>
<rect class="edge_bg" x="-0.8864063181982904" y="0.3673187565408806" width="0.6648003551340395" height="0.6648003551340395"/>
<text class="edge_text" text-anchor="middle" dominant-baseline="middle" transform="matrix(0.033240017756701976 0 0 0.033240017756701976 -0.5540061406312706 0.6997189341079003)">7</text>
<rect class="edge_bg" x="-1.3654009777384986" y="0.22391744838668243" width="0.6648003551340395" height="0.6648003551340395"/>
<text class="edge_text" text-anchor="middle" dominant-baseline="middle" transform="matrix(0.033240017756701976 0 0 0.033240017756701976 -1.0330008001714788 0.5563176259537022)">8</text>
</svg>
