<?xml version="1.0" encoding="utf-8"?>
<svg version="1.1" xmlns="http://www.w3.org/2000/svg" viewBox="-1.8755534974761006 -0.9377134244715547 9.44313531121721 9.629695338374196" style="enable-background:new -1.8755534974761006 -0.9377134244715547 9.44313531121721 9.629695338374196;">
<style type="text/css">
  .face_stroke {fill:none; stroke:#000000; stroke-width:0.02; stroke-miterlimit:10;}
  .face_text {fill:#000000; font-family:monospace;}
  .edge_text {fill:#ff0000; font-family:monospace;}
  .edge_bg {fill:#f3f3f3; stroke:#606060; stroke-width:0.01;}
</style>
<polygon class="face_stroke" points="0.288675134594813,-0.5 -0.5773502691896258,-7.07050159149938e-17 0.288675134594813,0.5"/>
<polygon class="face_stroke" points="0.28867486540518683,0.4999999999999999 1.1547002691896258,1.414100318299876e-16 0.28867486540518755,-0.5000000000000003"/>
<polygon class="face_stroke" points="0.2886756028557982,0.4999995721904793 -0.438698038717249,1.1862412100592117 -0.9882070167880563,2.02172902147215 -1.3302271601137239,2.961421642258056 -1.4463200742389546,3.954660000000003 -1.3302271601137239,4.947898357741947 -0.9882070167880541,5.887590978527855 -0.4386980387172472,6.723078789940791 0.2886756028558022,7.409320427809524 1.154701006640245,7.909320427809524 2.1126905189557306,8.196123660520612 3.1109986772269953,8.254268489431087 4.095806430239204,8.080620311764157 5.0140225371194775,7.6845405457250004 5.816145729874521,7.087381954022214 6.458933339561057,6.321337510903242 6.90773251976152,5.427704870579831 7.138348390503962,4.454660000000007 7.138348390503963,3.4546600000000067 6.907732519761526,2.4816151294201862 6.4589333395610655,1.5879824890967726 5.816145729874528,0.821938045977793 5.014022537119489,0.22477945427500678 4.095806430239216,-0.17130031176415317 3.1109986772270086,-0.3449484894310868 2.112690518955744,-0.28680366052061457 1.1547010066402574,-4.278095300236373e-07"/>
<polygon class="face_stroke" points="-0.4386989560601079,1.1862416694975682 -1.437007114669649,1.1280968463950136 -0.9882079292702438,2.0217294841074183"/>
<polygon class="face_stroke" points="-0.43869888533035084,1.1862411536049864 -0.8874980707297571,0.29260851589258174 -1.437007043939892,1.1280963305024319"/>
<polygon class="face_stroke" points="-0.438698929270243,1.1862414841074183 0.11081004393989208,0.35075366949756814 -0.887498114669649,0.2926088463950135"/>
<text class="face_text" text-anchor="middle" dominant-baseline="middle" transform="matrix(0.01888627062243442 0 0 0.01888627062243442 0.0 0.0)">0</text>
<text class="face_text" text-anchor="middle" dominant-baseline="middle" transform="matrix(0.01888627062243442 0 0 0.01888627062243442 0.57735 0.0)">53</text>
<text class="face_text" text-anchor="middle" dominant-baseline="middle" transform="matrix(0.01888627062243442 0 0 0.01888627062243442 2.860575 3.95466)">55</text>
<text class="face_text" text-anchor="middle" dominant-baseline="middle" transform="matrix(0.01888627062243442 0 0 0.01888627062243442 -0.954638 1.445356)">3</text>
<text class="face_text" text-anchor="middle" dominant-baseline="middle" transform="matrix(0.01888627062243442 0 0 0.01888627062243442 -0.921068 0.868982)">2</text>
<text class="face_text" text-anchor="middle" dominant-baseline="middle" transform="matrix(0.01888627062243442 0 0 0.01888627062243442 -0.405129 0.609868)">1</text>
<rect class="edge_bg" x="0.09981215918084285" y="-0.18886270622434423" width="0.3777254124486884" height="0.3777254124486884"/>
<text class="edge_text" text-anchor="middle" dominant-baseline="middle" transform="matrix(0.01888627062243442 0 0 0.01888627062243442 0.28867486540518705 -3.535250795749691e-17)">0</text>
<rect class="edge_bg" x="0.5328255985236754" y="0.06113686596613466" width="0.3777254124486884" height="0.3777254124486884"/>
<text class="edge_text" text-anchor="middle" dominant-baseline="middle" transform="matrix(0.01888627062243442 0 0 0.01888627062243442 0.7216883047480196 0.24999957219047886)">6</text>
<rect class="edge_bg" x="-0.9023161488895195" y="1.4151228705781491" width="0.3777254124486884" height="0.3777254124486884"/>
<text class="edge_text" text-anchor="middle" dominant-baseline="middle" transform="matrix(0.01888627062243442 0 0 0.01888627062243442 -0.7134534426651753 1.6039855768024933)">10</text>
<rect class="edge_bg" x="-1.1267156708594657" y="0.9683060358293649" width="0.3777254124486884" height="0.3777254124486884"/>
<text class="edge_text" text-anchor="middle" dominant-baseline="middle" transform="matrix(0.01888627062243442 0 0 0.01888627062243442 -0.9378529646351214 1.1571687420537091)">9</text>
<rect class="edge_bg" x="-0.8519612281942903" y="0.5505624590268716" width="0.3777254124486884" height="0.3777254124486884"/>
<text class="edge_text" text-anchor="middle" dominant-baseline="middle" transform="matrix(0.01888627062243442 0 0 0.01888627062243442 -0.6630985219699461 0.7394251652512158)">7</text>
</svg>
