<?xml version="1.0" encoding="utf-8"?>
<svg version="1.1" xmlns="http://www.w3.org/2000/svg" viewBox="-10.398657932608685 -5.772378036844446 18.37210186230849 14.694582075145796" style="enable-background:new -10.398657932608685 -5.772378036844446 18.37210186230849 14.694582075145796;">
<style type="text/css">
  .face_stroke {fill:none; stroke:#000000; stroke-width:0.02; stroke-miterlimit:10;}
  .face_text {fill:#000000; font-family:monospace;}
  .edge_text {fill:#ff0000; font-family:monospace;}
  .edge_bg {fill:#f3f3f3; stroke:#606060; stroke-width:0.01;}
</style>
<polygon class="face_stroke" points="0.288675134594813,-0.5 -0.5773502691896258,-7.07050159149938e-17 0.288675134594813,0.5"/>
<polygon class="face_stroke" points="0.28867486540518683,0.4999999999999999 1.1547002691896258,1.414100318299876e-16 0.28867486540518755,-0.5000000000000003"/>
<polygon class="face_stroke" points="0.2886756028557982,0.4999995721904793 -0.438698038717249,1.1862412100592117 -0.9882070167880563,2.02172902147215 -1.3302271601137239,2.961421642258056 -1.4463200742389546,3.954660000000003 -1.3302271601137239,4.947898357741947 -0.9882070167880541,5.887590978527855 -0.4386980387172472,6.723078789940791 0.2886756028558022,7.409320427809524 1.154701006640245,7.909320427809524 2.1126905189557306,8.196123660520612 3.1109986772269953,8.254268489431087 4.095806430239204,8.080620311764157 5.0140225371194775,7.6845405457250004 5.816145729874521,7.087381954022214 6.458933339561057,6.321337510903242 6.90773251976152,5.427704870579831 7.138348390503962,4.454660000000007 7.138348390503963,3.4546600000000067 6.907732519761526,2.4816151294201862 6.4589333395610655,1.5879824890967726 5.816145729874528,0.821938045977793 5.014022537119489,0.22477945427500678 4.095806430239216,-0.17130031176415317 3.1109986772270086,-0.3449484894310868 2.112690518955744,-0.28680366052061457 1.1547010066402574,-4.278095300236373e-07"/>
<polygon class="face_stroke" points="-0.4386989560601079,1.1862416694975682 -1.437007114669649,1.1280968463950136 -0.9882079292702438,2.0217294841074183"/>
<polygon class="face_stroke" points="-1.437007070729757,1.1280965158925818 -1.9865160439398921,1.9635843305024316 -0.9882078853303509,2.021729153604986"/>
<polygon class="face_stroke" points="-1.4370069719666083,1.1280969561365455 -1.09498683410785,0.18840433336084428 -0.9788939257610458,-0.8048340250564998 -1.0949868456647032,-1.7980723821230418 -1.4370069944572816,-2.7377650009191576 -1.9865159773887582,-3.5732528091351803 -2.7138896229541993,-4.259494442772226 -3.57991502964752,-4.759494437733894 -4.537904543631562,-5.046297664871627 -5.536212702241103,-5.1044424879741825 -6.521020454243066,-4.930794304577873 -7.439236558819042,-4.534714533196751 -8.241359748099956,-3.937555936827403 -8.884147353329832,-3.1715114899688372 -9.33294652833135,-2.277878847034417 -9.563562393412845,-1.3048339751129245 -9.56356238759508,-0.3048339751129243 -9.332946511191693,0.6682108941252345 -8.884147325792288,1.561843531837639 -8.241359711649082,2.32788797121703 -7.4392365154199105,2.9250465582532508 -6.521020406235334,3.321126318950444 -5.536212652212882,3.4947744908879934 -4.5379044942798865,3.4366296561695955 -3.579914983632955,3.149826417885148 -2.7138895827573983,2.649826412846816 -1.9865159451767447,1.963584770746397"/>
<polygon class="face_stroke" points="-1.437006965445959,1.1280965994842795 -0.45219921243375083,0.9544484218173491 -1.0949868221202899,0.188403978698371"/>
<polygon class="face_stroke" points="-0.45219917787970976,0.9544490213016288 -0.11017903455404104,0.014756400515720414 -1.0949867875662491,0.18840457818265066"/>
<text class="face_text" text-anchor="middle" dominant-baseline="middle" transform="matrix(0.029389164150291594 0 0 0.029389164150291594 0.0 0.0)">0</text>
<text class="face_text" text-anchor="middle" dominant-baseline="middle" transform="matrix(0.029389164150291594 0 0 0.029389164150291594 0.57735 0.0)">53</text>
<text class="face_text" text-anchor="middle" dominant-baseline="middle" transform="matrix(0.029389164150291594 0 0 0.029389164150291594 2.860575 3.95466)">55</text>
<text class="face_text" text-anchor="middle" dominant-baseline="middle" transform="matrix(0.029389164150291594 0 0 0.029389164150291594 -0.954638 1.445356)">3</text>
<text class="face_text" text-anchor="middle" dominant-baseline="middle" transform="matrix(0.029389164150291594 0 0 0.029389164150291594 -1.470577 1.70447)">4</text>
<text class="face_text" text-anchor="middle" dominant-baseline="middle" transform="matrix(0.029389164150291594 0 0 0.029389164150291594 -5.285789 -0.804834)">54</text>
<text class="face_text" text-anchor="middle" dominant-baseline="middle" transform="matrix(0.029389164150291594 0 0 0.029389164150291594 -0.994731 0.756983)">2</text>
<text class="face_text" text-anchor="middle" dominant-baseline="middle" transform="matrix(0.029389164150291594 0 0 0.029389164150291594 -0.552455 0.38587)">1</text>
<rect class="edge_bg" x="-0.005216776097728859" y="-0.29389164150291597" width="0.5877832830058318" height="0.5877832830058318"/>
<text class="edge_text" text-anchor="middle" dominant-baseline="middle" transform="matrix(0.029389164150291594 0 0 0.029389164150291594 0.28867486540518705 -3.535250795749691e-17)">0</text>
<rect class="edge_bg" x="0.4277966632451037" y="-0.043892069312437054" width="0.5877832830058318" height="0.5877832830058318"/>
<text class="edge_text" text-anchor="middle" dominant-baseline="middle" transform="matrix(0.029389164150291594 0 0 0.029389164150291594 0.7216883047480196 0.24999957219047886)">6</text>
<rect class="edge_bg" x="-1.007345084168091" y="1.3100939352995775" width="0.5877832830058318" height="0.5877832830058318"/>
<text class="edge_text" text-anchor="middle" dominant-baseline="middle" transform="matrix(0.029389164150291594 0 0 0.029389164150291594 -0.7134534426651753 1.6039855768024933)">10</text>
<rect class="edge_bg" x="-1.50649911953297" y="1.2810211932458682" width="0.5877832830058318" height="0.5877832830058318"/>
<text class="edge_text" text-anchor="middle" dominant-baseline="middle" transform="matrix(0.029389164150291594 0 0 0.029389164150291594 -1.212607478030054 1.574912834748784)">11</text>
<rect class="edge_bg" x="-2.005653100074592" y="1.251949221938554" width="0.5877832830058318" height="0.5877832830058318"/>
<text class="edge_text" text-anchor="middle" dominant-baseline="middle" transform="matrix(0.029389164150291594 0 0 0.029389164150291594 -1.7117614585716758 1.54584086344147)">12</text>
<rect class="edge_bg" x="-1.5598885352860408" y="0.3643586475884094" width="0.5877832830058318" height="0.5877832830058318"/>
<text class="edge_text" text-anchor="middle" dominant-baseline="middle" transform="matrix(0.029389164150291594 0 0 0.029389164150291594 -1.2659968937831247 0.6582502890913253)">8</text>
<rect class="edge_bg" x="-1.0674846242258953" y="0.2775351582392239" width="0.5877832830058318" height="0.5877832830058318"/>
<text class="edge_text" text-anchor="middle" dominant-baseline="middle" transform="matrix(0.029389164150291594 0 0 0.029389164150291594 -0.7735929827229795 0.5714267997421398)">7</text>
</svg>
