<?xml version="1.0" encoding="utf-8"?>
<svg version="1.1" xmlns="http://www.w3.org/2000/svg" viewBox="-2.428583133243455 -0.9377134244715547 10.022499691544915 9.629695338374196" style="enable-background:new -2.428583133243455 -0.9377134244715547 10.022499691544915 9.629695338374196;">
<style type="text/css">
  .face_stroke {fill:none; stroke:#000000; stroke-width:0.02; stroke-miterlimit:10;}
  .face_text {fill:#000000; font-family:monospace;}
  .edge_text {fill:#ff0000; font-family:monospace;}
  .edge_bg {fill:#f3f3f3; stroke:#606060; stroke-width:0.01;}
</style>
<polygon class="face_stroke" points="0.288675134594813,-0.5 -0.5773502691896258,-7.07050159149938e-17 0.288675134594813,0.5"/>
<polygon class="face_stroke" points="0.28867486540518683,0.4999999999999999 1.1547002691896258,1.414100318299876e-16 0.28867486540518755,-0.5000000000000003"/>
<polygon class="face_stroke" points="0.2886756028557982,0.4999995721904793 -0.438698038717249,1.1862412100592117 -0.9882070167880563,2.02172902147215 -1.3302271601137239,2.961421642258056 -1.4463200742389546,3.954660000000003 -1.3302271601137239,4.947898357741947 -0.9882070167880541,5.887590978527855 -0.4386980387172472,6.723078789940791 0.2886756028558022,7.409320427809524 1.154701006640245,7.909320427809524 2.1126905189557306,8.196123660520612 3.1109986772269953,8.254268489431087 4.095806430239204,8.080620311764157 5.0140225371194775,7.6845405457250004 5.816145729874521,7.087381954022214 6.458933339561057,6.321337510903242 6.90773251976152,5.427704870579831 7.138348390503962,4.454660000000007 7.138348390503963,3.4546600000000067 6.907732519761526,2.4816151294201862 6.4589333395610655,1.5879824890967726 5.816145729874528,0.821938045977793 5.014022537119489,0.22477945427500678 4.095806430239216,-0.17130031176415317 3.1109986772270086,-0.3449484894310868 2.112690518955744,-0.28680366052061457 1.1547010066402574,-4.278095300236373e-07"/>
<polygon class="face_stroke" points="-0.988207034554041,2.0217294005157207 -1.9730147875662492,2.195377578182651 -1.33022717787971,2.961422021301629"/>
<polygon class="face_stroke" points="-0.9882072124337509,2.021729421817349 -1.6309948221202903,1.2556849786983713 -1.973014965445959,2.1953775994842797"/>
<polygon class="face_stroke" points="-0.9882071778797097,2.0217290213016286 -0.646187034554041,1.0820364005157204 -1.6309947875662492,1.2556845781826507"/>
<polygon class="face_stroke" points="-0.6461872124337509,1.0820364218173493 -1.2889748221202904,0.31599197869837115 -1.630994965445959,1.2556845994842796"/>
<polygon class="face_stroke" points="-0.6461871778797097,1.0820370213016288 -0.304167034554041,0.1423444005157204 -1.2889747875662492,0.31599257818265064"/>
<text class="face_text" text-anchor="middle" dominant-baseline="middle" transform="matrix(0.01925939067674839 0 0 0.01925939067674839 0.0 0.0)">0</text>
<text class="face_text" text-anchor="middle" dominant-baseline="middle" transform="matrix(0.01925939067674839 0 0 0.01925939067674839 0.57735 0.0)">53</text>
<text class="face_text" text-anchor="middle" dominant-baseline="middle" transform="matrix(0.01925939067674839 0 0 0.01925939067674839 2.860575 3.95466)">55</text>
<text class="face_text" text-anchor="middle" dominant-baseline="middle" transform="matrix(0.01925939067674839 0 0 0.01925939067674839 -1.430483 2.392843)">5</text>
<text class="face_text" text-anchor="middle" dominant-baseline="middle" transform="matrix(0.01925939067674839 0 0 0.01925939067674839 -1.530739 1.824264)">4</text>
<text class="face_text" text-anchor="middle" dominant-baseline="middle" transform="matrix(0.01925939067674839 0 0 0.01925939067674839 -1.088463 1.45315)">3</text>
<text class="face_text" text-anchor="middle" dominant-baseline="middle" transform="matrix(0.01925939067674839 0 0 0.01925939067674839 -1.188719 0.884571)">2</text>
<text class="face_text" text-anchor="middle" dominant-baseline="middle" transform="matrix(0.01925939067674839 0 0 0.01925939067674839 -0.746443 0.513458)">1</text>
<rect class="edge_bg" x="0.09608095863770313" y="-0.19259390676748395" width="0.38518781353496784" height="0.38518781353496784"/>
<text class="edge_text" text-anchor="middle" dominant-baseline="middle" transform="matrix(0.01925939067674839 0 0 0.01925939067674839 0.28867486540518705 -3.535250795749691e-17)">0</text>
<rect class="edge_bg" x="0.5290943979805357" y="0.05740566542299494" width="0.38518781353496784" height="0.38518781353496784"/>
<text class="edge_text" text-anchor="middle" dominant-baseline="middle" transform="matrix(0.01925939067674839 0 0 0.01925939067674839 0.7216883047480196 0.24999957219047886)">6</text>
<rect class="edge_bg" x="-1.3518110129843592" y="2.298981804141191" width="0.38518781353496784" height="0.38518781353496784"/>
<text class="edge_text" text-anchor="middle" dominant-baseline="middle" transform="matrix(0.01925939067674839 0 0 0.01925939067674839 -1.1592171062168752 2.4915757109086747)">14</text>
<rect class="edge_bg" x="-1.673204995707339" y="1.9159596038833306" width="0.38518781353496784" height="0.38518781353496784"/>
<text class="edge_text" text-anchor="middle" dominant-baseline="middle" transform="matrix(0.01925939067674839 0 0 0.01925939067674839 -1.480611088939855 2.1085535106508146)">13</text>
<rect class="edge_bg" x="-1.5021948894904635" y="1.4461128929746558" width="0.38518781353496784" height="0.38518781353496784"/>
<text class="edge_text" text-anchor="middle" dominant-baseline="middle" transform="matrix(0.01925939067674839 0 0 0.01925939067674839 -1.3096009827229795 1.6387067997421398)">11</text>
<rect class="edge_bg" x="-1.331184995707339" y="0.9762666038833306" width="0.38518781353496784" height="0.38518781353496784"/>
<text class="edge_text" text-anchor="middle" dominant-baseline="middle" transform="matrix(0.01925939067674839 0 0 0.01925939067674839 -1.138591088939855 1.1688605106508145)">9</text>
<rect class="edge_bg" x="-1.1601748894904633" y="0.506420892974656" width="0.38518781353496784" height="0.38518781353496784"/>
<text class="edge_text" text-anchor="middle" dominant-baseline="middle" transform="matrix(0.01925939067674839 0 0 0.01925939067674839 -0.9675809827229794 0.6990147997421399)">7</text>
</svg>
