<?xml version="1.0" encoding="utf-8"?>
<svg version="1.1" xmlns="http://www.w3.org/2000/svg" viewBox="-9.91820263166285 -4.8138814384470425 19.6863822633257 11.314004878350989" style="enable-background:new -9.91820263166285 -4.8138814384470425 19.6863822633257 11.314004878350989;">
<style type="text/css">
  .face_stroke {fill:none; stroke:#000000; stroke-width:0.02; stroke-miterlimit:10;}
  .face_text {fill:#000000; font-family:monospace;}
  .edge_text {fill:#ff0000; font-family:monospace;}
  .edge_bg {fill:#f3f3f3; stroke:#606060; stroke-width:0.01;}
</style>
<polygon class="face_stroke" points="0.288675134594813,-0.5 -0.5773502691896258,-7.07050159149938e-17 0.288675134594813,0.5"/>
<polygon class="face_stroke" points="0.2886756094960372,0.49999999999999956 0.5192914802384774,1.4730448705798236 0.9680906604389397,2.366677510903236 1.6108782701254794,3.1327219540222138 2.413001462880525,3.7298805457250013 3.331217569760799,4.125960311764158 4.316025322773007,4.299608489431088 5.314333481044272,4.241463660520612 6.2723229933597615,3.954660427809522 7.138348397144197,3.4546604278095248 7.865722038717246,2.768418789940792 8.415231016788054,1.932930978527856 8.757251160113723,0.9932383577419479 8.873344074238954,1.2530758835941472e-14 8.757251160113729,-0.9932383577419309 8.415231016788061,-1.9329309785278403 7.86572203871726,-2.7684187899407755 7.138348397144214,-3.454660427809512 6.272322993359777,-3.954660427809515 5.314333481044293,-4.241463660520608 4.316025322773025,-4.299608489431089 3.3312175697608195,-4.125960311764164 2.41300146288054,-3.7298805457250097 1.6108782701254962,-3.13272195402223 0.9680906604389548,-2.3666775109032585 0.5192914802384854,-1.4730448705798453 0.28867560949604076,-0.5000000000000263"/>
<polygon class="face_stroke" points="0.2886749268279821,0.500000498147154 -0.4386987187374588,1.1862421317841991 0.5192907919094765,1.473045370068647"/>
<polygon class="face_stroke" points="0.2886747187374587,0.49999986821580067 -0.6693147919094768,0.2131966299313534 -0.43869892682798173,1.1862415018528463"/>
<polygon class="face_stroke" points="-0.6693144716686508,0.21319715296558406 -1.1181136466701682,-0.6804354899688358 -1.7609012519000418,-1.4464799368274006 -2.563024441180958,-2.0436385331967504 -3.4812405457569335,-2.4397183045778723 -4.466048297758897,-2.613366487974182 -5.464356456368439,-2.5552216648716266 -6.42234597035248,-2.2684184377338945 -7.2883713770458005,-1.768418442772226 -8.015745022611242,-1.0821768091351807 -8.56525400554272,-0.24668900091915602 -8.907274154335298,0.6930036178769582 -9.023367074238955,1.686241974943502 -8.90727416589215,2.6794803333608463 -8.56525402803339,3.619172956136549 -8.015745054823254,4.454660770746399 -7.2883714172425975,5.14090241284682 -6.422346016367037,5.640902417885152 -5.4643565057201045,5.927705656169596 -4.466048347787113,5.9858504908879935 -3.48124059376466,5.812202318950442 -2.563024484580091,5.416122558253251 -1.7609012883509187,4.81896397121703 -1.1181136742077133,4.052919531837639 -0.6693144888083067,3.159286894125234 -0.43869861240492103,2.186242024887087 -0.4386986065871543,1.1862420248870866"/>
<polygon class="face_stroke" points="-0.669313929270243,0.21319648410741826 -0.11980495606010788,-0.6222913305024318 -1.118113114669649,-0.6804361536049865"/>
<text class="face_text" text-anchor="middle" dominant-baseline="middle" transform="matrix(0.02262800975670198 0 0 0.02262800975670198 0.0 0.0)">0</text>
<text class="face_text" text-anchor="middle" dominant-baseline="middle" transform="matrix(0.02262800975670198 0 0 0.02262800975670198 4.566449 0.0)">54</text>
<text class="face_text" text-anchor="middle" dominant-baseline="middle" transform="matrix(0.02262800975670198 0 0 0.02262800975670198 0.123089 1.053096)">52</text>
<text class="face_text" text-anchor="middle" dominant-baseline="middle" transform="matrix(0.02262800975670198 0 0 0.02262800975670198 -0.273113 0.633146)">53</text>
<text class="face_text" text-anchor="middle" dominant-baseline="middle" transform="matrix(0.02262800975670198 0 0 0.02262800975670198 -4.716472 1.686242)">55</text>
<text class="face_text" text-anchor="middle" dominant-baseline="middle" transform="matrix(0.02262800975670198 0 0 0.02262800975670198 -0.635744 -0.363177)">1</text>
<rect class="edge_bg" x="0.06239551192901832" y="-0.2262800975670203" width="0.45256019513403956" height="0.45256019513403956"/>
<text class="edge_text" text-anchor="middle" dominant-baseline="middle" transform="matrix(0.02262800975670198 0 0 0.02262800975670198 0.2886756094960381 -5.238761490158398e-16)">1</text>
<rect class="edge_bg" x="0.17770276180170963" y="0.7602428365408807" width="0.45256019513403956" height="0.45256019513403956"/>
<text class="edge_text" text-anchor="middle" dominant-baseline="middle" transform="matrix(0.02262800975670198 0 0 0.02262800975670198 0.4039828593687294 0.9865229341079004)">2</text>
<rect class="edge_bg" x="-0.30129220161228143" y="0.6168405874673035" width="0.45256019513403956" height="0.45256019513403956"/>
<text class="edge_text" text-anchor="middle" dominant-baseline="middle" transform="matrix(0.02262800975670198 0 0 0.02262800975670198 -0.07501210404526162 0.8431206850343234)">3</text>
<rect class="edge_bg" x="-0.7802866366949233" y="0.4734394913593109" width="0.45256019513403956" height="0.45256019513403956"/>
<text class="edge_text" text-anchor="middle" dominant-baseline="middle" transform="matrix(0.02262800975670198 0 0 0.02262800975670198 -0.5540065391279034 0.6997195889263307)">6</text>
<rect class="edge_bg" x="-1.119993619536966" y="-0.45989993231580395" width="0.45256019513403956" height="0.45256019513403956"/>
<text class="edge_text" text-anchor="middle" dominant-baseline="middle" transform="matrix(0.02262800975670198 0 0 0.02262800975670198 -0.8937135219699461 -0.23361983474878414)">5</text>
</svg>
