<?xml version="1.0" encoding="utf-8"?>
<svg version="1.1" xmlns="http://www.w3.org/2000/svg" viewBox="-5.20866318166285 -4.754569338374196 19.838898363325697 10.009138676748393" style="enable-background:new -5.20866318166285 -4.754569338374196 19.838898363325697 10.009138676748393;">
<style type="text/css">
  .face_stroke {fill:none; stroke:#000000; stroke-width:0.02; stroke-miterlimit:10;}
  .face_text {fill:#000000; font-family:monospace;}
  .edge_text {fill:#ff0000; font-family:monospace;}
  .edge_bg {fill:#f3f3f3; stroke:#606060; stroke-width:0.01;}
</style>
<polygon class="face_stroke" points="4.277773390503963,-0.5 4.047157519761523,-1.4730448705798238 3.5983583395610603,-2.3666775109032363 2.955570729874521,-3.132721954022214 2.153447537119477,-3.729880545725001 1.2352314302392027,-4.125960311764158 0.2504236772269954,-4.299608489431088 -0.747884481044273,-4.241463660520612 -1.705873993359761,-3.954660427809522 -2.5718993971442,-3.454660427809522 -3.299273038717249,-2.7684187899407884 -3.848782016788056,-1.9329309785278503 -4.190802160113724,-0.9932383577419437 -4.3068950742389545,3.2978487341587843e-15 -4.190802160113724,0.9932383577419464 -3.848782016788054,1.9329309785278546 -3.299273038717247,2.7684187899407906 -2.5718993971441977,3.454660427809524 -1.7058739933597549,3.9546604278095243 -0.7478844810442692,4.241463660520613 0.25042367722699527,4.299608489431088 1.2352314302392036,4.125960311764158 2.1534475371194777,3.7298805457250004 2.9555707298745215,3.1327219540222138 3.5983583395610563,2.366677510903242 4.04715751976152,1.4730448705798305 4.277773390503962,0.5000000000000068"/>
<polygon class="face_stroke" points="4.277773865405187,0.4999999999999999 5.143799269189627,1.414100318299876e-16 4.277773865405188,-0.5000000000000003"/>
<polygon class="face_stroke" points="4.277773730810374,0.49999999999999994 5.143799134594813,1.0 5.143799134594813,-1.1102230246251565e-16"/>
<polygon class="face_stroke" points="5.143798609496036,0.9999999999999996 5.374414480238476,1.9730448705798236 5.823213660438938,2.866677510903236 6.466001270125478,3.6327219540222138 7.2681244628805235,4.229880545725001 8.186340569760798,4.625960311764158 9.171148322773007,4.799608489431088 10.169456481044271,4.741463660520612 11.12744599335976,4.454660427809522 11.993471397144196,3.9546604278095248 12.720845038717245,3.268418789940792 13.270354016788053,2.432930978527856 13.612374160113722,1.493238357741948 13.728467074238953,0.5000000000000125 13.612374160113728,-0.4932383577419309 13.27035401678806,-1.4329309785278403 12.72084503871726,-2.2684187899407755 11.993471397144212,-2.954660427809512 11.127445993359776,-3.454660427809515 10.169456481044293,-3.7414636605206084 9.171148322773023,-3.7996084894310886 8.18634056976082,-3.625960311764164 7.2681244628805395,-3.2298805457250097 6.466001270125496,-2.63272195402223 5.823213660438954,-1.8666775109032585 5.374414480238484,-0.9730448705798453 5.14379860949604,-2.631228568361621e-14"/>
<polygon class="face_stroke" points="6.466001243540913,3.6327216821880364 6.349908323637257,4.625960039254578 7.268124432821829,4.229880278557386"/>
<polygon class="face_stroke" points="6.466001676362743,3.632721960745422 5.54778556717817,4.028801721442614 6.349908756459087,4.625960317811964"/>
<polygon class="face_stroke" points="6.466001432821829,3.632722278557386 5.663878243540913,3.035563682188036 5.547785323637256,4.028802039254578"/>
<polygon class="face_stroke" points="5.663878676362743,3.035562960745422 4.7456625671781705,3.4316427214426137 5.547785756459087,4.028801317811964"/>
<polygon class="face_stroke" points="5.6638784328218295,3.035563278557386 4.861755243540913,2.438404682188036 4.745662323637256,3.4316430392545776"/>
<polygon class="face_stroke" points="4.861754676362743,2.438404960745422 3.9435385671781704,2.834484721442614 4.745661756459087,3.431643317811964"/>
<polygon class="face_stroke" points="4.8617554328218295,2.438404278557386 4.059632243540913,1.841245682188036 3.9435393236372565,2.8344840392545776"/>
<polygon class="face_stroke" points="4.059631676362743,1.8412459607454221 3.1414155671781705,2.237325721442614 3.9435387564590862,2.834484317811964"/>
<text class="face_text" text-anchor="middle" dominant-baseline="middle" transform="matrix(0.020018277353496785 0 0 0.020018277353496785 0.0 0.0)">54</text>
<text class="face_text" text-anchor="middle" dominant-baseline="middle" transform="matrix(0.020018277353496785 0 0 0.020018277353496785 4.566449 0.0)">0</text>
<text class="face_text" text-anchor="middle" dominant-baseline="middle" transform="matrix(0.020018277353496785 0 0 0.020018277353496785 4.855124 0.5)">1</text>
<text class="face_text" text-anchor="middle" dominant-baseline="middle" transform="matrix(0.020018277353496785 0 0 0.020018277353496785 9.421572 0.5)">55</text>
<text class="face_text" text-anchor="middle" dominant-baseline="middle" transform="matrix(0.020018277353496785 0 0 0.020018277353496785 6.694678 4.162854)">9</text>
<text class="face_text" text-anchor="middle" dominant-baseline="middle" transform="matrix(0.020018277353496785 0 0 0.020018277353496785 6.121232 4.095828)">8</text>
<text class="face_text" text-anchor="middle" dominant-baseline="middle" transform="matrix(0.020018277353496785 0 0 0.020018277353496785 5.892555 3.565696)">7</text>
<text class="face_text" text-anchor="middle" dominant-baseline="middle" transform="matrix(0.020018277353496785 0 0 0.020018277353496785 5.319109 3.498669)">6</text>
<text class="face_text" text-anchor="middle" dominant-baseline="middle" transform="matrix(0.020018277353496785 0 0 0.020018277353496785 5.090432 2.968537)">5</text>
<text class="face_text" text-anchor="middle" dominant-baseline="middle" transform="matrix(0.020018277353496785 0 0 0.020018277353496785 4.516985 2.901511)">4</text>
<text class="face_text" text-anchor="middle" dominant-baseline="middle" transform="matrix(0.020018277353496785 0 0 0.020018277353496785 4.288309 2.371378)">3</text>
<text class="face_text" text-anchor="middle" dominant-baseline="middle" transform="matrix(0.020018277353496785 0 0 0.020018277353496785 3.714862 2.304352)">2</text>
<rect class="edge_bg" x="4.07759109187022" y="-0.20018277353496788" width="0.4003655470699357" height="0.4003655470699357"/>
<text class="edge_text" text-anchor="middle" dominant-baseline="middle" transform="matrix(0.020018277353496785 0 0 0.020018277353496785 4.277773865405187 -3.535250795749691e-17)">1</text>
<rect class="edge_bg" x="4.510603659167626" y="0.04981722646503203" width="0.4003655470699357" height="0.4003655470699357"/>
<text class="edge_text" text-anchor="middle" dominant-baseline="middle" transform="matrix(0.020018277353496785 0 0 0.020018277353496785 4.7107864327025935 0.2499999999999999)">4</text>
<rect class="edge_bg" x="4.94361583596107" y="0.2998172264650316" width="0.4003655470699357" height="0.4003655470699357"/>
<text class="edge_text" text-anchor="middle" dominant-baseline="middle" transform="matrix(0.020018277353496785 0 0 0.020018277353496785 5.143798609496037 0.4999999999999995)">5</text>
<rect class="edge_bg" x="6.666880064646404" y="3.7311182068377433" width="0.4003655470699357" height="0.4003655470699357"/>
<text class="edge_text" text-anchor="middle" dominant-baseline="middle" transform="matrix(0.020018277353496785 0 0 0.020018277353496785 6.867062838181371 3.9313009803727113)">22</text>
<rect class="edge_bg" x="6.207772442875948" y="3.929158365743725" width="0.4003655470699357" height="0.4003655470699357"/>
<text class="edge_text" text-anchor="middle" dominant-baseline="middle" transform="matrix(0.020018277353496785 0 0 0.020018277353496785 6.407955216410915 4.129341139278693)">21</text>
<rect class="edge_bg" x="5.806710604694575" y="3.630579385371014" width="0.4003655470699357" height="0.4003655470699357"/>
<text class="edge_text" text-anchor="middle" dominant-baseline="middle" transform="matrix(0.020018277353496785 0 0 0.020018277353496785 6.006893378229543 3.830762158905982)">19</text>
<rect class="edge_bg" x="5.405649442875948" y="3.3319993657437252" width="0.4003655470699357" height="0.4003655470699357"/>
<text class="edge_text" text-anchor="middle" dominant-baseline="middle" transform="matrix(0.020018277353496785 0 0 0.020018277353496785 5.605832216410915 3.532182139278693)">17</text>
<rect class="edge_bg" x="5.004587604694575" y="3.033420385371014" width="0.4003655470699357" height="0.4003655470699357"/>
<text class="edge_text" text-anchor="middle" dominant-baseline="middle" transform="matrix(0.020018277353496785 0 0 0.020018277353496785 5.204770378229543 3.233603158905982)">15</text>
<rect class="edge_bg" x="4.603525442875948" y="2.7348413657437254" width="0.4003655470699357" height="0.4003655470699357"/>
<text class="edge_text" text-anchor="middle" dominant-baseline="middle" transform="matrix(0.020018277353496785 0 0 0.020018277353496785 4.803708216410915 2.9350241392786933)">13</text>
<rect class="edge_bg" x="4.202464604694575" y="2.436261385371014" width="0.4003655470699357" height="0.4003655470699357"/>
<text class="edge_text" text-anchor="middle" dominant-baseline="middle" transform="matrix(0.020018277353496785 0 0 0.020018277353496785 4.402647378229543 2.636444158905982)">11</text>
<rect class="edge_bg" x="3.8014024428759474" y="2.1376823657437254" width="0.4003655470699357" height="0.4003655470699357"/>
<text class="edge_text" text-anchor="middle" dominant-baseline="middle" transform="matrix(0.020018277353496785 0 0 0.020018277353496785 4.001585216410915 2.3378651392786933)">9</text>
</svg>
