<?xml version="1.0" encoding="utf-8"?>
<svg version="1.1" xmlns="http://www.w3.org/2000/svg" viewBox="-5.20866318166285 -5.033916096838265 19.838898363325697 10.301787661805989" style="enable-background:new -5.20866318166285 -5.033916096838265 19.838898363325697 10.301787661805989;">
<style type="text/css">
  .face_stroke {fill:none; stroke:#000000; stroke-width:0.02; stroke-miterlimit:10;}
  .face_text {fill:#000000; font-family:monospace;}
  .edge_text {fill:#ff0000; font-family:monospace;}
  .edge_bg {fill:#f3f3f3; stroke:#606060; stroke-width:0.01;}
</style>
<polygon class="face_stroke" points="4.277773390503963,-0.5 4.047157519761523,-1.4730448705798238 3.5983583395610603,-2.3666775109032363 2.955570729874521,-3.132721954022214 2.153447537119477,-3.729880545725001 1.2352314302392027,-4.125960311764158 0.2504236772269954,-4.299608489431088 -0.747884481044273,-4.241463660520612 -1.705873993359761,-3.954660427809522 -2.5718993971442,-3.454660427809522 -3.299273038717249,-2.7684187899407884 -3.848782016788056,-1.9329309785278503 -4.190802160113724,-0.9932383577419437 -4.3068950742389545,3.2978487341587843e-15 -4.190802160113724,0.9932383577419464 -3.848782016788054,1.9329309785278546 -3.299273038717247,2.7684187899407906 -2.5718993971441977,3.454660427809524 -1.7058739933597549,3.9546604278095243 -0.7478844810442692,4.241463660520613 0.25042367722699527,4.299608489431088 1.2352314302392036,4.125960311764158 2.1534475371194777,3.7298805457250004 2.9555707298745215,3.1327219540222138 3.5983583395610563,2.366677510903242 4.04715751976152,1.4730448705798305 4.277773390503962,0.5000000000000068"/>
<polygon class="face_stroke" points="4.277773865405187,0.4999999999999999 5.143799269189627,1.414100318299876e-16 4.277773865405188,-0.5000000000000003"/>
<polygon class="face_stroke" points="4.277773730810374,0.49999999999999994 5.143799134594813,1.0 5.143799134594813,-1.1102230246251565e-16"/>
<polygon class="face_stroke" points="5.143798609496036,0.9999999999999996 5.374414480238476,1.9730448705798236 5.823213660438938,2.866677510903236 6.466001270125478,3.6327219540222138 7.2681244628805235,4.229880545725001 8.186340569760798,4.625960311764158 9.171148322773007,4.799608489431088 10.169456481044271,4.741463660520612 11.12744599335976,4.454660427809522 11.993471397144196,3.9546604278095248 12.720845038717245,3.268418789940792 13.270354016788053,2.432930978527856 13.612374160113722,1.493238357741948 13.728467074238953,0.5000000000000125 13.612374160113728,-0.4932383577419309 13.27035401678806,-1.4329309785278403 12.72084503871726,-2.2684187899407755 11.993471397144212,-2.954660427809512 11.127445993359776,-3.454660427809515 10.169456481044293,-3.7414636605206084 9.171148322773023,-3.7996084894310886 8.18634056976082,-3.625960311764164 7.2681244628805395,-3.2298805457250097 6.466001270125496,-2.63272195402223 5.823213660438954,-1.8666775109032585 5.374414480238484,-0.9730448705798453 5.14379860949604,-2.631228568361621e-14"/>
<polygon class="face_stroke" points="9.17114878756625,-3.7996085781826507 8.52836117787971,-4.565653021301629 8.186341034554042,-3.62596040051572"/>
<polygon class="face_stroke" points="8.528360965445959,-4.565652599484279 7.543553212433752,-4.392004421817349 8.186340822120291,-3.6259599786983707"/>
<polygon class="face_stroke" points="7.54355317787971,-4.392005021301629 7.201533034554041,-3.45231240051572 8.18634078756625,-3.6259605781826507"/>
<polygon class="face_stroke" points="7.543552965445959,-4.392004599484279 6.558745212433751,-4.218356421817349 7.2015328221202894,-3.4523119786983707"/>
<polygon class="face_stroke" points="6.55874517787971,-4.218357021301629 6.216725034554041,-3.27866440051572 7.201532787566249,-3.4523125781826507"/>
<polygon class="face_stroke" points="6.5587449654459595,-4.21835659948428 5.573937212433751,-4.04470842181735 6.21672482212029,-3.278663978698371"/>
<polygon class="face_stroke" points="5.57393717787971,-4.044708021301629 5.231917034554041,-3.10501540051572 6.216724787566249,-3.2786635781826505"/>
<polygon class="face_stroke" points="5.5739379654459595,-4.04470859948428 4.589130212433751,-3.8710604218173494 5.23191782212029,-3.105015978698371"/>
<polygon class="face_stroke" points="4.58913017787971,-3.871060021301629 4.247110034554041,-2.931367400515721 5.231917787566249,-3.105015578182651"/>
<polygon class="face_stroke" points="4.589129965445959,-3.87106059948428 3.6043222124337513,-3.6974124218173494 4.24710982212029,-2.931367978698371"/>
<polygon class="face_stroke" points="3.60432217787971,-3.697412021301629 3.262302034554041,-2.757719400515721 4.24710978756625,-2.931367578182651"/>
<text class="face_text" text-anchor="middle" dominant-baseline="middle" transform="matrix(0.020603575323611976 0 0 0.020603575323611976 0.0 0.0)">54</text>
<text class="face_text" text-anchor="middle" dominant-baseline="middle" transform="matrix(0.020603575323611976 0 0 0.020603575323611976 4.566449 0.0)">0</text>
<text class="face_text" text-anchor="middle" dominant-baseline="middle" transform="matrix(0.020603575323611976 0 0 0.020603575323611976 4.855124 0.5)">1</text>
<text class="face_text" text-anchor="middle" dominant-baseline="middle" transform="matrix(0.020603575323611976 0 0 0.020603575323611976 9.421572 0.5)">55</text>
<text class="face_text" text-anchor="middle" dominant-baseline="middle" transform="matrix(0.020603575323611976 0 0 0.020603575323611976 8.628617 -3.997074)">43</text>
<text class="face_text" text-anchor="middle" dominant-baseline="middle" transform="matrix(0.020603575323611976 0 0 0.020603575323611976 8.086085 -4.194539)">44</text>
<text class="face_text" text-anchor="middle" dominant-baseline="middle" transform="matrix(0.020603575323611976 0 0 0.020603575323611976 7.643809 -3.823426)">45</text>
<text class="face_text" text-anchor="middle" dominant-baseline="middle" transform="matrix(0.020603575323611976 0 0 0.020603575323611976 7.101277 -4.020891)">46</text>
<text class="face_text" text-anchor="middle" dominant-baseline="middle" transform="matrix(0.020603575323611976 0 0 0.020603575323611976 6.659001 -3.649778)">47</text>
<text class="face_text" text-anchor="middle" dominant-baseline="middle" transform="matrix(0.020603575323611976 0 0 0.020603575323611976 6.116469 -3.847243)">48</text>
<text class="face_text" text-anchor="middle" dominant-baseline="middle" transform="matrix(0.020603575323611976 0 0 0.020603575323611976 5.674193 -3.476129)">49</text>
<text class="face_text" text-anchor="middle" dominant-baseline="middle" transform="matrix(0.020603575323611976 0 0 0.020603575323611976 5.131662 -3.673595)">50</text>
<text class="face_text" text-anchor="middle" dominant-baseline="middle" transform="matrix(0.020603575323611976 0 0 0.020603575323611976 4.689386 -3.302481)">51</text>
<text class="face_text" text-anchor="middle" dominant-baseline="middle" transform="matrix(0.020603575323611976 0 0 0.020603575323611976 4.146854 -3.499947)">52</text>
<text class="face_text" text-anchor="middle" dominant-baseline="middle" transform="matrix(0.020603575323611976 0 0 0.020603575323611976 3.704578 -3.128833)">53</text>
<rect class="edge_bg" x="4.071738112169068" y="-0.2060357532361198" width="0.41207150647223956" height="0.41207150647223956"/>
<text class="edge_text" text-anchor="middle" dominant-baseline="middle" transform="matrix(0.020603575323611976 0 0 0.020603575323611976 4.277773865405187 -3.535250795749691e-17)">1</text>
<rect class="edge_bg" x="4.504750679466474" y="0.04396424676388011" width="0.41207150647223956" height="0.41207150647223956"/>
<text class="edge_text" text-anchor="middle" dominant-baseline="middle" transform="matrix(0.020603575323611976 0 0 0.020603575323611976 4.7107864327025935 0.2499999999999999)">4</text>
<rect class="edge_bg" x="4.937762856259917" y="0.2939642467638797" width="0.41207150647223956" height="0.41207150647223956"/>
<text class="edge_text" text-anchor="middle" dominant-baseline="middle" transform="matrix(0.020603575323611976 0 0 0.020603575323611976 5.143798609496037 0.4999999999999995)">5</text>
<rect class="edge_bg" x="8.472709157824024" y="-3.9188202425853054" width="0.41207150647223956" height="0.41207150647223956"/>
<text class="edge_text" text-anchor="middle" dominant-baseline="middle" transform="matrix(0.020603575323611976 0 0 0.020603575323611976 8.678744911060145 -3.7127844893491857)">90</text>
<rect class="edge_bg" x="8.151315140547005" y="-4.301842042327444" width="0.41207150647223956" height="0.41207150647223956"/>
<text class="edge_text" text-anchor="middle" dominant-baseline="middle" transform="matrix(0.020603575323611976 0 0 0.020603575323611976 8.357350893783126 -4.095806289091325)">91</text>
<rect class="edge_bg" x="7.6589112294868595" y="-4.215018552978259" width="0.41207150647223956" height="0.41207150647223956"/>
<text class="edge_text" text-anchor="middle" dominant-baseline="middle" transform="matrix(0.020603575323611976 0 0 0.020603575323611976 7.864946982722979 -4.00898279974214)">93</text>
<rect class="edge_bg" x="7.166507140547004" y="-4.128194042327445" width="0.41207150647223956" height="0.41207150647223956"/>
<text class="edge_text" text-anchor="middle" dominant-baseline="middle" transform="matrix(0.020603575323611976 0 0 0.020603575323611976 7.372542893783124 -3.922158289091325)">95</text>
<rect class="edge_bg" x="6.674103229486859" y="-4.041370552978259" width="0.41207150647223956" height="0.41207150647223956"/>
<text class="edge_text" text-anchor="middle" dominant-baseline="middle" transform="matrix(0.020603575323611976 0 0 0.020603575323611976 6.880138982722979 -3.8353347997421396)">97</text>
<rect class="edge_bg" x="6.181699140547005" y="-3.954546042327445" width="0.41207150647223956" height="0.41207150647223956"/>
<text class="edge_text" text-anchor="middle" dominant-baseline="middle" transform="matrix(0.020603575323611976 0 0 0.020603575323611976 6.387734893783125 -3.7485102890913256)">99</text>
<rect class="edge_bg" x="5.689295229486859" y="-3.867721552978259" width="0.41207150647223956" height="0.41207150647223956"/>
<text class="edge_text" text-anchor="middle" dominant-baseline="middle" transform="matrix(0.020603575323611976 0 0 0.020603575323611976 5.895330982722979 -3.6616857997421395)">101</text>
<rect class="edge_bg" x="5.196892140547005" y="-3.780898042327445" width="0.41207150647223956" height="0.41207150647223956"/>
<text class="edge_text" text-anchor="middle" dominant-baseline="middle" transform="matrix(0.020603575323611976 0 0 0.020603575323611976 5.402927893783125 -3.5748622890913255)">103</text>
<rect class="edge_bg" x="4.704488229486859" y="-3.6940735529782596" width="0.41207150647223956" height="0.41207150647223956"/>
<text class="edge_text" text-anchor="middle" dominant-baseline="middle" transform="matrix(0.020603575323611976 0 0 0.020603575323611976 4.910523982722979 -3.48803779974214)">105</text>
<rect class="edge_bg" x="4.212084140547005" y="-3.607250042327445" width="0.41207150647223956" height="0.41207150647223956"/>
<text class="edge_text" text-anchor="middle" dominant-baseline="middle" transform="matrix(0.020603575323611976 0 0 0.020603575323611976 4.418119893783125 -3.4012142890913255)">107</text>
<rect class="edge_bg" x="3.71968022948686" y="-3.5204255529782595" width="0.41207150647223956" height="0.41207150647223956"/>
<text class="edge_text" text-anchor="middle" dominant-baseline="middle" transform="matrix(0.020603575323611976 0 0 0.020603575323611976 3.9257159827229797 -3.31438979974214)">3</text>
</svg>
