<?xml version="1.0" encoding="utf-8"?>
<svg version="1.1" xmlns="http://www.w3.org/2000/svg" viewBox="-5.20866318166285 -4.754569338374196 19.838898363325697 10.009138676748393" style="enable-background:new -5.20866318166285 -4.754569338374196 19.838898363325697 10.009138676748393;">
<style type="text/css">
  .face_stroke {fill:none; stroke:#000000; stroke-width:0.02; stroke-miterlimit:10;}
  .face_text {fill:#000000; font-family:monospace;}
  .edge_text {fill:#ff0000; font-family:monospace;}
  .edge_bg {fill:#f3f3f3; stroke:#606060; stroke-width:0.01;}
</style>
<polygon class="face_stroke" points="4.277773390503963,-0.5 4.047157519761523,-1.4730448705798238 3.5983583395610603,-2.3666775109032363 2.955570729874521,-3.132721954022214 2.153447537119477,-3.729880545725001 1.2352314302392027,-4.125960311764158 0.2504236772269954,-4.299608489431088 -0.747884481044273,-4.241463660520612 -1.705873993359761,-3.954660427809522 -2.5718993971442,-3.454660427809522 -3.299273038717249,-2.7684187899407884 -3.848782016788056,-1.9329309785278503 -4.190802160113724,-0.9932383577419437 -4.3068950742389545,3.2978487341587843e-15 -4.190802160113724,0.9932383577419464 -3.848782016788054,1.9329309785278546 -3.299273038717247,2.7684187899407906 -2.5718993971441977,3.454660427809524 -1.7058739933597549,3.9546604278095243 -0.7478844810442692,4.241463660520613 0.25042367722699527,4.299608489431088 1.2352314302392036,4.125960311764158 2.1534475371194777,3.7298805457250004 2.9555707298745215,3.1327219540222138 3.5983583395610563,2.366677510903242 4.04715751976152,1.4730448705798305 4.277773390503962,0.5000000000000068"/>
<polygon class="face_stroke" points="4.277773865405187,0.4999999999999999 5.143799269189627,1.414100318299876e-16 4.277773865405188,-0.5000000000000003"/>
<polygon class="face_stroke" points="4.277773730810374,0.49999999999999994 5.143799134594813,1.0 5.143799134594813,-1.1102230246251565e-16"/>
<polygon class="face_stroke" points="5.143798609496036,0.9999999999999996 5.374414480238476,1.9730448705798236 5.823213660438938,2.866677510903236 6.466001270125478,3.6327219540222138 7.2681244628805235,4.229880545725001 8.186340569760798,4.625960311764158 9.171148322773007,4.799608489431088 10.169456481044271,4.741463660520612 11.12744599335976,4.454660427809522 11.993471397144196,3.9546604278095248 12.720845038717245,3.268418789940792 13.270354016788053,2.432930978527856 13.612374160113722,1.493238357741948 13.728467074238953,0.5000000000000125 13.612374160113728,-0.4932383577419309 13.27035401678806,-1.4329309785278403 12.72084503871726,-2.2684187899407755 11.993471397144212,-2.954660427809512 11.127445993359776,-3.454660427809515 10.169456481044293,-3.7414636605206084 9.171148322773023,-3.7996084894310886 8.18634056976082,-3.625960311764164 7.2681244628805395,-3.2298805457250097 6.466001270125496,-2.63272195402223 5.823213660438954,-1.8666775109032585 5.374414480238484,-0.9730448705798453 5.14379860949604,-2.631228568361621e-14"/>
<polygon class="face_stroke" points="8.18634043282183,-3.625960721442614 7.384217243540913,-4.223119317811964 7.268124323637256,-3.2298809607454224"/>
<polygon class="face_stroke" points="7.384217676362743,-4.223119039254578 6.4660015671781705,-3.827039278557386 7.268124756459087,-3.229880682188036"/>
<polygon class="face_stroke" points="6.466001243540913,-3.827039317811964 6.349908323637257,-2.833800960745422 7.268124432821829,-3.229880721442614"/>
<polygon class="face_stroke" points="6.466001676362743,-3.827039039254578 5.54778556717817,-3.430959278557386 6.349908756459087,-2.833800682188036"/>
<polygon class="face_stroke" points="5.547785243540914,-3.430959317811964 5.431692323637257,-2.437720960745422 6.34990843282183,-2.833800721442614"/>
<polygon class="face_stroke" points="5.547785676362743,-3.430959039254578 4.62956956717817,-3.034879278557386 5.4316927564590864,-2.437720682188036"/>
<polygon class="face_stroke" points="4.629569243540914,-3.034879317811964 4.513476323637257,-2.041640960745422 5.43169243282183,-2.437720721442614"/>
<polygon class="face_stroke" points="4.629569676362743,-3.034880039254578 3.71135356717817,-2.6388002785573863 4.513476756459086,-2.041641682188036"/>
<polygon class="face_stroke" points="3.7113532435409136,-2.638800317811964 3.595260323637257,-1.6455619607454222 4.51347643282183,-2.0416417214426144"/>
<text class="face_text" text-anchor="middle" dominant-baseline="middle" transform="matrix(0.020018277353496785 0 0 0.020018277353496785 0.0 0.0)">54</text>
<text class="face_text" text-anchor="middle" dominant-baseline="middle" transform="matrix(0.020018277353496785 0 0 0.020018277353496785 4.566449 0.0)">0</text>
<text class="face_text" text-anchor="middle" dominant-baseline="middle" transform="matrix(0.020018277353496785 0 0 0.020018277353496785 4.855124 0.5)">1</text>
<text class="face_text" text-anchor="middle" dominant-baseline="middle" transform="matrix(0.020018277353496785 0 0 0.020018277353496785 9.421572 0.5)">55</text>
<text class="face_text" text-anchor="middle" dominant-baseline="middle" transform="matrix(0.020018277353496785 0 0 0.020018277353496785 7.612894 -3.692987)">45</text>
<text class="face_text" text-anchor="middle" dominant-baseline="middle" transform="matrix(0.020018277353496785 0 0 0.020018277353496785 7.039448 -3.760013)">46</text>
<text class="face_text" text-anchor="middle" dominant-baseline="middle" transform="matrix(0.020018277353496785 0 0 0.020018277353496785 6.694678 -3.296907)">47</text>
<text class="face_text" text-anchor="middle" dominant-baseline="middle" transform="matrix(0.020018277353496785 0 0 0.020018277353496785 6.121232 -3.363933)">48</text>
<text class="face_text" text-anchor="middle" dominant-baseline="middle" transform="matrix(0.020018277353496785 0 0 0.020018277353496785 5.776462 -2.900827)">49</text>
<text class="face_text" text-anchor="middle" dominant-baseline="middle" transform="matrix(0.020018277353496785 0 0 0.020018277353496785 5.203016 -2.967853)">50</text>
<text class="face_text" text-anchor="middle" dominant-baseline="middle" transform="matrix(0.020018277353496785 0 0 0.020018277353496785 4.858246 -2.504747)">51</text>
<text class="face_text" text-anchor="middle" dominant-baseline="middle" transform="matrix(0.020018277353496785 0 0 0.020018277353496785 4.2848 -2.571774)">52</text>
<text class="face_text" text-anchor="middle" dominant-baseline="middle" transform="matrix(0.020018277353496785 0 0 0.020018277353496785 3.94003 -2.108668)">53</text>
<rect class="edge_bg" x="4.07759109187022" y="-0.20018277353496788" width="0.4003655470699357" height="0.4003655470699357"/>
<text class="edge_text" text-anchor="middle" dominant-baseline="middle" transform="matrix(0.020018277353496785 0 0 0.020018277353496785 4.277773865405187 -3.535250795749691e-17)">1</text>
<rect class="edge_bg" x="4.510603659167626" y="0.04981722646503203" width="0.4003655470699357" height="0.4003655470699357"/>
<text class="edge_text" text-anchor="middle" dominant-baseline="middle" transform="matrix(0.020018277353496785 0 0 0.020018277353496785 4.7107864327025935 0.2499999999999999)">4</text>
<rect class="edge_bg" x="4.94361583596107" y="0.2998172264650316" width="0.4003655470699357" height="0.4003655470699357"/>
<text class="edge_text" text-anchor="middle" dominant-baseline="middle" transform="matrix(0.020018277353496785 0 0 0.020018277353496785 5.143798609496037 0.4999999999999995)">5</text>
<rect class="edge_bg" x="7.527049604694575" y="-3.628103614628986" width="0.4003655470699357" height="0.4003655470699357"/>
<text class="edge_text" text-anchor="middle" dominant-baseline="middle" transform="matrix(0.020018277353496785 0 0 0.020018277353496785 7.727232378229543 -3.427920841094018)">94</text>
<rect class="edge_bg" x="7.125988442875948" y="-3.9266826342562746" width="0.4003655470699357" height="0.4003655470699357"/>
<text class="edge_text" text-anchor="middle" dominant-baseline="middle" transform="matrix(0.020018277353496785 0 0 0.020018277353496785 7.326171216410915 -3.7264998607213067)">95</text>
<rect class="edge_bg" x="6.666880064646404" y="-3.728642793162257" width="0.4003655470699357" height="0.4003655470699357"/>
<text class="edge_text" text-anchor="middle" dominant-baseline="middle" transform="matrix(0.020018277353496785 0 0 0.020018277353496785 6.867062838181371 -3.528460019627289)">97</text>
<rect class="edge_bg" x="6.207772442875948" y="-3.5306026342562746" width="0.4003655470699357" height="0.4003655470699357"/>
<text class="edge_text" text-anchor="middle" dominant-baseline="middle" transform="matrix(0.020018277353496785 0 0 0.020018277353496785 6.407955216410915 -3.3304198607213067)">99</text>
<rect class="edge_bg" x="5.7486640646464044" y="-3.332562793162257" width="0.4003655470699357" height="0.4003655470699357"/>
<text class="edge_text" text-anchor="middle" dominant-baseline="middle" transform="matrix(0.020018277353496785 0 0 0.020018277353496785 5.948846838181372 -3.132380019627289)">101</text>
<rect class="edge_bg" x="5.289556442875948" y="-3.1345226342562746" width="0.4003655470699357" height="0.4003655470699357"/>
<text class="edge_text" text-anchor="middle" dominant-baseline="middle" transform="matrix(0.020018277353496785 0 0 0.020018277353496785 5.489739216410915 -2.9343398607213067)">103</text>
<rect class="edge_bg" x="4.830448064646404" y="-2.936482793162257" width="0.4003655470699357" height="0.4003655470699357"/>
<text class="edge_text" text-anchor="middle" dominant-baseline="middle" transform="matrix(0.020018277353496785 0 0 0.020018277353496785 5.030630838181372 -2.736300019627289)">105</text>
<rect class="edge_bg" x="4.3713404428759475" y="-2.738443634256275" width="0.4003655470699357" height="0.4003655470699357"/>
<text class="edge_text" text-anchor="middle" dominant-baseline="middle" transform="matrix(0.020018277353496785 0 0 0.020018277353496785 4.571523216410915 -2.538260860721307)">107</text>
<rect class="edge_bg" x="3.9122320646464037" y="-2.540403793162257" width="0.4003655470699357" height="0.4003655470699357"/>
<text class="edge_text" text-anchor="middle" dominant-baseline="middle" transform="matrix(0.020018277353496785 0 0 0.020018277353496785 4.112414838181372 -2.3402210196272892)">3</text>
</svg>
