<?xml version="1.0" encoding="utf-8"?>
<svg version="1.1" id="layer_1" xmlns="http://www.w3.org/2000/svg" xmlns:xlink="http://www.w3.org/1999/xlink" x="0px" y="0px" viewBox="-0.9006508083520399 -0.8590169943749475 3.24801285560386 3.969837848593772" style="enable-background:new -0.9006508083520399 -0.8590169943749475 3.24801285560386 3.969837848593772;" xml:space="preserve">
<style type="text/css">
  .no_fill_black_stroke {fill:none; stroke:#000000; stroke-width:0.02; stroke-miterlimit:10;}
  .face_text {fill:#000000; font-family:monospace;}
  .edge_text {fill:#ff0000; font-family:monospace;}
  .edge_bg {fill:#f3f3f3; stroke:#606060; stroke-width:0.02;}
</style>
<polygon class="no_fill_black_stroke" points="0.6881909602355868, -0.5 -0.26286555605956674, -0.8090169943749475 -0.8506508083520399, -1.0417467896404342e-16 -0.2628655560595669, 0.8090169943749473 0.6881909602355867, 0.5000000000000001"/>
<polygon class="no_fill_black_stroke" points="0.6881908654051868, 0.4999999999999999 1.554216269189626, 1.414100318299876e-16 0.6881908654051876, -0.5000000000000003"/>
<polygon class="no_fill_black_stroke" points="0.6881918179899875, 0.5000001457811754 0.8961035088077465, 1.4781477465149808 1.8906254041760202, 1.5826762097826346 2.2973620472518204, 0.6691307521400344 1.554217221774426, 1.457811755756211e-07"/>
<polygon class="no_fill_black_stroke" points="0.896103820518642, 1.4781520263632484 1.3028404635944424, 2.3916974840058494 1.8906257158869155, 1.5826804896309024"/>
<polygon class="no_fill_black_stroke" points="0.89610240417602, 1.4781447902173657 -0.09841949119225335, 1.582673253485019 -0.30633118201001286, 2.560820854218824 0.5596942217744255, 3.0608208542188247 1.30283904725182, 2.391690247859967"/>
<polygon class="no_fill_black_stroke" points="0.8961027158869155, 1.478149510369098 0.30831746359444245, 0.6691325159941505 -0.09841917948135792, 1.5826779736367516"/>
<text class="face_text" text-anchor="middle" dominant-baseline="middle" transform="matrix(0.00649602571120772 0 0 0.00649602571120772 0.0 0.0)">0</text>
<text class="face_text" text-anchor="middle" dominant-baseline="middle" transform="matrix(0.00649602571120772 0 0 0.00649602571120772 0.976866 0.0)">3</text>
<text class="face_text" text-anchor="middle" dominant-baseline="middle" transform="matrix(0.00649602571120772 0 0 0.00649602571120772 1.4653 0.845991)">2</text>
<text class="face_text" text-anchor="middle" dominant-baseline="middle" transform="matrix(0.00649602571120772 0 0 0.00649602571120772 1.36319 1.81751)">19</text>
<text class="face_text" text-anchor="middle" dominant-baseline="middle" transform="matrix(0.00649602571120772 0 0 0.00649602571120772 0.470777 2.21483)">18</text>
<text class="face_text" text-anchor="middle" dominant-baseline="middle" transform="matrix(0.00649602571120772 0 0 0.00649602571120772 0.368667 1.24332)">1</text>
<rect class="edge_bg" x="0.6232306082931098" y="-0.06496025711207724" width="0.1299205142241544" height="0.1299205142241544"/>
<text class="edge_text" text-anchor="middle" dominant-baseline="middle" transform="matrix(0.00649602571120772 0 0 0.00649602571120772 0.688190865405187 -3.535250795749691e-17)">0</text>
<rect class="edge_bg" x="1.0562442627701296" y="0.18503988866909815" width="0.1299205142241544" height="0.1299205142241544"/>
<text class="edge_text" text-anchor="middle" dominant-baseline="middle" transform="matrix(0.00649602571120772 0 0 0.00649602571120772 1.1212045198822067 0.25000014578117535)">3</text>
<rect class="edge_bg" x="1.3284045110907017" y="1.465456000884998" width="0.1299205142241544" height="0.1299205142241544"/>
<text class="edge_text" text-anchor="middle" dominant-baseline="middle" transform="matrix(0.00649602571120772 0 0 0.00649602571120772 1.3933647682027788 1.530416257997075)">29</text>
<rect class="edge_bg" x="1.0345104686018427" y="1.8699572619265887" width="0.1299205142241544" height="0.1299205142241544"/>
<text class="edge_text" text-anchor="middle" dominant-baseline="middle" transform="matrix(0.00649602571120772 0 0 0.00649602571120772 1.09947072571392 1.934917519038666)">25</text>
<rect class="edge_bg" x="0.33388151109070163" y="1.4654534848908476" width="0.1299205142241544" height="0.1299205142241544"/>
<text class="edge_text" text-anchor="middle" dominant-baseline="middle" transform="matrix(0.00649602571120772 0 0 0.00649602571120772 0.39884176820277883 1.5304137420029247)">28</text>
</svg>
