<?xml version="1.0" encoding="utf-8"?>
<svg version="1.1" xmlns="http://www.w3.org/2000/svg" viewBox="-9.178865688374195 -7.6457832316628505 16.21554437674839 17.527139463325703" style="enable-background:new -9.178865688374195 -7.6457832316628505 16.21554437674839 17.527139463325703;">
<style type="text/css">
  .face_stroke {fill:none; stroke:#000000; stroke-width:0.02; stroke-miterlimit:10;}
  .face_text {fill:#000000; font-family:monospace;}
  .edge_text {fill:#ff0000; font-family:monospace;}
  .edge_bg {fill:#f3f3f3; stroke:#606060; stroke-width:0.01;}
</style>
<polygon class="face_stroke" points="0.5000000000000001,-0.5 -0.5,-0.5000000000000001 -0.5000000000000001,0.5 0.4999999999999999,0.5000000000000001"/>
<polygon class="face_stroke" points="0.4999999999999999,0.5 1.5,0.5000000000000001 1.5000000000000007,-0.49999999999999944 0.49999999999999967,-0.4999999999999998"/>
<polygon class="face_stroke" points="1.5,0.5 2.5,0.5000000000000001 2.500000000000001,-0.49999999999999944 1.4999999999999996,-0.4999999999999998"/>
<polygon class="face_stroke" points="1.5000000000000002,0.4999996094960366 0.5269551294201762,0.7306154802384768 -0.3666775109032345,1.1794146604389386 -1.1327219540222142,1.8222022701254788 -1.7298805457250008,2.624325462880523 -2.1259603117641577,3.5425415697607967 -2.2996084894310878,4.527349322773005 -2.241463660520611,5.525657481044275 -1.9546604278095203,6.4836469933597645 -1.4546604278095199,7.349672397144202 -0.7684187899407857,8.077046038717251 0.06706902147215099,8.626555016788057 1.0067616422580596,8.968575160113724 2.000000000000003,9.084668074238955 2.993238357741946,8.968575160113723 3.932930978527854,8.626555016788053 4.768418789940787,8.07704603871725 5.454660427809519,7.349672397144204 5.95466042780952,6.483646993359765 6.241463660520611,5.525657481044277 6.299608489431088,4.527349322773013 6.1259603117641594,3.542541569760804 5.729880545725004,2.6243254628805293 5.132721954022225,1.8222022701254899 4.366677510903248,1.179414660438948 3.473044870579838,0.7306154802384821 2.5000000000000187,0.4999996094960393"/>
<polygon class="face_stroke" points="-0.3666779735972413,1.1794154167162194 -1.0094655832837807,0.4133709735972414 -1.7755100264027588,1.0561585832837803 -1.1327224167162193,1.8222030264027587"/>
<polygon class="face_stroke" points="-1.0094650459777856,0.4133707298745213 -0.412306454274999,-0.388752462880523 -0.016226688235842168,-1.3069685697607971 0.1574214894310879,-2.291776322773005 0.09927666052061213,-3.290084481044273 -0.18752657219047864,-4.248073993359762 -0.6875265721904786,-5.114099397144201 -1.3737682100592128,-5.8414730387172495 -2.209256021472149,-6.3909820167880556 -3.1489486422580573,-6.733002160113724 -4.142187,-6.849095074238955 -5.1354253577419415,-6.733002160113724 -6.0751179785278495,-6.390982016788056 -6.910605789940788,-5.841473038717249 -7.5968474278095215,-5.114099397144201 -8.096847427809521,-4.248073993359762 -8.383650660520612,-3.290084481044271 -8.441795489431087,-2.291776322773002 -8.268147311764157,-1.3069685697607942 -7.872067545724999,-0.38875246288052034 -7.274908954022212,0.41337072987452306 -6.508864510903232,1.0561583395610632 -5.615231870579819,1.5049575197615241 -4.6421869999999945,1.7355733905039634 -3.642186999999995,1.7355733905039625 -2.6691421294201714,1.5049575197615215 -1.7755094890967622,1.05615833956106"/>
<text class="face_text" text-anchor="middle" dominant-baseline="middle" transform="matrix(0.03243108875349678 0 0 0.03243108875349678 0.0 0.0)">0</text>
<text class="face_text" text-anchor="middle" dominant-baseline="middle" transform="matrix(0.03243108875349678 0 0 0.03243108875349678 1.0 0.0)">26</text>
<text class="face_text" text-anchor="middle" dominant-baseline="middle" transform="matrix(0.03243108875349678 0 0 0.03243108875349678 2.0 0.0)">25</text>
<text class="face_text" text-anchor="middle" dominant-baseline="middle" transform="matrix(0.03243108875349678 0 0 0.03243108875349678 2.0 4.777773)">28</text>
<text class="face_text" text-anchor="middle" dominant-baseline="middle" transform="matrix(0.03243108875349678 0 0 0.03243108875349678 -1.071094 1.117787)">1</text>
<text class="face_text" text-anchor="middle" dominant-baseline="middle" transform="matrix(0.03243108875349678 0 0 0.03243108875349678 -4.142187 -2.5422)">27</text>
<rect class="edge_bg" x="0.1756891124650321" y="-0.32431088753496784" width="0.6486217750699356" height="0.6486217750699356"/>
<text class="edge_text" text-anchor="middle" dominant-baseline="middle" transform="matrix(0.03243108875349678 0 0 0.03243108875349678 0.4999999999999999 -6.123233995736767e-17)">0</text>
<rect class="edge_bg" x="1.1756891124650322" y="-0.32431088753496784" width="0.6486217750699356" height="0.6486217750699356"/>
<text class="edge_text" text-anchor="middle" dominant-baseline="middle" transform="matrix(0.03243108875349678 0 0 0.03243108875349678 1.5 -6.123233995736767e-17)">80</text>
<rect class="edge_bg" x="1.6756891124650326" y="0.17568872196106972" width="0.6486217750699356" height="0.6486217750699356"/>
<text class="edge_text" text-anchor="middle" dominant-baseline="middle" transform="matrix(0.03243108875349678 0 0 0.03243108875349678 2.0000000000000004 0.4999996094960375)">79</text>
<rect class="edge_bg" x="-1.074011082691698" y="1.1764983340245214" width="0.6486217750699356" height="0.6486217750699356"/>
<text class="edge_text" text-anchor="middle" dominant-baseline="middle" transform="matrix(0.03243108875349678 0 0 0.03243108875349678 -0.7497001951567303 1.5008092215594893)">7</text>
<rect class="edge_bg" x="-1.7167981550722424" y="0.4104536471828229" width="0.6486217750699356" height="0.6486217750699356"/>
<text class="edge_text" text-anchor="middle" dominant-baseline="middle" transform="matrix(0.03243108875349678 0 0 0.03243108875349678 -1.3924872675372746 0.7347645347177907)">6</text>
</svg>
