<?xml version="1.0" encoding="utf-8"?>
<svg version="1.1" xmlns="http://www.w3.org/2000/svg" viewBox="-9.777531639903946 -5.95129638166285 17.89033727835099 15.7519627633257" style="enable-background:new -9.777531639903946 -5.95129638166285 17.89033727835099 15.7519627633257;">
<style type="text/css">
  .face_stroke {fill:none; stroke:#000000; stroke-width:0.02; stroke-miterlimit:10;}
  .face_text {fill:#000000; font-family:monospace;}
  .edge_text {fill:#ff0000; font-family:monospace;}
  .edge_bg {fill:#f3f3f3; stroke:#606060; stroke-width:0.01;}
</style>
<polygon class="face_stroke" points="0.5000000000000001,-0.5 -0.5,-0.5000000000000001 -0.5000000000000001,0.5 0.4999999999999999,0.5000000000000001"/>
<polygon class="face_stroke" points="0.4999999999999999,0.5 1.5,0.5000000000000001 1.5000000000000007,-0.49999999999999944 0.49999999999999967,-0.4999999999999998"/>
<polygon class="face_stroke" points="1.5,0.5 2.5,0.5000000000000001 2.500000000000001,-0.49999999999999944 1.4999999999999996,-0.4999999999999998"/>
<polygon class="face_stroke" points="2.5,0.5 3.5,0.5000000000000001 3.500000000000001,-0.49999999999999944 2.4999999999999996,-0.4999999999999998"/>
<polygon class="face_stroke" points="2.5,0.4999996094960366 1.5269551294201762,0.7306154802384768 0.6333224890967655,1.1794146604389386 -0.1327219540222142,1.8222022701254788 -0.7298805457250008,2.624325462880523 -1.1259603117641577,3.5425415697607967 -1.2996084894310878,4.527349322773005 -1.241463660520611,5.525657481044275 -0.9546604278095203,6.4836469933597645 -0.4546604278095199,7.349672397144202 0.23158121005921428,8.077046038717251 1.067069021472151,8.626555016788057 2.0067616422580596,8.968575160113724 3.000000000000003,9.084668074238955 3.993238357741946,8.968575160113723 4.932930978527854,8.626555016788053 5.768418789940787,8.07704603871725 6.454660427809519,7.349672397144204 6.95466042780952,6.483646993359765 7.241463660520611,5.525657481044277 7.299608489431088,4.527349322773013 7.1259603117641594,3.542541569760804 6.729880545725004,2.6243254628805293 6.132721954022225,1.8222022701254899 5.366677510903248,1.179414660438948 4.473044870579837,0.7306154802384821 3.5000000000000187,0.4999996094960393"/>
<polygon class="face_stroke" points="-0.1327221071748671,1.8222027035442168 -0.9348452964557831,1.2250441071748672 -1.532003892825133,2.027167296455783 -0.7298807035442162,2.6243258928251327"/>
<polygon class="face_stroke" points="-0.9348454668032495,1.2250445588190426 -0.5387656954221276,0.3068284542430667 -0.3651175120258179,-0.677979297758897 -0.4232623351283733,-1.676287456368438 -0.7100655622661058,-2.6342769703524804 -1.2100655572277743,-3.500302377045801 -1.8963071908648197,-4.227676022611242 -2.731794999080843,-4.7771850055427185 -3.6714876178769584,-5.119205154335297 -4.6647259749435,-5.235298074238955 -5.657964333360843,-5.119205165892152 -6.597656956136544,-4.777185028033393 -7.433144770746395,-4.227676054823258 -8.119386412846819,-3.5003024172426 -8.61938641788515,-2.6342770163670433 -8.906189656169596,-1.6762875057201057 -8.964334490887993,-0.6779793477871102 -8.790686318950442,0.306828406235342 -8.39460655825325,1.2250445154199143 -7.797447971217025,2.027167711649086 -7.031403531837633,2.6699553257922917 -6.137770894125227,3.1187545111916966 -5.164726024887071,3.3493703875950813 -4.164726024887071,3.3493703934128445 -3.191681152965579,3.118754528331348 -2.2980485100311623,2.669955353329831 -1.5320040631726002,2.0271677480999597"/>
<text class="face_text" text-anchor="middle" dominant-baseline="middle" transform="matrix(0.0315039255266514 0 0 0.0315039255266514 0.0 0.0)">0</text>
<text class="face_text" text-anchor="middle" dominant-baseline="middle" transform="matrix(0.0315039255266514 0 0 0.0315039255266514 1.0 0.0)">26</text>
<text class="face_text" text-anchor="middle" dominant-baseline="middle" transform="matrix(0.0315039255266514 0 0 0.0315039255266514 2.0 0.0)">25</text>
<text class="face_text" text-anchor="middle" dominant-baseline="middle" transform="matrix(0.0315039255266514 0 0 0.0315039255266514 3.0 0.0)">24</text>
<text class="face_text" text-anchor="middle" dominant-baseline="middle" transform="matrix(0.0315039255266514 0 0 0.0315039255266514 3.0 4.777773)">28</text>
<text class="face_text" text-anchor="middle" dominant-baseline="middle" transform="matrix(0.0315039255266514 0 0 0.0315039255266514 -0.832363 1.924685)">1</text>
<text class="face_text" text-anchor="middle" dominant-baseline="middle" transform="matrix(0.0315039255266514 0 0 0.0315039255266514 -4.664726 -0.928403)">27</text>
<rect class="edge_bg" x="0.1849607447334859" y="-0.31503925526651405" width="0.630078510533028" height="0.630078510533028"/>
<text class="edge_text" text-anchor="middle" dominant-baseline="middle" transform="matrix(0.0315039255266514 0 0 0.0315039255266514 0.4999999999999999 -6.123233995736767e-17)">0</text>
<rect class="edge_bg" x="1.184960744733486" y="-0.31503925526651405" width="0.630078510533028" height="0.630078510533028"/>
<text class="edge_text" text-anchor="middle" dominant-baseline="middle" transform="matrix(0.0315039255266514 0 0 0.0315039255266514 1.5 -6.123233995736767e-17)">80</text>
<rect class="edge_bg" x="2.184960744733486" y="-0.31503925526651405" width="0.630078510533028" height="0.630078510533028"/>
<text class="edge_text" text-anchor="middle" dominant-baseline="middle" transform="matrix(0.0315039255266514 0 0 0.0315039255266514 2.5 -6.123233995736767e-17)">77</text>
<rect class="edge_bg" x="2.6849607447334867" y="0.1849603542295235" width="0.630078510533028" height="0.630078510533028"/>
<text class="edge_text" text-anchor="middle" dominant-baseline="middle" transform="matrix(0.0315039255266514 0 0 0.0315039255266514 3.0000000000000004 0.4999996094960375)">76</text>
<rect class="edge_bg" x="-0.7463406606260559" y="1.9082250429181606" width="0.630078510533028" height="0.630078510533028"/>
<text class="edge_text" text-anchor="middle" dominant-baseline="middle" transform="matrix(0.0315039255266514 0 0 0.0315039255266514 -0.43130140535954187 2.2232642981846746)">7</text>
<rect class="edge_bg" x="-1.5484640202544384" y="1.3110668981929863" width="0.630078510533028" height="0.630078510533028"/>
<text class="edge_text" text-anchor="middle" dominant-baseline="middle" transform="matrix(0.0315039255266514 0 0 0.0315039255266514 -1.2334247649879244 1.6261061534595003)">6</text>
</svg>
