<?xml version="1.0" encoding="utf-8"?>
<svg version="1.1" xmlns="http://www.w3.org/2000/svg" viewBox="-3.846281800446312 -3.4936535500000003 5.46051216819003 5.7552561" style="enable-background:new -3.846281800446312 -3.4936535500000003 5.46051216819003 5.7552561;">
<style type="text/css">
  .face_stroke {fill:none; stroke:#000000; stroke-width:0.02; stroke-miterlimit:10;}
  .face_text {fill:#000000; font-family:monospace;}
  .edge_text {fill:#ff0000; font-family:monospace;}
  .edge_bg {fill:#f3f3f3; stroke:#606060; stroke-width:0.01;}
</style>
<polygon class="face_stroke" points="0.5000000000000001,-0.5 -0.5,-0.5000000000000001 -0.5000000000000001,0.5 0.4999999999999999,0.5000000000000001"/>
<polygon class="face_stroke" points="0.4999998654051868,0.4999999999999999 1.3660252691896257,1.414100318299876e-16 0.49999986540518754,-0.5000000000000003"/>
<polygon class="face_stroke" points="0.4999997308103742,0.49999999999999994 1.3660251345948131,1.0 1.3660251345948127,-1.1102230246251565e-16"/>
<polygon class="face_stroke" points="0.4999998654051872,0.4999999999999999 0.4999998654051868,1.5 1.3660252691896257,1.0000000000000002"/>
<polygon class="face_stroke" points="0.500000134594813,0.5 -0.36602526918962586,0.9999999999999999 0.500000134594813,1.5"/>
<polygon class="face_stroke" points="-0.3660251345948128,0.9999999999999999 -0.36602513459481323,2.0 0.5000002691896258,1.5000000000000002"/>
<polygon class="face_stroke" points="-0.366025865405187,1.0 -1.232051269189626,1.5 -0.366025865405187,2.0"/>
<polygon class="face_stroke" points="-0.36602573081037415,1.0 -1.2320511345948129,0.4999999999999999 -1.2320511345948133,1.5"/>
<polygon class="face_stroke" points="-1.2320509999999998,0.5 -2.2320510000000002,0.4999999999999999 -2.2320510000000002,1.5 -1.2320510000000002,1.5"/>
<polygon class="face_stroke" points="-2.2320508654051867,0.5 -3.0980762691896255,0.9999999999999999 -2.2320508654051867,1.5"/>
<polygon class="face_stroke" points="-2.2320512981077805,0.4999997018922193 -2.732051298107781,-0.3660257018922194 -3.5980767018922193,0.1339742981077805 -3.0980767018922193,0.9999997018922194"/>
<polygon class="face_stroke" points="-2.732050730810374,-0.366025 -3.5980761345948125,-0.866025 -3.598076134594813,0.1339749999999999"/>
<polygon class="face_stroke" points="-2.732051298107781,-0.3660252981077805 -2.2320512981077805,-1.2320507018922193 -3.0980767018922197,-1.7320507018922193 -3.5980767018922197,-0.8660252981077808"/>
<polygon class="face_stroke" points="-2.2320508654051867,-1.232051 -2.2320508654051867,-2.2320510000000002 -3.0980762691896255,-1.732051"/>
<polygon class="face_stroke" points="-2.232050730810374,-2.232051 -3.0980761345948125,-2.732051 -3.098076134594813,-1.7320509999999998"/>
<polygon class="face_stroke" points="-2.2320508654051867,-2.232051 -2.2320508654051867,-3.232051 -3.0980762691896255,-2.732051"/>
<polygon class="face_stroke" points="-2.2320511345948133,-2.232051 -1.366025730810374,-2.732051 -2.2320511345948124,-3.2320510000000002"/>
<polygon class="face_stroke" points="-2.232050701892219,-2.2320507018922195 -1.732050701892219,-1.3660252981077805 -0.8660252981077805,-1.8660252981077807 -1.3660252981077805,-2.732050701892219"/>
<polygon class="face_stroke" points="-1.7320511820100126,-1.3660258542188248 -1.5241394911922534,-0.38787825348501925 -0.5296175958239799,-0.2833497902173656 -0.12288095274817967,-1.1968952478599657 -0.866025778225574,-1.8660258542188246"/>
</svg>
