<?xml version="1.0" encoding="utf-8"?>
<svg version="1.1" xmlns="http://www.w3.org/2000/svg" viewBox="-8.993576845807315 -7.170491079203238 15.86272469161463 16.663671154378793" style="enable-background:new -8.993576845807315 -7.170491079203238 15.86272469161463 16.663671154378793;">
<style type="text/css">
  .face_stroke {fill:none; stroke:#000000; stroke-width:0.02; stroke-miterlimit:10;}
  .face_text {fill:#000000; font-family:monospace;}
  .edge_text {fill:#ff0000; font-family:monospace;}
  .edge_bg {fill:#f3f3f3; stroke:#606060; stroke-width:0.01;}
</style>
<polygon class="face_stroke" points="0.5000000000000001,-0.5 -0.5,-0.5000000000000001 -0.5000000000000001,0.5 0.4999999999999999,0.5000000000000001"/>
<polygon class="face_stroke" points="0.4999999999999999,0.5 1.5,0.5000000000000001 1.5000000000000007,-0.49999999999999944 0.49999999999999967,-0.4999999999999998"/>
<polygon class="face_stroke" points="1.5,0.5 2.5,0.5000000000000001 2.500000000000001,-0.49999999999999944 1.4999999999999996,-0.4999999999999998"/>
<polygon class="face_stroke" points="1.5000000000000007,0.49999952275075366 0.5290581825739478,0.739315187038311 -0.35639784307926137,1.2040383590820793 -1.1049085912503633,1.867161017322875 -1.6729733379815173,2.6901448832165293 -2.0275782250240537,3.6251611259019447 -2.1481149052793773,4.617869999999997 -2.0275782250240546,5.610578874098053 -1.6729733379815204,6.545595116783465 -1.104908591250366,7.368578982677121 -0.3563978430792649,8.031701640917918 0.5290581825739435,8.496424812961687 1.4999999999999942,8.735740477249246 2.5000000000000004,8.735740477249246 3.470941817426052,8.496424812961688 4.3563978430792645,8.03170164091792 5.104908591250364,7.368578982677124 5.672973337981521,6.545595116783465 6.0275782250240555,5.61057887409805 6.148114905279377,4.617869999999994 6.027578225024051,3.6251611259019336 5.672973337981514,2.6901448832165205 5.104908591250354,1.8671610173228639 4.35639784307925,1.2040383590820718 3.470941817426036,0.7393151870383052 2.4999999999999845,0.4999995227507519"/>
<polygon class="face_stroke" points="-0.35639829645013554,1.2040390392795413 -1.0195209607204587,0.4555282964501357 -1.7680317035498643,1.1186509607204589 -1.1049090392795415,1.8671617035498644"/>
<polygon class="face_stroke" points="-1.0195203865916702,0.4555279576659501 -0.4514556464899502,-0.3674559128036756 -0.09685076697931283,-1.3024721583455623 0.023685905279377195,-2.2951810334145835 -0.0968507829725791,-3.28788990654167 -0.4514556775470129,-4.2229061463706135 -1.0195204309076047,-5.0458900076883 -1.7680311844204013,-5.709012659899567 -2.653487213817127,-6.173735824810663 -3.624429033170954,-6.413051481276929 -4.624429033170954,-6.413051473221563 -5.59537084866923,-6.173735801112715 -6.480826870578925,-5.709012621936273 -7.22933761340833,-5.045889957665951 -7.797402353510049,-4.2229060871963275 -8.152007233020687,-3.2878898416544398 -8.272543905279377,-2.2951809665854177 -8.152007217027421,-1.3024720934583338 -7.79740232245299,-0.3674558536293915 -7.229337569092398,0.4555280076882968 -6.480826815579604,1.1186506598995631 -5.595370786182878,1.583373824810662 -4.6244289668290515,1.8226894812769285 -3.6244289668290524,1.8226894732215642 -2.653487151330773,1.5833738011127152 -1.7680311294210753,1.1186506219362733"/>
<text class="face_text" text-anchor="middle" dominant-baseline="middle" transform="matrix(0.031725449383229264 0 0 0.031725449383229264 0.0 0.0)">0</text>
<text class="face_text" text-anchor="middle" dominant-baseline="middle" transform="matrix(0.031725449383229264 0 0 0.031725449383229264 1.0 0.0)">25</text>
<text class="face_text" text-anchor="middle" dominant-baseline="middle" transform="matrix(0.031725449383229264 0 0 0.031725449383229264 2.0 0.0)">24</text>
<text class="face_text" text-anchor="middle" dominant-baseline="middle" transform="matrix(0.031725449383229264 0 0 0.031725449383229264 2.0 4.61787)">27</text>
<text class="face_text" text-anchor="middle" dominant-baseline="middle" transform="matrix(0.031725449383229264 0 0 0.031725449383229264 -1.062215 1.161345)">1</text>
<text class="face_text" text-anchor="middle" dominant-baseline="middle" transform="matrix(0.031725449383229264 0 0 0.031725449383229264 -4.124429 -2.295181)">26</text>
<rect class="edge_bg" x="0.1827455061677073" y="-0.31725449383229265" width="0.6345089876645852" height="0.6345089876645852"/>
<text class="edge_text" text-anchor="middle" dominant-baseline="middle" transform="matrix(0.031725449383229264 0 0 0.031725449383229264 0.4999999999999999 -6.123233995736767e-17)">0</text>
<rect class="edge_bg" x="1.1827455061677075" y="-0.31725449383229265" width="0.6345089876645852" height="0.6345089876645852"/>
<text class="edge_text" text-anchor="middle" dominant-baseline="middle" transform="matrix(0.031725449383229264 0 0 0.031725449383229264 1.5 -6.123233995736767e-17)">77</text>
<rect class="edge_bg" x="1.682745506167708" y="0.18274502891846017" width="0.6345089876645852" height="0.6345089876645852"/>
<text class="edge_text" text-anchor="middle" dominant-baseline="middle" transform="matrix(0.031725449383229264 0 0 0.031725449383229264 2.0000000000000004 0.49999952275075277)">76</text>
<rect class="edge_bg" x="-1.0479081616971309" y="1.2183458775824103" width="0.6345089876645852" height="0.6345089876645852"/>
<text class="edge_text" text-anchor="middle" dominant-baseline="middle" transform="matrix(0.031725449383229264 0 0 0.031725449383229264 -0.7306536678648383 1.5356003714147028)">7</text>
<rect class="edge_bg" x="-1.711030251838665" y="0.4698347959688202" width="0.6345089876645852" height="0.6345089876645852"/>
<text class="edge_text" text-anchor="middle" dominant-baseline="middle" transform="matrix(0.031725449383229264 0 0 0.031725449383229264 -1.3937757580063725 0.7870892898011128)">6</text>
</svg>
