<?xml version="1.0" encoding="utf-8"?>
<svg version="1.1" xmlns="http://www.w3.org/2000/svg" viewBox="-9.543835695807315 -5.420610428498393 17.48680539161463 14.830462853640384" style="enable-background:new -9.543835695807315 -5.420610428498393 17.48680539161463 14.830462853640384;">
<style type="text/css">
  .face_stroke {fill:none; stroke:#000000; stroke-width:0.02; stroke-miterlimit:10;}
  .face_text {fill:#000000; font-family:monospace;}
  .edge_text {fill:#ff0000; font-family:monospace;}
  .edge_bg {fill:#f3f3f3; stroke:#606060; stroke-width:0.01;}
</style>
<polygon class="face_stroke" points="0.5000000000000001,-0.5 -0.5,-0.5000000000000001 -0.5000000000000001,0.5 0.4999999999999999,0.5000000000000001"/>
<polygon class="face_stroke" points="0.4999999999999999,0.5 1.5,0.5000000000000001 1.5000000000000007,-0.49999999999999944 0.49999999999999967,-0.4999999999999998"/>
<polygon class="face_stroke" points="1.5,0.5 2.5,0.5000000000000001 2.500000000000001,-0.49999999999999944 1.4999999999999996,-0.4999999999999998"/>
<polygon class="face_stroke" points="2.5,0.5 3.5,0.5000000000000001 3.500000000000001,-0.49999999999999944 2.4999999999999996,-0.4999999999999998"/>
<polygon class="face_stroke" points="2.500000000000001,0.49999952275075366 1.5290581825739478,0.739315187038311 0.6436021569207386,1.2040383590820793 -0.10490859125036334,1.867161017322875 -0.6729733379815173,2.6901448832165293 -1.0275782250240537,3.6251611259019447 -1.1481149052793773,4.617869999999997 -1.0275782250240546,5.610578874098053 -0.6729733379815204,6.545595116783465 -0.104908591250366,7.368578982677121 0.6436021569207351,8.031701640917918 1.5290581825739435,8.496424812961687 2.4999999999999942,8.735740477249246 3.5000000000000004,8.735740477249246 4.470941817426052,8.496424812961688 5.3563978430792645,8.03170164091792 6.104908591250364,7.368578982677124 6.672973337981521,6.545595116783465 7.0275782250240555,5.61057887409805 7.148114905279377,4.617869999999994 7.027578225024051,3.6251611259019336 6.672973337981514,2.6901448832165205 6.104908591250354,1.8671610173228639 5.35639784307925,1.2040383590820718 4.470941817426036,0.7393151870383052 3.4999999999999845,0.4999995227507519"/>
<polygon class="face_stroke" points="-0.10490869283198268,1.8671614450876686 -0.9278925549123312,1.2990966928319827 -1.4959573071680172,2.122080554912331 -0.6729734450876691,2.6901453071680175"/>
<polygon class="face_stroke" points="-0.9278926749589238,1.2990971414394217 -0.5732877816398068,0.3640809011344006 -0.4527510947206226,-0.6286279721545142 -0.5732877683120847,-1.6213368470617073 -0.9278926490780388,-2.556353092127515 -1.4959573902846648,-3.37933696183448 -2.2444681340043524,-4.042459625099881 -3.129924156537967,-4.507182803087543 -4.100865972357539,-4.746498473892844 -5.100865972357539,-4.7464984806056485 -6.071807791390071,-4.5071828228358335 -6.957263820162876,-4.04245965673596 -7.705774572785389,-3.379337003519772 -8.273839325041076,-2.556353141439423 -8.628444218360194,-1.6213369011344008 -8.748980905279378,-0.6286280278454887 -8.628444231687915,0.36408084706170374 -8.273839350921962,1.299097092127513 -7.7057746097153395,2.122080961834475 -6.95726386599565,2.78520362509988 -6.07180784346204,3.249926803087541 -5.100866027642469,3.489242473892843 -4.100866027642462,3.4892424806056495 -3.129924208609932,3.249926822835835 -2.2444681798371233,2.785203656735959 -1.4959574272146101,2.1220810035197712"/>
<text class="face_text" text-anchor="middle" dominant-baseline="middle" transform="matrix(0.02966092570728077 0 0 0.02966092570728077 0.0 0.0)">0</text>
<text class="face_text" text-anchor="middle" dominant-baseline="middle" transform="matrix(0.02966092570728077 0 0 0.02966092570728077 1.0 0.0)">25</text>
<text class="face_text" text-anchor="middle" dominant-baseline="middle" transform="matrix(0.02966092570728077 0 0 0.02966092570728077 2.0 0.0)">24</text>
<text class="face_text" text-anchor="middle" dominant-baseline="middle" transform="matrix(0.02966092570728077 0 0 0.02966092570728077 3.0 0.0)">23</text>
<text class="face_text" text-anchor="middle" dominant-baseline="middle" transform="matrix(0.02966092570728077 0 0 0.02966092570728077 3.0 4.61787)">27</text>
<text class="face_text" text-anchor="middle" dominant-baseline="middle" transform="matrix(0.02966092570728077 0 0 0.02966092570728077 -0.800433 1.994621)">1</text>
<text class="face_text" text-anchor="middle" dominant-baseline="middle" transform="matrix(0.02966092570728077 0 0 0.02966092570728077 -4.600866 -0.628628)">26</text>
<rect class="edge_bg" x="0.20339074292719223" y="-0.2966092570728077" width="0.5932185141456153" height="0.5932185141456153"/>
<text class="edge_text" text-anchor="middle" dominant-baseline="middle" transform="matrix(0.02966092570728077 0 0 0.02966092570728077 0.4999999999999999 -6.123233995736767e-17)">0</text>
<rect class="edge_bg" x="1.2033907429271924" y="-0.2966092570728077" width="0.5932185141456153" height="0.5932185141456153"/>
<text class="edge_text" text-anchor="middle" dominant-baseline="middle" transform="matrix(0.02966092570728077 0 0 0.02966092570728077 1.5 -6.123233995736767e-17)">77</text>
<rect class="edge_bg" x="2.2033907429271924" y="-0.2966092570728077" width="0.5932185141456153" height="0.5932185141456153"/>
<text class="edge_text" text-anchor="middle" dominant-baseline="middle" transform="matrix(0.02966092570728077 0 0 0.02966092570728077 2.5 -6.123233995736767e-17)">74</text>
<rect class="edge_bg" x="2.703390742927193" y="0.2033902656779451" width="0.5932185141456153" height="0.5932185141456153"/>
<text class="edge_text" text-anchor="middle" dominant-baseline="middle" transform="matrix(0.02966092570728077 0 0 0.02966092570728077 3.0000000000000004 0.49999952275075277)">73</text>
<rect class="edge_bg" x="-0.6855503260326332" y="1.9820441190550353" width="0.5932185141456153" height="0.5932185141456153"/>
<text class="edge_text" text-anchor="middle" dominant-baseline="middle" transform="matrix(0.02966092570728077 0 0 0.02966092570728077 -0.38894106895982555 2.278653376127843)">7</text>
<rect class="edge_bg" x="-1.508534308159574" y="1.413979815406789" width="0.5932185141456153" height="0.5932185141456153"/>
<text class="edge_text" text-anchor="middle" dominant-baseline="middle" transform="matrix(0.02966092570728077 0 0 0.02966092570728077 -1.2119250510867663 1.7105890724795967)">6</text>
</svg>
