<?xml version="1.0" encoding="utf-8"?>
<svg version="1.1" xmlns="http://www.w3.org/2000/svg" viewBox="-8.210820511998833 -6.549926161998833 15.325958023997666 14.548140323997666" style="enable-background:new -8.210820511998833 -6.549926161998833 15.325958023997666 14.548140323997666;">
<style type="text/css">
  .face_stroke {fill:none; stroke:#000000; stroke-width:0.02; stroke-miterlimit:10;}
  .face_text {fill:#000000; font-family:monospace;}
  .edge_text {fill:#ff0000; font-family:monospace;}
  .edge_bg {fill:#f3f3f3; stroke:#606060; stroke-width:0.01;}
</style>
<polygon class="face_stroke" points="0.288675134594813,-0.5 -0.5773502691896258,-7.07050159149938e-17 0.288675134594813,0.5"/>
<polygon class="face_stroke" points="0.28867486540518683,0.4999999999999999 1.1547002691896258,1.414100318299876e-16 0.28867486540518755,-0.5000000000000003"/>
<polygon class="face_stroke" points="0.28867476992649266,0.4999999887399449 -0.41843201126005525,1.2071067699264932 -0.9184320112600548,2.073132173710931 -1.1772510563625755,3.039058 -1.177251056362576,4.039057999999999 -0.9184320112600557,5.004983826289067 -0.4184320112600548,5.871009230073508 0.28867476992649177,6.578116011260054 1.1547001737109326,7.078116011260056 2.1206259999999997,7.3369350563625755 3.1206260000000023,7.3369350563625755 4.086551826289069,7.078116011260054 4.952577230073508,6.578116011260055 5.659684011260055,5.871009230073508 6.1596840112600555,5.004983826289068 6.418503056362576,4.039058000000001 6.418503056362576,3.039058000000001 6.159684011260056,2.073132173710934 5.659684011260058,1.2071067699264955 4.952577230073507,0.49999998873994356 4.086551826289068,-1.1260055554629389e-08 3.1206260000000006,-0.25881905636257585 2.120626000000002,-0.2588190563625763 1.1547001737109375,-1.1260057775075438e-08"/>
<polygon class="face_stroke" points="0.2886755358252054,0.49999975463865776 -0.6772502904638631,0.24118070953613696 -0.41843124536134224,1.2071065358252056"/>
<polygon class="face_stroke" points="-0.6772507546386577,0.24118046417479455 -1.3843575358252054,0.948287245361342 -0.418431709536137,1.2071062904638632"/>
<polygon class="face_stroke" points="-0.6772509887399449,0.24118123007350745 -0.17725098873994494,-0.6248441737109314 0.0815680563625758,-1.59077 0.0815680563625758,-2.59077 -0.17725098873994494,-3.5566958262890687 -0.6772509887399449,-4.422721230073508 -1.3843577699264924,-5.129828011260055 -2.250383173710931,-5.629828011260055 -3.2163089999999994,-5.888647056362576 -4.216308999999999,-5.888647056362576 -5.1822348262890685,-5.629828011260055 -6.048260230073508,-5.129828011260055 -6.755367011260056,-4.422721230073506 -7.255367011260055,-3.5566958262890687 -7.5141860563625755,-2.59077 -7.5141860563625755,-1.590770000000001 -7.255367011260056,-0.6248441737109336 -6.755367011260055,0.24118123007350745 -6.048260230073508,0.948288011260054 -5.182234826289068,1.4482880112600554 -4.216309,1.7071070563625756 -3.2163089999999976,1.7071070563625756 -2.2503831737109303,1.4482880112600545 -1.3843577699264924,0.9482880112600549"/>
<text class="face_text" text-anchor="middle" dominant-baseline="middle" transform="matrix(0.029096280647995333 0 0 0.029096280647995333 0.0 0.0)">0</text>
<text class="face_text" text-anchor="middle" dominant-baseline="middle" transform="matrix(0.029096280647995333 0 0 0.029096280647995333 0.57735 0.0)">47</text>
<text class="face_text" text-anchor="middle" dominant-baseline="middle" transform="matrix(0.029096280647995333 0 0 0.029096280647995333 2.620626 3.539058)">49</text>
<text class="face_text" text-anchor="middle" dominant-baseline="middle" transform="matrix(0.029096280647995333 0 0 0.029096280647995333 -0.269002 0.649429)">1</text>
<text class="face_text" text-anchor="middle" dominant-baseline="middle" transform="matrix(0.029096280647995333 0 0 0.029096280647995333 -0.82668 0.798858)">2</text>
<text class="face_text" text-anchor="middle" dominant-baseline="middle" transform="matrix(0.029096280647995333 0 0 0.029096280647995333 -3.716309 -2.09077)">48</text>
<rect class="edge_bg" x="-0.0022879410747662643" y="-0.2909628064799534" width="0.5819256129599066" height="0.5819256129599066"/>
<text class="edge_text" text-anchor="middle" dominant-baseline="middle" transform="matrix(0.029096280647995333 0 0 0.029096280647995333 0.28867486540518705 -3.535250795749691e-17)">0</text>
<rect class="edge_bg" x="0.43072466533875964" y="-0.04096281774000843" width="0.5819256129599066" height="0.5819256129599066"/>
<text class="edge_text" text-anchor="middle" dominant-baseline="middle" transform="matrix(0.029096280647995333 0 0 0.029096280647995333 0.721687471818713 0.2499999887399449)">6</text>
<rect class="edge_bg" x="-0.3558406612480217" y="0.5625903387519783" width="0.5819256129599066" height="0.5819256129599066"/>
<text class="edge_text" text-anchor="middle" dominant-baseline="middle" transform="matrix(0.029096280647995333 0 0 0.029096280647995333 -0.06487785476806843 0.8535531452319316)">5</text>
<rect class="edge_bg" x="-0.8388040385673505" y="0.43318057083937556" width="0.5819256129599066" height="0.5819256129599066"/>
<text class="edge_text" text-anchor="middle" dominant-baseline="middle" transform="matrix(0.029096280647995333 0 0 0.029096280647995333 -0.5478412320873972 0.7241433773193289)">7</text>
<rect class="edge_bg" x="-1.3217671858131723" y="0.30377181418682764" width="0.5819256129599066" height="0.5819256129599066"/>
<text class="edge_text" text-anchor="middle" dominant-baseline="middle" transform="matrix(0.029096280647995333 0 0 0.029096280647995333 -1.030804379333219 0.594734620666781)">8</text>
</svg>
