<?xml version="1.0" encoding="utf-8"?>
<svg version="1.1" xmlns="http://www.w3.org/2000/svg" viewBox="-1.810278752818129 -0.8918467528181291 8.620628561998835 8.620628561998833" style="enable-background:new -1.810278752818129 -0.8918467528181291 8.620628561998835 8.620628561998833;">
<style type="text/css">
  .face_stroke {fill:none; stroke:#000000; stroke-width:0.02; stroke-miterlimit:10;}
  .face_text {fill:#000000; font-family:monospace;}
  .edge_text {fill:#ff0000; font-family:monospace;}
  .edge_bg {fill:#f3f3f3; stroke:#606060; stroke-width:0.01;}
</style>
<polygon class="face_stroke" points="0.288675134594813,-0.5 -0.5773502691896258,-7.07050159149938e-17 0.288675134594813,0.5"/>
<polygon class="face_stroke" points="0.28867486540518683,0.4999999999999999 1.1547002691896258,1.414100318299876e-16 0.28867486540518755,-0.5000000000000003"/>
<polygon class="face_stroke" points="0.28867476992649266,0.4999999887399449 -0.41843201126005525,1.2071067699264932 -0.9184320112600548,2.073132173710931 -1.1772510563625755,3.039058 -1.177251056362576,4.039057999999999 -0.9184320112600557,5.004983826289067 -0.4184320112600548,5.871009230073508 0.28867476992649177,6.578116011260054 1.1547001737109326,7.078116011260056 2.1206259999999997,7.3369350563625755 3.1206260000000023,7.3369350563625755 4.086551826289069,7.078116011260054 4.952577230073508,6.578116011260055 5.659684011260055,5.871009230073508 6.1596840112600555,5.004983826289068 6.418503056362576,4.039058000000001 6.418503056362576,3.039058000000001 6.159684011260056,2.073132173710934 5.659684011260058,1.2071067699264955 4.952577230073507,0.49999998873994356 4.086551826289068,-1.1260055554629389e-08 3.1206260000000006,-0.25881905636257585 2.120626000000002,-0.2588190563625763 1.1547001737109375,-1.1260057775075438e-08"/>
<polygon class="face_stroke" points="-0.4184319999999999,1.207106865405187 -1.4184320000000001,1.207106865405187 -0.9184320000000001,2.073132269189626"/>
<polygon class="face_stroke" points="-0.4184319999999999,1.2071071345948128 -0.918432,0.3410817308103742 -1.4184320000000001,1.207107134594813"/>
<polygon class="face_stroke" points="-0.41843199999999997,1.2071072691896259 0.08156800000000008,0.34108186540518715 -0.9184320000000001,0.34108186540518715"/>
<text class="face_text" text-anchor="middle" dominant-baseline="middle" transform="matrix(0.017241257123997666 0 0 0.017241257123997666 0.0 0.0)">0</text>
<text class="face_text" text-anchor="middle" dominant-baseline="middle" transform="matrix(0.017241257123997666 0 0 0.017241257123997666 0.57735 0.0)">47</text>
<text class="face_text" text-anchor="middle" dominant-baseline="middle" transform="matrix(0.017241257123997666 0 0 0.017241257123997666 2.620626 3.539058)">49</text>
<text class="face_text" text-anchor="middle" dominant-baseline="middle" transform="matrix(0.017241257123997666 0 0 0.017241257123997666 -0.918432 1.495782)">3</text>
<text class="face_text" text-anchor="middle" dominant-baseline="middle" transform="matrix(0.017241257123997666 0 0 0.017241257123997666 -0.918432 0.918432)">2</text>
<text class="face_text" text-anchor="middle" dominant-baseline="middle" transform="matrix(0.017241257123997666 0 0 0.017241257123997666 -0.418432 0.629757)">1</text>
<rect class="edge_bg" x="0.11626229416521039" y="-0.1724125712399767" width="0.34482514247995333" height="0.34482514247995333"/>
<text class="edge_text" text-anchor="middle" dominant-baseline="middle" transform="matrix(0.017241257123997666 0 0 0.017241257123997666 0.28867486540518705 -3.535250795749691e-17)">0</text>
<rect class="edge_bg" x="0.5492749005787363" y="0.07758741749996823" width="0.34482514247995333" height="0.34482514247995333"/>
<text class="edge_text" text-anchor="middle" dominant-baseline="middle" transform="matrix(0.017241257123997666 0 0 0.017241257123997666 0.721687471818713 0.2499999887399449)">6</text>
<rect class="edge_bg" x="-0.8408445712399766" y="1.4677069960574298" width="0.34482514247995333" height="0.34482514247995333"/>
<text class="edge_text" text-anchor="middle" dominant-baseline="middle" transform="matrix(0.017241257123997666 0 0 0.017241257123997666 -0.6684319999999999 1.6401195672974065)">10</text>
<rect class="edge_bg" x="-1.0908445712399768" y="1.0346945633548363" width="0.34482514247995333" height="0.34482514247995333"/>
<text class="edge_text" text-anchor="middle" dominant-baseline="middle" transform="matrix(0.017241257123997666 0 0 0.017241257123997666 -0.918432 1.207107134594813)">9</text>
<rect class="edge_bg" x="-0.8408445712399768" y="0.6016819960574298" width="0.34482514247995333" height="0.34482514247995333"/>
<text class="edge_text" text-anchor="middle" dominant-baseline="middle" transform="matrix(0.017241257123997666 0 0 0.017241257123997666 -0.6684320000000001 0.7740945672974064)">7</text>
</svg>
