<?xml version="1.0" encoding="utf-8"?>
<svg version="1.1" xmlns="http://www.w3.org/2000/svg" viewBox="-9.514060561998834 -4.6263776119988345 16.691257123997666 12.532994223997669" style="enable-background:new -9.514060561998834 -4.6263776119988345 16.691257123997666 12.532994223997669;">
<style type="text/css">
  .face_stroke {fill:none; stroke:#000000; stroke-width:0.02; stroke-miterlimit:10;}
  .face_text {fill:#000000; font-family:monospace;}
  .edge_text {fill:#ff0000; font-family:monospace;}
  .edge_bg {fill:#f3f3f3; stroke:#606060; stroke-width:0.01;}
</style>
<polygon class="face_stroke" points="0.288675134594813,-0.5 -0.5773502691896258,-7.07050159149938e-17 0.288675134594813,0.5"/>
<polygon class="face_stroke" points="0.28867486540518683,0.4999999999999999 1.1547002691896258,1.414100318299876e-16 0.28867486540518755,-0.5000000000000003"/>
<polygon class="face_stroke" points="0.28867476992649266,0.4999999887399449 -0.41843201126005525,1.2071067699264932 -0.9184320112600548,2.073132173710931 -1.1772510563625755,3.039058 -1.177251056362576,4.039057999999999 -0.9184320112600557,5.004983826289067 -0.4184320112600548,5.871009230073508 0.28867476992649177,6.578116011260054 1.1547001737109326,7.078116011260056 2.1206259999999997,7.3369350563625755 3.1206260000000023,7.3369350563625755 4.086551826289069,7.078116011260054 4.952577230073508,6.578116011260055 5.659684011260055,5.871009230073508 6.1596840112600555,5.004983826289068 6.418503056362576,4.039058000000001 6.418503056362576,3.039058000000001 6.159684011260056,2.073132173710934 5.659684011260058,1.2071067699264955 4.952577230073507,0.49999998873994356 4.086551826289068,-1.1260055554629389e-08 3.1206260000000006,-0.25881905636257585 2.120626000000002,-0.2588190563625763 1.1547001737109375,-1.1260057775075438e-08"/>
<polygon class="face_stroke" points="-0.4184319999999999,1.207106865405187 -1.4184320000000001,1.207106865405187 -0.9184320000000001,2.073132269189626"/>
<polygon class="face_stroke" points="-1.418432,1.207106730810374 -1.918432,2.073132134594813 -0.918432,2.0731321345948133"/>
<polygon class="face_stroke" points="-1.418431988739945,1.2071068262890687 -1.1596129436374243,0.24118099999999998 -1.1596129436374243,-0.758819 -1.418431988739945,-1.7247448262890686 -1.918431988739945,-2.5907702300735074 -2.6255387699264925,-3.297877011260055 -3.4915641737109313,-3.797877011260055 -4.457489999999999,-4.056696056362576 -5.457489999999999,-4.0566960563625765 -6.423415826289069,-3.797877011260055 -7.289441230073507,-3.297877011260055 -7.996548011260055,-2.5907702300735065 -8.496548011260055,-1.724744826289069 -8.755367056362577,-0.758819 -8.755367056362577,0.24118099999999904 -8.496548011260057,1.2071068262890665 -7.996548011260055,2.0731322300735076 -7.289441230073509,2.780239011260054 -6.423415826289068,3.2802390112600555 -5.45749,3.5390580563625758 -4.457489999999998,3.5390580563625758 -3.4915641737109304,3.2802390112600546 -2.6255387699264925,2.780239011260055 -1.918431988739946,2.0731322300735084"/>
<polygon class="face_stroke" points="-1.4184312904638632,1.207106290463863 -0.45250546417479465,0.9482872453613422 -1.159612245361342,0.24118046417479455"/>
<polygon class="face_stroke" points="-0.4525057546386577,0.9482875358252054 -0.19368670953613693,-0.017638290463863004 -1.1596125358252052,0.2411807546386576"/>
<text class="face_text" text-anchor="middle" dominant-baseline="middle" transform="matrix(0.02506598844799534 0 0 0.02506598844799534 0.0 0.0)">0</text>
<text class="face_text" text-anchor="middle" dominant-baseline="middle" transform="matrix(0.02506598844799534 0 0 0.02506598844799534 0.57735 0.0)">47</text>
<text class="face_text" text-anchor="middle" dominant-baseline="middle" transform="matrix(0.02506598844799534 0 0 0.02506598844799534 2.620626 3.539058)">49</text>
<text class="face_text" text-anchor="middle" dominant-baseline="middle" transform="matrix(0.02506598844799534 0 0 0.02506598844799534 -0.918432 1.495782)">3</text>
<text class="face_text" text-anchor="middle" dominant-baseline="middle" transform="matrix(0.02506598844799534 0 0 0.02506598844799534 -1.418432 1.784457)">4</text>
<text class="face_text" text-anchor="middle" dominant-baseline="middle" transform="matrix(0.02506598844799534 0 0 0.02506598844799534 -4.95749 -0.258819)">48</text>
<text class="face_text" text-anchor="middle" dominant-baseline="middle" transform="matrix(0.02506598844799534 0 0 0.02506598844799534 -1.010183 0.798858)">2</text>
<text class="face_text" text-anchor="middle" dominant-baseline="middle" transform="matrix(0.02506598844799534 0 0 0.02506598844799534 -0.601935 0.39061)">1</text>
<rect class="edge_bg" x="0.0380149809252337" y="-0.2506598844799534" width="0.5013197689599067" height="0.5013197689599067"/>
<text class="edge_text" text-anchor="middle" dominant-baseline="middle" transform="matrix(0.02506598844799534 0 0 0.02506598844799534 0.28867486540518705 -3.535250795749691e-17)">0</text>
<rect class="edge_bg" x="0.4710275873387596" y="-0.0006598957400084648" width="0.5013197689599067" height="0.5013197689599067"/>
<text class="edge_text" text-anchor="middle" dominant-baseline="middle" transform="matrix(0.02506598844799534 0 0 0.02506598844799534 0.721687471818713 0.2499999887399449)">6</text>
<rect class="edge_bg" x="-0.9190918844799533" y="1.3894596828174532" width="0.5013197689599067" height="0.5013197689599067"/>
<text class="edge_text" text-anchor="middle" dominant-baseline="middle" transform="matrix(0.02506598844799534 0 0 0.02506598844799534 -0.6684319999999999 1.6401195672974065)">10</text>
<rect class="edge_bg" x="-1.4190918844799532" y="1.3894595482226402" width="0.5013197689599067" height="0.5013197689599067"/>
<text class="edge_text" text-anchor="middle" dominant-baseline="middle" transform="matrix(0.02506598844799534 0 0 0.02506598844799534 -1.1684319999999997 1.6401194327025934)">11</text>
<rect class="edge_bg" x="-1.9190918732198985" y="1.389459643701334" width="0.5013197689599067" height="0.5013197689599067"/>
<text class="edge_text" text-anchor="middle" dominant-baseline="middle" transform="matrix(0.02506598844799534 0 0 0.02506598844799534 -1.668431988739945 1.6401195281812875)">12</text>
<rect class="edge_bg" x="-1.5396816523925563" y="0.4734834928393754" width="0.5013197689599067" height="0.5013197689599067"/>
<text class="edge_text" text-anchor="middle" dominant-baseline="middle" transform="matrix(0.02506598844799534 0 0 0.02506598844799534 -1.2890217679126028 0.7241433773193288)">8</text>
<rect class="edge_bg" x="-1.056719029711885" y="0.3440742607519782" width="0.5013197689599067" height="0.5013197689599067"/>
<text class="edge_text" text-anchor="middle" dominant-baseline="middle" transform="matrix(0.02506598844799534 0 0 0.02506598844799534 -0.8060591452319316 0.5947341452319316)">7</text>
</svg>
