<?xml version="1.0" encoding="utf-8"?>
<svg version="1.1" xmlns="http://www.w3.org/2000/svg" viewBox="-8.809116811998834 -4.263020111998833 17.48847662399767 10.233147223997666" style="enable-background:new -8.809116811998834 -4.263020111998833 17.48847662399767 10.233147223997666;">
<style type="text/css">
  .face_stroke {fill:none; stroke:#000000; stroke-width:0.02; stroke-miterlimit:10;}
  .face_text {fill:#000000; font-family:monospace;}
  .edge_text {fill:#ff0000; font-family:monospace;}
  .edge_bg {fill:#f3f3f3; stroke:#606060; stroke-width:0.01;}
</style>
<polygon class="face_stroke" points="0.288675134594813,-0.5 -0.5773502691896258,-7.07050159149938e-17 0.288675134594813,0.5"/>
<polygon class="face_stroke" points="0.2886749436374241,0.49999999999999906 0.5474939887399444,1.4659258262890664 1.0474939887399453,2.3319512300735075 1.7546007699264918,3.039058011260054 2.6206261737109324,3.5390580112600554 3.586552,3.7978770563625757 4.586552000000002,3.7978770563625757 5.55247782628907,3.5390580112600545 6.418503230073508,3.039058011260055 7.125610011260054,2.3319512300735084 7.625610011260056,1.4659258262890678 7.884429056362576,0.5000000000000004 7.884429056362576,-0.4999999999999985 7.625610011260056,-1.465925826289066 7.125610011260058,-2.3319512300735044 6.418503230073506,-3.0390580112600563 5.552477826289068,-3.5390580112600554 4.586552000000001,-3.7978770563625757 3.586552000000002,-3.797877056362576 2.6206261737109378,-3.5390580112600576 1.7546007699264932,-3.0390580112600554 1.0474939887399466,-2.331951230073509 0.5474939887399466,-1.4659258262890713 0.28867494363742496,-0.5000000000000042"/>
<polygon class="face_stroke" points="0.28867524536134226,0.5000004641747945 -0.4184315358252054,1.2071072453613418 0.547494290463863,1.465926290463863"/>
<polygon class="face_stroke" points="0.2886755358252054,0.49999975463865776 -0.6772502904638631,0.24118070953613696 -0.41843124536134224,1.2071065358252056"/>
<polygon class="face_stroke" points="-0.6772509887399449,0.24118117371093128 -1.177250988739945,-0.6248442300735075 -1.8843577699264924,-1.331951011260055 -2.750383173710931,-1.831951011260055 -3.7163089999999994,-2.090770056362576 -4.716308999999999,-2.090770056362576 -5.6822348262890685,-1.831951011260055 -6.548260230073508,-1.331951011260055 -7.255367011260056,-0.6248442300735066 -7.755367011260055,0.24118117371093106 -8.014186056362576,1.207107 -8.014186056362576,2.207106999999999 -7.755367011260056,3.1730328262890666 -7.255367011260055,4.039058230073508 -6.548260230073508,4.746165011260054 -5.682234826289068,5.2461650112600555 -4.716309,5.504984056362575 -3.7163089999999976,5.504984056362575 -2.7503831737109303,5.246165011260055 -1.8843577699264924,4.746165011260055 -1.1772509887399458,4.0390582300735085 -0.6772509887399445,3.1730328262890675 -0.4184319436374242,2.2071070000000006 -0.41843194363742375,1.2071070000000015"/>
<polygon class="face_stroke" points="-0.677251,0.24118126918962585 -0.17725099999999994,-0.6248441345948128 -1.177251,-0.6248441345948128"/>
<text class="face_text" text-anchor="middle" dominant-baseline="middle" transform="matrix(0.02046629444799533 0 0 0.02046629444799533 0.0 0.0)">0</text>
<text class="face_text" text-anchor="middle" dominant-baseline="middle" transform="matrix(0.02046629444799533 0 0 0.02046629444799533 4.086552 0.0)">48</text>
<text class="face_text" text-anchor="middle" dominant-baseline="middle" transform="matrix(0.02046629444799533 0 0 0.02046629444799533 0.139246 1.057678)">46</text>
<text class="face_text" text-anchor="middle" dominant-baseline="middle" transform="matrix(0.02046629444799533 0 0 0.02046629444799533 -0.269002 0.649429)">47</text>
<text class="face_text" text-anchor="middle" dominant-baseline="middle" transform="matrix(0.02046629444799533 0 0 0.02046629444799533 -4.216309 1.707107)">49</text>
<text class="face_text" text-anchor="middle" dominant-baseline="middle" transform="matrix(0.02046629444799533 0 0 0.02046629444799533 -0.677251 -0.336169)">1</text>
<rect class="edge_bg" x="0.0840119991574712" y="-0.20466294447995378" width="0.4093258889599066" height="0.4093258889599066"/>
<text class="edge_text" text-anchor="middle" dominant-baseline="middle" transform="matrix(0.02046629444799533 0 0 0.02046629444799533 0.2886749436374245 -4.6510579806296e-16)">1</text>
<rect class="edge_bg" x="0.21342182343264943" y="0.7783004328393754" width="0.4093258889599066" height="0.4093258889599066"/>
<text class="edge_text" text-anchor="middle" dominant-baseline="middle" transform="matrix(0.02046629444799533 0 0 0.02046629444799533 0.41808476791260274 0.9829633773193287)">2</text>
<rect class="edge_bg" x="-0.26954079924802177" y="0.6488902007519783" width="0.4093258889599066" height="0.4093258889599066"/>
<text class="edge_text" text-anchor="middle" dominant-baseline="middle" transform="matrix(0.02046629444799533 0 0 0.02046629444799533 -0.06487785476806843 0.8535531452319316)">3</text>
<rect class="edge_bg" x="-0.7525044106686378" y="0.5194811423755124" width="0.4093258889599066" height="0.4093258889599066"/>
<text class="edge_text" text-anchor="middle" dominant-baseline="middle" transform="matrix(0.02046629444799533 0 0 0.02046629444799533 -0.5478414661886846 0.7241440868554657)">6</text>
<rect class="edge_bg" x="-1.1319139444799535" y="-0.3964943771825469" width="0.4093258889599066" height="0.4093258889599066"/>
<text class="edge_text" text-anchor="middle" dominant-baseline="middle" transform="matrix(0.02046629444799533 0 0 0.02046629444799533 -0.9272510000000002 -0.19183143270259354)">5</text>
</svg>
