<?xml version="1.0" encoding="utf-8"?>
<svg version="1.1" xmlns="http://www.w3.org/2000/svg" viewBox="-4.600753761998834 -4.202664761998833 17.663287523997667 8.905329523997667" style="enable-background:new -4.600753761998834 -4.202664761998833 17.663287523997667 8.905329523997667;">
<style type="text/css">
  .face_stroke {fill:none; stroke:#000000; stroke-width:0.02; stroke-miterlimit:10;}
  .face_text {fill:#000000; font-family:monospace;}
  .edge_text {fill:#ff0000; font-family:monospace;}
  .edge_bg {fill:#f3f3f3; stroke:#606060; stroke-width:0.01;}
</style>
<polygon class="face_stroke" points="3.7978770563625757,-0.5 3.539058011260055,-1.4659258262890686 3.039058011260055,-2.3319512300735075 2.3319512300735075,-3.039058011260055 1.4659258262890689,-3.539058011260055 0.5000000000000006,-3.7978770563625757 -0.4999999999999993,-3.797877056362576 -1.4659258262890684,-3.539058011260055 -2.3319512300735075,-3.039058011260055 -3.0390580112600554,-2.3319512300735066 -3.539058011260055,-1.4659258262890689 -3.7978770563625757,-0.5 -3.797877056362576,0.49999999999999906 -3.539058011260056,1.4659258262890664 -3.039058011260055,2.3319512300735075 -2.3319512300735084,3.039058011260054 -1.4659258262890675,3.5390580112600554 -0.5000000000000002,3.7978770563625757 0.5000000000000021,3.7978770563625757 1.4659258262890693,3.5390580112600545 2.3319512300735075,3.039058011260055 3.039058011260054,2.3319512300735084 3.5390580112600554,1.4659258262890678 3.7978770563625757,0.5000000000000004"/>
<polygon class="face_stroke" points="3.797876865405187,0.4999999999999999 4.663902269189626,1.414100318299876e-16 3.7978768654051875,-0.5000000000000003"/>
<polygon class="face_stroke" points="3.797876730810374,0.49999999999999994 4.663902134594813,1.0 4.663902134594813,-1.1102230246251565e-16"/>
<polygon class="face_stroke" points="4.663902943637423,0.9999999999999991 4.922721988739943,1.9659258262890664 5.422721988739944,2.8319512300735075 6.12982876992649,3.539058011260054 6.995854173710931,4.039058011260055 7.961779999999999,4.297877056362576 8.961780000000001,4.297877056362576 9.927705826289069,4.039058011260055 10.793731230073506,3.539058011260055 11.500838011260054,2.8319512300735084 12.000838011260054,1.9659258262890678 12.259657056362574,1.0000000000000004 12.259657056362576,1.4988010832439613e-15 12.000838011260056,-0.965925826289066 11.500838011260058,-1.8319512300735044 10.793731230073504,-2.5390580112600563 9.927705826289067,-3.0390580112600554 8.96178,-3.2978770563625757 7.961780000000001,-3.297877056362576 6.995854173710937,-3.0390580112600576 6.129828769926492,-2.5390580112600554 5.422721988739946,-1.8319512300735088 4.922721988739946,-0.9659258262890713 4.663902943637424,-4.218847493575595e-15"/>
<polygon class="face_stroke" points="5.4227217546386575,2.8319514641747943 5.163902709536137,3.797877290463863 6.129828535825205,3.539058245361342"/>
<polygon class="face_stroke" points="5.422721290463863,2.831951709536137 4.456795464174794,3.090770754638658 5.163902245361342,3.7978775358252053"/>
<polygon class="face_stroke" points="5.422721535825206,2.8319512453613425 4.715614754638658,2.1248444641747946 4.456795709536137,3.090770290463863"/>
<polygon class="face_stroke" points="4.715614290463863,2.124844709536137 3.7496884641747945,2.3836637546386577 4.456795245361342,3.0907705358252056"/>
<polygon class="face_stroke" points="4.715614535825206,2.1248442453613423 4.008507754638658,1.4177374641747944 3.7496887095361373,2.383663290463863"/>
<polygon class="face_stroke" points="4.008508290463863,1.4177377095361372 3.042582464174795,1.6765567546386577 3.7496892453613424,2.3836635358252054"/>
<text class="face_text" text-anchor="middle" dominant-baseline="middle" transform="matrix(0.017810659047995333 0 0 0.017810659047995333 0.0 0.0)">48</text>
<text class="face_text" text-anchor="middle" dominant-baseline="middle" transform="matrix(0.017810659047995333 0 0 0.017810659047995333 4.086552 0.0)">0</text>
<text class="face_text" text-anchor="middle" dominant-baseline="middle" transform="matrix(0.017810659047995333 0 0 0.017810659047995333 4.375227 0.5)">1</text>
<text class="face_text" text-anchor="middle" dominant-baseline="middle" transform="matrix(0.017810659047995333 0 0 0.017810659047995333 8.46178 0.5)">49</text>
<text class="face_text" text-anchor="middle" dominant-baseline="middle" transform="matrix(0.017810659047995333 0 0 0.017810659047995333 5.572151 3.389629)">7</text>
<text class="face_text" text-anchor="middle" dominant-baseline="middle" transform="matrix(0.017810659047995333 0 0 0.017810659047995333 5.014473 3.2402)">6</text>
<text class="face_text" text-anchor="middle" dominant-baseline="middle" transform="matrix(0.017810659047995333 0 0 0.017810659047995333 4.865044 2.682522)">5</text>
<text class="face_text" text-anchor="middle" dominant-baseline="middle" transform="matrix(0.017810659047995333 0 0 0.017810659047995333 4.307366 2.533093)">4</text>
<text class="face_text" text-anchor="middle" dominant-baseline="middle" transform="matrix(0.017810659047995333 0 0 0.017810659047995333 4.157937 1.975415)">3</text>
<text class="face_text" text-anchor="middle" dominant-baseline="middle" transform="matrix(0.017810659047995333 0 0 0.017810659047995333 3.60026 1.825986)">2</text>
<rect class="edge_bg" x="3.6197702749252336" y="-0.17810659047995336" width="0.3562131809599067" height="0.3562131809599067"/>
<text class="edge_text" text-anchor="middle" dominant-baseline="middle" transform="matrix(0.017810659047995333 0 0 0.017810659047995333 3.797876865405187 -3.535250795749691e-17)">1</text>
<rect class="edge_bg" x="4.05278284222264" y="0.07189340952004655" width="0.3562131809599067" height="0.3562131809599067"/>
<text class="edge_text" text-anchor="middle" dominant-baseline="middle" transform="matrix(0.017810659047995333 0 0 0.017810659047995333 4.230889432702593 0.2499999999999999)">4</text>
<rect class="edge_bg" x="4.48579635315747" y="0.3218934095200462" width="0.3562131809599067" height="0.3562131809599067"/>
<text class="edge_text" text-anchor="middle" dominant-baseline="middle" transform="matrix(0.017810659047995333 0 0 0.017810659047995333 4.6639029436374235 0.49999999999999956)">5</text>
<rect class="edge_bg" x="5.598168554751978" y="3.0073982642881147" width="0.3562131809599067" height="0.3562131809599067"/>
<text class="edge_text" text-anchor="middle" dominant-baseline="middle" transform="matrix(0.017810659047995333 0 0 0.017810659047995333 5.776275145231931 3.185504854768068)">18</text>
<rect class="edge_bg" x="5.115205177432649" y="3.136808032200718" width="0.3562131809599067" height="0.3562131809599067"/>
<text class="edge_text" text-anchor="middle" dominant-baseline="middle" transform="matrix(0.017810659047995333 0 0 0.017810659047995333 5.293311767912602 3.3149146226806714)">17</text>
<rect class="edge_bg" x="4.761652032200717" y="2.7832541774326494" width="0.3562131809599067" height="0.3562131809599067"/>
<text class="edge_text" text-anchor="middle" dominant-baseline="middle" transform="matrix(0.017810659047995333 0 0 0.017810659047995333 4.939758622680671 2.961360767912603)">15</text>
<rect class="edge_bg" x="4.40809817743265" y="2.4297010322007178" width="0.3562131809599067" height="0.3562131809599067"/>
<text class="edge_text" text-anchor="middle" dominant-baseline="middle" transform="matrix(0.017810659047995333 0 0 0.017810659047995333 4.586204767912603 2.6078076226806712)">13</text>
<rect class="edge_bg" x="4.054545032200718" y="2.076147177432649" width="0.3562131809599067" height="0.3562131809599067"/>
<text class="edge_text" text-anchor="middle" dominant-baseline="middle" transform="matrix(0.017810659047995333 0 0 0.017810659047995333 4.232651622680671 2.2542537679126027)">11</text>
<rect class="edge_bg" x="3.7009921774326493" y="1.722594032200718" width="0.3562131809599067" height="0.3562131809599067"/>
<text class="edge_text" text-anchor="middle" dominant-baseline="middle" transform="matrix(0.017810659047995333 0 0 0.017810659047995333 3.8790987679126028 1.9007006226806713)">9</text>
</svg>
