<?xml version="1.0" encoding="utf-8"?>
<svg version="1.1" xmlns="http://www.w3.org/2000/svg" viewBox="-4.600753761998834 -4.420127357805185 17.663287523997667 9.133147481509084" style="enable-background:new -4.600753761998834 -4.420127357805185 17.663287523997667 9.133147481509084;">
<style type="text/css">
  .face_stroke {fill:none; stroke:#000000; stroke-width:0.02; stroke-miterlimit:10;}
  .face_text {fill:#000000; font-family:monospace;}
  .edge_text {fill:#ff0000; font-family:monospace;}
  .edge_bg {fill:#f3f3f3; stroke:#606060; stroke-width:0.01;}
</style>
<polygon class="face_stroke" points="3.7978770563625757,-0.5 3.539058011260055,-1.4659258262890686 3.039058011260055,-2.3319512300735075 2.3319512300735075,-3.039058011260055 1.4659258262890689,-3.539058011260055 0.5000000000000006,-3.7978770563625757 -0.4999999999999993,-3.797877056362576 -1.4659258262890684,-3.539058011260055 -2.3319512300735075,-3.039058011260055 -3.0390580112600554,-2.3319512300735066 -3.539058011260055,-1.4659258262890689 -3.7978770563625757,-0.5 -3.797877056362576,0.49999999999999906 -3.539058011260056,1.4659258262890664 -3.039058011260055,2.3319512300735075 -2.3319512300735084,3.039058011260054 -1.4659258262890675,3.5390580112600554 -0.5000000000000002,3.7978770563625757 0.5000000000000021,3.7978770563625757 1.4659258262890693,3.5390580112600545 2.3319512300735075,3.039058011260055 3.039058011260054,2.3319512300735084 3.5390580112600554,1.4659258262890678 3.7978770563625757,0.5000000000000004"/>
<polygon class="face_stroke" points="3.797876865405187,0.4999999999999999 4.663902269189626,1.414100318299876e-16 3.7978768654051875,-0.5000000000000003"/>
<polygon class="face_stroke" points="3.797876730810374,0.49999999999999994 4.663902134594813,1.0 4.663902134594813,-1.1102230246251565e-16"/>
<polygon class="face_stroke" points="4.663902943637423,0.9999999999999991 4.922721988739943,1.9659258262890664 5.422721988739944,2.8319512300735075 6.12982876992649,3.539058011260054 6.995854173710931,4.039058011260055 7.961779999999999,4.297877056362576 8.961780000000001,4.297877056362576 9.927705826289069,4.039058011260055 10.793731230073506,3.539058011260055 11.500838011260054,2.8319512300735084 12.000838011260054,1.9659258262890678 12.259657056362574,1.0000000000000004 12.259657056362576,1.4988010832439613e-15 12.000838011260056,-0.965925826289066 11.500838011260058,-1.8319512300735044 10.793731230073504,-2.5390580112600563 9.927705826289067,-3.0390580112600554 8.96178,-3.2978770563625757 7.961780000000001,-3.297877056362576 6.995854173710937,-3.0390580112600576 6.129828769926492,-2.5390580112600554 5.422721988739946,-1.8319512300735088 4.922721988739946,-0.9659258262890713 4.663902943637424,-4.218847493575595e-15"/>
<polygon class="face_stroke" points="7.9617795358252055,-3.297876754638658 7.254672754638658,-4.004983535825206 6.995853709536137,-3.039057709536137"/>
<polygon class="face_stroke" points="7.254672290463863,-4.004984290463863 6.288746464174794,-3.7461652453613423 6.995853245361342,-3.0390584641747944"/>
<polygon class="face_stroke" points="6.288746754638658,-3.7461645358252054 6.029927709536137,-2.7802387095361367 6.995853535825206,-3.0390577546386575"/>
<polygon class="face_stroke" points="6.2887472904638635,-3.746165290463863 5.322821464174795,-3.4873462453613424 6.029928245361343,-2.7802394641747945"/>
<polygon class="face_stroke" points="5.3228207546386574,-3.4873455358252055 5.064001709536137,-2.521419709536137 6.029927535825205,-2.7802387546386576"/>
<polygon class="face_stroke" points="5.322821290463863,-3.487345290463863 4.356895464174794,-3.2285262453613424 5.064002245361342,-2.5214194641747945"/>
<polygon class="face_stroke" points="4.356895754638658,-3.2285265358252055 4.098076709536137,-2.262600709536137 5.064002535825206,-2.5214197546386576"/>
<polygon class="face_stroke" points="4.3568952904638625,-3.228526290463863 3.3909694641747947,-2.9697072453613425 4.098076245361343,-2.2626004641747945"/>
<polygon class="face_stroke" points="3.3909697546386575,-2.9697075358252056 3.1321507095361367,-2.003781709536137 4.098076535825205,-2.2626007546386577"/>
<text class="face_text" text-anchor="middle" dominant-baseline="middle" transform="matrix(0.018266294963018168 0 0 0.018266294963018168 0.0 0.0)">48</text>
<text class="face_text" text-anchor="middle" dominant-baseline="middle" transform="matrix(0.018266294963018168 0 0 0.018266294963018168 4.086552 0.0)">0</text>
<text class="face_text" text-anchor="middle" dominant-baseline="middle" transform="matrix(0.018266294963018168 0 0 0.018266294963018168 4.375227 0.5)">1</text>
<text class="face_text" text-anchor="middle" dominant-baseline="middle" transform="matrix(0.018266294963018168 0 0 0.018266294963018168 8.46178 0.5)">49</text>
<text class="face_text" text-anchor="middle" dominant-baseline="middle" transform="matrix(0.018266294963018168 0 0 0.018266294963018168 7.404102 -3.447306)">39</text>
<text class="face_text" text-anchor="middle" dominant-baseline="middle" transform="matrix(0.018266294963018168 0 0 0.018266294963018168 6.846424 -3.596736)">40</text>
<text class="face_text" text-anchor="middle" dominant-baseline="middle" transform="matrix(0.018266294963018168 0 0 0.018266294963018168 6.438176 -3.188487)">41</text>
<text class="face_text" text-anchor="middle" dominant-baseline="middle" transform="matrix(0.018266294963018168 0 0 0.018266294963018168 5.880499 -3.337917)">42</text>
<text class="face_text" text-anchor="middle" dominant-baseline="middle" transform="matrix(0.018266294963018168 0 0 0.018266294963018168 5.47225 -2.929668)">43</text>
<text class="face_text" text-anchor="middle" dominant-baseline="middle" transform="matrix(0.018266294963018168 0 0 0.018266294963018168 4.914573 -3.079097)">44</text>
<text class="face_text" text-anchor="middle" dominant-baseline="middle" transform="matrix(0.018266294963018168 0 0 0.018266294963018168 4.506325 -2.670849)">45</text>
<text class="face_text" text-anchor="middle" dominant-baseline="middle" transform="matrix(0.018266294963018168 0 0 0.018266294963018168 3.948647 -2.820278)">46</text>
<text class="face_text" text-anchor="middle" dominant-baseline="middle" transform="matrix(0.018266294963018168 0 0 0.018266294963018168 3.540399 -2.41203)">47</text>
<rect class="edge_bg" x="3.6152139157750054" y="-0.1826629496301817" width="0.36532589926036335" height="0.36532589926036335"/>
<text class="edge_text" text-anchor="middle" dominant-baseline="middle" transform="matrix(0.018266294963018168 0 0 0.018266294963018168 3.797876865405187 -3.535250795749691e-17)">1</text>
<rect class="edge_bg" x="4.048226483072412" y="0.06733705036981821" width="0.36532589926036335" height="0.36532589926036335"/>
<text class="edge_text" text-anchor="middle" dominant-baseline="middle" transform="matrix(0.018266294963018168 0 0 0.018266294963018168 4.230889432702593 0.2499999999999999)">4</text>
<rect class="edge_bg" x="4.481239994007242" y="0.31733705036981785" width="0.36532589926036335" height="0.36532589926036335"/>
<text class="edge_text" text-anchor="middle" dominant-baseline="middle" transform="matrix(0.018266294963018168 0 0 0.018266294963018168 4.6639029436374235 0.49999999999999956)">5</text>
<rect class="edge_bg" x="7.2961536730504895" y="-3.351130181717579" width="0.36532589926036335" height="0.36532589926036335"/>
<text class="edge_text" text-anchor="middle" dominant-baseline="middle" transform="matrix(0.018266294963018168 0 0 0.018266294963018168 7.478816622680671 -3.1684672320873974)">82</text>
<rect class="edge_bg" x="6.942599818282421" y="-3.7046843269495104" width="0.36532589926036335" height="0.36532589926036335"/>
<text class="edge_text" text-anchor="middle" dominant-baseline="middle" transform="matrix(0.018266294963018168 0 0 0.018266294963018168 7.125262767912602 -3.5220213773193287)">83</text>
<rect class="edge_bg" x="6.459637195601751" y="-3.575274094862113" width="0.36532589926036335" height="0.36532589926036335"/>
<text class="edge_text" text-anchor="middle" dominant-baseline="middle" transform="matrix(0.018266294963018168 0 0 0.018266294963018168 6.642300145231932 -3.3926111452319314)">85</text>
<rect class="edge_bg" x="5.976674818282422" y="-3.4458653269495105" width="0.36532589926036335" height="0.36532589926036335"/>
<text class="edge_text" text-anchor="middle" dominant-baseline="middle" transform="matrix(0.018266294963018168 0 0 0.018266294963018168 6.159337767912604 -3.263202377319329)">87</text>
<rect class="edge_bg" x="5.49371119560175" y="-3.316455094862113" width="0.36532589926036335" height="0.36532589926036335"/>
<text class="edge_text" text-anchor="middle" dominant-baseline="middle" transform="matrix(0.018266294963018168 0 0 0.018266294963018168 5.676374145231931 -3.1337921452319315)">89</text>
<rect class="edge_bg" x="5.010748818282421" y="-3.1870453269495105" width="0.36532589926036335" height="0.36532589926036335"/>
<text class="edge_text" text-anchor="middle" dominant-baseline="middle" transform="matrix(0.018266294963018168 0 0 0.018266294963018168 5.193411767912602 -3.004382377319329)">91</text>
<rect class="edge_bg" x="4.527786195601751" y="-3.0576360948621133" width="0.36532589926036335" height="0.36532589926036335"/>
<text class="edge_text" text-anchor="middle" dominant-baseline="middle" transform="matrix(0.018266294963018168 0 0 0.018266294963018168 4.710449145231932 -2.8749731452319316)">93</text>
<rect class="edge_bg" x="4.044822818282421" y="-2.9282263269495106" width="0.36532589926036335" height="0.36532589926036335"/>
<text class="edge_text" text-anchor="middle" dominant-baseline="middle" transform="matrix(0.018266294963018168 0 0 0.018266294963018168 4.2274857679126026 -2.745563377319329)">95</text>
<rect class="edge_bg" x="3.5618601956017497" y="-2.7988170948621134" width="0.36532589926036335" height="0.36532589926036335"/>
<text class="edge_text" text-anchor="middle" dominant-baseline="middle" transform="matrix(0.018266294963018168 0 0 0.018266294963018168 3.7445231452319314 -2.6161541452319317)">3</text>
</svg>
