<?xml version="1.0" encoding="utf-8"?>
<svg version="1.1" xmlns="http://www.w3.org/2000/svg" viewBox="-4.600753761998834 -4.202664761998833 17.663287523997667 8.905329523997667" style="enable-background:new -4.600753761998834 -4.202664761998833 17.663287523997667 8.905329523997667;">
<style type="text/css">
  .face_stroke {fill:none; stroke:#000000; stroke-width:0.02; stroke-miterlimit:10;}
  .face_text {fill:#000000; font-family:monospace;}
  .edge_text {fill:#ff0000; font-family:monospace;}
  .edge_bg {fill:#f3f3f3; stroke:#606060; stroke-width:0.01;}
</style>
<polygon class="face_stroke" points="3.7978770563625757,-0.5 3.539058011260055,-1.4659258262890686 3.039058011260055,-2.3319512300735075 2.3319512300735075,-3.039058011260055 1.4659258262890689,-3.539058011260055 0.5000000000000006,-3.7978770563625757 -0.4999999999999993,-3.797877056362576 -1.4659258262890684,-3.539058011260055 -2.3319512300735075,-3.039058011260055 -3.0390580112600554,-2.3319512300735066 -3.539058011260055,-1.4659258262890689 -3.7978770563625757,-0.5 -3.797877056362576,0.49999999999999906 -3.539058011260056,1.4659258262890664 -3.039058011260055,2.3319512300735075 -2.3319512300735084,3.039058011260054 -1.4659258262890675,3.5390580112600554 -0.5000000000000002,3.7978770563625757 0.5000000000000021,3.7978770563625757 1.4659258262890693,3.5390580112600545 2.3319512300735075,3.039058011260055 3.039058011260054,2.3319512300735084 3.5390580112600554,1.4659258262890678 3.7978770563625757,0.5000000000000004"/>
<polygon class="face_stroke" points="3.797876865405187,0.4999999999999999 4.663902269189626,1.414100318299876e-16 3.7978768654051875,-0.5000000000000003"/>
<polygon class="face_stroke" points="3.797876730810374,0.49999999999999994 4.663902134594813,1.0 4.663902134594813,-1.1102230246251565e-16"/>
<polygon class="face_stroke" points="4.663902943637423,0.9999999999999991 4.922721988739943,1.9659258262890664 5.422721988739944,2.8319512300735075 6.12982876992649,3.539058011260054 6.995854173710931,4.039058011260055 7.961779999999999,4.297877056362576 8.961780000000001,4.297877056362576 9.927705826289069,4.039058011260055 10.793731230073506,3.539058011260055 11.500838011260054,2.8319512300735084 12.000838011260054,1.9659258262890678 12.259657056362574,1.0000000000000004 12.259657056362576,1.4988010832439613e-15 12.000838011260056,-0.965925826289066 11.500838011260058,-1.8319512300735044 10.793731230073504,-2.5390580112600563 9.927705826289067,-3.0390580112600554 8.96178,-3.2978770563625757 7.961780000000001,-3.297877056362576 6.995854173710937,-3.0390580112600576 6.129828769926492,-2.5390580112600554 5.422721988739946,-1.8319512300735088 4.922721988739946,-0.9659258262890713 4.663902943637424,-4.218847493575595e-15"/>
<polygon class="face_stroke" points="6.9958532691896265,-3.039058 6.129827865405187,-3.539058 6.129827865405187,-2.539058"/>
<polygon class="face_stroke" points="6.129828134594813,-3.539058 5.263802730810374,-3.039058 6.129828134594813,-2.539058"/>
<polygon class="face_stroke" points="5.263802865405187,-3.039058 5.263802865405187,-2.039058 6.129828269189626,-2.539058"/>
<polygon class="face_stroke" points="5.263803134594813,-3.039058 4.397777730810374,-2.539058 5.263803134594813,-2.039058"/>
<polygon class="face_stroke" points="4.397777865405187,-2.539058 4.397777865405187,-1.5390579999999998 5.263803269189626,-2.039058"/>
<polygon class="face_stroke" points="4.397777134594813,-2.539058 3.5317517308103743,-2.039058 4.397777134594813,-1.5390579999999998"/>
<polygon class="face_stroke" points="3.5317518654051874,-2.0390580000000003 3.531751865405187,-1.0390580000000003 4.397777269189626,-1.5390579999999998"/>
<text class="face_text" text-anchor="middle" dominant-baseline="middle" transform="matrix(0.017810659047995333 0 0 0.017810659047995333 0.0 0.0)">48</text>
<text class="face_text" text-anchor="middle" dominant-baseline="middle" transform="matrix(0.017810659047995333 0 0 0.017810659047995333 4.086552 0.0)">0</text>
<text class="face_text" text-anchor="middle" dominant-baseline="middle" transform="matrix(0.017810659047995333 0 0 0.017810659047995333 4.375227 0.5)">1</text>
<text class="face_text" text-anchor="middle" dominant-baseline="middle" transform="matrix(0.017810659047995333 0 0 0.017810659047995333 8.46178 0.5)">49</text>
<text class="face_text" text-anchor="middle" dominant-baseline="middle" transform="matrix(0.017810659047995333 0 0 0.017810659047995333 6.418503 -3.039058)">41</text>
<text class="face_text" text-anchor="middle" dominant-baseline="middle" transform="matrix(0.017810659047995333 0 0 0.017810659047995333 5.841153 -3.039058)">42</text>
<text class="face_text" text-anchor="middle" dominant-baseline="middle" transform="matrix(0.017810659047995333 0 0 0.017810659047995333 5.552478 -2.539058)">43</text>
<text class="face_text" text-anchor="middle" dominant-baseline="middle" transform="matrix(0.017810659047995333 0 0 0.017810659047995333 4.975128 -2.539058)">44</text>
<text class="face_text" text-anchor="middle" dominant-baseline="middle" transform="matrix(0.017810659047995333 0 0 0.017810659047995333 4.686453 -2.039058)">45</text>
<text class="face_text" text-anchor="middle" dominant-baseline="middle" transform="matrix(0.017810659047995333 0 0 0.017810659047995333 4.109102 -2.039058)">46</text>
<text class="face_text" text-anchor="middle" dominant-baseline="middle" transform="matrix(0.017810659047995333 0 0 0.017810659047995333 3.820427 -1.539058)">47</text>
<rect class="edge_bg" x="3.6197702749252336" y="-0.17810659047995336" width="0.3562131809599067" height="0.3562131809599067"/>
<text class="edge_text" text-anchor="middle" dominant-baseline="middle" transform="matrix(0.017810659047995333 0 0 0.017810659047995333 3.797876865405187 -3.535250795749691e-17)">1</text>
<rect class="edge_bg" x="4.05278284222264" y="0.07189340952004655" width="0.3562131809599067" height="0.3562131809599067"/>
<text class="edge_text" text-anchor="middle" dominant-baseline="middle" transform="matrix(0.017810659047995333 0 0 0.017810659047995333 4.230889432702593 0.2499999999999999)">4</text>
<rect class="edge_bg" x="4.48579635315747" y="0.3218934095200462" width="0.3562131809599067" height="0.3562131809599067"/>
<text class="edge_text" text-anchor="middle" dominant-baseline="middle" transform="matrix(0.017810659047995333 0 0 0.017810659047995333 4.6639029436374235 0.49999999999999956)">5</text>
<rect class="edge_bg" x="6.384733976817453" y="-2.9671645904799533" width="0.3562131809599067" height="0.3562131809599067"/>
<text class="edge_text" text-anchor="middle" dominant-baseline="middle" transform="matrix(0.017810659047995333 0 0 0.017810659047995333 6.562840567297407 -2.789058)">86</text>
<rect class="edge_bg" x="5.95172154411486" y="-3.2171645904799533" width="0.3562131809599067" height="0.3562131809599067"/>
<text class="edge_text" text-anchor="middle" dominant-baseline="middle" transform="matrix(0.017810659047995333 0 0 0.017810659047995333 6.129828134594813 -3.039058)">87</text>
<rect class="edge_bg" x="5.518708976817453" y="-2.9671645904799533" width="0.3562131809599067" height="0.3562131809599067"/>
<text class="edge_text" text-anchor="middle" dominant-baseline="middle" transform="matrix(0.017810659047995333 0 0 0.017810659047995333 5.696815567297406 -2.789058)">89</text>
<rect class="edge_bg" x="5.085696544114859" y="-2.7171645904799533" width="0.3562131809599067" height="0.3562131809599067"/>
<text class="edge_text" text-anchor="middle" dominant-baseline="middle" transform="matrix(0.017810659047995333 0 0 0.017810659047995333 5.263803134594813 -2.539058)">91</text>
<rect class="edge_bg" x="4.652683976817453" y="-2.4671645904799533" width="0.3562131809599067" height="0.3562131809599067"/>
<text class="edge_text" text-anchor="middle" dominant-baseline="middle" transform="matrix(0.017810659047995333 0 0 0.017810659047995333 4.830790567297407 -2.289058)">93</text>
<rect class="edge_bg" x="4.21967054411486" y="-2.2171645904799533" width="0.3562131809599067" height="0.3562131809599067"/>
<text class="edge_text" text-anchor="middle" dominant-baseline="middle" transform="matrix(0.017810659047995333 0 0 0.017810659047995333 4.397777134594813 -2.039058)">95</text>
<rect class="edge_bg" x="3.786657976817453" y="-1.9671645904799533" width="0.3562131809599067" height="0.3562131809599067"/>
<text class="edge_text" text-anchor="middle" dominant-baseline="middle" transform="matrix(0.017810659047995333 0 0 0.017810659047995333 3.9647645672974066 -1.789058)">3</text>
</svg>
