<?xml version="1.0" encoding="utf-8"?>
<svg version="1.1" id="layer_1" xmlns="http://www.w3.org/2000/svg" xmlns:xlink="http://www.w3.org/1999/xlink" x="0px" y="0px" viewBox="-1.6273551345948134 -0.5500000000000004 2.9660301345948143 2.4660227018922196" style="enable-background:new -1.6273551345948134 -0.5500000000000004 2.9660301345948143 2.4660227018922196;" xml:space="preserve">
<style type="text/css">
  .no_fill_black_stroke {fill:none; stroke:#000000; stroke-width:0.02; stroke-miterlimit:10;}
  .face_text {fill:#000000; font-family:monospace;}
  .edge_text {fill:#ff0000; font-family:monospace;}
  .edge_bg {fill:#f3f3f3; stroke:#606060; stroke-width:0.02;}
</style>
<polygon class="no_fill_black_stroke" points="0.288675134594813, -0.5 -0.5773502691896258, -7.07050159149938e-17 0.288675134594813, 0.5"/>
<polygon class="no_fill_black_stroke" points="0.2886749999999999, 0.5 1.288675, 0.5000000000000001 1.2886750000000007, -0.49999999999999944 0.2886749999999997, -0.4999999999999998"/>
<polygon class="no_fill_black_stroke" points="0.2886749999999999, 0.49999986540518715 0.7886749999999999, 1.3660252691896257 1.2886750000000005, 0.49999986540518754"/>
<polygon class="no_fill_black_stroke" points="0.28867500000000007, 0.4999997308103742 -0.21132499999999999, 1.3660251345948131 0.7886749999999999, 1.3660251345948131"/>
<polygon class="no_fill_black_stroke" points="0.2886750000000001, 0.49999986540518715 -0.7113250000000001, 0.49999986540518715 -0.21132500000000012, 1.3660252691896257"/>
<polygon class="no_fill_black_stroke" points="-0.7113252981077807, 0.4999972981077805 -1.5773507018922193, 0.9999972981077804 -1.0773507018922193, 1.8660227018922193 -0.21132529810778056, 1.366022701892219"/>
<polygon class="no_fill_black_stroke" points="-0.7113297308103742, 0.5 -1.577355134594813, -1.1102230246251565e-16 -1.5773551345948134, 0.9999999999999999"/>
<polygon class="no_fill_black_stroke" points="-0.711324865405187, 0.4999999999999997 -0.711324865405187, -0.5000000000000003 -1.5773502691896257, -3.7159701591499376e-16"/>
<text class="face_text" text-anchor="middle" dominant-baseline="middle" transform="matrix(0.004932045403784439 0 0 0.004932045403784439 0.0 0.0)">0</text>
<text class="face_text" text-anchor="middle" dominant-baseline="middle" transform="matrix(0.004932045403784439 0 0 0.004932045403784439 0.788675 0.0)">4</text>
<text class="face_text" text-anchor="middle" dominant-baseline="middle" transform="matrix(0.004932045403784439 0 0 0.004932045403784439 0.788675 0.788675)">3</text>
<text class="face_text" text-anchor="middle" dominant-baseline="middle" transform="matrix(0.004932045403784439 0 0 0.004932045403784439 0.288675 1.07735)">2</text>
<text class="face_text" text-anchor="middle" dominant-baseline="middle" transform="matrix(0.004932045403784439 0 0 0.004932045403784439 -0.211325 0.788675)">1</text>
<text class="face_text" text-anchor="middle" dominant-baseline="middle" transform="matrix(0.004932045403784439 0 0 0.004932045403784439 -0.894338 1.18301)">13</text>
<text class="face_text" text-anchor="middle" dominant-baseline="middle" transform="matrix(0.004932045403784439 0 0 0.004932045403784439 -1.28868 0.5)">16</text>
<text class="face_text" text-anchor="middle" dominant-baseline="middle" transform="matrix(0.004932045403784439 0 0 0.004932045403784439 -1.0 -3.00892e-16)">7</text>
<rect class="edge_bg" x="0.2393545459621555" y="-0.049320454037844456" width="0.09864090807568879" height="0.09864090807568879"/>
<text class="edge_text" text-anchor="middle" dominant-baseline="middle" transform="matrix(0.004932045403784439 0 0 0.004932045403784439 0.2886749999999999 -6.123233995736767e-17)">0</text>
<rect class="edge_bg" x="0.7393545459621557" y="0.45067941136734263" width="0.09864090807568879" height="0.09864090807568879"/>
<text class="edge_text" text-anchor="middle" dominant-baseline="middle" transform="matrix(0.004932045403784439 0 0 0.004932045403784439 0.788675 0.49999986540518704)">1</text>
<rect class="edge_bg" x="0.4893545459621557" y="0.8836919786647492" width="0.09864090807568879" height="0.09864090807568879"/>
<text class="edge_text" text-anchor="middle" dominant-baseline="middle" transform="matrix(0.004932045403784439 0 0 0.004932045403784439 0.5386750000000001 0.9330124327025936)">4</text>
<rect class="edge_bg" x="-0.010645454037844296" y="0.8836921132595621" width="0.09864090807568879" height="0.09864090807568879"/>
<text class="edge_text" text-anchor="middle" dominant-baseline="middle" transform="matrix(0.004932045403784439 0 0 0.004932045403784439 0.0386750000000001 0.9330125672974064)">2</text>
<rect class="edge_bg" x="-0.5106457521456249" y="0.8836895459621555" width="0.09864090807568879" height="0.09864090807568879"/>
<text class="edge_text" text-anchor="middle" dominant-baseline="middle" transform="matrix(0.004932045403784439 0 0 0.004932045403784439 -0.4613252981077805 0.9330099999999999)">16</text>
<rect class="edge_bg" x="-1.193662886740438" y="0.7006795459621556" width="0.09864090807568879" height="0.09864090807568879"/>
<text class="edge_text" text-anchor="middle" dominant-baseline="middle" transform="matrix(0.004932045403784439 0 0 0.004932045403784439 -1.1443424327025935 0.75)">21</text>
<rect class="edge_bg" x="-1.193658021335251" y="0.20067954596215543" width="0.09864090807568879" height="0.09864090807568879"/>
<text class="edge_text" text-anchor="middle" dominant-baseline="middle" transform="matrix(0.004932045403784439 0 0 0.004932045403784439 -1.1443375672974065 0.2499999999999998)">20</text>
</svg>
