<?xml version="1.0" encoding="utf-8"?>
<svg version="1.1" id="layer_1" xmlns="http://www.w3.org/2000/svg" xmlns:xlink="http://www.w3.org/1999/xlink" x="0px" y="0px" viewBox="-1.6273507018922195 -0.55 2.96602570189222 2.832055134594813" style="enable-background:new -1.6273507018922195 -0.55 2.96602570189222 2.832055134594813;" xml:space="preserve">
<style type="text/css">
  .no_fill_black_stroke {fill:none; stroke:#000000; stroke-width:0.02; stroke-miterlimit:10;}
  .face_text {fill:#000000; font-family:monospace;}
  .edge_text {fill:#ff0000; font-family:monospace;}
  .edge_bg {fill:#f3f3f3; stroke:#606060; stroke-width:0.02;}
</style>
<polygon class="no_fill_black_stroke" points="0.288675134594813, -0.5 -0.5773502691896258, -7.07050159149938e-17 0.288675134594813, 0.5"/>
<polygon class="no_fill_black_stroke" points="0.2886749999999999, 0.5 1.288675, 0.5000000000000001 1.2886750000000007, -0.49999999999999944 0.2886749999999997, -0.4999999999999998"/>
<polygon class="no_fill_black_stroke" points="0.2886749999999999, 0.49999986540518715 0.7886749999999999, 1.3660252691896257 1.2886750000000005, 0.49999986540518754"/>
<polygon class="no_fill_black_stroke" points="0.28867500000000007, 0.4999997308103742 -0.21132499999999999, 1.3660251345948131 0.7886749999999999, 1.3660251345948131"/>
<polygon class="no_fill_black_stroke" points="-0.2113250000000001, 1.3660248654051872 0.2886749999999999, 2.232050269189626 0.7886750000000003, 1.3660248654051876"/>
<polygon class="no_fill_black_stroke" points="-0.21132499999999999, 1.3660297308103742 -0.711325, 2.232055134594813 0.2886749999999999, 2.2320551345948134"/>
<polygon class="no_fill_black_stroke" points="-0.21132529810778056, 1.3660272981077806 -1.0773507018922195, 0.8660272981077806 -1.5773507018922195, 1.732052701892219 -0.7113252981077803, 2.2320527018922194"/>
<polygon class="no_fill_black_stroke" points="-0.21132486540518702, 1.366025 -0.21132486540518702, 0.36602500000000004 -1.0773502691896257, 0.8660249999999999"/>
<text class="face_text" text-anchor="middle" dominant-baseline="middle" transform="matrix(0.005664110269189626 0 0 0.005664110269189626 0.0 0.0)">0</text>
<text class="face_text" text-anchor="middle" dominant-baseline="middle" transform="matrix(0.005664110269189626 0 0 0.005664110269189626 0.788675 0.0)">4</text>
<text class="face_text" text-anchor="middle" dominant-baseline="middle" transform="matrix(0.005664110269189626 0 0 0.005664110269189626 0.788675 0.788675)">3</text>
<text class="face_text" text-anchor="middle" dominant-baseline="middle" transform="matrix(0.005664110269189626 0 0 0.005664110269189626 0.288675 1.07735)">2</text>
<text class="face_text" text-anchor="middle" dominant-baseline="middle" transform="matrix(0.005664110269189626 0 0 0.005664110269189626 0.288675 1.6547)">15</text>
<text class="face_text" text-anchor="middle" dominant-baseline="middle" transform="matrix(0.005664110269189626 0 0 0.005664110269189626 -0.211325 1.94338)">14</text>
<text class="face_text" text-anchor="middle" dominant-baseline="middle" transform="matrix(0.005664110269189626 0 0 0.005664110269189626 -0.894338 1.54904)">13</text>
<text class="face_text" text-anchor="middle" dominant-baseline="middle" transform="matrix(0.005664110269189626 0 0 0.005664110269189626 -0.5 0.866025)">1</text>
<rect class="edge_bg" x="0.23203389730810364" y="-0.056641102691896324" width="0.11328220538379252" height="0.11328220538379252"/>
<text class="edge_text" text-anchor="middle" dominant-baseline="middle" transform="matrix(0.005664110269189626 0 0 0.005664110269189626 0.2886749999999999 -6.123233995736767e-17)">0</text>
<rect class="edge_bg" x="0.7320338973081038" y="0.4433587627132908" width="0.11328220538379252" height="0.11328220538379252"/>
<text class="edge_text" text-anchor="middle" dominant-baseline="middle" transform="matrix(0.005664110269189626 0 0 0.005664110269189626 0.788675 0.49999986540518704)">1</text>
<rect class="edge_bg" x="0.48203389730810386" y="0.8763713300106973" width="0.11328220538379252" height="0.11328220538379252"/>
<text class="edge_text" text-anchor="middle" dominant-baseline="middle" transform="matrix(0.005664110269189626 0 0 0.005664110269189626 0.5386750000000001 0.9330124327025936)">4</text>
<rect class="edge_bg" x="0.23203389730810375" y="1.3093837627132907" width="0.11328220538379252" height="0.11328220538379252"/>
<text class="edge_text" text-anchor="middle" dominant-baseline="middle" transform="matrix(0.005664110269189626 0 0 0.005664110269189626 0.288675 1.366024865405187)">17</text>
<rect class="edge_bg" x="-0.017966102691896163" y="1.7424013300106973" width="0.11328220538379252" height="0.11328220538379252"/>
<text class="edge_text" text-anchor="middle" dominant-baseline="middle" transform="matrix(0.005664110269189626 0 0 0.005664110269189626 0.0386750000000001 1.7990424327025936)">19</text>
<rect class="edge_bg" x="-0.5179664007996767" y="1.7423988973081037" width="0.11328220538379252" height="0.11328220538379252"/>
<text class="edge_text" text-anchor="middle" dominant-baseline="middle" transform="matrix(0.005664110269189626 0 0 0.005664110269189626 -0.4613252981077805 1.79904)">18</text>
<rect class="edge_bg" x="-0.7009786699893027" y="1.0593838973081038" width="0.11328220538379252" height="0.11328220538379252"/>
<text class="edge_text" text-anchor="middle" dominant-baseline="middle" transform="matrix(0.005664110269189626 0 0 0.005664110269189626 -0.6443375672974064 1.116025)">16</text>
</svg>
