<?xml version="1.0" encoding="utf-8"?>
<svg version="1.1" id="layer_1" xmlns="http://www.w3.org/2000/svg" xmlns:xlink="http://www.w3.org/1999/xlink" x="0px" y="0px" viewBox="-1.1273502691896258 -2.41603 2.4660252691896263 2.9660300000000004" style="enable-background:new -1.1273502691896258 -2.41603 2.4660252691896263 2.9660300000000004;" xml:space="preserve">
<style type="text/css">
  .no_fill_black_stroke {fill:none; stroke:#000000; stroke-width:0.02; stroke-miterlimit:10;}
  .face_text {fill:#000000; font-family:monospace;}
  .edge_text {fill:#ff0000; font-family:monospace;}
  .edge_bg {fill:#f3f3f3; stroke:#606060; stroke-width:0.02;}
</style>
<polygon class="no_fill_black_stroke" points="0.288675134594813, -0.5 -0.5773502691896258, -7.07050159149938e-17 0.288675134594813, 0.5"/>
<polygon class="no_fill_black_stroke" points="0.2886749999999999, 0.5 1.288675, 0.5000000000000001 1.2886750000000007, -0.49999999999999944 0.2886749999999997, -0.4999999999999998"/>
<polygon class="no_fill_black_stroke" points="1.288675, -0.49999986540518715 0.788675, -1.3660252691896257 0.288675, -0.49999986540518704"/>
<polygon class="no_fill_black_stroke" points="0.7886750000000001, -1.366025134594813 -0.2113250000000001, -1.366025134594813 0.2886749999999999, -0.4999997308103742"/>
<polygon class="no_fill_black_stroke" points="0.7886750000000001, -1.36603 0.7886750000000001, -2.3660300000000003 -0.21132499999999999, -2.3660300000000003 -0.2113250000000001, -1.36603"/>
<polygon class="no_fill_black_stroke" points="-0.21132486540518702, -2.3660300000000003 -1.0773502691896257, -1.86603 -0.21132486540518702, -1.36603"/>
<polygon class="no_fill_black_stroke" points="-1.0773501345948129, -1.8660300000000003 -1.077350134594813, -0.8660300000000002 -0.21132473081037417, -1.3660299999999999"/>
<polygon class="no_fill_black_stroke" points="-1.0773502691896257, -0.8660250000000002 -0.21132486540518702, -0.36602500000000004 -0.21132486540518725, -1.366025"/>
<text class="face_text" text-anchor="middle" dominant-baseline="middle" transform="matrix(0.004932050538379253 0 0 0.004932050538379253 0.0 0.0)">0</text>
<text class="face_text" text-anchor="middle" dominant-baseline="middle" transform="matrix(0.004932050538379253 0 0 0.004932050538379253 0.788675 0.0)">4</text>
<text class="face_text" text-anchor="middle" dominant-baseline="middle" transform="matrix(0.004932050538379253 0 0 0.004932050538379253 0.788675 -0.788675)">5</text>
<text class="face_text" text-anchor="middle" dominant-baseline="middle" transform="matrix(0.004932050538379253 0 0 0.004932050538379253 0.288675 -1.07735)">6</text>
<text class="face_text" text-anchor="middle" dominant-baseline="middle" transform="matrix(0.004932050538379253 0 0 0.004932050538379253 0.288675 -1.86603)">17</text>
<text class="face_text" text-anchor="middle" dominant-baseline="middle" transform="matrix(0.004932050538379253 0 0 0.004932050538379253 -0.5 -1.86603)">18</text>
<text class="face_text" text-anchor="middle" dominant-baseline="middle" transform="matrix(0.004932050538379253 0 0 0.004932050538379253 -0.788675 -1.36603)">16</text>
<text class="face_text" text-anchor="middle" dominant-baseline="middle" transform="matrix(0.004932050538379253 0 0 0.004932050538379253 -0.5 -0.866025)">7</text>
<rect class="edge_bg" x="0.2393544946162074" y="-0.04932050538379259" width="0.09864101076758505" height="0.09864101076758505"/>
<text class="edge_text" text-anchor="middle" dominant-baseline="middle" transform="matrix(0.004932050538379253 0 0 0.004932050538379253 0.2886749999999999 -6.123233995736767e-17)">0</text>
<rect class="edge_bg" x="0.7393544946162075" y="-0.5493203707889796" width="0.09864101076758505" height="0.09864101076758505"/>
<text class="edge_text" text-anchor="middle" dominant-baseline="middle" transform="matrix(0.004932050538379253 0 0 0.004932050538379253 0.788675 -0.49999986540518704)">5</text>
<rect class="edge_bg" x="0.4893544946162076" y="-0.9823329380863861" width="0.09864101076758505" height="0.09864101076758505"/>
<text class="edge_text" text-anchor="middle" dominant-baseline="middle" transform="matrix(0.004932050538379253 0 0 0.004932050538379253 0.5386750000000001 -0.9330124327025936)">8</text>
<rect class="edge_bg" x="0.23935449461620756" y="-1.4153505053837925" width="0.09864101076758505" height="0.09864101076758505"/>
<text class="edge_text" text-anchor="middle" dominant-baseline="middle" transform="matrix(0.004932050538379253 0 0 0.004932050538379253 0.28867500000000007 -1.3660299999999999)">22</text>
<rect class="edge_bg" x="-0.26064537078897954" y="-1.9153505053837927" width="0.09864101076758505" height="0.09864101076758505"/>
<text class="edge_text" text-anchor="middle" dominant-baseline="middle" transform="matrix(0.004932050538379253 0 0 0.004932050538379253 -0.21132486540518702 -1.86603)">24</text>
<rect class="edge_bg" x="-0.693657938086386" y="-1.6653505053837927" width="0.09864101076758505" height="0.09864101076758505"/>
<text class="edge_text" text-anchor="middle" dominant-baseline="middle" transform="matrix(0.004932050538379253 0 0 0.004932050538379253 -0.6443374327025935 -1.61603)">23</text>
<rect class="edge_bg" x="-0.693658072681199" y="-1.1653455053837927" width="0.09864101076758505" height="0.09864101076758505"/>
<text class="edge_text" text-anchor="middle" dominant-baseline="middle" transform="matrix(0.004932050538379253 0 0 0.004932050538379253 -0.6443375672974064 -1.116025)">20</text>
</svg>
