<?xml version="1.0" encoding="utf-8"?>
<svg version="1.1" xmlns="http://www.w3.org/2000/svg" viewBox="-8.777499653686409 -7.260696932440497 16.450629307821306 15.93589986398474" style="enable-background:new -8.777499653686409 -7.260696932440497 16.450629307821306 15.93589986398474;">
<style type="text/css">
  .face_stroke {fill:none; stroke:#000000; stroke-width:0.02; stroke-miterlimit:10;}
  .face_text {fill:#000000; font-family:monospace;}
  .edge_text {fill:#ff0000; font-family:monospace;}
  .edge_bg {fill:#f3f3f3; stroke:#606060; stroke-width:0.01;}
</style>
<polygon class="face_stroke" points="0.288675134594813,-0.5 -0.5773502691896258,-7.07050159149938e-17 0.288675134594813,0.5"/>
<polygon class="face_stroke" points="0.28867486540518683,0.4999999999999999 1.1547002691896258,1.414100318299876e-16 0.28867486540518755,-0.5000000000000003"/>
<polygon class="face_stroke" points="0.28867505948315797,0.4999995572082012 -0.43252738786065814,1.192723910717803 -0.9669932139884576,2.0379139962615955 -1.283661207789931,2.986450438208742 -1.3641277765066566,3.9832077463429507 -1.2037164956488975,4.970258008980861 -0.811749885788823,5.890237452639687 -0.2110076215508454,6.689680216043187 0.5635973402768082,7.322125591638565 1.4670477748871888,7.750818153041619 2.446838426929459,7.950843846817666 3.4460274251010317,7.910577906708251 4.4065455367324065,7.632360442791797 5.272570940516844,7.132360442791796 5.99377338786066,6.439636089282195 6.52823921398846,5.5944460037384 6.844907207789932,4.645909561791252 6.925373776506657,3.649152253657043 6.764962495648893,2.6621019910191244 6.372995885788813,1.7421225473602986 5.772253621550833,0.9426797839568004 4.997648659723174,0.31023440836142413 4.09419822511279,-0.11845815304162599 3.114407573070519,-0.31848384681766717 2.1152185748989507,-0.27821790670824775 1.154700463267577,-4.4279178945672015e-07"/>
<polygon class="face_stroke" points="0.2886755192873952,0.5000000352970762 -0.671842593091025,0.22178257395973167 -0.43252692619637023,1.1927243907431921"/>
<polygon class="face_stroke" points="-0.6718430738036298,0.22178260925680782 -1.3930455192873952,0.9145069647029241 -0.4325274069089748,1.192724426040268"/>
<polygon class="face_stroke" points="-0.6718426050950437,0.2217820806544979 -0.13737678123668084,-0.6234080063244025 0.1792912100178552,-1.57194444912184 0.2597577760581662,-2.5687017574721125 0.09934649255005601,-3.5557520196793018 -0.2926201197802758,-4.475731462285648 -0.8933623861648567,-5.275174224076082 -1.667967349690703,-5.90761959759155 -2.5714177854521783,-6.336312156568731 -3.551208438031538,-6.536337847713917 -4.550397436094989,-6.496071904921559 -5.510915546979311,-6.217854438425999 -6.376940949421189,-5.717854436100616 -7.098143394904955,-5.0251300806545 -7.632609218763318,-4.1799399936756 -7.949277210017854,-3.2314035508781638 -8.029743776058167,-2.2346462425278903 -7.869332492550058,-1.2475959803207037 -7.477365880219727,-0.32761653771435606 -6.876623613835148,0.47182622407607866 -6.102018650309303,1.1042715975915476 -5.19856821454783,1.5329641565687284 -4.21877756196847,1.7329898477139167 -3.2195885639050164,1.6927239049215599 -2.2590704530206893,1.4145064384259989 -1.3930450505788117,0.9145064361006163"/>
<text class="face_text" text-anchor="middle" dominant-baseline="middle" transform="matrix(0.03187179972796948 0 0 0.03187179972796948 0.0 0.0)">0</text>
<text class="face_text" text-anchor="middle" dominant-baseline="middle" transform="matrix(0.03187179972796948 0 0 0.03187179972796948 0.57735 0.0)">51</text>
<text class="face_text" text-anchor="middle" dominant-baseline="middle" transform="matrix(0.03187179972796948 0 0 0.03187179972796948 2.780623 3.81618)">53</text>
<text class="face_text" text-anchor="middle" dominant-baseline="middle" transform="matrix(0.03187179972796948 0 0 0.03187179972796948 -0.271898 0.638169)">1</text>
<text class="face_text" text-anchor="middle" dominant-baseline="middle" transform="matrix(0.03187179972796948 0 0 0.03187179972796948 -0.832472 0.776338)">2</text>
<text class="face_text" text-anchor="middle" dominant-baseline="middle" transform="matrix(0.03187179972796948 0 0 0.03187179972796948 -3.884993 -2.401674)">52</text>
<rect class="edge_bg" x="-0.030043131874507745" y="-0.31871799727969485" width="0.6374359945593896" height="0.6374359945593896"/>
<text class="edge_text" text-anchor="middle" dominant-baseline="middle" transform="matrix(0.03187179972796948 0 0 0.03187179972796948 0.28867486540518705 -3.535250795749691e-17)">0</text>
<rect class="edge_bg" x="0.40296976409568236" y="-0.06871844007149314" width="0.6374359945593896" height="0.6374359945593896"/>
<text class="edge_text" text-anchor="middle" dominant-baseline="middle" transform="matrix(0.03187179972796948 0 0 0.03187179972796948 0.7216877613753772 0.24999955720820166)">6</text>
<rect class="edge_bg" x="-0.3906437007341822" y="0.5276442157404393" width="0.6374359945593896" height="0.6374359945593896"/>
<text class="edge_text" text-anchor="middle" dominant-baseline="middle" transform="matrix(0.03187179972796948 0 0 0.03187179972796948 -0.0719257034544874 0.8463622130201341)">5</text>
<rect class="edge_bg" x="-0.8709032376359971" y="0.38853552036884326" width="0.6374359945593896" height="0.6374359945593896"/>
<text class="edge_text" text-anchor="middle" dominant-baseline="middle" transform="matrix(0.03187179972796948 0 0 0.03187179972796948 -0.5521852403563023 0.707253517648538)">7</text>
<rect class="edge_bg" x="-1.3511618251166206" y="0.24942626109786165" width="0.6374359945593896" height="0.6374359945593896"/>
<text class="edge_text" text-anchor="middle" dominant-baseline="middle" transform="matrix(0.03187179972796948 0 0 0.03187179972796948 -1.032443827836926 0.5681442583775564)">8</text>
</svg>
