<?xml version="1.0" encoding="utf-8"?>
<svg version="1.1" xmlns="http://www.w3.org/2000/svg" viewBox="-1.8495712501406747 -0.9225421923408836 9.192799551725775 9.295928231499431" style="enable-background:new -1.8495712501406747 -0.9225421923408836 9.192799551725775 9.295928231499431;">
<style type="text/css">
  .face_stroke {fill:none; stroke:#000000; stroke-width:0.02; stroke-miterlimit:10;}
  .face_text {fill:#000000; font-family:monospace;}
  .edge_text {fill:#ff0000; font-family:monospace;}
  .edge_bg {fill:#f3f3f3; stroke:#606060; stroke-width:0.01;}
</style>
<polygon class="face_stroke" points="0.288675134594813,-0.5 -0.5773502691896258,-7.07050159149938e-17 0.288675134594813,0.5"/>
<polygon class="face_stroke" points="0.28867486540518683,0.4999999999999999 1.1547002691896258,1.414100318299876e-16 0.28867486540518755,-0.5000000000000003"/>
<polygon class="face_stroke" points="0.28867505948315797,0.4999995572082012 -0.43252738786065814,1.192723910717803 -0.9669932139884576,2.0379139962615955 -1.283661207789931,2.986450438208742 -1.3641277765066566,3.9832077463429507 -1.2037164956488975,4.970258008980861 -0.811749885788823,5.890237452639687 -0.2110076215508454,6.689680216043187 0.5635973402768082,7.322125591638565 1.4670477748871888,7.750818153041619 2.446838426929459,7.950843846817666 3.4460274251010317,7.910577906708251 4.4065455367324065,7.632360442791797 5.272570940516844,7.132360442791796 5.99377338786066,6.439636089282195 6.52823921398846,5.5944460037384 6.844907207789932,4.645909561791252 6.925373776506657,3.649152253657043 6.764962495648893,2.6621019910191244 6.372995885788813,1.7421225473602986 5.772253621550833,0.9426797839568004 4.997648659723174,0.31023440836142413 4.09419822511279,-0.11845815304162599 3.114407573070519,-0.31848384681766717 2.1152185748989507,-0.27821790670824775 1.154700463267577,-4.4279178945672015e-07"/>
<polygon class="face_stroke" points="-0.43252772667442263,1.1927239487765067 -1.4317167250622302,1.15245801403298 -0.9669935482633469,2.0379140371905136"/>
<polygon class="face_stroke" points="-0.4325272749377697,1.19272398596702 -0.8972504517366531,0.30726796280948676 -1.4317162733255775,1.1524580512234932"/>
<polygon class="face_stroke" points="-0.43252754826334694,1.1927240371905132 0.10193827332557737,0.3475339487765067 -0.8972507250622302,0.30726801403297993"/>
<text class="face_text" text-anchor="middle" dominant-baseline="middle" transform="matrix(0.018385599103451552 0 0 0.018385599103451552 0.0 0.0)">0</text>
<text class="face_text" text-anchor="middle" dominant-baseline="middle" transform="matrix(0.018385599103451552 0 0 0.018385599103451552 0.57735 0.0)">51</text>
<text class="face_text" text-anchor="middle" dominant-baseline="middle" transform="matrix(0.018385599103451552 0 0 0.018385599103451552 2.780623 3.81618)">53</text>
<text class="face_text" text-anchor="middle" dominant-baseline="middle" transform="matrix(0.018385599103451552 0 0 0.018385599103451552 -0.943746 1.461032)">3</text>
<text class="face_text" text-anchor="middle" dominant-baseline="middle" transform="matrix(0.018385599103451552 0 0 0.018385599103451552 -0.920498 0.88415)">2</text>
<text class="face_text" text-anchor="middle" dominant-baseline="middle" transform="matrix(0.018385599103451552 0 0 0.018385599103451552 -0.40928 0.615842)">1</text>
<rect class="edge_bg" x="0.10481887437067156" y="-0.18385599103451553" width="0.367711982069031" height="0.367711982069031"/>
<text class="edge_text" text-anchor="middle" dominant-baseline="middle" transform="matrix(0.018385599103451552 0 0 0.018385599103451552 0.28867486540518705 -3.535250795749691e-17)">0</text>
<rect class="edge_bg" x="0.5378317703408617" y="0.06614356617368616" width="0.367711982069031" height="0.367711982069031"/>
<text class="edge_text" text-anchor="middle" dominant-baseline="middle" transform="matrix(0.018385599103451552 0 0 0.018385599103451552 0.7216877613753772 0.24999955720820166)">6</text>
<rect class="edge_bg" x="-0.8836166285034002" y="1.4314630019489947" width="0.367711982069031" height="0.367711982069031"/>
<text class="edge_text" text-anchor="middle" dominant-baseline="middle" transform="matrix(0.018385599103451552 0 0 0.018385599103451552 -0.6997606374688847 1.6153189929835101)">10</text>
<rect class="edge_bg" x="-1.115977765166189" y="0.9887350275607412" width="0.367711982069031" height="0.367711982069031"/>
<text class="edge_text" text-anchor="middle" dominant-baseline="middle" transform="matrix(0.018385599103451552 0 0 0.018385599103451552 -0.9321217741316735 1.1725910185952566)">9</text>
<rect class="edge_bg" x="-0.8487451276973041" y="0.5661400345772312" width="0.367711982069031" height="0.367711982069031"/>
<text class="edge_text" text-anchor="middle" dominant-baseline="middle" transform="matrix(0.018385599103451552 0 0 0.018385599103451552 -0.6648891366627887 0.7499960256117467)">7</text>
</svg>
