<?xml version="1.0" encoding="utf-8"?>
<svg version="1.1" xmlns="http://www.w3.org/2000/svg" viewBox="-10.136556653215493 -5.396037633381562 17.874403307327967 13.98244726497062" style="enable-background:new -10.136556653215493 -5.396037633381562 17.874403307327967 13.98244726497062;">
<style type="text/css">
  .face_stroke {fill:none; stroke:#000000; stroke-width:0.02; stroke-miterlimit:10;}
  .face_text {fill:#000000; font-family:monospace;}
  .edge_text {fill:#ff0000; font-family:monospace;}
  .edge_bg {fill:#f3f3f3; stroke:#606060; stroke-width:0.01;}
</style>
<polygon class="face_stroke" points="0.288675134594813,-0.5 -0.5773502691896258,-7.07050159149938e-17 0.288675134594813,0.5"/>
<polygon class="face_stroke" points="0.28867486540518683,0.4999999999999999 1.1547002691896258,1.414100318299876e-16 0.28867486540518755,-0.5000000000000003"/>
<polygon class="face_stroke" points="0.28867505948315797,0.4999995572082012 -0.43252738786065814,1.192723910717803 -0.9669932139884576,2.0379139962615955 -1.283661207789931,2.986450438208742 -1.3641277765066566,3.9832077463429507 -1.2037164956488975,4.970258008980861 -0.811749885788823,5.890237452639687 -0.2110076215508454,6.689680216043187 0.5635973402768082,7.322125591638565 1.4670477748871888,7.750818153041619 2.446838426929459,7.950843846817666 3.4460274251010317,7.910577906708251 4.4065455367324065,7.632360442791797 5.272570940516844,7.132360442791796 5.99377338786066,6.439636089282195 6.52823921398846,5.5944460037384 6.844907207789932,4.645909561791252 6.925373776506657,3.649152253657043 6.764962495648893,2.6621019910191244 6.372995885788813,1.7421225473602986 5.772253621550833,0.9426797839568004 4.997648659723174,0.31023440836142413 4.09419822511279,-0.11845815304162599 3.114407573070519,-0.31848384681766717 2.1152185748989507,-0.27821790670824775 1.154700463267577,-4.4279178945672015e-07"/>
<polygon class="face_stroke" points="-0.43252772667442263,1.1927239487765067 -1.4317167250622302,1.15245801403298 -0.9669935482633469,2.0379140371905136"/>
<polygon class="face_stroke" points="-1.431716451736653,1.1524579628094869 -1.9661822733255772,1.9976480512234933 -0.9669932749377694,2.0379139859670197"/>
<polygon class="face_stroke" points="-1.43171677646182,1.1524579836127913 -1.115048787754219,0.20392153996506102 -1.0345822243903235,-0.7928357686012739 -1.1949935105487839,-1.7798860303777393 -1.586960125349373,-2.699865471931607 -2.187702393880554,-3.4993082321089752 -2.962307359104595,-4.131753603544535 -3.8657577960171605,-4.56044616009584 -4.845548449133615,-4.7604718486101705 -5.844737447088947,-4.720205903134866 -6.805255557226222,-4.441988434060198 -7.671280958325539,-3.941988429409431 -8.392483401949255,-3.249264072026798 -8.926949223538179,-2.4040739836127925 -9.24361721224578,-1.4555375399650634 -9.324083775609676,-0.45878023139872925 -9.163672489451216,0.5282700303777367 -8.771705874650628,1.4482494719316041 -8.17096360611945,2.2476922321089714 -7.396358640895409,2.8801376035445325 -6.492908203982845,3.3088301600958383 -5.513117550866391,3.5088558486101693 -4.513928552911053,3.468589903134866 -3.553410442773777,3.1903724340601975 -2.687385041674458,2.690372429409429 -1.9661825980507435,1.9976480720267968"/>
<polygon class="face_stroke" points="-1.4317158788638842,1.1524580487222127 -0.4519252284328966,0.9524323470535969 -1.115047892703219,0.2039216042241906"/>
<polygon class="face_stroke" points="-0.45192610729678034,0.9524323957758092 -0.13525812113611596,0.003895951277787024 -1.1150487715671036,0.2039216529464036"/>
<text class="face_text" text-anchor="middle" dominant-baseline="middle" transform="matrix(0.02796489452994124 0 0 0.02796489452994124 0.0 0.0)">0</text>
<text class="face_text" text-anchor="middle" dominant-baseline="middle" transform="matrix(0.02796489452994124 0 0 0.02796489452994124 0.57735 0.0)">51</text>
<text class="face_text" text-anchor="middle" dominant-baseline="middle" transform="matrix(0.02796489452994124 0 0 0.02796489452994124 2.780623 3.81618)">53</text>
<text class="face_text" text-anchor="middle" dominant-baseline="middle" transform="matrix(0.02796489452994124 0 0 0.02796489452994124 -0.943746 1.461032)">3</text>
<text class="face_text" text-anchor="middle" dominant-baseline="middle" transform="matrix(0.02796489452994124 0 0 0.02796489452994124 -1.454964 1.72934)">4</text>
<text class="face_text" text-anchor="middle" dominant-baseline="middle" transform="matrix(0.02796489452994124 0 0 0.02796489452994124 -5.179333 -0.625808)">52</text>
<text class="face_text" text-anchor="middle" dominant-baseline="middle" transform="matrix(0.02796489452994124 0 0 0.02796489452994124 -0.999563 0.769604)">2</text>
<text class="face_text" text-anchor="middle" dominant-baseline="middle" transform="matrix(0.02796489452994124 0 0 0.02796489452994124 -0.567411 0.38675)">1</text>
<rect class="edge_bg" x="0.009025920105774632" y="-0.2796489452994125" width="0.5592978905988248" height="0.5592978905988248"/>
<text class="edge_text" text-anchor="middle" dominant-baseline="middle" transform="matrix(0.02796489452994124 0 0 0.02796489452994124 0.28867486540518705 -3.535250795749691e-17)">0</text>
<rect class="edge_bg" x="0.44203881607596474" y="-0.02964938809121076" width="0.5592978905988248" height="0.5592978905988248"/>
<text class="edge_text" text-anchor="middle" dominant-baseline="middle" transform="matrix(0.02796489452994124 0 0 0.02796489452994124 0.7216877613753772 0.24999955720820166)">6</text>
<rect class="edge_bg" x="-0.9794095827682971" y="1.3356700476840977" width="0.5592978905988248" height="0.5592978905988248"/>
<text class="edge_text" text-anchor="middle" dominant-baseline="middle" transform="matrix(0.02796489452994124 0 0 0.02796489452994124 -0.6997606374688847 1.6153189929835101)">10</text>
<rect class="edge_bg" x="-1.4790038086366235" y="1.315537029088841" width="0.5592978905988248" height="0.5592978905988248"/>
<text class="edge_text" text-anchor="middle" dominant-baseline="middle" transform="matrix(0.02796489452994124 0 0 0.02796489452994124 -1.199354863337211 1.5951859743882535)">11</text>
<rect class="edge_bg" x="-1.9785986325556935" y="1.2954040825203816" width="0.5592978905988248" height="0.5592978905988248"/>
<text class="edge_text" text-anchor="middle" dominant-baseline="middle" transform="matrix(0.02796489452994124 0 0 0.02796489452994124 -1.698949687256281 1.575053027819794)">12</text>
<rect class="edge_bg" x="-1.5530308310829644" y="0.3985408811737893" width="0.5592978905988248" height="0.5592978905988248"/>
<text class="edge_text" text-anchor="middle" dominant-baseline="middle" transform="matrix(0.02796489452994124 0 0 0.02796489452994124 -1.273381885783552 0.6781898264732017)">8</text>
<rect class="edge_bg" x="-1.0631363847313544" y="0.2985280790616941" width="0.5592978905988248" height="0.5592978905988248"/>
<text class="edge_text" text-anchor="middle" dominant-baseline="middle" transform="matrix(0.02796489452994124 0 0 0.02796489452994124 -0.783487439431942 0.5781770243611065)">7</text>
</svg>
