<?xml version="1.0" encoding="utf-8"?>
<svg version="1.1" xmlns="http://www.w3.org/2000/svg" viewBox="-9.52790272638386 -4.647562595807315 18.911953451425163 10.98784919161463" style="enable-background:new -9.52790272638386 -4.647562595807315 18.911953451425163 10.98784919161463;">
<style type="text/css">
  .face_stroke {fill:none; stroke:#000000; stroke-width:0.02; stroke-miterlimit:10;}
  .face_text {fill:#000000; font-family:monospace;}
  .edge_text {fill:#ff0000; font-family:monospace;}
  .edge_bg {fill:#f3f3f3; stroke:#606060; stroke-width:0.01;}
</style>
<polygon class="face_stroke" points="0.288675134594813,-0.5 -0.5773502691896258,-7.07050159149938e-17 0.288675134594813,0.5"/>
<polygon class="face_stroke" points="0.28867552275075337,0.5000000000000009 0.5279911870383103,1.4709418174260502 0.9927143590820791,2.356397843079261 1.6558370173228734,3.1049085912503616 2.4788208832165286,3.6729733379815173 3.413837125901942,4.027578225024054 4.406545999999999,4.148114905279377 5.399254874098055,4.027578225024054 6.334271116783473,3.6729733379815164 7.157254982677128,3.1049085912503602 7.820377640917924,2.3563978430792565 8.28510081296169,1.4709418174260465 8.524416477249247,0.4999999999999914 8.524416477249245,-0.5000000000000077 8.285100812961685,-1.4709418174260618 7.8203776409179095,-2.3563978430792756 7.157254982677113,-3.104908591250374 6.334271116783452,-3.6729733379815275 5.399254874098036,-4.027578225024058 4.406545999999979,-4.148114905279377 3.4138371259019227,-4.027578225024048 2.478820883216514,-3.67297333798151 1.6558370173228578,-3.1049085912503487 0.9927143590820653,-2.3563978430792414 0.527991187038301,-1.4709418174260265 0.2886755227507507,-0.4999999999999773"/>
<polygon class="face_stroke" points="0.2886749261963702,0.49999960925680775 -0.4325275192873951,1.192723964702924 0.5279905930910251,1.470941426040268"/>
<polygon class="face_stroke" points="0.2886755192873952,0.5000000352970762 -0.671842593091025,0.22178257395973167 -0.43252692619637023,1.1927243907431921"/>
<polygon class="face_stroke" points="-0.6718431909879699,0.22178217215955542 -1.136566365409296,-0.6636738522458161 -1.7996890256599336,-1.4121845986363517 -2.622672893078913,-1.980249343157696 -3.5576891367164847,-2.3348542276895987 -4.550398011138193,-2.455390905279377 -5.543106884912592,-2.3348542223585103 -6.4781231266458486,-1.9802493328053428 -7.301106991014183,-1.4121845838643752 -7.9642296472451335,-0.6636738339127113 -8.428952816911346,0.22178219298833768 -8.668268478591807,1.1927240110569821 -8.668268475906686,2.1927240110569794 -8.428952809012033,3.1636658278404393 -7.964229634590708,4.049121852245812 -7.3011069743400725,4.797632598636347 -6.478123106921092,5.365697343157693 -5.543106863283521,5.720302227689597 -4.550397988861812,5.840838905279377 -3.5576891150874115,5.7203022223585105 -2.6226728733541513,5.365697332805342 -1.7996890089858186,4.797632583864375 -1.1365663527548637,4.049121833912706 -0.6718431830886522,3.1636658070116557 -0.4325275214081925,2.192723988943009 -0.43252752409331574,1.19272398894301"/>
<polygon class="face_stroke" points="-1.1365661072967803,-0.6636736042241907 -0.819898121136116,-1.6122100487222129 -1.7996887715671037,-1.4121843470535962"/>
<polygon class="face_stroke" points="-1.1365658788638842,-0.6636739512777872 -0.1567752284328966,-0.8636996529464029 -0.819897892703219,-1.6122103957758092"/>
<polygon class="face_stroke" points="-1.1365657715671036,-0.6636733470535967 -0.47344310729678085,0.08483739577580934 -0.1567751211361157,-0.8636990487222127"/>
<text class="face_text" text-anchor="middle" dominant-baseline="middle" transform="matrix(0.021975698383229263 0 0 0.021975698383229263 0.0 0.0)">0</text>
<text class="face_text" text-anchor="middle" dominant-baseline="middle" transform="matrix(0.021975698383229263 0 0 0.021975698383229263 4.406546 0.0)">52</text>
<text class="face_text" text-anchor="middle" dominant-baseline="middle" transform="matrix(0.021975698383229263 0 0 0.021975698383229263 0.128046 1.054555)">50</text>
<text class="face_text" text-anchor="middle" dominant-baseline="middle" transform="matrix(0.021975698383229263 0 0 0.021975698383229263 -0.271898 0.638169)">51</text>
<text class="face_text" text-anchor="middle" dominant-baseline="middle" transform="matrix(0.021975698383229263 0 0 0.021975698383229263 -4.550398 1.692724)">53</text>
<text class="face_text" text-anchor="middle" dominant-baseline="middle" transform="matrix(0.021975698383229263 0 0 0.021975698383229263 -1.252051 -1.229356)">3</text>
<text class="face_text" text-anchor="middle" dominant-baseline="middle" transform="matrix(0.021975698383229263 0 0 0.021975698383229263 -0.704413 -1.046528)">2</text>
<text class="face_text" text-anchor="middle" dominant-baseline="middle" transform="matrix(0.021975698383229263 0 0 0.021975698383229263 -0.588928 -0.480845)">1</text>
<rect class="edge_bg" x="0.06891853891845987" y="-0.2197569838322931" width="0.4395139676645852" height="0.4395139676645852"/>
<text class="edge_text" text-anchor="middle" dominant-baseline="middle" transform="matrix(0.021975698383229263 0 0 0.021975698383229263 0.2886755227507525 -5.042936899266675e-16)">1</text>
<rect class="edge_bg" x="0.18857577581140503" y="0.7657135338162454" width="0.4395139676645852" height="0.4395139676645852"/>
<text class="edge_text" text-anchor="middle" dominant-baseline="middle" transform="matrix(0.021975698383229263 0 0 0.021975698383229263 0.40833275964369764 0.985470517648538)">2</text>
<rect class="edge_bg" x="-0.29168268728678004" y="0.6266052291878416" width="0.4395139676645852" height="0.4395139676645852"/>
<text class="edge_text" text-anchor="middle" dominant-baseline="middle" transform="matrix(0.021975698383229263 0 0 0.021975698383229263 -0.0719257034544874 0.8463622130201341)">3</text>
<rect class="edge_bg" x="-0.7719423413729343" y="0.48749609671899274" width="0.4395139676645852" height="0.4395139676645852"/>
<text class="edge_text" text-anchor="middle" dominant-baseline="middle" transform="matrix(0.021975698383229263 0 0 0.021975698383229263 -0.5521853575406417 0.7072530805512853)">6</text>
<rect class="edge_bg" x="-1.6878844232642347" y="-1.257685959471186" width="0.4395139676645852" height="0.4395139676645852"/>
<text class="edge_text" text-anchor="middle" dominant-baseline="middle" transform="matrix(0.021975698383229263 0 0 0.021975698383229263 -1.4681274394319421 -1.0379289756388934)">10</text>
<rect class="edge_bg" x="-1.1979888696158445" y="-1.3576991573590906" width="0.4395139676645852" height="0.4395139676645852"/>
<text class="edge_text" text-anchor="middle" dominant-baseline="middle" transform="matrix(0.021975698383229263 0 0 0.021975698383229263 -0.9782318857835518 -1.137942173526798)">9</text>
<rect class="edge_bg" x="-0.8664274301839022" y="-0.9834431817201973" width="0.4395139676645852" height="0.4395139676645852"/>
<text class="edge_text" text-anchor="middle" dominant-baseline="middle" transform="matrix(0.021975698383229263 0 0 0.021975698383229263 -0.6466704463516096 -0.7636861978879047)">7</text>
</svg>
