<?xml version="1.0" encoding="utf-8"?>
<svg version="1.1" xmlns="http://www.w3.org/2000/svg" viewBox="-4.984745824974172 -4.587926395807315 19.071257649948343 9.67585279161463" style="enable-background:new -4.984745824974172 -4.587926395807315 19.071257649948343 9.67585279161463;">
<style type="text/css">
  .face_stroke {fill:none; stroke:#000000; stroke-width:0.02; stroke-miterlimit:10;}
  .face_text {fill:#000000; font-family:monospace;}
  .edge_text {fill:#ff0000; font-family:monospace;}
  .edge_bg {fill:#f3f3f3; stroke:#606060; stroke-width:0.01;}
</style>
<polygon class="face_stroke" points="4.117870477249246,-0.5 3.878554812961689,-1.4709418174260518 3.41383164091792,-2.356397843079262 2.7507089826771254,-3.104908591250363 1.927725116783469,-3.672973337981518 0.9927088740980534,-4.027578225024055 2.5399878206229077e-16,-4.148114905279377 -0.9927088740980538,-4.027578225024055 -1.9277251167834686,-3.6729733379815186 -2.750708982677123,-3.1049085912503647 -3.4138316409179192,-2.356397843079263 -3.878554812961688,-1.4709418174260547 -4.117870477249246,-0.5000000000000037 -4.117870477249247,0.49999999999999534 -3.8785548129616902,1.4709418174260485 -3.4138316409179237,2.3563978430792565 -2.7507089826771294,3.1049085912503593 -1.9277251167834744,3.6729733379815155 -0.9927088740980574,4.027578225024054 -4.446262487492444e-15,4.148114905279377 0.9927088740980523,4.027578225024055 1.9277251167834666,3.6729733379815195 2.7507089826771254,3.104908591250363 3.413831640917922,2.3563978430792596 3.87855481296169,1.4709418174260498 4.117870477249247,0.4999999999999914"/>
<polygon class="face_stroke" points="4.1178708654051865,0.4999999999999999 4.983896269189626,1.414100318299876e-16 4.117870865405187,-0.5000000000000003"/>
<polygon class="face_stroke" points="4.117870730810374,0.49999999999999994 4.983896134594813,1.0 4.983896134594813,-1.1102230246251565e-16"/>
<polygon class="face_stroke" points="4.983895522750753,1.0000000000000009 5.22321118703831,1.9709418174260502 5.687934359082079,2.856397843079261 6.351057017322873,3.6049085912503616 7.174040883216529,4.172973337981517 8.109057125901941,4.527578225024054 9.101766,4.648114905279377 10.094474874098056,4.527578225024054 11.029491116783472,4.172973337981516 11.852474982677128,3.6049085912503602 12.515597640917925,2.8563978430792565 12.98032081296169,1.9709418174260465 13.219636477249246,0.9999999999999913 13.219636477249246,-7.66053886991358e-15 12.980320812961684,-0.9709418174260618 12.51559764091791,-1.8563978430792756 11.852474982677112,-2.604908591250374 11.02949111678345,-3.1729733379815275 10.094474874098037,-3.527578225024058 9.101765999999978,-3.6481149052793773 8.109057125901924,-3.5275782250240484 7.174040883216514,-3.17297333798151 6.351057017322858,-2.6049085912503487 5.687934359082066,-1.8563978430792414 5.2232111870383005,-0.9709418174260265 4.983895522750751,2.270406085358445e-14"/>
<polygon class="face_stroke" points="5.687935107296781,2.8563976042241905 5.371267121136116,3.8049340487222123 6.3510577715671035,3.6049083470535965"/>
<polygon class="face_stroke" points="5.687934878863884,2.856397951277787 4.7081442284328965,3.0564236529464033 5.371266892703219,3.8049343957758093"/>
<polygon class="face_stroke" points="5.687934771567104,2.8563973470535964 5.024812107296781,2.107886604224191 4.708144121136116,3.0564230487222126"/>
<polygon class="face_stroke" points="5.0248118788638845,2.107886951277787 4.045021228432897,2.307912652946403 4.7081438927032195,3.056423395775809"/>
<polygon class="face_stroke" points="5.024811771567103,2.1078873470535964 4.3616891072967805,1.3593766042241908 4.045021121136116,2.307913048722213"/>
<polygon class="face_stroke" points="4.361689878863884,1.3593759512777872 3.3818992284328964,1.5594016529464032 4.045021892703219,2.3079123957758094"/>
<text class="face_text" text-anchor="middle" dominant-baseline="middle" transform="matrix(0.01935170558322926 0 0 0.01935170558322926 0.0 0.0)">52</text>
<text class="face_text" text-anchor="middle" dominant-baseline="middle" transform="matrix(0.01935170558322926 0 0 0.01935170558322926 4.406546 0.0)">0</text>
<text class="face_text" text-anchor="middle" dominant-baseline="middle" transform="matrix(0.01935170558322926 0 0 0.01935170558322926 4.695221 0.5)">1</text>
<text class="face_text" text-anchor="middle" dominant-baseline="middle" transform="matrix(0.01935170558322926 0 0 0.01935170558322926 9.101766 0.5)">53</text>
<text class="face_text" text-anchor="middle" dominant-baseline="middle" transform="matrix(0.01935170558322926 0 0 0.01935170558322926 5.80342 3.42208)">7</text>
<text class="face_text" text-anchor="middle" dominant-baseline="middle" transform="matrix(0.01935170558322926 0 0 0.01935170558322926 5.255782 3.239252)">6</text>
<text class="face_text" text-anchor="middle" dominant-baseline="middle" transform="matrix(0.01935170558322926 0 0 0.01935170558322926 5.140297 2.673569)">5</text>
<text class="face_text" text-anchor="middle" dominant-baseline="middle" transform="matrix(0.01935170558322926 0 0 0.01935170558322926 4.592659 2.490741)">4</text>
<text class="face_text" text-anchor="middle" dominant-baseline="middle" transform="matrix(0.01935170558322926 0 0 0.01935170558322926 4.477174 1.925059)">3</text>
<text class="face_text" text-anchor="middle" dominant-baseline="middle" transform="matrix(0.01935170558322926 0 0 0.01935170558322926 3.929537 1.74223)">2</text>
<rect class="edge_bg" x="3.924353809572894" y="-0.19351705583229264" width="0.38703411166458523" height="0.38703411166458523"/>
<text class="edge_text" text-anchor="middle" dominant-baseline="middle" transform="matrix(0.01935170558322926 0 0 0.01935170558322926 4.1178708654051865 -3.535250795749691e-17)">1</text>
<rect class="edge_bg" x="4.357366376870301" y="0.05648294416770727" width="0.38703411166458523" height="0.38703411166458523"/>
<text class="edge_text" text-anchor="middle" dominant-baseline="middle" transform="matrix(0.01935170558322926 0 0 0.01935170558322926 4.5508834327025935 0.2499999999999999)">4</text>
<rect class="edge_bg" x="4.79037846691846" y="0.3064829441677069" width="0.38703411166458523" height="0.38703411166458523"/>
<text class="edge_text" text-anchor="middle" dominant-baseline="middle" transform="matrix(0.01935170558322926 0 0 0.01935170558322926 4.983895522750752 0.4999999999999995)">5</text>
<rect class="edge_bg" x="5.825979383599649" y="3.037135919806601" width="0.38703411166458523" height="0.38703411166458523"/>
<text class="edge_text" text-anchor="middle" dominant-baseline="middle" transform="matrix(0.01935170558322926 0 0 0.01935170558322926 6.019496439431942 3.2306529756388933)">18</text>
<rect class="edge_bg" x="5.336083829951259" y="3.1371491176945057" width="0.38703411166458523" height="0.38703411166458523"/>
<text class="edge_text" text-anchor="middle" dominant-baseline="middle" transform="matrix(0.01935170558322926 0 0 0.01935170558322926 5.529600885783552 3.330666173526798)">17</text>
<rect class="edge_bg" x="5.004522390519318" y="2.762893142055612" width="0.38703411166458523" height="0.38703411166458523"/>
<text class="edge_text" text-anchor="middle" dominant-baseline="middle" transform="matrix(0.01935170558322926 0 0 0.01935170558322926 5.19803944635161 2.9564101978879047)">15</text>
<rect class="edge_bg" x="4.6729608299512595" y="2.3886381176945055" width="0.38703411166458523" height="0.38703411166458523"/>
<text class="edge_text" text-anchor="middle" dominant-baseline="middle" transform="matrix(0.01935170558322926 0 0 0.01935170558322926 4.866477885783552 2.582155173526798)">13</text>
<rect class="edge_bg" x="4.341399390519317" y="2.014383142055612" width="0.38703411166458523" height="0.38703411166458523"/>
<text class="edge_text" text-anchor="middle" dominant-baseline="middle" transform="matrix(0.01935170558322926 0 0 0.01935170558322926 4.53491644635161 2.2079001978879047)">11</text>
<rect class="edge_bg" x="4.009838829951259" y="1.6401271176945054" width="0.38703411166458523" height="0.38703411166458523"/>
<text class="edge_text" text-anchor="middle" dominant-baseline="middle" transform="matrix(0.01935170558322926 0 0 0.01935170558322926 4.203355885783552 1.833644173526798)">9</text>
</svg>
