<?xml version="1.0" encoding="utf-8"?>
<svg version="1.1" xmlns="http://www.w3.org/2000/svg" viewBox="-4.984745824974172 -4.600430817779798 19.071257649948343 9.688952662252468" style="enable-background:new -4.984745824974172 -4.600430817779798 19.071257649948343 9.688952662252468;">
<style type="text/css">
  .face_stroke {fill:none; stroke:#000000; stroke-width:0.02; stroke-miterlimit:10;}
  .face_text {fill:#000000; font-family:monospace;}
  .edge_text {fill:#ff0000; font-family:monospace;}
  .edge_bg {fill:#f3f3f3; stroke:#606060; stroke-width:0.01;}
</style>
<polygon class="face_stroke" points="4.117870477249246,-0.5 3.878554812961689,-1.4709418174260518 3.41383164091792,-2.356397843079262 2.7507089826771254,-3.104908591250363 1.927725116783469,-3.672973337981518 0.9927088740980534,-4.027578225024055 2.5399878206229077e-16,-4.148114905279377 -0.9927088740980538,-4.027578225024055 -1.9277251167834686,-3.6729733379815186 -2.750708982677123,-3.1049085912503647 -3.4138316409179192,-2.356397843079263 -3.878554812961688,-1.4709418174260547 -4.117870477249246,-0.5000000000000037 -4.117870477249247,0.49999999999999534 -3.8785548129616902,1.4709418174260485 -3.4138316409179237,2.3563978430792565 -2.7507089826771294,3.1049085912503593 -1.9277251167834744,3.6729733379815155 -0.9927088740980574,4.027578225024054 -4.446262487492444e-15,4.148114905279377 0.9927088740980523,4.027578225024055 1.9277251167834666,3.6729733379815195 2.7507089826771254,3.104908591250363 3.413831640917922,2.3563978430792596 3.87855481296169,1.4709418174260498 4.117870477249247,0.4999999999999914"/>
<polygon class="face_stroke" points="4.1178708654051865,0.4999999999999999 4.983896269189626,1.414100318299876e-16 4.117870865405187,-0.5000000000000003"/>
<polygon class="face_stroke" points="4.117870730810374,0.49999999999999994 4.983896134594813,1.0 4.983896134594813,-1.1102230246251565e-16"/>
<polygon class="face_stroke" points="4.983895522750753,1.0000000000000009 5.22321118703831,1.9709418174260502 5.687934359082079,2.856397843079261 6.351057017322873,3.6049085912503616 7.174040883216529,4.172973337981517 8.109057125901941,4.527578225024054 9.101766,4.648114905279377 10.094474874098056,4.527578225024054 11.029491116783472,4.172973337981516 11.852474982677128,3.6049085912503602 12.515597640917925,2.8563978430792565 12.98032081296169,1.9709418174260465 13.219636477249246,0.9999999999999913 13.219636477249246,-7.66053886991358e-15 12.980320812961684,-0.9709418174260618 12.51559764091791,-1.8563978430792756 11.852474982677112,-2.604908591250374 11.02949111678345,-3.1729733379815275 10.094474874098037,-3.527578225024058 9.101765999999978,-3.6481149052793773 8.109057125901924,-3.5275782250240484 7.174040883216514,-3.17297333798151 6.351057017322858,-2.6049085912503487 5.687934359082066,-1.8563978430792414 5.2232111870383005,-0.9709418174260265 4.983895522750751,2.270406085358445e-14"/>
<polygon class="face_stroke" points="8.109057735210708,-3.52757850611099 7.334452770835763,-4.160023878586504 7.174041493953529,-3.1729736153025057"/>
<polygon class="face_stroke" points="7.334452506046471,-4.160023384697494 6.399436264789292,-3.80541849388901 7.174041229164237,-3.1729731214134955"/>
<polygon class="face_stroke" points="6.399436770835763,-3.8054188785865044 6.239025493953529,-2.818368615302506 7.174041735210707,-3.17297350611099"/>
<polygon class="face_stroke" points="6.399436506046471,-3.8054183846974943 5.464420264789292,-3.4508134938890103 6.239025229164237,-2.8183681214134957"/>
<polygon class="face_stroke" points="5.464419770835764,-3.4508138785865046 5.304008493953529,-2.463763615302506 6.239024735210708,-2.81836850611099"/>
<polygon class="face_stroke" points="5.464420506046471,-3.450813384697494 4.529404264789292,-3.09620849388901 5.304009229164237,-2.4637631214134954"/>
<polygon class="face_stroke" points="4.5294037708357635,-3.0962088785865043 4.368992493953529,-2.1091586153025057 5.304008735210708,-2.4637635061109897"/>
<polygon class="face_stroke" points="4.529403506046471,-3.0962093846974943 3.594387264789292,-2.7416044938890103 4.3689922291642365,-2.1091591214134957"/>
<polygon class="face_stroke" points="3.594387770835764,-2.7416038785865045 3.4339764939535287,-1.7545536153025059 4.368992735210708,-2.10915850611099"/>
<text class="face_text" text-anchor="middle" dominant-baseline="middle" transform="matrix(0.019377905324504938 0 0 0.019377905324504938 0.0 0.0)">52</text>
<text class="face_text" text-anchor="middle" dominant-baseline="middle" transform="matrix(0.019377905324504938 0 0 0.019377905324504938 4.406546 0.0)">0</text>
<text class="face_text" text-anchor="middle" dominant-baseline="middle" transform="matrix(0.019377905324504938 0 0 0.019377905324504938 4.695221 0.5)">1</text>
<text class="face_text" text-anchor="middle" dominant-baseline="middle" transform="matrix(0.019377905324504938 0 0 0.019377905324504938 9.101766 0.5)">53</text>
<text class="face_text" text-anchor="middle" dominant-baseline="middle" transform="matrix(0.019377905324504938 0 0 0.019377905324504938 7.539184 -3.620192)">43</text>
<text class="face_text" text-anchor="middle" dominant-baseline="middle" transform="matrix(0.019377905324504938 0 0 0.019377905324504938 6.96931 -3.712805)">44</text>
<text class="face_text" text-anchor="middle" dominant-baseline="middle" transform="matrix(0.019377905324504938 0 0 0.019377905324504938 6.604168 -3.265587)">45</text>
<text class="face_text" text-anchor="middle" dominant-baseline="middle" transform="matrix(0.019377905324504938 0 0 0.019377905324504938 6.034294 -3.3582)">46</text>
<text class="face_text" text-anchor="middle" dominant-baseline="middle" transform="matrix(0.019377905324504938 0 0 0.019377905324504938 5.669151 -2.910982)">47</text>
<text class="face_text" text-anchor="middle" dominant-baseline="middle" transform="matrix(0.019377905324504938 0 0 0.019377905324504938 5.099278 -3.003595)">48</text>
<text class="face_text" text-anchor="middle" dominant-baseline="middle" transform="matrix(0.019377905324504938 0 0 0.019377905324504938 4.734135 -2.556377)">49</text>
<text class="face_text" text-anchor="middle" dominant-baseline="middle" transform="matrix(0.019377905324504938 0 0 0.019377905324504938 4.164261 -2.648991)">50</text>
<text class="face_text" text-anchor="middle" dominant-baseline="middle" transform="matrix(0.019377905324504938 0 0 0.019377905324504938 3.799119 -2.201772)">51</text>
<rect class="edge_bg" x="3.924091812160137" y="-0.1937790532450494" width="0.38755810649009875" height="0.38755810649009875"/>
<text class="edge_text" text-anchor="middle" dominant-baseline="middle" transform="matrix(0.019377905324504938 0 0 0.019377905324504938 4.1178708654051865 -3.535250795749691e-17)">1</text>
<rect class="edge_bg" x="4.357104379457544" y="0.05622094675495051" width="0.38755810649009875" height="0.38755810649009875"/>
<text class="edge_text" text-anchor="middle" dominant-baseline="middle" transform="matrix(0.019377905324504938 0 0 0.019377905324504938 4.5508834327025935 0.2499999999999999)">4</text>
<rect class="edge_bg" x="4.790116469505703" y="0.30622094675495015" width="0.38755810649009875" height="0.38755810649009875"/>
<text class="edge_text" text-anchor="middle" dominant-baseline="middle" transform="matrix(0.019377905324504938 0 0 0.019377905324504938 4.983895522750752 0.4999999999999995)">5</text>
<rect class="edge_bg" x="7.447770561337069" y="-3.544055113951797" width="0.38755810649009875" height="0.38755810649009875"/>
<text class="edge_text" text-anchor="middle" dominant-baseline="middle" transform="matrix(0.019377905324504938 0 0 0.019377905324504938 7.641549614582118 -3.3502760607067477)">90</text>
<rect class="edge_bg" x="7.060467814360305" y="-3.8602773063005444" width="0.38755810649009875" height="0.38755810649009875"/>
<text class="edge_text" text-anchor="middle" dominant-baseline="middle" transform="matrix(0.019377905324504938 0 0 0.019377905324504938 7.254246867605354 -3.666498253055495)">91</text>
<rect class="edge_bg" x="6.592960199778186" y="-3.6829752455937967" width="0.38755810649009875" height="0.38755810649009875"/>
<text class="edge_text" text-anchor="middle" dominant-baseline="middle" transform="matrix(0.019377905324504938 0 0 0.019377905324504938 6.786739253023235 -3.4891961923487473)">93</text>
<rect class="edge_bg" x="6.1254518143603045" y="-3.5056723063005446" width="0.38755810649009875" height="0.38755810649009875"/>
<text class="edge_text" text-anchor="middle" dominant-baseline="middle" transform="matrix(0.019377905324504938 0 0 0.019377905324504938 6.319230867605354 -3.311893253055495)">95</text>
<rect class="edge_bg" x="5.657943199778186" y="-3.328370245593797" width="0.38755810649009875" height="0.38755810649009875"/>
<text class="edge_text" text-anchor="middle" dominant-baseline="middle" transform="matrix(0.019377905324504938 0 0 0.019377905324504938 5.851722253023236 -3.1345911923487475)">97</text>
<rect class="edge_bg" x="5.190435814360304" y="-3.1510673063005443" width="0.38755810649009875" height="0.38755810649009875"/>
<text class="edge_text" text-anchor="middle" dominant-baseline="middle" transform="matrix(0.019377905324504938 0 0 0.019377905324504938 5.384214867605354 -2.957288253055495)">99</text>
<rect class="edge_bg" x="4.722927199778186" y="-2.9737652455937966" width="0.38755810649009875" height="0.38755810649009875"/>
<text class="edge_text" text-anchor="middle" dominant-baseline="middle" transform="matrix(0.019377905324504938 0 0 0.019377905324504938 4.916706253023236 -2.779986192348747)">101</text>
<rect class="edge_bg" x="4.255418814360304" y="-2.7964633063005446" width="0.38755810649009875" height="0.38755810649009875"/>
<text class="edge_text" text-anchor="middle" dominant-baseline="middle" transform="matrix(0.019377905324504938 0 0 0.019377905324504938 4.449197867605354 -2.6026842530554952)">103</text>
<rect class="edge_bg" x="3.7879111997781862" y="-2.619160245593797" width="0.38755810649009875" height="0.38755810649009875"/>
<text class="edge_text" text-anchor="middle" dominant-baseline="middle" transform="matrix(0.019377905324504938 0 0 0.019377905324504938 3.9816902530232356 -2.4253811923487474)">3</text>
</svg>
