<?xml version="1.0" encoding="utf-8"?>
<svg version="1.1" xmlns="http://www.w3.org/2000/svg" viewBox="-4.984745824974172 -4.587926395807315 19.071257649948343 9.67585279161463" style="enable-background:new -4.984745824974172 -4.587926395807315 19.071257649948343 9.67585279161463;">
<style type="text/css">
  .face_stroke {fill:none; stroke:#000000; stroke-width:0.02; stroke-miterlimit:10;}
  .face_text {fill:#000000; font-family:monospace;}
  .edge_text {fill:#ff0000; font-family:monospace;}
  .edge_bg {fill:#f3f3f3; stroke:#606060; stroke-width:0.01;}
</style>
<polygon class="face_stroke" points="4.117870477249246,-0.5 3.878554812961689,-1.4709418174260518 3.41383164091792,-2.356397843079262 2.7507089826771254,-3.104908591250363 1.927725116783469,-3.672973337981518 0.9927088740980534,-4.027578225024055 2.5399878206229077e-16,-4.148114905279377 -0.9927088740980538,-4.027578225024055 -1.9277251167834686,-3.6729733379815186 -2.750708982677123,-3.1049085912503647 -3.4138316409179192,-2.356397843079263 -3.878554812961688,-1.4709418174260547 -4.117870477249246,-0.5000000000000037 -4.117870477249247,0.49999999999999534 -3.8785548129616902,1.4709418174260485 -3.4138316409179237,2.3563978430792565 -2.7507089826771294,3.1049085912503593 -1.9277251167834744,3.6729733379815155 -0.9927088740980574,4.027578225024054 -4.446262487492444e-15,4.148114905279377 0.9927088740980523,4.027578225024055 1.9277251167834666,3.6729733379815195 2.7507089826771254,3.104908591250363 3.413831640917922,2.3563978430792596 3.87855481296169,1.4709418174260498 4.117870477249247,0.4999999999999914"/>
<polygon class="face_stroke" points="4.1178708654051865,0.4999999999999999 4.983896269189626,1.414100318299876e-16 4.117870865405187,-0.5000000000000003"/>
<polygon class="face_stroke" points="4.117870730810374,0.49999999999999994 4.983896134594813,1.0 4.983896134594813,-1.1102230246251565e-16"/>
<polygon class="face_stroke" points="4.983895522750753,1.0000000000000009 5.22321118703831,1.9709418174260502 5.687934359082079,2.856397843079261 6.351057017322873,3.6049085912503616 7.174040883216529,4.172973337981517 8.109057125901941,4.527578225024054 9.101766,4.648114905279377 10.094474874098056,4.527578225024054 11.029491116783472,4.172973337981516 11.852474982677128,3.6049085912503602 12.515597640917925,2.8563978430792565 12.98032081296169,1.9709418174260465 13.219636477249246,0.9999999999999913 13.219636477249246,-7.66053886991358e-15 12.980320812961684,-0.9709418174260618 12.51559764091791,-1.8563978430792756 11.852474982677112,-2.604908591250374 11.02949111678345,-3.1729733379815275 10.094474874098037,-3.527578225024058 9.101765999999978,-3.6481149052793773 8.109057125901924,-3.5275782250240484 7.174040883216514,-3.17297333798151 6.351057017322858,-2.6049085912503487 5.687934359082066,-1.8563978430792414 5.2232111870383005,-0.9709418174260265 4.983895522750751,2.270406085358445e-14"/>
<polygon class="face_stroke" points="7.174041099856154,-3.1729733989724394 6.270590662368042,-3.6016659543108074 6.351057237775805,-2.6049086467167535"/>
<polygon class="face_stroke" points="6.270590762224195,-3.6016663532832465 5.447606900143846,-3.0336016010275606 6.351057337631958,-2.6049090456891926"/>
<polygon class="face_stroke" points="5.447606662368042,-3.033600954310807 5.528073237775804,-2.036843646716753 6.351057099856153,-2.604908398972439"/>
<polygon class="face_stroke" points="5.447606762224195,-3.0336013532832466 4.624622900143846,-2.465536601027561 5.528073337631958,-2.0368440456891928"/>
<polygon class="face_stroke" points="4.624622662368042,-2.4655359543108073 4.7050892377758045,-1.4687786467167534 5.528073099856153,-2.0368433989724393"/>
<polygon class="face_stroke" points="4.624622762224195,-2.4655363532832464 3.8016389001438466,-1.8974716010275607 4.705089337631958,-1.4687790456891927"/>
<polygon class="face_stroke" points="3.8016396623680415,-1.8974719543108072 3.8821062377758047,-0.9007146467167536 4.705090099856154,-1.4687793989724394"/>
<text class="face_text" text-anchor="middle" dominant-baseline="middle" transform="matrix(0.01935170558322926 0 0 0.01935170558322926 0.0 0.0)">52</text>
<text class="face_text" text-anchor="middle" dominant-baseline="middle" transform="matrix(0.01935170558322926 0 0 0.01935170558322926 4.406546 0.0)">0</text>
<text class="face_text" text-anchor="middle" dominant-baseline="middle" transform="matrix(0.01935170558322926 0 0 0.01935170558322926 4.695221 0.5)">1</text>
<text class="face_text" text-anchor="middle" dominant-baseline="middle" transform="matrix(0.01935170558322926 0 0 0.01935170558322926 9.101766 0.5)">53</text>
<text class="face_text" text-anchor="middle" dominant-baseline="middle" transform="matrix(0.01935170558322926 0 0 0.01935170558322926 6.598563 -3.126516)">45</text>
<text class="face_text" text-anchor="middle" dominant-baseline="middle" transform="matrix(0.01935170558322926 0 0 0.01935170558322926 6.023085 -3.080059)">46</text>
<text class="face_text" text-anchor="middle" dominant-baseline="middle" transform="matrix(0.01935170558322926 0 0 0.01935170558322926 5.775579 -2.558451)">47</text>
<text class="face_text" text-anchor="middle" dominant-baseline="middle" transform="matrix(0.01935170558322926 0 0 0.01935170558322926 5.200101 -2.511994)">48</text>
<text class="face_text" text-anchor="middle" dominant-baseline="middle" transform="matrix(0.01935170558322926 0 0 0.01935170558322926 4.952595 -1.990386)">49</text>
<text class="face_text" text-anchor="middle" dominant-baseline="middle" transform="matrix(0.01935170558322926 0 0 0.01935170558322926 4.377117 -1.943929)">50</text>
<text class="face_text" text-anchor="middle" dominant-baseline="middle" transform="matrix(0.01935170558322926 0 0 0.01935170558322926 4.129612 -1.422322)">51</text>
<rect class="edge_bg" x="3.924353809572894" y="-0.19351705583229264" width="0.38703411166458523" height="0.38703411166458523"/>
<text class="edge_text" text-anchor="middle" dominant-baseline="middle" transform="matrix(0.01935170558322926 0 0 0.01935170558322926 4.1178708654051865 -3.535250795749691e-17)">1</text>
<rect class="edge_bg" x="4.357366376870301" y="0.05648294416770727" width="0.38703411166458523" height="0.38703411166458523"/>
<text class="edge_text" text-anchor="middle" dominant-baseline="middle" transform="matrix(0.01935170558322926 0 0 0.01935170558322926 4.5508834327025935 0.2499999999999999)">4</text>
<rect class="edge_bg" x="4.79037846691846" y="0.3064829441677069" width="0.38703411166458523" height="0.38703411166458523"/>
<text class="edge_text" text-anchor="middle" dominant-baseline="middle" transform="matrix(0.01935170558322926 0 0 0.01935170558322926 4.983895522750752 0.4999999999999995)">5</text>
<rect class="edge_bg" x="6.569032112983687" y="-3.082458078676889" width="0.38703411166458523" height="0.38703411166458523"/>
<text class="edge_text" text-anchor="middle" dominant-baseline="middle" transform="matrix(0.01935170558322926 0 0 0.01935170558322926 6.76254916881598 -2.8889410228445964)">94</text>
<rect class="edge_bg" x="6.1173069940957845" y="-3.296804755318512" width="0.38703411166458523" height="0.38703411166458523"/>
<text class="edge_text" text-anchor="middle" dominant-baseline="middle" transform="matrix(0.01935170558322926 0 0 0.01935170558322926 6.310824049928077 -3.1032876994862195)">95</text>
<rect class="edge_bg" x="5.705814825279805" y="-3.0127717324739156" width="0.38703411166458523" height="0.38703411166458523"/>
<text class="edge_text" text-anchor="middle" dominant-baseline="middle" transform="matrix(0.01935170558322926 0 0 0.01935170558322926 5.899331881112097 -2.819254676641623)">97</text>
<rect class="edge_bg" x="5.2943229940957846" y="-2.728739755318512" width="0.38703411166458523" height="0.38703411166458523"/>
<text class="edge_text" text-anchor="middle" dominant-baseline="middle" transform="matrix(0.01935170558322926 0 0 0.01935170558322926 5.487840049928077 -2.5352226994862197)">99</text>
<rect class="edge_bg" x="4.882830825279805" y="-2.444706732473916" width="0.38703411166458523" height="0.38703411166458523"/>
<text class="edge_text" text-anchor="middle" dominant-baseline="middle" transform="matrix(0.01935170558322926 0 0 0.01935170558322926 5.076347881112097 -2.2511896766416233)">101</text>
<rect class="edge_bg" x="4.471338994095785" y="-2.1606747553185124" width="0.38703411166458523" height="0.38703411166458523"/>
<text class="edge_text" text-anchor="middle" dominant-baseline="middle" transform="matrix(0.01935170558322926 0 0 0.01935170558322926 4.664856049928077 -1.9671576994862197)">103</text>
<rect class="edge_bg" x="4.059847825279805" y="-1.876642732473916" width="0.38703411166458523" height="0.38703411166458523"/>
<text class="edge_text" text-anchor="middle" dominant-baseline="middle" transform="matrix(0.01935170558322926 0 0 0.01935170558322926 4.253364881112097 -1.6831256766416234)">3</text>
</svg>
