<?xml version="1.0" encoding="utf-8"?>
<svg version="1.1" xmlns="http://www.w3.org/2000/svg" viewBox="-2.5221438815281156 -2.1698720074188977 4.556787389398258 4.217931370401605" style="enable-background:new -2.5221438815281156 -2.1698720074188977 4.556787389398258 4.217931370401605;">
<style type="text/css">
  .face_stroke {fill:none; stroke:#000000; stroke-width:0.02; stroke-miterlimit:10;}
  .face_text {fill:#000000; font-family:monospace;}
  .edge_text {fill:#ff0000; font-family:monospace;}
  .edge_bg {fill:#f3f3f3; stroke:#606060; stroke-width:0.01;}
</style>
<polygon class="face_stroke" points="0.288675134594813,-0.5 -0.5773502691896258,-7.07050159149938e-17 0.288675134594813,0.5"/>
<polygon class="face_stroke" points="0.2886750397644132,0.4999999999999999 1.2397315560595668,0.8090169943749475 1.82751680835204,2.0834935792808685e-16 1.239731556059567,-0.8090169943749473 0.28867503976441344,-0.5000000000000001"/>
<polygon class="face_stroke" points="1.2397317805908492,-0.8090171293386964 0.4965869551134551,-1.4781477356975548 0.2886752642956955,-0.5000001349637491"/>
<polygon class="face_stroke" points="0.4965871820100126,-1.4781478542188247 -0.36943822177442587,-1.9781478542188247 -1.1125830472518201,-1.3090172478599664 -0.7058464041760204,-0.3954717902173659 0.288675491192253,-0.5000002534850188"/>
<polygon class="face_stroke" points="-1.1125835958239798,-1.3090172097826343 -2.1071054911922533,-1.204488746514981 -2.315017182010013,-0.2263411457811757 -1.4489917782255746,0.27365885421882463 -0.7058469527481799,-0.39547175214003316"/>
<polygon class="face_stroke" points="-2.3150171345948127,-0.22634100000000013 -2.315017134594813,0.7736589999999999 -1.4489917308103744,0.27365900000000015"/>
<polygon class="face_stroke" points="-2.3150171820100125,0.7736591457811752 -2.1071054911922538,1.7518067465149807 -1.1125835958239798,1.8563352097826344 -0.7058469527481797,0.9427897521400344 -1.4489917782255741,0.27365914578117556"/>
<polygon class="face_stroke" points="-0.705846955113455,0.9427897356975548 -0.4979352642956956,-0.035357865036251046 -1.4489917805908492,0.2736591293386964"/>
</svg>
