<?xml version="1.0" encoding="utf-8"?>
<svg version="1.1" xmlns="http://www.w3.org/2000/svg" viewBox="-8.574267414101952 -9.704786319166425 14.867828829107985 20.35182663833285" style="enable-background:new -8.574267414101952 -9.704786319166425 14.867828829107985 20.35182663833285;">
<style type="text/css">
  .face_stroke {fill:none; stroke:#000000; stroke-width:0.02; stroke-miterlimit:10;}
  .face_text {fill:#000000; font-family:monospace;}
  .edge_text {fill:#ff0000; font-family:monospace;}
  .edge_bg {fill:#f3f3f3; stroke:#606060; stroke-width:0.01;}
</style>
<polygon class="face_stroke" points="0.5000000000000001,-0.5 -0.5,-0.5000000000000001 -0.5000000000000001,0.5 0.4999999999999999,0.5000000000000001"/>
<polygon class="face_stroke" points="0.4999999999999999,0.5 1.5,0.5000000000000001 1.5000000000000007,-0.49999999999999944 0.49999999999999967,-0.4999999999999998"/>
<polygon class="face_stroke" points="0.5000000000000002,0.499999922136662 -0.47662055571008577,0.7149703623476862 -1.384195975381044,1.1348594639079508 -2.180289041086686,1.7400336791017148 -2.827675325868514,2.5021957342293515 -3.2960837665683043,3.385707778675375 -3.5636121050975254,4.349257771194598 -3.617751013682943,5.347791185045724 -3.455969017130178,6.334617707587248 -3.0858308617902637,7.26359442740404 -2.524643796427879,8.091283425560931 -1.798648304504749,8.778982884414354 -0.9417911283371558,9.294536741591376 0.005862042845643289,9.613838271727353 1.0000000000000033,9.721957290151295 1.9941379571543631,9.613838271727353 2.9417911283371616,9.294536741591374 3.798648304504751,8.778982884414352 4.524643796427882,8.09128342556093 5.085830861790263,7.263594427404041 5.455969017130177,6.334617707587254 5.617751013682942,5.347791185045732 5.563612105097527,4.349257771194607 5.296083766568308,3.3857077786753838 4.82767532586852,2.5021957342293595 4.180289041086697,1.7400336791017246 3.3841959753810578,1.1348594639079592 2.476620555710106,0.7149703623476924 1.50000000000002,0.4999999221366638"/>
<polygon class="face_stroke" points="-0.4766207402649131,0.7149701614521007 -0.8965098385478991,-0.19260525973508685 -1.8040852597350867,0.227283838547899 -1.3841961614521008,1.1348592597350868"/>
<polygon class="face_stroke" points="-0.8965100389278806,-0.19260545529855655 -0.10041697103693714,-0.797779667617609 0.5469693164970777,-1.5599417204075166 1.0153777603872531,-2.443453763162104 1.2829061023958777,-3.407003754715275 1.3370450145870252,-4.405537168370902 1.1752630215977171,-5.392363691496627 0.8051248696123623,-6.321340412649997 0.24393780723878633,-7.1490294128333485 -0.4820576822010443,-7.83672887430836 -1.3389148565069553,-8.352282734579516 -2.2865680265367505,-8.671584268137495 -3.280705983300689,-8.779703290151296 -4.274843940845469,-8.671584275317212 -5.2224971131812765,-8.352282748603233 -6.079354291210544,-7.836728894520345 -6.8053497856169765,-7.14902943828851 -7.3665368539681655,-6.321340442158081 -7.736675012662639,-5.392363723677867 -7.898457012778861,-4.4055372017205405 -7.8443181077991735,-3.407003787673917 -7.576789772749356,-2.4434537941886445 -7.108381335239949,-1.5599417480511844 -6.460995053210308,-0.7977796905858194 -5.664901989689964,-0.19260547251734206 -4.757326571535236,0.22728363232019966 -3.780706016601413,0.44225407605782596 -2.780706016601417,0.4422540796688512 -1.8040854601150664,0.22728364298442916"/>
<text class="face_text" text-anchor="middle" dominant-baseline="middle" transform="matrix(0.02973565765821597 0 0 0.02973565765821597 0.0 0.0)">0</text>
<text class="face_text" text-anchor="middle" dominant-baseline="middle" transform="matrix(0.02973565765821597 0 0 0.02973565765821597 1.0 0.0)">28</text>
<text class="face_text" text-anchor="middle" dominant-baseline="middle" transform="matrix(0.02973565765821597 0 0 0.02973565765821597 1.0 5.097424)">30</text>
<text class="face_text" text-anchor="middle" dominant-baseline="middle" transform="matrix(0.02973565765821597 0 0 0.02973565765821597 -1.140353 0.471127)">1</text>
<text class="face_text" text-anchor="middle" dominant-baseline="middle" transform="matrix(0.02973565765821597 0 0 0.02973565765821597 -3.280706 -4.15517)">29</text>
<rect class="edge_bg" x="0.2026434234178402" y="-0.29735657658215975" width="0.5947131531643194" height="0.5947131531643194"/>
<text class="edge_text" text-anchor="middle" dominant-baseline="middle" transform="matrix(0.02973565765821597 0 0 0.02973565765821597 0.4999999999999999 -6.123233995736767e-17)">0</text>
<rect class="edge_bg" x="0.7026434234178405" y="0.2026433455545023" width="0.5947131531643194" height="0.5947131531643194"/>
<text class="edge_text" text-anchor="middle" dominant-baseline="middle" transform="matrix(0.02973565765821597 0 0 0.02973565765821597 1.0000000000000002 0.499999922136662)">4</text>
<rect class="edge_bg" x="-1.2277650274406666" y="0.6275581340114342" width="0.5947131531643194" height="0.5947131531643194"/>
<text class="edge_text" text-anchor="middle" dominant-baseline="middle" transform="matrix(0.02973565765821597 0 0 0.02973565765821597 -0.9304084508585069 0.924914710593594)">7</text>
<rect class="edge_bg" x="-1.647654326103634" y="-0.28001748273922294" width="0.5947131531643194" height="0.5947131531643194"/>
<text class="edge_text" text-anchor="middle" dominant-baseline="middle" transform="matrix(0.02973565765821597 0 0 0.02973565765821597 -1.3502977495214743 0.017339093842936748)">6</text>
</svg>
