<?xml version="1.0" encoding="utf-8"?>
<svg version="1.1" xmlns="http://www.w3.org/2000/svg" viewBox="-9.557668063627307 -8.511413019166424 16.94567712861074 19.101626038332846" style="enable-background:new -9.557668063627307 -8.511413019166424 16.94567712861074 19.101626038332846;">
<style type="text/css">
  .face_stroke {fill:none; stroke:#000000; stroke-width:0.02; stroke-miterlimit:10;}
  .face_text {fill:#000000; font-family:monospace;}
  .edge_text {fill:#ff0000; font-family:monospace;}
  .edge_bg {fill:#f3f3f3; stroke:#606060; stroke-width:0.01;}
</style>
<polygon class="face_stroke" points="0.5000000000000001,-0.5 -0.5,-0.5000000000000001 -0.5000000000000001,0.5 0.4999999999999999,0.5000000000000001"/>
<polygon class="face_stroke" points="0.4999999999999999,0.5 1.5,0.5000000000000001 1.5000000000000007,-0.49999999999999944 0.49999999999999967,-0.4999999999999998"/>
<polygon class="face_stroke" points="1.5,0.5 2.5,0.5000000000000001 2.500000000000001,-0.49999999999999944 1.4999999999999996,-0.4999999999999998"/>
<polygon class="face_stroke" points="1.5000000000000002,0.499999922136662 0.5233794442899142,0.7149703623476862 -0.384195975381044,1.1348594639079508 -1.1802890410866862,1.7400336791017148 -1.8276753258685141,2.5021957342293515 -2.2960837665683043,3.385707778675375 -2.5636121050975254,4.349257771194598 -2.617751013682943,5.347791185045724 -2.455969017130178,6.334617707587248 -2.0858308617902637,7.26359442740404 -1.524643796427879,8.091283425560931 -0.798648304504749,8.778982884414354 0.058208871662844164,9.294536741591376 1.0058620428456433,9.613838271727353 2.000000000000003,9.721957290151295 2.994137957154363,9.613838271727353 3.9417911283371616,9.294536741591374 4.798648304504751,8.778982884414352 5.524643796427882,8.09128342556093 6.085830861790263,7.263594427404041 6.455969017130177,6.334617707587254 6.617751013682942,5.347791185045732 6.563612105097527,4.349257771194607 6.296083766568308,3.3857077786753838 5.82767532586852,2.5021957342293595 5.180289041086697,1.7400336791017246 4.384195975381058,1.1348594639079592 3.476620555710106,0.7149703623476924 2.50000000000002,0.4999999221366638"/>
<polygon class="face_stroke" points="-0.38419636006735514,1.1348594290509488 -0.9893705709490511,0.3387663600673553 -1.7854636399326447,0.943940570949051 -1.1802894290509487,1.740033639932645"/>
<polygon class="face_stroke" points="-0.989369977098749,0.33876633812444457 -0.3419836881886411,-0.4233957134965993 0.12642475729672675,-1.3069077554054693 0.3939531010450539,-2.270457746475614 0.4480920150390659,-3.2689911600334924 0.2863100238314864,-4.255817683451317 -0.08382812647658966,-5.184794405272976 -0.6450151873557624,-6.012483406469558 -1.3710106755539417,-6.700182869255364 -2.2278678489290136,-7.215736731073586 -3.175521018382307,-7.535038266342567 -4.169658974951034,-7.643157290151295 -5.163796932691024,-7.535038277112141 -6.111450105603336,-7.215736752109161 -6.968307284563442,-6.700182899573341 -7.694302780211524,-6.0124834446523 -8.255489850057117,-5.184794449535102 -8.62562801042887,-4.2558177317231785 -8.78741001232682,-3.2689912100579503 -8.733271109149996,-2.2704577959135785 -8.465742775839882,-1.3069078019452798 -7.9973343399256684,-0.4233957549621019 -7.349948059272121,0.3387663036721271 -6.553854996844426,0.943940523177961 -5.646279579447814,1.3638296296541421 -4.669659024902123,1.578800075155069 -3.669659024902123,1.5788000805716074 -2.693038468027644,1.3638296456504868 -1.7854630460823446,0.9439405490061419"/>
<text class="face_text" text-anchor="middle" dominant-baseline="middle" transform="matrix(0.03389135425722148 0 0 0.03389135425722148 0.0 0.0)">0</text>
<text class="face_text" text-anchor="middle" dominant-baseline="middle" transform="matrix(0.03389135425722148 0 0 0.03389135425722148 1.0 0.0)">28</text>
<text class="face_text" text-anchor="middle" dominant-baseline="middle" transform="matrix(0.03389135425722148 0 0 0.03389135425722148 2.0 0.0)">27</text>
<text class="face_text" text-anchor="middle" dominant-baseline="middle" transform="matrix(0.03389135425722148 0 0 0.03389135425722148 2.0 5.097424)">30</text>
<text class="face_text" text-anchor="middle" dominant-baseline="middle" transform="matrix(0.03389135425722148 0 0 0.03389135425722148 -1.08483 1.0394)">1</text>
<text class="face_text" text-anchor="middle" dominant-baseline="middle" transform="matrix(0.03389135425722148 0 0 0.03389135425722148 -4.169659 -3.018624)">29</text>
<rect class="edge_bg" x="0.1610864574277851" y="-0.33891354257221484" width="0.6778270851444296" height="0.6778270851444296"/>
<text class="edge_text" text-anchor="middle" dominant-baseline="middle" transform="matrix(0.03389135425722148 0 0 0.03389135425722148 0.4999999999999999 -6.123233995736767e-17)">0</text>
<rect class="edge_bg" x="1.1610864574277853" y="-0.33891354257221484" width="0.6778270851444296" height="0.6778270851444296"/>
<text class="edge_text" text-anchor="middle" dominant-baseline="middle" transform="matrix(0.03389135425722148 0 0 0.03389135425722148 1.5 -6.123233995736767e-17)">86</text>
<rect class="edge_bg" x="1.6610864574277857" y="0.1610863795644472" width="0.6778270851444296" height="0.6778270851444296"/>
<text class="edge_text" text-anchor="middle" dominant-baseline="middle" transform="matrix(0.03389135425722148 0 0 0.03389135425722148 2.0000000000000004 0.499999922136662)">85</text>
<rect class="edge_bg" x="-1.1211564371313667" y="1.0985329919195823" width="0.6778270851444296" height="0.6778270851444296"/>
<text class="edge_text" text-anchor="middle" dominant-baseline="middle" transform="matrix(0.03389135425722148 0 0 0.03389135425722148 -0.782242894559152 1.437446534491797)">7</text>
<rect class="edge_bg" x="-1.7263300541627606" y="0.3024399009930773" width="0.6778270851444296" height="0.6778270851444296"/>
<text class="edge_text" text-anchor="middle" dominant-baseline="middle" transform="matrix(0.03389135425722148 0 0 0.03389135425722148 -1.387416511590546 0.6413534435652921)">6</text>
</svg>
