<?xml version="1.0" encoding="utf-8"?>
<svg version="1.1" xmlns="http://www.w3.org/2000/svg" viewBox="-10.238158413152664 -6.919567869166425 18.706190828113492 17.433978738332847" style="enable-background:new -10.238158413152664 -6.919567869166425 18.706190828113492 17.433978738332847;">
<style type="text/css">
  .face_stroke {fill:none; stroke:#000000; stroke-width:0.02; stroke-miterlimit:10;}
  .face_text {fill:#000000; font-family:monospace;}
  .edge_text {fill:#ff0000; font-family:monospace;}
  .edge_bg {fill:#f3f3f3; stroke:#606060; stroke-width:0.01;}
</style>
<polygon class="face_stroke" points="0.5000000000000001,-0.5 -0.5,-0.5000000000000001 -0.5000000000000001,0.5 0.4999999999999999,0.5000000000000001"/>
<polygon class="face_stroke" points="0.4999999999999999,0.5 1.5,0.5000000000000001 1.5000000000000007,-0.49999999999999944 0.49999999999999967,-0.4999999999999998"/>
<polygon class="face_stroke" points="1.5,0.5 2.5,0.5000000000000001 2.500000000000001,-0.49999999999999944 1.4999999999999996,-0.4999999999999998"/>
<polygon class="face_stroke" points="2.5,0.5 3.5,0.5000000000000001 3.500000000000001,-0.49999999999999944 2.4999999999999996,-0.4999999999999998"/>
<polygon class="face_stroke" points="2.5,0.499999922136662 1.5233794442899142,0.7149703623476862 0.615804024618956,1.1348594639079508 -0.1802890410866862,1.7400336791017148 -0.8276753258685141,2.5021957342293515 -1.2960837665683043,3.385707778675375 -1.5636121050975254,4.349257771194598 -1.617751013682943,5.347791185045724 -1.4559690171301778,6.334617707587248 -1.0858308617902637,7.26359442740404 -0.524643796427879,8.091283425560931 0.201351695495251,8.778982884414354 1.0582088716628442,9.294536741591376 2.005862042845643,9.613838271727353 3.000000000000003,9.721957290151295 3.994137957154363,9.613838271727353 4.941791128337162,9.294536741591374 5.798648304504751,8.778982884414352 6.524643796427882,8.09128342556093 7.085830861790263,7.263594427404041 7.455969017130177,6.334617707587254 7.617751013682942,5.347791185045732 7.563612105097527,4.349257771194607 7.296083766568308,3.3857077786753838 6.82767532586852,2.5021957342293595 6.180289041086697,1.7400336791017246 5.384195975381058,1.1348594639079592 4.476620555710106,0.7149703623476924 3.50000000000002,0.4999999221366638"/>
<polygon class="face_stroke" points="-0.1802888296308096,1.7400341199170115 -0.9424508800829886,1.0926478296308098 -1.5898371703691905,1.8548098800829889 -0.8276751199170114,2.5021961703691904"/>
<polygon class="face_stroke" points="-0.9424506928743592,1.0926472934143183 -0.4740422457937994,0.2091352523511658 -0.20651390030577055,-0.754414738235953 -0.15237498450889309,-1.7529481516960828 -0.31415697393474495,-2.739774675406007 -0.6842951225655405,-3.6687513978959547 -1.24548218195031,-4.496440400105768 -1.9714776689068394,-5.1841398642023675 -2.828334841351072,-5.699693727567657 -3.775988010227861,-6.0189952645476374 -4.770125966601379,-6.127114290151296 -5.7642639245365785,-6.01899527890707 -6.711917098025393,-5.699693755615091 -7.568774277916338,-5.184139904626338 -8.29476977480607,-4.496440451016093 -8.855956846146068,-3.6687514569121245 -9.2260950081951,-2.739774739768488 -9.387877011874778,-1.75294821839536 -9.333738110500821,-0.7544148041532439 -9.066209778930409,0.20913519029808492 -8.597801344611389,1.0926472381269783 -7.950415065333933,1.8548092979300737 -7.154322003998889,2.4599835188732637 -6.246746587360391,2.8798726269880843 -5.270126033202836,3.094843074252312 -4.270126033202836,3.094843081474364 -3.2935054759402216,2.879872648316544 -2.3859300532368066,2.4599835533108383 -1.5898369831605659,1.854809343866502"/>
<text class="face_text" text-anchor="middle" dominant-baseline="middle" transform="matrix(0.0348679574766657 0 0 0.0348679574766657 0.0 0.0)">0</text>
<text class="face_text" text-anchor="middle" dominant-baseline="middle" transform="matrix(0.0348679574766657 0 0 0.0348679574766657 1.0 0.0)">28</text>
<text class="face_text" text-anchor="middle" dominant-baseline="middle" transform="matrix(0.0348679574766657 0 0 0.0348679574766657 2.0 0.0)">27</text>
<text class="face_text" text-anchor="middle" dominant-baseline="middle" transform="matrix(0.0348679574766657 0 0 0.0348679574766657 3.0 0.0)">26</text>
<text class="face_text" text-anchor="middle" dominant-baseline="middle" transform="matrix(0.0348679574766657 0 0 0.0348679574766657 3.0 5.097424)">30</text>
<text class="face_text" text-anchor="middle" dominant-baseline="middle" transform="matrix(0.0348679574766657 0 0 0.0348679574766657 -0.885063 1.797422)">1</text>
<text class="face_text" text-anchor="middle" dominant-baseline="middle" transform="matrix(0.0348679574766657 0 0 0.0348679574766657 -4.770126 -1.502581)">29</text>
<rect class="edge_bg" x="0.15132042523334294" y="-0.348679574766657" width="0.6973591495333139" height="0.6973591495333139"/>
<text class="edge_text" text-anchor="middle" dominant-baseline="middle" transform="matrix(0.0348679574766657 0 0 0.0348679574766657 0.4999999999999999 -6.123233995736767e-17)">0</text>
<rect class="edge_bg" x="1.151320425233343" y="-0.348679574766657" width="0.6973591495333139" height="0.6973591495333139"/>
<text class="edge_text" text-anchor="middle" dominant-baseline="middle" transform="matrix(0.0348679574766657 0 0 0.0348679574766657 1.5 -6.123233995736767e-17)">86</text>
<rect class="edge_bg" x="2.151320425233343" y="-0.348679574766657" width="0.6973591495333139" height="0.6973591495333139"/>
<text class="edge_text" text-anchor="middle" dominant-baseline="middle" transform="matrix(0.0348679574766657 0 0 0.0348679574766657 2.5 -6.123233995736767e-17)">83</text>
<rect class="edge_bg" x="2.6513204252333433" y="0.15132034737000505" width="0.6973591495333139" height="0.6973591495333139"/>
<text class="edge_text" text-anchor="middle" dominant-baseline="middle" transform="matrix(0.0348679574766657 0 0 0.0348679574766657 3.0000000000000004 0.499999922136662)">82</text>
<rect class="edge_bg" x="-0.8526615495405674" y="1.7724355703764438" width="0.6973591495333139" height="0.6973591495333139"/>
<text class="edge_text" text-anchor="middle" dominant-baseline="middle" transform="matrix(0.0348679574766657 0 0 0.0348679574766657 -0.5039819747739105 2.1211151451431007)">7</text>
<rect class="edge_bg" x="-1.6148234127841172" y="1.125048743873751" width="0.6973591495333139" height="0.6973591495333139"/>
<text class="edge_text" text-anchor="middle" dominant-baseline="middle" transform="matrix(0.0348679574766657 0 0 0.0348679574766657 -1.2661438380174603 1.473728318640408)">6</text>
</svg>
