<?xml version="1.0" encoding="utf-8"?>
<svg version="1.1" xmlns="http://www.w3.org/2000/svg" viewBox="-10.537160667266237 -5.003683269166425 20.067050332422948 15.42686153833285" style="enable-background:new -10.537160667266237 -5.003683269166425 20.067050332422948 15.42686153833285;">
<style type="text/css">
  .face_stroke {fill:none; stroke:#000000; stroke-width:0.02; stroke-miterlimit:10;}
  .face_text {fill:#000000; font-family:monospace;}
  .edge_text {fill:#ff0000; font-family:monospace;}
  .edge_bg {fill:#f3f3f3; stroke:#606060; stroke-width:0.01;}
</style>
<polygon class="face_stroke" points="0.5000000000000001,-0.5 -0.5,-0.5000000000000001 -0.5000000000000001,0.5 0.4999999999999999,0.5000000000000001"/>
<polygon class="face_stroke" points="0.4999999999999999,0.5 1.5,0.5000000000000001 1.5000000000000007,-0.49999999999999944 0.49999999999999967,-0.4999999999999998"/>
<polygon class="face_stroke" points="1.5,0.5 2.5,0.5000000000000001 2.500000000000001,-0.49999999999999944 1.4999999999999996,-0.4999999999999998"/>
<polygon class="face_stroke" points="2.5,0.5 3.5,0.5000000000000001 3.500000000000001,-0.49999999999999944 2.4999999999999996,-0.4999999999999998"/>
<polygon class="face_stroke" points="3.5,0.5 4.5,0.5000000000000001 4.500000000000001,-0.49999999999999944 3.4999999999999996,-0.4999999999999998"/>
<polygon class="face_stroke" points="3.5,0.499999922136662 2.5233794442899145,0.7149703623476862 1.615804024618956,1.1348594639079508 0.8197109589133138,1.7400336791017148 0.1723246741314859,2.5021957342293515 -0.29608376656830426,3.385707778675375 -0.5636121050975254,4.349257771194598 -0.6177510136829429,5.347791185045724 -0.4559690171301778,6.334617707587248 -0.08583086179026367,7.26359442740404 0.47535620357212105,8.091283425560931 1.201351695495251,8.778982884414354 2.058208871662844,9.294536741591376 3.005862042845643,9.613838271727353 4.0000000000000036,9.721957290151295 4.994137957154363,9.613838271727353 5.941791128337162,9.294536741591374 6.798648304504751,8.778982884414352 7.524643796427882,8.09128342556093 8.085830861790264,7.263594427404041 8.455969017130176,6.334617707587254 8.617751013682941,5.347791185045732 8.563612105097526,4.349257771194607 8.296083766568309,3.3857077786753838 7.82767532586852,2.5021957342293595 7.180289041086697,1.7400336791017246 6.384195975381058,1.1348594639079592 5.476620555710106,0.7149703623476924 4.5000000000000195,0.4999999221366638"/>
<polygon class="face_stroke" points="0.17232424082413167,2.502196192431427 -0.7111878075685731,2.033787759175868 -1.1795962408241318,2.9172998075685728 -0.29608419243142703,3.3857082408241315"/>
<polygon class="face_stroke" points="-0.7111872190092416,2.033787185126994 -0.44365888859863034,1.0702371903536507 -0.3895199884265832,0.07170377604636752 -0.5513019932940795,-0.9151227451320276 -0.9214401564612977,-1.8440994618301356 -1.4826272287975621,-2.671788455258617 -2.208622726515061,-3.3594879079949997 -3.0654799070265657,-3.875041757952376 -4.013133080899715,-4.194343280103689 -5.007271038965056,-4.302462290151295 -6.0014089952084335,-4.194343263351018 -6.949062163700888,-3.8750417252303713 -7.805919335524561,-3.3594878608337053 -8.531914821653324,-2.671788395863242 -9.093101880041825,-1.8440993929779423 -9.463240027554434,-0.9151226700424677 -9.625022015792467,0.07170385386219175 -9.570883098793681,1.070237267257154 -9.30335475214585,2.033787257522258 -8.834946304001829,2.9172992980215975 -8.18756001279823,3.6794613476945353 -7.391466941993554,4.2846355561806355 -6.483891518784725,4.704524650093917 -5.507270961263356,4.919495082076202 -4.507270961263355,4.919495073650474 -3.530650407364555,4.704524625210713 -2.623074991231469,4.284635516003465 -1.8269819306248607,3.6794612941020386 -1.1795956522648043,2.9172992335197057"/>
<text class="face_text" text-anchor="middle" dominant-baseline="middle" transform="matrix(0.030853723076665698 0 0 0.030853723076665698 0.0 0.0)">0</text>
<text class="face_text" text-anchor="middle" dominant-baseline="middle" transform="matrix(0.030853723076665698 0 0 0.030853723076665698 1.0 0.0)">28</text>
<text class="face_text" text-anchor="middle" dominant-baseline="middle" transform="matrix(0.030853723076665698 0 0 0.030853723076665698 2.0 0.0)">27</text>
<text class="face_text" text-anchor="middle" dominant-baseline="middle" transform="matrix(0.030853723076665698 0 0 0.030853723076665698 3.0 0.0)">26</text>
<text class="face_text" text-anchor="middle" dominant-baseline="middle" transform="matrix(0.030853723076665698 0 0 0.030853723076665698 4.0 0.0)">25</text>
<text class="face_text" text-anchor="middle" dominant-baseline="middle" transform="matrix(0.030853723076665698 0 0 0.030853723076665698 4.0 5.097424)">30</text>
<text class="face_text" text-anchor="middle" dominant-baseline="middle" transform="matrix(0.030853723076665698 0 0 0.030853723076665698 -0.503636 2.709748)">1</text>
<text class="face_text" text-anchor="middle" dominant-baseline="middle" transform="matrix(0.030853723076665698 0 0 0.030853723076665698 -5.007271 0.322071)">29</text>
<rect class="edge_bg" x="0.19146276923334288" y="-0.30853723076665707" width="0.617074461533314" height="0.617074461533314"/>
<text class="edge_text" text-anchor="middle" dominant-baseline="middle" transform="matrix(0.030853723076665698 0 0 0.030853723076665698 0.4999999999999999 -6.123233995736767e-17)">0</text>
<rect class="edge_bg" x="1.191462769233343" y="-0.30853723076665707" width="0.617074461533314" height="0.617074461533314"/>
<text class="edge_text" text-anchor="middle" dominant-baseline="middle" transform="matrix(0.030853723076665698 0 0 0.030853723076665698 1.5 -6.123233995736767e-17)">86</text>
<rect class="edge_bg" x="2.191462769233343" y="-0.30853723076665707" width="0.617074461533314" height="0.617074461533314"/>
<text class="edge_text" text-anchor="middle" dominant-baseline="middle" transform="matrix(0.030853723076665698 0 0 0.030853723076665698 2.5 -6.123233995736767e-17)">83</text>
<rect class="edge_bg" x="3.191462769233343" y="-0.30853723076665707" width="0.617074461533314" height="0.617074461533314"/>
<text class="edge_text" text-anchor="middle" dominant-baseline="middle" transform="matrix(0.030853723076665698 0 0 0.030853723076665698 3.5 -6.123233995736767e-17)">80</text>
<rect class="edge_bg" x="3.691462769233343" y="0.191462691370005" width="0.617074461533314" height="0.617074461533314"/>
<text class="edge_text" text-anchor="middle" dominant-baseline="middle" transform="matrix(0.030853723076665698 0 0 0.030853723076665698 4.0 0.499999922136662)">79</text>
<rect class="edge_bg" x="-0.37041720657030447" y="2.635414985861122" width="0.617074461533314" height="0.617074461533314"/>
<text class="edge_text" text-anchor="middle" dominant-baseline="middle" transform="matrix(0.030853723076665698 0 0 0.030853723076665698 -0.06187997580364746 2.943952216627779)">7</text>
<rect class="edge_bg" x="-1.2539286664036775" y="2.167005978556689" width="0.617074461533314" height="0.617074461533314"/>
<text class="edge_text" text-anchor="middle" dominant-baseline="middle" transform="matrix(0.030853723076665698 0 0 0.030853723076665698 -0.9453914356370205 2.4755432093233463)">6</text>
</svg>
