<?xml version="1.0" encoding="utf-8"?>
<svg version="1.1" xmlns="http://www.w3.org/2000/svg" viewBox="-10.443885519166423 -5.1891056650286345 21.126121038332847 12.569802329605228" style="enable-background:new -10.443885519166423 -5.1891056650286345 21.126121038332847 12.569802329605228;">
<style type="text/css">
  .face_stroke {fill:none; stroke:#000000; stroke-width:0.02; stroke-miterlimit:10;}
  .face_text {fill:#000000; font-family:monospace;}
  .edge_text {fill:#ff0000; font-family:monospace;}
  .edge_bg {fill:#f3f3f3; stroke:#606060; stroke-width:0.01;}
</style>
<polygon class="face_stroke" points="0.5000000000000001,-0.5 -0.5,-0.5000000000000001 -0.5000000000000001,0.5 0.4999999999999999,0.5000000000000001"/>
<polygon class="face_stroke" points="0.499999922136662,0.49999999999999956 0.7149703623476853,1.4766205557100847 1.1348594639079508,2.384195975381044 1.7400336791017161,3.1802890410866875 2.5021957342293515,3.827675325868514 3.3857077786753784,4.296083766568306 4.349257771194598,4.563612105097525 5.347791185045722,4.617751013682943 6.334617707587248,4.455969017130178 7.263594427404036,4.0858308617902654 8.091283425560928,3.5246437964278834 8.778982884414347,2.7986483045047557 9.294536741591372,1.9417911283371674 9.613838271727353,0.994137957154369 9.721957290151295,1.3454915986758427e-14 9.613838271727356,-0.9941379571543466 9.29453674159138,-1.9417911283371503 8.77898288441436,-2.798648304504741 8.091283425560942,-3.5246437964278714 7.2635944274040565,-4.085830861790255 6.33461770758727,-4.455969017130172 5.347791185045744,-4.617751013682942 4.34925777119462,-4.563612105097529 3.3857077786753993,-4.296083766568314 2.5021957342293697,-3.827675325868527 1.7400336791017388,-3.180289041086712 1.1348594639079659,-2.3841959753810684 0.7149703623476968,-1.476620555710118 0.49999992213666467,-0.5000000000000284"/>
<polygon class="face_stroke" points="0.5000000588252479,0.4999995027270292 -0.47662049727297073,0.7149699411747522 -0.26165005882524794,1.691590497272971 0.7149704972729708,1.476620058825248"/>
<polygon class="face_stroke" points="-0.4766203596816281,0.7149704522024907 -0.8965094596032532,-0.1926049682265818 -1.5016836733596612,-0.9886980350248753 -2.263845727318434,-1.6360843211827962 -3.147357770918738,-2.1044927634777784 -4.110907762954935,-2.372021103746701 -5.109441176708309,-2.426160014134984 -6.096267699541934,-2.2643780193639484 -7.025244420027015,-1.8942398657013149 -7.852933419197137,-1.3330528018333352 -8.540632879361354,-0.6070573111518551 -9.056186738085444,0.24979986408489507 -9.375488269932426,1.1974530346911965 -9.483607290151294,2.1915909916503438 -9.375488273522283,3.185728948999916 -9.056186745097301,4.133382120759221 -8.540632889467345,4.990239297857652 -7.852933431924715,5.7162347910224325 -7.0252444347810545,6.277421857879217 -6.0962677156325515,6.647560014896411 -5.1094411933831285,6.809342013230902 -4.110907779434256,6.755203106448349 -3.1473577864320106,6.487674769658831 -2.26384574114027,6.019266330554234 -1.5016836848437713,5.371880047148503 -0.8965094682126473,4.575786982535505 -0.47662036501374594,3.668211563622671 -0.26164992303941936,2.6915910083007164 -0.2616499212339036,1.6915910083007204"/>
<polygon class="face_stroke" points="-0.8965094290509489,-0.19260536006735518 -0.10041636006735521,-0.7977795709490512 -0.7055905709490512,-1.5938726399326448 -1.5016836399326448,-0.9886984290509491"/>
<text class="face_text" text-anchor="middle" dominant-baseline="middle" transform="matrix(0.025139604659210456 0 0 0.025139604659210456 0.0 0.0)">0</text>
<text class="face_text" text-anchor="middle" dominant-baseline="middle" transform="matrix(0.025139604659210456 0 0 0.025139604659210456 5.097424 0.0)">29</text>
<text class="face_text" text-anchor="middle" dominant-baseline="middle" transform="matrix(0.025139604659210456 0 0 0.025139604659210456 0.119175 1.095795)">28</text>
<text class="face_text" text-anchor="middle" dominant-baseline="middle" transform="matrix(0.025139604659210456 0 0 0.025139604659210456 -4.859074 2.191591)">30</text>
<text class="face_text" text-anchor="middle" dominant-baseline="middle" transform="matrix(0.025139604659210456 0 0 0.025139604659210456 -0.80105 -0.893239)">1</text>
<rect class="edge_bg" x="0.24860387554455743" y="-0.2513960465921051" width="0.5027920931842091" height="0.5027920931842091"/>
<text class="edge_text" text-anchor="middle" dominant-baseline="middle" transform="matrix(0.025139604659210456 0 0 0.025139604659210456 0.499999922136662 -5.630220681278309e-16)">1</text>
<rect class="edge_bg" x="0.3560892314570049" y="0.736913734184034" width="0.5027920931842091" height="0.5027920931842091"/>
<text class="edge_text" text-anchor="middle" dominant-baseline="middle" transform="matrix(0.025139604659210456 0 0 0.025139604659210456 0.6074852780491095 0.9883097807761386)">2</text>
<rect class="edge_bg" x="-0.6205311870498709" y="0.9518846836594952" width="0.5027920931842091" height="0.5027920931842091"/>
<text class="edge_text" text-anchor="middle" dominant-baseline="middle" transform="matrix(0.025139604659210456 0 0 0.025139604659210456 -0.3691351404577663 1.2032807302515998)">4</text>
<rect class="edge_bg" x="-1.4504925810839013" y="-0.8420479411512565" width="0.5027920931842091" height="0.5027920931842091"/>
<text class="edge_text" text-anchor="middle" dominant-baseline="middle" transform="matrix(0.025139604659210456 0 0 0.025139604659210456 -1.1990965344917968 -0.5906518945591519)">7</text>
</svg>
