<?xml version="1.0" encoding="utf-8"?>
<svg version="1.1" xmlns="http://www.w3.org/2000/svg" viewBox="-5.024016252296143 -2.2774867610775025 8.044370142483046 3.702967704165018" style="enable-background:new -5.024016252296143 -2.2774867610775025 8.044370142483046 3.702967704165018;">
<style type="text/css">
  .face_stroke {fill:none; stroke:#000000; stroke-width:0.02; stroke-miterlimit:10;}
  .face_text {fill:#000000; font-family:monospace;}
  .edge_text {fill:#ff0000; font-family:monospace;}
  .edge_bg {fill:#f3f3f3; stroke:#606060; stroke-width:0.01;}
</style>
<polygon class="face_stroke" points="0.288675134594813,-0.5 -0.5773502691896258,-7.07050159149938e-17 0.288675134594813,0.5"/>
<polygon class="face_stroke" points="0.2886749999999999,0.5 1.288675,0.5000000000000001 1.2886750000000007,-0.49999999999999944 0.2886749999999997,-0.4999999999999998"/>
<polygon class="face_stroke" points="1.288674865405187,0.4999999999999999 2.1547002691896258,1.414100318299876e-16 1.2886748654051876,-0.5000000000000003"/>
<polygon class="face_stroke" points="2.1547007018922195,-2.981077805719323e-07 2.6547007018922195,-0.8660257018922193 1.7886752981077807,-1.3660257018922195 1.2886752981077807,-0.5000002981077809"/>
<polygon class="face_stroke" points="1.7886748542188244,-1.3660252217744258 1.1195442478599664,-2.10917004725182 0.20599879021736545,-1.7024334041760198 0.310527253485019,-0.7079115088077466 1.2886748542188249,-0.4999998179899874"/>
<polygon class="face_stroke" points="0.20599871605031,-1.7024331793179635 -0.7885231793179632,-1.5979047160503101 -0.6839947160503097,-0.6033828206820364 0.3105271793179632,-0.7079112839496898"/>
<polygon class="face_stroke" points="-0.788522489630902,-1.5979047158869153 -1.5975394840058494,-1.0101194635944424 -0.6839940263632487,-0.6033828205186419"/>
<polygon class="face_stroke" points="-1.5975399736367515,-1.010120179481358 -1.493011510369098,-0.015598284113084393 -0.6839945159941504,-0.6033835364055573"/>
<polygon class="face_stroke" points="-1.5975393992661941,-1.0101197129666792 -2.266670005625052,-1.7532645384440735 -3.2448176063588576,-1.961176229261833 -4.158363064001459,-1.5544395861860327 -4.658363064001459,-0.6884141824015939 -4.553834600733806,0.30610771296667877 -3.8847039943749477,1.0492525384440732 -2.9065563936411425,1.257164229261833 -1.9930109359985413,0.8504275861860333 -1.4930109359985408,-0.015597817598405062"/>
<polygon class="face_stroke" points="-1.993011,0.850427134594813 -0.9930110000000002,0.8504271345948132 -1.4930109999999999,-0.015598269189625813"/>
<polygon class="face_stroke" points="-0.993011,0.8504272691896259 -0.49301099999999987,-0.015598134594812851 -1.493011,-0.015598134594812851"/>
<text class="face_text" text-anchor="middle" dominant-baseline="middle" transform="matrix(0.007405935408330036 0 0 0.007405935408330036 0.0 0.0)">0</text>
<text class="face_text" text-anchor="middle" dominant-baseline="middle" transform="matrix(0.007405935408330036 0 0 0.007405935408330036 0.788675 0.0)">5</text>
<text class="face_text" text-anchor="middle" dominant-baseline="middle" transform="matrix(0.007405935408330036 0 0 0.007405935408330036 1.57735 0.0)">8</text>
<text class="face_text" text-anchor="middle" dominant-baseline="middle" transform="matrix(0.007405935408330036 0 0 0.007405935408330036 1.971688 -0.683013)">11</text>
<text class="face_text" text-anchor="middle" dominant-baseline="middle" transform="matrix(0.007405935408330036 0 0 0.007405935408330036 0.942684 -1.277108)">30</text>
<text class="face_text" text-anchor="middle" dominant-baseline="middle" transform="matrix(0.007405935408330036 0 0 0.007405935408330036 -0.238998 -1.152908)">1</text>
<text class="face_text" text-anchor="middle" dominant-baseline="middle" transform="matrix(0.007405935408330036 0 0 0.007405935408330036 -1.023352 -1.070469)">2</text>
<text class="face_text" text-anchor="middle" dominant-baseline="middle" transform="matrix(0.007405935408330036 0 0 0.007405935408330036 -1.258182 -0.543034)">3</text>
<text class="face_text" text-anchor="middle" dominant-baseline="middle" transform="matrix(0.007405935408330036 0 0 0.007405935408330036 -3.075687 -0.352006)">31</text>
<text class="face_text" text-anchor="middle" dominant-baseline="middle" transform="matrix(0.007405935408330036 0 0 0.007405935408330036 -1.493011 0.561752)">6</text>
<text class="face_text" text-anchor="middle" dominant-baseline="middle" transform="matrix(0.007405935408330036 0 0 0.007405935408330036 -0.993011 0.273077)">4</text>
<rect class="edge_bg" x="0.21461564591669954" y="-0.07405935408330042" width="0.14811870816660072" height="0.14811870816660072"/>
<text class="edge_text" text-anchor="middle" dominant-baseline="middle" transform="matrix(0.007405935408330036 0 0 0.007405935408330036 0.2886749999999999 -6.123233995736767e-17)">6</text>
<rect class="edge_bg" x="1.2146155113218866" y="-0.0740593540833004" width="0.14811870816660072" height="0.14811870816660072"/>
<text class="edge_text" text-anchor="middle" dominant-baseline="middle" transform="matrix(0.007405935408330036 0 0 0.007405935408330036 1.288674865405187 -3.535250795749691e-17)">10</text>
<rect class="edge_bg" x="1.6476286459166998" y="-0.3240596521910809" width="0.14811870816660072" height="0.14811870816660072"/>
<text class="edge_text" text-anchor="middle" dominant-baseline="middle" transform="matrix(0.007405935408330036 0 0 0.007405935408330036 1.721688 -0.2500002981077805)">14</text>
<rect class="edge_bg" x="1.4646155001355243" y="-1.007071873965507" width="0.14811870816660072" height="0.14811870816660072"/>
<text class="edge_text" text-anchor="middle" dominant-baseline="middle" transform="matrix(0.007405935408330036 0 0 0.007405935408330036 1.5386748542188247 -0.9330125198822066)">42</text>
<rect class="edge_bg" x="0.1842035936008364" y="-1.279231585717127" width="0.14811870816660072" height="0.14811870816660072"/>
<text class="edge_text" text-anchor="middle" dominant-baseline="middle" transform="matrix(0.007405935408330036 0 0 0.007405935408330036 0.25826294768413677 -1.2051722316338267)">41</text>
<rect class="edge_bg" x="-0.8103176120803756" y="-1.174703122286079" width="0.14811870816660072" height="0.14811870816660072"/>
<text class="edge_text" text-anchor="middle" dominant-baseline="middle" transform="matrix(0.007405935408330036 0 0 0.007405935408330036 -0.7362582579970752 -1.1006437682027788)">1</text>
<rect class="edge_bg" x="-1.2148265988987512" y="-0.8808112120267582" width="0.14811870816660072" height="0.14811870816660072"/>
<text class="edge_text" text-anchor="middle" dominant-baseline="middle" transform="matrix(0.007405935408330036 0 0 0.007405935408330036 -1.1407672448154509 -0.8067518579434578)">4</text>
<rect class="edge_bg" x="-1.6193345217156676" y="-0.5869181193658429" width="0.14811870816660072" height="0.14811870816660072"/>
<text class="edge_text" text-anchor="middle" dominant-baseline="middle" transform="matrix(0.007405935408330036 0 0 0.007405935408330036 -1.5452751676323673 -0.5128587652825426)">45</text>
<rect class="edge_bg" x="-1.8170703540833004" y="0.34335507861929326" width="0.14811870816660072" height="0.14811870816660072"/>
<text class="edge_text" text-anchor="middle" dominant-baseline="middle" transform="matrix(0.007405935408330036 0 0 0.007405935408330036 -1.743011 0.4174144327025936)">46</text>
<rect class="edge_bg" x="-1.3170703540833004" y="0.3433552132141061" width="0.14811870816660072" height="0.14811870816660072"/>
<text class="edge_text" text-anchor="middle" dominant-baseline="middle" transform="matrix(0.007405935408330036 0 0 0.007405935408330036 -1.243011 0.41741456729740645)">7</text>
</svg>
