<?xml version="1.0" encoding="utf-8"?>
<svg version="1.1" xmlns="http://www.w3.org/2000/svg" viewBox="-2.189739601400009 -3.015252079500396 3.9677854812880495 3.6826450356670817" style="enable-background:new -2.189739601400009 -3.015252079500396 3.9677854812880495 3.6826450356670817;">
<style type="text/css">
  .face_stroke {fill:none; stroke:#000000; stroke-width:0.02; stroke-miterlimit:10;}
  .face_text {fill:#000000; font-family:monospace;}
  .edge_text {fill:#ff0000; font-family:monospace;}
  .edge_bg {fill:#f3f3f3; stroke:#606060; stroke-width:0.01;}
</style>
<polygon class="face_stroke" points="0.288675134594813,-0.5 -0.5773502691896258,-7.07050159149938e-17 0.288675134594813,0.5"/>
<polygon class="face_stroke" points="0.2886749999999999,0.5 1.288675,0.5000000000000001 1.2886750000000007,-0.49999999999999944 0.2886749999999997,-0.4999999999999998"/>
<polygon class="face_stroke" points="1.288675,-0.5000000397644132 1.5976919943749475,-1.4510565560595667 0.788675,-2.03884180835204 -0.020341994374947325,-1.4510565560595667 0.2886749999999999,-0.5000000397644133"/>
<polygon class="face_stroke" points="0.7886751233337104,-2.038842128958763 0.20088987104123718,-2.8478591233337105 -0.6081271233337103,-2.260073871041237 -0.020341871041237275,-1.4510568766662897"/>
<polygon class="face_stroke" points="-0.6081275364055576,-2.2600734840058494 -1.014864179481358,-1.3465280263632486 -0.020342284113084474,-1.451056489630902"/>
<polygon class="face_stroke" points="-0.6081268205186421,-2.2600739736367514 -1.6026487158869154,-2.155545510369098 -1.0148634635944427,-1.3465285159941507"/>
<polygon class="face_stroke" points="-1.6026485364055576,-2.1555454840058497 -2.009385179481358,-1.2420000263632485 -1.0148632841130847,-1.346528489630902"/>
<polygon class="face_stroke" points="-2.0093857158869155,-1.241999510369098 -1.4216004635944428,-0.4329825159941504 -1.0148638205186424,-1.3465279736367517"/>
<polygon class="face_stroke" points="-1.4216000503592006,-0.4329825927165995 -0.5080545927166001,-0.026245949640799182 -0.10131794964079921,-0.9397914072833997 -1.0148634072834004,-1.3465280503592005"/>
<text class="face_text" text-anchor="middle" dominant-baseline="middle" transform="matrix(0.0073652900713341634 0 0 0.0073652900713341634 0.0 0.0)">0</text>
<text class="face_text" text-anchor="middle" dominant-baseline="middle" transform="matrix(0.0073652900713341634 0 0 0.0073652900713341634 0.788675 0.0)">5</text>
<text class="face_text" text-anchor="middle" dominant-baseline="middle" transform="matrix(0.0073652900713341634 0 0 0.0073652900713341634 0.788675 -1.188191)">30</text>
<text class="face_text" text-anchor="middle" dominant-baseline="middle" transform="matrix(0.0073652900713341634 0 0 0.0073652900713341634 0.090274 -2.149458)">23</text>
<text class="face_text" text-anchor="middle" dominant-baseline="middle" transform="matrix(0.0073652900713341634 0 0 0.0073652900713341634 -0.547778 -1.685886)">26</text>
<text class="face_text" text-anchor="middle" dominant-baseline="middle" transform="matrix(0.0073652900713341634 0 0 0.0073652900713341634 -1.075213 -1.920716)">28</text>
<text class="face_text" text-anchor="middle" dominant-baseline="middle" transform="matrix(0.0073652900713341634 0 0 0.0073652900713341634 -1.542299 -1.581358)">29</text>
<text class="face_text" text-anchor="middle" dominant-baseline="middle" transform="matrix(0.0073652900713341634 0 0 0.0073652900713341634 -1.48195 -1.00717)">2</text>
<text class="face_text" text-anchor="middle" dominant-baseline="middle" transform="matrix(0.0073652900713341634 0 0 0.0073652900713341634 -0.761459 -0.686387)">1</text>
<rect class="edge_bg" x="0.21502209928665827" y="-0.07365290071334168" width="0.14730580142668326" height="0.14730580142668326"/>
<text class="edge_text" text-anchor="middle" dominant-baseline="middle" transform="matrix(0.0073652900713341634 0 0 0.0073652900713341634 0.2886749999999999 -6.123233995736767e-17)">6</text>
<rect class="edge_bg" x="0.7150220992866584" y="-0.5736529404777548" width="0.14730580142668326" height="0.14730580142668326"/>
<text class="edge_text" text-anchor="middle" dominant-baseline="middle" transform="matrix(0.0073652900713341634 0 0 0.0073652900713341634 0.788675 -0.5000000397644132)">40</text>
<rect class="edge_bg" x="0.310513725432895" y="-1.818602403525868" width="0.14730580142668326" height="0.14730580142668326"/>
<text class="edge_text" text-anchor="middle" dominant-baseline="middle" transform="matrix(0.0073652900713341634 0 0 0.0073652900713341634 0.38416662614623664 -1.7449495028125264)">44</text>
<rect class="edge_bg" x="-0.3878878109726626" y="-1.9292178875317174" width="0.14730580142668326" height="0.14730580142668326"/>
<text class="edge_text" text-anchor="middle" dominant-baseline="middle" transform="matrix(0.0073652900713341634 0 0 0.0073652900713341634 -0.314234910259321 -1.8555649868183757)">34</text>
<rect class="edge_bg" x="-0.8851480427698838" y="-1.8769541455287926" width="0.14730580142668326" height="0.14730580142668326"/>
<text class="edge_text" text-anchor="middle" dominant-baseline="middle" transform="matrix(0.0073652900713341634 0 0 0.0073652900713341634 -0.8114951420565422 -1.803301244815451)">33</text>
<rect class="edge_bg" x="-1.3824088109726627" y="-1.8246898875317177" width="0.14730580142668326" height="0.14730580142668326"/>
<text class="edge_text" text-anchor="middle" dominant-baseline="middle" transform="matrix(0.0073652900713341634 0 0 0.0073652900713341634 -1.3087559102593211 -1.751036986818376)">39</text>
<rect class="edge_bg" x="-1.5857776689161205" y="-1.3679166427162666" width="0.14730580142668326" height="0.14730580142668326"/>
<text class="edge_text" text-anchor="middle" dominant-baseline="middle" transform="matrix(0.0073652900713341634 0 0 0.0073652900713341634 -1.512124768202779 -1.2942637420029248)">38</text>
<rect class="edge_bg" x="-1.2918846295346422" y="-0.9634082222512419" width="0.14730580142668326" height="0.14730580142668326"/>
<text class="edge_text" text-anchor="middle" dominant-baseline="middle" transform="matrix(0.0073652900713341634 0 0 0.0073652900713341634 -1.2182317288213005 -0.8897553215379003)">1</text>
</svg>
