<?xml version="1.0" encoding="utf-8"?>
<svg version="1.1" xmlns="http://www.w3.org/2000/svg" viewBox="-5.005132880661013 -3.0482099528771607 7.581811966510193 4.240981855395121" style="enable-background:new -5.005132880661013 -3.0482099528771607 7.581811966510193 4.240981855395121;">
<style type="text/css">
  .face_stroke {fill:none; stroke:#000000; stroke-width:0.02; stroke-miterlimit:10;}
  .face_text {fill:#000000; font-family:monospace;}
  .edge_text {fill:#ff0000; font-family:monospace;}
  .edge_bg {fill:#f3f3f3; stroke:#606060; stroke-width:0.01;}
</style>
<polygon class="face_stroke" points="0.5000000000000001,-0.5 -0.5,-0.5000000000000001 -0.5000000000000001,0.5 0.4999999999999999,0.5000000000000001"/>
<polygon class="face_stroke" points="0.4999998654051868,0.4999999999999999 1.3660252691896257,1.414100318299876e-16 0.49999986540518754,-0.5000000000000003"/>
<polygon class="face_stroke" points="0.4999997308103742,0.49999999999999994 1.3660251345948131,1.0 1.3660251345948127,-1.1102230246251565e-16"/>
<polygon class="face_stroke" points="1.3660258654051867,0.9999999999999999 2.232051269189626,0.5000000000000001 1.3660258654051876,-3.3306690738754696e-16"/>
<polygon class="face_stroke" points="2.232051134594813,0.5 2.232051134594813,-0.5 1.366025730810374,-7.07050159149938e-17"/>
<polygon class="face_stroke" points="2.232050701892219,-0.5000002981077807 1.7320507018922193,-1.3660257018922195 0.8660252981077806,-0.8660257018922195 1.3660252981077807,-2.981077805719323e-07"/>
<polygon class="face_stroke" points="1.7320511820100126,-1.3660251457811754 1.5241394911922534,-2.344172746514981 0.5296175958239802,-2.4487012097826346 0.12288095274817978,-1.5351557521400339 0.8660257782255741,-0.8660251457811754"/>
<polygon class="face_stroke" points="0.5296170503592006,-2.4487014072834006 -0.3839284072834004,-2.8554380503592007 -0.7906650503592005,-1.9418925927165995 0.12288040728339986,-1.5351559496407994"/>
<polygon class="face_stroke" points="-0.7906649736367515,-1.941892179481358 -0.686136510369098,-0.9473702841130844 0.1228804840058495,-1.5351555364055574"/>
<polygon class="face_stroke" points="-0.7906644896309019,-1.9418927158869157 -1.5996814840058495,-1.3541074635944426 -0.6861360263632486,-0.9473708205186421"/>
<polygon class="face_stroke" points="-1.5996819736367516,-1.354107179481358 -1.495153510369098,-0.3595852841130843 -0.6861365159941505,-0.9473705364055572"/>
<polygon class="face_stroke" points="-1.5996813992661942,-1.3541077129666792 -2.268812005625052,-2.0972525384440734 -3.2469596063588577,-2.305164229261833 -4.160505064001459,-1.8984275861860327 -4.660505064001459,-1.032402182401594 -4.555976600733806,-0.03788028703332125 -3.886845994374948,0.7052645384440732 -2.9086983936411426,0.9131762292618331 -1.9951529359985414,0.5064395861860334 -1.495152935998541,-0.3595858175984051"/>
<polygon class="face_stroke" points="-1.995153,0.506440134594813 -0.9951530000000001,0.5064401345948132 -1.4951529999999997,-0.35958526918962586"/>
<polygon class="face_stroke" points="-0.995153,0.5064402691896258 -0.49515299999999984,-0.3595851345948129 -1.4951530000000002,-0.3595851345948129"/>
<text class="face_text" text-anchor="middle" dominant-baseline="middle" transform="matrix(0.008481963710790241 0 0 0.008481963710790241 0.0 0.0)">1</text>
<text class="face_text" text-anchor="middle" dominant-baseline="middle" transform="matrix(0.008481963710790241 0 0 0.008481963710790241 0.788675 0.0)">0</text>
<text class="face_text" text-anchor="middle" dominant-baseline="middle" transform="matrix(0.008481963710790241 0 0 0.008481963710790241 1.07735 0.5)">4</text>
<text class="face_text" text-anchor="middle" dominant-baseline="middle" transform="matrix(0.008481963710790241 0 0 0.008481963710790241 1.654701 0.5)">6</text>
<text class="face_text" text-anchor="middle" dominant-baseline="middle" transform="matrix(0.008481963710790241 0 0 0.008481963710790241 1.943376 -0.0)">7</text>
<text class="face_text" text-anchor="middle" dominant-baseline="middle" transform="matrix(0.008481963710790241 0 0 0.008481963710790241 1.549038 -0.683013)">5</text>
<text class="face_text" text-anchor="middle" dominant-baseline="middle" transform="matrix(0.008481963710790241 0 0 0.008481963710790241 0.954943 -1.712016)">30</text>
<text class="face_text" text-anchor="middle" dominant-baseline="middle" transform="matrix(0.008481963710790241 0 0 0.008481963710790241 -0.130524 -2.195297)">23</text>
<text class="face_text" text-anchor="middle" dominant-baseline="middle" transform="matrix(0.008481963710790241 0 0 0.008481963710790241 -0.451307 -1.474806)">26</text>
<text class="face_text" text-anchor="middle" dominant-baseline="middle" transform="matrix(0.008481963710790241 0 0 0.008481963710790241 -1.025494 -1.414457)">28</text>
<text class="face_text" text-anchor="middle" dominant-baseline="middle" transform="matrix(0.008481963710790241 0 0 0.008481963710790241 -1.260324 -0.887021)">29</text>
<text class="face_text" text-anchor="middle" dominant-baseline="middle" transform="matrix(0.008481963710790241 0 0 0.008481963710790241 -3.077829 -0.695994)">31</text>
<text class="face_text" text-anchor="middle" dominant-baseline="middle" transform="matrix(0.008481963710790241 0 0 0.008481963710790241 -1.495153 0.217765)">3</text>
<text class="face_text" text-anchor="middle" dominant-baseline="middle" transform="matrix(0.008481963710790241 0 0 0.008481963710790241 -0.995153 -0.07091)">2</text>
<rect class="edge_bg" x="0.4151802282972846" y="-0.08481963710790245" width="0.16963927421580483" height="0.16963927421580483"/>
<text class="edge_text" text-anchor="middle" dominant-baseline="middle" transform="matrix(0.008481963710790241 0 0 0.008481963710790241 0.49999986540518704 -3.535250795749691e-17)">2</text>
<rect class="edge_bg" x="0.8481927955946912" y="0.16518036289209748" width="0.16963927421580483" height="0.16963927421580483"/>
<text class="edge_text" text-anchor="middle" dominant-baseline="middle" transform="matrix(0.008481963710790241 0 0 0.008481963710790241 0.9330124327025936 0.2499999999999999)">0</text>
<rect class="edge_bg" x="1.2812062282972847" y="0.41518036289209753" width="0.16963927421580483" height="0.16963927421580483"/>
<text class="edge_text" text-anchor="middle" dominant-baseline="middle" transform="matrix(0.008481963710790241 0 0 0.008481963710790241 1.3660258654051871 0.49999999999999994)">7</text>
<rect class="edge_bg" x="1.7142187955946913" y="0.1651803628920977" width="0.16963927421580483" height="0.16963927421580483"/>
<text class="edge_text" text-anchor="middle" dominant-baseline="middle" transform="matrix(0.008481963710790241 0 0 0.008481963710790241 1.7990384327025937 0.2500000000000001)">8</text>
<rect class="edge_bg" x="1.7142183628920975" y="-0.334819935215683" width="0.16963927421580483" height="0.16963927421580483"/>
<text class="edge_text" text-anchor="middle" dominant-baseline="middle" transform="matrix(0.008481963710790241 0 0 0.008481963710790241 1.799038 -0.25000029810778057)">5</text>
<rect class="edge_bg" x="1.214218843009891" y="-1.2008447828890778" width="0.16963927421580483" height="0.16963927421580483"/>
<text class="edge_text" text-anchor="middle" dominant-baseline="middle" transform="matrix(0.008481963710790241 0 0 0.008481963710790241 1.2990384801177934 -1.1160251457811754)">40</text>
<rect class="edge_bg" x="0.2414290917133981" y="-2.0767483155700024" width="0.16963927421580483" height="0.16963927421580483"/>
<text class="edge_text" text-anchor="middle" dominant-baseline="middle" transform="matrix(0.008481963710790241 0 0 0.008481963710790241 0.3262487288213005 -1.9919286784621)">44</text>
<rect class="edge_bg" x="-0.4187118819233534" y="-1.8233434950513603" width="0.16963927421580483" height="0.16963927421580483"/>
<text class="edge_text" text-anchor="middle" dominant-baseline="middle" transform="matrix(0.008481963710790241 0 0 0.008481963710790241 -0.333892244815451 -1.7385238579434579)">34</text>
<rect class="edge_bg" x="-0.8232198951049775" y="-1.5294514053106814" width="0.16963927421580483" height="0.16963927421580483"/>
<text class="edge_text" text-anchor="middle" dominant-baseline="middle" transform="matrix(0.008481963710790241 0 0 0.008481963710790241 -0.7384002579970751 -1.444631768202779)">33</text>
<rect class="edge_bg" x="-1.2277288819233534" y="-1.23555849505136" width="0.16963927421580483" height="0.16963927421580483"/>
<text class="edge_text" text-anchor="middle" dominant-baseline="middle" transform="matrix(0.008481963710790241 0 0 0.008481963710790241 -1.142909244815451 -1.1507388579434576)">39</text>
<rect class="edge_bg" x="-1.6322368047402698" y="-0.9416664023904451" width="0.16963927421580483" height="0.16963927421580483"/>
<text class="edge_text" text-anchor="middle" dominant-baseline="middle" transform="matrix(0.008481963710790241 0 0 0.008481963710790241 -1.5474171676323674 -0.8568467652825427)">47</text>
<rect class="edge_bg" x="-1.8299726371079026" y="-0.011392204405308887" width="0.16963927421580483" height="0.16963927421580483"/>
<text class="edge_text" text-anchor="middle" dominant-baseline="middle" transform="matrix(0.008481963710790241 0 0 0.008481963710790241 -1.7451530000000002 0.07342743270259353)">45</text>
<rect class="edge_bg" x="-1.3299726371079026" y="-0.011392069810495953" width="0.16963927421580483" height="0.16963927421580483"/>
<text class="edge_text" text-anchor="middle" dominant-baseline="middle" transform="matrix(0.008481963710790241 0 0 0.008481963710790241 -1.2451530000000002 0.07342756729740646)">4</text>
</svg>
