<?xml version="1.0" encoding="utf-8"?>
<svg version="1.1" xmlns="http://www.w3.org/2000/svg" viewBox="-9.576026689453254 -8.279949603817853 18.037847378605065 17.932239206882958" style="enable-background:new -9.576026689453254 -8.279949603817853 18.037847378605065 17.932239206882958;">
<style type="text/css">
  .face_stroke {fill:none; stroke:#000000; stroke-width:0.02; stroke-miterlimit:10;}
  .face_text {fill:#000000; font-family:monospace;}
  .edge_text {fill:#ff0000; font-family:monospace;}
  .edge_bg {fill:#f3f3f3; stroke:#606060; stroke-width:0.01;}
</style>
<polygon class="face_stroke" points="0.288675134594813,-0.5 -0.5773502691896258,-7.07050159149938e-17 0.288675134594813,0.5"/>
<polygon class="face_stroke" points="0.28867486540518683,0.4999999999999999 1.1547002691896258,1.414100318299876e-16 0.28867486540518755,-0.5000000000000003"/>
<polygon class="face_stroke" points="0.2886752591761126,0.49999995660010166 -0.44961773182138653,1.1744800967406155 -1.0256565503266262,1.9919024352995076 -1.4125062614074655,2.9140452122254414 -1.5920782025263374,3.8977900561574463 -1.5559757892964003,4.8971381515471215 -1.305887130435337,5.865361092149687 -0.8535060936779089,6.757185849365069 -0.21998551351748308,7.530911688737906 0.5650518918251906,8.150360049953628 1.4648986457826942,8.586566216109194 2.437478914247818,8.819133671683502 3.4373159248124594,8.837187820934062 4.417658410101636,8.639884471907664 5.332666645075648,8.236449309917855 6.139555861625716,7.645746514753306 6.8005968167789135,6.895396692596907 7.284879970166537,6.020485367178754 7.569760779778235,5.061922419681321 7.641918535578855,4.0645291881633705 7.497979221104737,3.074942671607733 7.144673278723639,2.1394348356821347 6.598520901629943,1.301748987052168 5.885059567971785,0.6010543849788235 5.037649936755708,0.070114730288938 4.095915940509201,-0.2662438288612421 3.1038920142345963,-0.3922935400815355 2.1079640941690916,-0.3021404589694736 1.1547006629605712,-4.3399906779484354e-08"/>
<polygon class="face_stroke" points="0.2886751409594286,0.49999975949439535 -0.6645882897035758,0.19785934220369295 -0.4496178512558531,1.1744798983019118"/>
<polygon class="face_stroke" points="-0.6645881487441472,0.19785910169808818 -1.4028811409594286,0.8723392405056046 -0.4496177102964246,1.1744796577963073"/>
<polygon class="face_stroke" points="-0.6645882736980773,0.19785990952454657 -0.0885494537169711,-0.6195624279942997 0.2983002590288093,-1.5417052042217707 0.4778722019238444,-2.525450047829554 0.4417697904982445,-3.5247981432844138 0.19168113338532056,-4.493021084338515 -0.26069990176190494,-5.3848458423706775 -0.8942204805253562,-6.158571682887343 -1.6792578847496062,-6.778020045520462 -2.579104637919537,-7.214226213300713 -3.5516849059647555,-7.44679367063103 -4.551521916496799,-7.46484782168681 -5.531864402142212,-7.267544474430432 -6.446872637844631,-6.864109314092683 -7.2537618554612235,-6.273406520384982 -7.91480281196919,-5.5230566994220975 -8.399085966936475,-4.648145374878327 -8.683966778278872,-3.689582427895242 -8.756124535880296,-2.6921891965075737 -8.612185223192888,-1.70260267969205 -8.258879282500857,-0.767094843128552 -7.712726906919612,0.07059100648749972 -6.999265574526566,0.7712856098490048 -6.151855944269094,1.302225266068902 -5.21012194862989,1.6385838269193886 -4.218098022582869,1.7646335399307898 -3.2221701023545966,1.674480460616886 -2.2689066706005585,1.3723400467684446 -1.4028812659133627,0.8723400483320662"/>
<text class="face_text" text-anchor="middle" dominant-baseline="middle" transform="matrix(0.035864478413765916 0 0 0.035864478413765916 0.0 0.0)">0</text>
<text class="face_text" text-anchor="middle" dominant-baseline="middle" transform="matrix(0.035864478413765916 0 0 0.035864478413765916 0.57735 0.0)">57</text>
<text class="face_text" text-anchor="middle" dominant-baseline="middle" transform="matrix(0.035864478413765916 0 0 0.035864478413765916 3.0204 4.231486)">59</text>
<text class="face_text" text-anchor="middle" dominant-baseline="middle" transform="matrix(0.035864478413765916 0 0 0.035864478413765916 -0.275177 0.624113)">1</text>
<text class="face_text" text-anchor="middle" dominant-baseline="middle" transform="matrix(0.035864478413765916 0 0 0.035864478413765916 -0.839029 0.748226)">2</text>
<text class="face_text" text-anchor="middle" dominant-baseline="middle" transform="matrix(0.035864478413765916 0 0 0.035864478413765916 -4.134606 -2.859146)">58</text>
<rect class="edge_bg" x="-0.0699699187324721" y="-0.3586447841376592" width="0.7172895682753183" height="0.7172895682753183"/>
<text class="edge_text" text-anchor="middle" dominant-baseline="middle" transform="matrix(0.035864478413765916 0 0 0.035864478413765916 0.28867486540518705 -3.535250795749691e-17)">0</text>
<rect class="edge_bg" x="0.3630431769306726" y="-0.10864482753755705" width="0.7172895682753183" height="0.7172895682753183"/>
<text class="edge_text" text-anchor="middle" dominant-baseline="middle" transform="matrix(0.035864478413765916 0 0 0.035864478413765916 0.7216879610683318 0.2499999566001021)">6</text>
<rect class="edge_bg" x="-0.43911613928587123" y="0.47859504476049436" width="0.7172895682753183" height="0.7172895682753183"/>
<text class="edge_text" text-anchor="middle" dominant-baseline="middle" transform="matrix(0.035864478413765916 0 0 0.035864478413765916 -0.08047135514821208 0.8372398288981535)">5</text>
<rect class="edge_bg" x="-0.9157477136579448" y="0.32752459560953845" width="0.7172895682753183" height="0.7172895682753183"/>
<text class="edge_text" text-anchor="middle" dominant-baseline="middle" transform="matrix(0.035864478413765916 0 0 0.035864478413765916 -0.5571029295202856 0.6861693797471976)">7</text>
<rect class="edge_bg" x="-1.392379553943377" y="0.17645519479064525" width="0.7172895682753183" height="0.7172895682753183"/>
<text class="edge_text" text-anchor="middle" dominant-baseline="middle" transform="matrix(0.035864478413765916 0 0 0.035864478413765916 -1.0337347698057178 0.5350999789283044)">8</text>
</svg>
