<?xml version="1.0" encoding="utf-8"?>
<svg version="1.1" xmlns="http://www.w3.org/2000/svg" viewBox="-2.053778039431597 -0.9668593910467035 10.15739641191571 10.27090660302747" style="enable-background:new -2.053778039431597 -0.9668593910467035 10.15739641191571 10.27090660302747;">
<style type="text/css">
  .face_stroke {fill:none; stroke:#000000; stroke-width:0.02; stroke-miterlimit:10;}
  .face_text {fill:#000000; font-family:monospace;}
  .edge_text {fill:#ff0000; font-family:monospace;}
  .edge_bg {fill:#f3f3f3; stroke:#606060; stroke-width:0.01;}
</style>
<polygon class="face_stroke" points="0.288675134594813,-0.5 -0.5773502691896258,-7.07050159149938e-17 0.288675134594813,0.5"/>
<polygon class="face_stroke" points="0.28867486540518683,0.4999999999999999 1.1547002691896258,1.414100318299876e-16 0.28867486540518755,-0.5000000000000003"/>
<polygon class="face_stroke" points="0.2886752591761126,0.49999995660010166 -0.44961773182138653,1.1744800967406155 -1.0256565503266262,1.9919024352995076 -1.4125062614074655,2.9140452122254414 -1.5920782025263374,3.8977900561574463 -1.5559757892964003,4.8971381515471215 -1.305887130435337,5.865361092149687 -0.8535060936779089,6.757185849365069 -0.21998551351748308,7.530911688737906 0.5650518918251906,8.150360049953628 1.4648986457826942,8.586566216109194 2.437478914247818,8.819133671683502 3.4373159248124594,8.837187820934062 4.417658410101636,8.639884471907664 5.332666645075648,8.236449309917855 6.139555861625716,7.645746514753306 6.8005968167789135,6.895396692596907 7.284879970166537,6.020485367178754 7.569760779778235,5.061922419681321 7.641918535578855,4.0645291881633705 7.497979221104737,3.074942671607733 7.144673278723639,2.1394348356821347 6.598520901629943,1.301748987052168 5.885059567971785,0.6010543849788235 5.037649936755708,0.070114730288938 4.095915940509201,-0.2662438288612421 3.1038920142345963,-0.3922935400815355 2.1079640941690916,-0.3021404589694736 1.1547006629605712,-4.3399906779484354e-08"/>
<polygon class="face_stroke" points="-0.4496180862676892,1.1744799160765287 -1.4455460060076484,1.0843268313681418 -1.0256569077246624,1.9919022525553296"/>
<polygon class="face_stroke" points="-0.44961799399235153,1.1744801686318582 -0.8695070922753375,0.2669047474446705 -1.4455459137323108,1.084327083923471"/>
<polygon class="face_stroke" points="-0.44961790772466226,1.1744802525553295 0.12642091373231085,0.3570579160765288 -0.8695070060076484,0.26690483136814175"/>
<text class="face_text" text-anchor="middle" dominant-baseline="middle" transform="matrix(0.02031479282383142 0 0 0.02031479282383142 0.0 0.0)">0</text>
<text class="face_text" text-anchor="middle" dominant-baseline="middle" transform="matrix(0.02031479282383142 0 0 0.02031479282383142 0.57735 0.0)">57</text>
<text class="face_text" text-anchor="middle" dominant-baseline="middle" transform="matrix(0.02031479282383142 0 0 0.02031479282383142 3.0204 4.231486)">59</text>
<text class="face_text" text-anchor="middle" dominant-baseline="middle" transform="matrix(0.02031479282383142 0 0 0.02031479282383142 -0.973607 1.416903)">3</text>
<text class="face_text" text-anchor="middle" dominant-baseline="middle" transform="matrix(0.02031479282383142 0 0 0.02031479282383142 -0.921557 0.841904)">2</text>
<text class="face_text" text-anchor="middle" dominant-baseline="middle" transform="matrix(0.02031479282383142 0 0 0.02031479282383142 -0.397568 0.599481)">1</text>
<rect class="edge_bg" x="0.08552693716687285" y="-0.20314792823831423" width="0.4062958564766284" height="0.4062958564766284"/>
<text class="edge_text" text-anchor="middle" dominant-baseline="middle" transform="matrix(0.02031479282383142 0 0 0.02031479282383142 0.28867486540518705 -3.535250795749691e-17)">0</text>
<rect class="edge_bg" x="0.5185400328300176" y="0.046852028361787895" width="0.4062958564766284" height="0.4062958564766284"/>
<text class="edge_text" text-anchor="middle" dominant-baseline="middle" transform="matrix(0.02031479282383142 0 0 0.02031479282383142 0.7216879610683318 0.2499999566001021)">6</text>
<rect class="edge_bg" x="-0.9407854252344899" y="1.380043156077615" width="0.4062958564766284" height="0.4062958564766284"/>
<text class="edge_text" text-anchor="middle" dominant-baseline="middle" transform="matrix(0.02031479282383142 0 0 0.02031479282383142 -0.7376374969961758 1.5831910843159291)">10</text>
<rect class="edge_bg" x="-1.1507298821006453" y="0.9262556980393506" width="0.4062958564766284" height="0.4062958564766284"/>
<text class="edge_text" text-anchor="middle" dominant-baseline="middle" transform="matrix(0.02031479282383142 0 0 0.02031479282383142 -0.9475819538623311 1.1294036262776648)">9</text>
<rect class="edge_bg" x="-0.8627103851044696" y="0.5175446137234214" width="0.4062958564766284" height="0.4062958564766284"/>
<text class="edge_text" text-anchor="middle" dominant-baseline="middle" transform="matrix(0.02031479282383142 0 0 0.02031479282383142 -0.6595624568661554 0.7206925419617356)">7</text>
</svg>
