<?xml version="1.0" encoding="utf-8"?>
<svg version="1.1" xmlns="http://www.w3.org/2000/svg" viewBox="-11.000872489769769 -6.490866154608238 19.53054297893665 16.057961307710983" style="enable-background:new -11.000872489769769 -6.490866154608238 19.53054297893665 16.057961307710983;">
<style type="text/css">
  .face_stroke {fill:none; stroke:#000000; stroke-width:0.02; stroke-miterlimit:10;}
  .face_text {fill:#000000; font-family:monospace;}
  .edge_text {fill:#ff0000; font-family:monospace;}
  .edge_bg {fill:#f3f3f3; stroke:#606060; stroke-width:0.01;}
</style>
<polygon class="face_stroke" points="0.288675134594813,-0.5 -0.5773502691896258,-7.07050159149938e-17 0.288675134594813,0.5"/>
<polygon class="face_stroke" points="0.28867486540518683,0.4999999999999999 1.1547002691896258,1.414100318299876e-16 0.28867486540518755,-0.5000000000000003"/>
<polygon class="face_stroke" points="0.2886752591761126,0.49999995660010166 -0.44961773182138653,1.1744800967406155 -1.0256565503266262,1.9919024352995076 -1.4125062614074655,2.9140452122254414 -1.5920782025263374,3.8977900561574463 -1.5559757892964003,4.8971381515471215 -1.305887130435337,5.865361092149687 -0.8535060936779089,6.757185849365069 -0.21998551351748308,7.530911688737906 0.5650518918251906,8.150360049953628 1.4648986457826942,8.586566216109194 2.437478914247818,8.819133671683502 3.4373159248124594,8.837187820934062 4.417658410101636,8.639884471907664 5.332666645075648,8.236449309917855 6.139555861625716,7.645746514753306 6.8005968167789135,6.895396692596907 7.284879970166537,6.020485367178754 7.569760779778235,5.061922419681321 7.641918535578855,4.0645291881633705 7.497979221104737,3.074942671607733 7.144673278723639,2.1394348356821347 6.598520901629943,1.301748987052168 5.885059567971785,0.6010543849788235 5.037649936755708,0.070114730288938 4.095915940509201,-0.2662438288612421 3.1038920142345963,-0.3922935400815355 2.1079640941690916,-0.3021404589694736 1.1547006629605712,-4.3399906779484354e-08"/>
<polygon class="face_stroke" points="-0.4496180862676892,1.1744799160765287 -1.4455460060076484,1.0843268313681418 -1.0256569077246624,1.9919022525553296"/>
<polygon class="face_stroke" points="-1.4455460922753374,1.0843267474446705 -2.021584913732311,1.9017490839234712 -1.0256569939923514,1.9919021686318583"/>
<polygon class="face_stroke" points="-1.4455454577605682,1.0843265793109083 -1.0586957433498476,0.16218380378189945 -0.8791237986786475,-0.8215610395016639 -0.9152262082999121,-1.8209091350217075 -1.1653148636646966,-2.7891320765273475 -1.6176958972017217,-3.680956835376289 -2.251216474568201,-4.454682677036785 -3.036253877674029,-5.074131041087298 -3.9361006300563837,-5.510337210492236 -4.9086808976817,-5.742904669578559 -5.908517908181146,-5.760958822439557 -6.888860394182793,-5.563655476953199 -7.80386863061362,-5.16022031826751 -8.610757849296734,-4.569517526016657 -9.271798807159467,-3.819167706247291 -9.756081963706414,-2.9442563825779002 -10.04096277677951,-1.9856934361091683 -10.11312053618174,-0.9883002048517838 -9.96918122528104,0.0012863122236241864 -9.615875286278083,0.9367941494250223 -9.069722912209292,1.774480000027156 -8.356261581081355,2.475174604676827 -7.508851951782505,3.006114262426731 -6.567117956750597,3.3424728249775315 -5.575094030931164,3.468522539780044 -4.579166110540119,3.378369462264301 -3.625902678240559,3.0762290501369876 -2.7598772726506065,2.5762290532642282 -2.021584279217545,1.9017489157897127"/>
<polygon class="face_stroke" points="-1.445545547677673,1.0843274935591665 -0.45352162072031565,0.9582777877122138 -1.0586958316020119,0.16218471872861984"/>
<polygon class="face_stroke" points="-0.4535221683979886,0.9582772812713801 -0.06667245232232688,0.03613450644083349 -1.0586963792796846,0.1621842122877864"/>
<text class="face_text" text-anchor="middle" dominant-baseline="middle" transform="matrix(0.03211592261542197 0 0 0.03211592261542197 0.0 0.0)">0</text>
<text class="face_text" text-anchor="middle" dominant-baseline="middle" transform="matrix(0.03211592261542197 0 0 0.03211592261542197 0.57735 0.0)">57</text>
<text class="face_text" text-anchor="middle" dominant-baseline="middle" transform="matrix(0.03211592261542197 0 0 0.03211592261542197 3.0204 4.231486)">59</text>
<text class="face_text" text-anchor="middle" dominant-baseline="middle" transform="matrix(0.03211592261542197 0 0 0.03211592261542197 -0.973607 1.416903)">3</text>
<text class="face_text" text-anchor="middle" dominant-baseline="middle" transform="matrix(0.03211592261542197 0 0 0.03211592261542197 -1.497596 1.659326)">4</text>
<text class="face_text" text-anchor="middle" dominant-baseline="middle" transform="matrix(0.03211592261542197 0 0 0.03211592261542197 -5.491602 -1.155257)">58</text>
<text class="face_text" text-anchor="middle" dominant-baseline="middle" transform="matrix(0.03211592261542197 0 0 0.03211592261542197 -0.985921 0.73493)">2</text>
<text class="face_text" text-anchor="middle" dominant-baseline="middle" transform="matrix(0.03211592261542197 0 0 0.03211592261542197 -0.526297 0.385532)">1</text>
<rect class="edge_bg" x="-0.032484360749032604" y="-0.3211592261542197" width="0.6423184523084393" height="0.6423184523084393"/>
<text class="edge_text" text-anchor="middle" dominant-baseline="middle" transform="matrix(0.03211592261542197 0 0 0.03211592261542197 0.28867486540518705 -3.535250795749691e-17)">0</text>
<rect class="edge_bg" x="0.4005287349141121" y="-0.07115926955411755" width="0.6423184523084393" height="0.6423184523084393"/>
<text class="edge_text" text-anchor="middle" dominant-baseline="middle" transform="matrix(0.03211592261542197 0 0 0.03211592261542197 0.7216879610683318 0.2499999566001021)">6</text>
<rect class="edge_bg" x="-1.0587967231503954" y="1.2620318581617096" width="0.6423184523084393" height="0.6423184523084393"/>
<text class="edge_text" text-anchor="middle" dominant-baseline="middle" transform="matrix(0.03211592261542197 0 0 0.03211592261542197 -0.7376374969961758 1.5831910843159291)">10</text>
<rect class="edge_bg" x="-1.556760769288064" y="1.2169552318840449" width="0.6423184523084393" height="0.6423184523084393"/>
<text class="edge_text" text-anchor="middle" dominant-baseline="middle" transform="matrix(0.03211592261542197 0 0 0.03211592261542197 -1.2356015431338445 1.5381144580382644)">11</text>
<rect class="edge_bg" x="-2.0547240946432748" y="1.1718785213960885" width="0.6423184523084393" height="0.6423184523084393"/>
<text class="edge_text" text-anchor="middle" dominant-baseline="middle" transform="matrix(0.03211592261542197 0 0 0.03211592261542197 -1.7335648684890552 1.4930377475503083)">12</text>
<rect class="edge_bg" x="-1.5732799157940618" y="0.3020968799896735" width="0.6423184523084393" height="0.6423184523084393"/>
<text class="edge_text" text-anchor="middle" dominant-baseline="middle" transform="matrix(0.03211592261542197 0 0 0.03211592261542197 -1.2521206896398422 0.6232561061438932)">8</text>
<rect class="edge_bg" x="-1.0772684999930562" y="0.23907152062536363" width="0.6423184523084393" height="0.6423184523084393"/>
<text class="edge_text" text-anchor="middle" dominant-baseline="middle" transform="matrix(0.03211592261542197 0 0 0.03211592261542197 -0.7561092738388365 0.5602307467795833)">7</text>
</svg>
