<?xml version="1.0" encoding="utf-8"?>
<svg version="1.1" xmlns="http://www.w3.org/2000/svg" viewBox="-11.605713439769769 -5.632572004608238 20.164185878936653 15.158796007710983" style="enable-background:new -11.605713439769769 -5.632572004608238 20.164185878936653 15.158796007710983;">
<style type="text/css">
  .face_stroke {fill:none; stroke:#000000; stroke-width:0.02; stroke-miterlimit:10;}
  .face_text {fill:#000000; font-family:monospace;}
  .edge_text {fill:#ff0000; font-family:monospace;}
  .edge_bg {fill:#f3f3f3; stroke:#606060; stroke-width:0.01;}
</style>
<polygon class="face_stroke" points="0.288675134594813,-0.5 -0.5773502691896258,-7.07050159149938e-17 0.288675134594813,0.5"/>
<polygon class="face_stroke" points="0.28867486540518683,0.4999999999999999 1.1547002691896258,1.414100318299876e-16 0.28867486540518755,-0.5000000000000003"/>
<polygon class="face_stroke" points="0.2886752591761126,0.49999995660010166 -0.44961773182138653,1.1744800967406155 -1.0256565503266262,1.9919024352995076 -1.4125062614074655,2.9140452122254414 -1.5920782025263374,3.8977900561574463 -1.5559757892964003,4.8971381515471215 -1.305887130435337,5.865361092149687 -0.8535060936779089,6.757185849365069 -0.21998551351748308,7.530911688737906 0.5650518918251906,8.150360049953628 1.4648986457826942,8.586566216109194 2.437478914247818,8.819133671683502 3.4373159248124594,8.837187820934062 4.417658410101636,8.639884471907664 5.332666645075648,8.236449309917855 6.139555861625716,7.645746514753306 6.8005968167789135,6.895396692596907 7.284879970166537,6.020485367178754 7.569760779778235,5.061922419681321 7.641918535578855,4.0645291881633705 7.497979221104737,3.074942671607733 7.144673278723639,2.1394348356821347 6.598520901629943,1.301748987052168 5.885059567971785,0.6010543849788235 5.037649936755708,0.070114730288938 4.095915940509201,-0.2662438288612421 3.1038920142345963,-0.3922935400815355 2.1079640941690916,-0.3021404589694736 1.1547006629605712,-4.3399906779484354e-08"/>
<polygon class="face_stroke" points="-0.4496180862676892,1.1744799160765287 -1.4455460060076484,1.0843268313681418 -1.0256569077246624,1.9919022525553296"/>
<polygon class="face_stroke" points="-1.4455460922753374,1.0843267474446705 -2.021584913732311,1.9017490839234712 -1.0256569939923514,1.9919021686318583"/>
<polygon class="face_stroke" points="-2.0215850060076486,1.9017498313681416 -1.6016959077246626,2.8093252525553294 -1.0256570862676893,1.9919029160765287"/>
<polygon class="face_stroke" points="-2.0215850922753376,1.9017497474446703 -2.5976239137323107,2.7191720839234708 -1.6016959939923514,2.809325168631858"/>
<polygon class="face_stroke" points="-2.021584457760568,1.9017495793109083 -1.6347347433498474,0.9796068037818995 -1.4551627986786473,-0.00413803950166397 -1.4912652082999118,-1.0034861350217075 -1.7413538636646964,-1.9717090765273473 -2.1937348972017214,-2.8635338353762894 -2.827255474568201,-3.6372596770367847 -3.6122928776740286,-4.256708041087299 -4.512139630056383,-4.692914210492236 -5.4847198976817,-4.925481669578559 -6.484556908181146,-4.943535822439557 -7.464899394182793,-4.7462324769532 -8.37990763061362,-4.34279731826751 -9.186796849296734,-3.752094526016657 -9.847837807159467,-3.001744706247291 -10.332120963706414,-2.1268333825779 -10.61700177677951,-1.1682704361091683 -10.689159536181739,-0.1708772048517839 -10.545220225281042,0.8187093122236242 -10.191914286278081,1.7542171494250223 -9.645761912209291,2.591903000027156 -8.932300581081355,3.292597604676827 -8.084890951782505,3.823537262426731 -7.143156956750596,4.159895824977531 -6.151133030931164,4.285945539780044 -5.155205110540119,4.195792462264301 -4.2019416782405585,3.8936520501369873 -3.335916272650606,3.3936520532642285 -2.5976232792175447,2.7191719157897127"/>
<polygon class="face_stroke" points="-1.6347346489664119,0.9796064649946827 -0.6930006502907046,0.6432479126457594 -1.455162700742883,-0.004138377640442448"/>
<polygon class="face_stroke" points="-0.6930012992571164,0.6432483776404423 -0.5134293510335881,-0.34049646499468267 -1.4551633497092955,-0.004137912645759828"/>
<text class="face_text" text-anchor="middle" dominant-baseline="middle" transform="matrix(0.030317592015421967 0 0 0.030317592015421967 0.0 0.0)">0</text>
<text class="face_text" text-anchor="middle" dominant-baseline="middle" transform="matrix(0.030317592015421967 0 0 0.030317592015421967 0.57735 0.0)">57</text>
<text class="face_text" text-anchor="middle" dominant-baseline="middle" transform="matrix(0.030317592015421967 0 0 0.030317592015421967 3.0204 4.231486)">59</text>
<text class="face_text" text-anchor="middle" dominant-baseline="middle" transform="matrix(0.030317592015421967 0 0 0.030317592015421967 -0.973607 1.416903)">3</text>
<text class="face_text" text-anchor="middle" dominant-baseline="middle" transform="matrix(0.030317592015421967 0 0 0.030317592015421967 -1.497596 1.659326)">4</text>
<text class="face_text" text-anchor="middle" dominant-baseline="middle" transform="matrix(0.030317592015421967 0 0 0.030317592015421967 -1.549646 2.234326)">5</text>
<text class="face_text" text-anchor="middle" dominant-baseline="middle" transform="matrix(0.030317592015421967 0 0 0.030317592015421967 -2.073635 2.476749)">6</text>
<text class="face_text" text-anchor="middle" dominant-baseline="middle" transform="matrix(0.030317592015421967 0 0 0.030317592015421967 -6.067641 -0.337834)">58</text>
<text class="face_text" text-anchor="middle" dominant-baseline="middle" transform="matrix(0.030317592015421967 0 0 0.030317592015421967 -1.260966 0.539572)">2</text>
<text class="face_text" text-anchor="middle" dominant-baseline="middle" transform="matrix(0.030317592015421967 0 0 0.030317592015421967 -0.887198 0.099538)">1</text>
<rect class="edge_bg" x="-0.014501054749032627" y="-0.30317592015421974" width="0.6063518403084394" height="0.6063518403084394"/>
<text class="edge_text" text-anchor="middle" dominant-baseline="middle" transform="matrix(0.030317592015421967 0 0 0.030317592015421967 0.28867486540518705 -3.535250795749691e-17)">0</text>
<rect class="edge_bg" x="0.4185120409141121" y="-0.05317596355411758" width="0.6063518403084394" height="0.6063518403084394"/>
<text class="edge_text" text-anchor="middle" dominant-baseline="middle" transform="matrix(0.030317592015421967 0 0 0.030317592015421967 0.7216879610683318 0.2499999566001021)">6</text>
<rect class="edge_bg" x="-1.0408134171503955" y="1.2800151641617095" width="0.6063518403084394" height="0.6063518403084394"/>
<text class="edge_text" text-anchor="middle" dominant-baseline="middle" transform="matrix(0.030317592015421967 0 0 0.030317592015421967 -0.7376374969961758 1.5831910843159291)">10</text>
<rect class="edge_bg" x="-1.5387774632880642" y="1.2349385378840447" width="0.6063518403084394" height="0.6063518403084394"/>
<text class="edge_text" text-anchor="middle" dominant-baseline="middle" transform="matrix(0.030317592015421967 0 0 0.030317592015421967 -1.2356015431338445 1.5381144580382644)">11</text>
<rect class="edge_bg" x="-1.8267969662918886" y="1.6436504535681153" width="0.6063518403084394" height="0.6063518403084394"/>
<text class="edge_text" text-anchor="middle" dominant-baseline="middle" transform="matrix(0.030317592015421967 0 0 0.030317592015421967 -1.523621046137669 1.946826373722335)">13</text>
<rect class="edge_bg" x="-2.114816463288064" y="2.0523615378840443" width="0.6063518403084394" height="0.6063518403084394"/>
<text class="edge_text" text-anchor="middle" dominant-baseline="middle" transform="matrix(0.030317592015421967 0 0 0.030317592015421967 -1.8116405431338445 2.355537458038264)">15</text>
<rect class="edge_bg" x="-2.612779788643275" y="2.007284827396089" width="0.6063518403084394" height="0.6063518403084394"/>
<text class="edge_text" text-anchor="middle" dominant-baseline="middle" transform="matrix(0.030317592015421967 0 0 0.030317592015421967 -2.309603868489055 2.3104607475503083)">16</text>
<rect class="edge_bg" x="-1.8481245950088674" y="0.18455812352290046" width="0.6063518403084394" height="0.6063518403084394"/>
<text class="edge_text" text-anchor="middle" dominant-baseline="middle" transform="matrix(0.030317592015421967 0 0 0.030317592015421967 -1.5449486748546477 0.48773404367712014)">8</text>
<rect class="edge_bg" x="-1.3772582446374257" y="0.016379312343121677" width="0.6063518403084394" height="0.6063518403084394"/>
<text class="edge_text" text-anchor="middle" dominant-baseline="middle" transform="matrix(0.030317592015421967 0 0 0.030317592015421967 -1.074082324483206 0.31955523249734136)">7</text>
</svg>
