<?xml version="1.0" encoding="utf-8"?>
<svg version="1.1" xmlns="http://www.w3.org/2000/svg" viewBox="-2.5006605018404997 -0.9668593910467035 10.625558991582182 10.27090660302747" style="enable-background:new -2.5006605018404997 -0.9668593910467035 10.625558991582182 10.27090660302747;">
<style type="text/css">
  .face_stroke {fill:none; stroke:#000000; stroke-width:0.02; stroke-miterlimit:10;}
  .face_text {fill:#000000; font-family:monospace;}
  .edge_text {fill:#ff0000; font-family:monospace;}
  .edge_bg {fill:#f3f3f3; stroke:#606060; stroke-width:0.01;}
</style>
<polygon class="face_stroke" points="0.288675134594813,-0.5 -0.5773502691896258,-7.07050159149938e-17 0.288675134594813,0.5"/>
<polygon class="face_stroke" points="0.28867486540518683,0.4999999999999999 1.1547002691896258,1.414100318299876e-16 0.28867486540518755,-0.5000000000000003"/>
<polygon class="face_stroke" points="0.2886752591761126,0.49999995660010166 -0.44961773182138653,1.1744800967406155 -1.0256565503266262,1.9919024352995076 -1.4125062614074655,2.9140452122254414 -1.5920782025263374,3.8977900561574463 -1.5559757892964003,4.8971381515471215 -1.305887130435337,5.865361092149687 -0.8535060936779089,6.757185849365069 -0.21998551351748308,7.530911688737906 0.5650518918251906,8.150360049953628 1.4648986457826942,8.586566216109194 2.437478914247818,8.819133671683502 3.4373159248124594,8.837187820934062 4.417658410101636,8.639884471907664 5.332666645075648,8.236449309917855 6.139555861625716,7.645746514753306 6.8005968167789135,6.895396692596907 7.284879970166537,6.020485367178754 7.569760779778235,5.061922419681321 7.641918535578855,4.0645291881633705 7.497979221104737,3.074942671607733 7.144673278723639,2.1394348356821347 6.598520901629943,1.301748987052168 5.885059567971785,0.6010543849788235 5.037649936755708,0.070114730288938 4.095915940509201,-0.2662438288612421 3.1038920142345963,-0.3922935400815355 2.1079640941690916,-0.3021404589694736 1.1547006629605712,-4.3399906779484354e-08"/>
<polygon class="face_stroke" points="-1.0256564523223268,1.9919025064408333 -2.0176803792796845,2.1179522122877863 -1.4125061683979887,2.91404528127138"/>
<polygon class="face_stroke" points="-1.0256566207203155,1.9919027877122137 -1.6308308316020115,1.1958097187286199 -2.0176805476776734,2.1179524935591667"/>
<polygon class="face_stroke" points="-1.0256571683979887,1.99190228127138 -0.6388074523223269,1.0697595064408336 -1.6308313792796847,1.1958092122877864"/>
<polygon class="face_stroke" points="-0.6388066207203154,1.0697597877122136 -1.2439808316020113,0.2736667187286199 -1.630830547677673,1.1958094935591665"/>
<polygon class="face_stroke" points="-0.6388071683979887,1.06975928127138 -0.2519574523223269,0.14761650644083352 -1.2439813792796848,0.2736662122877864"/>
<text class="face_text" text-anchor="middle" dominant-baseline="middle" transform="matrix(0.02054181320605494 0 0 0.02054181320605494 0.0 0.0)">0</text>
<text class="face_text" text-anchor="middle" dominant-baseline="middle" transform="matrix(0.02054181320605494 0 0 0.02054181320605494 0.57735 0.0)">57</text>
<text class="face_text" text-anchor="middle" dominant-baseline="middle" transform="matrix(0.02054181320605494 0 0 0.02054181320605494 3.0204 4.231486)">59</text>
<text class="face_text" text-anchor="middle" dominant-baseline="middle" transform="matrix(0.02054181320605494 0 0 0.02054181320605494 -1.485281 2.3413)">5</text>
<text class="face_text" text-anchor="middle" dominant-baseline="middle" transform="matrix(0.02054181320605494 0 0 0.02054181320605494 -1.558056 1.768555)">4</text>
<text class="face_text" text-anchor="middle" dominant-baseline="middle" transform="matrix(0.02054181320605494 0 0 0.02054181320605494 -1.098432 1.419157)">3</text>
<text class="face_text" text-anchor="middle" dominant-baseline="middle" transform="matrix(0.02054181320605494 0 0 0.02054181320605494 -1.171206 0.846412)">2</text>
<text class="face_text" text-anchor="middle" dominant-baseline="middle" transform="matrix(0.02054181320605494 0 0 0.02054181320605494 -0.711582 0.497014)">1</text>
<rect class="edge_bg" x="0.08325673334463765" y="-0.20541813206054943" width="0.4108362641210988" height="0.4108362641210988"/>
<text class="edge_text" text-anchor="middle" dominant-baseline="middle" transform="matrix(0.02054181320605494 0 0 0.02054181320605494 0.28867486540518705 -3.535250795749691e-17)">0</text>
<rect class="edge_bg" x="0.5162698290077824" y="0.0445818245395527" width="0.4108362641210988" height="0.4108362641210988"/>
<text class="edge_text" text-anchor="middle" dominant-baseline="middle" transform="matrix(0.02054181320605494 0 0 0.02054181320605494 0.7216879610683318 0.2499999566001021)">6</text>
<rect class="edge_bg" x="-1.4244994424207071" y="2.247555761795557" width="0.4108362641210988" height="0.4108362641210988"/>
<text class="edge_text" text-anchor="middle" dominant-baseline="middle" transform="matrix(0.02054181320605494 0 0 0.02054181320605494 -1.2190813103601577 2.4529738938561065)">14</text>
<rect class="edge_bg" x="-1.7270867162595438" y="1.849509508575141" width="0.4108362641210988" height="0.4108362641210988"/>
<text class="edge_text" text-anchor="middle" dominant-baseline="middle" transform="matrix(0.02054181320605494 0 0 0.02054181320605494 -1.5216685841989943 2.0549276406356904)">13</text>
<rect class="edge_bg" x="-1.5336624058993862" y="1.3884376147190338" width="0.4108362641210988" height="0.4108362641210988"/>
<text class="edge_text" text-anchor="middle" dominant-baseline="middle" transform="matrix(0.02054181320605494 0 0 0.02054181320605494 -1.3282442738388367 1.5938557467795833)">11</text>
<rect class="edge_bg" x="-1.3402367162595437" y="0.9273665085751409" width="0.4108362641210988" height="0.4108362641210988"/>
<text class="edge_text" text-anchor="middle" dominant-baseline="middle" transform="matrix(0.02054181320605494 0 0 0.02054181320605494 -1.1348185841989942 1.1327846406356903)">9</text>
<rect class="edge_bg" x="-1.146812405899386" y="0.466294614719034" width="0.4108362641210988" height="0.4108362641210988"/>
<text class="edge_text" text-anchor="middle" dominant-baseline="middle" transform="matrix(0.02054181320605494 0 0 0.02054181320605494 -0.9413942738388366 0.6717127467795834)">7</text>
</svg>
