<?xml version="1.0" encoding="utf-8"?>
<svg version="1.1" xmlns="http://www.w3.org/2000/svg" viewBox="-11.601614240086283 -5.405558855398622 20.15989147926824 14.920972708539002" style="enable-background:new -11.601614240086283 -5.405558855398622 20.15989147926824 14.920972708539002;">
<style type="text/css">
  .face_stroke {fill:none; stroke:#000000; stroke-width:0.02; stroke-miterlimit:10;}
  .face_text {fill:#000000; font-family:monospace;}
  .edge_text {fill:#ff0000; font-family:monospace;}
  .edge_bg {fill:#f3f3f3; stroke:#606060; stroke-width:0.01;}
</style>
<polygon class="face_stroke" points="0.288675134594813,-0.5 -0.5773502691896258,-7.07050159149938e-17 0.288675134594813,0.5"/>
<polygon class="face_stroke" points="0.28867486540518683,0.4999999999999999 1.1547002691896258,1.414100318299876e-16 0.28867486540518755,-0.5000000000000003"/>
<polygon class="face_stroke" points="0.2886752591761126,0.49999995660010166 -0.44961773182138653,1.1744800967406155 -1.0256565503266262,1.9919024352995076 -1.4125062614074655,2.9140452122254414 -1.5920782025263374,3.8977900561574463 -1.5559757892964003,4.8971381515471215 -1.305887130435337,5.865361092149687 -0.8535060936779089,6.757185849365069 -0.21998551351748308,7.530911688737906 0.5650518918251906,8.150360049953628 1.4648986457826942,8.586566216109194 2.437478914247818,8.819133671683502 3.4373159248124594,8.837187820934062 4.417658410101636,8.639884471907664 5.332666645075648,8.236449309917855 6.139555861625716,7.645746514753306 6.8005968167789135,6.895396692596907 7.284879970166537,6.020485367178754 7.569760779778235,5.061922419681321 7.641918535578855,4.0645291881633705 7.497979221104737,3.074942671607733 7.144673278723639,2.1394348356821347 6.598520901629943,1.301748987052168 5.885059567971785,0.6010543849788235 5.037649936755708,0.070114730288938 4.095915940509201,-0.2662438288612421 3.1038920142345963,-0.3922935400815355 2.1079640941690916,-0.3021404589694736 1.1547006629605712,-4.3399906779484354e-08"/>
<polygon class="face_stroke" points="-1.0256564523223268,1.9919025064408333 -2.0176803792796845,2.1179522122877863 -1.4125061683979887,2.91404528127138"/>
<polygon class="face_stroke" points="-1.0256566207203155,1.9919027877122137 -1.6308308316020115,1.1958097187286199 -2.0176805476776734,2.1179524935591667"/>
<polygon class="face_stroke" points="-1.6308307457285043,1.1958098117855693 -1.4512587992811392,0.21206496882622522 -1.4873612070980684,-0.7872831267590017 -1.7374498607147135,-1.7555060687161794 -2.1898308926415364,-2.647330828381901 -2.823351468611045,-3.4210566711862267 -3.6083888705984504,-4.040505036654135 -4.508235622193229,-4.476711207683758 -5.480815889398642,-4.709278668526087 -6.480652899865491,-4.727332823192304 -7.460995386223372,-4.530029479475967 -8.376003623382605,-4.126594322442338 -9.18289284313224,-3.535891531648335 -9.843933802349742,-2.785541713072485 -10.328216960476352,-1.9106303902774742 -10.613097775280146,-0.9520674443231028 -10.685255536483181,0.045325786804003995 -10.541316227369197,1.0349123041392942 -10.188010290055306,1.970420141978593 -9.64185791749897,2.808105993566812 -8.928396587636147,3.5088005995046467 -8.080986959295915,4.03974025878456 -7.1392529648713055,4.376098823035673 -6.147229039279458,4.502148539629299 -5.151301118725636,4.411995463911715 -4.198037685880558,4.109855053505531 -3.332012279387853,3.609855058196393 -2.593719284737006,2.935374922054872 -2.0176804618041677,2.117952586616121"/>
<polygon class="face_stroke" points="-1.6308306489664117,1.1958094649946827 -0.6890966502907044,0.8594509126457593 -1.4512587007428828,0.21206462235955748"/>
<polygon class="face_stroke" points="-0.6890972992571165,0.8594503776404423 -0.5095253510335881,-0.12429446499468266 -1.4512593497092954,0.2120640873542402"/>
<text class="face_text" text-anchor="middle" dominant-baseline="middle" transform="matrix(0.029841945417078006 0 0 0.029841945417078006 0.0 0.0)">0</text>
<text class="face_text" text-anchor="middle" dominant-baseline="middle" transform="matrix(0.029841945417078006 0 0 0.029841945417078006 0.57735 0.0)">57</text>
<text class="face_text" text-anchor="middle" dominant-baseline="middle" transform="matrix(0.029841945417078006 0 0 0.029841945417078006 3.0204 4.231486)">59</text>
<text class="face_text" text-anchor="middle" dominant-baseline="middle" transform="matrix(0.029841945417078006 0 0 0.029841945417078006 -1.485281 2.3413)">5</text>
<text class="face_text" text-anchor="middle" dominant-baseline="middle" transform="matrix(0.029841945417078006 0 0 0.029841945417078006 -1.558056 1.768555)">4</text>
<text class="face_text" text-anchor="middle" dominant-baseline="middle" transform="matrix(0.029841945417078006 0 0 0.029841945417078006 -6.063737 -0.121631)">58</text>
<text class="face_text" text-anchor="middle" dominant-baseline="middle" transform="matrix(0.029841945417078006 0 0 0.029841945417078006 -1.257062 0.755775)">2</text>
<text class="face_text" text-anchor="middle" dominant-baseline="middle" transform="matrix(0.029841945417078006 0 0 0.029841945417078006 -0.883294 0.31574)">1</text>
<rect class="edge_bg" x="-0.009744588765592976" y="-0.2984194541707801" width="0.5968389083415601" height="0.5968389083415601"/>
<text class="edge_text" text-anchor="middle" dominant-baseline="middle" transform="matrix(0.029841945417078006 0 0 0.029841945417078006 0.28867486540518705 -3.535250795749691e-17)">0</text>
<rect class="edge_bg" x="0.42326850689755174" y="-0.04841949757067793" width="0.5968389083415601" height="0.5968389083415601"/>
<text class="edge_text" text-anchor="middle" dominant-baseline="middle" transform="matrix(0.029841945417078006 0 0 0.029841945417078006 0.7216879610683318 0.2499999566001021)">6</text>
<rect class="edge_bg" x="-1.5175007645309377" y="2.1545544396853265" width="0.5968389083415601" height="0.5968389083415601"/>
<text class="edge_text" text-anchor="middle" dominant-baseline="middle" transform="matrix(0.029841945417078006 0 0 0.029841945417078006 -1.2190813103601577 2.4529738938561065)">14</text>
<rect class="edge_bg" x="-1.8200880383697744" y="1.7565081864649104" width="0.5968389083415601" height="0.5968389083415601"/>
<text class="edge_text" text-anchor="middle" dominant-baseline="middle" transform="matrix(0.029841945417078006 0 0 0.029841945417078006 -1.5216685841989943 2.0549276406356904)">13</text>
<rect class="edge_bg" x="-2.1226750579371148" y="1.3584617450300622" width="0.5968389083415601" height="0.5968389083415601"/>
<text class="edge_text" text-anchor="middle" dominant-baseline="middle" transform="matrix(0.029841945417078006 0 0 0.029841945417078006 -1.8242556037663347 1.6568811992008423)">12</text>
<rect class="edge_bg" x="-1.8394641290254277" y="0.40551758950634004" width="0.5968389083415601" height="0.5968389083415601"/>
<text class="edge_text" text-anchor="middle" dominant-baseline="middle" transform="matrix(0.029841945417078006 0 0 0.029841945417078006 -1.5410446748546476 0.7039370436771201)">8</text>
<rect class="edge_bg" x="-1.368597778653986" y="0.2373377783265614" width="0.5968389083415601" height="0.5968389083415601"/>
<text class="edge_text" text-anchor="middle" dominant-baseline="middle" transform="matrix(0.029841945417078006 0 0 0.029841945417078006 -1.070178324483206 0.5357572324973414)">7</text>
</svg>
