<?xml version="1.0" encoding="utf-8"?>
<svg version="1.1" xmlns="http://www.w3.org/2000/svg" viewBox="-5.755519788820224 -10.746358652237083 14.035411577941893 20.516096305226913" style="enable-background:new -5.755519788820224 -10.746358652237083 14.035411577941893 20.516096305226913;">
<style type="text/css">
  .face_stroke {fill:none; stroke:#000000; stroke-width:0.02; stroke-miterlimit:10;}
  .face_text {fill:#000000; font-family:monospace;}
  .edge_text {fill:#ff0000; font-family:monospace;}
  .edge_bg {fill:#f3f3f3; stroke:#606060; stroke-width:0.01;}
</style>
<polygon class="face_stroke" points="0.288675134594813,-0.5 -0.5773502691896258,-7.07050159149938e-17 0.288675134594813,0.5"/>
<polygon class="face_stroke" points="0.28867486540518683,0.4999999999999999 1.1547002691896258,1.414100318299876e-16 0.28867486540518755,-0.5000000000000003"/>
<polygon class="face_stroke" points="0.2886752591761126,0.49999995660010166 -0.44961773182138653,1.1744800967406155 -1.0256565503266262,1.9919024352995076 -1.4125062614074655,2.9140452122254414 -1.5920782025263374,3.8977900561574463 -1.5559757892964003,4.8971381515471215 -1.305887130435337,5.865361092149687 -0.8535060936779089,6.757185849365069 -0.21998551351748308,7.530911688737906 0.5650518918251906,8.150360049953628 1.4648986457826942,8.586566216109194 2.437478914247818,8.819133671683502 3.4373159248124594,8.837187820934062 4.417658410101636,8.639884471907664 5.332666645075648,8.236449309917855 6.139555861625716,7.645746514753306 6.8005968167789135,6.895396692596907 7.284879970166537,6.020485367178754 7.569760779778235,5.061922419681321 7.641918535578855,4.0645291881633705 7.497979221104737,3.074942671607733 7.144673278723639,2.1394348356821347 6.598520901629943,1.301748987052168 5.885059567971785,0.6010543849788235 5.037649936755708,0.070114730288938 4.095915940509201,-0.2662438288612421 3.1038920142345963,-0.3922935400815355 2.1079640941690916,-0.3021404589694736 1.1547006629605712,-4.3399906779484354e-08"/>
<polygon class="face_stroke" points="2.1079641409594285,-0.30214075949439534 1.369671148744147,-0.9766208983019118 1.154700710296424,-3.422036932154704e-07"/>
<polygon class="face_stroke" points="1.3696712897035757,-0.976620657796307 0.4164078590405714,-0.6744802405056046 1.154700851255853,-1.0169808828397464e-07"/>
<polygon class="face_stroke" points="1.3696713446794537,-0.9766209599686473 2.235696747561135,-1.4766209615322667 2.973989737340852,-2.1511011030057787 3.5500285543702246,-2.9685234426047167 3.936878263786122,-3.890666220229112 4.11645020312883,-4.874411064485334 4.080347788094557,-5.873759159809827 3.8302591274853546,-6.841982099960852 3.3778780891177265,-7.733806856359454 2.7443575075603306,-8.50753269458846 1.9593201010992356,-9.126981054386789 1.059473346354154,-9.563187218917669 0.08689307746912667,-9.795754672735974 -0.9129439331281107,-9.813808820181315 -1.8932864180610562,-9.616505469384894 -2.8082946523066603,-9.213070305743027 -3.6151838677902095,-8.622367509121627 -4.276224821588643,-7.872017685771707 -4.760507973396599,-6.997106359479178 -5.045388781277601,-6.038543411467382 -5.117546535277411,-5.041150179819147 -4.97360721901658,-4.051563663523394 -4.620301274946405,-3.1160558282356896 -4.0741488963402555,-2.2783699805918123 -3.36068756141698,-1.577675379806632 -2.5132779292422747,-1.0467357266467552 -1.5715439323884661,-0.7103771691968941 -0.5795200058862809,-0.5843274597677182 0.41640791401644695,-0.6744805426779443"/>
<polygon class="face_stroke" points="-2.513278648966412,-1.0467354649946827 -2.3337067007428836,-0.06299062235955788 -1.5715446502907047,-0.7103769126457592"/>
<polygon class="face_stroke" points="-2.3337063497092956,-0.06299008735424057 -1.391972351033588,0.2733684649946825 -1.5715442992571163,-0.7103763776404421"/>
<polygon class="face_stroke" points="-1.3919727007428835,0.27336837764044225 -0.6298106502907045,-0.3740179126457596 -1.571544648966412,-0.7103764649946827"/>
<polygon class="face_stroke" points="-1.3919723497092955,0.27336791264575944 -0.450238351033588,0.6097264649946825 -0.6298102992571163,-0.37401837764044216"/>
<text class="face_text" text-anchor="middle" dominant-baseline="middle" transform="matrix(0.028070823155883787 0 0 0.028070823155883787 0.0 0.0)">0</text>
<text class="face_text" text-anchor="middle" dominant-baseline="middle" transform="matrix(0.028070823155883787 0 0 0.028070823155883787 0.57735 0.0)">57</text>
<text class="face_text" text-anchor="middle" dominant-baseline="middle" transform="matrix(0.028070823155883787 0 0 0.028070823155883787 3.0204 4.231486)">59</text>
<text class="face_text" text-anchor="middle" dominant-baseline="middle" transform="matrix(0.028070823155883787 0 0 0.028070823155883787 1.544112 -0.426254)">55</text>
<text class="face_text" text-anchor="middle" dominant-baseline="middle" transform="matrix(0.028070823155883787 0 0 0.028070823155883787 0.98026 -0.550367)">56</text>
<text class="face_text" text-anchor="middle" dominant-baseline="middle" transform="matrix(0.028070823155883787 0 0 0.028070823155883787 -0.496028 -5.208107)">58</text>
<text class="face_text" text-anchor="middle" dominant-baseline="middle" transform="matrix(0.028070823155883787 0 0 0.028070823155883787 -2.13951 -0.606701)">4</text>
<text class="face_text" text-anchor="middle" dominant-baseline="middle" transform="matrix(0.028070823155883787 0 0 0.028070823155883787 -1.765741 -0.166666)">3</text>
<text class="face_text" text-anchor="middle" dominant-baseline="middle" transform="matrix(0.028070823155883787 0 0 0.028070823155883787 -1.197776 -0.270342)">2</text>
<text class="face_text" text-anchor="middle" dominant-baseline="middle" transform="matrix(0.028070823155883787 0 0 0.028070823155883787 -0.824007 0.169692)">1</text>
<rect class="edge_bg" x="0.007966633846349158" y="-0.28070823155883795" width="0.5614164631176758" height="0.5614164631176758"/>
<text class="edge_text" text-anchor="middle" dominant-baseline="middle" transform="matrix(0.028070823155883787 0 0 0.028070823155883787 0.28867486540518705 -3.535250795749691e-17)">0</text>
<rect class="edge_bg" x="0.4409797295094939" y="-0.030708274958735793" width="0.5614164631176758" height="0.5614164631176758"/>
<text class="edge_text" text-anchor="middle" dominant-baseline="middle" transform="matrix(0.028070823155883787 0 0 0.028070823155883787 0.7216879610683318 0.2499999566001021)">6</text>
<rect class="edge_bg" x="1.3506241940690886" y="-0.431778782407882" width="0.5614164631176758" height="0.5614164631176758"/>
<text class="edge_text" text-anchor="middle" dominant-baseline="middle" transform="matrix(0.028070823155883787 0 0 0.028070823155883787 1.6313324256279265 -0.15107055084904408)">114</text>
<rect class="edge_bg" x="0.9814778389208765" y="-0.7690186113060355" width="0.5614164631176758" height="0.5614164631176758"/>
<text class="edge_text" text-anchor="middle" dominant-baseline="middle" transform="matrix(0.028070823155883787 0 0 0.028070823155883787 1.2621860704797143 -0.48831037974719765)">115</text>
<rect class="edge_bg" x="0.6123313977891132" y="-1.1062589828821336" width="0.5614164631176758" height="0.5614164631176758"/>
<text class="edge_text" text-anchor="middle" dominant-baseline="middle" transform="matrix(0.028070823155883787 0 0 0.028070823155883787 0.8930396293479511 -0.8255507513232958)">2</text>
<rect class="edge_bg" x="-2.323119881187396" y="-1.1592644203790592" width="0.5614164631176758" height="0.5614164631176758"/>
<text class="edge_text" text-anchor="middle" dominant-baseline="middle" transform="matrix(0.028070823155883787 0 0 0.028070823155883787 -2.042411649628558 -0.8785561888202212)">12</text>
<rect class="edge_bg" x="-2.233333556042044" y="-0.6673914640561793" width="0.5614164631176758" height="0.5614164631176758"/>
<text class="edge_text" text-anchor="middle" dominant-baseline="middle" transform="matrix(0.028070823155883787 0 0 0.028070823155883787 -1.952625324483206 -0.3866832324973414)">11</text>
<rect class="edge_bg" x="-1.7624669064134855" y="-0.499212275235958" width="0.5614164631176758" height="0.5614164631176758"/>
<text class="edge_text" text-anchor="middle" dominant-baseline="middle" transform="matrix(0.028070823155883787 0 0 0.028070823155883787 -1.4817586748546476 -0.2185040436771201)">9</text>
<rect class="edge_bg" x="-1.291599556042044" y="-0.3310334640561793" width="0.5614164631176758" height="0.5614164631176758"/>
<text class="edge_text" text-anchor="middle" dominant-baseline="middle" transform="matrix(0.028070823155883787 0 0 0.028070823155883787 -1.010891324483206 -0.05032523249734136)">7</text>
</svg>
