<?xml version="1.0" encoding="utf-8"?>
<svg version="1.1" xmlns="http://www.w3.org/2000/svg" viewBox="-10.630685669166425 -5.163250115028634 21.10042833833285 12.00098022960523" style="enable-background:new -10.630685669166425 -5.163250115028634 21.10042833833285 12.00098022960523;">
<style type="text/css">
  .face_stroke {fill:none; stroke:#000000; stroke-width:0.02; stroke-miterlimit:10;}
  .face_text {fill:#000000; font-family:monospace;}
  .edge_text {fill:#ff0000; font-family:monospace;}
  .edge_bg {fill:#f3f3f3; stroke:#606060; stroke-width:0.01;}
</style>
<polygon class="face_stroke" points="0.288675134594813,-0.5 -0.5773502691896258,-7.07050159149938e-17 0.288675134594813,0.5"/>
<polygon class="face_stroke" points="0.28867492213666157,0.49999999999999956 0.5036453623476849,1.4766205557100847 0.9235344639079504,2.384195975381044 1.5287086791017157,3.1802890410866875 2.290870734229351,3.827675325868514 3.174382778675378,4.296083766568306 4.137932771194597,4.563612105097525 5.136466185045721,4.617751013682943 6.123292707587248,4.455969017130178 7.052269427404036,4.0858308617902654 7.879958425560927,3.5246437964278834 8.567657884414349,2.7986483045047557 9.08321174159137,1.9417911283371674 9.40251327172735,0.994137957154369 9.510632290151296,1.3454915986758427e-14 9.402513271727356,-0.9941379571543466 9.083211741591379,-1.9417911283371503 8.56765788441436,-2.798648304504741 7.8799584255609405,-3.5246437964278714 7.052269427404056,-4.085830861790255 6.12329270758727,-4.455969017130172 5.136466185045744,-4.617751013682942 4.137932771194619,-4.563612105097529 3.174382778675399,-4.296083766568314 2.2908707342293693,-3.827675325868527 1.5287086791017384,-3.180289041086712 0.9235344639079655,-2.3841959753810684 0.5036453623476964,-1.476620555710118 0.28867492213666424,-0.5000000000000284"/>
<polygon class="face_stroke" points="0.28867485125585285,0.5000001016980883 -0.4496181409594286,1.1744802405056047 0.5036452897035755,1.4766206577963072"/>
<polygon class="face_stroke" points="0.2886751409594286,0.49999975949439535 -0.6645882897035758,0.19785934220369295 -0.4496178512558531,1.1744798983019118"/>
<polygon class="face_stroke" points="-0.6645883596816287,0.1978594522024908 -1.0844774596032538,-0.7097159682265817 -1.6896516733596618,-1.5058090350248752 -2.4518137273184344,-2.153195321182796 -3.3353257709187387,-2.6216037634777782 -4.2988757629549355,-2.889132103746701 -5.297409176708309,-2.943271014134984 -6.284235699541934,-2.7814890193639483 -7.213212420027015,-2.4113508657013147 -8.040901419197137,-1.850163801833335 -8.728600879361355,-1.124168311151855 -9.244154738085445,-0.2673111359151048 -9.563456269932425,0.6803420346911966 -9.671575290151296,1.6744799916503441 -9.563456273522283,2.6686179489999162 -9.244154745097301,3.6162711207592215 -8.728600889467344,4.473128297857652 -8.040901431924716,5.199123791022433 -7.213212434781054,5.760310857879217 -6.284235715632552,6.130449014896411 -5.297409193383129,6.292231013230902 -4.2988757794342565,6.238092106448349 -3.335325786432011,5.970563769658831 -2.4518137411402705,5.502155330554234 -1.689651684843772,4.854769047148503 -1.084477468212648,4.058675982535505 -0.6645883650137465,3.151100563622671 -0.44961792303941994,2.1744800083007165 -0.4496179212339042,1.1744800083007205"/>
<polygon class="face_stroke" points="-0.6645879077246623,0.1978592525553295 -0.0885490862676892,-0.6195630839234711 -1.0844770060076485,-0.7097161686318583"/>
<text class="face_text" text-anchor="middle" dominant-baseline="middle" transform="matrix(0.02400196045921046 0 0 0.02400196045921046 0.0 0.0)">0</text>
<text class="face_text" text-anchor="middle" dominant-baseline="middle" transform="matrix(0.02400196045921046 0 0 0.02400196045921046 4.886099 0.0)">58</text>
<text class="face_text" text-anchor="middle" dominant-baseline="middle" transform="matrix(0.02400196045921046 0 0 0.02400196045921046 0.114234 1.050367)">56</text>
<text class="face_text" text-anchor="middle" dominant-baseline="middle" transform="matrix(0.02400196045921046 0 0 0.02400196045921046 -0.275177 0.624113)">57</text>
<text class="face_text" text-anchor="middle" dominant-baseline="middle" transform="matrix(0.02400196045921046 0 0 0.02400196045921046 -5.047042 1.67448)">59</text>
<text class="face_text" text-anchor="middle" dominant-baseline="middle" transform="matrix(0.02400196045921046 0 0 0.02400196045921046 -0.612538 -0.37714)">1</text>
<rect class="edge_bg" x="0.048655317544556986" y="-0.24001960459210514" width="0.48003920918420917" height="0.48003920918420917"/>
<text class="edge_text" text-anchor="middle" dominant-baseline="middle" transform="matrix(0.02400196045921046 0 0 0.02400196045921046 0.28867492213666157 -5.630220681278309e-16)">1</text>
<rect class="edge_bg" x="0.15614046588760977" y="0.7482907751550931" width="0.48003920918420917" height="0.48003920918420917"/>
<text class="edge_text" text-anchor="middle" dominant-baseline="middle" transform="matrix(0.02400196045921046 0 0 0.02400196045921046 0.39616007047971435 0.9883103797471977)">2</text>
<rect class="edge_bg" x="-0.32049095974031666" y="0.5972202243060489" width="0.48003920918420917" height="0.48003920918420917"/>
<text class="edge_text" text-anchor="middle" dominant-baseline="middle" transform="matrix(0.02400196045921046 0 0 0.02400196045921046 -0.08047135514821208 0.8372398288981535)">3</text>
<rect class="edge_bg" x="-0.7971227450498715" y="0.4461501256594953" width="0.48003920918420917" height="0.48003920918420917"/>
<text class="edge_text" text-anchor="middle" dominant-baseline="middle" transform="matrix(0.02400196045921046 0 0 0.02400196045921046 -0.5571031404577669 0.6861697302515999)">6</text>
<rect class="edge_bg" x="-1.11455206145826" y="-0.49594806263036895" width="0.48003920918420917" height="0.48003920918420917"/>
<text class="edge_text" text-anchor="middle" dominant-baseline="middle" transform="matrix(0.02400196045921046 0 0 0.02400196045921046 -0.8745324568661554 -0.25592845803826436)">5</text>
</svg>
