<?xml version="1.0" encoding="utf-8"?>
<svg version="1.1" xmlns="http://www.w3.org/2000/svg" viewBox="-10.449764369166427 -5.222680515006032 20.910891738332854 13.308449029107983" style="enable-background:new -10.449764369166427 -5.222680515006032 20.910891738332854 13.308449029107983;">
<style type="text/css">
  .face_stroke {fill:none; stroke:#000000; stroke-width:0.02; stroke-miterlimit:10;}
  .face_text {fill:#000000; font-family:monospace;}
  .edge_text {fill:#ff0000; font-family:monospace;}
  .edge_bg {fill:#f3f3f3; stroke:#606060; stroke-width:0.01;}
</style>
<polygon class="face_stroke" points="0.288675134594813,-0.5 -0.5773502691896258,-7.07050159149938e-17 0.288675134594813,0.5"/>
<polygon class="face_stroke" points="0.28867492213666157,0.49999999999999956 0.5036453623476849,1.4766205557100847 0.9235344639079504,2.384195975381044 1.5287086791017157,3.1802890410866875 2.290870734229351,3.827675325868514 3.174382778675378,4.296083766568306 4.137932771194597,4.563612105097525 5.136466185045721,4.617751013682943 6.123292707587248,4.455969017130178 7.052269427404036,4.0858308617902654 7.879958425560927,3.5246437964278834 8.567657884414349,2.7986483045047557 9.08321174159137,1.9417911283371674 9.40251327172735,0.994137957154369 9.510632290151296,1.3454915986758427e-14 9.402513271727356,-0.9941379571543466 9.083211741591379,-1.9417911283371503 8.56765788441436,-2.798648304504741 7.8799584255609405,-3.5246437964278714 7.052269427404056,-4.085830861790255 6.12329270758727,-4.455969017130172 5.136466185045744,-4.617751013682942 4.137932771194619,-4.563612105097529 3.174382778675399,-4.296083766568314 2.2908707342293693,-3.827675325868527 1.5287086791017384,-3.180289041086712 0.9235344639079655,-2.3841959753810684 0.5036453623476964,-1.476620555710118 0.28867492213666424,-0.5000000000000284"/>
<polygon class="face_stroke" points="0.5036459077246624,1.4766207474446706 -0.07239291373231083,2.294043083923471 0.9235350060076486,2.3841961686318585"/>
<polygon class="face_stroke" points="0.5036459137323108,1.476620916076529 -0.49228200600764843,1.3864678313681418 -0.07239290772466253,2.2940432525553294"/>
<polygon class="face_stroke" points="0.5036460060076484,1.4766201686318583 0.08375690772466246,0.5690447474446706 -0.49228191373231084,1.3864670839234712"/>
<polygon class="face_stroke" points="0.08375691373231081,0.5690449160765287 -0.9121710060076484,0.4788918313681417 -0.4922819077246625,1.3864672525553294"/>
<polygon class="face_stroke" points="-0.9121714552985569,0.47889203892788057 -1.5173456676176094,-0.3172010289630629 -2.2795077204075174,-0.9645873164970777 -3.1630197631621044,-1.4329957603872532 -4.126569754715275,-1.7005241023958777 -5.125103168370901,-1.7546630145870252 -6.111929691496626,-1.5928810215977172 -7.040906412649995,-1.2227428696123632 -7.868595412833347,-0.6615558072387882 -8.55629487430836,0.06443968220104201 -9.071848734579515,0.921296856506953 -9.391150268137496,1.8689500265367514 -9.499269290151297,2.8630879833006886 -9.391150275317212,3.857225940845471 -9.071848748603232,4.80487911318128 -8.556294894520343,5.6617362912105476 -7.8685954382885095,6.387731785616977 -7.040906442158076,6.948918853968168 -6.1119297236778625,7.3190570126626415 -5.125103201720539,7.48083901277886 -4.126569787673918,7.426700107799173 -3.163019794188643,7.159171772749355 -2.2795077480511883,6.690763335239952 -1.517345690585823,6.043377053210311 -0.9121714725173469,5.24728398968997 -0.4922823676798034,4.339708571535245 -0.2773119239421762,3.363088016601426 -0.27731192033114827,2.3630880166014254 -0.49228235701556855,1.3864674601150744"/>
<polygon class="face_stroke" points="-2.2795078433190414,-0.964586823886318 -2.3156102649692123,-1.9639349189718058 -3.1630198917117465,-1.4329952571418765"/>
<polygon class="face_stroke" points="-2.279507735030788,-0.9645870810281941 -1.432098108288254,-1.4955267428581236 -2.3156101566809584,-1.9639351761136823"/>
<polygon class="face_stroke" points="-2.279507891711746,-0.9645872571418763 -1.3959958433190418,-0.49617882388631757 -1.4320982649692127,-1.495526918971806"/>
<polygon class="face_stroke" points="-1.3959957350307874,-0.4961790810281942 -0.5485861082882537,-1.0271187428581237 -1.4320981566809583,-1.4955271761136824"/>
<polygon class="face_stroke" points="-1.3959958917117463,-0.4961792571418764 -0.5124838433190417,-0.02777082388631763 -0.5485862649692127,-1.027118918971806"/>
<text class="face_text" text-anchor="middle" dominant-baseline="middle" transform="matrix(0.026616898058215967 0 0 0.026616898058215967 0.0 0.0)">0</text>
<text class="face_text" text-anchor="middle" dominant-baseline="middle" transform="matrix(0.026616898058215967 0 0 0.026616898058215967 4.886099 0.0)">58</text>
<text class="face_text" text-anchor="middle" dominant-baseline="middle" transform="matrix(0.026616898058215967 0 0 0.026616898058215967 0.451596 2.05162)">54</text>
<text class="face_text" text-anchor="middle" dominant-baseline="middle" transform="matrix(0.026616898058215967 0 0 0.026616898058215967 -0.020343 1.719044)">55</text>
<text class="face_text" text-anchor="middle" dominant-baseline="middle" transform="matrix(0.026616898058215967 0 0 0.026616898058215967 0.031707 1.144044)">56</text>
<text class="face_text" text-anchor="middle" dominant-baseline="middle" transform="matrix(0.026616898058215967 0 0 0.026616898058215967 -0.440232 0.811468)">57</text>
<text class="face_text" text-anchor="middle" dominant-baseline="middle" transform="matrix(0.026616898058215967 0 0 0.026616898058215967 -4.874736 2.863088)">59</text>
<text class="face_text" text-anchor="middle" dominant-baseline="middle" transform="matrix(0.026616898058215967 0 0 0.026616898058215967 -2.586046 -1.453839)">5</text>
<text class="face_text" text-anchor="middle" dominant-baseline="middle" transform="matrix(0.026616898058215967 0 0 0.026616898058215967 -2.009072 -1.474683)">4</text>
<text class="face_text" text-anchor="middle" dominant-baseline="middle" transform="matrix(0.026616898058215967 0 0 0.026616898058215967 -1.702534 -0.985431)">3</text>
<text class="face_text" text-anchor="middle" dominant-baseline="middle" transform="matrix(0.026616898058215967 0 0 0.026616898058215967 -1.12556 -1.006275)">2</text>
<text class="face_text" text-anchor="middle" dominant-baseline="middle" transform="matrix(0.026616898058215967 0 0 0.026616898058215967 -0.819022 -0.517023)">1</text>
<rect class="edge_bg" x="0.022505941554501918" y="-0.2661689805821602" width="0.5323379611643193" height="0.5323379611643193"/>
<text class="edge_text" text-anchor="middle" dominant-baseline="middle" transform="matrix(0.026616898058215967 0 0 0.026616898058215967 0.28867492213666157 -5.630220681278309e-16)">1</text>
<rect class="edge_bg" x="0.44742147628399576" y="1.664239477456105" width="0.5323379611643193" height="0.5323379611643193"/>
<text class="edge_text" text-anchor="middle" dominant-baseline="middle" transform="matrix(0.026616898058215967 0 0 0.026616898058215967 0.7135904568661554 1.9304084580382646)">112</text>
<rect class="edge_bg" x="-0.05054247757833538" y="1.6191631037337695" width="0.5323379611643193" height="0.5323379611643193"/>
<text class="edge_text" text-anchor="middle" dominant-baseline="middle" transform="matrix(0.026616898058215967 0 0 0.026616898058215967 0.21562650300382427 1.8853320843159291)">113</text>
<rect class="edge_bg" x="-0.2604869344444908" y="1.1653746456955052" width="0.5323379611643193" height="0.5323379611643193"/>
<text class="edge_text" text-anchor="middle" dominant-baseline="middle" transform="matrix(0.026616898058215967 0 0 0.026616898058215967 0.005682046137668859 1.4315436262776648)">115</text>
<rect class="edge_bg" x="-0.47043147757833537" y="0.7115871037337694" width="0.5323379611643193" height="0.5323379611643193"/>
<text class="edge_text" text-anchor="middle" dominant-baseline="middle" transform="matrix(0.026616898058215967 0 0 0.026616898058215967 -0.20426249699617574 0.9777560843159291)">3</text>
<rect class="edge_bg" x="-0.9683958867392242" y="0.6665107689393144" width="0.5323379611643193" height="0.5323379611643193"/>
<text class="edge_text" text-anchor="middle" dominant-baseline="middle" transform="matrix(0.026616898058215967 0 0 0.026616898058215967 -0.7022269061570645 0.932679749521474)">6</text>
<rect class="edge_bg" x="-2.987432848097553" y="-1.4649600210962568" width="0.5323379611643193" height="0.5323379611643193"/>
<text class="edge_text" text-anchor="middle" dominant-baseline="middle" transform="matrix(0.026616898058215967 0 0 0.026616898058215967 -2.7212638675153937 -1.1987910405140971)">14</text>
<rect class="edge_bg" x="-2.563727926438033" y="-1.7304301091530978" width="0.5323379611643193" height="0.5323379611643193"/>
<text class="edge_text" text-anchor="middle" dominant-baseline="middle" transform="matrix(0.026616898058215967 0 0 0.026616898058215967 -2.297558945855873 -1.4642611285709382)">13</text>
<rect class="edge_bg" x="-2.1219720589226387" y="-1.4962260686390008" width="0.5323379611643193" height="0.5323379611643193"/>
<text class="edge_text" text-anchor="middle" dominant-baseline="middle" transform="matrix(0.026616898058215967 0 0 0.026616898058215967 -1.8558030783404793 -1.230057088056841)">11</text>
<rect class="edge_bg" x="-1.6802159264380327" y="-1.2620221091530979" width="0.5323379611643193" height="0.5323379611643193"/>
<text class="edge_text" text-anchor="middle" dominant-baseline="middle" transform="matrix(0.026616898058215967 0 0 0.026616898058215967 -1.414046945855873 -0.9958531285709382)">9</text>
<rect class="edge_bg" x="-1.238460058922639" y="-1.0278180686390008" width="0.5323379611643193" height="0.5323379611643193"/>
<text class="edge_text" text-anchor="middle" dominant-baseline="middle" transform="matrix(0.026616898058215967 0 0 0.026616898058215967 -0.9722910783404793 -0.7616490880568412)">7</text>
</svg>
