<?xml version="1.0" encoding="utf-8"?>
<svg version="1.1" xmlns="http://www.w3.org/2000/svg" viewBox="-5.590030319166425 -5.154526115051238 21.240934638332853 11.809052230102475" style="enable-background:new -5.590030319166425 -5.154526115051238 21.240934638332853 11.809052230102475;">
<style type="text/css">
  .face_stroke {fill:none; stroke:#000000; stroke-width:0.02; stroke-miterlimit:10;}
  .face_text {fill:#000000; font-family:monospace;}
  .edge_text {fill:#ff0000; font-family:monospace;}
  .edge_bg {fill:#f3f3f3; stroke:#606060; stroke-width:0.01;}
</style>
<polygon class="face_stroke" points="4.597424077863338,-0.4999999999999999 4.382453637652314,-1.4766205557100864 3.96256453609205,-2.3841959753810436 3.3573903208982845,-3.180289041086687 2.595228265770648,-3.8276753258685146 1.7117162213246253,-4.296083766568304 0.7481662288054032,-4.563612105097525 -0.2503671850457209,-4.617751013682943 -1.2371937075872463,-4.455969017130179 -2.1661704274040363,-4.0858308617902654 -2.993859425560929,-3.5246437964278816 -3.6815588844143523,-2.7986483045047508 -4.197112741591374,-1.9417911283371612 -4.516414271727354,-0.9941379571543584 -4.624533290151295,3.541068680363782e-15 -4.516414271727353,0.9941379571543613 -4.197112741591372,1.9417911283371658 -3.681558884414349,2.7986483045047548 -2.993859425560925,3.5246437964278847 -2.1661704274040336,4.085830861790266 -1.2371937075872415,4.45596901713018 -0.2503671850457149,4.617751013682943 0.7481662288054051,4.5636121050975245 1.7117162213246282,4.296083766568303 2.595228265770651,3.827675325868513 3.357390320898284,3.180289041086687 3.96256453609205,2.3841959753810436 4.382453637652313,1.47662055571009 4.597424077863337,0.5000000000000074"/>
<polygon class="face_stroke" points="4.597423865405187,0.4999999999999999 5.463449269189626,1.414100318299876e-16 4.5974238654051875,-0.5000000000000003"/>
<polygon class="face_stroke" points="4.597423730810374,0.49999999999999994 5.463449134594813,1.0 5.463449134594813,-1.1102230246251565e-16"/>
<polygon class="face_stroke" points="4.597423865405187,0.4999999999999999 4.597423865405187,1.5 5.463449269189626,1.0000000000000002"/>
<polygon class="face_stroke" points="4.597423730810374,1.5 5.463449134594813,2.0 5.463449134594813,0.9999999999999999"/>
<polygon class="face_stroke" points="5.463449922136662,1.9999999999999996 5.678420362347685,2.9766205557100847 6.098309463907951,3.884195975381044 6.703483679101716,4.680289041086688 7.465645734229351,5.327675325868514 8.349157778675378,5.796083766568306 9.312707771194598,6.063612105097525 10.311241185045722,6.117751013682943 11.298067707587247,5.955969017130178 12.227044427404035,5.5858308617902654 13.054733425560928,5.024643796427883 13.742432884414349,4.298648304504756 14.25798674159137,3.4417911283371674 14.577288271727351,2.494137957154369 14.685407290151296,1.5000000000000135 14.577288271727356,0.5058620428456534 14.25798674159138,-0.4417911283371503 13.74243288441436,-1.298648304504741 13.05473342556094,-2.0246437964278714 12.227044427404056,-2.585830861790255 11.29806770758727,-2.9559690171301716 10.311241185045745,-3.117751013682942 9.31270777119462,-3.063612105097529 8.3491577786754,-2.796083766568314 7.465645734229369,-2.327675325868527 6.703483679101739,-1.680289041086712 6.098309463907966,-0.8841959753810684 5.678420362347697,0.023379444289882034 5.463449922136665,0.9999999999999716"/>
<polygon class="face_stroke" points="6.098309168397988,3.8841957187286194 5.711459452322327,4.806338493559166 6.7034833792796835,4.680288787712214"/>
<polygon class="face_stroke" points="6.098308547677672,3.8841955064408333 5.106284620720315,4.010245212287787 5.711458831602011,4.80633828127138"/>
<polygon class="face_stroke" points="6.0983093792796845,3.8841957877122137 5.4931351683979885,3.08810271872862 5.106285452322327,4.010245493559166"/>
<polygon class="face_stroke" points="5.4931345476776725,3.0881025064408334 4.501110620720315,3.2141522122877864 5.106284831602011,4.01024528127138"/>
<polygon class="face_stroke" points="5.4931343792796845,3.088102787712214 4.8879601683979885,2.29200971872862 4.501110452322327,3.2141524935591668"/>
<polygon class="face_stroke" points="4.887960547677673,2.2920095064408335 3.895936620720315,2.4180592122877864 4.501110831602011,3.2141522812713803"/>
<text class="face_text" text-anchor="middle" dominant-baseline="middle" transform="matrix(0.02361810446020495 0 0 0.02361810446020495 0.0 0.0)">58</text>
<text class="face_text" text-anchor="middle" dominant-baseline="middle" transform="matrix(0.02361810446020495 0 0 0.02361810446020495 4.886099 0.0)">0</text>
<text class="face_text" text-anchor="middle" dominant-baseline="middle" transform="matrix(0.02361810446020495 0 0 0.02361810446020495 5.174774 0.5)">1</text>
<text class="face_text" text-anchor="middle" dominant-baseline="middle" transform="matrix(0.02361810446020495 0 0 0.02361810446020495 4.886099 1.0)">2</text>
<text class="face_text" text-anchor="middle" dominant-baseline="middle" transform="matrix(0.02361810446020495 0 0 0.02361810446020495 5.174774 1.5)">3</text>
<text class="face_text" text-anchor="middle" dominant-baseline="middle" transform="matrix(0.02361810446020495 0 0 0.02361810446020495 10.060874 1.5)">59</text>
<text class="face_text" text-anchor="middle" dominant-baseline="middle" transform="matrix(0.02361810446020495 0 0 0.02361810446020495 6.171084 4.456941)">9</text>
<text class="face_text" text-anchor="middle" dominant-baseline="middle" transform="matrix(0.02361810446020495 0 0 0.02361810446020495 5.638684 4.233593)">8</text>
<text class="face_text" text-anchor="middle" dominant-baseline="middle" transform="matrix(0.02361810446020495 0 0 0.02361810446020495 5.56591 3.660848)">7</text>
<text class="face_text" text-anchor="middle" dominant-baseline="middle" transform="matrix(0.02361810446020495 0 0 0.02361810446020495 5.03351 3.4375)">6</text>
<text class="face_text" text-anchor="middle" dominant-baseline="middle" transform="matrix(0.02361810446020495 0 0 0.02361810446020495 4.960735 2.864755)">5</text>
<text class="face_text" text-anchor="middle" dominant-baseline="middle" transform="matrix(0.02361810446020495 0 0 0.02361810446020495 4.428336 2.641407)">4</text>
<rect class="edge_bg" x="4.361242820803137" y="-0.23618104460204953" width="0.472362089204099" height="0.472362089204099"/>
<text class="edge_text" text-anchor="middle" dominant-baseline="middle" transform="matrix(0.02361810446020495 0 0 0.02361810446020495 4.597423865405187 -3.535250795749691e-17)">1</text>
<rect class="edge_bg" x="4.794255388100544" y="0.013818955397950389" width="0.472362089204099" height="0.472362089204099"/>
<text class="edge_text" text-anchor="middle" dominant-baseline="middle" transform="matrix(0.02361810446020495 0 0 0.02361810446020495 5.030436432702594 0.2499999999999999)">4</text>
<rect class="edge_bg" x="4.794255522695357" y="0.5138189553979505" width="0.472362089204099" height="0.472362089204099"/>
<text class="edge_text" text-anchor="middle" dominant-baseline="middle" transform="matrix(0.02361810446020495 0 0 0.02361810446020495 5.030436567297406 0.75)">7</text>
<rect class="edge_bg" x="4.794255388100544" y="1.0138189553979504" width="0.472362089204099" height="0.472362089204099"/>
<text class="edge_text" text-anchor="middle" dominant-baseline="middle" transform="matrix(0.02361810446020495 0 0 0.02361810446020495 5.030436432702594 1.25)">9</text>
<rect class="edge_bg" x="5.227268877534613" y="1.2638189553979498" width="0.472362089204099" height="0.472362089204099"/>
<text class="edge_text" text-anchor="middle" dominant-baseline="middle" transform="matrix(0.02361810446020495 0 0 0.02361810446020495 5.463449922136662 1.4999999999999993)">10</text>
<rect class="edge_bg" x="6.164715229236787" y="4.046061208618367" width="0.472362089204099" height="0.472362089204099"/>
<text class="edge_text" text-anchor="middle" dominant-baseline="middle" transform="matrix(0.02361810446020495 0 0 0.02361810446020495 6.400896273838836 4.282242253220416)">22</text>
<rect class="edge_bg" x="5.668702645037793" y="4.109085849254058" width="0.472362089204099" height="0.472362089204099"/>
<text class="edge_text" text-anchor="middle" dominant-baseline="middle" transform="matrix(0.02361810446020495 0 0 0.02361810446020495 5.904883689639842 4.345266893856107)">21</text>
<rect class="edge_bg" x="5.366116371198956" y="3.7110395960336406" width="0.472362089204099" height="0.472362089204099"/>
<text class="edge_text" text-anchor="middle" dominant-baseline="middle" transform="matrix(0.02361810446020495 0 0 0.02361810446020495 5.602297415801005 3.94722064063569)">19</text>
<rect class="edge_bg" x="5.063528645037793" y="3.3129928492540572" width="0.472362089204099" height="0.472362089204099"/>
<text class="edge_text" text-anchor="middle" dominant-baseline="middle" transform="matrix(0.02361810446020495 0 0 0.02361810446020495 5.299709689639842 3.5491738938561066)">17</text>
<rect class="edge_bg" x="4.760941371198956" y="2.9149465960336407" width="0.472362089204099" height="0.472362089204099"/>
<text class="edge_text" text-anchor="middle" dominant-baseline="middle" transform="matrix(0.02361810446020495 0 0 0.02361810446020495 4.997122415801005 3.15112764063569)">15</text>
<rect class="edge_bg" x="4.458354645037793" y="2.5168998492540573" width="0.472362089204099" height="0.472362089204099"/>
<text class="edge_text" text-anchor="middle" dominant-baseline="middle" transform="matrix(0.02361810446020495 0 0 0.02361810446020495 4.694535689639842 2.7530808938561067)">13</text>
</svg>
