<?xml version="1.0" encoding="utf-8"?>
<svg version="1.1" xmlns="http://www.w3.org/2000/svg" viewBox="-5.590030319166425 -5.104526115051237 21.240934638332853 10.709052230102474" style="enable-background:new -5.590030319166425 -5.104526115051237 21.240934638332853 10.709052230102474;">
<style type="text/css">
  .face_stroke {fill:none; stroke:#000000; stroke-width:0.02; stroke-miterlimit:10;}
  .face_text {fill:#000000; font-family:monospace;}
  .edge_text {fill:#ff0000; font-family:monospace;}
  .edge_bg {fill:#f3f3f3; stroke:#606060; stroke-width:0.01;}
</style>
<polygon class="face_stroke" points="4.597424077863338,-0.4999999999999999 4.382453637652314,-1.4766205557100864 3.96256453609205,-2.3841959753810436 3.3573903208982845,-3.180289041086687 2.595228265770648,-3.8276753258685146 1.7117162213246253,-4.296083766568304 0.7481662288054032,-4.563612105097525 -0.2503671850457209,-4.617751013682943 -1.2371937075872463,-4.455969017130179 -2.1661704274040363,-4.0858308617902654 -2.993859425560929,-3.5246437964278816 -3.6815588844143523,-2.7986483045047508 -4.197112741591374,-1.9417911283371612 -4.516414271727354,-0.9941379571543584 -4.624533290151295,3.541068680363782e-15 -4.516414271727353,0.9941379571543613 -4.197112741591372,1.9417911283371658 -3.681558884414349,2.7986483045047548 -2.993859425560925,3.5246437964278847 -2.1661704274040336,4.085830861790266 -1.2371937075872415,4.45596901713018 -0.2503671850457149,4.617751013682943 0.7481662288054051,4.5636121050975245 1.7117162213246282,4.296083766568303 2.595228265770651,3.827675325868513 3.357390320898284,3.180289041086687 3.96256453609205,2.3841959753810436 4.382453637652313,1.47662055571009 4.597424077863337,0.5000000000000074"/>
<polygon class="face_stroke" points="4.597423865405187,0.4999999999999999 5.463449269189626,1.414100318299876e-16 4.5974238654051875,-0.5000000000000003"/>
<polygon class="face_stroke" points="4.597423730810374,0.49999999999999994 5.463449134594813,1.0 5.463449134594813,-1.1102230246251565e-16"/>
<polygon class="face_stroke" points="5.463449922136662,0.9999999999999996 5.678420362347685,1.9766205557100847 6.098309463907951,2.884195975381044 6.703483679101716,3.6802890410866875 7.465645734229351,4.327675325868514 8.349157778675378,4.796083766568306 9.312707771194598,5.063612105097525 10.311241185045722,5.117751013682943 11.298067707587247,4.955969017130178 12.227044427404035,4.5858308617902654 13.054733425560928,4.024643796427883 13.742432884414349,3.2986483045047557 14.25798674159137,2.4417911283371674 14.577288271727351,1.494137957154369 14.685407290151296,0.5000000000000134 14.577288271727356,-0.4941379571543466 14.25798674159138,-1.4417911283371503 13.74243288441436,-2.298648304504741 13.05473342556094,-3.0246437964278714 12.227044427404056,-3.585830861790255 11.29806770758727,-3.9559690171301716 10.311241185045745,-4.117751013682942 9.31270777119462,-4.063612105097529 8.3491577786754,-3.796083766568314 7.465645734229369,-3.327675325868527 6.703483679101739,-2.680289041086712 6.098309463907966,-1.8841959753810684 5.678420362347697,-0.976620555710118 5.463449922136665,-2.842170943040401e-14"/>
<polygon class="face_stroke" points="5.678419907724662,1.9766207474446706 5.102381086267689,2.794043083923471 6.098309006007648,2.8841961686318585"/>
<polygon class="face_stroke" points="5.678419913732311,1.9766209160765285 4.682491993992351,1.8864678313681416 5.102381092275337,2.7940432525553294"/>
<polygon class="face_stroke" points="5.678420006007649,1.9766201686318583 5.258530907724663,1.0690447474446705 4.68249208626769,1.8864670839234712"/>
<polygon class="face_stroke" points="5.2585309137323115,1.0690449160765287 4.262602993992352,0.9788918313681418 4.6824920922753375,1.8864672525553297"/>
<text class="face_text" text-anchor="middle" dominant-baseline="middle" transform="matrix(0.021418104460204947 0 0 0.021418104460204947 0.0 0.0)">58</text>
<text class="face_text" text-anchor="middle" dominant-baseline="middle" transform="matrix(0.021418104460204947 0 0 0.021418104460204947 4.886099 0.0)">0</text>
<text class="face_text" text-anchor="middle" dominant-baseline="middle" transform="matrix(0.021418104460204947 0 0 0.021418104460204947 5.174774 0.5)">1</text>
<text class="face_text" text-anchor="middle" dominant-baseline="middle" transform="matrix(0.021418104460204947 0 0 0.021418104460204947 10.060874 0.5)">59</text>
<text class="face_text" text-anchor="middle" dominant-baseline="middle" transform="matrix(0.021418104460204947 0 0 0.021418104460204947 5.62637 2.55162)">5</text>
<text class="face_text" text-anchor="middle" dominant-baseline="middle" transform="matrix(0.021418104460204947 0 0 0.021418104460204947 5.154431 2.219044)">4</text>
<text class="face_text" text-anchor="middle" dominant-baseline="middle" transform="matrix(0.021418104460204947 0 0 0.021418104460204947 5.206481 1.644044)">3</text>
<text class="face_text" text-anchor="middle" dominant-baseline="middle" transform="matrix(0.021418104460204947 0 0 0.021418104460204947 4.734542 1.311468)">2</text>
<rect class="edge_bg" x="4.3832428208031375" y="-0.2141810446020495" width="0.42836208920409896" height="0.42836208920409896"/>
<text class="edge_text" text-anchor="middle" dominant-baseline="middle" transform="matrix(0.021418104460204947 0 0 0.021418104460204947 4.597423865405187 -3.535250795749691e-17)">1</text>
<rect class="edge_bg" x="4.8162553881005445" y="0.03581895539795041" width="0.42836208920409896" height="0.42836208920409896"/>
<text class="edge_text" text-anchor="middle" dominant-baseline="middle" transform="matrix(0.021418104460204947 0 0 0.021418104460204947 5.030436432702594 0.2499999999999999)">4</text>
<rect class="edge_bg" x="5.249268877534613" y="0.28581895539795" width="0.42836208920409896" height="0.42836208920409896"/>
<text class="edge_text" text-anchor="middle" dominant-baseline="middle" transform="matrix(0.021418104460204947 0 0 0.021418104460204947 5.463449922136662 0.49999999999999944)">5</text>
<rect class="edge_bg" x="5.674183412264106" y="2.216227413436215" width="0.42836208920409896" height="0.42836208920409896"/>
<text class="edge_text" text-anchor="middle" dominant-baseline="middle" transform="matrix(0.021418104460204947 0 0 0.021418104460204947 5.888364456866155 2.4304084580382646)">14</text>
<rect class="edge_bg" x="5.176219458401775" y="2.1711510397138793" width="0.42836208920409896" height="0.42836208920409896"/>
<text class="edge_text" text-anchor="middle" dominant-baseline="middle" transform="matrix(0.021418104460204947 0 0 0.021418104460204947 5.390400503003824 2.385332084315929)">13</text>
<rect class="edge_bg" x="4.96627500153562" y="1.7173625816756153" width="0.42836208920409896" height="0.42836208920409896"/>
<text class="edge_text" text-anchor="middle" dominant-baseline="middle" transform="matrix(0.021418104460204947 0 0 0.021418104460204947 5.180456046137669 1.9315436262776648)">11</text>
<rect class="edge_bg" x="4.756330458401775" y="1.2635750397138796" width="0.42836208920409896" height="0.42836208920409896"/>
<text class="edge_text" text-anchor="middle" dominant-baseline="middle" transform="matrix(0.021418104460204947 0 0 0.021418104460204947 4.9705115030038245 1.4777560843159292)">9</text>
</svg>
