<?xml version="1.0" encoding="utf-8"?>
<svg version="1.1" xmlns="http://www.w3.org/2000/svg" viewBox="-5.590030319166425 -5.104526115051237 21.240934638332853 10.709052230102474" style="enable-background:new -5.590030319166425 -5.104526115051237 21.240934638332853 10.709052230102474;">
<style type="text/css">
  .face_stroke {fill:none; stroke:#000000; stroke-width:0.02; stroke-miterlimit:10;}
  .face_text {fill:#000000; font-family:monospace;}
  .edge_text {fill:#ff0000; font-family:monospace;}
  .edge_bg {fill:#f3f3f3; stroke:#606060; stroke-width:0.01;}
</style>
<polygon class="face_stroke" points="4.597424077863338,-0.4999999999999999 4.382453637652314,-1.4766205557100864 3.96256453609205,-2.3841959753810436 3.3573903208982845,-3.180289041086687 2.595228265770648,-3.8276753258685146 1.7117162213246253,-4.296083766568304 0.7481662288054032,-4.563612105097525 -0.2503671850457209,-4.617751013682943 -1.2371937075872463,-4.455969017130179 -2.1661704274040363,-4.0858308617902654 -2.993859425560929,-3.5246437964278816 -3.6815588844143523,-2.7986483045047508 -4.197112741591374,-1.9417911283371612 -4.516414271727354,-0.9941379571543584 -4.624533290151295,3.541068680363782e-15 -4.516414271727353,0.9941379571543613 -4.197112741591372,1.9417911283371658 -3.681558884414349,2.7986483045047548 -2.993859425560925,3.5246437964278847 -2.1661704274040336,4.085830861790266 -1.2371937075872415,4.45596901713018 -0.2503671850457149,4.617751013682943 0.7481662288054051,4.5636121050975245 1.7117162213246282,4.296083766568303 2.595228265770651,3.827675325868513 3.357390320898284,3.180289041086687 3.96256453609205,2.3841959753810436 4.382453637652313,1.47662055571009 4.597424077863337,0.5000000000000074"/>
<polygon class="face_stroke" points="4.597423865405187,0.4999999999999999 5.463449269189626,1.414100318299876e-16 4.5974238654051875,-0.5000000000000003"/>
<polygon class="face_stroke" points="4.597423730810374,0.49999999999999994 5.463449134594813,1.0 5.463449134594813,-1.1102230246251565e-16"/>
<polygon class="face_stroke" points="5.463449922136662,0.9999999999999996 5.678420362347685,1.9766205557100847 6.098309463907951,2.884195975381044 6.703483679101716,3.6802890410866875 7.465645734229351,4.327675325868514 8.349157778675378,4.796083766568306 9.312707771194598,5.063612105097525 10.311241185045722,5.117751013682943 11.298067707587247,4.955969017130178 12.227044427404035,4.5858308617902654 13.054733425560928,4.024643796427883 13.742432884414349,3.2986483045047557 14.25798674159137,2.4417911283371674 14.577288271727351,1.494137957154369 14.685407290151296,0.5000000000000134 14.577288271727356,-0.4941379571543466 14.25798674159138,-1.4417911283371503 13.74243288441436,-2.298648304504741 13.05473342556094,-3.0246437964278714 12.227044427404056,-3.585830861790255 11.29806770758727,-3.9559690171301716 10.311241185045745,-4.117751013682942 9.31270777119462,-4.063612105097529 8.3491577786754,-3.796083766568314 7.465645734229369,-3.327675325868527 6.703483679101739,-2.680289041086712 6.098309463907966,-1.8841959753810684 5.678420362347697,-0.976620555710118 5.463449922136665,-2.842170943040401e-14"/>
<polygon class="face_stroke" points="6.098309168397988,2.88419571872862 5.711459452322327,3.8063384935591666 6.7034833792796835,3.680288787712214"/>
<polygon class="face_stroke" points="6.098308547677672,2.8841955064408333 5.106284620720315,3.0102452122877863 5.711458831602011,3.80633828127138"/>
<polygon class="face_stroke" points="6.0983093792796845,2.8841957877122137 5.4931351683979885,2.08810271872862 5.106285452322327,3.0102454935591667"/>
<polygon class="face_stroke" points="5.4931345476776725,2.0881025064408334 4.501110620720315,2.2141522122877864 5.106284831602011,3.0102452812713802"/>
<polygon class="face_stroke" points="5.4931343792796845,2.0881027877122134 4.8879601683979885,1.29200971872862 4.501110452322327,2.2141524935591663"/>
<polygon class="face_stroke" points="4.887960547677673,1.2920095064408335 3.895936620720315,1.4180592122877864 4.501110831602011,2.2141522812713803"/>
<text class="face_text" text-anchor="middle" dominant-baseline="middle" transform="matrix(0.021418104460204947 0 0 0.021418104460204947 0.0 0.0)">58</text>
<text class="face_text" text-anchor="middle" dominant-baseline="middle" transform="matrix(0.021418104460204947 0 0 0.021418104460204947 4.886099 0.0)">0</text>
<text class="face_text" text-anchor="middle" dominant-baseline="middle" transform="matrix(0.021418104460204947 0 0 0.021418104460204947 5.174774 0.5)">1</text>
<text class="face_text" text-anchor="middle" dominant-baseline="middle" transform="matrix(0.021418104460204947 0 0 0.021418104460204947 10.060874 0.5)">59</text>
<text class="face_text" text-anchor="middle" dominant-baseline="middle" transform="matrix(0.021418104460204947 0 0 0.021418104460204947 6.171084 3.456941)">7</text>
<text class="face_text" text-anchor="middle" dominant-baseline="middle" transform="matrix(0.021418104460204947 0 0 0.021418104460204947 5.638684 3.233593)">6</text>
<text class="face_text" text-anchor="middle" dominant-baseline="middle" transform="matrix(0.021418104460204947 0 0 0.021418104460204947 5.56591 2.660848)">5</text>
<text class="face_text" text-anchor="middle" dominant-baseline="middle" transform="matrix(0.021418104460204947 0 0 0.021418104460204947 5.03351 2.4375)">4</text>
<text class="face_text" text-anchor="middle" dominant-baseline="middle" transform="matrix(0.021418104460204947 0 0 0.021418104460204947 4.960735 1.864755)">3</text>
<text class="face_text" text-anchor="middle" dominant-baseline="middle" transform="matrix(0.021418104460204947 0 0 0.021418104460204947 4.428336 1.641407)">2</text>
<rect class="edge_bg" x="4.3832428208031375" y="-0.2141810446020495" width="0.42836208920409896" height="0.42836208920409896"/>
<text class="edge_text" text-anchor="middle" dominant-baseline="middle" transform="matrix(0.021418104460204947 0 0 0.021418104460204947 4.597423865405187 -3.535250795749691e-17)">1</text>
<rect class="edge_bg" x="4.8162553881005445" y="0.03581895539795041" width="0.42836208920409896" height="0.42836208920409896"/>
<text class="edge_text" text-anchor="middle" dominant-baseline="middle" transform="matrix(0.021418104460204947 0 0 0.021418104460204947 5.030436432702594 0.2499999999999999)">4</text>
<rect class="edge_bg" x="5.249268877534613" y="0.28581895539795" width="0.42836208920409896" height="0.42836208920409896"/>
<text class="edge_text" text-anchor="middle" dominant-baseline="middle" transform="matrix(0.021418104460204947 0 0 0.021418104460204947 5.463449922136662 0.49999999999999944)">5</text>
<rect class="edge_bg" x="6.186715229236787" y="3.068061208618367" width="0.42836208920409896" height="0.42836208920409896"/>
<text class="edge_text" text-anchor="middle" dominant-baseline="middle" transform="matrix(0.021418104460204947 0 0 0.021418104460204947 6.400896273838836 3.2822422532204167)">18</text>
<rect class="edge_bg" x="5.690702645037793" y="3.131085849254057" width="0.42836208920409896" height="0.42836208920409896"/>
<text class="edge_text" text-anchor="middle" dominant-baseline="middle" transform="matrix(0.021418104460204947 0 0 0.021418104460204947 5.904883689639842 3.3452668938561065)">17</text>
<rect class="edge_bg" x="5.388116371198956" y="2.7330395960336404" width="0.42836208920409896" height="0.42836208920409896"/>
<text class="edge_text" text-anchor="middle" dominant-baseline="middle" transform="matrix(0.021418104460204947 0 0 0.021418104460204947 5.602297415801005 2.94722064063569)">15</text>
<rect class="edge_bg" x="5.085528645037793" y="2.334992849254057" width="0.42836208920409896" height="0.42836208920409896"/>
<text class="edge_text" text-anchor="middle" dominant-baseline="middle" transform="matrix(0.021418104460204947 0 0 0.021418104460204947 5.299709689639842 2.5491738938561066)">13</text>
<rect class="edge_bg" x="4.782941371198956" y="1.9369465960336405" width="0.42836208920409896" height="0.42836208920409896"/>
<text class="edge_text" text-anchor="middle" dominant-baseline="middle" transform="matrix(0.021418104460204947 0 0 0.021418104460204947 4.997122415801005 2.15112764063569)">11</text>
<rect class="edge_bg" x="4.480354645037793" y="1.5388998492540573" width="0.42836208920409896" height="0.42836208920409896"/>
<text class="edge_text" text-anchor="middle" dominant-baseline="middle" transform="matrix(0.021418104460204947 0 0 0.021418104460204947 4.694535689639842 1.7530808938561069)">9</text>
</svg>
