<?xml version="1.0" encoding="utf-8"?>
<svg version="1.1" xmlns="http://www.w3.org/2000/svg" viewBox="-5.590030319166425 -5.11498976031568 21.240934638332853 10.939252425920223" style="enable-background:new -5.590030319166425 -5.11498976031568 21.240934638332853 10.939252425920223;">
<style type="text/css">
  .face_stroke {fill:none; stroke:#000000; stroke-width:0.02; stroke-miterlimit:10;}
  .face_text {fill:#000000; font-family:monospace;}
  .edge_text {fill:#ff0000; font-family:monospace;}
  .edge_bg {fill:#f3f3f3; stroke:#606060; stroke-width:0.01;}
</style>
<polygon class="face_stroke" points="4.597424077863338,-0.4999999999999999 4.382453637652314,-1.4766205557100864 3.96256453609205,-2.3841959753810436 3.3573903208982845,-3.180289041086687 2.595228265770648,-3.8276753258685146 1.7117162213246253,-4.296083766568304 0.7481662288054032,-4.563612105097525 -0.2503671850457209,-4.617751013682943 -1.2371937075872463,-4.455969017130179 -2.1661704274040363,-4.0858308617902654 -2.993859425560929,-3.5246437964278816 -3.6815588844143523,-2.7986483045047508 -4.197112741591374,-1.9417911283371612 -4.516414271727354,-0.9941379571543584 -4.624533290151295,3.541068680363782e-15 -4.516414271727353,0.9941379571543613 -4.197112741591372,1.9417911283371658 -3.681558884414349,2.7986483045047548 -2.993859425560925,3.5246437964278847 -2.1661704274040336,4.085830861790266 -1.2371937075872415,4.45596901713018 -0.2503671850457149,4.617751013682943 0.7481662288054051,4.5636121050975245 1.7117162213246282,4.296083766568303 2.595228265770651,3.827675325868513 3.357390320898284,3.180289041086687 3.96256453609205,2.3841959753810436 4.382453637652313,1.47662055571009 4.597424077863337,0.5000000000000074"/>
<polygon class="face_stroke" points="4.597423865405187,0.4999999999999999 5.463449269189626,1.414100318299876e-16 4.5974238654051875,-0.5000000000000003"/>
<polygon class="face_stroke" points="4.597423730810374,0.49999999999999994 5.463449134594813,1.0 5.463449134594813,-1.1102230246251565e-16"/>
<polygon class="face_stroke" points="5.463449922136662,0.9999999999999996 5.678420362347685,1.9766205557100847 6.098309463907951,2.884195975381044 6.703483679101716,3.6802890410866875 7.465645734229351,4.327675325868514 8.349157778675378,4.796083766568306 9.312707771194598,5.063612105097525 10.311241185045722,5.117751013682943 11.298067707587247,4.955969017130178 12.227044427404035,4.5858308617902654 13.054733425560928,4.024643796427883 13.742432884414349,3.2986483045047557 14.25798674159137,2.4417911283371674 14.577288271727351,1.494137957154369 14.685407290151296,0.5000000000000134 14.577288271727356,-0.4941379571543466 14.25798674159138,-1.4417911283371503 13.74243288441436,-2.298648304504741 13.05473342556094,-3.0246437964278714 12.227044427404056,-3.585830861790255 11.29806770758727,-3.9559690171301716 10.311241185045745,-4.117751013682942 9.31270777119462,-4.063612105097529 8.3491577786754,-3.796083766568314 7.465645734229369,-3.327675325868527 6.703483679101739,-2.680289041086712 6.098309463907966,-1.8841959753810684 5.678420362347697,-0.976620555710118 5.463449922136665,-2.842170943040401e-14"/>
<polygon class="face_stroke" points="7.465644843319041,4.3276758238863176 7.501747264969213,5.327023918971806 8.349156891711747,4.796084257141876"/>
<polygon class="face_stroke" points="7.465645735030788,4.327675081028194 6.618236108288254,4.858614742858124 7.501748156680959,5.327023176113682"/>
<polygon class="face_stroke" points="7.465644891711746,4.327675257141876 6.582132843319042,3.8592668238863173 6.618235264969213,4.8586149189718055"/>
<polygon class="face_stroke" points="6.582133735030787,3.859267081028194 5.734724108288254,4.3902067428581235 6.618236156680958,4.858615176113682"/>
<polygon class="face_stroke" points="6.582132891711746,3.8592672571418762 5.698620843319041,3.3908588238863175 5.734723264969213,4.390206918971805"/>
<polygon class="face_stroke" points="5.698620735030787,3.390858081028194 4.851211108288254,3.9217977428581237 5.734723156680959,4.390206176113683"/>
<polygon class="face_stroke" points="5.698620891711746,3.3908582571418764 4.815108843319042,2.9224498238863177 4.851211264969213,3.921797918971806"/>
<polygon class="face_stroke" points="4.815108735030788,2.922450081028194 3.9676991082882545,3.4533897428581235 4.851211156680959,3.921798176113682"/>
<polygon class="face_stroke" points="4.815108891711746,2.9224502571418762 3.931596843319041,2.4540418238863175 3.967699264969212,3.453389918971806"/>
<polygon class="face_stroke" points="3.931596735030787,2.454041081028194 3.084187108288254,2.9849807428581236 3.967699156680958,3.4533891761136823"/>
<text class="face_text" text-anchor="middle" dominant-baseline="middle" transform="matrix(0.021878504851840445 0 0 0.021878504851840445 0.0 0.0)">58</text>
<text class="face_text" text-anchor="middle" dominant-baseline="middle" transform="matrix(0.021878504851840445 0 0 0.021878504851840445 4.886099 0.0)">0</text>
<text class="face_text" text-anchor="middle" dominant-baseline="middle" transform="matrix(0.021878504851840445 0 0 0.021878504851840445 5.174774 0.5)">1</text>
<text class="face_text" text-anchor="middle" dominant-baseline="middle" transform="matrix(0.021878504851840445 0 0 0.021878504851840445 10.060874 0.5)">59</text>
<text class="face_text" text-anchor="middle" dominant-baseline="middle" transform="matrix(0.021878504851840445 0 0 0.021878504851840445 7.772183 4.816928)">11</text>
<text class="face_text" text-anchor="middle" dominant-baseline="middle" transform="matrix(0.021878504851840445 0 0 0.021878504851840445 7.19521 4.837771)">10</text>
<text class="face_text" text-anchor="middle" dominant-baseline="middle" transform="matrix(0.021878504851840445 0 0 0.021878504851840445 6.888671 4.348519)">9</text>
<text class="face_text" text-anchor="middle" dominant-baseline="middle" transform="matrix(0.021878504851840445 0 0 0.021878504851840445 6.311698 4.369363)">8</text>
<text class="face_text" text-anchor="middle" dominant-baseline="middle" transform="matrix(0.021878504851840445 0 0 0.021878504851840445 6.005159 3.880111)">7</text>
<text class="face_text" text-anchor="middle" dominant-baseline="middle" transform="matrix(0.021878504851840445 0 0 0.021878504851840445 5.428185 3.900954)">6</text>
<text class="face_text" text-anchor="middle" dominant-baseline="middle" transform="matrix(0.021878504851840445 0 0 0.021878504851840445 5.121647 3.411702)">5</text>
<text class="face_text" text-anchor="middle" dominant-baseline="middle" transform="matrix(0.021878504851840445 0 0 0.021878504851840445 4.544673 3.432546)">4</text>
<text class="face_text" text-anchor="middle" dominant-baseline="middle" transform="matrix(0.021878504851840445 0 0 0.021878504851840445 4.238135 2.943294)">3</text>
<text class="face_text" text-anchor="middle" dominant-baseline="middle" transform="matrix(0.021878504851840445 0 0 0.021878504851840445 3.661161 2.964137)">2</text>
<rect class="edge_bg" x="4.378638816886782" y="-0.2187850485184045" width="0.43757009703680894" height="0.43757009703680894"/>
<text class="edge_text" text-anchor="middle" dominant-baseline="middle" transform="matrix(0.021878504851840445 0 0 0.021878504851840445 4.597423865405187 -3.535250795749691e-17)">1</text>
<rect class="edge_bg" x="4.811651384184189" y="0.03121495148159542" width="0.43757009703680894" height="0.43757009703680894"/>
<text class="edge_text" text-anchor="middle" dominant-baseline="middle" transform="matrix(0.021878504851840445 0 0 0.021878504851840445 5.030436432702594 0.2499999999999999)">4</text>
<rect class="edge_bg" x="5.244664873618257" y="0.281214951481595" width="0.43757009703680894" height="0.43757009703680894"/>
<text class="edge_text" text-anchor="middle" dominant-baseline="middle" transform="matrix(0.021878504851840445 0 0 0.021878504851840445 5.463449922136662 0.49999999999999944)">5</text>
<rect class="edge_bg" x="7.688615818996989" y="4.3430949919956925" width="0.43757009703680894" height="0.43757009703680894"/>
<text class="edge_text" text-anchor="middle" dominant-baseline="middle" transform="matrix(0.021878504851840445 0 0 0.021878504851840445 7.907400867515394 4.561880040514097)">26</text>
<rect class="edge_bg" x="7.264911897337469" y="4.608564080052533" width="0.43757009703680894" height="0.43757009703680894"/>
<text class="edge_text" text-anchor="middle" dominant-baseline="middle" transform="matrix(0.021878504851840445 0 0 0.021878504851840445 7.483696945855874 4.827349128570938)">25</text>
<rect class="edge_bg" x="6.823155029822075" y="4.374360039538436" width="0.43757009703680894" height="0.43757009703680894"/>
<text class="edge_text" text-anchor="middle" dominant-baseline="middle" transform="matrix(0.021878504851840445 0 0 0.021878504851840445 7.04194007834048 4.593145088056841)">23</text>
<rect class="edge_bg" x="6.381399897337468" y="4.140156080052533" width="0.43757009703680894" height="0.43757009703680894"/>
<text class="edge_text" text-anchor="middle" dominant-baseline="middle" transform="matrix(0.021878504851840445 0 0 0.021878504851840445 6.600184945855873 4.358941128570938)">21</text>
<rect class="edge_bg" x="5.939643029822075" y="3.905952039538436" width="0.43757009703680894" height="0.43757009703680894"/>
<text class="edge_text" text-anchor="middle" dominant-baseline="middle" transform="matrix(0.021878504851840445 0 0 0.021878504851840445 6.15842807834048 4.124737088056841)">19</text>
<rect class="edge_bg" x="5.497886897337469" y="3.671747080052534" width="0.43757009703680894" height="0.43757009703680894"/>
<text class="edge_text" text-anchor="middle" dominant-baseline="middle" transform="matrix(0.021878504851840445 0 0 0.021878504851840445 5.7166719458558735 3.890532128570938)">17</text>
<rect class="edge_bg" x="5.056131029822075" y="3.4375430395384368" width="0.43757009703680894" height="0.43757009703680894"/>
<text class="edge_text" text-anchor="middle" dominant-baseline="middle" transform="matrix(0.021878504851840445 0 0 0.021878504851840445 5.27491607834048 3.656328088056841)">15</text>
<rect class="edge_bg" x="4.614374897337469" y="3.2033390800525336" width="0.43757009703680894" height="0.43757009703680894"/>
<text class="edge_text" text-anchor="middle" dominant-baseline="middle" transform="matrix(0.021878504851840445 0 0 0.021878504851840445 4.833159945855874 3.422124128570938)">13</text>
<rect class="edge_bg" x="4.172619029822075" y="2.9691350395384366" width="0.43757009703680894" height="0.43757009703680894"/>
<text class="edge_text" text-anchor="middle" dominant-baseline="middle" transform="matrix(0.021878504851840445 0 0 0.021878504851840445 4.3914040783404795 3.187920088056841)">11</text>
<rect class="edge_bg" x="3.7308628973374685" y="2.734930080052534" width="0.43757009703680894" height="0.43757009703680894"/>
<text class="edge_text" text-anchor="middle" dominant-baseline="middle" transform="matrix(0.021878504851840445 0 0 0.021878504851840445 3.949647945855873 2.953715128570938)">9</text>
</svg>
