<?xml version="1.0" encoding="utf-8"?>
<svg version="1.1" xmlns="http://www.w3.org/2000/svg" viewBox="-5.590030319166425 -5.258409995568179 21.240934638332853 10.870263914453556" style="enable-background:new -5.590030319166425 -5.258409995568179 21.240934638332853 10.870263914453556;">
<style type="text/css">
  .face_stroke {fill:none; stroke:#000000; stroke-width:0.02; stroke-miterlimit:10;}
  .face_text {fill:#000000; font-family:monospace;}
  .edge_text {fill:#ff0000; font-family:monospace;}
  .edge_bg {fill:#f3f3f3; stroke:#606060; stroke-width:0.01;}
</style>
<polygon class="face_stroke" points="4.597424077863338,-0.4999999999999999 4.382453637652314,-1.4766205557100864 3.96256453609205,-2.3841959753810436 3.3573903208982845,-3.180289041086687 2.595228265770648,-3.8276753258685146 1.7117162213246253,-4.296083766568304 0.7481662288054032,-4.563612105097525 -0.2503671850457209,-4.617751013682943 -1.2371937075872463,-4.455969017130179 -2.1661704274040363,-4.0858308617902654 -2.993859425560929,-3.5246437964278816 -3.6815588844143523,-2.7986483045047508 -4.197112741591374,-1.9417911283371612 -4.516414271727354,-0.9941379571543584 -4.624533290151295,3.541068680363782e-15 -4.516414271727353,0.9941379571543613 -4.197112741591372,1.9417911283371658 -3.681558884414349,2.7986483045047548 -2.993859425560925,3.5246437964278847 -2.1661704274040336,4.085830861790266 -1.2371937075872415,4.45596901713018 -0.2503671850457149,4.617751013682943 0.7481662288054051,4.5636121050975245 1.7117162213246282,4.296083766568303 2.595228265770651,3.827675325868513 3.357390320898284,3.180289041086687 3.96256453609205,2.3841959753810436 4.382453637652313,1.47662055571009 4.597424077863337,0.5000000000000074"/>
<polygon class="face_stroke" points="4.597423865405187,0.4999999999999999 5.463449269189626,1.414100318299876e-16 4.5974238654051875,-0.5000000000000003"/>
<polygon class="face_stroke" points="4.597423730810374,0.49999999999999994 5.463449134594813,1.0 5.463449134594813,-1.1102230246251565e-16"/>
<polygon class="face_stroke" points="5.463449922136662,0.9999999999999996 5.678420362347685,1.9766205557100847 6.098309463907951,2.884195975381044 6.703483679101716,3.6802890410866875 7.465645734229351,4.327675325868514 8.349157778675378,4.796083766568306 9.312707771194598,5.063612105097525 10.311241185045722,5.117751013682943 11.298067707587247,4.955969017130178 12.227044427404035,4.5858308617902654 13.054733425560928,4.024643796427883 13.742432884414349,3.2986483045047557 14.25798674159137,2.4417911283371674 14.577288271727351,1.494137957154369 14.685407290151296,0.5000000000000134 14.577288271727356,-0.4941379571543466 14.25798674159138,-1.4417911283371503 13.74243288441436,-2.298648304504741 13.05473342556094,-3.0246437964278714 12.227044427404056,-3.585830861790255 11.29806770758727,-3.9559690171301716 10.311241185045745,-4.117751013682942 9.31270777119462,-4.063612105097529 8.3491577786754,-3.796083766568314 7.465645734229369,-3.327675325868527 6.703483679101739,-2.680289041086712 6.098309463907966,-1.8841959753810684 5.678420362347697,-0.976620555710118 5.463449922136665,-2.842170943040401e-14"/>
<polygon class="face_stroke" points="9.312707774436577,-4.063612241784568 8.599246445417165,-4.764306848581178 8.349157780146259,-3.796083909634255"/>
<polygon class="face_stroke" points="8.599246219853741,-4.764307090365745 7.635696225563422,-4.496778758215432 8.349157554582835,-3.7960841514188224"/>
<polygon class="face_stroke" points="7.635696445417166,-4.496778848581178 7.385607780146259,-3.5285559096342545 8.349157774436577,-3.7960842417845675"/>
<polygon class="face_stroke" points="7.635696219853742,-4.496778090365745 6.672146225563424,-4.229249758215432 7.385607554582835,-3.5285551514188227"/>
<polygon class="face_stroke" points="6.672146445417165,-4.229249848581178 6.422057780146258,-3.261026909634255 7.3856077744365765,-3.528555241784568"/>
<polygon class="face_stroke" points="6.672146219853741,-4.2292500903657455 5.708596225563423,-3.961721758215432 6.4220575545828344,-3.2610271514188227"/>
<polygon class="face_stroke" points="5.708596445417165,-3.9617218485811776 5.458507780146259,-2.993498909634255 6.422057774436577,-3.261027241784568"/>
<polygon class="face_stroke" points="5.708596219853741,-3.9617220903657455 4.745046225563423,-3.694193758215432 5.458507554582835,-2.9934991514188227"/>
<polygon class="face_stroke" points="4.745046445417166,-3.694193848581177 4.494957780146259,-2.7259709096342544 5.458507774436577,-2.9934992417845674"/>
<polygon class="face_stroke" points="4.745046219853741,-3.6941930903657454 3.781496225563423,-3.426664758215432 4.494957554582834,-2.7259701514188226"/>
<polygon class="face_stroke" points="3.781496445417165,-3.4266648485811775 3.5314077801462584,-2.4584419096342547 4.4949577744365765,-2.7259702417845677"/>
<text class="face_text" text-anchor="middle" dominant-baseline="middle" transform="matrix(0.021740527828907112 0 0 0.021740527828907112 0.0 0.0)">58</text>
<text class="face_text" text-anchor="middle" dominant-baseline="middle" transform="matrix(0.021740527828907112 0 0 0.021740527828907112 4.886099 0.0)">0</text>
<text class="face_text" text-anchor="middle" dominant-baseline="middle" transform="matrix(0.021740527828907112 0 0 0.021740527828907112 5.174774 0.5)">1</text>
<text class="face_text" text-anchor="middle" dominant-baseline="middle" transform="matrix(0.021740527828907112 0 0 0.021740527828907112 10.060874 0.5)">59</text>
<text class="face_text" text-anchor="middle" dominant-baseline="middle" transform="matrix(0.021740527828907112 0 0 0.021740527828907112 8.753704 -4.208001)">47</text>
<text class="face_text" text-anchor="middle" dominant-baseline="middle" transform="matrix(0.021740527828907112 0 0 0.021740527828907112 8.1947 -4.35239)">48</text>
<text class="face_text" text-anchor="middle" dominant-baseline="middle" transform="matrix(0.021740527828907112 0 0 0.021740527828907112 7.790154 -3.940473)">49</text>
<text class="face_text" text-anchor="middle" dominant-baseline="middle" transform="matrix(0.021740527828907112 0 0 0.021740527828907112 7.23115 -4.084861)">50</text>
<text class="face_text" text-anchor="middle" dominant-baseline="middle" transform="matrix(0.021740527828907112 0 0 0.021740527828907112 6.826604 -3.672944)">51</text>
<text class="face_text" text-anchor="middle" dominant-baseline="middle" transform="matrix(0.021740527828907112 0 0 0.021740527828907112 6.2676 -3.817333)">52</text>
<text class="face_text" text-anchor="middle" dominant-baseline="middle" transform="matrix(0.021740527828907112 0 0 0.021740527828907112 5.863054 -3.405416)">53</text>
<text class="face_text" text-anchor="middle" dominant-baseline="middle" transform="matrix(0.021740527828907112 0 0 0.021740527828907112 5.30405 -3.549805)">54</text>
<text class="face_text" text-anchor="middle" dominant-baseline="middle" transform="matrix(0.021740527828907112 0 0 0.021740527828907112 4.899504 -3.137888)">55</text>
<text class="face_text" text-anchor="middle" dominant-baseline="middle" transform="matrix(0.021740527828907112 0 0 0.021740527828907112 4.3405 -3.282276)">56</text>
<text class="face_text" text-anchor="middle" dominant-baseline="middle" transform="matrix(0.021740527828907112 0 0 0.021740527828907112 3.935954 -2.870359)">57</text>
<rect class="edge_bg" x="4.3800185871161155" y="-0.21740527828907116" width="0.43481055657814227" height="0.43481055657814227"/>
<text class="edge_text" text-anchor="middle" dominant-baseline="middle" transform="matrix(0.021740527828907112 0 0 0.021740527828907112 4.597423865405187 -3.535250795749691e-17)">1</text>
<rect class="edge_bg" x="4.8130311544135225" y="0.032594721710928753" width="0.43481055657814227" height="0.43481055657814227"/>
<text class="edge_text" text-anchor="middle" dominant-baseline="middle" transform="matrix(0.021740527828907112 0 0 0.021740527828907112 5.030436432702594 0.2499999999999999)">4</text>
<rect class="edge_bg" x="5.246044643847591" y="0.2825947217109283" width="0.43481055657814227" height="0.43481055657814227"/>
<text class="edge_text" text-anchor="middle" dominant-baseline="middle" transform="matrix(0.021740527828907112 0 0 0.021740527828907112 5.463449922136662 0.49999999999999944)">5</text>
<rect class="edge_bg" x="8.613527499002346" y="-4.147253353998482" width="0.43481055657814227" height="0.43481055657814227"/>
<text class="edge_text" text-anchor="middle" dominant-baseline="middle" transform="matrix(0.021740527828907112 0 0 0.021740527828907112 8.830932777291418 -3.9298480757094114)">98</text>
<rect class="edge_bg" x="8.256796608929216" y="-4.4976008991813545" width="0.43481055657814227" height="0.43481055657814227"/>
<text class="edge_text" text-anchor="middle" dominant-baseline="middle" transform="matrix(0.021740527828907112 0 0 0.021740527828907112 8.474201887218287 -4.280195620892283)">99</text>
<rect class="edge_bg" x="7.7750218316378" y="-4.363836823471944" width="0.43481055657814227" height="0.43481055657814227"/>
<text class="edge_text" text-anchor="middle" dominant-baseline="middle" transform="matrix(0.021740527828907112 0 0 0.021740527828907112 7.992427109926871 -4.146431545182873)">101</text>
<rect class="edge_bg" x="7.293246608929217" y="-4.230071899181355" width="0.43481055657814227" height="0.43481055657814227"/>
<text class="edge_text" text-anchor="middle" dominant-baseline="middle" transform="matrix(0.021740527828907112 0 0 0.021740527828907112 7.510651887218288 -4.012666620892284)">103</text>
<rect class="edge_bg" x="6.8114718316378" y="-4.096307823471944" width="0.43481055657814227" height="0.43481055657814227"/>
<text class="edge_text" text-anchor="middle" dominant-baseline="middle" transform="matrix(0.021740527828907112 0 0 0.021740527828907112 7.028877109926871 -3.878902545182873)">105</text>
<rect class="edge_bg" x="6.329696608929217" y="-3.9625438991813553" width="0.43481055657814227" height="0.43481055657814227"/>
<text class="edge_text" text-anchor="middle" dominant-baseline="middle" transform="matrix(0.021740527828907112 0 0 0.021740527828907112 6.547101887218288 -3.745138620892284)">107</text>
<rect class="edge_bg" x="5.8479218316378" y="-3.828779823471944" width="0.43481055657814227" height="0.43481055657814227"/>
<text class="edge_text" text-anchor="middle" dominant-baseline="middle" transform="matrix(0.021740527828907112 0 0 0.021740527828907112 6.065327109926871 -3.6113745451828727)">109</text>
<rect class="edge_bg" x="5.366146608929217" y="-3.6950158991813553" width="0.43481055657814227" height="0.43481055657814227"/>
<text class="edge_text" text-anchor="middle" dominant-baseline="middle" transform="matrix(0.021740527828907112 0 0 0.021740527828907112 5.583551887218288 -3.477610620892284)">111</text>
<rect class="edge_bg" x="4.8843718316378" y="-3.5612518234719435" width="0.43481055657814227" height="0.43481055657814227"/>
<text class="edge_text" text-anchor="middle" dominant-baseline="middle" transform="matrix(0.021740527828907112 0 0 0.021740527828907112 5.101777109926871 -3.3438465451828723)">113</text>
<rect class="edge_bg" x="4.402596608929216" y="-3.427486899181355" width="0.43481055657814227" height="0.43481055657814227"/>
<text class="edge_text" text-anchor="middle" dominant-baseline="middle" transform="matrix(0.021740527828907112 0 0 0.021740527828907112 4.6200018872182875 -3.210081620892284)">115</text>
<rect class="edge_bg" x="3.9208218316377996" y="-3.293722823471944" width="0.43481055657814227" height="0.43481055657814227"/>
<text class="edge_text" text-anchor="middle" dominant-baseline="middle" transform="matrix(0.021740527828907112 0 0 0.021740527828907112 4.138227109926871 -3.0763175451828726)">3</text>
</svg>
