<?xml version="1.0" encoding="utf-8"?>
<svg version="1.1" xmlns="http://www.w3.org/2000/svg" viewBox="-9.065784413184872 -10.827054013184872 15.863434826369746 22.503092026369746" style="enable-background:new -9.065784413184872 -10.827054013184872 15.863434826369746 22.503092026369746;">
<style type="text/css">
  .face_stroke {fill:none; stroke:#000000; stroke-width:0.02; stroke-miterlimit:10;}
  .face_text {fill:#000000; font-family:monospace;}
  .edge_text {fill:#ff0000; font-family:monospace;}
  .edge_bg {fill:#f3f3f3; stroke:#606060; stroke-width:0.01;}
</style>
<polygon class="face_stroke" points="0.5000000000000001,-0.5 -0.5,-0.5000000000000001 -0.5000000000000001,0.5 0.4999999999999999,0.5000000000000001"/>
<polygon class="face_stroke" points="0.4999999999999999,0.5 1.5,0.5000000000000001 1.5000000000000007,-0.49999999999999944 0.49999999999999967,-0.4999999999999998"/>
<polygon class="face_stroke" points="0.5000000000000009,0.49999980619556883 -0.48078528040323065,0.6950901282116977 -1.4046648129145156,1.0777735605767864 -2.236134425217062,1.6333437935963886 -2.94324120640361,2.340450574782937 -3.4988114394232124,3.1719201870854814 -3.881494871788302,4.095799719596769 -4.07658519380443,5.076584999999999 -4.076585193804431,6.076585 -3.881494871788303,7.057370280403229 -3.4988114394232124,7.981249812914517 -2.943241206403611,8.812719425217061 -2.236134425217061,9.51982620640361 -1.4046648129145187,10.075396439423212 -0.4807852804032309,10.458079871788302 0.5000000000000007,10.653170193804431 1.4999999999999973,10.653170193804431 2.4807852804032287,10.458079871788303 3.404664812914517,10.075396439423212 4.236134425217063,9.519826206403609 4.943241206403609,8.812719425217065 5.4988114394232115,7.981249812914519 5.881494871788301,7.057370280403235 6.076585193804431,6.076585 6.07658519380443,5.076584999999998 5.881494871788303,4.095799719596771 5.498811439423212,3.1719201870854827 4.943241206403609,2.340450574782937 4.236134425217065,1.6333437935963917 3.404664812914519,1.0777735605767882 2.4807852804032313,0.6950901282116977 1.5000000000000044,0.4999998061955697"/>
<polygon class="face_stroke" points="-0.48078551756181165,0.6950900500730985 -0.8634689499269014,-0.2287894824381883 -1.7873484824381882,0.15389394992690136 -1.4046650500730982,1.0777734824381884"/>
<polygon class="face_stroke" points="-0.8634691870854829,-0.22878956057678757 -0.03199957478293669,-0.7843597935963902 0.6751072064036103,-1.4914665747829372 1.2306774394232125,-2.3229361870854826 1.6133608717883021,-3.2468157195967695 1.808451193804431,-4.227601 1.808451193804431,-5.227601 1.6133608717883021,-6.20838628040323 1.2306774394232125,-7.132265812914517 0.6751072064036103,-7.963735425217063 -0.03199957478293669,-8.67084220640361 -0.8634691870854829,-9.226412439423212 -1.7873487195967694,-9.609095871788302 -2.768134,-9.80418619380443 -3.768133999999999,-9.80418619380443 -4.74891928040323,-9.609095871788302 -5.6727988129145155,-9.226412439423214 -6.504268425217061,-8.670842206403611 -7.21137520640361,-7.963735425217063 -7.766945439423212,-7.132265812914518 -8.149628871788302,-6.20838628040323 -8.34471919380443,-5.227601000000001 -8.34471919380443,-4.227601 -8.149628871788302,-3.2468157195967704 -7.766945439423212,-2.3229361870854826 -7.211375206403611,-1.4914665747829385 -6.504268425217061,-0.7843597935963884 -5.672798812914518,-0.22878956057678757 -4.74891928040323,0.15389387178830205 -3.768133999999999,0.3489841938044309 -2.7681340000000025,0.3489841938044309 -1.787348719596771,0.15389387178830294"/>
<text class="face_text" text-anchor="middle" dominant-baseline="middle" transform="matrix(0.03172686965273949 0 0 0.03172686965273949 0.0 0.0)">0</text>
<text class="face_text" text-anchor="middle" dominant-baseline="middle" transform="matrix(0.03172686965273949 0 0 0.03172686965273949 1.0 0.0)">31</text>
<text class="face_text" text-anchor="middle" dominant-baseline="middle" transform="matrix(0.03172686965273949 0 0 0.03172686965273949 1.0 5.576585)">33</text>
<text class="face_text" text-anchor="middle" dominant-baseline="middle" transform="matrix(0.03172686965273949 0 0 0.03172686965273949 -1.134067 0.424492)">1</text>
<text class="face_text" text-anchor="middle" dominant-baseline="middle" transform="matrix(0.03172686965273949 0 0 0.03172686965273949 -3.268134 -4.727601)">32</text>
<rect class="edge_bg" x="0.18273130347260497" y="-0.317268696527395" width="0.6345373930547898" height="0.6345373930547898"/>
<text class="edge_text" text-anchor="middle" dominant-baseline="middle" transform="matrix(0.03172686965273949 0 0 0.03172686965273949 0.4999999999999999 -6.123233995736767e-17)">0</text>
<rect class="edge_bg" x="0.6827313034726052" y="0.1827311096681739" width="0.6345373930547898" height="0.6345373930547898"/>
<text class="edge_text" text-anchor="middle" dominant-baseline="middle" transform="matrix(0.03172686965273949 0 0 0.03172686965273949 1.0000000000000002 0.49999980619556883)">4</text>
<rect class="edge_bg" x="-1.2599939803448499" y="0.5691630697282486" width="0.6345373930547898" height="0.6345373930547898"/>
<text class="edge_text" text-anchor="middle" dominant-baseline="middle" transform="matrix(0.03172686965273949 0 0 0.03172686965273949 -0.9427252838174549 0.8864317662556435)">7</text>
<rect class="edge_bg" x="-1.6426776498685205" y="-0.3547165409216377" width="0.6345373930547898" height="0.6345373930547898"/>
<text class="edge_text" text-anchor="middle" dominant-baseline="middle" transform="matrix(0.03172686965273949 0 0 0.03172686965273949 -1.3254089533411255 -0.03744784439424276)">6</text>
</svg>
