<?xml version="1.0" encoding="utf-8"?>
<svg version="1.1" xmlns="http://www.w3.org/2000/svg" viewBox="-10.090431163184874 -9.744856813184875 17.984493326369748 21.36936162636975" style="enable-background:new -10.090431163184874 -9.744856813184875 17.984493326369748 21.36936162636975;">
<style type="text/css">
  .face_stroke {fill:none; stroke:#000000; stroke-width:0.02; stroke-miterlimit:10;}
  .face_text {fill:#000000; font-family:monospace;}
  .edge_text {fill:#ff0000; font-family:monospace;}
  .edge_bg {fill:#f3f3f3; stroke:#606060; stroke-width:0.01;}
</style>
<polygon class="face_stroke" points="0.5000000000000001,-0.5 -0.5,-0.5000000000000001 -0.5000000000000001,0.5 0.4999999999999999,0.5000000000000001"/>
<polygon class="face_stroke" points="0.4999999999999999,0.5 1.5,0.5000000000000001 1.5000000000000007,-0.49999999999999944 0.49999999999999967,-0.4999999999999998"/>
<polygon class="face_stroke" points="1.5,0.5 2.5,0.5000000000000001 2.500000000000001,-0.49999999999999944 1.4999999999999996,-0.4999999999999998"/>
<polygon class="face_stroke" points="1.5000000000000009,0.49999980619556883 0.5192147195967693,0.6950901282116977 -0.4046648129145156,1.0777735605767864 -1.2361344252170618,1.6333437935963886 -1.9432412064036102,2.340450574782937 -2.4988114394232124,3.1719201870854814 -2.881494871788302,4.095799719596769 -3.07658519380443,5.076584999999999 -3.076585193804431,6.076585 -2.881494871788303,7.057370280403229 -2.4988114394232124,7.981249812914517 -1.943241206403611,8.812719425217061 -1.236134425217061,9.51982620640361 -0.4046648129145187,10.075396439423212 0.5192147195967691,10.458079871788302 1.5000000000000007,10.653170193804431 2.4999999999999973,10.653170193804431 3.4807852804032287,10.458079871788303 4.4046648129145165,10.075396439423212 5.236134425217063,9.519826206403609 5.943241206403609,8.812719425217065 6.4988114394232115,7.981249812914519 6.881494871788301,7.057370280403235 7.076585193804431,6.076585 7.07658519380443,5.076584999999998 6.881494871788303,4.095799719596771 6.498811439423212,3.1719201870854827 5.943241206403609,2.340450574782937 5.236134425217065,1.6333437935963917 4.404664812914519,1.0777735605767882 3.4807852804032313,0.6950901282116977 2.5000000000000044,0.4999998061955697"/>
<polygon class="face_stroke" points="-0.4046650773389262,1.0777736896414716 -0.9602353103585284,0.24630407733892623 -1.7917049226610737,0.8018743103585285 -1.2361346896414718,1.6333439226610738"/>
<polygon class="face_stroke" points="-0.9602345747829366,0.24630420640360962 -0.2531277935963896,-0.4608025747829374 0.3024424394232126,-1.2922721870854827 0.6851258717883022,-2.2161517195967697 0.8802161938044311,-3.196937 0.8802161938044311,-4.196937 0.6851258717883022,-5.177722280403231 0.3024424394232126,-6.1016018129145175 -0.2531277935963896,-6.933071425217063 -0.9602345747829366,-7.6401782064036095 -1.7917041870854828,-8.195748439423213 -2.7155837195967694,-8.578431871788302 -3.696369,-8.773522193804432 -4.696368999999999,-8.773522193804432 -5.67715428040323,-8.578431871788302 -6.601033812914515,-8.195748439423213 -7.432503425217062,-7.640178206403611 -8.13961020640361,-6.933071425217063 -8.695180439423211,-6.101601812914518 -9.077863871788303,-5.177722280403231 -9.27295419380443,-4.196937000000001 -9.27295419380443,-3.196937 -9.077863871788303,-2.2161517195967706 -8.695180439423211,-1.2922721870854827 -8.13961020640361,-0.46080257478293873 -7.43250342521706,0.2463042064036114 -6.601033812914519,0.8018744394232122 -5.677154280403231,1.1845578717883019 -4.696368999999999,1.3796481938044307 -3.6963690000000025,1.3796481938044307 -2.715583719596771,1.1845578717883027 -1.7917041870854828,0.8018744394232122"/>
<text class="face_text" text-anchor="middle" dominant-baseline="middle" transform="matrix(0.035968986652739496 0 0 0.035968986652739496 0.0 0.0)">0</text>
<text class="face_text" text-anchor="middle" dominant-baseline="middle" transform="matrix(0.035968986652739496 0 0 0.035968986652739496 1.0 0.0)">31</text>
<text class="face_text" text-anchor="middle" dominant-baseline="middle" transform="matrix(0.035968986652739496 0 0 0.035968986652739496 2.0 0.0)">30</text>
<text class="face_text" text-anchor="middle" dominant-baseline="middle" transform="matrix(0.035968986652739496 0 0 0.035968986652739496 2.0 5.576585)">33</text>
<text class="face_text" text-anchor="middle" dominant-baseline="middle" transform="matrix(0.035968986652739496 0 0 0.035968986652739496 -1.098185 0.939824)">1</text>
<text class="face_text" text-anchor="middle" dominant-baseline="middle" transform="matrix(0.035968986652739496 0 0 0.035968986652739496 -4.196369 -3.696937)">32</text>
<rect class="edge_bg" x="0.1403101334726049" y="-0.35968986652739504" width="0.71937973305479" height="0.71937973305479"/>
<text class="edge_text" text-anchor="middle" dominant-baseline="middle" transform="matrix(0.035968986652739496 0 0 0.035968986652739496 0.4999999999999999 -6.123233995736767e-17)">0</text>
<rect class="edge_bg" x="1.140310133472605" y="-0.35968986652739504" width="0.71937973305479" height="0.71937973305479"/>
<text class="edge_text" text-anchor="middle" dominant-baseline="middle" transform="matrix(0.035968986652739496 0 0 0.035968986652739496 1.5 -6.123233995736767e-17)">95</text>
<rect class="edge_bg" x="1.6403101334726053" y="0.14030993966817384" width="0.71937973305479" height="0.71937973305479"/>
<text class="edge_text" text-anchor="middle" dominant-baseline="middle" transform="matrix(0.035968986652739496 0 0 0.035968986652739496 2.0000000000000004 0.49999980619556883)">94</text>
<rect class="edge_bg" x="-1.1800897500175938" y="0.9958689396238777" width="0.71937973305479" height="0.71937973305479"/>
<text class="edge_text" text-anchor="middle" dominant-baseline="middle" transform="matrix(0.035968986652739496 0 0 0.035968986652739496 -0.8203998834901988 1.3555588061512727)">7</text>
<rect class="edge_bg" x="-1.7356592474616046" y="0.1643994563860166" width="0.71937973305479" height="0.71937973305479"/>
<text class="edge_text" text-anchor="middle" dominant-baseline="middle" transform="matrix(0.035968986652739496 0 0 0.035968986652739496 -1.3759693809342095 0.5240893229134116)">6</text>
</svg>
