<?xml version="1.0" encoding="utf-8"?>
<svg version="1.1" xmlns="http://www.w3.org/2000/svg" viewBox="-10.865049813184873 -8.288464813184873 19.843617626369745 19.84361762636975" style="enable-background:new -10.865049813184873 -8.288464813184873 19.843617626369745 19.84361762636975;">
<style type="text/css">
  .face_stroke {fill:none; stroke:#000000; stroke-width:0.02; stroke-miterlimit:10;}
  .face_text {fill:#000000; font-family:monospace;}
  .edge_text {fill:#ff0000; font-family:monospace;}
  .edge_bg {fill:#f3f3f3; stroke:#606060; stroke-width:0.01;}
</style>
<polygon class="face_stroke" points="0.5000000000000001,-0.5 -0.5,-0.5000000000000001 -0.5000000000000001,0.5 0.4999999999999999,0.5000000000000001"/>
<polygon class="face_stroke" points="0.4999999999999999,0.5 1.5,0.5000000000000001 1.5000000000000007,-0.49999999999999944 0.49999999999999967,-0.4999999999999998"/>
<polygon class="face_stroke" points="1.5,0.5 2.5,0.5000000000000001 2.500000000000001,-0.49999999999999944 1.4999999999999996,-0.4999999999999998"/>
<polygon class="face_stroke" points="2.5,0.5 3.5,0.5000000000000001 3.500000000000001,-0.49999999999999944 2.4999999999999996,-0.4999999999999998"/>
<polygon class="face_stroke" points="2.500000000000001,0.49999980619556883 1.5192147195967693,0.6950901282116977 0.5953351870854844,1.0777735605767864 -0.23613442521706185,1.6333437935963886 -0.9432412064036102,2.340450574782937 -1.4988114394232124,3.1719201870854814 -1.881494871788302,4.095799719596769 -2.07658519380443,5.076584999999999 -2.076585193804431,6.076585 -1.8814948717883029,7.057370280403229 -1.4988114394232124,7.981249812914517 -0.9432412064036111,8.812719425217061 -0.23613442521706096,9.51982620640361 0.5953351870854813,10.075396439423212 1.5192147195967691,10.458079871788302 2.500000000000001,10.653170193804431 3.4999999999999973,10.653170193804431 4.480785280403229,10.458079871788303 5.4046648129145165,10.075396439423212 6.236134425217063,9.519826206403609 6.943241206403609,8.812719425217065 7.4988114394232115,7.981249812914519 7.881494871788301,7.057370280403235 8.07658519380443,6.076585 8.07658519380443,5.076584999999998 7.881494871788303,4.095799719596771 7.498811439423212,3.1719201870854827 6.943241206403609,2.340450574782937 6.236134425217065,1.6333437935963917 5.404664812914519,1.0777735605767882 4.480785280403231,0.6950901282116977 3.5000000000000044,0.4999998061955697"/>
<polygon class="face_stroke" points="-0.23613421881345242,1.633344 -0.943241,0.9262372188134523 -1.6503477811865475,1.633344 -0.9432410000000001,2.3404507811865476"/>
<polygon class="face_stroke" points="-0.9432407935963898,0.9262374252170629 -0.3876705605767876,0.09476781291451752 -0.004987128211698,-0.8291117195967694 0.19010319380443086,-1.8098969999999999 0.19010319380443086,-2.809897 -0.004987128211698,-3.7906822804032303 -0.3876705605767876,-4.714561812914518 -0.9432407935963898,-5.546031425217063 -1.6503475747829368,-6.25313820640361 -2.481817187085483,-6.808708439423212 -3.4056967195967696,-7.191391871788301 -4.386482,-7.386482193804431 -5.386481999999999,-7.386482193804431 -6.36726728040323,-7.191391871788301 -7.291146812914516,-6.808708439423214 -8.122616425217062,-6.2531382064036105 -8.82972320640361,-5.546031425217063 -9.385293439423211,-4.714561812914518 -9.767976871788303,-3.7906822804032307 -9.96306719380443,-2.809897000000001 -9.96306719380443,-1.8098969999999999 -9.767976871788303,-0.8291117195967705 -9.385293439423211,0.09476781291451752 -8.82972320640361,0.9262374252170615 -8.12261642521706,1.6333442064036117 -7.291146812914519,2.1889144394232125 -6.367267280403231,2.571597871788302 -5.386481999999999,2.766688193804431 -4.386482000000003,2.766688193804431 -3.4056967195967713,2.571597871788303 -2.481817187085483,2.1889144394232125 -1.6503475747829368,1.6333442064036099"/>
<text class="face_text" text-anchor="middle" dominant-baseline="middle" transform="matrix(0.03968723525273949 0 0 0.03968723525273949 0.0 0.0)">0</text>
<text class="face_text" text-anchor="middle" dominant-baseline="middle" transform="matrix(0.03968723525273949 0 0 0.03968723525273949 1.0 0.0)">31</text>
<text class="face_text" text-anchor="middle" dominant-baseline="middle" transform="matrix(0.03968723525273949 0 0 0.03968723525273949 2.0 0.0)">30</text>
<text class="face_text" text-anchor="middle" dominant-baseline="middle" transform="matrix(0.03968723525273949 0 0 0.03968723525273949 3.0 0.0)">29</text>
<text class="face_text" text-anchor="middle" dominant-baseline="middle" transform="matrix(0.03968723525273949 0 0 0.03968723525273949 3.0 5.576585)">33</text>
<text class="face_text" text-anchor="middle" dominant-baseline="middle" transform="matrix(0.03968723525273949 0 0 0.03968723525273949 -0.943241 1.633344)">1</text>
<text class="face_text" text-anchor="middle" dominant-baseline="middle" transform="matrix(0.03968723525273949 0 0 0.03968723525273949 -4.886482 -2.309897)">32</text>
<rect class="edge_bg" x="0.10312764747260494" y="-0.396872352527395" width="0.7937447050547899" height="0.7937447050547899"/>
<text class="edge_text" text-anchor="middle" dominant-baseline="middle" transform="matrix(0.03968723525273949 0 0 0.03968723525273949 0.4999999999999999 -6.123233995736767e-17)">0</text>
<rect class="edge_bg" x="1.103127647472605" y="-0.396872352527395" width="0.7937447050547899" height="0.7937447050547899"/>
<text class="edge_text" text-anchor="middle" dominant-baseline="middle" transform="matrix(0.03968723525273949 0 0 0.03968723525273949 1.5 -6.123233995736767e-17)">95</text>
<rect class="edge_bg" x="2.103127647472605" y="-0.396872352527395" width="0.7937447050547899" height="0.7937447050547899"/>
<text class="edge_text" text-anchor="middle" dominant-baseline="middle" transform="matrix(0.03968723525273949 0 0 0.03968723525273949 2.5 -6.123233995736767e-17)">92</text>
<rect class="edge_bg" x="2.6031276474726055" y="0.10312745366817389" width="0.7937447050547899" height="0.7937447050547899"/>
<text class="edge_text" text-anchor="middle" dominant-baseline="middle" transform="matrix(0.03968723525273949 0 0 0.03968723525273949 3.0000000000000004 0.49999980619556883)">91</text>
<rect class="edge_bg" x="-0.9865599619341211" y="1.5900250380658787" width="0.7937447050547899" height="0.7937447050547899"/>
<text class="edge_text" text-anchor="middle" dominant-baseline="middle" transform="matrix(0.03968723525273949 0 0 0.03968723525273949 -0.5896876094067262 1.9868973905932736)">7</text>
<rect class="edge_bg" x="-1.6936665367170582" y="0.8829184632829414" width="0.7937447050547899" height="0.7937447050547899"/>
<text class="edge_text" text-anchor="middle" dominant-baseline="middle" transform="matrix(0.03968723525273949 0 0 0.03968723525273949 -1.2967941841896633 1.2797908158103364)">6</text>
</svg>
