<?xml version="1.0" encoding="utf-8"?>
<svg version="1.1" xmlns="http://www.w3.org/2000/svg" viewBox="-11.321441813184872 -6.5138461631848745 21.369361626369745 17.98449332636975" style="enable-background:new -11.321441813184872 -6.5138461631848745 21.369361626369745 17.98449332636975;">
<style type="text/css">
  .face_stroke {fill:none; stroke:#000000; stroke-width:0.02; stroke-miterlimit:10;}
  .face_text {fill:#000000; font-family:monospace;}
  .edge_text {fill:#ff0000; font-family:monospace;}
  .edge_bg {fill:#f3f3f3; stroke:#606060; stroke-width:0.01;}
</style>
<polygon class="face_stroke" points="0.5000000000000001,-0.5 -0.5,-0.5000000000000001 -0.5000000000000001,0.5 0.4999999999999999,0.5000000000000001"/>
<polygon class="face_stroke" points="0.4999999999999999,0.5 1.5,0.5000000000000001 1.5000000000000007,-0.49999999999999944 0.49999999999999967,-0.4999999999999998"/>
<polygon class="face_stroke" points="1.5,0.5 2.5,0.5000000000000001 2.500000000000001,-0.49999999999999944 1.4999999999999996,-0.4999999999999998"/>
<polygon class="face_stroke" points="2.5,0.5 3.5,0.5000000000000001 3.500000000000001,-0.49999999999999944 2.4999999999999996,-0.4999999999999998"/>
<polygon class="face_stroke" points="3.5,0.5 4.5,0.5000000000000001 4.500000000000001,-0.49999999999999944 3.4999999999999996,-0.4999999999999998"/>
<polygon class="face_stroke" points="3.500000000000001,0.49999980619556883 2.5192147195967696,0.6950901282116977 1.5953351870854844,1.0777735605767864 0.7638655747829382,1.6333437935963886 0.0567587935963898,2.340450574782937 -0.4988114394232124,3.1719201870854814 -0.881494871788302,4.095799719596769 -1.07658519380443,5.076584999999999 -1.0765851938044309,6.076585 -0.8814948717883029,7.057370280403229 -0.4988114394232124,7.981249812914517 0.05675879359638891,8.812719425217061 0.763865574782939,9.51982620640361 1.5953351870854813,10.075396439423212 2.519214719596769,10.458079871788302 3.500000000000001,10.653170193804431 4.499999999999997,10.653170193804431 5.480785280403229,10.458079871788303 6.4046648129145165,10.075396439423212 7.236134425217063,9.519826206403609 7.943241206403609,8.812719425217065 8.49881143942321,7.981249812914519 8.881494871788302,7.057370280403235 9.07658519380443,6.076585 9.07658519380443,5.076584999999998 8.881494871788302,4.095799719596771 8.498811439423212,3.1719201870854827 7.943241206403609,2.340450574782937 7.236134425217065,1.6333437935963917 6.404664812914519,1.0777735605767882 5.480785280403231,0.6950901282116977 4.500000000000004,0.4999998061955697"/>
<polygon class="face_stroke" points="0.05675892266107374,2.340450310358529 -0.7747106896414713,1.7848800773389262 -1.330280922661074,2.6163496896414715 -0.4988113103585285,3.1719199226610737"/>
<polygon class="face_stroke" points="-0.7747105605767874,1.7848808129145173 -0.39202712821169783,0.8610012804032304 -0.19693680619556897,-0.119784 -0.19693680619556897,-1.1197840000000001 -0.39202712821169783,-2.1005692804032305 -0.7747105605767874,-3.0244488129145175 -1.3302807935963896,-3.855918425217063 -2.0373875747829366,-4.563025206403609 -2.868857187085483,-5.1185954394232125 -3.7927367195967694,-5.501278871788302 -4.773522,-5.696369193804431 -5.773521999999999,-5.696369193804431 -6.75430728040323,-5.501278871788302 -7.678186812914515,-5.118595439423213 -8.509656425217061,-4.563025206403611 -9.21676320640361,-3.855918425217063 -9.772333439423212,-3.0244488129145184 -10.155016871788302,-2.1005692804032305 -10.35010719380443,-1.1197840000000012 -10.35010719380443,-0.11978400000000006 -10.155016871788302,0.8610012804032293 -9.772333439423212,1.7848808129145173 -9.216763206403611,2.6163504252170613 -8.509656425217061,3.3234572064036114 -7.678186812914518,3.8790274394232123 -6.75430728040323,4.261710871788302 -5.773521999999999,4.456801193804431 -4.7735220000000025,4.456801193804431 -3.792736719596771,4.261710871788303 -2.868857187085483,3.8790274394232123 -2.0373875747829366,3.3234572064036096 -1.330280793596391,2.616350425217065"/>
<text class="face_text" text-anchor="middle" dominant-baseline="middle" transform="matrix(0.0359689866527395 0 0 0.0359689866527395 0.0 0.0)">0</text>
<text class="face_text" text-anchor="middle" dominant-baseline="middle" transform="matrix(0.0359689866527395 0 0 0.0359689866527395 1.0 0.0)">31</text>
<text class="face_text" text-anchor="middle" dominant-baseline="middle" transform="matrix(0.0359689866527395 0 0 0.0359689866527395 2.0 0.0)">30</text>
<text class="face_text" text-anchor="middle" dominant-baseline="middle" transform="matrix(0.0359689866527395 0 0 0.0359689866527395 3.0 0.0)">29</text>
<text class="face_text" text-anchor="middle" dominant-baseline="middle" transform="matrix(0.0359689866527395 0 0 0.0359689866527395 4.0 0.0)">28</text>
<text class="face_text" text-anchor="middle" dominant-baseline="middle" transform="matrix(0.0359689866527395 0 0 0.0359689866527395 4.0 5.576585)">33</text>
<text class="face_text" text-anchor="middle" dominant-baseline="middle" transform="matrix(0.0359689866527395 0 0 0.0359689866527395 -0.636761 2.4784)">1</text>
<text class="face_text" text-anchor="middle" dominant-baseline="middle" transform="matrix(0.0359689866527395 0 0 0.0359689866527395 -5.273522 -0.619784)">32</text>
<rect class="edge_bg" x="0.14031013347260485" y="-0.3596898665273951" width="0.7193797330547901" height="0.7193797330547901"/>
<text class="edge_text" text-anchor="middle" dominant-baseline="middle" transform="matrix(0.0359689866527395 0 0 0.0359689866527395 0.4999999999999999 -6.123233995736767e-17)">0</text>
<rect class="edge_bg" x="1.140310133472605" y="-0.3596898665273951" width="0.7193797330547901" height="0.7193797330547901"/>
<text class="edge_text" text-anchor="middle" dominant-baseline="middle" transform="matrix(0.0359689866527395 0 0 0.0359689866527395 1.5 -6.123233995736767e-17)">95</text>
<rect class="edge_bg" x="2.140310133472605" y="-0.3596898665273951" width="0.7193797330547901" height="0.7193797330547901"/>
<text class="edge_text" text-anchor="middle" dominant-baseline="middle" transform="matrix(0.0359689866527395 0 0 0.0359689866527395 2.5 -6.123233995736767e-17)">92</text>
<rect class="edge_bg" x="3.140310133472605" y="-0.3596898665273951" width="0.7193797330547901" height="0.7193797330547901"/>
<text class="edge_text" text-anchor="middle" dominant-baseline="middle" transform="matrix(0.0359689866527395 0 0 0.0359689866527395 3.5 -6.123233995736767e-17)">89</text>
<rect class="edge_bg" x="3.640310133472605" y="0.1403099396681738" width="0.7193797330547901" height="0.7193797330547901"/>
<text class="edge_text" text-anchor="middle" dominant-baseline="middle" transform="matrix(0.0359689866527395 0 0 0.0359689866527395 4.0 0.49999980619556883)">88</text>
<rect class="edge_bg" x="-0.5807160603761223" y="2.396495249982406" width="0.7193797330547901" height="0.7193797330547901"/>
<text class="edge_text" text-anchor="middle" dominant-baseline="middle" transform="matrix(0.0359689866527395 0 0 0.0359689866527395 -0.2210261938487273 2.7561851165098012)">7</text>
<rect class="edge_bg" x="-1.4121855436139832" y="1.8409257525383946" width="0.7193797330547901" height="0.7193797330547901"/>
<text class="edge_text" text-anchor="middle" dominant-baseline="middle" transform="matrix(0.0359689866527395 0 0 0.0359689866527395 -1.052495677086588 2.2006156190657897)">6</text>
</svg>
