<?xml version="1.0" encoding="utf-8"?>
<svg version="1.1" xmlns="http://www.w3.org/2000/svg" viewBox="-11.403639013184874 -4.489198363184874 22.503092026369746 15.863433726369749" style="enable-background:new -11.403639013184874 -4.489198363184874 22.503092026369746 15.863433726369749;">
<style type="text/css">
  .face_stroke {fill:none; stroke:#000000; stroke-width:0.02; stroke-miterlimit:10;}
  .face_text {fill:#000000; font-family:monospace;}
  .edge_text {fill:#ff0000; font-family:monospace;}
  .edge_bg {fill:#f3f3f3; stroke:#606060; stroke-width:0.01;}
</style>
<polygon class="face_stroke" points="0.5000000000000001,-0.5 -0.5,-0.5000000000000001 -0.5000000000000001,0.5 0.4999999999999999,0.5000000000000001"/>
<polygon class="face_stroke" points="0.4999999999999999,0.5 1.5,0.5000000000000001 1.5000000000000007,-0.49999999999999944 0.49999999999999967,-0.4999999999999998"/>
<polygon class="face_stroke" points="1.5,0.5 2.5,0.5000000000000001 2.500000000000001,-0.49999999999999944 1.4999999999999996,-0.4999999999999998"/>
<polygon class="face_stroke" points="2.5,0.5 3.5,0.5000000000000001 3.500000000000001,-0.49999999999999944 2.4999999999999996,-0.4999999999999998"/>
<polygon class="face_stroke" points="3.5,0.5 4.5,0.5000000000000001 4.500000000000001,-0.49999999999999944 3.4999999999999996,-0.4999999999999998"/>
<polygon class="face_stroke" points="4.5,0.5 5.5,0.5000000000000001 5.500000000000001,-0.49999999999999944 4.5,-0.4999999999999998"/>
<polygon class="face_stroke" points="4.500000000000001,0.49999980619556883 3.5192147195967696,0.6950901282116977 2.5953351870854844,1.0777735605767864 1.7638655747829382,1.6333437935963886 1.0567587935963898,2.340450574782937 0.5011885605767876,3.1719201870854814 0.11850512821169801,4.095799719596769 -0.07658519380442996,5.076584999999999 -0.07658519380443085,6.076585 0.11850512821169712,7.057370280403229 0.5011885605767876,7.981249812914517 1.056758793596389,8.812719425217061 1.763865574782939,9.51982620640361 2.5953351870854813,10.075396439423212 3.519214719596769,10.458079871788302 4.500000000000001,10.653170193804431 5.499999999999997,10.653170193804431 6.480785280403229,10.458079871788303 7.4046648129145165,10.075396439423212 8.236134425217063,9.519826206403609 8.94324120640361,8.812719425217065 9.49881143942321,7.981249812914519 9.881494871788302,7.057370280403235 10.07658519380443,6.076585 10.07658519380443,5.076584999999998 9.881494871788302,4.095799719596771 9.498811439423212,3.1719201870854827 8.94324120640361,2.340450574782937 8.236134425217065,1.6333437935963917 7.404664812914519,1.0777735605767882 6.480785280403231,0.6950901282116977 5.500000000000004,0.4999998061955697"/>
<polygon class="face_stroke" points="0.5011884824381883,3.1719199499269015 -0.4226910500730985,2.789236517561812 -0.8053744824381884,3.7131160500730984 0.11850505007309867,4.0957994824381885"/>
<polygon class="face_stroke" points="-0.42269112821169763,2.7892372804032304 -0.22760080619556877,1.808452 -0.22760080619556877,0.808452 -0.42269112821169763,-0.17233328040323048 -0.8053745605767872,-1.0962128129145174 -1.3609447935963894,-1.9276824252170628 -2.0680515747829364,-2.63478920640361 -2.8995211870854827,-3.1903594394232124 -3.823400719596769,-3.573042871788302 -4.804186,-3.768133193804431 -5.804185999999999,-3.768133193804431 -6.78497128040323,-3.573042871788302 -7.708850812914515,-3.1903594394232133 -8.540320425217061,-2.634789206403611 -9.24742720640361,-1.9276824252170628 -9.802997439423212,-1.0962128129145183 -10.185680871788302,-0.1723332804032307 -10.38077119380443,0.8084519999999987 -10.380771193804431,1.808452 -10.185680871788303,2.7892372804032295 -9.802997439423212,3.7131168129145173 -9.24742720640361,4.544586425217061 -8.540320425217061,5.251693206403612 -7.708850812914518,5.807263439423212 -6.78497128040323,6.189946871788302 -5.804185999999999,6.385037193804431 -4.804186000000002,6.385037193804431 -3.823400719596771,6.189946871788303 -2.8995211870854827,5.807263439423212 -2.0680515747829364,5.25169320640361 -1.3609447935963908,4.544586425217065 -0.8053745605767881,3.713116812914519"/>
<text class="face_text" text-anchor="middle" dominant-baseline="middle" transform="matrix(0.0317268674527395 0 0 0.0317268674527395 0.0 0.0)">0</text>
<text class="face_text" text-anchor="middle" dominant-baseline="middle" transform="matrix(0.0317268674527395 0 0 0.0317268674527395 1.0 0.0)">31</text>
<text class="face_text" text-anchor="middle" dominant-baseline="middle" transform="matrix(0.0317268674527395 0 0 0.0317268674527395 2.0 0.0)">30</text>
<text class="face_text" text-anchor="middle" dominant-baseline="middle" transform="matrix(0.0317268674527395 0 0 0.0317268674527395 3.0 0.0)">29</text>
<text class="face_text" text-anchor="middle" dominant-baseline="middle" transform="matrix(0.0317268674527395 0 0 0.0317268674527395 4.0 0.0)">28</text>
<text class="face_text" text-anchor="middle" dominant-baseline="middle" transform="matrix(0.0317268674527395 0 0 0.0317268674527395 5.0 0.0)">27</text>
<text class="face_text" text-anchor="middle" dominant-baseline="middle" transform="matrix(0.0317268674527395 0 0 0.0317268674527395 5.0 5.576585)">33</text>
<text class="face_text" text-anchor="middle" dominant-baseline="middle" transform="matrix(0.0317268674527395 0 0 0.0317268674527395 -0.152093 3.442518)">1</text>
<text class="face_text" text-anchor="middle" dominant-baseline="middle" transform="matrix(0.0317268674527395 0 0 0.0317268674527395 -5.304186 1.308452)">32</text>
<rect class="edge_bg" x="0.1827313254726049" y="-0.31726867452739504" width="0.63453734905479" height="0.63453734905479"/>
<text class="edge_text" text-anchor="middle" dominant-baseline="middle" transform="matrix(0.0317268674527395 0 0 0.0317268674527395 0.4999999999999999 -6.123233995736767e-17)">0</text>
<rect class="edge_bg" x="1.182731325472605" y="-0.31726867452739504" width="0.63453734905479" height="0.63453734905479"/>
<text class="edge_text" text-anchor="middle" dominant-baseline="middle" transform="matrix(0.0317268674527395 0 0 0.0317268674527395 1.5 -6.123233995736767e-17)">95</text>
<rect class="edge_bg" x="2.182731325472605" y="-0.31726867452739504" width="0.63453734905479" height="0.63453734905479"/>
<text class="edge_text" text-anchor="middle" dominant-baseline="middle" transform="matrix(0.0317268674527395 0 0 0.0317268674527395 2.5 -6.123233995736767e-17)">92</text>
<rect class="edge_bg" x="3.182731325472605" y="-0.31726867452739504" width="0.63453734905479" height="0.63453734905479"/>
<text class="edge_text" text-anchor="middle" dominant-baseline="middle" transform="matrix(0.0317268674527395 0 0 0.0317268674527395 3.5 -6.123233995736767e-17)">89</text>
<rect class="edge_bg" x="4.182731325472605" y="-0.31726867452739504" width="0.63453734905479" height="0.63453734905479"/>
<text class="edge_text" text-anchor="middle" dominant-baseline="middle" transform="matrix(0.0317268674527395 0 0 0.0317268674527395 4.5 -6.123233995736767e-17)">86</text>
<rect class="edge_bg" x="4.682731325472605" y="0.18273113166817384" width="0.63453734905479" height="0.63453734905479"/>
<text class="edge_text" text-anchor="middle" dominant-baseline="middle" transform="matrix(0.0317268674527395 0 0 0.0317268674527395 5.0 0.49999980619556883)">85</text>
<rect class="edge_bg" x="-0.007421908271751543" y="3.31659104165515" width="0.63453734905479" height="0.63453734905479"/>
<text class="edge_text" text-anchor="middle" dominant-baseline="middle" transform="matrix(0.0317268674527395 0 0 0.0317268674527395 0.30984676625564345 3.633859716182545)">7</text>
<rect class="edge_bg" x="-0.9313015189216374" y="2.933908372131479" width="0.63453734905479" height="0.63453734905479"/>
<text class="edge_text" text-anchor="middle" dominant-baseline="middle" transform="matrix(0.0317268674527395 0 0 0.0317268674527395 -0.6140328443942424 3.2511770466588743)">6</text>
</svg>
