<?xml version="1.0" encoding="utf-8"?>
<svg version="1.1" xmlns="http://www.w3.org/2000/svg" viewBox="-11.493466963184876 -5.6930375131848745 23.20123892636975 13.561951026369748" style="enable-background:new -11.493466963184876 -5.6930375131848745 23.20123892636975 13.561951026369748;">
<style type="text/css">
  .face_stroke {fill:none; stroke:#000000; stroke-width:0.02; stroke-miterlimit:10;}
  .face_text {fill:#000000; font-family:monospace;}
  .edge_text {fill:#ff0000; font-family:monospace;}
  .edge_bg {fill:#f3f3f3; stroke:#606060; stroke-width:0.01;}
</style>
<polygon class="face_stroke" points="0.5000000000000001,-0.5 -0.5,-0.5000000000000001 -0.5000000000000001,0.5 0.4999999999999999,0.5000000000000001"/>
<polygon class="face_stroke" points="0.49999980619556883,0.49999999999999994 0.6950901282116968,1.4807852804032293 1.0777735605767873,2.4046648129145174 1.6333437935963886,3.2361344252170614 2.3404505747829387,3.9432412064036115 3.171920187085481,4.498811439423212 4.095799719596769,4.881494871788302 5.076585000000001,5.076585193804431 6.076584999999997,5.076585193804431 7.057370280403228,4.881494871788303 7.981249812914516,4.498811439423212 8.812719425217063,3.9432412064036098 9.519826206403609,3.236134425217065 10.075396439423212,2.404664812914519 10.4580798717883,1.4807852804032355 10.653170193804431,0.49999999999999956 10.65317019380443,-0.5000000000000016 10.458079871788303,-1.4807852804032287 10.075396439423212,-2.404664812914517 9.519826206403609,-3.2361344252170627 8.812719425217065,-3.943241206403608 7.981249812914519,-4.4988114394232115 7.057370280403231,-4.881494871788302 6.076585000000004,-5.07658519380443 5.076585000000003,-5.076585193804431 4.095799719596767,-4.881494871788301 3.171920187085483,-4.498811439423213 2.3404505747829405,-3.9432412064036133 1.6333437935963886,-3.236134425217062 1.0777735605767882,-2.404664812914519 0.6950901282116968,-1.4807852804032275 0.4999998061955697,-0.5000000000000092"/>
<polygon class="face_stroke" points="0.5000004791935512,0.5000001987903206 -0.4807848012096794,0.6950905208064491 -0.2856944791935516,1.675875801209679 0.6950908012096795,1.480785479193551"/>
<polygon class="face_stroke" points="-0.48078512821169817,0.6950907195967697 -0.8634685605767878,-0.22878881291451725 -1.41903879359639,-1.0602584252170626 -2.126145574782937,-1.7673652064036096 -2.957615187085483,-2.3229354394232122 -3.8814947195967697,-2.705618871788302 -4.86228,-2.9007091938044307 -5.862279999999999,-2.9007091938044307 -6.843065280403231,-2.705618871788302 -7.766944812914516,-2.322935439423213 -8.598414425217062,-1.767365206403611 -9.305521206403611,-1.0602584252170626 -9.861091439423213,-0.22878881291451814 -10.243774871788302,0.6950907195967695 -10.43886519380443,1.6758759999999988 -10.438865193804432,2.675876 -10.243774871788304,3.6566612804032292 -9.861091439423213,4.580540812914517 -9.305521206403611,5.412010425217062 -8.598414425217062,6.119117206403612 -7.766944812914518,6.674687439423213 -6.843065280403231,7.057370871788303 -5.862279999999999,7.2524611938044306 -4.862280000000003,7.2524611938044306 -3.8814947195967715,7.057370871788303 -2.957615187085483,6.674687439423213 -2.126145574782937,6.11911720640361 -1.4190387935963913,5.4120104252170655 -0.8634685605767887,4.580540812914519 -0.48078512821169905,3.6566612804032355 -0.2856948061955693,2.6758759999999997 -0.2856948061955702,1.6758759999999986"/>
<polygon class="face_stroke" points="-0.8634686896414714,-0.22878907733892617 -0.03199907733892626,-0.7843593103585286 -0.5875693103585284,-1.6158289226610738 -1.4190389226610738,-1.0602586896414714"/>
<text class="face_text" text-anchor="middle" dominant-baseline="middle" transform="matrix(0.027123902052739495 0 0 0.027123902052739495 0.0 0.0)">0</text>
<text class="face_text" text-anchor="middle" dominant-baseline="middle" transform="matrix(0.027123902052739495 0 0 0.027123902052739495 5.576585 0.0)">32</text>
<text class="face_text" text-anchor="middle" dominant-baseline="middle" transform="matrix(0.027123902052739495 0 0 0.027123902052739495 0.107153 1.087938)">31</text>
<text class="face_text" text-anchor="middle" dominant-baseline="middle" transform="matrix(0.027123902052739495 0 0 0.027123902052739495 -5.36228 2.175876)">33</text>
<text class="face_text" text-anchor="middle" dominant-baseline="middle" transform="matrix(0.027123902052739495 0 0 0.027123902052739495 -0.725519 -0.922309)">1</text>
<rect class="edge_bg" x="0.22876078566817387" y="-0.27123902052739557" width="0.5424780410547899" height="0.5424780410547899"/>
<text class="edge_text" text-anchor="middle" dominant-baseline="middle" transform="matrix(0.027123902052739495 0 0 0.027123902052739495 0.49999980619556883 -6.217023808191442e-16)">1</text>
<rect class="edge_bg" x="0.3263066196742203" y="0.719153818464541" width="0.5424780410547899" height="0.5424780410547899"/>
<text class="edge_text" text-anchor="middle" dominant-baseline="middle" transform="matrix(0.027123902052739495 0 0 0.027123902052739495 0.5975456402016153 0.9903928389919359)">2</text>
<rect class="edge_bg" x="-0.6544789877310282" y="0.91424433927099" width="0.5424780410547899" height="0.5424780410547899"/>
<text class="edge_text" text-anchor="middle" dominant-baseline="middle" transform="matrix(0.027123902052739495 0 0 0.027123902052739495 -0.3832399672036333 1.185483359798385)">4</text>
<rect class="edge_bg" x="-1.4124928266786676" y="-0.9157629040175939" width="0.5424780410547899" height="0.5424780410547899"/>
<text class="edge_text" text-anchor="middle" dominant-baseline="middle" transform="matrix(0.027123902052739495 0 0 0.027123902052739495 -1.1412538061512727 -0.644523883490199)">7</text>
</svg>
