<?xml version="1.0" encoding="utf-8"?>
<svg version="1.1" xmlns="http://www.w3.org/2000/svg" viewBox="-0.6706519869868303 -0.618301285094611 2.052628272081442 2.6026282720814415" style="enable-background:new -0.6706519869868303 -0.618301285094611 2.052628272081442 2.6026282720814415;">
<style type="text/css">
  .face_stroke {fill:none; stroke:#000000; stroke-width:0.02; stroke-miterlimit:10;}
  .face_text {fill:#000000; font-family:monospace;}
  .edge_text {fill:#ff0000; font-family:monospace;}
  .edge_bg {fill:#f3f3f3; stroke:#606060; stroke-width:0.01;}
</style>
<polygon class="face_stroke" points="0.288675134594813,-0.5 -0.5773502691896258,-7.07050159149938e-17 0.288675134594813,0.5"/>
<polygon class="face_stroke" points="0.2886749999999999,0.5 1.288675,0.5000000000000001 1.2886750000000007,-0.49999999999999944 0.2886749999999997,-0.4999999999999998"/>
<polygon class="face_stroke" points="0.2886749999999999,0.49999986540518715 0.7886749999999999,1.3660252691896257 1.2886750000000005,0.49999986540518754"/>
<polygon class="face_stroke" points="0.28867470189221933,0.5000002981077807 -0.5773507018922193,1.0000002981077807 -0.07735070189221924,1.8660257018922195 0.7886747018922194,1.3660257018922193"/>
<text class="face_text" text-anchor="middle" dominant-baseline="middle" transform="matrix(0.004105256544162885 0 0 0.004105256544162885 0.0 0.0)">0</text>
<text class="face_text" text-anchor="middle" dominant-baseline="middle" transform="matrix(0.004105256544162885 0 0 0.004105256544162885 0.788675 0.0)">3</text>
<text class="face_text" text-anchor="middle" dominant-baseline="middle" transform="matrix(0.004105256544162885 0 0 0.004105256544162885 0.788675 0.788675)">2</text>
<text class="face_text" text-anchor="middle" dominant-baseline="middle" transform="matrix(0.004105256544162885 0 0 0.004105256544162885 0.105662 1.183013)">1</text>
<rect class="edge_bg" x="0.24762243455837107" y="-0.041052565441628906" width="0.08210513088325769" height="0.08210513088325769"/>
<text class="edge_text" text-anchor="middle" dominant-baseline="middle" transform="matrix(0.004105256544162885 0 0 0.004105256544162885 0.2886749999999999 -6.123233995736767e-17)">0</text>
<rect class="edge_bg" x="0.7476224345583712" y="0.4589472999635582" width="0.08210513088325769" height="0.08210513088325769"/>
<text class="edge_text" text-anchor="middle" dominant-baseline="middle" transform="matrix(0.004105256544162885 0 0 0.004105256544162885 0.788675 0.49999986540518704)">3</text>
<rect class="edge_bg" x="0.4976221364505906" y="0.8919604345583713" width="0.08210513088325769" height="0.08210513088325769"/>
<text class="edge_text" text-anchor="middle" dominant-baseline="middle" transform="matrix(0.004105256544162885 0 0 0.004105256544162885 0.5386747018922194 0.9330130000000001)">1</text>
</svg>
