<?xml version="1.0" encoding="utf-8"?>
<svg version="1.1" id="layer_1" xmlns="http://www.w3.org/2000/svg" xmlns:xlink="http://www.w3.org/1999/xlink" x="0px" y="0px" viewBox="-0.627350403784439 -1.0500000000000003 2.698075807568878 3.6" style="enable-background:new -0.627350403784439 -1.0500000000000003 2.698075807568878 3.6;" xml:space="preserve">
<style type="text/css">
  .no_fill_black_stroke {fill:none; stroke:#000000; stroke-width:0.02; stroke-miterlimit:10;}
  .face_text {fill:#000000; font-family:monospace;}
  .edge_text {fill:#ff0000; font-family:monospace;}
  .edge_bg {fill:#f3f3f3; stroke:#606060; stroke-width:0.02;}
</style>
<polygon class="no_fill_black_stroke" points="0.288675134594813, -0.5 -0.5773502691896258, -7.07050159149938e-17 0.288675134594813, 0.5"/>
<polygon class="no_fill_black_stroke" points="0.28867459621556124, 0.5000000000000002 1.1546999999999998, 1.0000000000000002 2.0207254037844384, 0.5000000000000006 2.0207254037844393, -0.4999999999999994 1.1547000000000003, -1.0000000000000002 0.288674596215561, -0.4999999999999999"/>
<polygon class="no_fill_black_stroke" points="0.28867500000000007, 0.4999999999999998 -0.5773504037844389, 1.0 -0.5773504037844388, 2.0 0.28867499999999985, 2.5 1.1547004037844386, 2.0000000000000004 1.1547004037844393, 1.0000000000000007"/>
<text class="face_text" text-anchor="middle" dominant-baseline="middle" transform="matrix(0.005396151615137757 0 0 0.005396151615137757 0.0 0.0)">0</text>
<text class="face_text" text-anchor="middle" dominant-baseline="middle" transform="matrix(0.005396151615137757 0 0 0.005396151615137757 1.1547 0.0)">2</text>
<text class="face_text" text-anchor="middle" dominant-baseline="middle" transform="matrix(0.005396151615137757 0 0 0.005396151615137757 0.288675 1.5)">1</text>
<rect class="edge_bg" x="0.23471308006418368" y="-0.05396151615137767" width="0.10792303230275513" height="0.10792303230275513"/>
<text class="edge_text" text-anchor="middle" dominant-baseline="middle" transform="matrix(0.005396151615137757 0 0 0.005396151615137757 0.28867459621556124 -1.0605752387249072e-16)">0</text>
<rect class="edge_bg" x="0.667726185740842" y="0.6960384838486223" width="0.10792303230275513" height="0.10792303230275513"/>
<text class="edge_text" text-anchor="middle" dominant-baseline="middle" transform="matrix(0.005396151615137757 0 0 0.005396151615137757 0.7216877018922195 0.7499999999999999)">1</text>
</svg>
