<?xml version="1.0" encoding="utf-8"?>
<svg version="1.1" xmlns="http://www.w3.org/2000/svg" viewBox="-1.737562128196414 -4.555463570271766 4.601418202949997 5.296199930760898" style="enable-background:new -1.737562128196414 -4.555463570271766 4.601418202949997 5.296199930760898;">
<style type="text/css">
  .face_stroke {fill:none; stroke:#000000; stroke-width:0.02; stroke-miterlimit:10;}
  .face_text {fill:#000000; font-family:monospace;}
  .edge_text {fill:#ff0000; font-family:monospace;}
  .edge_bg {fill:#f3f3f3; stroke:#606060; stroke-width:0.01;}
</style>
<polygon class="face_stroke" points="0.288675134594813,-0.5 -0.5773502691896258,-7.07050159149938e-17 0.288675134594813,0.5"/>
<polygon class="face_stroke" points="0.2886749999999999,0.5 1.288675,0.5000000000000001 1.2886750000000007,-0.49999999999999944 0.2886749999999997,-0.4999999999999998"/>
<polygon class="face_stroke" points="1.288674865405187,0.4999999999999999 2.1547002691896258,1.414100318299876e-16 1.2886748654051876,-0.5000000000000003"/>
<polygon class="face_stroke" points="2.1547007018922195,-2.981077805719323e-07 2.6547007018922195,-0.8660257018922193 1.7886752981077807,-1.3660257018922195 1.2886752981077807,-0.5000002981077809"/>
<polygon class="face_stroke" points="2.654700134594813,-0.866025 2.654700134594813,-1.866025 1.7886747308103743,-1.366025"/>
<polygon class="face_stroke" points="2.6547007018922195,-1.8660252981077805 2.1547007018922195,-2.732050701892219 1.2886752981077807,-2.2320507018922195 1.788675298107781,-1.3660252981077805"/>
<polygon class="face_stroke" points="2.1547002691896258,-2.732051 1.2886748654051872,-3.232051 1.288674865405187,-2.232051"/>
<polygon class="face_stroke" points="1.288675,-3.232051 0.288675,-3.232051 0.2886749999999999,-2.232051 1.288675,-2.232051"/>
<polygon class="face_stroke" points="0.288675134594813,-3.232051 -0.5773502691896258,-2.732051 0.288675134594813,-2.232051"/>
<polygon class="face_stroke" points="0.28867518201001263,-3.2320511457811754 0.08076349119225334,-4.210198746514981 -0.9137584041760198,-4.314727209782634 -1.3204950472518202,-3.401181752140034 -0.5773502217744259,-2.7320511457811754"/>
<polygon class="face_stroke" points="-1.3204950448865451,-3.4011817356975547 -1.5284067357043045,-2.423034134963749 -0.5773502194091508,-2.732051129338696"/>
<polygon class="face_stroke" points="-1.5284067553350504,-2.423033760960103 -1.2193897609601032,-1.4719772446649495 -0.26833324466494957,-1.780994239039897 -0.5773502390398968,-2.7320507553350506"/>
<polygon class="face_stroke" points="-1.2193899602355867,-1.471977 -1.2193899602355867,-0.4719770000000001 -0.26833344394043335,-0.16296000562505253 0.3194518083520399,-0.9719769999999998 -0.26833344394043296,-1.7809939943749473"/>
</svg>
