<?xml version="1.0" encoding="utf-8"?>
<svg version="1.1" id="layer_1" xmlns="http://www.w3.org/2000/svg" xmlns:xlink="http://www.w3.org/1999/xlink" x="0px" y="0px" viewBox="-1.257106781186548 -1.2571067811865484 4.928423562373096 2.7730350716504115" style="enable-background:new -1.257106781186548 -1.2571067811865484 4.928423562373096 2.7730350716504115;" xml:space="preserve">
<style type="text/css">
  .no_fill_black_stroke {fill:none; stroke:#000000; stroke-width:0.02; stroke-miterlimit:10;}
  .face_text {fill:#000000; font-family:monospace;}
  .edge_text {fill:#ff0000; font-family:monospace;}
  .edge_bg {fill:#f3f3f3; stroke:#606060; stroke-width:0.02;}
</style>
<polygon class="no_fill_black_stroke" points="1.2071067811865475, -0.5 0.5000000000000001, -1.2071067811865475 -0.49999999999999994, -1.2071067811865475 -1.2071067811865475, -0.5000000000000002 -1.207106781186548, 0.49999999999999933 -0.49999999999999967, 1.2071067811865477 0.5000000000000003, 1.2071067811865475 1.2071067811865477, 0.4999999999999997"/>
<polygon class="no_fill_black_stroke" points="1.2071032188134523, 0.49999999999999933 1.9142100000000006, 1.2071067811865477 2.9142100000000006, 1.2071067811865475 3.6213167811865477, 0.4999999999999997 3.621316781186548, -0.49999999999999917 2.91421, -1.2071067811865477 1.9142100000000022, -1.2071067811865483 1.2071032188134532, -0.500000000000001"/>
<polygon class="no_fill_black_stroke" points="1.2071107546386577, 0.5000024641747945 0.948291709536137, 1.465928290463863 1.9142175358252054, 1.2071092453613421"/>
<text class="face_text" text-anchor="middle" dominant-baseline="middle" transform="matrix(0.005546070143300823 0 0 0.005546070143300823 0.0 0.0)">0</text>
<text class="face_text" text-anchor="middle" dominant-baseline="middle" transform="matrix(0.005546070143300823 0 0 0.005546070143300823 2.41421 0.0)">2</text>
<text class="face_text" text-anchor="middle" dominant-baseline="middle" transform="matrix(0.005546070143300823 0 0 0.005546070143300823 1.35654 1.05768)">1</text>
<rect class="edge_bg" x="1.1516425173804445" y="-0.05546070143300838" width="0.11092140286601647" height="0.11092140286601647"/>
<text class="edge_text" text-anchor="middle" dominant-baseline="middle" transform="matrix(0.005546070143300823 0 0 0.005546070143300823 1.2071032188134527 -1.4782794558091698e-16)">0</text>
<rect class="edge_bg" x="1.5052034437989235" y="0.7980951533350602" width="0.11092140286601647" height="0.11092140286601647"/>
<text class="edge_text" text-anchor="middle" dominant-baseline="middle" transform="matrix(0.005546070143300823 0 0 0.005546070143300823 1.5606641452319316 0.8535558547680684)">1</text>
</svg>
