<?xml version="1.0" encoding="utf-8"?>
<svg version="1.1" id="layer_1" xmlns="http://www.w3.org/2000/svg" xmlns:xlink="http://www.w3.org/1999/xlink" x="0px" y="0px" viewBox="-1.468431781186548 -1.2571067811865484 4.221318562373096 4.221323562373096" style="enable-background:new -1.468431781186548 -1.2571067811865484 4.221318562373096 4.221323562373096;" xml:space="preserve">
<style type="text/css">
  .no_fill_black_stroke {fill:none; stroke:#000000; stroke-width:0.02; stroke-miterlimit:10;}
  .face_text {fill:#000000; font-family:monospace;}
  .edge_text {fill:#ff0000; font-family:monospace;}
  .edge_bg {fill:#f3f3f3; stroke:#606060; stroke-width:0.02;}
</style>
<polygon class="no_fill_black_stroke" points="0.288675134594813, -0.5 -0.5773502691896258, -7.07050159149938e-17 0.288675134594813, 0.5"/>
<polygon class="no_fill_black_stroke" points="0.2886732188134522, 0.49999999999999933 0.9957800000000004, 1.2071067811865477 1.9957800000000003, 1.2071067811865475 2.702886781186548, 0.4999999999999997 2.702886781186548, -0.49999999999999917 1.9957799999999999, -1.2071067811865477 0.9957800000000021, -1.2071067811865483 0.2886732188134531, -0.500000000000001"/>
<polygon class="no_fill_black_stroke" points="0.2886750000000001, 0.5000032188134524 -0.711325, 0.5000032188134524 -1.4184317811865474, 1.2071099999999997 -1.418431781186548, 2.2071099999999992 -0.7113249999999997, 2.9142167811865476 0.28867500000000035, 2.914216781186547 0.9957817811865477, 2.2071099999999997 0.9957817811865479, 1.2071100000000008"/>
<text class="face_text" text-anchor="middle" dominant-baseline="middle" transform="matrix(0.008442637124746192 0 0 0.008442637124746192 0.0 0.0)">1</text>
<text class="face_text" text-anchor="middle" dominant-baseline="middle" transform="matrix(0.008442637124746192 0 0 0.008442637124746192 1.49578 0.0)">0</text>
<text class="face_text" text-anchor="middle" dominant-baseline="middle" transform="matrix(0.008442637124746192 0 0 0.008442637124746192 -0.211325 1.70711)">2</text>
<rect class="edge_bg" x="0.20424684756599074" y="-0.08442637124746206" width="0.16885274249492382" height="0.16885274249492382"/>
<text class="edge_text" text-anchor="middle" dominant-baseline="middle" transform="matrix(0.008442637124746192 0 0 0.008442637124746192 0.28867321881345265 -1.4782794558091698e-16)">2</text>
<rect class="edge_bg" x="0.5578020193458119" y="0.7691302381592644" width="0.16885274249492382" height="0.16885274249492382"/>
<text class="edge_text" text-anchor="middle" dominant-baseline="middle" transform="matrix(0.008442637124746192 0 0 0.008442637124746192 0.6422283905932737 0.8535566094067263)">0</text>
</svg>
