<?xml version="1.0" encoding="utf-8"?>
<svg version="1.1" id="layer_1" xmlns="http://www.w3.org/2000/svg" xmlns:xlink="http://www.w3.org/1999/xlink" x="0px" y="0px" viewBox="-1.5888417685876268 -1.668033988749895 6.255363537175254 3.33606797749979" style="enable-background:new -1.5888417685876268 -1.668033988749895 6.255363537175254 3.33606797749979;" xml:space="preserve">
<style type="text/css">
  .no_fill_black_stroke {fill:none; stroke:#000000; stroke-width:0.02; stroke-miterlimit:10;}
  .face_text {fill:#000000; font-family:monospace;}
  .edge_text {fill:#ff0000; font-family:monospace;}
  .edge_bg {fill:#f3f3f3; stroke:#606060; stroke-width:0.02;}
</style>
<polygon class="no_fill_black_stroke" points="1.5388417685876268, -0.49999999999999994 0.9510565162951536, -1.3090169943749475 9.907600726170916e-17, -1.618033988749895 -0.9510565162951534, -1.3090169943749475 -1.5388417685876268, -0.5000000000000001 -1.5388417685876268, 0.5000000000000006 -0.9510565162951538, 1.3090169943749472 -2.9722802178512745e-16, 1.618033988749895 0.9510565162951533, 1.3090169943749477 1.5388417685876268, 0.5000000000000004"/>
<polygon class="no_fill_black_stroke" points="1.5388382314123732, 0.5000000000000006 2.1266234837048463, 1.3090169943749472 3.0776799999999995, 1.618033988749895 4.028736516295154, 1.3090169943749477 4.616521768587627, 0.5000000000000004 4.616521768587627, -0.4999999999999996 4.028736516295155, -1.3090169943749463 3.0776800000000004, -1.618033988749895 2.1266234837048468, -1.309016994374948 1.5388382314123734, -0.5000000000000006"/>
<polygon class="no_fill_black_stroke" points="1.5388404635944424, 0.5000025159941505 1.132103820518642, 1.4135479736367516 2.1266257158869153, 1.309019510369098"/>
<text class="face_text" text-anchor="middle" dominant-baseline="middle" transform="matrix(0.00667213595499958 0 0 0.00667213595499958 0.0 0.0)">0</text>
<text class="face_text" text-anchor="middle" dominant-baseline="middle" transform="matrix(0.00667213595499958 0 0 0.00667213595499958 3.07768 0.0)">2</text>
<text class="face_text" text-anchor="middle" dominant-baseline="middle" transform="matrix(0.00667213595499958 0 0 0.00667213595499958 1.59919 1.07419)">1</text>
<rect class="edge_bg" x="1.4721168718623772" y="-0.06672135954999599" width="0.13344271909999159" height="0.13344271909999159"/>
<text class="edge_text" text-anchor="middle" dominant-baseline="middle" transform="matrix(0.00667213595499958 0 0 0.00667213595499958 1.538838231412373 -1.8845376462950893e-16)">0</text>
<rect class="edge_bg" x="1.766011730190683" y="0.8377896536316284" width="0.13344271909999159" height="0.13344271909999159"/>
<text class="edge_text" text-anchor="middle" dominant-baseline="middle" transform="matrix(0.00667213595499958 0 0 0.00667213595499958 1.8327330897406788 0.9045110131816242)">1</text>
</svg>
