<?xml version="1.0" encoding="utf-8"?>
<svg version="1.1" id="layer_1" xmlns="http://www.w3.org/2000/svg" xmlns:xlink="http://www.w3.org/1999/xlink" x="0px" y="0px" viewBox="-1.5888417685876268 -1.668033988749895 6.255363537175254 6.263117977499789" style="enable-background:new -1.5888417685876268 -1.668033988749895 6.255363537175254 6.263117977499789;" xml:space="preserve">
<style type="text/css">
  .no_fill_black_stroke {fill:none; stroke:#000000; stroke-width:0.02; stroke-miterlimit:10;}
  .face_text {fill:#000000; font-family:monospace;}
  .edge_text {fill:#ff0000; font-family:monospace;}
  .edge_bg {fill:#f3f3f3; stroke:#606060; stroke-width:0.02;}
</style>
<polygon class="no_fill_black_stroke" points="1.5388417685876268, -0.49999999999999994 0.9510565162951536, -1.3090169943749475 9.907600726170916e-17, -1.618033988749895 -0.9510565162951534, -1.3090169943749475 -1.5388417685876268, -0.5000000000000001 -1.5388417685876268, 0.5000000000000006 -0.9510565162951538, 1.3090169943749472 -2.9722802178512745e-16, 1.618033988749895 0.9510565162951533, 1.3090169943749477 1.5388417685876268, 0.5000000000000004"/>
<polygon class="no_fill_black_stroke" points="1.5388382314123732, 0.5000000000000006 2.1266234837048463, 1.3090169943749472 3.0776799999999995, 1.618033988749895 4.028736516295154, 1.3090169943749477 4.616521768587627, 0.5000000000000004 4.616521768587627, -0.4999999999999996 4.028736516295155, -1.3090169943749463 3.0776800000000004, -1.618033988749895 2.1266234837048468, -1.309016994374948 1.5388382314123734, -0.5000000000000006"/>
<polygon class="no_fill_black_stroke" points="2.12663, 1.309016011250105 1.1755734837048466, 1.6180330056250525 0.5877882314123732, 2.42705 0.5877882314123732, 3.4270500000000004 1.1755734837048464, 4.236066994374947 2.1266299999999996, 4.545083988749894 3.077686516295153, 4.236066994374948 3.6654717685876266, 3.4270500000000004 3.6654717685876266, 2.4270500000000004 3.077686516295155, 1.6180330056250536"/>
<polygon class="no_fill_black_stroke" points="2.126623780590849, 1.3090178706613036 1.383478955113455, 0.6398872643024452 1.1755672642956956, 1.6180348650362508"/>
<text class="face_text" text-anchor="middle" dominant-baseline="middle" transform="matrix(0.012510727074350508 0 0 0.012510727074350508 0.0 0.0)">0</text>
<text class="face_text" text-anchor="middle" dominant-baseline="middle" transform="matrix(0.012510727074350508 0 0 0.012510727074350508 3.07768 0.0)">2</text>
<text class="face_text" text-anchor="middle" dominant-baseline="middle" transform="matrix(0.012510727074350508 0 0 0.012510727074350508 2.12663 2.92705)">10</text>
<text class="face_text" text-anchor="middle" dominant-baseline="middle" transform="matrix(0.012510727074350508 0 0 0.012510727074350508 1.56189 1.18898)">1</text>
<rect class="edge_bg" x="1.413730960668868" y="-0.12510727074350528" width="0.25021454148701017" height="0.25021454148701017"/>
<text class="edge_text" text-anchor="middle" dominant-baseline="middle" transform="matrix(0.012510727074350508 0 0 0.012510727074350508 1.538838231412373 -1.8845376462950893e-16)">0</text>
<rect class="edge_bg" x="2.4770509874040716" y="1.3384172376940735" width="0.25021454148701017" height="0.25021454148701017"/>
<text class="edge_text" text-anchor="middle" dominant-baseline="middle" transform="matrix(0.012510727074350508 0 0 0.012510727074350508 2.602158258147577 1.4635245084375785)">17</text>
<rect class="edge_bg" x="1.5259882516997676" y="1.3384190971052723" width="0.25021454148701017" height="0.25021454148701017"/>
<text class="edge_text" text-anchor="middle" dominant-baseline="middle" transform="matrix(0.012510727074350508 0 0 0.012510727074350508 1.6510955224432726 1.4635263678487773)">19</text>
</svg>
