<?xml version="1.0" encoding="utf-8"?>
<svg version="1.1" id="layer_1" xmlns="http://www.w3.org/2000/svg" xmlns:xlink="http://www.w3.org/1999/xlink" x="0px" y="0px" viewBox="-1.5888417685876268 -1.668033988749895 6.255363537175254 6.396890052751354" style="enable-background:new -1.5888417685876268 -1.668033988749895 6.255363537175254 6.396890052751354;" xml:space="preserve">
<style type="text/css">
  .no_fill_black_stroke {fill:none; stroke:#000000; stroke-width:0.02; stroke-miterlimit:10;}
  .face_text {fill:#000000; font-family:monospace;}
  .edge_text {fill:#ff0000; font-family:monospace;}
  .edge_bg {fill:#f3f3f3; stroke:#606060; stroke-width:0.02;}
</style>
<polygon class="no_fill_black_stroke" points="1.5388417685876268, -0.49999999999999994 0.9510565162951536, -1.3090169943749475 9.907600726170916e-17, -1.618033988749895 -0.9510565162951534, -1.3090169943749475 -1.5388417685876268, -0.5000000000000001 -1.5388417685876268, 0.5000000000000006 -0.9510565162951538, 1.3090169943749472 -2.9722802178512745e-16, 1.618033988749895 0.9510565162951533, 1.3090169943749477 1.5388417685876268, 0.5000000000000004"/>
<polygon class="no_fill_black_stroke" points="1.5388382314123732, 0.5000000000000006 2.1266234837048463, 1.3090169943749472 3.0776799999999995, 1.618033988749895 4.028736516295154, 1.3090169943749477 4.616521768587627, 0.5000000000000004 4.616521768587627, -0.4999999999999996 4.028736516295155, -1.3090169943749463 3.0776800000000004, -1.618033988749895 2.1266234837048468, -1.309016994374948 1.5388382314123734, -0.5000000000000006"/>
<polygon class="no_fill_black_stroke" points="3.0776862194091508, 1.6180321293386963 3.820831044886545, 2.287162735697555 4.028742735704305, 1.309015134963749"/>
<polygon class="no_fill_black_stroke" points="3.0776837129666794, 1.6180323992661942 2.0831618175984064, 1.5135039359985407 1.2171364138139678, 2.0135039359985405 0.8103997707381674, 2.9270493936411413 1.0183114615559268, 3.905196994374948 1.761456287033321, 4.574327600733806 2.755978182401593, 4.67885606400146 3.6220035861860334, 4.178856064001459 4.0287402292618335, 3.265310606358858 3.8208285384440748, 2.287163005625054"/>
<polygon class="no_fill_black_stroke" points="2.083160269189626, 1.51351 1.2171348654051872, 1.0135099999999997 1.2171348654051868, 2.0135099999999997"/>
<text class="face_text" text-anchor="middle" dominant-baseline="middle" transform="matrix(0.012510727074350508 0 0 0.012510727074350508 0.0 0.0)">0</text>
<text class="face_text" text-anchor="middle" dominant-baseline="middle" transform="matrix(0.012510727074350508 0 0 0.012510727074350508 3.07768 0.0)">2</text>
<text class="face_text" text-anchor="middle" dominant-baseline="middle" transform="matrix(0.012510727074350508 0 0 0.012510727074350508 3.64242 1.73807)">9</text>
<text class="face_text" text-anchor="middle" dominant-baseline="middle" transform="matrix(0.012510727074350508 0 0 0.012510727074350508 2.41957 3.09618)">10</text>
<text class="face_text" text-anchor="middle" dominant-baseline="middle" transform="matrix(0.012510727074350508 0 0 0.012510727074350508 1.50581 1.51351)">1</text>
<rect class="edge_bg" x="1.413730960668868" y="-0.12510727074350528" width="0.25021454148701017" height="0.25021454148701017"/>
<text class="edge_text" text-anchor="middle" dominant-baseline="middle" transform="matrix(0.012510727074350508 0 0 0.012510727074350508 1.538838231412373 -1.8845376462950893e-16)">0</text>
<rect class="edge_bg" x="3.4281072068132223" y="1.3384163614077176" width="0.25021454148701017" height="0.25021454148701017"/>
<text class="edge_text" text-anchor="middle" dominant-baseline="middle" transform="matrix(0.012510727074350508 0 0 0.012510727074350508 3.5532144775567276 1.4635236321512226)">15</text>
<rect class="edge_bg" x="3.3241488549618716" y="1.8274904317021181" width="0.25021454148701017" height="0.25021454148701017"/>
<text class="edge_text" text-anchor="middle" dominant-baseline="middle" transform="matrix(0.012510727074350508 0 0 0.012510727074350508 3.449256125705377 1.9525977024456231)">18</text>
<rect class="edge_bg" x="1.5250402965539016" y="1.6384027292564949" width="0.25021454148701017" height="0.25021454148701017"/>
<text class="edge_text" text-anchor="middle" dominant-baseline="middle" transform="matrix(0.012510727074350508 0 0 0.012510727074350508 1.6501475672974066 1.76351)">19</text>
</svg>
