<?xml version="1.0" encoding="utf-8"?>
<svg version="1.1" xmlns="http://www.w3.org/2000/svg" viewBox="-1.8466101454463895 -1.9261899376248843 6.770904290892778 6.779430875249769" style="enable-background:new -1.8466101454463895 -1.9261899376248843 6.770904290892778 6.779430875249769;">
<style type="text/css">
  .face_stroke {fill:none; stroke:#000000; stroke-width:0.02; stroke-miterlimit:10;}
  .face_text {fill:#000000; font-family:monospace;}
  .edge_text {fill:#ff0000; font-family:monospace;}
  .edge_bg {fill:#f3f3f3; stroke:#606060; stroke-width:0.01;}
</style>
<polygon class="face_stroke" points="1.5388417685876268,-0.49999999999999994 0.9510565162951536,-1.3090169943749475 9.907600726170916e-17,-1.618033988749895 -0.9510565162951534,-1.3090169943749475 -1.5388417685876268,-0.5000000000000001 -1.5388417685876268,0.5000000000000006 -0.9510565162951538,1.3090169943749472 -2.9722802178512745e-16,1.618033988749895 0.9510565162951533,1.3090169943749477 1.5388417685876268,0.5000000000000004"/>
<polygon class="face_stroke" points="1.5388422314123733,0.5000000000000006 2.1266274837048464,1.3090169943749472 3.0776839999999996,1.618033988749895 4.028740516295153,1.3090169943749477 4.616525768587627,0.5000000000000004 4.616525768587627,-0.4999999999999996 4.028740516295155,-1.3090169943749463 3.0776840000000005,-1.618033988749895 2.126627483704847,-1.309016994374948 1.5388422314123735,-0.5000000000000006"/>
<polygon class="face_stroke" points="2.126627,1.3090170112501052 1.1755704837048466,1.6180340056250526 0.5877852314123733,2.427051 0.5877852314123733,3.4270510000000005 1.1755704837048464,4.236067994374947 2.1266269999999996,4.545084988749895 3.0776835162951532,4.236067994374948 3.665468768587627,3.4270510000000005 3.665468768587627,2.4270510000000005 3.077683516295155,1.6180340056250537"/>
<polygon class="face_stroke" points="2.126626780590849,1.3090168706613037 1.383481955113455,0.6398862643024453 1.1755702642956956,1.618033865036251"/>
</svg>
