<?xml version="1.0" encoding="utf-8"?>
<svg version="1.1" xmlns="http://www.w3.org/2000/svg" viewBox="-1.027627923973661 -1.1616025201892222 3.5552554441628836 3.5552554441628827" style="enable-background:new -1.027627923973661 -1.1616025201892222 3.5552554441628836 3.5552554441628827;">
<style type="text/css">
  .face_stroke {fill:none; stroke:#000000; stroke-width:0.02; stroke-miterlimit:10;}
  .face_text {fill:#000000; font-family:monospace;}
  .edge_text {fill:#ff0000; font-family:monospace;}
  .edge_bg {fill:#f3f3f3; stroke:#606060; stroke-width:0.01;}
</style>
<polygon class="face_stroke" points="0.8660254037844389,-0.5 6.123233995736767e-17,-1.0000000000000002 -0.8660254037844389,-0.5 -0.8660254037844388,0.5000000000000002 -1.8369701987210302e-16,1.0000000000000002 0.8660254037844386,0.5000000000000006"/>
<polygon class="face_stroke" points="0.8660249999999999,0.5 1.866025,0.5000000000000001 1.8660250000000007,-0.49999999999999944 0.8660249999999997,-0.4999999999999998"/>
<polygon class="face_stroke" points="0.866025,0.4999995962155611 0.3660249999999998,1.3660249999999998 0.8660249999999995,2.232050403784439 1.8660250000000003,2.232050403784439 2.3660250000000005,1.3660250000000003 1.8660249999999998,0.499999596215561"/>
<text class="face_text" text-anchor="middle" dominant-baseline="middle" transform="matrix(0.007110510888325766 0 0 0.007110510888325766 0.0 0.0)">1</text>
<text class="face_text" text-anchor="middle" dominant-baseline="middle" transform="matrix(0.007110510888325766 0 0 0.007110510888325766 1.366025 0.0)">0</text>
<text class="face_text" text-anchor="middle" dominant-baseline="middle" transform="matrix(0.007110510888325766 0 0 0.007110510888325766 1.366025 1.366025)">2</text>
<rect class="edge_bg" x="0.7949198911167423" y="-0.07110510888325772" width="0.14221021776651532" height="0.14221021776651532"/>
<text class="edge_text" text-anchor="middle" dominant-baseline="middle" transform="matrix(0.007110510888325766 0 0 0.007110510888325766 0.8660249999999999 -6.123233995736767e-17)">1</text>
<rect class="edge_bg" x="1.2949198911167423" y="0.42889448733230356" width="0.14221021776651532" height="0.14221021776651532"/>
<text class="edge_text" text-anchor="middle" dominant-baseline="middle" transform="matrix(0.007110510888325766 0 0 0.007110510888325766 1.366025 0.4999995962155612)">2</text>
</svg>
