<?xml version="1.0" encoding="utf-8"?>
<svg version="1.1" xmlns="http://www.w3.org/2000/svg" viewBox="-2.5317879525959084 -3.015252079500396 4.3261218492075635 3.6826450356670817" style="enable-background:new -2.5317879525959084 -3.015252079500396 4.3261218492075635 3.6826450356670817;">
<style type="text/css">
  .face_stroke {fill:none; stroke:#000000; stroke-width:0.02; stroke-miterlimit:10;}
  .face_text {fill:#000000; font-family:monospace;}
  .edge_text {fill:#ff0000; font-family:monospace;}
  .edge_bg {fill:#f3f3f3; stroke:#606060; stroke-width:0.01;}
</style>
<polygon class="face_stroke" points="0.288675134594813,-0.5 -0.5773502691896258,-7.07050159149938e-17 0.288675134594813,0.5"/>
<polygon class="face_stroke" points="0.2886749999999999,0.5 1.288675,0.5000000000000001 1.2886750000000007,-0.49999999999999944 0.2886749999999997,-0.4999999999999998"/>
<polygon class="face_stroke" points="1.288675,-0.5000000397644132 1.5976919943749475,-1.4510565560595667 0.788675,-2.03884180835204 -0.020341994374947325,-1.4510565560595667 0.2886749999999999,-0.5000000397644133"/>
<polygon class="face_stroke" points="0.7886751233337104,-2.038842128958763 0.20088987104123718,-2.8478591233337105 -0.6081271233337103,-2.260073871041237 -0.020341871041237275,-1.4510568766662897"/>
<polygon class="face_stroke" points="-0.6081275364055576,-2.2600734840058494 -1.014864179481358,-1.3465280263632486 -0.020342284113084474,-1.451056489630902"/>
<polygon class="face_stroke" points="-0.6081269496407994,-2.2600734072834006 -1.5216724072834003,-2.6668100503592007 -1.9284090503592006,-1.7532645927165995 -1.0148635927166,-1.3465279496407994"/>
<polygon class="face_stroke" points="-1.9284094072834004,-1.7532650503592007 -2.3351460503592008,-0.8397195927165995 -1.4216005927166002,-0.4329829496407992 -1.0148639496407994,-1.3465284072833998"/>
<polygon class="face_stroke" points="-1.4216000503592006,-0.4329825927165995 -0.5080545927166001,-0.026245949640799182 -0.10131794964079921,-0.9397914072833997 -1.0148634072834004,-1.3465280503592005"/>
</svg>
