<?xml version="1.0" encoding="utf-8"?>
<svg version="1.1" id="layer_1" xmlns="http://www.w3.org/2000/svg" xmlns:xlink="http://www.w3.org/1999/xlink" x="0px" y="0px" viewBox="-2.9387718953682733 -1.0500000000000003 7.141067299152713 4.696185457642601" style="enable-background:new -2.9387718953682733 -1.0500000000000003 7.141067299152713 4.696185457642601;" xml:space="preserve">
<style type="text/css">
  .no_fill_black_stroke {fill:none; stroke:#000000; stroke-width:0.02; stroke-miterlimit:10;}
  .face_text {fill:#000000; font-family:monospace;}
  .edge_text {fill:#ff0000; font-family:monospace;}
  .edge_bg {fill:#f3f3f3; stroke:#606060; stroke-width:0.02;}
</style>
<polygon class="no_fill_black_stroke" points="0.6881909602355868, -0.5 -0.26286555605956674, -0.8090169943749475 -0.8506508083520399, -1.0417467896404342e-16 -0.2628655560595669, 0.8090169943749473 0.6881909602355867, 0.5000000000000001"/>
<polygon class="no_fill_black_stroke" points="0.6881945962155611, 0.5000000000000002 1.5542199999999997, 1.0000000000000002 2.4202454037844383, 0.5000000000000006 2.420245403784439, -0.4999999999999994 1.5542200000000002, -1.0000000000000002 0.6881945962155609, -0.4999999999999999"/>
<polygon class="no_fill_black_stroke" points="2.420244596215561, 0.5000000000000002 3.28627, 1.0000000000000002 4.152295403784438, 0.5000000000000006 4.152295403784439, -0.4999999999999994 3.2862700000000005, -1.0000000000000002 2.4202445962155608, -0.4999999999999999"/>
<polygon class="no_fill_black_stroke" points="2.420242778225574, 0.49999914578117544 1.6770979527481797, 1.1691297521400337 2.08383459582398, 2.082675209782634 3.078356491192253, 1.9781467465149813 3.286268182010013, 0.9999991457811759"/>
<polygon class="no_fill_black_stroke" points="1.6770952522924731, 1.1691330056250524 0.6825733569241998, 1.0646045423573989 0.09478810463172649, 1.8736215367323463 0.5015247477075266, 2.7871669943749477 1.4960466430758006, 2.891695457642601 2.0838318953682737, 2.0826784632676536"/>
<polygon class="no_fill_black_stroke" points="0.09479025229247323, 1.8736230056250525 -0.8997316430758002, 1.769094542357399 -1.4875168953682736, 2.5781115367323464 -1.0807802522924734, 3.4916569943749476 -0.08625835692419936, 3.5961854576426013 0.5015268953682734, 2.7871684632676534"/>
<polygon class="no_fill_black_stroke" points="-0.8997281046317265, 1.7690884632676536 -1.3064647477075266, 0.8555430056250524 -2.3009866430758, 0.7510145423573988 -2.8887718953682735, 1.5600315367323463 -2.4820352522924733, 2.4735769943749477 -1.4875133569241994, 2.578105457642601"/>
<polygon class="no_fill_black_stroke" points="-1.3064733569241995, 0.855545257642601 -0.7186881046317264, 0.04652826326765348 -1.1254247477075268, -0.8670171943749476 -2.1199466430758003, -0.9715456576426011 -2.7077318953682736, -0.16252866326765375 -2.3009952522924735, 0.7510167943749475"/>
<text class="face_text" text-anchor="middle" dominant-baseline="middle" transform="matrix(0.009392370915285202 0 0 0.009392370915285202 0.0 0.0)">0</text>
<text class="face_text" text-anchor="middle" dominant-baseline="middle" transform="matrix(0.009392370915285202 0 0 0.009392370915285202 1.55422 0.0)">1</text>
<text class="face_text" text-anchor="middle" dominant-baseline="middle" transform="matrix(0.009392370915285202 0 0 0.009392370915285202 3.28627 0.0)">9</text>
<text class="face_text" text-anchor="middle" dominant-baseline="middle" transform="matrix(0.009392370915285202 0 0 0.009392370915285202 2.50916 1.34599)">8</text>
<text class="face_text" text-anchor="middle" dominant-baseline="middle" transform="matrix(0.009392370915285202 0 0 0.009392370915285202 1.08931 1.97815)">7</text>
<text class="face_text" text-anchor="middle" dominant-baseline="middle" transform="matrix(0.009392370915285202 0 0 0.009392370915285202 -0.492995 2.68264)">15</text>
<text class="face_text" text-anchor="middle" dominant-baseline="middle" transform="matrix(0.009392370915285202 0 0 0.009392370915285202 -1.89425 1.66456)">6</text>
<text class="face_text" text-anchor="middle" dominant-baseline="middle" transform="matrix(0.009392370915285202 0 0 0.009392370915285202 -1.71321 -0.0580002)">2</text>
<rect class="edge_bg" x="0.5942708870627091" y="-0.09392370915285213" width="0.18784741830570403" height="0.18784741830570403"/>
<text class="edge_text" text-anchor="middle" dominant-baseline="middle" transform="matrix(0.009392370915285202 0 0 0.009392370915285202 0.6881945962155611 -1.0605752387249072e-16)">2</text>
<rect class="edge_bg" x="2.326320887062709" y="-0.09392370915285213" width="0.18784741830570403" height="0.18784741830570403"/>
<text class="edge_text" text-anchor="middle" dominant-baseline="middle" transform="matrix(0.009392370915285202 0 0 0.009392370915285202 2.420244596215561 -1.0605752387249072e-16)">16</text>
<rect class="edge_bg" x="2.759331770964941" y="0.6560754366283235" width="0.18784741830570403" height="0.18784741830570403"/>
<text class="edge_text" text-anchor="middle" dominant-baseline="middle" transform="matrix(0.009392370915285202 0 0 0.009392370915285202 2.8532554801177934 0.7499991457811754)">17</text>
<rect class="edge_bg" x="1.7865398646775212" y="1.531982025293501" width="0.18784741830570403" height="0.18784741830570403"/>
<text class="edge_text" text-anchor="middle" dominant-baseline="middle" transform="matrix(0.009392370915285202 0 0 0.009392370915285202 1.8804635738303732 1.625905734446353)">15</text>
<rect class="edge_bg" x="0.20423486467752128" y="2.236472025293501" width="0.18784741830570403" height="0.18784741830570403"/>
<text class="edge_text" text-anchor="middle" dominant-baseline="middle" transform="matrix(0.009392370915285202 0 0 0.009392370915285202 0.2981585738303733 2.3303957344463533)">35</text>
<rect class="edge_bg" x="-1.2875444399308151" y="2.079673251302275" width="0.18784741830570403" height="0.18784741830570403"/>
<text class="edge_text" text-anchor="middle" dominant-baseline="middle" transform="matrix(0.009392370915285202 0 0 0.009392370915285202 -1.1936207307779632 2.1735969604551273)">32</text>
<rect class="edge_bg" x="-1.8976580137611883" y="0.7093573168559224" width="0.18784741830570403" height="0.18784741830570403"/>
<text class="edge_text" text-anchor="middle" dominant-baseline="middle" transform="matrix(0.009392370915285202 0 0 0.009392370915285202 -1.8037343046083363 0.8032810260087744)">9</text>
</svg>
