<?xml version="1.0" encoding="utf-8"?>
<svg version="1.1" id="layer_1" xmlns="http://www.w3.org/2000/svg" xmlns:xlink="http://www.w3.org/1999/xlink" x="0px" y="0px" viewBox="-0.5500000000000002 -1.0500000000000003 2.8320554037844397 3.6" style="enable-background:new -0.5500000000000002 -1.0500000000000003 2.8320554037844397 3.6;" xml:space="preserve">
<style type="text/css">
  .no_fill_black_stroke {fill:none; stroke:#000000; stroke-width:0.02; stroke-miterlimit:10;}
  .face_text {fill:#000000; font-family:monospace;}
  .edge_text {fill:#ff0000; font-family:monospace;}
  .edge_bg {fill:#f3f3f3; stroke:#606060; stroke-width:0.02;}
</style>
<polygon class="no_fill_black_stroke" points="0.5000000000000001, -0.5 -0.5, -0.5000000000000001 -0.5000000000000001, 0.5 0.4999999999999999, 0.5000000000000001"/>
<polygon class="no_fill_black_stroke" points="0.5000045962155613, 0.5000000000000002 1.3660299999999999, 1.0000000000000002 2.2320554037844387, 0.5000000000000006 2.2320554037844396, -0.4999999999999994 1.3660300000000003, -1.0000000000000002 0.500004596215561, -0.4999999999999999"/>
<polygon class="no_fill_black_stroke" points="0.5000000000000001, 0.4999999999999998 -0.36602540378443893, 1.0 -0.3660254037844388, 2.0 0.49999999999999983, 2.5 1.3660254037844386, 2.0000000000000004 1.3660254037844393, 1.0000000000000007"/>
<text class="face_text" text-anchor="middle" dominant-baseline="middle" transform="matrix(0.00566411080756888 0 0 0.00566411080756888 0.0 0.0)">0</text>
<text class="face_text" text-anchor="middle" dominant-baseline="middle" transform="matrix(0.00566411080756888 0 0 0.00566411080756888 1.36603 0.0)">1</text>
<text class="face_text" text-anchor="middle" dominant-baseline="middle" transform="matrix(0.00566411080756888 0 0 0.00566411080756888 0.5 1.5)">6</text>
<rect class="edge_bg" x="0.4433634881398725" y="-0.056641108075688895" width="0.11328221615137758" height="0.11328221615137758"/>
<text class="edge_text" text-anchor="middle" dominant-baseline="middle" transform="matrix(0.00566411080756888 0 0 0.00566411080756888 0.5000045962155613 -1.0605752387249072e-16)">1</text>
<rect class="edge_bg" x="0.8763715938165307" y="0.6933588919243111" width="0.11328221615137758" height="0.11328221615137758"/>
<text class="edge_text" text-anchor="middle" dominant-baseline="middle" transform="matrix(0.00566411080756888 0 0 0.00566411080756888 0.9330127018922195 0.7499999999999999)">9</text>
</svg>
