<?xml version="1.0" encoding="utf-8"?>
<svg version="1.1" id="layer_1" xmlns="http://www.w3.org/2000/svg" xmlns:xlink="http://www.w3.org/1999/xlink" x="0px" y="0px" viewBox="-0.916025403784439 -1.0500000000000003 3.332055403784439 3.3320554037844388" style="enable-background:new -0.916025403784439 -1.0500000000000003 3.332055403784439 3.3320554037844388;" xml:space="preserve">
<style type="text/css">
  .no_fill_black_stroke {fill:none; stroke:#000000; stroke-width:0.02; stroke-miterlimit:10;}
  .face_text {fill:#000000; font-family:monospace;}
  .edge_text {fill:#ff0000; font-family:monospace;}
  .edge_bg {fill:#f3f3f3; stroke:#606060; stroke-width:0.02;}
</style>
<polygon class="no_fill_black_stroke" points="0.8660254037844389, -0.5 6.123233995736767e-17, -1.0000000000000002 -0.8660254037844389, -0.5 -0.8660254037844388, 0.5000000000000002 -1.8369701987210302e-16, 1.0000000000000002 0.8660254037844386, 0.5000000000000006"/>
<polygon class="no_fill_black_stroke" points="0.86603, 0.5 1.8660299999999999, 0.5000000000000001 1.8660300000000007, -0.49999999999999944 0.8660299999999997, -0.4999999999999998"/>
<polygon class="no_fill_black_stroke" points="0.8660300000000001, 0.5000045962155611 0.36602999999999986, 1.3660299999999999 0.8660299999999995, 2.2320554037844387 1.8660300000000003, 2.2320554037844387 2.3660300000000003, 1.3660300000000003 1.8660299999999999, 0.500004596215561"/>
<text class="face_text" text-anchor="middle" dominant-baseline="middle" transform="matrix(0.006664110807568878 0 0 0.006664110807568878 0.0 0.0)">1</text>
<text class="face_text" text-anchor="middle" dominant-baseline="middle" transform="matrix(0.006664110807568878 0 0 0.006664110807568878 1.36603 0.0)">0</text>
<text class="face_text" text-anchor="middle" dominant-baseline="middle" transform="matrix(0.006664110807568878 0 0 0.006664110807568878 1.36603 1.36603)">2</text>
<rect class="edge_bg" x="0.7993888919243112" y="-0.06664110807568883" width="0.13328221615137756" height="0.13328221615137756"/>
<text class="edge_text" text-anchor="middle" dominant-baseline="middle" transform="matrix(0.006664110807568878 0 0 0.006664110807568878 0.86603 -6.123233995736767e-17)">1</text>
<rect class="edge_bg" x="1.2993888919243113" y="0.43336348813987247" width="0.13328221615137756" height="0.13328221615137756"/>
<text class="edge_text" text-anchor="middle" dominant-baseline="middle" transform="matrix(0.006664110807568878 0 0 0.006664110807568878 1.36603 0.5000045962155613)">2</text>
</svg>
