<?xml version="1.0" encoding="utf-8"?>
<svg version="1.1" xmlns="http://www.w3.org/2000/svg" viewBox="-4.3415804941628835 -2.1459291941628833 8.760511988325767 6.157883388325766" style="enable-background:new -4.3415804941628835 -2.1459291941628833 8.760511988325767 6.157883388325766;">
<style type="text/css">
  .face_stroke {fill:none; stroke:#000000; stroke-width:0.02; stroke-miterlimit:10;}
  .face_text {fill:#000000; font-family:monospace;}
  .edge_text {fill:#ff0000; font-family:monospace;}
  .edge_bg {fill:#f3f3f3; stroke:#606060; stroke-width:0.01;}
</style>
<polygon class="face_stroke" points="0.288675134594813,-0.5 -0.5773502691896258,-7.07050159149938e-17 0.288675134594813,0.5"/>
<polygon class="face_stroke" points="0.28867559621556094,0.4999999999999993 0.7886755962155612,1.3660254037844388 1.6547010000000004,1.866025403784439 2.654701000000001,1.8660254037844388 3.5207264037844386,1.366025403784439 4.0207264037844395,0.49999999999999994 4.0207264037844395,-0.49999999999999906 3.5207264037844404,-1.3660254037844373 2.654701,-1.866025403784439 1.6547010000000013,-1.8660254037844393 0.7886755962155607,-1.3660254037844382 0.28867559621556116,-0.5000000000000001"/>
<polygon class="face_stroke" points="0.28867500000000007,0.4999997308103742 -0.21132499999999999,1.3660251345948131 0.7886749999999999,1.3660251345948131"/>
<polygon class="face_stroke" points="0.2886750000000001,0.49999986540518715 -0.7113250000000001,0.49999986540518715 -0.21132500000000012,1.3660252691896257"/>
<polygon class="face_stroke" points="-0.711324596215561,0.4999995962155612 -1.57735,-4.037844389959133e-07 -2.57735,-4.037844389959133e-07 -3.443375403784439,0.499999596215561 -3.943375403784439,1.3660249999999996 -3.9433754037844393,2.366024999999999 -3.4433754037844393,3.232050403784439 -2.57735,3.732050403784439 -1.5773499999999991,3.732050403784439 -0.7113245962155614,3.232050403784439 -0.211324596215561,2.366025 -0.21132459621556077,1.366025000000001"/>
<polygon class="face_stroke" points="-1.57735,1.3459481285060804e-07 -2.07735,-0.8660252691896259 -2.57735,1.3459481296163034e-07"/>
<polygon class="face_stroke" points="-1.57735,2.691896258122384e-07 -1.07735,-0.8660251345948129 -2.07735,-0.8660251345948129"/>
<polygon class="face_stroke" points="-1.57735,1.3459481296163034e-07 -0.5773500000000001,1.3459481318367494e-07 -1.0773499999999998,-0.8660252691896259"/>
<text class="face_text" text-anchor="middle" dominant-baseline="middle" transform="matrix(0.012315766776651532 0 0 0.012315766776651532 0.0 0.0)">0</text>
<text class="face_text" text-anchor="middle" dominant-baseline="middle" transform="matrix(0.012315766776651532 0 0 0.012315766776651532 2.154701 0.0)">24</text>
<text class="face_text" text-anchor="middle" dominant-baseline="middle" transform="matrix(0.012315766776651532 0 0 0.012315766776651532 0.288675 1.07735)">22</text>
<text class="face_text" text-anchor="middle" dominant-baseline="middle" transform="matrix(0.012315766776651532 0 0 0.012315766776651532 -0.211325 0.788675)">23</text>
<text class="face_text" text-anchor="middle" dominant-baseline="middle" transform="matrix(0.012315766776651532 0 0 0.012315766776651532 -2.07735 1.866025)">25</text>
<text class="face_text" text-anchor="middle" dominant-baseline="middle" transform="matrix(0.012315766776651532 0 0 0.012315766776651532 -2.07735 -0.288675)">3</text>
<text class="face_text" text-anchor="middle" dominant-baseline="middle" transform="matrix(0.012315766776651532 0 0 0.012315766776651532 -1.57735 -0.57735)">2</text>
<text class="face_text" text-anchor="middle" dominant-baseline="middle" transform="matrix(0.012315766776651532 0 0 0.012315766776651532 -1.07735 -0.288675)">1</text>
<rect class="edge_bg" x="0.16551792844904606" y="-0.12315766776651554" width="0.24631533553303064" height="0.24631533553303064"/>
<text class="edge_text" text-anchor="middle" dominant-baseline="middle" transform="matrix(0.012315766776651532 0 0 0.012315766776651532 0.2886755962155614 -2.28522203787226e-16)">1</text>
<rect class="edge_bg" x="0.4155173322334848" y="0.8098547649360783" width="0.24631533553303064" height="0.24631533553303064"/>
<text class="edge_text" text-anchor="middle" dominant-baseline="middle" transform="matrix(0.012315766776651532 0 0 0.012315766776651532 0.5386750000000001 0.9330124327025936)">2</text>
<rect class="edge_bg" x="-0.08448266776651522" y="0.8098548995308912" width="0.24631533553303064" height="0.24631533553303064"/>
<text class="edge_text" text-anchor="middle" dominant-baseline="middle" transform="matrix(0.012315766776651532 0 0 0.012315766776651532 0.0386750000000001 0.9330125672974064)">3</text>
<rect class="edge_bg" x="-0.5844822639820766" y="0.8098546303412655" width="0.24631533553303064" height="0.24631533553303064"/>
<text class="edge_text" text-anchor="middle" dominant-baseline="middle" transform="matrix(0.012315766776651532 0 0 0.012315766776651532 -0.4613245962155612 0.9330122981077807)">6</text>
<rect class="edge_bg" x="-2.2005076677665154" y="-0.12315753317170236" width="0.24631533553303064" height="0.24631533553303064"/>
<text class="edge_text" text-anchor="middle" dominant-baseline="middle" transform="matrix(0.012315766776651532 0 0 0.012315766776651532 -2.07735 1.3459481296163034e-07)">10</text>
<rect class="edge_bg" x="-1.9505076677665154" y="-0.5561701004691089" width="0.24631533553303064" height="0.24631533553303064"/>
<text class="edge_text" text-anchor="middle" dominant-baseline="middle" transform="matrix(0.012315766776651532 0 0 0.012315766776651532 -1.82735 -0.4330124327025936)">9</text>
<rect class="edge_bg" x="-1.4505076677665154" y="-0.5561702350639217" width="0.24631533553303064" height="0.24631533553303064"/>
<text class="edge_text" text-anchor="middle" dominant-baseline="middle" transform="matrix(0.012315766776651532 0 0 0.012315766776651532 -1.32735 -0.43301256729740645)">7</text>
</svg>
