<?xml version="1.0" encoding="utf-8"?>
<svg version="1.1" xmlns="http://www.w3.org/2000/svg" viewBox="-6.892206771198297 -4.798750230880827 12.723560543626363 11.15989646482791" style="enable-background:new -6.892206771198297 -4.798750230880827 12.723560543626363 11.15989646482791;">
<style type="text/css">
  .face_stroke {fill:none; stroke:#000000; stroke-width:0.02; stroke-miterlimit:10;}
  .face_text {fill:#000000; font-family:monospace;}
  .edge_text {fill:#ff0000; font-family:monospace;}
  .edge_bg {fill:#f3f3f3; stroke:#606060; stroke-width:0.01;}
</style>
<polygon class="face_stroke" points="0.288675134594813,-0.5 -0.5773502691896258,-7.07050159149938e-17 0.288675134594813,0.5"/>
<polygon class="face_stroke" points="0.28867486540518683,0.4999999999999999 1.1547002691896258,1.414100318299876e-16 0.28867486540518755,-0.5000000000000003"/>
<polygon class="face_stroke" points="0.28867543347690794,0.5000001401923551 -0.36807659057082676,1.2541067499692509 -0.7443859625186624,2.180600817184053 -0.7994737228745281,3.1790823336173695 -0.5273702580291939,4.141350333926619 0.04243779948107207,4.963128149151864 0.848202905142049,5.5553634018168445 1.8026079070215535,5.85387821281854 2.8022282140465054,5.826323870450379 3.738739455243558,5.475686315257628 4.510656106159881,4.839962567047661 5.03432902014776,3.988043158209338 5.25301011135414,3.012246775581903 5.143001890360064,2.0183160982639556 4.7162254548636655,1.1139589375663785 4.018928653769676,0.3971764243979252 3.1266744151512817,-0.05435693391297036 2.1361523305137817,-0.19171049173138366 1.1547008372613652,1.4019234795270563e-07"/>
<polygon class="face_stroke" points="0.28867484047768754,0.49999967806186596 -0.692776651365896,0.30828903892568105 -0.36807718911179155,1.2541062830124527"/>
<polygon class="face_stroke" points="-0.6927768108882085,0.30828971698754726 -1.3495288404776875,1.0623963219381338 -0.36807734863410413,1.254106961074319"/>
<polygon class="face_stroke" points="-0.6927764211195444,0.30828926904883036 -0.31646704236313106,-0.618204795400566 -0.2613792746696699,-1.6166863114290557 -0.5334827324435332,-2.5789543137379276 -1.103290783914756,-3.4007321331505524 -1.9090558852235417,-3.9929673917369026 -2.863460884909337,-4.291482209752286 -3.8630811921367787,-4.263927874730089 -4.799592435910583,-3.913290326419526 -5.571509091498681,-3.2775665838821846 -6.095182011747106,-2.425647178892201 -6.313863110124371,-1.4498507978717994 -6.203854896434445,-0.45592011974542646 -5.777078467583941,0.44843704408842666 -5.079781671757404,1.165219562381141 -4.187527436457221,1.6167529272489876 -3.197005352829092,1.7541064923465004 -2.2155538581678424,1.5623958676352097 -1.3495284507090255,1.0623958739994188"/>
<text class="face_text" text-anchor="middle" dominant-baseline="middle" transform="matrix(0.02231979292965582 0 0 0.02231979292965582 0.0 0.0)">0</text>
<text class="face_text" text-anchor="middle" dominant-baseline="middle" transform="matrix(0.02231979292965582 0 0 0.02231979292965582 0.57735 0.0)">37</text>
<text class="face_text" text-anchor="middle" dominant-baseline="middle" transform="matrix(0.02231979292965582 0 0 0.02231979292965582 2.219856 2.844903)">39</text>
<text class="face_text" text-anchor="middle" dominant-baseline="middle" transform="matrix(0.02231979292965582 0 0 0.02231979292965582 -0.257393 0.687465)">1</text>
<text class="face_text" text-anchor="middle" dominant-baseline="middle" transform="matrix(0.02231979292965582 0 0 0.02231979292965582 -0.803461 0.874931)">2</text>
<text class="face_text" text-anchor="middle" dominant-baseline="middle" transform="matrix(0.02231979292965582 0 0 0.02231979292965582 -3.280709 -1.282507)">38</text>
<rect class="edge_bg" x="0.06547693610862887" y="-0.2231979292965582" width="0.44639585859311637" height="0.44639585859311637"/>
<text class="edge_text" text-anchor="middle" dominant-baseline="middle" transform="matrix(0.02231979292965582 0 0 0.02231979292965582 0.28867486540518705 -3.535250795749691e-17)">0</text>
<rect class="edge_bg" x="0.49849020607256916" y="0.026802210895797318" width="0.44639585859311637" height="0.44639585859311637"/>
<text class="edge_text" text-anchor="middle" dominant-baseline="middle" transform="matrix(0.02231979292965582 0 0 0.02231979292965582 0.7216881353691273 0.2500001401923555)">6</text>
<rect class="edge_bg" x="-0.26289910361361013" y="0.6538550512406012" width="0.44639585859311637" height="0.44639585859311637"/>
<text class="edge_text" text-anchor="middle" dominant-baseline="middle" transform="matrix(0.02231979292965582 0 0 0.02231979292965582 -0.03970117431705192 0.8770529805371594)">5</text>
<rect class="edge_bg" x="-0.7536250090577143" y="0.5580004097343747" width="0.44639585859311637" height="0.44639585859311637"/>
<text class="edge_text" text-anchor="middle" dominant-baseline="middle" transform="matrix(0.02231979292965582 0 0 0.02231979292965582 -0.5304270797611561 0.7811983390309329)">7</text>
<rect class="edge_bg" x="-1.2443503652108423" y="0.4621446422275653" width="0.44639585859311637" height="0.44639585859311637"/>
<text class="edge_text" text-anchor="middle" dominant-baseline="middle" transform="matrix(0.02231979292965582 0 0 0.02231979292965582 -1.021152435914284 0.6853425715241235)">8</text>
</svg>
