<?xml version="1.0" encoding="utf-8"?>
<svg version="1.1" xmlns="http://www.w3.org/2000/svg" viewBox="-1.689179035260881 -0.8176939106409273 7.272769582168117 6.989266034100394" style="enable-background:new -1.689179035260881 -0.8176939106409273 7.272769582168117 6.989266034100394;">
<style type="text/css">
  .face_stroke {fill:none; stroke:#000000; stroke-width:0.02; stroke-miterlimit:10;}
  .face_text {fill:#000000; font-family:monospace;}
  .edge_text {fill:#ff0000; font-family:monospace;}
  .edge_bg {fill:#f3f3f3; stroke:#606060; stroke-width:0.01;}
</style>
<polygon class="face_stroke" points="0.288675134594813,-0.5 -0.5773502691896258,-7.07050159149938e-17 0.288675134594813,0.5"/>
<polygon class="face_stroke" points="0.28867486540518683,0.4999999999999999 1.1547002691896258,1.414100318299876e-16 0.28867486540518755,-0.5000000000000003"/>
<polygon class="face_stroke" points="0.28867543347690794,0.5000001401923551 -0.36807659057082676,1.2541067499692509 -0.7443859625186624,2.180600817184053 -0.7994737228745281,3.1790823336173695 -0.5273702580291939,4.141350333926619 0.04243779948107207,4.963128149151864 0.848202905142049,5.5553634018168445 1.8026079070215535,5.85387821281854 2.8022282140465054,5.826323870450379 3.738739455243558,5.475686315257628 4.510656106159881,4.839962567047661 5.03432902014776,3.988043158209338 5.25301011135414,3.012246775581903 5.143001890360064,2.0183160982639556 4.7162254548636655,1.1139589375663785 4.018928653769676,0.3971764243979252 3.1266744151512817,-0.05435693391297036 2.1361523305137817,-0.19171049173138366 1.1547008372613652,1.4019234795270563e-07"/>
<polygon class="face_stroke" points="-0.36807651544879805,1.2541061237333664 -1.3585985997077847,1.3914596842814382 -0.7443858848434176,2.1806001919851954"/>
<polygon class="face_stroke" points="-0.3680764002922151,1.2541063157185615 -0.9822891151565831,0.4649658080148049 -1.3585984845512018,1.3914598762666337"/>
<polygon class="face_stroke" points="-0.3680768848434171,1.254106191985195 0.008232484551201957,0.32761212373336634 -0.9822895997077847,0.46496568428143814"/>
<text class="face_text" text-anchor="middle" dominant-baseline="middle" transform="matrix(0.013978532068200789 0 0 0.013978532068200789 0.0 0.0)">0</text>
<text class="face_text" text-anchor="middle" dominant-baseline="middle" transform="matrix(0.013978532068200789 0 0 0.013978532068200789 0.57735 0.0)">37</text>
<text class="face_text" text-anchor="middle" dominant-baseline="middle" transform="matrix(0.013978532068200789 0 0 0.013978532068200789 2.219856 2.844903)">39</text>
<text class="face_text" text-anchor="middle" dominant-baseline="middle" transform="matrix(0.013978532068200789 0 0 0.013978532068200789 -0.823687 1.608722)">3</text>
<text class="face_text" text-anchor="middle" dominant-baseline="middle" transform="matrix(0.013978532068200789 0 0 0.013978532068200789 -0.902988 1.036844)">2</text>
<text class="face_text" text-anchor="middle" dominant-baseline="middle" transform="matrix(0.013978532068200789 0 0 0.013978532068200789 -0.447378 0.682228)">1</text>
<rect class="edge_bg" x="0.14888954472317917" y="-0.1397853206820079" width="0.27957064136401577" height="0.27957064136401577"/>
<text class="edge_text" text-anchor="middle" dominant-baseline="middle" transform="matrix(0.013978532068200789 0 0 0.013978532068200789 0.28867486540518705 -3.535250795749691e-17)">0</text>
<rect class="edge_bg" x="0.5819028146871195" y="0.11021481951034762" width="0.27957064136401577" height="0.27957064136401577"/>
<text class="edge_text" text-anchor="middle" dominant-baseline="middle" transform="matrix(0.013978532068200789 0 0 0.013978532068200789 0.7216881353691273 0.2500001401923555)">6</text>
<rect class="edge_bg" x="-0.6960165208281153" y="1.5775678371772728" width="0.27957064136401577" height="0.27957064136401577"/>
<text class="edge_text" text-anchor="middle" dominant-baseline="middle" transform="matrix(0.013978532068200789 0 0 0.013978532068200789 -0.5562312001461074 1.7173531578592807)">10</text>
<rect class="edge_bg" x="-1.0031227631037163" y="1.1829977753105898" width="0.27957064136401577" height="0.27957064136401577"/>
<text class="edge_text" text-anchor="middle" dominant-baseline="middle" transform="matrix(0.013978532068200789 0 0 0.013978532068200789 -0.8633374424217084 1.3227830959925977)">9</text>
<rect class="edge_bg" x="-0.8149685629576089" y="0.7197506174513089" width="0.27957064136401577" height="0.27957064136401577"/>
<text class="edge_text" text-anchor="middle" dominant-baseline="middle" transform="matrix(0.013978532068200789 0 0 0.013978532068200789 -0.675183242275601 0.8595359381333167)">7</text>
</svg>
