<?xml version="1.0" encoding="utf-8"?>
<svg version="1.1" xmlns="http://www.w3.org/2000/svg" viewBox="-7.986445372973776 -2.6886019853077316 13.869905745486388 8.949264969465617" style="enable-background:new -7.986445372973776 -2.6886019853077316 13.869905745486388 8.949264969465617;">
<style type="text/css">
  .face_stroke {fill:none; stroke:#000000; stroke-width:0.02; stroke-miterlimit:10;}
  .face_text {fill:#000000; font-family:monospace;}
  .edge_text {fill:#ff0000; font-family:monospace;}
  .edge_bg {fill:#f3f3f3; stroke:#606060; stroke-width:0.01;}
</style>
<polygon class="face_stroke" points="0.288675134594813,-0.5 -0.5773502691896258,-7.07050159149938e-17 0.288675134594813,0.5"/>
<polygon class="face_stroke" points="0.28867486540518683,0.4999999999999999 1.1547002691896258,1.414100318299876e-16 0.28867486540518755,-0.5000000000000003"/>
<polygon class="face_stroke" points="0.28867543347690794,0.5000001401923551 -0.36807659057082676,1.2541067499692509 -0.7443859625186624,2.180600817184053 -0.7994737228745281,3.1790823336173695 -0.5273702580291939,4.141350333926619 0.04243779948107207,4.963128149151864 0.848202905142049,5.5553634018168445 1.8026079070215535,5.85387821281854 2.8022282140465054,5.826323870450379 3.738739455243558,5.475686315257628 4.510656106159881,4.839962567047661 5.03432902014776,3.988043158209338 5.25301011135414,3.012246775581903 5.143001890360064,2.0183160982639556 4.7162254548636655,1.1139589375663785 4.018928653769676,0.3971764243979252 3.1266744151512817,-0.05435693391297036 2.1361523305137817,-0.19171049173138366 1.1547008372613652,1.4019234795270563e-07"/>
<polygon class="face_stroke" points="-0.36807651544879805,1.2541061237333664 -1.3585985997077847,1.3914596842814382 -0.7443858848434176,2.1806001919851954"/>
<polygon class="face_stroke" points="-1.358599115156583,1.3914598080148048 -1.7349084845512022,2.3179538762666336 -0.7443864002922153,2.180600315718562"/>
<polygon class="face_stroke" points="-1.3585990356506654,1.391460174647139 -1.3035112780463982,0.3929786580620128 -1.5756147455435348,-0.5692893414973796 -2.145422805318442,-1.3910671551523575 -2.951187912611492,-1.9833024055968236 -3.9055929153136413,-2.2818172139683854 -4.90521322226266,-2.254262868845486 -5.841724462493433,-1.9036253110719101 -6.613641111657838,-1.2679015607347077 -7.13731402329801,-0.4159821504532528 -7.355995111815304,0.5598142327768219 -7.245986888082166,1.5537449097916114 -6.819210450093552,2.458102069313086 -6.121913647024259,3.1748845805599384 -5.229659407161537,3.6264179364119693 -4.239137322145517,3.763771491500714 -3.2576858294214146,3.5720608568723096 -2.391660427014867,3.0720608544857315 -1.734908405045287,2.317954242898973"/>
<polygon class="face_stroke" points="-1.3585986685447127,1.39146029013103 -0.46634442785243824,0.9399269359182395 -1.3035109036028494,0.39297877395073044"/>
<polygon class="face_stroke" points="-0.46634509639715044,0.9399272260492695 -0.41125733145528764,-0.05855429013103025 -1.3035115721475616,0.3929790640817608"/>
<text class="face_text" text-anchor="middle" dominant-baseline="middle" transform="matrix(0.017898529938931235 0 0 0.017898529938931235 0.0 0.0)">0</text>
<text class="face_text" text-anchor="middle" dominant-baseline="middle" transform="matrix(0.017898529938931235 0 0 0.017898529938931235 0.57735 0.0)">37</text>
<text class="face_text" text-anchor="middle" dominant-baseline="middle" transform="matrix(0.017898529938931235 0 0 0.017898529938931235 2.219856 2.844903)">39</text>
<text class="face_text" text-anchor="middle" dominant-baseline="middle" transform="matrix(0.017898529938931235 0 0 0.017898529938931235 -0.823687 1.608722)">3</text>
<text class="face_text" text-anchor="middle" dominant-baseline="middle" transform="matrix(0.017898529938931235 0 0 0.017898529938931235 -1.279298 1.963338)">4</text>
<text class="face_text" text-anchor="middle" dominant-baseline="middle" transform="matrix(0.017898529938931235 0 0 0.017898529938931235 -4.322841 0.727158)">38</text>
<text class="face_text" text-anchor="middle" dominant-baseline="middle" transform="matrix(0.017898529938931235 0 0 0.017898529938931235 -1.042818 0.908122)">2</text>
<text class="face_text" text-anchor="middle" dominant-baseline="middle" transform="matrix(0.017898529938931235 0 0 0.017898529938931235 -0.727038 0.424784)">1</text>
<rect class="edge_bg" x="0.1096895660158747" y="-0.17898529938931237" width="0.3579705987786247" height="0.3579705987786247"/>
<text class="edge_text" text-anchor="middle" dominant-baseline="middle" transform="matrix(0.017898529938931235 0 0 0.017898529938931235 0.28867486540518705 -3.535250795749691e-17)">0</text>
<rect class="edge_bg" x="0.542702835979815" y="0.07101484080304316" width="0.3579705987786247" height="0.3579705987786247"/>
<text class="edge_text" text-anchor="middle" dominant-baseline="middle" transform="matrix(0.017898529938931235 0 0 0.017898529938931235 0.7216881353691273 0.2500001401923555)">6</text>
<rect class="edge_bg" x="-0.7352164995354198" y="1.5383678584699683" width="0.3579705987786247" height="0.3579705987786247"/>
<text class="edge_text" text-anchor="middle" dominant-baseline="middle" transform="matrix(0.017898529938931235 0 0 0.017898529938931235 -0.5562312001461074 1.7173531578592807)">10</text>
<rect class="edge_bg" x="-1.2304780571137115" y="1.6070447624773707" width="0.3579705987786247" height="0.3579705987786247"/>
<text class="edge_text" text-anchor="middle" dominant-baseline="middle" transform="matrix(0.017898529938931235 0 0 0.017898529938931235 -1.051492757724399 1.7860300618666831)">11</text>
<rect class="edge_bg" x="-1.7257390197372873" y="1.6757219093837405" width="0.3579705987786247" height="0.3579705987786247"/>
<text class="edge_text" text-anchor="middle" dominant-baseline="middle" transform="matrix(0.017898529938931235 0 0 0.017898529938931235 -1.5467537203479749 1.854707208773053)">12</text>
<rect class="edge_bg" x="-1.5100400854630933" y="0.7132342326515679" width="0.3579705987786247" height="0.3579705987786247"/>
<text class="edge_text" text-anchor="middle" dominant-baseline="middle" transform="matrix(0.017898529938931235 0 0 0.017898529938931235 -1.331054786073781 0.8922195320408803)">8</text>
<rect class="edge_bg" x="-1.0639136336616686" y="0.4874678456762029" width="0.3579705987786247" height="0.3579705987786247"/>
<text class="edge_text" text-anchor="middle" dominant-baseline="middle" transform="matrix(0.017898529938931235 0 0 0.017898529938931235 -0.8849283342723562 0.6664531450655152)">7</text>
</svg>
