<?xml version="1.0" encoding="utf-8"?>
<svg version="1.1" xmlns="http://www.w3.org/2000/svg" viewBox="-7.038427801535843 -3.4178358860884557 13.997453603071685 8.589778774020395" style="enable-background:new -7.038427801535843 -3.4178358860884557 13.997453603071685 8.589778774020395;">
<style type="text/css">
  .face_stroke {fill:none; stroke:#000000; stroke-width:0.02; stroke-miterlimit:10;}
  .face_text {fill:#000000; font-family:monospace;}
  .edge_text {fill:#ff0000; font-family:monospace;}
  .edge_bg {fill:#f3f3f3; stroke:#606060; stroke-width:0.01;}
</style>
<polygon class="face_stroke" points="0.288675134594813,-0.5 -0.5773502691896258,-7.07050159149938e-17 0.288675134594813,0.5"/>
<polygon class="face_stroke" points="0.28867527073825316,0.4999999999999984 0.6133747399429361,1.4458172417006334 1.2275874526326036,2.2349577510970273 2.064753930895132,2.781905909219455 3.0341541968344625,3.0273913963602546 4.030738689841132,2.944812050887922 4.9465120164961895,2.543116626234953 5.6822359271693195,1.8658350546092146 6.158183320206394,0.9863613034027283 6.32277791048713,8.838275346618134e-15 6.158183320206399,-0.9863613034027116 5.682235927169328,-1.8658350546092048 4.9465120164962,-2.5431166262349465 4.030738689841147,-2.9448120508879185 3.03415419683448,-3.027391396360256 2.064753930895148,-2.781905909219462 1.2275874526326183,-2.234957751097041 0.6133747399429446,-1.445817241700649 0.2886752707382563,-0.5000000000000184"/>
<polygon class="face_stroke" points="0.2886751891117915,0.4999997169875472 -0.3680768404776875,1.2541063219381339 0.6133746513658959,1.445816961074319"/>
<polygon class="face_stroke" points="0.28867484047768754,0.49999967806186596 -0.692776651365896,0.30828903892568105 -0.36807718911179155,1.2541062830124527"/>
<polygon class="face_stroke" points="-0.6927767293179805,0.30828977793256507 -1.3069894362084482,-0.4808507359775269 -2.144155910451588,-1.0277989002520849 -3.113556174586906,-1.2732843945167687 -4.110140668200431,-1.190705056368092 -5.02591399780745,-0.7890096384449163 -5.761637913457758,-0.11172807222583025 -6.237585312957869,0.7677456754830381 -6.4021799104871295,1.754106977676195 -6.237585327454923,2.740468282288483 -5.761637940880888,3.619942036992592 -5.0259140351849325,4.297223614024988 -4.1101407114818365,4.698919045407751 -3.1135562190820223,4.781498398203739 -2.144155951338681,4.536012918186827 -1.3069894690567643,3.989064766216532 -0.6927767505678961,3.1999242613338406 -0.3680772744126317,2.254107022019343 -0.36807726706387456,1.2541070220193458"/>
<polygon class="face_stroke" points="-1.3069890963971504,-0.4808507739507305 -1.2519013314552878,-1.4793322901310302 -2.144155572147562,-1.0277989359182391"/>
<polygon class="face_stroke" points="-1.3069886685447125,-0.4808507098689699 -0.4147344278524382,-0.9323840640817604 -1.2519009036028494,-1.4793322260492694"/>
<polygon class="face_stroke" points="-1.3069885721475618,-0.4808509359182392 -0.4698220963971505,0.06609722604926954 -0.4147343314552874,-0.9323842901310301"/>
<text class="face_text" text-anchor="middle" dominant-baseline="middle" transform="matrix(0.01717955754804079 0 0 0.01717955754804079 0.0 0.0)">0</text>
<text class="face_text" text-anchor="middle" dominant-baseline="middle" transform="matrix(0.01717955754804079 0 0 0.01717955754804079 3.285011 0.0)">38</text>
<text class="face_text" text-anchor="middle" dominant-baseline="middle" transform="matrix(0.01717955754804079 0 0 0.01717955754804079 0.177991 1.066641)">36</text>
<text class="face_text" text-anchor="middle" dominant-baseline="middle" transform="matrix(0.01717955754804079 0 0 0.01717955754804079 -0.257393 0.687465)">37</text>
<text class="face_text" text-anchor="middle" dominant-baseline="middle" transform="matrix(0.01717955754804079 0 0 0.01717955754804079 -3.364413 1.754107)">39</text>
<text class="face_text" text-anchor="middle" dominant-baseline="middle" transform="matrix(0.01717955754804079 0 0 0.01717955754804079 -1.567682 -0.995994)">3</text>
<text class="face_text" text-anchor="middle" dominant-baseline="middle" transform="matrix(0.01717955754804079 0 0 0.01717955754804079 -0.991208 -0.964189)">2</text>
<text class="face_text" text-anchor="middle" dominant-baseline="middle" transform="matrix(0.01717955754804079 0 0 0.01717955754804079 -0.730515 -0.449046)">1</text>
<rect class="edge_bg" x="0.1168796952578457" y="-0.17179557548040827" width="0.3435911509608158" height="0.3435911509608158"/>
<text class="edge_text" text-anchor="middle" dominant-baseline="middle" transform="matrix(0.01717955754804079 0 0 0.01717955754804079 0.2886752707382536 -3.6694529600112477e-16)">1</text>
<rect class="edge_bg" x="0.2792293447584359" y="0.801112763550525" width="0.3435911509608158" height="0.3435911509608158"/>
<text class="edge_text" text-anchor="middle" dominant-baseline="middle" transform="matrix(0.01717955754804079 0 0 0.01717955754804079 0.45102492023884383 0.9729083390309329)">2</text>
<rect class="edge_bg" x="-0.21149674979745983" y="0.7052574050567515" width="0.3435911509608158" height="0.3435911509608158"/>
<text class="edge_text" text-anchor="middle" dominant-baseline="middle" transform="matrix(0.01717955754804079 0 0 0.01717955754804079 -0.03970117431705192 0.8770529805371594)">3</text>
<rect class="edge_bg" x="-0.7022225736713368" y="0.609402824495543" width="0.3435911509608158" height="0.3435911509608158"/>
<text class="edge_text" text-anchor="middle" dominant-baseline="middle" transform="matrix(0.01717955754804079 0 0 0.01717955754804079 -0.5304269981909289 0.7811983999759509)">6</text>
<rect class="edge_bg" x="-1.897367909752764" y="-0.9261204304148928" width="0.3435911509608158" height="0.3435911509608158"/>
<text class="edge_text" text-anchor="middle" dominant-baseline="middle" transform="matrix(0.01717955754804079 0 0 0.01717955754804079 -1.7255723342723561 -0.7543248549344849)">10</text>
<rect class="edge_bg" x="-1.451240361554189" y="-1.1518870434395274" width="0.3435911509608158" height="0.3435911509608158"/>
<text class="edge_text" text-anchor="middle" dominant-baseline="middle" transform="matrix(0.01717955754804079 0 0 0.01717955754804079 -1.279444786073781 -0.9800914679591195)">9</text>
<rect class="edge_bg" x="-1.0326570272818327" y="-0.8784131885050428" width="0.3435911509608158" height="0.3435911509608158"/>
<text class="edge_text" text-anchor="middle" dominant-baseline="middle" transform="matrix(0.01717955754804079 0 0 0.01717955754804079 -0.8608614518014248 -0.7066176130246349)">7</text>
</svg>
