<?xml version="1.0" encoding="utf-8"?>
<svg version="1.1" xmlns="http://www.w3.org/2000/svg" viewBox="-3.6844784515358433 -3.35513053599628 14.227653903071687 7.21026107199256" style="enable-background:new -3.6844784515358433 -3.35513053599628 14.227653903071687 7.21026107199256;">
<style type="text/css">
  .face_stroke {fill:none; stroke:#000000; stroke-width:0.02; stroke-miterlimit:10;}
  .face_text {fill:#000000; font-family:monospace;}
  .edge_text {fill:#ff0000; font-family:monospace;}
  .edge_bg {fill:#f3f3f3; stroke:#606060; stroke-width:0.01;}
</style>
<polygon class="face_stroke" points="2.9963357292617467,-0.5 2.6716362600570633,-1.4458172417006345 2.057423547367396,-2.234957751097028 1.220257069104867,-2.781905909219455 0.25085680316553655,-3.0273913963602546 -0.7457276898411328,-2.944812050887922 -1.6615010164961905,-2.5431166262349527 -2.3972249271693222,-1.8658350546092117 -2.873172320206396,-0.9863613034027228 -3.03776691048713,-3.720191523483808e-16 -2.8731723202063963,0.9863613034027221 -2.3972249271693227,1.8658350546092115 -1.6615010164961912,2.5431166262349527 -0.745727689841136,2.944812050887921 0.2508568031655338,3.0273913963602546 1.2202570691048622,2.7819059092194576 2.057423547367392,2.2349577510970318 2.6716362600570593,1.4458172417006414 2.996335729261745,0.5000000000000101"/>
<polygon class="face_stroke" points="2.996335865405187,0.4999999999999999 3.8623612691896256,1.414100318299876e-16 2.9963358654051873,-0.5000000000000003"/>
<polygon class="face_stroke" points="2.996335730810374,0.49999999999999994 3.862361134594813,1.0 3.8623611345948126,-1.1102230246251565e-16"/>
<polygon class="face_stroke" points="3.8623612707382535,0.9999999999999984 4.187060739942936,1.9458172417006334 4.8012734526326035,2.7349577510970273 5.6384399308951325,3.281905909219455 6.607840196834463,3.5273913963602546 7.6044246898411325,3.444812050887922 8.52019801649619,3.043116626234953 9.25592192716932,2.3658350546092146 9.731869320206394,1.4863613034027283 9.89646391048713,0.5000000000000089 9.7318693202064,-0.48636130340271155 9.255921927169329,-1.3658350546092048 8.5201980164962,-2.0431166262349465 7.604424689841148,-2.4448120508879185 6.607840196834481,-2.527391396360256 5.6384399308951485,-2.281905909219462 4.801273452632619,-1.734957751097041 4.187060739942945,-0.945817241700649 3.8623612707382566,-1.84297022087776e-14"/>
<polygon class="face_stroke" points="4.187060884843417,1.9458168080148046 3.810751515448798,2.872310876266633 4.801273599707785,2.7349573157185616"/>
<polygon class="face_stroke" points="4.187060484551202,1.9458171237333663 3.1965384002922153,2.083170684281438 3.8107511151565827,2.872311191985195"/>
<polygon class="face_stroke" points="4.1870605997077845,1.9458173157185614 3.572847884843417,1.1566768080148049 3.196538515448798,2.083170876266634"/>
<polygon class="face_stroke" points="3.5728474845512017,1.1566771237333664 2.582325400292215,1.2940306842814382 3.1965381151565824,2.0831711919851954"/>
<text class="face_text" text-anchor="middle" dominant-baseline="middle" transform="matrix(0.01442052214398512 0 0 0.01442052214398512 0.0 0.0)">38</text>
<text class="face_text" text-anchor="middle" dominant-baseline="middle" transform="matrix(0.01442052214398512 0 0 0.01442052214398512 3.285011 0.0)">0</text>
<text class="face_text" text-anchor="middle" dominant-baseline="middle" transform="matrix(0.01442052214398512 0 0 0.01442052214398512 3.573686 0.5)">1</text>
<text class="face_text" text-anchor="middle" dominant-baseline="middle" transform="matrix(0.01442052214398512 0 0 0.01442052214398512 6.858697 0.5)">39</text>
<text class="face_text" text-anchor="middle" dominant-baseline="middle" transform="matrix(0.01442052214398512 0 0 0.01442052214398512 4.266362 2.517695)">5</text>
<text class="face_text" text-anchor="middle" dominant-baseline="middle" transform="matrix(0.01442052214398512 0 0 0.01442052214398512 3.73145 2.300433)">4</text>
<text class="face_text" text-anchor="middle" dominant-baseline="middle" transform="matrix(0.01442052214398512 0 0 0.01442052214398512 3.652149 1.728555)">3</text>
<text class="face_text" text-anchor="middle" dominant-baseline="middle" transform="matrix(0.01442052214398512 0 0 0.01442052214398512 3.117237 1.511293)">2</text>
<rect class="edge_bg" x="2.8521306439653356" y="-0.14420522143985123" width="0.2884104428797024" height="0.2884104428797024"/>
<text class="edge_text" text-anchor="middle" dominant-baseline="middle" transform="matrix(0.01442052214398512 0 0 0.01442052214398512 2.996335865405187 -3.535250795749691e-17)">1</text>
<rect class="edge_bg" x="3.285143211262742" y="0.10579477856014868" width="0.2884104428797024" height="0.2884104428797024"/>
<text class="edge_text" text-anchor="middle" dominant-baseline="middle" transform="matrix(0.01442052214398512 0 0 0.01442052214398512 3.4293484327025934 0.2499999999999999)">4</text>
<rect class="edge_bg" x="3.7181560492984027" y="0.3557947785601484" width="0.2884104428797024" height="0.2884104428797024"/>
<text class="edge_text" text-anchor="middle" dominant-baseline="middle" transform="matrix(0.01442052214398512 0 0 0.01442052214398512 3.862361270738254 0.4999999999999996)">5</text>
<rect class="edge_bg" x="4.349962020835751" y="2.196181840426832" width="0.2884104428797024" height="0.2884104428797024"/>
<text class="edge_text" text-anchor="middle" dominant-baseline="middle" transform="matrix(0.01442052214398512 0 0 0.01442052214398512 4.494167242275601 2.340387061866683)">14</text>
<rect class="edge_bg" x="3.8547005784140413" y="2.2648589364194294" width="0.2884104428797024" height="0.2884104428797024"/>
<text class="edge_text" text-anchor="middle" dominant-baseline="middle" transform="matrix(0.01442052214398512 0 0 0.01442052214398512 3.9989057998538926 2.4090641578592806)">13</text>
<rect class="edge_bg" x="3.5475943361384403" y="1.8702888745527466" width="0.2884104428797024" height="0.2884104428797024"/>
<text class="edge_text" text-anchor="middle" dominant-baseline="middle" transform="matrix(0.01442052214398512 0 0 0.01442052214398512 3.6917995575782916 2.014494095992598)">11</text>
<rect class="edge_bg" x="3.240487578414041" y="1.4757189364194294" width="0.2884104428797024" height="0.2884104428797024"/>
<text class="edge_text" text-anchor="middle" dominant-baseline="middle" transform="matrix(0.01442052214398512 0 0 0.01442052214398512 3.3846927998538923 1.6199241578592807)">9</text>
</svg>
