<?xml version="1.0" encoding="utf-8"?>
<svg version="1.1" xmlns="http://www.w3.org/2000/svg" viewBox="-0.977592898769642 -0.9244678440936949 2.7927259891872445 2.5399186938124423" style="enable-background:new -0.977592898769642 -0.9244678440936949 2.7927259891872445 2.5399186938124423;">
<style type="text/css">
  .face_stroke {fill:none; stroke:#000000; stroke-width:0.02; stroke-miterlimit:10;}
  .face_text {fill:#000000; font-family:monospace;}
  .edge_text {fill:#ff0000; font-family:monospace;}
  .edge_bg {fill:#f3f3f3; stroke:#606060; stroke-width:0.01;}
</style>
<polygon class="face_stroke" points="0.6881909602355868,-0.5 -0.26286555605956674,-0.8090169943749475 -0.8506508083520399,-1.0417467896404342e-16 -0.2628655560595669,0.8090169943749473 0.6881909602355867,0.5000000000000001"/>
<polygon class="face_stroke" points="0.6881909999999999,0.5 1.6881909999999998,0.5000000000000001 1.6881910000000007,-0.49999999999999944 0.6881909999999997,-0.4999999999999998"/>
<polygon class="face_stroke" points="0.688191,0.4999999999999999 0.6881909999999999,1.5 1.6881909999999998,1.5 1.6881910000000007,0.5000000000000006"/>
<polygon class="face_stroke" points="0.688191134594813,0.5 -0.17783426918962586,0.9999999999999999 0.688191134594813,1.5"/>
<text class="face_text" text-anchor="middle" dominant-baseline="middle" transform="matrix(0.005079837387624885 0 0 0.005079837387624885 0.0 0.0)">0</text>
<text class="face_text" text-anchor="middle" dominant-baseline="middle" transform="matrix(0.005079837387624885 0 0 0.005079837387624885 1.188191 0.0)">3</text>
<text class="face_text" text-anchor="middle" dominant-baseline="middle" transform="matrix(0.005079837387624885 0 0 0.005079837387624885 1.188191 1.0)">2</text>
<text class="face_text" text-anchor="middle" dominant-baseline="middle" transform="matrix(0.005079837387624885 0 0 0.005079837387624885 0.399516 1.0)">1</text>
<rect class="edge_bg" x="0.637392626123751" y="-0.05079837387624891" width="0.10159674775249769" height="0.10159674775249769"/>
<text class="edge_text" text-anchor="middle" dominant-baseline="middle" transform="matrix(0.005079837387624885 0 0 0.005079837387624885 0.6881909999999999 -6.123233995736767e-17)">0</text>
<rect class="edge_bg" x="1.1373926261237512" y="0.44920162612375103" width="0.10159674775249769" height="0.10159674775249769"/>
<text class="edge_text" text-anchor="middle" dominant-baseline="middle" transform="matrix(0.005079837387624885 0 0 0.005079837387624885 1.188191 0.4999999999999999)">3</text>
<rect class="edge_bg" x="0.6373927607185641" y="0.9492016261237511" width="0.10159674775249769" height="0.10159674775249769"/>
<text class="edge_text" text-anchor="middle" dominant-baseline="middle" transform="matrix(0.005079837387624885 0 0 0.005079837387624885 0.688191134594813 1.0)">1</text>
</svg>
