<?xml version="1.0" encoding="utf-8"?>
<svg version="1.1" xmlns="http://www.w3.org/2000/svg" viewBox="-1.2697448224895196 -0.9786016545828266 3.0987899092747355 3.7308625245733396" style="enable-background:new -1.2697448224895196 -0.9786016545828266 3.0987899092747355 3.7308625245733396;">
<style type="text/css">
  .face_stroke {fill:none; stroke:#000000; stroke-width:0.02; stroke-miterlimit:10;}
  .face_text {fill:#000000; font-family:monospace;}
  .edge_text {fill:#ff0000; font-family:monospace;}
  .edge_bg {fill:#f3f3f3; stroke:#606060; stroke-width:0.01;}
</style>
<polygon class="face_stroke" points="0.6881909602355868,-0.5 -0.26286555605956674,-0.8090169943749475 -0.8506508083520399,-1.0417467896404342e-16 -0.2628655560595669,0.8090169943749473 0.6881909602355867,0.5000000000000001"/>
<polygon class="face_stroke" points="0.6881909999999999,0.5 1.6881909999999998,0.5000000000000001 1.6881910000000007,-0.49999999999999944 0.6881909999999997,-0.4999999999999998"/>
<polygon class="face_stroke" points="0.688191,0.4999999999999999 0.6881909999999999,1.5 1.6881909999999998,1.5 1.6881910000000007,0.5000000000000006"/>
<polygon class="face_stroke" points="0.688191134594813,0.5 -0.17783426918962586,0.9999999999999999 0.688191134594813,1.5"/>
<polygon class="face_stroke" points="-0.17783422177442582,1.0000001457811754 -0.9209790472518202,1.6691307521400336 -0.5142424041760203,2.582676209782634 0.480279491192253,2.4781477465149813 0.6881911820100128,1.5000001457811758"/>
<polygon class="face_stroke" points="-0.17783421940915067,1.0000001293386964 -1.1288907357043043,0.690983134963749 -0.9209790448865451,1.6691307356975549"/>
<text class="face_text" text-anchor="middle" dominant-baseline="middle" transform="matrix(0.006197579818549471 0 0 0.006197579818549471 0.0 0.0)">0</text>
<text class="face_text" text-anchor="middle" dominant-baseline="middle" transform="matrix(0.006197579818549471 0 0 0.006197579818549471 1.188191 0.0)">3</text>
<text class="face_text" text-anchor="middle" dominant-baseline="middle" transform="matrix(0.006197579818549471 0 0 0.006197579818549471 1.188191 1.0)">2</text>
<text class="face_text" text-anchor="middle" dominant-baseline="middle" transform="matrix(0.006197579818549471 0 0 0.006197579818549471 0.399516 1.0)">1</text>
<text class="face_text" text-anchor="middle" dominant-baseline="middle" transform="matrix(0.006197579818549471 0 0 0.006197579818549471 -0.088917 1.845991)">18</text>
<text class="face_text" text-anchor="middle" dominant-baseline="middle" transform="matrix(0.006197579818549471 0 0 0.006197579818549471 -0.742568 1.120038)">20</text>
<rect class="edge_bg" x="0.6262152018145052" y="-0.06197579818549477" width="0.12395159637098942" height="0.12395159637098942"/>
<text class="edge_text" text-anchor="middle" dominant-baseline="middle" transform="matrix(0.006197579818549471 0 0 0.006197579818549471 0.6881909999999999 -6.123233995736767e-17)">0</text>
<rect class="edge_bg" x="1.1262152018145053" y="0.4380242018145052" width="0.12395159637098942" height="0.12395159637098942"/>
<text class="edge_text" text-anchor="middle" dominant-baseline="middle" transform="matrix(0.006197579818549471 0 0 0.006197579818549471 1.188191 0.4999999999999999)">3</text>
<rect class="edge_bg" x="0.6262153364093183" y="0.9380242018145053" width="0.12395159637098942" height="0.12395159637098942"/>
<text class="edge_text" text-anchor="middle" dominant-baseline="middle" transform="matrix(0.006197579818549471 0 0 0.006197579818549471 0.688191134594813 1.0)">1</text>
<rect class="edge_bg" x="0.19320268193229873" y="1.1880243475956807" width="0.12395159637098942" height="0.12395159637098942"/>
<text class="edge_text" text-anchor="middle" dominant-baseline="middle" transform="matrix(0.006197579818549471 0 0 0.006197579818549471 0.2551784801177934 1.2500001457811754)">28</text>
<rect class="edge_bg" x="-0.6113824303333425" y="1.272589634332631" width="0.12395159637098942" height="0.12395159637098942"/>
<text class="edge_text" text-anchor="middle" dominant-baseline="middle" transform="matrix(0.006197579818549471 0 0 0.006197579818549471 -0.5494066321478478 1.3345654325181258)">31</text>
</svg>
