<?xml version="1.0" encoding="utf-8"?>
<svg version="1.1" xmlns="http://www.w3.org/2000/svg" viewBox="-0.9958941838642529 -0.9427691291883058 3.1953542612686854 2.9425469658938836" style="enable-background:new -0.9958941838642529 -0.9427691291883058 3.1953542612686854 2.9425469658938836;">
<style type="text/css">
  .face_stroke {fill:none; stroke:#000000; stroke-width:0.02; stroke-miterlimit:10;}
  .face_text {fill:#000000; font-family:monospace;}
  .edge_text {fill:#ff0000; font-family:monospace;}
  .edge_bg {fill:#f3f3f3; stroke:#606060; stroke-width:0.01;}
</style>
<polygon class="face_stroke" points="0.6881909602355868,-0.5 -0.26286555605956674,-0.8090169943749475 -0.8506508083520399,-1.0417467896404342e-16 -0.2628655560595669,0.8090169943749473 0.6881909602355867,0.5000000000000001"/>
<polygon class="face_stroke" points="0.6881908654051868,0.4999999999999999 1.554216269189626,1.414100318299876e-16 0.6881908654051876,-0.5000000000000003"/>
<polygon class="face_stroke" points="0.6881912981077808,0.5000002981077805 1.188191298107781,1.3660257018922195 2.0542167018922193,0.8660257018922193 1.5542167018922195,2.981077805719323e-07"/>
<polygon class="face_stroke" points="0.6881907018922193,0.5000002981077807 -0.17783470189221928,1.0000002981077807 0.3221652981077808,1.8660257018922195 1.1881907018922195,1.3660257018922193"/>
<text class="face_text" text-anchor="middle" dominant-baseline="middle" transform="matrix(0.005885093931787768 0 0 0.005885093931787768 0.0 0.0)">0</text>
<text class="face_text" text-anchor="middle" dominant-baseline="middle" transform="matrix(0.005885093931787768 0 0 0.005885093931787768 0.976866 0.0)">4</text>
<text class="face_text" text-anchor="middle" dominant-baseline="middle" transform="matrix(0.005885093931787768 0 0 0.005885093931787768 1.371204 0.683013)">5</text>
<text class="face_text" text-anchor="middle" dominant-baseline="middle" transform="matrix(0.005885093931787768 0 0 0.005885093931787768 0.505178 1.183013)">3</text>
<rect class="edge_bg" x="0.6293399260873094" y="-0.05885093931787771" width="0.11770187863575535" height="0.11770187863575535"/>
<text class="edge_text" text-anchor="middle" dominant-baseline="middle" transform="matrix(0.005885093931787768 0 0 0.005885093931787768 0.688190865405187 -3.535250795749691e-17)">5</text>
<rect class="edge_bg" x="1.0623530606821223" y="0.19114935878990286" width="0.11770187863575535" height="0.11770187863575535"/>
<text class="edge_text" text-anchor="middle" dominant-baseline="middle" transform="matrix(0.005885093931787768 0 0 0.005885093931787768 1.121204 0.2500002981077805)">4</text>
<rect class="edge_bg" x="0.8793397625743419" y="0.8741620606821224" width="0.11770187863575535" height="0.11770187863575535"/>
<text class="edge_text" text-anchor="middle" dominant-baseline="middle" transform="matrix(0.005885093931787768 0 0 0.005885093931787768 0.9381907018922195 0.9330130000000001)">6</text>
</svg>
