<?xml version="1.0" encoding="utf-8"?>
<svg version="1.1" xmlns="http://www.w3.org/2000/svg" viewBox="-2.8145477338642526 -0.9677691291883058 5.100610361268685 3.492546965893884" style="enable-background:new -2.8145477338642526 -0.9677691291883058 5.100610361268685 3.492546965893884;">
<style type="text/css">
  .face_stroke {fill:none; stroke:#000000; stroke-width:0.02; stroke-miterlimit:10;}
  .face_text {fill:#000000; font-family:monospace;}
  .edge_text {fill:#ff0000; font-family:monospace;}
  .edge_bg {fill:#f3f3f3; stroke:#606060; stroke-width:0.01;}
</style>
<polygon class="face_stroke" points="0.6881909602355868,-0.5 -0.26286555605956674,-0.8090169943749475 -0.8506508083520399,-1.0417467896404342e-16 -0.2628655560595669,0.8090169943749473 0.6881909602355867,0.5000000000000001"/>
<polygon class="face_stroke" points="0.6881908654051868,0.4999999999999999 1.554216269189626,1.414100318299876e-16 0.6881908654051876,-0.5000000000000003"/>
<polygon class="face_stroke" points="0.6881912981077808,0.5000002981077805 1.188191298107781,1.3660257018922195 2.0542167018922193,0.8660257018922193 1.5542167018922195,2.981077805719323e-07"/>
<polygon class="face_stroke" points="0.6881907018922193,0.5000002981077807 -0.17783470189221928,1.0000002981077807 0.3221652981077808,1.8660257018922195 1.1881907018922195,1.3660257018922193"/>
<polygon class="face_stroke" points="-0.17783429810778065,1.0000002981077807 -1.0438597018922193,1.5000002981077807 -0.5438597018922192,2.3660257018922195 0.32216570189221944,1.8660257018922193"/>
<polygon class="face_stroke" points="-0.17783473081037415,1.0 -1.0438601345948129,0.4999999999999999 -1.043860134594813,1.5"/>
<polygon class="face_stroke" points="-1.043860039764413,0.5 -1.9949165560595667,0.19098300562505255 -2.5827018083520397,0.9999999999999999 -1.994916556059567,1.8090169943749475 -1.0438600397644133,1.5"/>
<polygon class="face_stroke" points="-1.0438602642956956,0.49999986503625105 -1.251771955113455,-0.4781477356975547 -1.9949167805908492,0.19098287066130346"/>
<text class="face_text" text-anchor="middle" dominant-baseline="middle" transform="matrix(0.006985093931787768 0 0 0.006985093931787768 0.0 0.0)">0</text>
<text class="face_text" text-anchor="middle" dominant-baseline="middle" transform="matrix(0.006985093931787768 0 0 0.006985093931787768 0.976866 0.0)">4</text>
<text class="face_text" text-anchor="middle" dominant-baseline="middle" transform="matrix(0.006985093931787768 0 0 0.006985093931787768 1.371204 0.683013)">5</text>
<text class="face_text" text-anchor="middle" dominant-baseline="middle" transform="matrix(0.006985093931787768 0 0 0.006985093931787768 0.505178 1.183013)">3</text>
<text class="face_text" text-anchor="middle" dominant-baseline="middle" transform="matrix(0.006985093931787768 0 0 0.006985093931787768 -0.360847 1.683013)">2</text>
<text class="face_text" text-anchor="middle" dominant-baseline="middle" transform="matrix(0.006985093931787768 0 0 0.006985093931787768 -0.755185 1.0)">1</text>
<text class="face_text" text-anchor="middle" dominant-baseline="middle" transform="matrix(0.006985093931787768 0 0 0.006985093931787768 -1.732051 1.0)">18</text>
<text class="face_text" text-anchor="middle" dominant-baseline="middle" transform="matrix(0.006985093931787768 0 0 0.006985093931787768 -1.430183 0.070945)">20</text>
<rect class="edge_bg" x="0.6183399260873094" y="-0.06985093931787772" width="0.13970187863575537" height="0.13970187863575537"/>
<text class="edge_text" text-anchor="middle" dominant-baseline="middle" transform="matrix(0.006985093931787768 0 0 0.006985093931787768 0.688190865405187 -3.535250795749691e-17)">5</text>
<rect class="edge_bg" x="1.0513530606821224" y="0.18014935878990285" width="0.13970187863575537" height="0.13970187863575537"/>
<text class="edge_text" text-anchor="middle" dominant-baseline="middle" transform="matrix(0.006985093931787768 0 0 0.006985093931787768 1.121204 0.2500002981077805)">4</text>
<rect class="edge_bg" x="0.8683397625743419" y="0.8631620606821224" width="0.13970187863575537" height="0.13970187863575537"/>
<text class="edge_text" text-anchor="middle" dominant-baseline="middle" transform="matrix(0.006985093931787768 0 0 0.006985093931787768 0.9381907018922195 0.9330130000000001)">6</text>
<rect class="edge_bg" x="0.002314762574341808" y="1.3631620606821224" width="0.13970187863575537" height="0.13970187863575537"/>
<text class="edge_text" text-anchor="middle" dominant-baseline="middle" transform="matrix(0.006985093931787768 0 0 0.006985093931787768 0.07216570189221949 1.433013)">3</text>
<rect class="edge_bg" x="-0.6806983720204711" y="1.1801490606821223" width="0.13970187863575537" height="0.13970187863575537"/>
<text class="edge_text" text-anchor="middle" dominant-baseline="middle" transform="matrix(0.006985093931787768 0 0 0.006985093931787768 -0.6108474327025935 1.25)">1</text>
<rect class="edge_bg" x="-1.1137109790822908" y="0.9301490606821223" width="0.13970187863575537" height="0.13970187863575537"/>
<text class="edge_text" text-anchor="middle" dominant-baseline="middle" transform="matrix(0.006985093931787768 0 0 0.006985093931787768 -1.043860039764413 1.0)">28</text>
<rect class="edge_bg" x="-1.58923946176115" y="0.2756404285308997" width="0.13970187863575537" height="0.13970187863575537"/>
<text class="edge_text" text-anchor="middle" dominant-baseline="middle" transform="matrix(0.006985093931787768 0 0 0.006985093931787768 -1.5193885224432724 0.3454913678487774)">31</text>
</svg>
