<?xml version="1.0" encoding="utf-8"?>
<svg version="1.1" xmlns="http://www.w3.org/2000/svg" viewBox="-2.888392384709022 -0.9927691291883058 5.177971424058443 4.042546965893884" style="enable-background:new -2.888392384709022 -0.9927691291883058 5.177971424058443 4.042546965893884;">
<style type="text/css">
  .face_stroke {fill:none; stroke:#000000; stroke-width:0.02; stroke-miterlimit:10;}
  .face_text {fill:#000000; font-family:monospace;}
  .edge_text {fill:#ff0000; font-family:monospace;}
  .edge_bg {fill:#f3f3f3; stroke:#606060; stroke-width:0.01;}
</style>
<polygon class="face_stroke" points="0.6881909602355868,-0.5 -0.26286555605956674,-0.8090169943749475 -0.8506508083520399,-1.0417467896404342e-16 -0.2628655560595669,0.8090169943749473 0.6881909602355867,0.5000000000000001"/>
<polygon class="face_stroke" points="0.6881908654051868,0.4999999999999999 1.554216269189626,1.414100318299876e-16 0.6881908654051876,-0.5000000000000003"/>
<polygon class="face_stroke" points="0.6881912981077808,0.5000002981077805 1.188191298107781,1.3660257018922195 2.0542167018922193,0.8660257018922193 1.5542167018922195,2.981077805719323e-07"/>
<polygon class="face_stroke" points="0.6881907018922193,0.5000002981077807 -0.17783470189221928,1.0000002981077807 0.3221652981077808,1.8660257018922195 1.1881907018922195,1.3660257018922193"/>
<polygon class="face_stroke" points="-0.17783429810778065,1.0000002981077807 -1.0438597018922193,1.5000002981077807 -0.5438597018922192,2.3660257018922195 0.32216570189221944,1.8660257018922193"/>
<polygon class="face_stroke" points="-1.0438602981077807,1.5000002981077805 -1.9098857018922195,2.0000002981077802 -1.4098857018922193,2.8660257018922195 -0.5438602981077807,2.366025701892219"/>
<polygon class="face_stroke" points="-1.0438598179899872,1.4999998542188246 -1.2517715088077466,0.5218522534850191 -2.24629340417602,0.41732379021736554 -2.65303004725182,1.3308692478599662 -1.9098852217744258,1.9999998542188246"/>
<polygon class="face_stroke" points="-1.043860044886545,1.4999997356975547 -0.3007152194091507,0.8308691293386964 -1.2517717357043043,0.5218521349637488"/>
<text class="face_text" text-anchor="middle" dominant-baseline="middle" transform="matrix(0.008085093931787768 0 0 0.008085093931787768 0.0 0.0)">0</text>
<text class="face_text" text-anchor="middle" dominant-baseline="middle" transform="matrix(0.008085093931787768 0 0 0.008085093931787768 0.976866 0.0)">4</text>
<text class="face_text" text-anchor="middle" dominant-baseline="middle" transform="matrix(0.008085093931787768 0 0 0.008085093931787768 1.371204 0.683013)">5</text>
<text class="face_text" text-anchor="middle" dominant-baseline="middle" transform="matrix(0.008085093931787768 0 0 0.008085093931787768 0.505178 1.183013)">3</text>
<text class="face_text" text-anchor="middle" dominant-baseline="middle" transform="matrix(0.008085093931787768 0 0 0.008085093931787768 -0.360847 1.683013)">2</text>
<text class="face_text" text-anchor="middle" dominant-baseline="middle" transform="matrix(0.008085093931787768 0 0 0.008085093931787768 -1.226873 2.183013)">19</text>
<text class="face_text" text-anchor="middle" dominant-baseline="middle" transform="matrix(0.008085093931787768 0 0 0.008085093931787768 -1.820968 1.154009)">18</text>
<text class="face_text" text-anchor="middle" dominant-baseline="middle" transform="matrix(0.008085093931787768 0 0 0.008085093931787768 -0.865449 0.950907)">1</text>
<rect class="edge_bg" x="0.6073399260873094" y="-0.08085093931787772" width="0.16170187863575536" height="0.16170187863575536"/>
<text class="edge_text" text-anchor="middle" dominant-baseline="middle" transform="matrix(0.008085093931787768 0 0 0.008085093931787768 0.688190865405187 -3.535250795749691e-17)">5</text>
<rect class="edge_bg" x="1.0403530606821225" y="0.16914935878990284" width="0.16170187863575536" height="0.16170187863575536"/>
<text class="edge_text" text-anchor="middle" dominant-baseline="middle" transform="matrix(0.008085093931787768 0 0 0.008085093931787768 1.121204 0.2500002981077805)">4</text>
<rect class="edge_bg" x="0.8573397625743419" y="0.8521620606821224" width="0.16170187863575536" height="0.16170187863575536"/>
<text class="edge_text" text-anchor="middle" dominant-baseline="middle" transform="matrix(0.008085093931787768 0 0 0.008085093931787768 0.9381907018922195 0.9330130000000001)">6</text>
<rect class="edge_bg" x="-0.008685237425658188" y="1.3521620606821223" width="0.16170187863575536" height="0.16170187863575536"/>
<text class="edge_text" text-anchor="middle" dominant-baseline="middle" transform="matrix(0.008085093931787768 0 0 0.008085093931787768 0.07216570189221949 1.433013)">3</text>
<rect class="edge_bg" x="-0.8747112374256584" y="1.8521620606821223" width="0.16170187863575536" height="0.16170187863575536"/>
<text class="edge_text" text-anchor="middle" dominant-baseline="middle" transform="matrix(0.008085093931787768 0 0 0.008085093931787768 -0.7938602981077807 1.9330129999999999)">29</text>
<rect class="edge_bg" x="-1.557723459200084" y="1.6691489149009469" width="0.16170187863575536" height="0.16170187863575536"/>
<text class="edge_text" text-anchor="middle" dominant-baseline="middle" transform="matrix(0.008085093931787768 0 0 0.008085093931787768 -1.4768725198822064 1.7499998542188246)">25</text>
<rect class="edge_bg" x="-1.2286668296133025" y="0.930074996012774" width="0.16170187863575536" height="0.16170187863575536"/>
<text class="edge_text" text-anchor="middle" dominant-baseline="middle" transform="matrix(0.008085093931787768 0 0 0.008085093931787768 -1.1478158902954247 1.0109259353306517)">28</text>
</svg>
