<?xml version="1.0" encoding="utf-8"?>
<svg version="1.1" xmlns="http://www.w3.org/2000/svg" viewBox="-3.0174175264191643 -1.0177691291883058 5.313140620135735 4.592546965893884" style="enable-background:new -3.0174175264191643 -1.0177691291883058 5.313140620135735 4.592546965893884;">
<style type="text/css">
  .face_stroke {fill:none; stroke:#000000; stroke-width:0.02; stroke-miterlimit:10;}
  .face_text {fill:#000000; font-family:monospace;}
  .edge_text {fill:#ff0000; font-family:monospace;}
  .edge_bg {fill:#f3f3f3; stroke:#606060; stroke-width:0.01;}
</style>
<polygon class="face_stroke" points="0.6881909602355868,-0.5 -0.26286555605956674,-0.8090169943749475 -0.8506508083520399,-1.0417467896404342e-16 -0.2628655560595669,0.8090169943749473 0.6881909602355867,0.5000000000000001"/>
<polygon class="face_stroke" points="0.6881908654051868,0.4999999999999999 1.554216269189626,1.414100318299876e-16 0.6881908654051876,-0.5000000000000003"/>
<polygon class="face_stroke" points="0.6881912981077808,0.5000002981077805 1.188191298107781,1.3660257018922195 2.0542167018922193,0.8660257018922193 1.5542167018922195,2.981077805719323e-07"/>
<polygon class="face_stroke" points="0.6881907018922193,0.5000002981077807 -0.17783470189221928,1.0000002981077807 0.3221652981077808,1.8660257018922195 1.1881907018922195,1.3660257018922193"/>
<polygon class="face_stroke" points="-0.17783429810778065,1.0000002981077807 -1.0438597018922193,1.5000002981077807 -0.5438597018922192,2.3660257018922195 0.32216570189221944,1.8660257018922193"/>
<polygon class="face_stroke" points="-1.0438602981077807,1.5000002981077805 -1.9098857018922195,2.0000002981077802 -1.4098857018922193,2.8660257018922195 -0.5438602981077807,2.366025701892219"/>
<polygon class="face_stroke" points="-1.9098852981077805,2.0000002981077802 -2.775910701892219,2.5000002981077802 -2.275910701892219,3.3660257018922195 -1.4098852981077805,2.866025701892219"/>
<polygon class="face_stroke" points="-1.909885730810374,2.0 -2.7759111345948124,1.5 -2.775911134594813,2.5"/>
<polygon class="face_stroke" points="-1.9098847782255741,1.9999998542188244 -1.1667399527481797,1.3308692478599664 -1.5734765958239798,0.41732379021736565 -2.5679984911922533,0.5218522534850191 -2.775910182010013,1.4999998542188244"/>
<polygon class="face_stroke" points="-1.1667405364055574,1.3308694840058495 -0.5789552841130844,0.521852489630902 -1.5734771794813578,0.4173240263632484"/>
<text class="face_text" text-anchor="middle" dominant-baseline="middle" transform="matrix(0.009185093931787767 0 0 0.009185093931787767 0.0 0.0)">0</text>
<text class="face_text" text-anchor="middle" dominant-baseline="middle" transform="matrix(0.009185093931787767 0 0 0.009185093931787767 0.976866 0.0)">4</text>
<text class="face_text" text-anchor="middle" dominant-baseline="middle" transform="matrix(0.009185093931787767 0 0 0.009185093931787767 1.371204 0.683013)">5</text>
<text class="face_text" text-anchor="middle" dominant-baseline="middle" transform="matrix(0.009185093931787767 0 0 0.009185093931787767 0.505178 1.183013)">3</text>
<text class="face_text" text-anchor="middle" dominant-baseline="middle" transform="matrix(0.009185093931787767 0 0 0.009185093931787767 -0.360847 1.683013)">2</text>
<text class="face_text" text-anchor="middle" dominant-baseline="middle" transform="matrix(0.009185093931787767 0 0 0.009185093931787767 -1.226873 2.183013)">19</text>
<text class="face_text" text-anchor="middle" dominant-baseline="middle" transform="matrix(0.009185093931787767 0 0 0.009185093931787767 -2.092898 2.683013)">17</text>
<text class="face_text" text-anchor="middle" dominant-baseline="middle" transform="matrix(0.009185093931787767 0 0 0.009185093931787767 -2.487236 2.0)">16</text>
<text class="face_text" text-anchor="middle" dominant-baseline="middle" transform="matrix(0.009185093931787767 0 0 0.009185093931787767 -1.998802 1.154009)">18</text>
<text class="face_text" text-anchor="middle" dominant-baseline="middle" transform="matrix(0.009185093931787767 0 0 0.009185093931787767 -1.106391 0.756682)">1</text>
<rect class="edge_bg" x="0.5963399260873093" y="-0.09185093931787772" width="0.18370187863575535" height="0.18370187863575535"/>
<text class="edge_text" text-anchor="middle" dominant-baseline="middle" transform="matrix(0.009185093931787767 0 0 0.009185093931787767 0.688190865405187 -3.535250795749691e-17)">5</text>
<rect class="edge_bg" x="1.0293530606821224" y="0.15814935878990283" width="0.18370187863575535" height="0.18370187863575535"/>
<text class="edge_text" text-anchor="middle" dominant-baseline="middle" transform="matrix(0.009185093931787767 0 0 0.009185093931787767 1.121204 0.2500002981077805)">4</text>
<rect class="edge_bg" x="0.8463397625743418" y="0.8411620606821224" width="0.18370187863575535" height="0.18370187863575535"/>
<text class="edge_text" text-anchor="middle" dominant-baseline="middle" transform="matrix(0.009185093931787767 0 0 0.009185093931787767 0.9381907018922195 0.9330130000000001)">6</text>
<rect class="edge_bg" x="-0.019685237425658184" y="1.3411620606821224" width="0.18370187863575535" height="0.18370187863575535"/>
<text class="edge_text" text-anchor="middle" dominant-baseline="middle" transform="matrix(0.009185093931787767 0 0 0.009185093931787767 0.07216570189221949 1.433013)">3</text>
<rect class="edge_bg" x="-0.8857112374256584" y="1.8411620606821222" width="0.18370187863575535" height="0.18370187863575535"/>
<text class="edge_text" text-anchor="middle" dominant-baseline="middle" transform="matrix(0.009185093931787767 0 0 0.009185093931787767 -0.7938602981077807 1.9330129999999999)">29</text>
<rect class="edge_bg" x="-1.7517362374256582" y="2.341162060682122" width="0.18370187863575535" height="0.18370187863575535"/>
<text class="edge_text" text-anchor="middle" dominant-baseline="middle" transform="matrix(0.009185093931787767 0 0 0.009185093931787767 -1.6598852981077805 2.433013)">27</text>
<rect class="edge_bg" x="-2.434749372020471" y="2.1581490606821223" width="0.18370187863575535" height="0.18370187863575535"/>
<text class="edge_text" text-anchor="middle" dominant-baseline="middle" transform="matrix(0.009185093931787767 0 0 0.009185093931787767 -2.3428984327025932 2.25)">22</text>
<rect class="edge_bg" x="-2.434748419435671" y="1.6581489149009472" width="0.18370187863575535" height="0.18370187863575535"/>
<text class="edge_text" text-anchor="middle" dominant-baseline="middle" transform="matrix(0.009185093931787767 0 0 0.009185093931787767 -2.3428974801177933 1.7499998542188249)">26</text>
<rect class="edge_bg" x="-1.4619597972613354" y="0.7822458158666714" width="0.18370187863575535" height="0.18370187863575535"/>
<text class="edge_text" text-anchor="middle" dominant-baseline="middle" transform="matrix(0.009185093931787767 0 0 0.009185093931787767 -1.3701088579434577 0.8740967551845491)">28</text>
</svg>
