<?xml version="1.0" encoding="utf-8"?>
<svg version="1.1" xmlns="http://www.w3.org/2000/svg" viewBox="-1.0080514011322328 -1.7022608699905137 3.462813041164246 2.63086252457334" style="enable-background:new -1.0080514011322328 -1.7022608699905137 3.462813041164246 2.63086252457334;">
<style type="text/css">
  .face_stroke {fill:none; stroke:#000000; stroke-width:0.02; stroke-miterlimit:10;}
  .face_text {fill:#000000; font-family:monospace;}
  .edge_text {fill:#ff0000; font-family:monospace;}
  .edge_bg {fill:#f3f3f3; stroke:#606060; stroke-width:0.01;}
</style>
<polygon class="face_stroke" points="0.6881909602355868,-0.5 -0.26286555605956674,-0.8090169943749475 -0.8506508083520399,-1.0417467896404342e-16 -0.2628655560595669,0.8090169943749473 0.6881909602355867,0.5000000000000001"/>
<polygon class="face_stroke" points="0.6881908654051868,0.4999999999999999 1.554216269189626,1.414100318299876e-16 0.6881908654051876,-0.5000000000000003"/>
<polygon class="face_stroke" points="1.5542162217744258,-1.457811755756211e-07 2.29736104725182,-0.6691307521400337 1.89062440417602,-1.5826762097826346 0.8961025088077466,-1.478147746514981 0.688190817989987,-0.5000001457811758"/>
<text class="face_text" text-anchor="middle" dominant-baseline="middle" transform="matrix(0.00526172504914668 0 0 0.00526172504914668 0.0 0.0)">0</text>
<text class="face_text" text-anchor="middle" dominant-baseline="middle" transform="matrix(0.00526172504914668 0 0 0.00526172504914668 0.976866 0.0)">4</text>
<text class="face_text" text-anchor="middle" dominant-baseline="middle" transform="matrix(0.00526172504914668 0 0 0.00526172504914668 1.465299 -0.845991)">6</text>
<rect class="edge_bg" x="0.6355736149137202" y="-0.05261725049146684" width="0.1052345009829336" height="0.1052345009829336"/>
<text class="edge_text" text-anchor="middle" dominant-baseline="middle" transform="matrix(0.00526172504914668 0 0 0.00526172504914668 0.688190865405187 -3.535250795749691e-17)">5</text>
<rect class="edge_bg" x="1.0685862693907398" y="-0.30261739627264217" width="0.1052345009829336" height="0.1052345009829336"/>
<text class="edge_text" text-anchor="middle" dominant-baseline="middle" transform="matrix(0.00526172504914668 0 0 0.00526172504914668 1.1212035198822066 -0.25000014578117535)">8</text>
</svg>
