<?xml version="1.0" encoding="utf-8"?>
<svg version="1.1" xmlns="http://www.w3.org/2000/svg" viewBox="-3.1184679440432723 -1.7993368560676726 6.374719643769084 4.766534218270836" style="enable-background:new -3.1184679440432723 -1.7993368560676726 6.374719643769084 4.766534218270836;">
<style type="text/css">
  .face_stroke {fill:none; stroke:#000000; stroke-width:0.02; stroke-miterlimit:10;}
  .face_text {fill:#000000; font-family:monospace;}
  .edge_text {fill:#ff0000; font-family:monospace;}
  .edge_bg {fill:#f3f3f3; stroke:#606060; stroke-width:0.01;}
</style>
<polygon class="face_stroke" points="0.6881909602355868,-0.5 -0.26286555605956674,-0.8090169943749475 -0.8506508083520399,-1.0417467896404342e-16 -0.2628655560595669,0.8090169943749473 0.6881909602355867,0.5000000000000001"/>
<polygon class="face_stroke" points="0.6881908654051868,0.4999999999999999 1.554216269189626,1.414100318299876e-16 0.6881908654051876,-0.5000000000000003"/>
<polygon class="face_stroke" points="1.5542162217744258,-1.457811755756211e-07 2.29736104725182,-0.6691307521400337 1.89062440417602,-1.5826762097826346 0.8961025088077466,-1.478147746514981 0.688190817989987,-0.5000001457811758"/>
<polygon class="face_stroke" points="1.5542162840818738,-1.09559267998105e-07 2.2233468904407316,0.7431447159181263 2.966491715918126,0.07401410955926839 2.2973611095592683,-0.6691307159181262"/>
<polygon class="face_stroke" points="1.5542161095592681,2.8408187380257743e-07 0.8110712840818738,0.669130890440732 1.4802018904407317,1.4122757159181263 2.2233467159181264,0.7431451095592685"/>
<polygon class="face_stroke" points="0.8110711095592681,0.6691302840818737 0.06792628408187373,1.338260890440732 0.7370568904407316,2.0814057159181263 1.4802017159181262,1.4122751095592683"/>
<polygon class="face_stroke" points="0.0679271095592681,1.3382612840818737 -0.6752177159181263,2.007391890440732 -0.006087109559268351,2.750536715918126 0.7370577159181262,2.081406109559268"/>
<polygon class="face_stroke" points="0.06792678059084933,1.3382611293386963 -0.8831297357043044,1.029244134963749 -0.675218044886545,2.0073917356975546"/>
<polygon class="face_stroke" points="-0.8831295088077467,1.029244253485019 -1.8776514041760197,0.9247157902173654 -2.28438804725182,1.838261247859966 -1.5412432217744259,2.5073918542188247 -0.6752178179899874,2.0073918542188243"/>
<polygon class="face_stroke" points="-0.8831298205186422,1.0292439736367516 -1.2898664635944423,0.11569851599415049 -1.8776517158869157,0.9247155103690978"/>
<polygon class="face_stroke" points="-1.2898661916479601,0.115699 -1.8776514439404333,-0.6933179943749473 -2.8287079602355867,-0.3843010000000001 -2.8287079602355867,0.6156989999999999 -1.8776514439404335,0.9247159943749474"/>
<polygon class="face_stroke" points="-1.2898664635944423,0.11569848400584953 -0.8831298205186422,-0.7978469736367515 -1.8776517158869157,-0.6933185103690981"/>
<text class="face_text" text-anchor="middle" dominant-baseline="middle" transform="matrix(0.009533068436541673 0 0 0.009533068436541673 0.0 0.0)">0</text>
<text class="face_text" text-anchor="middle" dominant-baseline="middle" transform="matrix(0.009533068436541673 0 0 0.009533068436541673 0.976866 0.0)">4</text>
<text class="face_text" text-anchor="middle" dominant-baseline="middle" transform="matrix(0.009533068436541673 0 0 0.009533068436541673 1.465299 -0.845991)">6</text>
<text class="face_text" text-anchor="middle" dominant-baseline="middle" transform="matrix(0.009533068436541673 0 0 0.009533068436541673 2.260354 0.037007)">7</text>
<text class="face_text" text-anchor="middle" dominant-baseline="middle" transform="matrix(0.009533068436541673 0 0 0.009533068436541673 1.517209 0.706138)">5</text>
<text class="face_text" text-anchor="middle" dominant-baseline="middle" transform="matrix(0.009533068436541673 0 0 0.009533068436541673 0.774064 1.375268)">3</text>
<text class="face_text" text-anchor="middle" dominant-baseline="middle" transform="matrix(0.009533068436541673 0 0 0.009533068436541673 0.03092 2.044399)">2</text>
<text class="face_text" text-anchor="middle" dominant-baseline="middle" transform="matrix(0.009533068436541673 0 0 0.009533068436541673 -0.496807 1.458299)">1</text>
<text class="face_text" text-anchor="middle" dominant-baseline="middle" transform="matrix(0.009533068436541673 0 0 0.009533068436541673 -1.452326 1.661401)">18</text>
<text class="face_text" text-anchor="middle" dominant-baseline="middle" transform="matrix(0.009533068436541673 0 0 0.009533068436541673 -1.350216 0.689886)">20</text>
<text class="face_text" text-anchor="middle" dominant-baseline="middle" transform="matrix(0.009533068436541673 0 0 0.009533068436541673 -2.140517 0.115699)">25</text>
<text class="face_text" text-anchor="middle" dominant-baseline="middle" transform="matrix(0.009533068436541673 0 0 0.009533068436541673 -1.350216 -0.458489)">21</text>
<rect class="edge_bg" x="0.5928601810397703" y="-0.09533068436541677" width="0.19066136873083345" height="0.19066136873083345"/>
<text class="edge_text" text-anchor="middle" dominant-baseline="middle" transform="matrix(0.009533068436541673 0 0 0.009533068436541673 0.688190865405187 -3.535250795749691e-17)">5</text>
<rect class="edge_bg" x="1.0258728355167899" y="-0.34533083014659205" width="0.19066136873083345" height="0.19066136873083345"/>
<text class="edge_text" text-anchor="middle" dominant-baseline="middle" transform="matrix(0.009533068436541673 0 0 0.009533068436541673 1.1212035198822066 -0.25000014578117535)">8</text>
<rect class="edge_bg" x="1.8304580124551542" y="-0.4298960971041139" width="0.19066136873083345" height="0.19066136873083345"/>
<text class="edge_text" text-anchor="middle" dominant-baseline="middle" transform="matrix(0.009533068436541673 0 0 0.009533068436541673 1.9257886968205709 -0.33456541273869717)">7</text>
<rect class="edge_bg" x="1.7934507283732806" y="0.2762420124551541" width="0.19066136873083345" height="0.19066136873083345"/>
<text class="edge_text" text-anchor="middle" dominant-baseline="middle" transform="matrix(0.009533068436541673 0 0 0.009533068436541673 1.8887814127386973 0.37157269682057087)">9</text>
<rect class="edge_bg" x="1.0503057283732804" y="0.9453720124551541" width="0.19066136873083345" height="0.19066136873083345"/>
<text class="edge_text" text-anchor="middle" dominant-baseline="middle" transform="matrix(0.009533068436541673 0 0 0.009533068436541673 1.145636412738697 1.0407026968205708)">6</text>
<rect class="edge_bg" x="0.3071617283732805" y="1.614503012455154" width="0.19066136873083345" height="0.19066136873083345"/>
<text class="edge_text" text-anchor="middle" dominant-baseline="middle" transform="matrix(0.009533068436541673 0 0 0.009533068436541673 0.4024924127386972 1.7098336968205707)">3</text>
<rect class="edge_bg" x="-0.3989763165132645" y="1.577495748152709" width="0.19066136873083345" height="0.19066136873083345"/>
<text class="edge_text" text-anchor="middle" dominant-baseline="middle" transform="matrix(0.009533068436541673 0 0 0.009533068436541673 -0.3036456321478478 1.6728264325181257)">1</text>
<rect class="edge_bg" x="-0.8745043477642837" y="1.422987369486505" width="0.19066136873083345" height="0.19066136873083345"/>
<text class="edge_text" text-anchor="middle" dominant-baseline="middle" transform="matrix(0.009533068436541673 0 0 0.009533068436541673 -0.779173663398867 1.5183180538519216)">28</text>
<rect class="edge_bg" x="-1.4757214525681956" y="0.8816490576375081" width="0.19066136873083345" height="0.19066136873083345"/>
<text class="edge_text" text-anchor="middle" dominant-baseline="middle" transform="matrix(0.009533068436541673 0 0 0.009533068436541673 -1.380390768202779 0.9769797420029248)">31</text>
<rect class="edge_bg" x="-1.6790895021596133" y="0.424876812822057" width="0.19066136873083345" height="0.19066136873083345"/>
<text class="edge_text" text-anchor="middle" dominant-baseline="middle" transform="matrix(0.009533068436541673 0 0 0.009533068436541673 -1.5837588177941966 0.5202074971874737)">41</text>
<rect class="edge_bg" x="-1.6790897741060957" y="-0.38414069754704083" width="0.19066136873083345" height="0.19066136873083345"/>
<text class="edge_text" text-anchor="middle" dominant-baseline="middle" transform="matrix(0.009533068436541673 0 0 0.009533068436541673 -1.583759089740679 -0.28881001318162414)">40</text>
</svg>
