<?xml version="1.0" encoding="utf-8"?>
<svg version="1.1" xmlns="http://www.w3.org/2000/svg" viewBox="-2.975053947277199 -1.8236134129827075 6.986798835878095 5.300618470401605" style="enable-background:new -2.975053947277199 -1.8236134129827075 6.986798835878095 5.300618470401605;">
<style type="text/css">
  .face_stroke {fill:none; stroke:#000000; stroke-width:0.02; stroke-miterlimit:10;}
  .face_text {fill:#000000; font-family:monospace;}
  .edge_text {fill:#ff0000; font-family:monospace;}
  .edge_bg {fill:#f3f3f3; stroke:#606060; stroke-width:0.01;}
</style>
<polygon class="face_stroke" points="0.6881909602355868,-0.5 -0.26286555605956674,-0.8090169943749475 -0.8506508083520399,-1.0417467896404342e-16 -0.2628655560595669,0.8090169943749473 0.6881909602355867,0.5000000000000001"/>
<polygon class="face_stroke" points="0.6881908654051868,0.4999999999999999 1.554216269189626,1.414100318299876e-16 0.6881908654051876,-0.5000000000000003"/>
<polygon class="face_stroke" points="1.5542162217744258,-1.457811755756211e-07 2.29736104725182,-0.6691307521400337 1.89062440417602,-1.5826762097826346 0.8961025088077466,-1.478147746514981 0.688190817989987,-0.5000001457811758"/>
<polygon class="face_stroke" points="2.2973614635944424,-0.6691305159941504 2.8851467158869157,-1.478147510369098 1.8906248205186422,-1.5826759736367515"/>
<polygon class="face_stroke" points="2.2973608766662896,-0.669130128958763 3.106377871041237,-0.08134487666628964 3.6941631233337104,-0.890361871041237 2.885146128958764,-1.4781471233337105"/>
<polygon class="face_stroke" points="2.2973611289587623,-0.6691301233337102 1.7095758766662894,0.13988687104123707 2.518592871041237,0.7276721233337105 3.10637812333371,-0.08134487104123697"/>
<polygon class="face_stroke" points="1.7095761289587628,0.13988687666628974 1.1217908766662896,0.9489038710412371 1.930807871041237,1.5366891233337103 2.5185931233337104,0.7276721289587631"/>
<polygon class="face_stroke" points="1.1217911289587628,0.9489038766662897 0.5340058766662896,1.757920871041237 1.343022871041237,2.34570612333371 1.9308081233337104,1.536689128958763"/>
<polygon class="face_stroke" points="0.5340051289587627,1.7579208766662897 -0.053780123333710406,2.566937871041237 0.755236871041237,3.1547231233337105 1.3430221233337103,2.345706128958763"/>
<polygon class="face_stroke" points="0.5340057158869155,1.757920489630902 -0.46051617948135787,1.6533920263632484 -0.05377953640555758,2.5669374840058494"/>
<polygon class="face_stroke" points="-0.46051659582397997,1.6533917902173654 -1.4550384911922534,1.7579202534850187 -1.6629501820100128,2.736067854218824 -0.7969247782255745,3.2360678542188244 -0.05377995274817993,2.5669372478599666"/>
<polygon class="face_stroke" points="-0.46051628411308454,1.6533915103690981 -1.0483015364055577,0.8443745159941506 -1.455038179481358,1.7579199736367515"/>
<polygon class="face_stroke" points="-1.0483019527481798,0.8443747521400335 -1.791446778225574,0.17524414578117542 -2.6574721820100127,0.6752441457811751 -2.4495604911922535,1.6533917465149806 -1.45503859582398,1.7579202097826343"/>
<polygon class="face_stroke" points="-1.048301955113455,0.8443747356975546 -0.8403902642956955,-0.13377286503625108 -1.7914467805908494,0.17524412933869637"/>
<text class="face_text" text-anchor="middle" dominant-baseline="middle" transform="matrix(0.01060123694080321 0 0 0.01060123694080321 0.0 0.0)">0</text>
<text class="face_text" text-anchor="middle" dominant-baseline="middle" transform="matrix(0.01060123694080321 0 0 0.01060123694080321 0.976866 0.0)">4</text>
<text class="face_text" text-anchor="middle" dominant-baseline="middle" transform="matrix(0.01060123694080321 0 0 0.01060123694080321 1.465299 -0.845991)">6</text>
<text class="face_text" text-anchor="middle" dominant-baseline="middle" transform="matrix(0.01060123694080321 0 0 0.01060123694080321 2.357711 -1.243318)">8</text>
<text class="face_text" text-anchor="middle" dominant-baseline="middle" transform="matrix(0.01060123694080321 0 0 0.01060123694080321 2.995762 -0.779746)">9</text>
<text class="face_text" text-anchor="middle" dominant-baseline="middle" transform="matrix(0.01060123694080321 0 0 0.01060123694080321 2.407977 0.029271)">7</text>
<text class="face_text" text-anchor="middle" dominant-baseline="middle" transform="matrix(0.01060123694080321 0 0 0.01060123694080321 1.820192 0.838288)">5</text>
<text class="face_text" text-anchor="middle" dominant-baseline="middle" transform="matrix(0.01060123694080321 0 0 0.01060123694080321 1.232407 1.647305)">3</text>
<text class="face_text" text-anchor="middle" dominant-baseline="middle" transform="matrix(0.01060123694080321 0 0 0.01060123694080321 0.644621 2.456322)">2</text>
<text class="face_text" text-anchor="middle" dominant-baseline="middle" transform="matrix(0.01060123694080321 0 0 0.01060123694080321 0.00657 1.99275)">1</text>
<text class="face_text" text-anchor="middle" dominant-baseline="middle" transform="matrix(0.01060123694080321 0 0 0.01060123694080321 -0.885842 2.390077)">18</text>
<text class="face_text" text-anchor="middle" dominant-baseline="middle" transform="matrix(0.01060123694080321 0 0 0.01060123694080321 -0.987952 1.418562)">20</text>
<text class="face_text" text-anchor="middle" dominant-baseline="middle" transform="matrix(0.01060123694080321 0 0 0.01060123694080321 -1.880364 1.021235)">25</text>
<text class="face_text" text-anchor="middle" dominant-baseline="middle" transform="matrix(0.01060123694080321 0 0 0.01060123694080321 -1.226713 0.295282)">21</text>
<rect class="edge_bg" x="0.582178495997155" y="-0.10601236940803214" width="0.2120247388160642" height="0.2120247388160642"/>
<text class="edge_text" text-anchor="middle" dominant-baseline="middle" transform="matrix(0.01060123694080321 0 0 0.01060123694080321 0.688190865405187 -3.535250795749691e-17)">5</text>
<rect class="edge_bg" x="1.0151911504741744" y="-0.35601251518920746" width="0.2120247388160642" height="0.2120247388160642"/>
<text class="edge_text" text-anchor="middle" dominant-baseline="middle" transform="matrix(0.01060123694080321 0 0 0.01060123694080321 1.1212035198822066 -0.25000014578117535)">8</text>
<rect class="edge_bg" x="1.9879807726485101" y="-1.231915614223483" width="0.2120247388160642" height="0.2120247388160642"/>
<text class="edge_text" text-anchor="middle" dominant-baseline="middle" transform="matrix(0.01060123694080321 0 0 0.01060123694080321 2.0939931420565423 -1.125903244815451)">11</text>
<rect class="edge_bg" x="2.4852411334044944" y="-1.1796509955542689" width="0.2120247388160642" height="0.2120247388160642"/>
<text class="edge_text" text-anchor="middle" dominant-baseline="middle" transform="matrix(0.01060123694080321 0 0 0.01060123694080321 2.5912535028125263 -1.0736386261462367)">10</text>
<rect class="edge_bg" x="2.5958572567382046" y="-0.48124986659550595" width="0.2120247388160642" height="0.2120247388160642"/>
<text class="edge_text" text-anchor="middle" dominant-baseline="middle" transform="matrix(0.01060123694080321 0 0 0.01060123694080321 2.7018696261462365 -0.37523749718747385)">12</text>
<rect class="edge_bg" x="2.0080722567382048" y="0.3277671334044941" width="0.2120247388160642" height="0.2120247388160642"/>
<text class="edge_text" text-anchor="middle" dominant-baseline="middle" transform="matrix(0.01060123694080321 0 0 0.01060123694080321 2.1140846261462367 0.4337795028125262)">9</text>
<rect class="edge_bg" x="1.4202872567382046" y="1.136784133404494" width="0.2120247388160642" height="0.2120247388160642"/>
<text class="edge_text" text-anchor="middle" dominant-baseline="middle" transform="matrix(0.01060123694080321 0 0 0.01060123694080321 1.5262996261462367 1.242796502812526)">6</text>
<rect class="edge_bg" x="0.8325012567382044" y="1.9458011334044942" width="0.2120247388160642" height="0.2120247388160642"/>
<text class="edge_text" text-anchor="middle" dominant-baseline="middle" transform="matrix(0.01060123694080321 0 0 0.01060123694080321 0.9385136261462366 2.0518135028125264)">3</text>
<rect class="edge_bg" x="0.1341007203326469" y="2.0564166174103438" width="0.2120247388160642" height="0.2120247388160642"/>
<text class="edge_text" text-anchor="middle" dominant-baseline="middle" transform="matrix(0.01060123694080321 0 0 0.01060123694080321 0.240113089740679 2.1624289868183757)">1</text>
<rect class="edge_bg" x="-0.3631606436941121" y="2.0041521496306336" width="0.2120247388160642" height="0.2120247388160642"/>
<text class="edge_text" text-anchor="middle" dominant-baseline="middle" transform="matrix(0.01060123694080321 0 0 0.01060123694080321 -0.25714827428608 2.1101645190386655)">28</text>
<rect class="edge_bg" x="-1.0637896012052532" y="1.5996433725948929" width="0.2120247388160642" height="0.2120247388160642"/>
<text class="edge_text" text-anchor="middle" dominant-baseline="middle" transform="matrix(0.01060123694080321 0 0 0.01060123694080321 -0.9577772317972212 1.705655742002925)">31</text>
<rect class="edge_bg" x="-1.357682643694112" y="1.1951351115533018" width="0.2120247388160642" height="0.2120247388160642"/>
<text class="edge_text" text-anchor="middle" dominant-baseline="middle" transform="matrix(0.01060123694080321 0 0 0.01060123694080321 -1.25167027428608 1.301147480961334)">41</text>
<rect class="edge_bg" x="-1.5258867372601843" y="0.4037970631100935" width="0.2120247388160642" height="0.2120247388160642"/>
<text class="edge_text" text-anchor="middle" dominant-baseline="middle" transform="matrix(0.01060123694080321 0 0 0.01060123694080321 -1.4198743678521522 0.5098094325181256)">40</text>
</svg>
