<?xml version="1.0" encoding="utf-8"?>
<svg version="1.1" xmlns="http://www.w3.org/2000/svg" viewBox="-2.403340302132371 -3.408794896648513 6.923471607372123 7.65536293345315" style="enable-background:new -2.403340302132371 -3.408794896648513 6.923471607372123 7.65536293345315;">
<style type="text/css">
  .face_stroke {fill:none; stroke:#000000; stroke-width:0.02; stroke-miterlimit:10;}
  .face_text {fill:#000000; font-family:monospace;}
  .edge_text {fill:#ff0000; font-family:monospace;}
  .edge_bg {fill:#f3f3f3; stroke:#606060; stroke-width:0.01;}
</style>
<polygon class="face_stroke" points="0.6881909602355868,-0.5 -0.26286555605956674,-0.8090169943749475 -0.8506508083520399,-1.0417467896404342e-16 -0.2628655560595669,0.8090169943749473 0.6881909602355867,0.5000000000000001"/>
<polygon class="face_stroke" points="0.6881908654051868,0.4999999999999999 1.554216269189626,1.414100318299876e-16 0.6881908654051876,-0.5000000000000003"/>
<polygon class="face_stroke" points="1.5542162217744258,-1.457811755756211e-07 2.29736104725182,-0.6691307521400337 1.89062440417602,-1.5826762097826346 0.8961025088077466,-1.478147746514981 0.688190817989987,-0.5000001457811758"/>
<polygon class="face_stroke" points="2.2973614635944424,-0.6691305159941504 2.8851467158869157,-1.478147510369098 1.8906248205186422,-1.5826759736367515"/>
<polygon class="face_stroke" points="2.88514640417602,-1.4781477902173656 3.29188304725182,-2.3916932478599664 2.5487382217744257,-3.0608238542188246 1.6827128179899873,-2.5608238542188246 1.8906245088077462,-1.5826762534850194"/>
<polygon class="face_stroke" points="2.8851459496407994,-1.4781475927165995 3.7986914072833997,-1.071410949640799 4.205428050359201,-1.9849564072833998 3.2918825927165996,-2.3916930503592004"/>
<polygon class="face_stroke" points="2.8851465927165996,-1.4781480503592006 2.4784099496407994,-0.5646025927165996 3.3919554072834,-0.15786594964079925 3.7986920503592008,-1.0714114072833998"/>
<polygon class="face_stroke" points="2.4784095927165994,-0.5646020503592005 2.0716729496407993,0.34894340728340045 2.9852184072833996,0.7556800503592008 3.3919550503592006,-0.15786540728339982"/>
<polygon class="face_stroke" points="2.0716735927165995,0.3489429496407995 1.6649369496407993,1.2624884072834006 2.5784824072834,1.6692250503592008 2.9852190503592007,0.7556795927166002"/>
<polygon class="face_stroke" points="1.6649365927165998,1.2624889496407996 1.2581999496407996,2.1760344072834004 2.1717454072834,2.582771050359201 2.578482050359201,1.6692255927166002"/>
<polygon class="face_stroke" points="1.2581995927165996,2.176033949640799 0.8514629496407994,3.0895794072834004 1.7650084072833998,3.4963160503592006 2.171745050359201,2.5827705927166003"/>
<polygon class="face_stroke" points="1.258200179481358,2.1760340263632485 0.26367828411308447,2.280562489630902 0.8514635364055574,3.0895794840058493"/>
<polygon class="face_stroke" points="0.2636775560595668,2.2805630056250528 -0.6873789602355866,2.58958 -0.6873789602355868,3.58958 0.2636775560595666,3.8985969943749477 0.8514628083520399,3.08958"/>
<polygon class="face_stroke" points="0.26367778059084934,2.2805628706613033 -0.4794670448865449,1.611432264302445 -0.6873787357043044,2.5895798650362507"/>
<polygon class="face_stroke" points="-0.47946681798998736,1.6114321457811753 -1.3454922217744258,1.1114321457811753 -2.08863704725182,1.7805627521400336 -1.6819004041760204,2.694108209782634 -0.687378508807747,2.589579746514981"/>
<polygon class="face_stroke" points="-0.479466865405187,1.611432 -0.479466865405187,0.611432 -1.3454922691896258,1.111432"/>
<text class="face_text" text-anchor="middle" dominant-baseline="middle" transform="matrix(0.013846943214744247 0 0 0.013846943214744247 0.0 0.0)">0</text>
<text class="face_text" text-anchor="middle" dominant-baseline="middle" transform="matrix(0.013846943214744247 0 0 0.013846943214744247 0.976866 0.0)">4</text>
<text class="face_text" text-anchor="middle" dominant-baseline="middle" transform="matrix(0.013846943214744247 0 0 0.013846943214744247 1.465299 -0.845991)">6</text>
<text class="face_text" text-anchor="middle" dominant-baseline="middle" transform="matrix(0.013846943214744247 0 0 0.013846943214744247 2.357711 -1.243318)">8</text>
<text class="face_text" text-anchor="middle" dominant-baseline="middle" transform="matrix(0.013846943214744247 0 0 0.013846943214744247 2.459821 -2.214833)">10</text>
<text class="face_text" text-anchor="middle" dominant-baseline="middle" transform="matrix(0.013846943214744247 0 0 0.013846943214744247 3.545287 -1.731552)">11</text>
<text class="face_text" text-anchor="middle" dominant-baseline="middle" transform="matrix(0.013846943214744247 0 0 0.013846943214744247 3.138551 -0.818007)">9</text>
<text class="face_text" text-anchor="middle" dominant-baseline="middle" transform="matrix(0.013846943214744247 0 0 0.013846943214744247 2.731814 0.095539)">7</text>
<text class="face_text" text-anchor="middle" dominant-baseline="middle" transform="matrix(0.013846943214744247 0 0 0.013846943214744247 2.325078 1.009084)">5</text>
<text class="face_text" text-anchor="middle" dominant-baseline="middle" transform="matrix(0.013846943214744247 0 0 0.013846943214744247 1.918341 1.92263)">3</text>
<text class="face_text" text-anchor="middle" dominant-baseline="middle" transform="matrix(0.013846943214744247 0 0 0.013846943214744247 1.511604 2.836175)">2</text>
<text class="face_text" text-anchor="middle" dominant-baseline="middle" transform="matrix(0.013846943214744247 0 0 0.013846943214744247 0.791114 2.515392)">1</text>
<text class="face_text" text-anchor="middle" dominant-baseline="middle" transform="matrix(0.013846943214744247 0 0 0.013846943214744247 0.000812 3.08958)">18</text>
<text class="face_text" text-anchor="middle" dominant-baseline="middle" transform="matrix(0.013846943214744247 0 0 0.013846943214744247 -0.301056 2.160525)">20</text>
<text class="face_text" text-anchor="middle" dominant-baseline="middle" transform="matrix(0.013846943214744247 0 0 0.013846943214744247 -1.256575 1.957423)">25</text>
<text class="face_text" text-anchor="middle" dominant-baseline="middle" transform="matrix(0.013846943214744247 0 0 0.013846943214744247 -0.768142 1.111432)">21</text>
<rect class="edge_bg" x="0.5497214332577446" y="-0.1384694321474425" width="0.27693886429488496" height="0.27693886429488496"/>
<text class="edge_text" text-anchor="middle" dominant-baseline="middle" transform="matrix(0.013846943214744247 0 0 0.013846943214744247 0.688190865405187 -3.535250795749691e-17)">5</text>
<rect class="edge_bg" x="0.9827340877347641" y="-0.3884695779286178" width="0.27693886429488496" height="0.27693886429488496"/>
<text class="edge_text" text-anchor="middle" dominant-baseline="middle" transform="matrix(0.013846943214744247 0 0 0.013846943214744247 1.1212035198822066 -0.25000014578117535)">8</text>
<rect class="edge_bg" x="1.9555237099090998" y="-1.2643726769628933" width="0.27693886429488496" height="0.27693886429488496"/>
<text class="edge_text" text-anchor="middle" dominant-baseline="middle" transform="matrix(0.013846943214744247 0 0 0.013846943214744247 2.0939931420565423 -1.125903244815451)">11</text>
<rect class="edge_bg" x="2.2494160243444408" y="-1.6688814539986345" width="0.27693886429488496" height="0.27693886429488496"/>
<text class="edge_text" text-anchor="middle" dominant-baseline="middle" transform="matrix(0.013846943214744247 0 0 0.013846943214744247 2.387885456491883 -1.530412021851192)">14</text>
<rect class="edge_bg" x="2.950044839031257" y="-2.0733897536853427" width="0.27693886429488496" height="0.27693886429488496"/>
<text class="edge_text" text-anchor="middle" dominant-baseline="middle" transform="matrix(0.013846943214744247 0 0 0.013846943214744247 3.0885142711786995 -1.9349203215379003)">13</text>
<rect class="edge_bg" x="3.2034498893904577" y="-1.413249160968743" width="0.27693886429488496" height="0.27693886429488496"/>
<text class="edge_text" text-anchor="middle" dominant-baseline="middle" transform="matrix(0.013846943214744247 0 0 0.013846943214744247 3.3419193215379 -1.2747797288213005)">15</text>
<rect class="edge_bg" x="2.7967128893904576" y="-0.499703160968743" width="0.27693886429488496" height="0.27693886429488496"/>
<text class="edge_text" text-anchor="middle" dominant-baseline="middle" transform="matrix(0.013846943214744247 0 0 0.013846943214744247 2.9351823215379 -0.36123372882130056)">12</text>
<rect class="edge_bg" x="2.3899768893904576" y="0.41384183903125704" width="0.27693886429488496" height="0.27693886429488496"/>
<text class="edge_text" text-anchor="middle" dominant-baseline="middle" transform="matrix(0.013846943214744247 0 0 0.013846943214744247 2.5284463215379 0.5523112711786995)">9</text>
<rect class="edge_bg" x="1.983239889390458" y="1.327387839031257" width="0.27693886429488496" height="0.27693886429488496"/>
<text class="edge_text" text-anchor="middle" dominant-baseline="middle" transform="matrix(0.013846943214744247 0 0 0.013846943214744247 2.1217093215379004 1.4658572711786995)">6</text>
<rect class="edge_bg" x="1.5765028893904576" y="2.240932839031257" width="0.27693886429488496" height="0.27693886429488496"/>
<text class="edge_text" text-anchor="middle" dominant-baseline="middle" transform="matrix(0.013846943214744247 0 0 0.013846943214744247 1.7149723215379 2.3794022711786993)">3</text>
<rect class="edge_bg" x="0.9163624257960152" y="2.494337323037106" width="0.27693886429488496" height="0.27693886429488496"/>
<text class="edge_text" text-anchor="middle" dominant-baseline="middle" transform="matrix(0.013846943214744247 0 0 0.013846943214744247 1.0548318579434577 2.6328067551845487)">1</text>
<rect class="edge_bg" x="0.419100750058361" y="2.546602070665084" width="0.27693886429488496" height="0.27693886429488496"/>
<text class="edge_text" text-anchor="middle" dominant-baseline="middle" transform="matrix(0.013846943214744247 0 0 0.013846943214744247 0.5575701822058035 2.6850715028125265)">28</text>
<rect class="edge_bg" x="-0.35031990970416993" y="2.2966019357013345" width="0.27693886429488496" height="0.27693886429488496"/>
<text class="edge_text" text-anchor="middle" dominant-baseline="middle" transform="matrix(0.013846943214744247 0 0 0.013846943214744247 -0.21185047755672748 2.435071367848777)">31</text>
<rect class="edge_bg" x="-0.7218920955463094" y="1.9620365140006357" width="0.27693886429488496" height="0.27693886429488496"/>
<text class="edge_text" text-anchor="middle" dominant-baseline="middle" transform="matrix(0.013846943214744247 0 0 0.013846943214744247 -0.583422663398867 2.100505946148078)">41</text>
<rect class="edge_bg" x="-1.0509489994448489" y="1.2229625678525577" width="0.27693886429488496" height="0.27693886429488496"/>
<text class="edge_text" text-anchor="middle" dominant-baseline="middle" transform="matrix(0.013846943214744247 0 0 0.013846943214744247 -0.9124795672974064 1.3614320000000002)">40</text>
</svg>
