<?xml version="1.0" encoding="utf-8"?>
<svg version="1.1" xmlns="http://www.w3.org/2000/svg" viewBox="-1.604175731058431 -3.5563750045828266 5.682290299540605 7.82463022457334" style="enable-background:new -1.604175731058431 -3.5563750045828266 5.682290299540605 7.82463022457334;">
<style type="text/css">
  .face_stroke {fill:none; stroke:#000000; stroke-width:0.02; stroke-miterlimit:10;}
  .face_text {fill:#000000; font-family:monospace;}
  .edge_text {fill:#ff0000; font-family:monospace;}
  .edge_bg {fill:#f3f3f3; stroke:#606060; stroke-width:0.01;}
</style>
<polygon class="face_stroke" points="0.6881909602355868,-0.5 -0.26286555605956674,-0.8090169943749475 -0.8506508083520399,-1.0417467896404342e-16 -0.2628655560595669,0.8090169943749473 0.6881909602355867,0.5000000000000001"/>
<polygon class="face_stroke" points="0.6881908654051868,0.4999999999999999 1.554216269189626,1.414100318299876e-16 0.6881908654051876,-0.5000000000000003"/>
<polygon class="face_stroke" points="1.5542162217744258,-1.457811755756211e-07 2.29736104725182,-0.6691307521400337 1.89062440417602,-1.5826762097826346 0.8961025088077466,-1.478147746514981 0.688190817989987,-0.5000001457811758"/>
<polygon class="face_stroke" points="1.8906247158869154,-1.582676489630902 1.3028394635944425,-2.3916934840058497 0.8961028205186421,-1.4781480263632485"/>
<polygon class="face_stroke" points="1.8906244439404334,-1.5826760056250526 2.841680960235587,-1.891693 2.841680960235587,-2.891693 1.8906244439404334,-3.2007099943749475 1.3028391916479602,-2.391693"/>
<polygon class="face_stroke" points="1.8906242194091507,-1.5826758706613038 2.6337690448865447,-0.9135452643024454 2.841680735704305,-1.891692865036251"/>
<polygon class="face_stroke" points="2.6337693542242175,-0.9135450450419766 3.6119169549580232,-0.7056333542242172 3.819828645775783,-1.6837809549580227 2.8416810450419776,-1.8916926457757826"/>
<polygon class="face_stroke" points="2.6337690450419764,-0.9135456457757826 2.425857354224217,0.06460195495802318 3.404004954958023,0.27251364577578263 3.6119166457757825,-0.7056339549580228"/>
<polygon class="face_stroke" points="2.425858045041977,0.06460235422421745 2.2179463542242175,1.0427499549580233 3.196093954958023,1.2506616457757826 3.404005645775783,0.2725140450419771"/>
<polygon class="face_stroke" points="2.217946045041977,1.0427493542242177 2.010034354224217,2.0208969549580234 2.988181954958023,2.228808645775783 3.1960936457757825,1.2506610450419773"/>
<polygon class="face_stroke" points="2.0100340450419765,2.0208973542242172 1.8021223542242173,2.999044954958023 2.780269954958023,3.2069566457757825 2.9881816457757826,2.228809045041977"/>
<polygon class="face_stroke" points="2.0100347357043042,2.0208971349637492 1.0589782194091506,2.3299141293386967 1.8021230448865448,2.999044735697555"/>
<polygon class="face_stroke" points="1.058978221774426,2.3299141457811756 0.19295281798998742,2.8299141457811756 0.4008645088077464,3.808061746514981 1.39538640417602,3.9125902097826346 1.8021230472518202,2.9990447521400347"/>
<polygon class="face_stroke" points="1.058978269189626,2.329914 0.1929528654051872,1.829914 0.1929528654051868,2.829914"/>
<polygon class="face_stroke" points="0.1929519602355868,1.829914 -0.7581045560595667,1.5208970056250526 -1.3458898083520399,2.329914 -0.758104556059567,3.1389309943749475 0.1929519602355867,2.829914"/>
<polygon class="face_stroke" points="0.19295273570430438,1.8299138650362512 -0.014958955113454991,0.8517662643024454 -0.7581037805908493,1.5208968706613035"/>
<text class="face_text" text-anchor="middle" dominant-baseline="middle" transform="matrix(0.011364580599081209 0 0 0.011364580599081209 0.0 0.0)">0</text>
<text class="face_text" text-anchor="middle" dominant-baseline="middle" transform="matrix(0.011364580599081209 0 0 0.011364580599081209 0.976866 0.0)">4</text>
<text class="face_text" text-anchor="middle" dominant-baseline="middle" transform="matrix(0.011364580599081209 0 0 0.011364580599081209 1.465299 -0.845991)">6</text>
<text class="face_text" text-anchor="middle" dominant-baseline="middle" transform="matrix(0.011364580599081209 0 0 0.011364580599081209 1.363189 -1.817506)">22</text>
<text class="face_text" text-anchor="middle" dominant-baseline="middle" transform="matrix(0.011364580599081209 0 0 0.011364580599081209 2.15349 -2.391693)">10</text>
<text class="face_text" text-anchor="middle" dominant-baseline="middle" transform="matrix(0.011364580599081209 0 0 0.011364580599081209 2.455358 -1.462638)">8</text>
<text class="face_text" text-anchor="middle" dominant-baseline="middle" transform="matrix(0.011364580599081209 0 0 0.011364580599081209 3.226799 -1.298663)">9</text>
<text class="face_text" text-anchor="middle" dominant-baseline="middle" transform="matrix(0.011364580599081209 0 0 0.011364580599081209 3.018887 -0.320516)">7</text>
<text class="face_text" text-anchor="middle" dominant-baseline="middle" transform="matrix(0.011364580599081209 0 0 0.011364580599081209 2.810976 0.657632)">5</text>
<text class="face_text" text-anchor="middle" dominant-baseline="middle" transform="matrix(0.011364580599081209 0 0 0.011364580599081209 2.603064 1.635779)">3</text>
<text class="face_text" text-anchor="middle" dominant-baseline="middle" transform="matrix(0.011364580599081209 0 0 0.011364580599081209 2.395152 2.613927)">2</text>
<text class="face_text" text-anchor="middle" dominant-baseline="middle" transform="matrix(0.011364580599081209 0 0 0.011364580599081209 1.623712 2.449952)">1</text>
<text class="face_text" text-anchor="middle" dominant-baseline="middle" transform="matrix(0.011364580599081209 0 0 0.011364580599081209 0.970061 3.175905)">18</text>
<text class="face_text" text-anchor="middle" dominant-baseline="middle" transform="matrix(0.011364580599081209 0 0 0.011364580599081209 0.481628 2.329914)">20</text>
<text class="face_text" text-anchor="middle" dominant-baseline="middle" transform="matrix(0.011364580599081209 0 0 0.011364580599081209 -0.495239 2.329914)">25</text>
<text class="face_text" text-anchor="middle" dominant-baseline="middle" transform="matrix(0.011364580599081209 0 0 0.011364580599081209 -0.19337 1.400859)">21</text>
<rect class="edge_bg" x="0.574545059414375" y="-0.11364580599081214" width="0.2272916119816242" height="0.2272916119816242"/>
<text class="edge_text" text-anchor="middle" dominant-baseline="middle" transform="matrix(0.011364580599081209 0 0 0.011364580599081209 0.688190865405187 -3.535250795749691e-17)">5</text>
<rect class="edge_bg" x="1.0075577138913945" y="-0.36364595177198744" width="0.2272916119816242" height="0.2272916119816242"/>
<text class="edge_text" text-anchor="middle" dominant-baseline="middle" transform="matrix(0.011364580599081209 0 0 0.011364580599081209 1.1212035198822066 -0.25000014578117535)">8</text>
<rect class="edge_bg" x="1.2797179622119668" y="-1.6440580639878875" width="0.2272916119816242" height="0.2272916119816242"/>
<text class="edge_text" text-anchor="middle" dominant-baseline="middle" transform="matrix(0.011364580599081209 0 0 0.011364580599081209 1.3933637682027789 -1.5304122579970754)">34</text>
<rect class="edge_bg" x="1.4830860118033848" y="-2.1008303088033387" width="0.2272916119816242" height="0.2272916119816242"/>
<text class="edge_text" text-anchor="middle" dominant-baseline="middle" transform="matrix(0.011364580599081209 0 0 0.011364580599081209 1.596731817794197 -1.9871845028125263)">35</text>
<rect class="edge_bg" x="2.252506671565915" y="-1.8508301738395896" width="0.2272916119816242" height="0.2272916119816242"/>
<text class="edge_text" text-anchor="middle" dominant-baseline="middle" transform="matrix(0.011364580599081209 0 0 0.011364580599081209 2.3661524775567275 -1.7371843678487775)">14</text>
<rect class="edge_bg" x="2.624079393642285" y="-1.5162646513996916" width="0.2272916119816242" height="0.2272916119816242"/>
<text class="edge_text" text-anchor="middle" dominant-baseline="middle" transform="matrix(0.011364580599081209 0 0 0.011364580599081209 2.7377251996330974 -1.4026188454088795)">10</text>
<rect class="edge_bg" x="3.0091970394180674" y="-0.923235606357715" width="0.2272916119816242" height="0.2272916119816242"/>
<text class="edge_text" text-anchor="middle" dominant-baseline="middle" transform="matrix(0.011364580599081209 0 0 0.011364580599081209 3.1228428454088797 -0.8095898003669029)">12</text>
<rect class="edge_bg" x="2.8012860394180676" y="0.05491239364228499" width="0.2272916119816242" height="0.2272916119816242"/>
<text class="edge_text" text-anchor="middle" dominant-baseline="middle" transform="matrix(0.011364580599081209 0 0 0.011364580599081209 2.91493184540888 0.1685581996330971)">9</text>
<rect class="edge_bg" x="2.5933740394180673" y="1.0330593936422852" width="0.2272916119816242" height="0.2272916119816242"/>
<text class="edge_text" text-anchor="middle" dominant-baseline="middle" transform="matrix(0.011364580599081209 0 0 0.011364580599081209 2.7070198454088796 1.1467051996330972)">6</text>
<rect class="edge_bg" x="2.3854620394180674" y="2.0112073936422847" width="0.2272916119816242" height="0.2272916119816242"/>
<text class="edge_text" text-anchor="middle" dominant-baseline="middle" transform="matrix(0.011364580599081209 0 0 0.011364580599081209 2.4991078454088798 2.124853199633097)">3</text>
<rect class="edge_bg" x="1.7924330843046128" y="2.3963251293398398" width="0.2272916119816242" height="0.2272916119816242"/>
<text class="edge_text" text-anchor="middle" dominant-baseline="middle" transform="matrix(0.011364580599081209 0 0 0.011364580599081209 1.9060788902954249 2.509970935330652)">1</text>
<rect class="edge_bg" x="1.316904828522311" y="2.5508336429697924" width="0.2272916119816242" height="0.2272916119816242"/>
<text class="edge_text" text-anchor="middle" dominant-baseline="middle" transform="matrix(0.011364580599081209 0 0 0.011364580599081209 1.4305506345131231 2.6644794489606047)">28</text>
<rect class="edge_bg" x="0.5123197613065944" y="2.4662681940091877" width="0.2272916119816242" height="0.2272916119816242"/>
<text class="edge_text" text-anchor="middle" dominant-baseline="middle" transform="matrix(0.011364580599081209 0 0 0.011364580599081209 0.6259655672974065 2.579914)">31</text>
<rect class="edge_bg" x="0.0793061542447747" y="2.2162681940091877" width="0.2272916119816242" height="0.2272916119816242"/>
<text class="edge_text" text-anchor="middle" dominant-baseline="middle" transform="matrix(0.011364580599081209 0 0 0.011364580599081209 0.1929519602355868 2.329914)">41</text>
<rect class="edge_bg" x="-0.39622132843408453" y="1.5617595618579654" width="0.2272916119816242" height="0.2272916119816242"/>
<text class="edge_text" text-anchor="middle" dominant-baseline="middle" transform="matrix(0.011364580599081209 0 0 0.011364580599081209 -0.28257552244327244 1.6754053678487775)">40</text>
</svg>
