<?xml version="1.0" encoding="utf-8"?>
<svg version="1.1" xmlns="http://www.w3.org/2000/svg" viewBox="-1.0080514011322328 -3.2543158966485133 3.462813041164246 4.256824933453149" style="enable-background:new -1.0080514011322328 -3.2543158966485133 3.462813041164246 4.256824933453149;">
<style type="text/css">
  .face_stroke {fill:none; stroke:#000000; stroke-width:0.02; stroke-miterlimit:10;}
  .face_text {fill:#000000; font-family:monospace;}
  .edge_text {fill:#ff0000; font-family:monospace;}
  .edge_bg {fill:#f3f3f3; stroke:#606060; stroke-width:0.01;}
</style>
<polygon class="face_stroke" points="0.6881909602355868,-0.5 -0.26286555605956674,-0.8090169943749475 -0.8506508083520399,-1.0417467896404342e-16 -0.2628655560595669,0.8090169943749473 0.6881909602355867,0.5000000000000001"/>
<polygon class="face_stroke" points="0.6881908654051868,0.4999999999999999 1.554216269189626,1.414100318299876e-16 0.6881908654051876,-0.5000000000000003"/>
<polygon class="face_stroke" points="1.5542162217744258,-1.457811755756211e-07 2.29736104725182,-0.6691307521400337 1.89062440417602,-1.5826762097826346 0.8961025088077466,-1.478147746514981 0.688190817989987,-0.5000001457811758"/>
<polygon class="face_stroke" points="1.8906247158869154,-1.582676489630902 1.3028394635944425,-2.3916934840058497 0.8961028205186421,-1.4781480263632485"/>
<polygon class="face_stroke" points="1.3028390472518203,-2.3916932478599664 0.559694221774426,-3.0608238542188246 -0.3063311820100125,-2.5608238542188246 -0.09841949119225357,-1.5826762534850194 0.89610240417602,-1.4781477902173656"/>
<polygon class="face_stroke" points="-0.09841917948135787,-1.5826759736367515 0.30831746359444245,-0.6691305159941504 0.8961027158869157,-1.4781475103690975"/>
<text class="face_text" text-anchor="middle" dominant-baseline="middle" transform="matrix(0.006925626082328492 0 0 0.006925626082328492 0.0 0.0)">0</text>
<text class="face_text" text-anchor="middle" dominant-baseline="middle" transform="matrix(0.006925626082328492 0 0 0.006925626082328492 0.976866 0.0)">4</text>
<text class="face_text" text-anchor="middle" dominant-baseline="middle" transform="matrix(0.006925626082328492 0 0 0.006925626082328492 1.465299 -0.845991)">6</text>
<text class="face_text" text-anchor="middle" dominant-baseline="middle" transform="matrix(0.006925626082328492 0 0 0.006925626082328492 1.363189 -1.817506)">22</text>
<text class="face_text" text-anchor="middle" dominant-baseline="middle" transform="matrix(0.006925626082328492 0 0 0.006925626082328492 0.470777 -2.214833)">25</text>
<text class="face_text" text-anchor="middle" dominant-baseline="middle" transform="matrix(0.006925626082328492 0 0 0.006925626082328492 0.368667 -1.243318)">21</text>
<rect class="edge_bg" x="0.6189346045819021" y="-0.06925626082328497" width="0.13851252164656985" height="0.13851252164656985"/>
<text class="edge_text" text-anchor="middle" dominant-baseline="middle" transform="matrix(0.006925626082328492 0 0 0.006925626082328492 0.688190865405187 -3.535250795749691e-17)">5</text>
<rect class="edge_bg" x="1.0519472590589216" y="-0.3192564066044603" width="0.13851252164656985" height="0.13851252164656985"/>
<text class="edge_text" text-anchor="middle" dominant-baseline="middle" transform="matrix(0.006925626082328492 0 0 0.006925626082328492 1.1212035198822066 -0.25000014578117535)">8</text>
<rect class="edge_bg" x="1.324107507379494" y="-1.5996685188203603" width="0.13851252164656985" height="0.13851252164656985"/>
<text class="edge_text" text-anchor="middle" dominant-baseline="middle" transform="matrix(0.006925626082328492 0 0 0.006925626082328492 1.3933637682027789 -1.5304122579970754)">34</text>
<rect class="edge_bg" x="1.030214464890635" y="-2.0041767798619508" width="0.13851252164656985" height="0.13851252164656985"/>
<text class="edge_text" text-anchor="middle" dominant-baseline="middle" transform="matrix(0.006925626082328492 0 0 0.006925626082328492 1.09947072571392 -1.934920519038666)">42</text>
<rect class="edge_bg" x="0.3295855073794939" y="-1.5996680028262098" width="0.13851252164656985" height="0.13851252164656985"/>
<text class="edge_text" text-anchor="middle" dominant-baseline="middle" transform="matrix(0.006925626082328492 0 0 0.006925626082328492 0.39884176820277883 -1.5304117420029248)">40</text>
</svg>
