<?xml version="1.0" encoding="utf-8"?>
<svg version="1.1" xmlns="http://www.w3.org/2000/svg" viewBox="-3.0791148434731044 -1.2046183580385188 5.632498552188016 3.8068612616294537" style="enable-background:new -3.0791148434731044 -1.2046183580385188 5.632498552188016 3.8068612616294537;">
<style type="text/css">
  .face_stroke {fill:none; stroke:#000000; stroke-width:0.02; stroke-miterlimit:10;}
  .face_text {fill:#000000; font-family:monospace;}
  .edge_text {fill:#ff0000; font-family:monospace;}
  .edge_bg {fill:#f3f3f3; stroke:#606060; stroke-width:0.01;}
</style>
<polygon class="face_stroke" points="0.6881909602355868,-0.5 -0.26286555605956674,-0.8090169943749475 -0.8506508083520399,-1.0417467896404342e-16 -0.2628655560595669,0.8090169943749473 0.6881909602355867,0.5000000000000001"/>
<polygon class="face_stroke" points="0.6881908654051868,0.4999999999999999 1.554216269189626,1.414100318299876e-16 0.6881908654051876,-0.5000000000000003"/>
<polygon class="face_stroke" points="0.6881908179899874,0.5000001457811754 0.8961025088077463,1.4781477465149808 1.89062440417602,1.5826762097826346 2.29736104725182,0.6691307521400344 1.5542162217744258,1.457811755756211e-07"/>
<polygon class="face_stroke" points="0.688191044886545,0.5000002643024454 -0.05495378059084932,1.1691308706613035 0.8961027357043041,1.4781478650362514"/>
<polygon class="face_stroke" points="-0.054953760960103015,1.1691302446649494 -0.36397075533505074,2.120186760960103 0.587085760960103,2.4292037553350507 0.8961027553350503,1.4781472390398964"/>
<polygon class="face_stroke" points="-0.05495424466494947,1.169130239039897 -1.006010760960103,0.8601132446649495 -1.3150277553350507,1.8111697609601027 -0.36397123903989703,2.120186755335051"/>
<polygon class="face_stroke" points="-1.0060102446649495,0.8601132390398969 -1.9570667609601031,0.5510962446649494 -2.2660837553350506,1.5021527609601026 -1.315027239039897,1.8111697553350505"/>
<polygon class="face_stroke" points="-1.0060102642956956,0.8601138650362511 -1.213921955113455,-0.11803373569755465 -1.9570667805908495,0.5510968706613035"/>
<polygon class="face_stroke" points="-1.2139219527481795,-0.11803375214003364 -1.6206585958239796,-1.0315792097826344 -2.615180491192253,-0.927050746514981 -2.8230921820100128,0.05109685421882426 -1.9570667782255744,0.5510968542188246"/>
<polygon class="face_stroke" points="-1.2139225364055575,-0.11803351599415046 -0.6261372841130844,-0.927050510369098 -1.6206591794813578,-1.0315789736367516"/>
<text class="face_text" text-anchor="middle" dominant-baseline="middle" transform="matrix(0.007613722523258907 0 0 0.007613722523258907 0.0 0.0)">0</text>
<text class="face_text" text-anchor="middle" dominant-baseline="middle" transform="matrix(0.007613722523258907 0 0 0.007613722523258907 0.976866 0.0)">21</text>
<text class="face_text" text-anchor="middle" dominant-baseline="middle" transform="matrix(0.007613722523258907 0 0 0.007613722523258907 1.465299 0.845991)">6</text>
<text class="face_text" text-anchor="middle" dominant-baseline="middle" transform="matrix(0.007613722523258907 0 0 0.007613722523258907 0.50978 1.049093)">4</text>
<text class="face_text" text-anchor="middle" dominant-baseline="middle" transform="matrix(0.007613722523258907 0 0 0.007613722523258907 0.266066 1.799167)">5</text>
<text class="face_text" text-anchor="middle" dominant-baseline="middle" transform="matrix(0.007613722523258907 0 0 0.007613722523258907 -0.684991 1.49015)">3</text>
<text class="face_text" text-anchor="middle" dominant-baseline="middle" transform="matrix(0.007613722523258907 0 0 0.007613722523258907 -1.636047 1.181133)">2</text>
<text class="face_text" text-anchor="middle" dominant-baseline="middle" transform="matrix(0.007613722523258907 0 0 0.007613722523258907 -1.392333 0.431059)">1</text>
<text class="face_text" text-anchor="middle" dominant-baseline="middle" transform="matrix(0.007613722523258907 0 0 0.007613722523258907 -2.045984 -0.294894)">18</text>
<text class="face_text" text-anchor="middle" dominant-baseline="middle" transform="matrix(0.007613722523258907 0 0 0.007613722523258907 -1.153573 -0.692221)">20</text>
<rect class="edge_bg" x="0.612053640172598" y="-0.07613722523258912" width="0.15227445046517815" height="0.15227445046517815"/>
<text class="edge_text" text-anchor="middle" dominant-baseline="middle" transform="matrix(0.007613722523258907 0 0 0.007613722523258907 0.688190865405187 -3.535250795749691e-17)">32</text>
<rect class="edge_bg" x="1.0450662946496174" y="0.17386292054858626" width="0.15227445046517815" height="0.15227445046517815"/>
<text class="edge_text" text-anchor="middle" dominant-baseline="middle" transform="matrix(0.007613722523258907 0 0 0.007613722523258907 1.1212035198822066 0.25000014578117535)">33</text>
<rect class="edge_bg" x="0.7160096650628357" y="0.9129368394367592" width="0.15227445046517815" height="0.15227445046517815"/>
<text class="edge_text" text-anchor="middle" dominant-baseline="middle" transform="matrix(0.007613722523258907 0 0 0.007613722523258907 0.7921468902954247 0.9890740646693482)">8</text>
<rect class="edge_bg" x="0.34443727195488466" y="1.247501516619834" width="0.15227445046517815" height="0.15227445046517815"/>
<text class="edge_text" text-anchor="middle" dominant-baseline="middle" transform="matrix(0.007613722523258907 0 0 0.007613722523258907 0.42057449718747375 1.3236387418524231)">4</text>
<rect class="edge_bg" x="-0.28559996708501223" y="1.5685212719548847" width="0.15227445046517815" height="0.15227445046517815"/>
<text class="edge_text" text-anchor="middle" dominant-baseline="middle" transform="matrix(0.007613722523258907 0 0 0.007613722523258907 -0.20946274185242314 1.6446584971874738)">6</text>
<rect class="edge_bg" x="-1.2366559670850124" y="1.2595042719548846" width="0.15227445046517815" height="0.15227445046517815"/>
<text class="edge_text" text-anchor="middle" dominant-baseline="middle" transform="matrix(0.007613722523258907 0 0 0.007613722523258907 -1.1605187418524232 1.3356414971874737)">3</text>
<rect class="edge_bg" x="-1.5576757476758616" y="0.6294681426161884" width="0.15227445046517815" height="0.15227445046517815"/>
<text class="edge_text" text-anchor="middle" dominant-baseline="middle" transform="matrix(0.007613722523258907 0 0 0.007613722523258907 -1.4815385224432724 0.7056053678487775)">1</text>
<rect class="edge_bg" x="-1.6616315907194659" y="0.14039432580680639" width="0.15227445046517815" height="0.15227445046517815"/>
<text class="edge_text" text-anchor="middle" dominant-baseline="middle" transform="matrix(0.007613722523258907 0 0 0.007613722523258907 -1.5854943654868767 0.21653155103939548)">28</text>
<rect class="edge_bg" x="-1.493428083176047" y="-0.6509434700480399" width="0.15227445046517815" height="0.15227445046517815"/>
<text class="edge_text" text-anchor="middle" dominant-baseline="middle" transform="matrix(0.007613722523258907 0 0 0.007613722523258907 -1.4172908579434578 -0.5748062448154508)">31</text>
</svg>
