<?xml version="1.0" encoding="utf-8"?>
<svg version="1.1" xmlns="http://www.w3.org/2000/svg" viewBox="-3.0791148434731044 -2.903553831860447 5.632498552188016 5.586698424680997" style="enable-background:new -3.0791148434731044 -2.903553831860447 5.632498552188016 5.586698424680997;">
<style type="text/css">
  .face_stroke {fill:none; stroke:#000000; stroke-width:0.02; stroke-miterlimit:10;}
  .face_text {fill:#000000; font-family:monospace;}
  .edge_text {fill:#ff0000; font-family:monospace;}
  .edge_bg {fill:#f3f3f3; stroke:#606060; stroke-width:0.01;}
</style>
<polygon class="face_stroke" points="0.6881909602355868,-0.5 -0.26286555605956674,-0.8090169943749475 -0.8506508083520399,-1.0417467896404342e-16 -0.2628655560595669,0.8090169943749473 0.6881909602355867,0.5000000000000001"/>
<polygon class="face_stroke" points="0.6881908654051868,0.4999999999999999 1.554216269189626,1.414100318299876e-16 0.6881908654051876,-0.5000000000000003"/>
<polygon class="face_stroke" points="0.6881908179899874,0.5000001457811754 0.8961025088077463,1.4781477465149808 1.89062440417602,1.5826762097826346 2.29736104725182,0.6691307521400344 1.5542162217744258,1.457811755756211e-07"/>
<polygon class="face_stroke" points="0.688191044886545,0.5000002643024454 -0.05495378059084932,1.1691308706613035 0.8961027357043041,1.4781478650362514"/>
<polygon class="face_stroke" points="-0.054953760960103015,1.1691302446649494 -0.36397075533505074,2.120186760960103 0.587085760960103,2.4292037553350507 0.8961027553350503,1.4781472390398964"/>
<polygon class="face_stroke" points="-0.05495424466494947,1.169130239039897 -1.006010760960103,0.8601132446649495 -1.3150277553350507,1.8111697609601027 -0.36397123903989703,2.120186755335051"/>
<polygon class="face_stroke" points="-1.0060102446649495,0.8601132390398969 -1.9570667609601031,0.5510962446649494 -2.2660837553350506,1.5021527609601026 -1.315027239039897,1.8111697553350505"/>
<polygon class="face_stroke" points="-1.0060102642956956,0.8601138650362511 -1.213921955113455,-0.11803373569755465 -1.9570667805908495,0.5510968706613035"/>
<polygon class="face_stroke" points="-1.2139219527481795,-0.11803375214003364 -1.6206585958239796,-1.0315792097826344 -2.615180491192253,-0.927050746514981 -2.8230921820100128,0.05109685421882426 -1.9570667782255744,0.5510968542188246"/>
<polygon class="face_stroke" points="-1.6206582841130843,-1.0315794896309018 -2.2084435364055577,-1.8405964840058493 -2.615180179481358,-0.9270510263632484"/>
<polygon class="face_stroke" points="-1.6206585560595668,-1.0315790056250524 -0.6696020397644132,-1.340596 -0.6696020397644132,-2.3405959999999997 -1.6206585560595668,-2.649612994374947 -2.20844380835204,-1.840596"/>
<polygon class="face_stroke" points="-1.6206587805908494,-1.0315798706613035 -0.8775139551134551,-0.3624492643024453 -0.6696022642956952,-1.3405968650362508"/>
<text class="face_text" text-anchor="middle" dominant-baseline="middle" transform="matrix(0.011173396849361994 0 0 0.011173396849361994 0.0 0.0)">0</text>
<text class="face_text" text-anchor="middle" dominant-baseline="middle" transform="matrix(0.011173396849361994 0 0 0.011173396849361994 0.976866 0.0)">21</text>
<text class="face_text" text-anchor="middle" dominant-baseline="middle" transform="matrix(0.011173396849361994 0 0 0.011173396849361994 1.465299 0.845991)">6</text>
<text class="face_text" text-anchor="middle" dominant-baseline="middle" transform="matrix(0.011173396849361994 0 0 0.011173396849361994 0.50978 1.049093)">4</text>
<text class="face_text" text-anchor="middle" dominant-baseline="middle" transform="matrix(0.011173396849361994 0 0 0.011173396849361994 0.266066 1.799167)">5</text>
<text class="face_text" text-anchor="middle" dominant-baseline="middle" transform="matrix(0.011173396849361994 0 0 0.011173396849361994 -0.684991 1.49015)">3</text>
<text class="face_text" text-anchor="middle" dominant-baseline="middle" transform="matrix(0.011173396849361994 0 0 0.011173396849361994 -1.636047 1.181133)">2</text>
<text class="face_text" text-anchor="middle" dominant-baseline="middle" transform="matrix(0.011173396849361994 0 0 0.011173396849361994 -1.392333 0.431059)">1</text>
<text class="face_text" text-anchor="middle" dominant-baseline="middle" transform="matrix(0.011173396849361994 0 0 0.011173396849361994 -2.045984 -0.294894)">18</text>
<text class="face_text" text-anchor="middle" dominant-baseline="middle" transform="matrix(0.011173396849361994 0 0 0.011173396849361994 -2.148094 -1.266409)">24</text>
<text class="face_text" text-anchor="middle" dominant-baseline="middle" transform="matrix(0.011173396849361994 0 0 0.011173396849361994 -1.357793 -1.840596)">25</text>
<text class="face_text" text-anchor="middle" dominant-baseline="middle" transform="matrix(0.011173396849361994 0 0 0.011173396849361994 -1.055925 -0.911542)">20</text>
<rect class="edge_bg" x="0.5764568969115671" y="-0.11173396849361998" width="0.22346793698723988" height="0.22346793698723988"/>
<text class="edge_text" text-anchor="middle" dominant-baseline="middle" transform="matrix(0.011173396849361994 0 0 0.011173396849361994 0.688190865405187 -3.535250795749691e-17)">32</text>
<rect class="edge_bg" x="1.0094695513885865" y="0.13826617728755541" width="0.22346793698723988" height="0.22346793698723988"/>
<text class="edge_text" text-anchor="middle" dominant-baseline="middle" transform="matrix(0.011173396849361994 0 0 0.011173396849361994 1.1212035198822066 0.25000014578117535)">33</text>
<rect class="edge_bg" x="0.6804129218018048" y="0.8773400961757283" width="0.22346793698723988" height="0.22346793698723988"/>
<text class="edge_text" text-anchor="middle" dominant-baseline="middle" transform="matrix(0.011173396849361994 0 0 0.011173396849361994 0.7921468902954247 0.9890740646693482)">8</text>
<rect class="edge_bg" x="0.3088405286938538" y="1.2119047733588033" width="0.22346793698723988" height="0.22346793698723988"/>
<text class="edge_text" text-anchor="middle" dominant-baseline="middle" transform="matrix(0.011173396849361994 0 0 0.011173396849361994 0.42057449718747375 1.3236387418524231)">4</text>
<rect class="edge_bg" x="-0.3211967103460431" y="1.532924528693854" width="0.22346793698723988" height="0.22346793698723988"/>
<text class="edge_text" text-anchor="middle" dominant-baseline="middle" transform="matrix(0.011173396849361994 0 0 0.011173396849361994 -0.20946274185242314 1.6446584971874738)">6</text>
<rect class="edge_bg" x="-1.2722527103460433" y="1.2239075286938537" width="0.22346793698723988" height="0.22346793698723988"/>
<text class="edge_text" text-anchor="middle" dominant-baseline="middle" transform="matrix(0.011173396849361994 0 0 0.011173396849361994 -1.1605187418524232 1.3356414971874737)">3</text>
<rect class="edge_bg" x="-1.5932724909368923" y="0.5938713993551575" width="0.22346793698723988" height="0.22346793698723988"/>
<text class="edge_text" text-anchor="middle" dominant-baseline="middle" transform="matrix(0.011173396849361994 0 0 0.011173396849361994 -1.4815385224432724 0.7056053678487775)">1</text>
<rect class="edge_bg" x="-1.6972283339804966" y="0.10479758254577554" width="0.22346793698723988" height="0.22346793698723988"/>
<text class="edge_text" text-anchor="middle" dominant-baseline="middle" transform="matrix(0.011173396849361994 0 0 0.011173396849361994 -1.5854943654868767 0.21653155103939548)">28</text>
<rect class="edge_bg" x="-2.229653200290841" y="-1.091049226490695" width="0.22346793698723988" height="0.22346793698723988"/>
<text class="edge_text" text-anchor="middle" dominant-baseline="middle" transform="matrix(0.011173396849361994 0 0 0.011173396849361994 -2.117919231797221 -0.9793152579970751)">39</text>
<rect class="edge_bg" x="-2.0262851506994233" y="-1.547821471306146" width="0.22346793698723988" height="0.22346793698723988"/>
<text class="edge_text" text-anchor="middle" dominant-baseline="middle" transform="matrix(0.011173396849361994 0 0 0.011173396849361994 -1.9145511822058032 -1.4360875028125262)">44</text>
<rect class="edge_bg" x="-1.2568644909368922" y="-1.2978223363423975" width="0.22346793698723988" height="0.22346793698723988"/>
<text class="edge_text" text-anchor="middle" dominant-baseline="middle" transform="matrix(0.011173396849361994 0 0 0.011173396849361994 -1.1451305224432724 -1.1860883678487775)">41</text>
</svg>
