<?xml version="1.0" encoding="utf-8"?>
<svg version="1.1" xmlns="http://www.w3.org/2000/svg" viewBox="-1.0080514011322328 -0.978327753059593 3.462813041164246 3.724836691062202" style="enable-background:new -1.0080514011322328 -0.978327753059593 3.462813041164246 3.724836691062202;">
<style type="text/css">
  .face_stroke {fill:none; stroke:#000000; stroke-width:0.02; stroke-miterlimit:10;}
  .face_text {fill:#000000; font-family:monospace;}
  .edge_text {fill:#ff0000; font-family:monospace;}
  .edge_bg {fill:#f3f3f3; stroke:#606060; stroke-width:0.01;}
</style>
<polygon class="face_stroke" points="0.6881909602355868,-0.5 -0.26286555605956674,-0.8090169943749475 -0.8506508083520399,-1.0417467896404342e-16 -0.2628655560595669,0.8090169943749473 0.6881909602355867,0.5000000000000001"/>
<polygon class="face_stroke" points="0.6881908654051868,0.4999999999999999 1.554216269189626,1.414100318299876e-16 0.6881908654051876,-0.5000000000000003"/>
<polygon class="face_stroke" points="0.6881908179899874,0.5000001457811754 0.8961025088077463,1.4781477465149808 1.89062440417602,1.5826762097826346 2.29736104725182,0.6691307521400344 1.5542162217744258,1.457811755756211e-07"/>
<polygon class="face_stroke" points="0.8961022839496902,1.4781478206820364 0.7915738206820366,2.4726697160503104 1.7860957160503101,2.5771981793179632 1.890624179317964,1.5826762839496906"/>
<polygon class="face_stroke" points="0.8961021793179634,1.47814728394969 -0.0984197160503098,1.3736188206820366 -0.20294817931796338,2.36814071605031 0.79157371605031,2.4726691793179634"/>
<polygon class="face_stroke" points="0.896102179481358,1.4781479736367515 0.48936553640555763,0.5646025159941505 -0.09841971588691562,1.3736195103690978"/>
<text class="face_text" text-anchor="middle" dominant-baseline="middle" transform="matrix(0.006925626082328492 0 0 0.006925626082328492 0.0 0.0)">0</text>
<text class="face_text" text-anchor="middle" dominant-baseline="middle" transform="matrix(0.006925626082328492 0 0 0.006925626082328492 0.976866 0.0)">21</text>
<text class="face_text" text-anchor="middle" dominant-baseline="middle" transform="matrix(0.006925626082328492 0 0 0.006925626082328492 1.465299 0.845991)">6</text>
<text class="face_text" text-anchor="middle" dominant-baseline="middle" transform="matrix(0.006925626082328492 0 0 0.006925626082328492 1.341099 2.027673)">7</text>
<text class="face_text" text-anchor="middle" dominant-baseline="middle" transform="matrix(0.006925626082328492 0 0 0.006925626082328492 0.346577 1.923144)">5</text>
<text class="face_text" text-anchor="middle" dominant-baseline="middle" transform="matrix(0.006925626082328492 0 0 0.006925626082328492 0.429016 1.13879)">4</text>
<rect class="edge_bg" x="0.6189346045819021" y="-0.06925626082328497" width="0.13851252164656985" height="0.13851252164656985"/>
<text class="edge_text" text-anchor="middle" dominant-baseline="middle" transform="matrix(0.006925626082328492 0 0 0.006925626082328492 0.688190865405187 -3.535250795749691e-17)">32</text>
<rect class="edge_bg" x="1.0519472590589216" y="0.18074388495789043" width="0.13851252164656985" height="0.13851252164656985"/>
<text class="edge_text" text-anchor="middle" dominant-baseline="middle" transform="matrix(0.006925626082328492 0 0 0.006925626082328492 1.1212035198822066 0.25000014578117535)">33</text>
<rect class="edge_bg" x="1.3241069708105417" y="1.4611557914925783" width="0.13851252164656985" height="0.13851252164656985"/>
<text class="edge_text" text-anchor="middle" dominant-baseline="middle" transform="matrix(0.006925626082328492 0 0 0.006925626082328492 1.3933632316338267 1.5304120523158633)">7</text>
<rect class="edge_bg" x="0.7745816868608518" y="1.9061519708105417" width="0.13851252164656985" height="0.13851252164656985"/>
<text class="edge_text" text-anchor="middle" dominant-baseline="middle" transform="matrix(0.006925626082328492 0 0 0.006925626082328492 0.8438379476841368 1.9754082316338266)">9</text>
<rect class="edge_bg" x="0.32958497097393624" y="1.3566274811796397" width="0.13851252164656985" height="0.13851252164656985"/>
<text class="edge_text" text-anchor="middle" dominant-baseline="middle" transform="matrix(0.006925626082328492 0 0 0.006925626082328492 0.3988412317972212 1.4258837420029247)">4</text>
</svg>
