<?xml version="1.0" encoding="utf-8"?>
<svg version="1.1" xmlns="http://www.w3.org/2000/svg" viewBox="-4.977132189122292 -1.8185699292376645 7.8387101564701585 5.189661828010658" style="enable-background:new -4.977132189122292 -1.8185699292376645 7.8387101564701585 5.189661828010658;">
<style type="text/css">
  .face_stroke {fill:none; stroke:#000000; stroke-width:0.02; stroke-miterlimit:10;}
  .face_text {fill:#000000; font-family:monospace;}
  .edge_text {fill:#ff0000; font-family:monospace;}
  .edge_bg {fill:#f3f3f3; stroke:#606060; stroke-width:0.01;}
</style>
<polygon class="face_stroke" points="0.6881909602355868,-0.5 -0.26286555605956674,-0.8090169943749475 -0.8506508083520399,-1.0417467896404342e-16 -0.2628655560595669,0.8090169943749473 0.6881909602355867,0.5000000000000001"/>
<polygon class="face_stroke" points="0.6881908654051868,0.4999999999999999 1.554216269189626,1.414100318299876e-16 0.6881908654051876,-0.5000000000000003"/>
<polygon class="face_stroke" points="1.5542162217744258,-1.457811755756211e-07 2.29736104725182,-0.6691307521400337 1.89062440417602,-1.5826762097826346 0.8961025088077466,-1.478147746514981 0.688190817989987,-0.5000001457811758"/>
<polygon class="face_stroke" points="1.5542162194091507,-1.2933869654452312e-07 2.505272735704304,0.30901686503625125 2.297361044886545,-0.6691307356975547"/>
<polygon class="face_stroke" points="1.5542164439404333,5.625052534874442e-09 0.9664311916479602,0.8090169999999999 1.5542164439404331,1.6180339943749473 2.5052729602355868,1.309017 2.5052729602355863,0.30901699999999965"/>
<polygon class="face_stroke" points="0.9664314635944424,0.8090165159941506 0.5596948205186421,1.7225619736367515 1.5542167158869153,1.6180335103690981"/>
<polygon class="face_stroke" points="0.5596948206820368,1.7225622839496897 0.6642232839496904,2.7170841793179634 1.6587451793179633,2.61255571605031 1.55421671605031,1.6180338206820362"/>
<polygon class="face_stroke" points="0.55969471605031,1.7225628206820367 -0.43482717931796333,1.82709128394969 -0.3302987160503097,2.8216131793179637 0.6642231793179632,2.7170847160503104"/>
<polygon class="face_stroke" points="-0.43482728394969006,1.8270908206820364 -1.4293491793179633,1.9316192839496897 -1.3248207160503096,2.9261411793179635 -0.33029882068203686,2.82161271605031"/>
<polygon class="face_stroke" points="-1.4293492839496902,1.9316198206820367 -2.4238711793179633,2.03614828394969 -2.3193427160503095,3.030670179317964 -1.3248208206820369,2.9261417160503105"/>
<polygon class="face_stroke" points="-2.42387128394969,2.0361478206820367 -3.418393179317963,2.1406762839496896 -3.3138647160503094,3.1351981793179635 -2.319342820682037,3.03066971605031"/>
<polygon class="face_stroke" points="-2.4238712841130843,2.036147510369098 -3.0116565364055576,1.2271305159941504 -3.418393179481358,2.1406759736367516"/>
<polygon class="face_stroke" points="-3.01165695274818,1.2271307521400336 -3.7548017782255743,0.5580001457811755 -4.620827182010013,1.0580001457811752 -4.412915491192254,2.0361477465149806 -3.41839359582398,2.1406762097826344"/>
<polygon class="face_stroke" points="-3.0116569551134553,1.2271307356975547 -2.8037452642956957,0.24898313496374896 -3.7548017805908493,0.5580001293386965"/>
<polygon class="face_stroke" points="-3.011656182010013,1.2271308542188244 -2.145630778225575,1.7271308542188246 -1.40248595274818,1.0580002478599668 -1.8092225958239805,0.1444547902173654 -2.803744491192254,0.24898325348501926"/>
<polygon class="face_stroke" points="-1.4024865364055574,1.0580004840058495 -0.8147012841130844,0.248983489630902 -1.8092231794813578,0.14445502636324842"/>
<text class="face_text" text-anchor="middle" dominant-baseline="middle" transform="matrix(0.010379323656021316 0 0 0.010379323656021316 0.0 0.0)">0</text>
<text class="face_text" text-anchor="middle" dominant-baseline="middle" transform="matrix(0.010379323656021316 0 0 0.010379323656021316 0.976866 0.0)">21</text>
<text class="face_text" text-anchor="middle" dominant-baseline="middle" transform="matrix(0.010379323656021316 0 0 0.010379323656021316 1.465299 -0.845991)">25</text>
<text class="face_text" text-anchor="middle" dominant-baseline="middle" transform="matrix(0.010379323656021316 0 0 0.010379323656021316 2.11895 -0.120038)">22</text>
<text class="face_text" text-anchor="middle" dominant-baseline="middle" transform="matrix(0.010379323656021316 0 0 0.010379323656021316 1.817082 0.809017)">6</text>
<text class="face_text" text-anchor="middle" dominant-baseline="middle" transform="matrix(0.010379323656021316 0 0 0.010379323656021316 1.026781 1.383204)">4</text>
<text class="face_text" text-anchor="middle" dominant-baseline="middle" transform="matrix(0.010379323656021316 0 0 0.010379323656021316 1.10922 2.167559)">5</text>
<text class="face_text" text-anchor="middle" dominant-baseline="middle" transform="matrix(0.010379323656021316 0 0 0.010379323656021316 0.114698 2.272088)">3</text>
<text class="face_text" text-anchor="middle" dominant-baseline="middle" transform="matrix(0.010379323656021316 0 0 0.010379323656021316 -0.879824 2.376616)">2</text>
<text class="face_text" text-anchor="middle" dominant-baseline="middle" transform="matrix(0.010379323656021316 0 0 0.010379323656021316 -1.874346 2.481145)">19</text>
<text class="face_text" text-anchor="middle" dominant-baseline="middle" transform="matrix(0.010379323656021316 0 0 0.010379323656021316 -2.868868 2.585673)">17</text>
<text class="face_text" text-anchor="middle" dominant-baseline="middle" transform="matrix(0.010379323656021316 0 0 0.010379323656021316 -2.951307 1.801318)">16</text>
<text class="face_text" text-anchor="middle" dominant-baseline="middle" transform="matrix(0.010379323656021316 0 0 0.010379323656021316 -3.843719 1.403991)">14</text>
<text class="face_text" text-anchor="middle" dominant-baseline="middle" transform="matrix(0.010379323656021316 0 0 0.010379323656021316 -3.190068 0.678038)">24</text>
<text class="face_text" text-anchor="middle" dominant-baseline="middle" transform="matrix(0.010379323656021316 0 0 0.010379323656021316 -2.234548 0.88114)">18</text>
<text class="face_text" text-anchor="middle" dominant-baseline="middle" transform="matrix(0.010379323656021316 0 0 0.010379323656021316 -1.342137 0.483813)">1</text>
<rect class="edge_bg" x="0.5843976288449739" y="-0.1037932365602132" width="0.20758647312042633" height="0.20758647312042633"/>
<text class="edge_text" text-anchor="middle" dominant-baseline="middle" transform="matrix(0.010379323656021316 0 0 0.010379323656021316 0.688190865405187 -3.535250795749691e-17)">32</text>
<rect class="edge_bg" x="1.0174102833219933" y="-0.3537933823413885" width="0.20758647312042633" height="0.20758647312042633"/>
<text class="edge_text" text-anchor="middle" dominant-baseline="middle" transform="matrix(0.010379323656021316 0 0 0.010379323656021316 1.1212035198822066 -0.25000014578117535)">40</text>
<rect class="edge_bg" x="1.8219953955876345" y="-0.43835866907833876" width="0.20758647312042633" height="0.20758647312042633"/>
<text class="edge_text" text-anchor="middle" dominant-baseline="middle" transform="matrix(0.010379323656021316 0 0 0.010379323656021316 1.9257886321478477 -0.3345654325181256)">42</text>
<rect class="edge_bg" x="1.9259514655277967" y="0.050715266252313096" width="0.20758647312042633" height="0.20758647312042633"/>
<text class="edge_text" text-anchor="middle" dominant-baseline="middle" transform="matrix(0.010379323656021316 0 0 0.010379323656021316 2.02974470208801 0.15450850281252626)">34</text>
<rect class="edge_bg" x="1.1565308531804657" y="1.1097317766214112" width="0.20758647312042633" height="0.20758647312042633"/>
<text class="edge_text" text-anchor="middle" dominant-baseline="middle" transform="matrix(0.010379323656021316 0 0 0.010379323656021316 1.2603240897406789 1.2135250131816244)">8</text>
<rect class="edge_bg" x="0.9531625318059602" y="1.5665048157556498" width="0.20758647312042633" height="0.20758647312042633"/>
<text class="edge_text" text-anchor="middle" dominant-baseline="middle" transform="matrix(0.010379323656021316 0 0 0.010379323656021316 1.0569557683661734 1.670298052315863)">4</text>
<rect class="edge_bg" x="0.5081657111239235" y="2.11603053180596" width="0.20758647312042633" height="0.20758647312042633"/>
<text class="edge_text" text-anchor="middle" dominant-baseline="middle" transform="matrix(0.010379323656021316 0 0 0.010379323656021316 0.6119589476841367 2.2198237683661732)">6</text>
<rect class="edge_bg" x="-0.48635628887607646" y="2.2205585318059597" width="0.20758647312042633" height="0.20758647312042633"/>
<text class="edge_text" text-anchor="middle" dominant-baseline="middle" transform="matrix(0.010379323656021316 0 0 0.010379323656021316 -0.3825630523158633 2.324351768366173)">3</text>
<rect class="edge_bg" x="-1.4808782888760765" y="2.32508753180596" width="0.20758647312042633" height="0.20758647312042633"/>
<text class="edge_text" text-anchor="middle" dominant-baseline="middle" transform="matrix(0.010379323656021316 0 0 0.010379323656021316 -1.3770850523158633 2.4288807683661733)">29</text>
<rect class="edge_bg" x="-2.4754002888760764" y="2.42961553180596" width="0.20758647312042633" height="0.20758647312042633"/>
<text class="edge_text" text-anchor="middle" dominant-baseline="middle" transform="matrix(0.010379323656021316 0 0 0.010379323656021316 -2.371607052315863 2.533408768366173)">27</text>
<rect class="edge_bg" x="-3.0249254683574343" y="1.9846185054427115" width="0.20758647312042633" height="0.20758647312042633"/>
<text class="edge_text" text-anchor="middle" dominant-baseline="middle" transform="matrix(0.010379323656021316 0 0 0.010379323656021316 -2.921132231797221 2.0884117420029247)">22</text>
<rect class="edge_bg" x="-3.318818510846293" y="1.5801102444011208" width="0.20758647312042633" height="0.20758647312042633"/>
<text class="edge_text" text-anchor="middle" dominant-baseline="middle" transform="matrix(0.010379323656021316 0 0 0.010379323656021316 -3.21502527428608 1.683903480961334)">23</text>
<rect class="edge_bg" x="-3.4870226044123656" y="0.7887721959579124" width="0.20758647312042633" height="0.20758647312042633"/>
<text class="edge_text" text-anchor="middle" dominant-baseline="middle" transform="matrix(0.010379323656021316 0 0 0.010379323656021316 -3.3832293678521523 0.8925654325181256)">38</text>
<rect class="edge_bg" x="-3.0114935731613466" y="0.6342638172917086" width="0.20758647312042633" height="0.20758647312042633"/>
<text class="edge_text" text-anchor="middle" dominant-baseline="middle" transform="matrix(0.010379323656021316 0 0 0.010379323656021316 -2.9077003366011334 0.7380570538519218)">39</text>
<rect class="edge_bg" x="-1.709648094503671" y="0.4974345186243359" width="0.20758647312042633" height="0.20758647312042633"/>
<text class="edge_text" text-anchor="middle" dominant-baseline="middle" transform="matrix(0.010379323656021316 0 0 0.010379323656021316 -1.6058548579434577 0.6012277551845491)">28</text>
</svg>
