<?xml version="1.0" encoding="utf-8"?>
<svg version="1.1" xmlns="http://www.w3.org/2000/svg" viewBox="-4.311407305239752 -3.135136036804636 6.923471607372123 7.655362933453149" style="enable-background:new -4.311407305239752 -3.135136036804636 6.923471607372123 7.655362933453149;">
<style type="text/css">
  .face_stroke {fill:none; stroke:#000000; stroke-width:0.02; stroke-miterlimit:10;}
  .face_text {fill:#000000; font-family:monospace;}
  .edge_text {fill:#ff0000; font-family:monospace;}
  .edge_bg {fill:#f3f3f3; stroke:#606060; stroke-width:0.01;}
</style>
<polygon class="face_stroke" points="0.6881909602355868,-0.5 -0.26286555605956674,-0.8090169943749475 -0.8506508083520399,-1.0417467896404342e-16 -0.2628655560595669,0.8090169943749473 0.6881909602355867,0.5000000000000001"/>
<polygon class="face_stroke" points="0.6881908654051868,0.4999999999999999 1.554216269189626,1.414100318299876e-16 0.6881908654051876,-0.5000000000000003"/>
<polygon class="face_stroke" points="1.5542162217744258,-1.457811755756211e-07 2.29736104725182,-0.6691307521400337 1.89062440417602,-1.5826762097826346 0.8961025088077466,-1.478147746514981 0.688190817989987,-0.5000001457811758"/>
<polygon class="face_stroke" points="0.8961027357043043,-1.4781478650362512 -0.05495378059084932,-1.1691308706613037 0.6881910448865449,-0.5000002643024454"/>
<polygon class="face_stroke" points="0.8961029602355868,-1.478148 0.8961029602355868,-2.478148 -0.05495355605956673,-2.7871649943749475 -0.6427388083520399,-1.978148 -0.054953556059566894,-1.1691310056250526"/>
<polygon class="face_stroke" points="-0.6427395364055575,-1.9781474840058495 -1.0494761794813579,-1.0646020263632487 -0.05495428411308445,-1.169130489630902"/>
<polygon class="face_stroke" points="-0.6427389496407995,-1.9781474072834002 -1.5562844072834003,-2.3848840503592004 -1.9630210503592007,-1.4713385927165994 -1.0494755927166002,-1.064601949640799"/>
<polygon class="face_stroke" points="-1.9630214072834002,-1.4713390503592005 -2.3697580503592004,-0.5577935927165996 -1.4562125927166,-0.1510569496407992 -1.049475949640799,-1.0646024072833997"/>
<polygon class="face_stroke" points="-2.3697574072834007,-0.5577930503592006 -2.776494050359201,0.35575240728340046 -1.8629485927166003,0.7624890503592008 -1.4562119496407995,-0.1510564072833998"/>
<polygon class="face_stroke" points="-2.7764944072834004,0.35575194964079937 -3.1832310503592005,1.2692974072834005 -2.2696855927166,1.6760340503592008 -1.8629489496407992,0.7624885927166001"/>
<polygon class="face_stroke" points="-3.1832314072834005,1.2692979496407992 -3.5899680503592006,2.1828434072834004 -2.6764225927166,2.5895800503592006 -2.2696859496407993,1.6760345927166"/>
<polygon class="face_stroke" points="-3.5899674072834005,2.1828429496407993 -3.9967040503592006,3.0963884072834005 -3.0831585927166003,3.5031250503592006 -2.6764219496407993,2.5895795927166003"/>
<polygon class="face_stroke" points="-3.0831590472518204,3.503125247859966 -2.340014221774426,4.172255854218824 -1.4739888179899876,3.6722558542188244 -1.6819005088077463,2.694108253485019 -2.6764224041760194,2.589579790217365"/>
<polygon class="face_stroke" points="-1.681900820518642,2.6941079736367515 -2.0886374635944422,1.7805625159941507 -2.6764227158869156,2.5895795103690977"/>
<polygon class="face_stroke" points="-1.6819004041760197,2.6941082097826343 -0.6873785088077466,2.589579746514981 -0.47946681798998736,1.6114321457811753 -1.3454922217744258,1.1114321457811753 -2.08863704725182,1.7805627521400336"/>
<polygon class="face_stroke" points="-0.479466865405187,1.611432 -0.479466865405187,0.611432 -1.3454922691896258,1.111432"/>
<text class="face_text" text-anchor="middle" dominant-baseline="middle" transform="matrix(0.013846943214744247 0 0 0.013846943214744247 0.0 0.0)">0</text>
<text class="face_text" text-anchor="middle" dominant-baseline="middle" transform="matrix(0.013846943214744247 0 0 0.013846943214744247 0.976866 0.0)">21</text>
<text class="face_text" text-anchor="middle" dominant-baseline="middle" transform="matrix(0.013846943214744247 0 0 0.013846943214744247 1.465299 -0.845991)">25</text>
<text class="face_text" text-anchor="middle" dominant-baseline="middle" transform="matrix(0.013846943214744247 0 0 0.013846943214744247 0.50978 -1.049093)">20</text>
<text class="face_text" text-anchor="middle" dominant-baseline="middle" transform="matrix(0.013846943214744247 0 0 0.013846943214744247 0.207912 -1.978148)">18</text>
<text class="face_text" text-anchor="middle" dominant-baseline="middle" transform="matrix(0.013846943214744247 0 0 0.013846943214744247 -0.58239 -1.40396)">1</text>
<text class="face_text" text-anchor="middle" dominant-baseline="middle" transform="matrix(0.013846943214744247 0 0 0.013846943214744247 -1.30288 -1.724743)">2</text>
<text class="face_text" text-anchor="middle" dominant-baseline="middle" transform="matrix(0.013846943214744247 0 0 0.013846943214744247 -1.709617 -0.811198)">3</text>
<text class="face_text" text-anchor="middle" dominant-baseline="middle" transform="matrix(0.013846943214744247 0 0 0.013846943214744247 -2.116353 0.102348)">5</text>
<text class="face_text" text-anchor="middle" dominant-baseline="middle" transform="matrix(0.013846943214744247 0 0 0.013846943214744247 -2.52309 1.015893)">7</text>
<text class="face_text" text-anchor="middle" dominant-baseline="middle" transform="matrix(0.013846943214744247 0 0 0.013846943214744247 -2.929827 1.929439)">9</text>
<text class="face_text" text-anchor="middle" dominant-baseline="middle" transform="matrix(0.013846943214744247 0 0 0.013846943214744247 -3.336563 2.842984)">11</text>
<text class="face_text" text-anchor="middle" dominant-baseline="middle" transform="matrix(0.013846943214744247 0 0 0.013846943214744247 -2.251097 3.326265)">10</text>
<text class="face_text" text-anchor="middle" dominant-baseline="middle" transform="matrix(0.013846943214744247 0 0 0.013846943214744247 -2.148987 2.35475)">8</text>
<text class="face_text" text-anchor="middle" dominant-baseline="middle" transform="matrix(0.013846943214744247 0 0 0.013846943214744247 -1.256575 1.957423)">6</text>
<text class="face_text" text-anchor="middle" dominant-baseline="middle" transform="matrix(0.013846943214744247 0 0 0.013846943214744247 -0.768142 1.111432)">4</text>
<rect class="edge_bg" x="0.5497214332577446" y="-0.1384694321474425" width="0.27693886429488496" height="0.27693886429488496"/>
<text class="edge_text" text-anchor="middle" dominant-baseline="middle" transform="matrix(0.013846943214744247 0 0 0.013846943214744247 0.688190865405187 -3.535250795749691e-17)">32</text>
<rect class="edge_bg" x="0.9827340877347641" y="-0.3884695779286178" width="0.27693886429488496" height="0.27693886429488496"/>
<text class="edge_text" text-anchor="middle" dominant-baseline="middle" transform="matrix(0.013846943214744247 0 0 0.013846943214744247 1.1212035198822066 -0.25000014578117535)">40</text>
<rect class="edge_bg" x="0.6536774581479823" y="-1.1275434968167908" width="0.27693886429488496" height="0.27693886429488496"/>
<text class="edge_text" text-anchor="middle" dominant-baseline="middle" transform="matrix(0.013846943214744247 0 0 0.013846943214744247 0.7921468902954247 -0.9890740646693482)">41</text>
<rect class="edge_bg" x="0.2821052699405675" y="-1.4621089349599687" width="0.27693886429488496" height="0.27693886429488496"/>
<text class="edge_text" text-anchor="middle" dominant-baseline="middle" transform="matrix(0.013846943214744247 0 0 0.013846943214744247 0.42057470208801 -1.3236395028125263)">31</text>
<rect class="edge_bg" x="-0.48731634240676347" y="-1.7121084189658182" width="0.27693886429488496" height="0.27693886429488496"/>
<text class="edge_text" text-anchor="middle" dominant-baseline="middle" transform="matrix(0.013846943214744247 0 0 0.013846943214744247 -0.34884691025932096 -1.5736389868183758)">28</text>
<rect class="edge_bg" x="-0.9845767033261419" y="-1.6598441106095423" width="0.27693886429488496" height="0.27693886429488496"/>
<text class="edge_text" text-anchor="middle" dominant-baseline="middle" transform="matrix(0.013846943214744247 0 0 0.013846943214744247 -0.8461072711786994 -1.5213746784620998)">1</text>
<rect class="edge_bg" x="-1.6447181106095423" y="-1.406440160968743" width="0.27693886429488496" height="0.27693886429488496"/>
<text class="edge_text" text-anchor="middle" dominant-baseline="middle" transform="matrix(0.013846943214744247 0 0 0.013846943214744247 -1.5062486784620999 -1.2679707288213005)">3</text>
<rect class="edge_bg" x="-2.0514541106095425" y="-0.49289416096874306" width="0.27693886429488496" height="0.27693886429488496"/>
<text class="edge_text" text-anchor="middle" dominant-baseline="middle" transform="matrix(0.013846943214744247 0 0 0.013846943214744247 -1.9129846784621 -0.35442472882130055)">6</text>
<rect class="edge_bg" x="-2.458191110609542" y="0.4206508390312569" width="0.27693886429488496" height="0.27693886429488496"/>
<text class="edge_text" text-anchor="middle" dominant-baseline="middle" transform="matrix(0.013846943214744247 0 0 0.013846943214744247 -2.3197216784620998 0.5591202711786993)">9</text>
<rect class="edge_bg" x="-2.8649281106095423" y="1.3341968390312569" width="0.27693886429488496" height="0.27693886429488496"/>
<text class="edge_text" text-anchor="middle" dominant-baseline="middle" transform="matrix(0.013846943214744247 0 0 0.013846943214744247 -2.7264586784621 1.4726662711786993)">12</text>
<rect class="edge_bg" x="-3.2716641106095423" y="2.247741839031257" width="0.27693886429488496" height="0.27693886429488496"/>
<text class="edge_text" text-anchor="middle" dominant-baseline="middle" transform="matrix(0.013846943214744247 0 0 0.013846943214744247 -3.1331946784621 2.3862112711786994)">15</text>
<rect class="edge_bg" x="-3.0182601578613624" y="2.907883086891223" width="0.27693886429488496" height="0.27693886429488496"/>
<text class="edge_text" text-anchor="middle" dominant-baseline="middle" transform="matrix(0.013846943214744247 0 0 0.013846943214744247 -2.87979072571392 3.0463525190386656)">13</text>
<rect class="edge_bg" x="-2.3176312003502213" y="2.5033743098554826" width="0.27693886429488496" height="0.27693886429488496"/>
<text class="edge_text" text-anchor="middle" dominant-baseline="middle" transform="matrix(0.013846943214744247 0 0 0.013846943214744247 -2.179161768202779 2.641843742002925)">14</text>
<rect class="edge_bg" x="-2.0237381578613625" y="2.0988660488138917" width="0.27693886429488496" height="0.27693886429488496"/>
<text class="edge_text" text-anchor="middle" dominant-baseline="middle" transform="matrix(0.013846943214744247 0 0 0.013846943214744247 -1.88526872571392 2.237335480961334)">11</text>
<rect class="edge_bg" x="-1.0509489994448489" y="1.2229625678525577" width="0.27693886429488496" height="0.27693886429488496"/>
<text class="edge_text" text-anchor="middle" dominant-baseline="middle" transform="matrix(0.013846943214744247 0 0 0.013846943214744247 -0.9124795672974064 1.3614320000000002)">8</text>
</svg>
