<?xml version="1.0" encoding="utf-8"?>
<svg version="1.1" xmlns="http://www.w3.org/2000/svg" viewBox="-3.8843345052397518 -3.056002246611655 6.476062007372123 5.9144195492075635" style="enable-background:new -3.8843345052397518 -3.056002246611655 6.476062007372123 5.9144195492075635;">
<style type="text/css">
  .face_stroke {fill:none; stroke:#000000; stroke-width:0.02; stroke-miterlimit:10;}
  .face_text {fill:#000000; font-family:monospace;}
  .edge_text {fill:#ff0000; font-family:monospace;}
  .edge_bg {fill:#f3f3f3; stroke:#606060; stroke-width:0.01;}
</style>
<polygon class="face_stroke" points="0.6881909602355868,-0.5 -0.26286555605956674,-0.8090169943749475 -0.8506508083520399,-1.0417467896404342e-16 -0.2628655560595669,0.8090169943749473 0.6881909602355867,0.5000000000000001"/>
<polygon class="face_stroke" points="0.6881908654051868,0.4999999999999999 1.554216269189626,1.414100318299876e-16 0.6881908654051876,-0.5000000000000003"/>
<polygon class="face_stroke" points="1.5542162217744258,-1.457811755756211e-07 2.29736104725182,-0.6691307521400337 1.89062440417602,-1.5826762097826346 0.8961025088077466,-1.478147746514981 0.688190817989987,-0.5000001457811758"/>
<polygon class="face_stroke" points="0.8961027357043043,-1.4781478650362512 -0.05495378059084932,-1.1691308706613037 0.6881910448865449,-0.5000002643024454"/>
<polygon class="face_stroke" points="0.8961029602355868,-1.478148 0.8961029602355868,-2.478148 -0.05495355605956673,-2.7871649943749475 -0.6427388083520399,-1.978148 -0.054953556059566894,-1.1691310056250526"/>
<polygon class="face_stroke" points="-0.6427395364055575,-1.9781474840058495 -1.0494761794813579,-1.0646020263632487 -0.05495428411308445,-1.169130489630902"/>
<polygon class="face_stroke" points="-0.6427389496407995,-1.9781474072834002 -1.5562844072834003,-2.3848840503592004 -1.9630210503592007,-1.4713385927165994 -1.0494755927166002,-1.064601949640799"/>
<polygon class="face_stroke" points="-1.9630214072834002,-1.4713390503592005 -2.3697580503592004,-0.5577935927165996 -1.4562125927166,-0.1510569496407992 -1.049475949640799,-1.0646024072833997"/>
<polygon class="face_stroke" points="-2.3697574072834007,-0.5577930503592006 -2.776494050359201,0.35575240728340046 -1.8629485927166003,0.7624890503592008 -1.4562119496407995,-0.1510564072833998"/>
<polygon class="face_stroke" points="-2.7764944072834004,0.35575194964079937 -3.1832310503592005,1.2692974072834005 -2.2696855927166,1.6760340503592008 -1.8629489496407992,0.7624885927166001"/>
<polygon class="face_stroke" points="-3.1832314072834005,1.2692979496407992 -3.5899680503592006,2.1828434072834004 -2.6764225927166,2.5895800503592006 -2.2696859496407993,1.6760345927166"/>
<polygon class="face_stroke" points="-2.676422179481358,2.5895799736367513 -1.6819002841130843,2.485051510369098 -2.2696855364055573,1.6760345159941505"/>
<polygon class="face_stroke" points="-1.6819005560595668,2.4850509943749475 -0.7308440397644133,2.176034 -0.7308440397644133,1.176034 -1.6819005560595668,0.8670170056250526 -2.26968580835204,1.676034"/>
<polygon class="face_stroke" points="-0.7308442642956956,1.176033865036251 -0.938755955113455,0.19788626430244527 -1.6819007805908495,0.8670168706613034"/>
<text class="face_text" text-anchor="middle" dominant-baseline="middle" transform="matrix(0.011828839098415127 0 0 0.011828839098415127 0.0 0.0)">0</text>
<text class="face_text" text-anchor="middle" dominant-baseline="middle" transform="matrix(0.011828839098415127 0 0 0.011828839098415127 0.976866 0.0)">21</text>
<text class="face_text" text-anchor="middle" dominant-baseline="middle" transform="matrix(0.011828839098415127 0 0 0.011828839098415127 1.465299 -0.845991)">25</text>
<text class="face_text" text-anchor="middle" dominant-baseline="middle" transform="matrix(0.011828839098415127 0 0 0.011828839098415127 0.50978 -1.049093)">20</text>
<text class="face_text" text-anchor="middle" dominant-baseline="middle" transform="matrix(0.011828839098415127 0 0 0.011828839098415127 0.207912 -1.978148)">18</text>
<text class="face_text" text-anchor="middle" dominant-baseline="middle" transform="matrix(0.011828839098415127 0 0 0.011828839098415127 -0.58239 -1.40396)">1</text>
<text class="face_text" text-anchor="middle" dominant-baseline="middle" transform="matrix(0.011828839098415127 0 0 0.011828839098415127 -1.30288 -1.724743)">2</text>
<text class="face_text" text-anchor="middle" dominant-baseline="middle" transform="matrix(0.011828839098415127 0 0 0.011828839098415127 -1.709617 -0.811198)">3</text>
<text class="face_text" text-anchor="middle" dominant-baseline="middle" transform="matrix(0.011828839098415127 0 0 0.011828839098415127 -2.116353 0.102348)">5</text>
<text class="face_text" text-anchor="middle" dominant-baseline="middle" transform="matrix(0.011828839098415127 0 0 0.011828839098415127 -2.52309 1.015893)">7</text>
<text class="face_text" text-anchor="middle" dominant-baseline="middle" transform="matrix(0.011828839098415127 0 0 0.011828839098415127 -2.929827 1.929439)">9</text>
<text class="face_text" text-anchor="middle" dominant-baseline="middle" transform="matrix(0.011828839098415127 0 0 0.011828839098415127 -2.209336 2.250222)">8</text>
<text class="face_text" text-anchor="middle" dominant-baseline="middle" transform="matrix(0.011828839098415127 0 0 0.011828839098415127 -1.419035 1.676034)">6</text>
<text class="face_text" text-anchor="middle" dominant-baseline="middle" transform="matrix(0.011828839098415127 0 0 0.011828839098415127 -1.117167 0.746979)">4</text>
<rect class="edge_bg" x="0.5699024744210358" y="-0.11828839098415131" width="0.23657678196830254" height="0.23657678196830254"/>
<text class="edge_text" text-anchor="middle" dominant-baseline="middle" transform="matrix(0.011828839098415127 0 0 0.011828839098415127 0.688190865405187 -3.535250795749691e-17)">32</text>
<rect class="edge_bg" x="1.0029151288980553" y="-0.36828853676532664" width="0.23657678196830254" height="0.23657678196830254"/>
<text class="edge_text" text-anchor="middle" dominant-baseline="middle" transform="matrix(0.011828839098415127 0 0 0.011828839098415127 1.1212035198822066 -0.25000014578117535)">40</text>
<rect class="edge_bg" x="0.6738584993112735" y="-1.1073624556534996" width="0.23657678196830254" height="0.23657678196830254"/>
<text class="edge_text" text-anchor="middle" dominant-baseline="middle" transform="matrix(0.011828839098415127 0 0 0.011828839098415127 0.7921468902954247 -0.9890740646693482)">41</text>
<rect class="edge_bg" x="0.30228631110385873" y="-1.4419278937966775" width="0.23657678196830254" height="0.23657678196830254"/>
<text class="edge_text" text-anchor="middle" dominant-baseline="middle" transform="matrix(0.011828839098415127 0 0 0.011828839098415127 0.42057470208801 -1.3236395028125263)">31</text>
<rect class="edge_bg" x="-0.46713530124347225" y="-1.691927377802527" width="0.23657678196830254" height="0.23657678196830254"/>
<text class="edge_text" text-anchor="middle" dominant-baseline="middle" transform="matrix(0.011828839098415127 0 0 0.011828839098415127 -0.34884691025932096 -1.5736389868183758)">28</text>
<rect class="edge_bg" x="-0.9643956621628507" y="-1.639663069446251" width="0.23657678196830254" height="0.23657678196830254"/>
<text class="edge_text" text-anchor="middle" dominant-baseline="middle" transform="matrix(0.011828839098415127 0 0 0.011828839098415127 -0.8461072711786994 -1.5213746784620998)">1</text>
<rect class="edge_bg" x="-1.624537069446251" y="-1.3862591198054517" width="0.23657678196830254" height="0.23657678196830254"/>
<text class="edge_text" text-anchor="middle" dominant-baseline="middle" transform="matrix(0.011828839098415127 0 0 0.011828839098415127 -1.5062486784620999 -1.2679707288213005)">3</text>
<rect class="edge_bg" x="-2.0312730694462515" y="-0.47271311980545183" width="0.23657678196830254" height="0.23657678196830254"/>
<text class="edge_text" text-anchor="middle" dominant-baseline="middle" transform="matrix(0.011828839098415127 0 0 0.011828839098415127 -1.9129846784621 -0.35442472882130055)">6</text>
<rect class="edge_bg" x="-2.438010069446251" y="0.44083188019454805" width="0.23657678196830254" height="0.23657678196830254"/>
<text class="edge_text" text-anchor="middle" dominant-baseline="middle" transform="matrix(0.011828839098415127 0 0 0.011828839098415127 -2.3197216784620998 0.5591202711786993)">9</text>
<rect class="edge_bg" x="-2.8447470694462513" y="1.354377880194548" width="0.23657678196830254" height="0.23657678196830254"/>
<text class="edge_text" text-anchor="middle" dominant-baseline="middle" transform="matrix(0.011828839098415127 0 0 0.011828839098415127 -2.7264586784621 1.4726662711786993)">12</text>
<rect class="edge_bg" x="-2.5913422489276092" y="2.0145188538312992" width="0.23657678196830254" height="0.23657678196830254"/>
<text class="edge_text" text-anchor="middle" dominant-baseline="middle" transform="matrix(0.011828839098415127 0 0 0.011828839098415127 -2.473053857943458 2.1328072448154507)">10</text>
<rect class="edge_bg" x="-2.0940815731899547" y="1.9622541062033225" width="0.23657678196830254" height="0.23657678196830254"/>
<text class="edge_text" text-anchor="middle" dominant-baseline="middle" transform="matrix(0.011828839098415127 0 0 0.011828839098415127 -1.9757931822058032 2.0805424971874737)">11</text>
<rect class="edge_bg" x="-1.3246609134274236" y="0.903236976864626" width="0.23657678196830254" height="0.23657678196830254"/>
<text class="edge_text" text-anchor="middle" dominant-baseline="middle" transform="matrix(0.011828839098415127 0 0 0.011828839098415127 -1.2063725224432724 1.0215253678487772)">8</text>
</svg>
