<?xml version="1.0" encoding="utf-8"?>
<svg version="1.1" xmlns="http://www.w3.org/2000/svg" viewBox="-0.6975936230667091 -0.9374715318604472 2.6453537852958324 2.8259998246809976" style="enable-background:new -0.6975936230667091 -0.9374715318604472 2.6453537852958324 2.8259998246809976;">
<style type="text/css">
  .face_stroke {fill:none; stroke:#000000; stroke-width:0.02; stroke-miterlimit:10;}
  .face_text {fill:#000000; font-family:monospace;}
  .edge_text {fill:#ff0000; font-family:monospace;}
  .edge_bg {fill:#f3f3f3; stroke:#606060; stroke-width:0.01;}
</style>
<polygon class="face_stroke" points="0.288675134594813,-0.5 -0.5773502691896258,-7.07050159149938e-17 0.288675134594813,0.5"/>
<polygon class="face_stroke" points="0.2886750397644132,0.4999999999999999 1.2397315560595668,0.8090169943749475 1.82751680835204,2.0834935792808685e-16 1.239731556059567,-0.8090169943749473 0.28867503976441344,-0.5000000000000001"/>
<polygon class="face_stroke" points="0.28867523903989695,0.5000002446649494 -0.020341755335050782,1.4510567609601026 0.930714760960103,1.7600737553350505 1.2397317553350504,0.8090172390398964"/>
<text class="face_text" text-anchor="middle" dominant-baseline="middle" transform="matrix(0.005290707570591665 0 0 0.005290707570591665 0.0 0.0)">1</text>
<text class="face_text" text-anchor="middle" dominant-baseline="middle" transform="matrix(0.005290707570591665 0 0 0.005290707570591665 0.976866 0.0)">0</text>
<text class="face_text" text-anchor="middle" dominant-baseline="middle" transform="matrix(0.005290707570591665 0 0 0.005290707570591665 0.609695 1.130037)">3</text>
<rect class="edge_bg" x="0.23576796405849657" y="-0.05290707570591673" width="0.1058141514118333" height="0.1058141514118333"/>
<text class="edge_text" text-anchor="middle" dominant-baseline="middle" transform="matrix(0.005290707570591665 0 0 0.005290707570591665 0.2886750397644132 -8.427908566546547e-17)">2</text>
<rect class="edge_bg" x="0.711296421481557" y="0.6016016661465065" width="0.1058141514118333" height="0.1058141514118333"/>
<text class="edge_text" text-anchor="middle" dominant-baseline="middle" transform="matrix(0.005290707570591665 0 0 0.005290707570591665 0.7642034971874737 0.6545087418524231)">0</text>
</svg>
