<?xml version="1.0" encoding="utf-8"?>
<svg version="1.1" xmlns="http://www.w3.org/2000/svg" viewBox="-1.0082448472579295 -0.9448712030595929 3.396902694679253 2.988792591062202" style="enable-background:new -1.0082448472579295 -0.9448712030595929 3.396902694679253 2.988792591062202;">
<style type="text/css">
  .face_stroke {fill:none; stroke:#000000; stroke-width:0.02; stroke-miterlimit:10;}
  .face_text {fill:#000000; font-family:monospace;}
  .edge_text {fill:#ff0000; font-family:monospace;}
  .edge_bg {fill:#f3f3f3; stroke:#606060; stroke-width:0.01;}
</style>
<polygon class="face_stroke" points="0.288675134594813,-0.5 -0.5773502691896258,-7.07050159149938e-17 0.288675134594813,0.5"/>
<polygon class="face_stroke" points="0.2886750397644132,0.4999999999999999 1.2397315560595668,0.8090169943749475 1.82751680835204,2.0834935792808685e-16 1.239731556059567,-0.8090169943749473 0.28867503976441344,-0.5000000000000001"/>
<polygon class="face_stroke" points="1.2397312841130843,0.8090165103690978 2.2342531794813576,0.9135449736367516 1.8275165364055577,-4.840058495103605e-07"/>
<polygon class="face_stroke" points="1.2397312839496901,0.8090168206820364 1.1352028206820366,1.80353871605031 2.12972471605031,1.9080671793179633 2.234253179317964,0.9135452839496904"/>
<polygon class="face_stroke" points="1.2397311793179635,0.8090172839496901 0.24520928394969016,0.7044888206820364 0.14068082068203658,1.69901071605031 1.13520271605031,1.8035391793179634"/>
<polygon class="face_stroke" points="0.2452101793179634,0.7044882839496902 -0.7493117160503098,0.5999598206820366 -0.8538401793179634,1.5944817160503102 0.14068171605031,1.6990101793179635"/>
<text class="face_text" text-anchor="middle" dominant-baseline="middle" transform="matrix(0.005977585182124404 0 0 0.005977585182124404 0.0 0.0)">1</text>
<text class="face_text" text-anchor="middle" dominant-baseline="middle" transform="matrix(0.005977585182124404 0 0 0.005977585182124404 0.976866 0.0)">0</text>
<text class="face_text" text-anchor="middle" dominant-baseline="middle" transform="matrix(0.005977585182124404 0 0 0.005977585182124404 1.767167 0.574187)">4</text>
<text class="face_text" text-anchor="middle" dominant-baseline="middle" transform="matrix(0.005977585182124404 0 0 0.005977585182124404 1.684728 1.358542)">5</text>
<text class="face_text" text-anchor="middle" dominant-baseline="middle" transform="matrix(0.005977585182124404 0 0 0.005977585182124404 0.690206 1.254014)">3</text>
<text class="face_text" text-anchor="middle" dominant-baseline="middle" transform="matrix(0.005977585182124404 0 0 0.005977585182124404 -0.304315 1.149485)">2</text>
<rect class="edge_bg" x="0.22889918794316919" y="-0.059775851821244126" width="0.11955170364248809" height="0.11955170364248809"/>
<text class="edge_text" text-anchor="middle" dominant-baseline="middle" transform="matrix(0.005977585182124404 0 0 0.005977585182124404 0.2886750397644132 -8.427908566546547e-17)">2</text>
<rect class="edge_bg" x="1.4738480584380769" y="0.34473216136038015" width="0.11955170364248809" height="0.11955170364248809"/>
<text class="edge_text" text-anchor="middle" dominant-baseline="middle" transform="matrix(0.005977585182124404 0 0 0.005977585182124404 1.533623910259321 0.4045080131816242)">5</text>
<rect class="edge_bg" x="1.6772163798125825" y="0.8015052004946192" width="0.11955170364248809" height="0.11955170364248809"/>
<text class="edge_text" text-anchor="middle" dominant-baseline="middle" transform="matrix(0.005977585182124404 0 0 0.005977585182124404 1.7369922316338267 0.8612810523158632)">4</text>
<rect class="edge_bg" x="1.1276910958628925" y="1.2465023798125825" width="0.11955170364248809" height="0.11955170364248809"/>
<text class="edge_text" text-anchor="middle" dominant-baseline="middle" transform="matrix(0.005977585182124404 0 0 0.005977585182124404 1.1874669476841366 1.3062782316338266)">6</text>
<rect class="edge_bg" x="0.13317009586289272" y="1.1419733798125826" width="0.11955170364248809" height="0.11955170364248809"/>
<text class="edge_text" text-anchor="middle" dominant-baseline="middle" transform="matrix(0.005977585182124404 0 0 0.005977585182124404 0.19294594768413675 1.2017492316338267)">3</text>
</svg>
