<?xml version="1.0" encoding="utf-8"?>
<svg version="1.1" xmlns="http://www.w3.org/2000/svg" viewBox="-2.161046150084581 -1.4517228672539617 4.604599297640507 3.519780048789636" style="enable-background:new -2.161046150084581 -1.4517228672539617 4.604599297640507 3.519780048789636;">
<style type="text/css">
  .face_stroke {fill:none; stroke:#000000; stroke-width:0.02; stroke-miterlimit:10;}
  .face_text {fill:#000000; font-family:monospace;}
  .edge_text {fill:#ff0000; font-family:monospace;}
  .edge_bg {fill:#f3f3f3; stroke:#606060; stroke-width:0.01;}
</style>
<polygon class="face_stroke" points="0.288675134594813,-0.5 -0.5773502691896258,-7.07050159149938e-17 0.288675134594813,0.5"/>
<polygon class="face_stroke" points="0.2886750397644132,0.4999999999999999 1.2397315560595668,0.8090169943749475 1.82751680835204,2.0834935792808685e-16 1.239731556059567,-0.8090169943749473 0.28867503976441344,-0.5000000000000001"/>
<polygon class="face_stroke" points="1.2397312841130843,0.8090165103690978 2.2342531794813576,0.9135449736367516 1.8275165364055577,-4.840058495103605e-07"/>
<polygon class="face_stroke" points="1.2397312839496901,0.8090168206820364 1.1352028206820366,1.80353871605031 2.12972471605031,1.9080671793179633 2.234253179317964,0.9135452839496904"/>
<polygon class="face_stroke" points="1.2397311793179635,0.8090172839496901 0.24520928394969016,0.7044888206820364 0.14068082068203658,1.69901071605031 1.13520271605031,1.8035391793179634"/>
<polygon class="face_stroke" points="0.2452101793179634,0.7044882839496902 -0.7493117160503098,0.5999598206820366 -0.8538401793179634,1.5944817160503102 0.14068171605031,1.6990101793179635"/>
<polygon class="face_stroke" points="-0.7493118206820366,0.59996028394969 -1.74383371605031,0.4954318206820364 -1.8483621793179634,1.48995371605031 -0.85384028394969,1.5944821793179633"/>
<polygon class="face_stroke" points="-0.74931259582398,0.5999602097826344 -0.34257595274817987,-0.31358524785996633 -1.0857207782255742,-0.9827158542188245 -1.9517461820100126,-0.4827158542188248 -1.7438344911922536,0.4954317465149808"/>
<polygon class="face_stroke" points="-0.34257595511345496,-0.31358526430244527 -0.1346642642956956,-1.291732865036251 -1.0857207805908493,-0.9827158706613035"/>
<text class="face_text" text-anchor="middle" dominant-baseline="middle" transform="matrix(0.007039560097579271 0 0 0.007039560097579271 0.0 0.0)">1</text>
<text class="face_text" text-anchor="middle" dominant-baseline="middle" transform="matrix(0.007039560097579271 0 0 0.007039560097579271 0.976866 0.0)">0</text>
<text class="face_text" text-anchor="middle" dominant-baseline="middle" transform="matrix(0.007039560097579271 0 0 0.007039560097579271 1.767167 0.574187)">4</text>
<text class="face_text" text-anchor="middle" dominant-baseline="middle" transform="matrix(0.007039560097579271 0 0 0.007039560097579271 1.684728 1.358542)">5</text>
<text class="face_text" text-anchor="middle" dominant-baseline="middle" transform="matrix(0.007039560097579271 0 0 0.007039560097579271 0.690206 1.254014)">3</text>
<text class="face_text" text-anchor="middle" dominant-baseline="middle" transform="matrix(0.007039560097579271 0 0 0.007039560097579271 -0.304315 1.149485)">2</text>
<text class="face_text" text-anchor="middle" dominant-baseline="middle" transform="matrix(0.007039560097579271 0 0 0.007039560097579271 -1.298837 1.044957)">19</text>
<text class="face_text" text-anchor="middle" dominant-baseline="middle" transform="matrix(0.007039560097579271 0 0 0.007039560097579271 -1.174638 -0.136725)">18</text>
<text class="face_text" text-anchor="middle" dominant-baseline="middle" transform="matrix(0.007039560097579271 0 0 0.007039560097579271 -0.520987 -0.862678)">20</text>
<rect class="edge_bg" x="0.2182794387886205" y="-0.0703956009757928" width="0.14079120195158543" height="0.14079120195158543"/>
<text class="edge_text" text-anchor="middle" dominant-baseline="middle" transform="matrix(0.007039560097579271 0 0 0.007039560097579271 0.2886750397644132 -8.427908566546547e-17)">2</text>
<rect class="edge_bg" x="1.4632283092835283" y="0.3341124122058315" width="0.14079120195158543" height="0.14079120195158543"/>
<text class="edge_text" text-anchor="middle" dominant-baseline="middle" transform="matrix(0.007039560097579271 0 0 0.007039560097579271 1.533623910259321 0.4045080131816242)">5</text>
<rect class="edge_bg" x="1.666596630658034" y="0.7908854513400705" width="0.14079120195158543" height="0.14079120195158543"/>
<text class="edge_text" text-anchor="middle" dominant-baseline="middle" transform="matrix(0.007039560097579271 0 0 0.007039560097579271 1.7369922316338267 0.8612810523158632)">4</text>
<rect class="edge_bg" x="1.117071346708344" y="1.235882630658034" width="0.14079120195158543" height="0.14079120195158543"/>
<text class="edge_text" text-anchor="middle" dominant-baseline="middle" transform="matrix(0.007039560097579271 0 0 0.007039560097579271 1.1874669476841366 1.3062782316338266)">6</text>
<rect class="edge_bg" x="0.12255034670834404" y="1.131353630658034" width="0.14079120195158543" height="0.14079120195158543"/>
<text class="edge_text" text-anchor="middle" dominant-baseline="middle" transform="matrix(0.007039560097579271 0 0 0.007039560097579271 0.19294594768413675 1.2017492316338267)">3</text>
<rect class="edge_bg" x="-0.8719716532916559" y="1.026825630658034" width="0.14079120195158543" height="0.14079120195158543"/>
<text class="edge_text" text-anchor="middle" dominant-baseline="middle" transform="matrix(0.007039560097579271 0 0 0.007039560097579271 -0.8015760523158633 1.0972212316338266)">29</text>
<rect class="edge_bg" x="-1.3169691444839093" y="0.47730037717301516" width="0.14079120195158543" height="0.14079120195158543"/>
<text class="edge_text" text-anchor="middle" dominant-baseline="middle" transform="matrix(0.007039560097579271 0 0 0.007039560097579271 -1.2465735435081167 0.5476959781488079)">25</text>
<rect class="edge_bg" x="-0.7845439688279449" y="-0.7185461684576671" width="0.14079120195158543" height="0.14079120195158543"/>
<text class="edge_text" text-anchor="middle" dominant-baseline="middle" transform="matrix(0.007039560097579271 0 0 0.007039560097579271 -0.7141483678521522 -0.6481505674818744)">31</text>
</svg>
