<?xml version="1.0" encoding="utf-8"?>
<svg version="1.1" xmlns="http://www.w3.org/2000/svg" viewBox="-2.64824123159002 -2.078812603059593 6.374686909485749 4.614755391062202" style="enable-background:new -2.64824123159002 -2.078812603059593 6.374686909485749 4.614755391062202;">
<style type="text/css">
  .face_stroke {fill:none; stroke:#000000; stroke-width:0.02; stroke-miterlimit:10;}
  .face_text {fill:#000000; font-family:monospace;}
  .edge_text {fill:#ff0000; font-family:monospace;}
  .edge_bg {fill:#f3f3f3; stroke:#606060; stroke-width:0.01;}
</style>
<polygon class="face_stroke" points="0.288675134594813,-0.5 -0.5773502691896258,-7.07050159149938e-17 0.288675134594813,0.5"/>
<polygon class="face_stroke" points="0.2886750397644132,0.4999999999999999 1.2397315560595668,0.8090169943749475 1.82751680835204,2.0834935792808685e-16 1.239731556059567,-0.8090169943749473 0.28867503976441344,-0.5000000000000001"/>
<polygon class="face_stroke" points="1.2397312841130843,0.8090165103690978 2.2342531794813576,0.9135449736367516 1.8275165364055577,-4.840058495103605e-07"/>
<polygon class="face_stroke" points="2.23425359582398,0.9135452097826345 3.2287754911922533,0.809016746514981 3.4366871820100124,-0.16913085421882454 2.570661778225574,-0.6691308542188246 1.8275169527481796,-2.4785996635690033e-07"/>
<polygon class="face_stroke" points="2.234253820682037,0.9135452839496898 2.3387822839496906,1.9080671793179635 3.333304179317963,1.8035387160503102 3.22877571605031,0.8090168206820363"/>
<polygon class="face_stroke" points="2.23425371605031,0.9135458206820366 1.239731820682037,1.01807428394969 1.3442602839496904,2.0125961793179634 2.3387821793179633,1.9080677160503101"/>
<polygon class="face_stroke" points="1.23973171605031,1.0180738206820366 0.24520982068203667,1.1226022839496899 0.3497382839496903,2.1171241793179636 1.3442601793179632,2.0125957160503103"/>
<polygon class="face_stroke" points="0.24520971605031,1.1226028206820367 -0.7493121793179633,1.22713128394969 -0.6447837160503096,2.221653179317964 0.3497381793179632,2.11712471605031"/>
<polygon class="face_stroke" points="-0.7493122839496901,1.2271308206820366 -1.7438341793179633,1.33165928394969 -1.6393057160503097,2.3261811793179636 -0.6447838206820369,2.2216527160503103"/>
<polygon class="face_stroke" points="-0.7493125088077466,1.227130746514981 -0.5414008179899873,0.24898314578117547 -1.4074262217744258,-0.2510168542188246 -2.15057104725182,0.41811375214003366 -1.7438344041760203,1.331659209782634"/>
<polygon class="face_stroke" points="-1.4074262194091505,-0.2510168706613036 -2.358482735704304,-0.5600338650362511 -2.150571044886545,0.41811373569755467"/>
<polygon class="face_stroke" points="-1.4074254439404332,-0.2510170056250526 -0.8196401916479601,-1.060034 -1.4074254439404332,-1.8690509943749474 -2.3584819602355864,-1.560034 -2.358481960235587,-0.560034"/>
<polygon class="face_stroke" points="-1.4074257158869157,-0.2510164896309022 -0.41290382051864216,-0.14648802636324837 -0.8196404635944424,-1.0600334840058494"/>
<text class="face_text" text-anchor="middle" dominant-baseline="middle" transform="matrix(0.009229510782124403 0 0 0.009229510782124403 0.0 0.0)">1</text>
<text class="face_text" text-anchor="middle" dominant-baseline="middle" transform="matrix(0.009229510782124403 0 0 0.009229510782124403 0.976866 0.0)">0</text>
<text class="face_text" text-anchor="middle" dominant-baseline="middle" transform="matrix(0.009229510782124403 0 0 0.009229510782124403 1.767167 0.574187)">4</text>
<text class="face_text" text-anchor="middle" dominant-baseline="middle" transform="matrix(0.009229510782124403 0 0 0.009229510782124403 2.659579 0.17686)">6</text>
<text class="face_text" text-anchor="middle" dominant-baseline="middle" transform="matrix(0.009229510782124403 0 0 0.009229510782124403 2.783779 1.358542)">7</text>
<text class="face_text" text-anchor="middle" dominant-baseline="middle" transform="matrix(0.009229510782124403 0 0 0.009229510782124403 1.789257 1.463071)">5</text>
<text class="face_text" text-anchor="middle" dominant-baseline="middle" transform="matrix(0.009229510782124403 0 0 0.009229510782124403 0.794735 1.567599)">3</text>
<text class="face_text" text-anchor="middle" dominant-baseline="middle" transform="matrix(0.009229510782124403 0 0 0.009229510782124403 -0.199787 1.672128)">2</text>
<text class="face_text" text-anchor="middle" dominant-baseline="middle" transform="matrix(0.009229510782124403 0 0 0.009229510782124403 -1.194309 1.776656)">19</text>
<text class="face_text" text-anchor="middle" dominant-baseline="middle" transform="matrix(0.009229510782124403 0 0 0.009229510782124403 -1.318509 0.594974)">18</text>
<text class="face_text" text-anchor="middle" dominant-baseline="middle" transform="matrix(0.009229510782124403 0 0 0.009229510782124403 -1.97216 -0.130979)">24</text>
<text class="face_text" text-anchor="middle" dominant-baseline="middle" transform="matrix(0.009229510782124403 0 0 0.009229510782124403 -1.670291 -1.060034)">25</text>
<text class="face_text" text-anchor="middle" dominant-baseline="middle" transform="matrix(0.009229510782124403 0 0 0.009229510782124403 -0.87999 -0.485846)">20</text>
<rect class="edge_bg" x="0.19637993194316916" y="-0.09229510782124413" width="0.1845902156424881" height="0.1845902156424881"/>
<text class="edge_text" text-anchor="middle" dominant-baseline="middle" transform="matrix(0.009229510782124403 0 0 0.009229510782124403 0.2886750397644132 -8.427908566546547e-17)">2</text>
<rect class="edge_bg" x="1.441328802438077" y="0.31221290536038016" width="0.1845902156424881" height="0.1845902156424881"/>
<text class="edge_text" text-anchor="middle" dominant-baseline="middle" transform="matrix(0.009229510782124403 0 0 0.009229510782124403 1.533623910259321 0.4045080131816242)">5</text>
<rect class="edge_bg" x="1.9385901664648357" y="0.3644773731400902" width="0.1845902156424881" height="0.1845902156424881"/>
<text class="edge_text" text-anchor="middle" dominant-baseline="middle" transform="matrix(0.009229510782124403 0 0 0.009229510782124403 2.0308852742860797 0.45677248096133427)">8</text>
<rect class="edge_bg" x="2.639219660544929" y="0.7689859444946191" width="0.1845902156424881" height="0.1845902156424881"/>
<text class="edge_text" text-anchor="middle" dominant-baseline="middle" transform="matrix(0.009229510782124403 0 0 0.009229510782124403 2.731514768366173 0.8612810523158632)">7</text>
<rect class="edge_bg" x="2.194222839862893" y="1.3185116605449294" width="0.1845902156424881" height="0.1845902156424881"/>
<text class="edge_text" text-anchor="middle" dominant-baseline="middle" transform="matrix(0.009229510782124403 0 0 0.009229510782124403 2.286517947684137 1.4108067683661734)">9</text>
<rect class="edge_bg" x="1.1997008398628928" y="1.4230396605449294" width="0.1845902156424881" height="0.1845902156424881"/>
<text class="edge_text" text-anchor="middle" dominant-baseline="middle" transform="matrix(0.009229510782124403 0 0 0.009229510782124403 1.2919959476841367 1.5153347683661733)">6</text>
<rect class="edge_bg" x="0.2051788398628927" y="1.5275686605449295" width="0.1845902156424881" height="0.1845902156424881"/>
<text class="edge_text" text-anchor="middle" dominant-baseline="middle" transform="matrix(0.009229510782124403 0 0 0.009229510782124403 0.29747394768413676 1.6198637683661734)">3</text>
<rect class="edge_bg" x="-0.7893431601371074" y="1.6320966605449294" width="0.1845902156424881" height="0.1845902156424881"/>
<text class="edge_text" text-anchor="middle" dominant-baseline="middle" transform="matrix(0.009229510782124403 0 0 0.009229510782124403 -0.6970480523158633 1.7243917683661734)">29</text>
<rect class="edge_bg" x="-1.3388685643131273" y="1.1870998703275637" width="0.1845902156424881" height="0.1845902156424881"/>
<text class="edge_text" text-anchor="middle" dominant-baseline="middle" transform="matrix(0.009229510782124403 0 0 0.009229510782124403 -1.2465734564918833 1.2793949781488076)">25</text>
<rect class="edge_bg" x="-1.8712937399690917" y="-0.00874667530311847" width="0.1845902156424881" height="0.1845902156424881"/>
<text class="edge_text" text-anchor="middle" dominant-baseline="middle" transform="matrix(0.009229510782124403 0 0 0.009229510782124403 -1.7789986321478477 0.08354843251812558)">39</text>
<rect class="edge_bg" x="-1.9752488099092538" y="-0.49782061063377026" width="0.1845902156424881" height="0.1845902156424881"/>
<text class="edge_text" text-anchor="middle" dominant-baseline="middle" transform="matrix(0.009229510782124403 0 0 0.009229510782124403 -1.8829537020880098 -0.4055255028125262)">44</text>
<rect class="edge_bg" x="-1.205828197561923" y="-0.7478200946396198" width="0.1845902156424881" height="0.1845902156424881"/>
<text class="edge_text" text-anchor="middle" dominant-baseline="middle" transform="matrix(0.009229510782124403 0 0 0.009229510782124403 -1.113533089740679 -0.6555249868183758)">41</text>
</svg>
