<?xml version="1.0" encoding="utf-8"?>
<svg version="1.1" xmlns="http://www.w3.org/2000/svg" viewBox="-3.0898306788772656 -1.0541961846965182 7.939568931079569 4.566943270509263" style="enable-background:new -3.0898306788772656 -1.0541961846965182 7.939568931079569 4.566943270509263;">
<style type="text/css">
  .face_stroke {fill:none; stroke:#000000; stroke-width:0.02; stroke-miterlimit:10;}
  .face_text {fill:#000000; font-family:monospace;}
  .edge_text {fill:#ff0000; font-family:monospace;}
  .edge_bg {fill:#f3f3f3; stroke:#606060; stroke-width:0.01;}
</style>
<polygon class="face_stroke" points="0.288675134594813,-0.5 -0.5773502691896258,-7.07050159149938e-17 0.288675134594813,0.5"/>
<polygon class="face_stroke" points="0.2886750397644132,0.4999999999999999 1.2397315560595668,0.8090169943749475 1.82751680835204,2.0834935792808685e-16 1.239731556059567,-0.8090169943749473 0.28867503976441344,-0.5000000000000001"/>
<polygon class="face_stroke" points="1.2397312841130843,0.8090165103690978 2.2342531794813576,0.9135449736367516 1.8275165364055577,-4.840058495103605e-07"/>
<polygon class="face_stroke" points="2.23425359582398,0.9135452097826345 3.2287754911922533,0.809016746514981 3.4366871820100124,-0.16913085421882454 2.570661778225574,-0.6691308542188246 1.8275169527481796,-2.4785996635690033e-07"/>
<polygon class="face_stroke" points="3.2287752642956957,0.809016865036251 4.17983178059085,0.4999998706613039 3.4366869551134553,-0.16913073569755466"/>
<polygon class="face_stroke" points="3.2287752446649494,0.8090172390398969 3.537792239039897,1.7600737553350503 4.4888487553350505,1.4510567609601033 4.179831760960103,0.5000002446649495"/>
<polygon class="face_stroke" points="3.228775760960103,0.8090172446649495 2.2777192446649495,1.118034239039897 2.586736239039897,2.0690907553350506 3.5377927553350506,1.7600737609601032"/>
<polygon class="face_stroke" points="2.277718760960103,1.1180342446649494 1.3266622446649494,1.4270512390398968 1.6356792390398969,2.3781077553350505 2.5867357553350505,2.069090760960103"/>
<polygon class="face_stroke" points="1.3266627609601032,1.4270512446649493 0.37560624466494963,1.7360682390398967 0.6846232390398969,2.6871247553350504 1.6356797553350506,2.378107760960103"/>
<polygon class="face_stroke" points="0.3756057609601032,1.7360682446649496 -0.5754507553350504,2.045085239039897 -0.2664337609601032,2.9961417553350507 0.6846227553350505,2.687124760960103"/>
<polygon class="face_stroke" points="-0.5754502390398968,2.0450852446649495 -1.5265067553350504,2.354102239039897 -1.2174897609601032,3.3051587553350505 -0.26643324466494955,2.996141760960103"/>
<polygon class="face_stroke" points="-0.5754510397644131,2.0450850000000003 -0.5754510397644131,1.045085 -1.5265075560595667,0.7360680056250526 -2.11429280835204,1.545085 -1.526507556059567,2.3541019943749473"/>
<polygon class="face_stroke" points="-1.5265072841130842,0.7360674896309021 -2.5210291794813577,0.6315390263632484 -2.1142925364055576,1.5450844840058495"/>
<polygon class="face_stroke" points="-1.52650759582398,0.7360682097826344 -1.1197709527481798,-0.17747724785996635 -1.862915778225574,-0.8466078542188245 -2.7289411820100122,-0.34660785421882473 -2.5210294911922535,0.6315397465149808"/>
<polygon class="face_stroke" points="-1.5265071794813578,0.7360679736367515 -0.5319852841130844,0.631539510369098 -1.1197705364055572,-0.1774774840058495"/>
<text class="face_text" text-anchor="middle" dominant-baseline="middle" transform="matrix(0.009133886541018526 0 0 0.009133886541018526 0.0 0.0)">1</text>
<text class="face_text" text-anchor="middle" dominant-baseline="middle" transform="matrix(0.009133886541018526 0 0 0.009133886541018526 0.976866 0.0)">0</text>
<text class="face_text" text-anchor="middle" dominant-baseline="middle" transform="matrix(0.009133886541018526 0 0 0.009133886541018526 1.767167 0.574187)">4</text>
<text class="face_text" text-anchor="middle" dominant-baseline="middle" transform="matrix(0.009133886541018526 0 0 0.009133886541018526 2.659579 0.17686)">6</text>
<text class="face_text" text-anchor="middle" dominant-baseline="middle" transform="matrix(0.009133886541018526 0 0 0.009133886541018526 3.615098 0.379962)">8</text>
<text class="face_text" text-anchor="middle" dominant-baseline="middle" transform="matrix(0.009133886541018526 0 0 0.009133886541018526 3.858812 1.130037)">9</text>
<text class="face_text" text-anchor="middle" dominant-baseline="middle" transform="matrix(0.009133886541018526 0 0 0.009133886541018526 2.907756 1.439054)">7</text>
<text class="face_text" text-anchor="middle" dominant-baseline="middle" transform="matrix(0.009133886541018526 0 0 0.009133886541018526 1.956699 1.748071)">5</text>
<text class="face_text" text-anchor="middle" dominant-baseline="middle" transform="matrix(0.009133886541018526 0 0 0.009133886541018526 1.005643 2.057088)">3</text>
<text class="face_text" text-anchor="middle" dominant-baseline="middle" transform="matrix(0.009133886541018526 0 0 0.009133886541018526 0.054586 2.366105)">2</text>
<text class="face_text" text-anchor="middle" dominant-baseline="middle" transform="matrix(0.009133886541018526 0 0 0.009133886541018526 -0.89647 2.675122)">19</text>
<text class="face_text" text-anchor="middle" dominant-baseline="middle" transform="matrix(0.009133886541018526 0 0 0.009133886541018526 -1.263642 1.545085)">18</text>
<text class="face_text" text-anchor="middle" dominant-baseline="middle" transform="matrix(0.009133886541018526 0 0 0.009133886541018526 -2.053943 0.970897)">24</text>
<text class="face_text" text-anchor="middle" dominant-baseline="middle" transform="matrix(0.009133886541018526 0 0 0.009133886541018526 -1.951833 -0.000617)">25</text>
<text class="face_text" text-anchor="middle" dominant-baseline="middle" transform="matrix(0.009133886541018526 0 0 0.009133886541018526 -1.059421 0.39671)">20</text>
<rect class="edge_bg" x="0.19733617435422796" y="-0.09133886541018535" width="0.18267773082037053" height="0.18267773082037053"/>
<text class="edge_text" text-anchor="middle" dominant-baseline="middle" transform="matrix(0.009133886541018526 0 0 0.009133886541018526 0.2886750397644132 -8.427908566546547e-17)">2</text>
<rect class="edge_bg" x="1.4422850448491358" y="0.31316914777143895" width="0.18267773082037053" height="0.18267773082037053"/>
<text class="edge_text" text-anchor="middle" dominant-baseline="middle" transform="matrix(0.009133886541018526 0 0 0.009133886541018526 1.533623910259321 0.4045080131816242)">5</text>
<rect class="edge_bg" x="1.9395464088758945" y="0.365433615551149" width="0.18267773082037053" height="0.18267773082037053"/>
<text class="edge_text" text-anchor="middle" dominant-baseline="middle" transform="matrix(0.009133886541018526 0 0 0.009133886541018526 2.0308852742860797 0.45677248096133427)">8</text>
<rect class="edge_bg" x="3.2413922442943903" y="0.22860419925916292" width="0.18267773082037053" height="0.18267773082037053"/>
<text class="edge_text" text-anchor="middle" dominant-baseline="middle" transform="matrix(0.009133886541018526 0 0 0.009133886541018526 3.3327311097045755 0.3199430646693482)">11</text>
<rect class="edge_bg" x="3.612964637402341" y="0.5631698764422377" width="0.18267773082037053" height="0.18267773082037053"/>
<text class="edge_text" text-anchor="middle" dominant-baseline="middle" transform="matrix(0.009133886541018526 0 0 0.009133886541018526 3.704303502812526 0.654508741852423)">10</text>
<rect class="edge_bg" x="3.2919453927373916" y="1.1932066374023411" width="0.18267773082037053" height="0.18267773082037053"/>
<text class="edge_text" text-anchor="middle" dominant-baseline="middle" transform="matrix(0.009133886541018526 0 0 0.009133886541018526 3.383284258147577 1.2845455028125263)">12</text>
<rect class="edge_bg" x="2.3408883927373916" y="1.502223637402341" width="0.18267773082037053" height="0.18267773082037053"/>
<text class="edge_text" text-anchor="middle" dominant-baseline="middle" transform="matrix(0.009133886541018526 0 0 0.009133886541018526 2.432227258147577 1.5935625028125262)">9</text>
<rect class="edge_bg" x="1.3898323927373917" y="1.8112406374023409" width="0.18267773082037053" height="0.18267773082037053"/>
<text class="edge_text" text-anchor="middle" dominant-baseline="middle" transform="matrix(0.009133886541018526 0 0 0.009133886541018526 1.4811712581475769 1.902579502812526)">6</text>
<rect class="edge_bg" x="0.4387753927373916" y="2.120257637402341" width="0.18267773082037053" height="0.18267773082037053"/>
<text class="edge_text" text-anchor="middle" dominant-baseline="middle" transform="matrix(0.009133886541018526 0 0 0.009133886541018526 0.5301142581475768 2.2115965028125264)">3</text>
<rect class="edge_bg" x="-0.5122806072626084" y="2.429274637402341" width="0.18267773082037053" height="0.18267773082037053"/>
<text class="edge_text" text-anchor="middle" dominant-baseline="middle" transform="matrix(0.009133886541018526 0 0 0.009133886541018526 -0.4209417418524231 2.5206135028125263)">29</text>
<rect class="edge_bg" x="-1.142318163322175" y="2.1082546317772883" width="0.18267773082037053" height="0.18267773082037053"/>
<text class="edge_text" text-anchor="middle" dominant-baseline="middle" transform="matrix(0.009133886541018526 0 0 0.009133886541018526 -1.0509792979119899 2.1995934971874735)">25</text>
<rect class="edge_bg" x="-1.9117387756695061" y="1.0492371214081906" width="0.18267773082037053" height="0.18267773082037053"/>
<text class="edge_text" text-anchor="middle" dominant-baseline="middle" transform="matrix(0.009133886541018526 0 0 0.009133886541018526 -1.820399910259321 1.1405759868183758)">39</text>
<rect class="edge_bg" x="-2.115107408918302" y="0.5924651127386227" width="0.18267773082037053" height="0.18267773082037053"/>
<text class="edge_text" text-anchor="middle" dominant-baseline="middle" transform="matrix(0.009133886541018526 0 0 0.009133886541018526 -2.0237685435081167 0.6838039781488079)">44</text>
<rect class="edge_bg" x="-1.414477723353643" y="0.18795637940526566" width="0.18267773082037053" height="0.18267773082037053"/>
<text class="edge_text" text-anchor="middle" dominant-baseline="middle" transform="matrix(0.009133886541018526 0 0 0.009133886541018526 -1.3231388579434578 0.2792952448154509)">41</text>
</svg>
