<?xml version="1.0" encoding="utf-8"?>
<svg version="1.1" xmlns="http://www.w3.org/2000/svg" viewBox="-2.6962670933419774 -1.3551113053663773 8.634606928340588 5.993572102842339" style="enable-background:new -2.6962670933419774 -1.3551113053663773 8.634606928340588 5.993572102842339;">
<style type="text/css">
  .face_stroke {fill:none; stroke:#000000; stroke-width:0.02; stroke-miterlimit:10;}
  .face_text {fill:#000000; font-family:monospace;}
  .edge_text {fill:#ff0000; font-family:monospace;}
  .edge_bg {fill:#f3f3f3; stroke:#606060; stroke-width:0.01;}
</style>
<polygon class="face_stroke" points="0.288675134594813,-0.5 -0.5773502691896258,-7.07050159149938e-17 0.288675134594813,0.5"/>
<polygon class="face_stroke" points="0.2886750397644132,0.4999999999999999 1.2397315560595668,0.8090169943749475 1.82751680835204,2.0834935792808685e-16 1.239731556059567,-0.8090169943749473 0.28867503976441344,-0.5000000000000001"/>
<polygon class="face_stroke" points="1.2397312841130843,0.8090165103690978 2.2342531794813576,0.9135449736367516 1.8275165364055577,-4.840058495103605e-07"/>
<polygon class="face_stroke" points="2.23425359582398,0.9135452097826345 3.2287754911922533,0.809016746514981 3.4366871820100124,-0.16913085421882454 2.570661778225574,-0.6691308542188246 1.8275169527481796,-2.4785996635690033e-07"/>
<polygon class="face_stroke" points="3.2287752642956957,0.809016865036251 4.17983178059085,0.4999998706613039 3.4366869551134553,-0.16913073569755466"/>
<polygon class="face_stroke" points="4.179831778225574,0.4999998542188246 5.045857182010012,-1.457811754645988e-07 4.837945491192253,-0.978147746514981 3.84342359582398,-1.0826762097826346 3.4366869527481794,-0.16913075214003387"/>
<polygon class="face_stroke" points="4.1798322981077805,0.5000002981077805 4.6798322981077805,1.3660257018922195 5.54585770189222,0.8660257018922193 5.04585770189222,2.981077805719323e-07"/>
<polygon class="face_stroke" points="4.179831701892219,0.5000002981077807 3.3138062981077807,1.0000002981077807 3.8138062981077807,1.8660257018922195 4.679831701892219,1.3660257018922193"/>
<polygon class="face_stroke" points="3.313806701892219,1.0000002981077807 2.4477812981077807,1.5000002981077807 2.9477812981077807,2.3660257018922195 3.8138067018922195,1.8660257018922193"/>
<polygon class="face_stroke" points="2.4477807018922193,1.5000002981077805 1.581755298107781,2.0000002981077802 2.081755298107781,2.8660257018922195 2.9477807018922197,2.366025701892219"/>
<polygon class="face_stroke" points="1.5817557018922195,2.0000002981077802 0.7157302981077808,2.5000002981077802 1.2157302981077809,3.3660257018922195 2.0817557018922193,2.866025701892219"/>
<polygon class="face_stroke" points="0.7157307018922193,2.5000002981077802 -0.15029470189221927,3.0000002981077802 0.3497052981077808,3.8660257018922195 1.2157307018922194,3.366025701892219"/>
<polygon class="face_stroke" points="-0.15029529810778067,3.0000002981077802 -1.0163207018922193,3.5000002981077802 -0.5163207018922192,4.3660257018922195 0.3497047018922194,3.866025701892219"/>
<polygon class="face_stroke" points="-0.15029481798998734,2.9999998542188244 -0.3582065088077466,2.0218522534850187 -1.3527284041760197,1.9173237902173654 -1.7594650472518203,2.830869247859966 -1.0163202217744258,3.4999998542188244"/>
<polygon class="face_stroke" points="-0.3582068205186421,2.0218519736367515 -0.7649434635944424,1.1083065159941503 -1.3527287158869157,1.9173235103690978"/>
<polygon class="face_stroke" points="-0.7649431916479601,1.108307 -1.3527284439404332,0.2992900056250526 -2.3037849602355864,0.6083069999999998 -2.303784960235587,1.608307 -1.3527284439404332,1.9173239943749474"/>
<polygon class="face_stroke" points="-0.7649434635944424,1.1083064840058494 -0.3582068205186421,0.1947610263632485 -1.3527287158869155,0.29928948963090185"/>
<text class="face_text" text-anchor="middle" dominant-baseline="middle" transform="matrix(0.01198714420568468 0 0 0.01198714420568468 0.0 0.0)">1</text>
<text class="face_text" text-anchor="middle" dominant-baseline="middle" transform="matrix(0.01198714420568468 0 0 0.01198714420568468 0.976866 0.0)">0</text>
<text class="face_text" text-anchor="middle" dominant-baseline="middle" transform="matrix(0.01198714420568468 0 0 0.01198714420568468 1.767167 0.574187)">4</text>
<text class="face_text" text-anchor="middle" dominant-baseline="middle" transform="matrix(0.01198714420568468 0 0 0.01198714420568468 2.659579 0.17686)">6</text>
<text class="face_text" text-anchor="middle" dominant-baseline="middle" transform="matrix(0.01198714420568468 0 0 0.01198714420568468 3.615098 0.379962)">8</text>
<text class="face_text" text-anchor="middle" dominant-baseline="middle" transform="matrix(0.01198714420568468 0 0 0.01198714420568468 4.268749 -0.345991)">10</text>
<text class="face_text" text-anchor="middle" dominant-baseline="middle" transform="matrix(0.01198714420568468 0 0 0.01198714420568468 4.862845 0.683013)">11</text>
<text class="face_text" text-anchor="middle" dominant-baseline="middle" transform="matrix(0.01198714420568468 0 0 0.01198714420568468 3.996819 1.183013)">9</text>
<text class="face_text" text-anchor="middle" dominant-baseline="middle" transform="matrix(0.01198714420568468 0 0 0.01198714420568468 3.130794 1.683013)">7</text>
<text class="face_text" text-anchor="middle" dominant-baseline="middle" transform="matrix(0.01198714420568468 0 0 0.01198714420568468 2.264768 2.183013)">5</text>
<text class="face_text" text-anchor="middle" dominant-baseline="middle" transform="matrix(0.01198714420568468 0 0 0.01198714420568468 1.398743 2.683013)">3</text>
<text class="face_text" text-anchor="middle" dominant-baseline="middle" transform="matrix(0.01198714420568468 0 0 0.01198714420568468 0.532718 3.183013)">2</text>
<text class="face_text" text-anchor="middle" dominant-baseline="middle" transform="matrix(0.01198714420568468 0 0 0.01198714420568468 -0.333308 3.683013)">19</text>
<text class="face_text" text-anchor="middle" dominant-baseline="middle" transform="matrix(0.01198714420568468 0 0 0.01198714420568468 -0.927403 2.654009)">18</text>
<text class="face_text" text-anchor="middle" dominant-baseline="middle" transform="matrix(0.01198714420568468 0 0 0.01198714420568468 -0.825293 1.682494)">20</text>
<text class="face_text" text-anchor="middle" dominant-baseline="middle" transform="matrix(0.01198714420568468 0 0 0.01198714420568468 -1.615594 1.108307)">25</text>
<text class="face_text" text-anchor="middle" dominant-baseline="middle" transform="matrix(0.01198714420568468 0 0 0.01198714420568468 -0.825293 0.534119)">21</text>
<rect class="edge_bg" x="0.16880359770756642" y="-0.11987144205684687" width="0.23974288411369357" height="0.23974288411369357"/>
<text class="edge_text" text-anchor="middle" dominant-baseline="middle" transform="matrix(0.01198714420568468 0 0 0.01198714420568468 0.2886750397644132 -8.427908566546547e-17)">2</text>
<rect class="edge_bg" x="1.4137524682024742" y="0.2846365711247774" width="0.23974288411369357" height="0.23974288411369357"/>
<text class="edge_text" text-anchor="middle" dominant-baseline="middle" transform="matrix(0.01198714420568468 0 0 0.01198714420568468 1.533623910259321 0.4045080131816242)">5</text>
<rect class="edge_bg" x="1.911013832229233" y="0.33690103890448747" width="0.23974288411369357" height="0.23974288411369357"/>
<text class="edge_text" text-anchor="middle" dominant-baseline="middle" transform="matrix(0.01198714420568468 0 0 0.01198714420568468 2.0308852742860797 0.45677248096133427)">8</text>
<rect class="edge_bg" x="3.2128596676477286" y="0.2000716226125014" width="0.23974288411369357" height="0.23974288411369357"/>
<text class="edge_text" text-anchor="middle" dominant-baseline="middle" transform="matrix(0.01198714420568468 0 0 0.01198714420568468 3.3327311097045755 0.3199430646693482)">11</text>
<rect class="edge_bg" x="3.68838792343003" y="0.045563108982548686" width="0.23974288411369357" height="0.23974288411369357"/>
<text class="edge_text" text-anchor="middle" dominant-baseline="middle" transform="matrix(0.01198714420568468 0 0 0.01198714420568468 3.808259365486877 0.16543455103939547)">14</text>
<rect class="edge_bg" x="4.492973557943153" y="0.13012885605093372" width="0.23974288411369357" height="0.23974288411369357"/>
<text class="edge_text" text-anchor="middle" dominant-baseline="middle" transform="matrix(0.01198714420568468 0 0 0.01198714420568468 4.612845 0.2500002981077805)">13</text>
<rect class="edge_bg" x="4.309960259835372" y="0.8131415579431533" width="0.23974288411369357" height="0.23974288411369357"/>
<text class="edge_text" text-anchor="middle" dominant-baseline="middle" transform="matrix(0.01198714420568468 0 0 0.01198714420568468 4.429831701892219 0.9330130000000001)">15</text>
<rect class="edge_bg" x="3.4439352598353725" y="1.3131415579431533" width="0.23974288411369357" height="0.23974288411369357"/>
<text class="edge_text" text-anchor="middle" dominant-baseline="middle" transform="matrix(0.01198714420568468 0 0 0.01198714420568468 3.5638067018922195 1.433013)">12</text>
<rect class="edge_bg" x="2.577909259835373" y="1.8131415579431531" width="0.23974288411369357" height="0.23974288411369357"/>
<text class="edge_text" text-anchor="middle" dominant-baseline="middle" transform="matrix(0.01198714420568468 0 0 0.01198714420568468 2.6977807018922197 1.9330129999999999)">9</text>
<rect class="edge_bg" x="1.7118842598353727" y="2.313141557943153" width="0.23974288411369357" height="0.23974288411369357"/>
<text class="edge_text" text-anchor="middle" dominant-baseline="middle" transform="matrix(0.01198714420568468 0 0 0.01198714420568468 1.8317557018922195 2.433013)">6</text>
<rect class="edge_bg" x="0.8458592598353727" y="2.813141557943153" width="0.23974288411369357" height="0.23974288411369357"/>
<text class="edge_text" text-anchor="middle" dominant-baseline="middle" transform="matrix(0.01198714420568468 0 0 0.01198714420568468 0.9657307018922194 2.933013)">3</text>
<rect class="edge_bg" x="-0.020166740164627314" y="3.313141557943153" width="0.23974288411369357" height="0.23974288411369357"/>
<text class="edge_text" text-anchor="middle" dominant-baseline="middle" transform="matrix(0.01198714420568468 0 0 0.01198714420568468 0.09970470189221947 3.433013)">29</text>
<rect class="edge_bg" x="-0.7031789619390533" y="3.1301284121619775" width="0.23974288411369357" height="0.23974288411369357"/>
<text class="edge_text" text-anchor="middle" dominant-baseline="middle" transform="matrix(0.01198714420568468 0 0 0.01198714420568468 -0.5833075198822065 3.2499998542188244)">25</text>
<rect class="edge_bg" x="-0.9753392102596256" y="1.849716299946078" width="0.23974288411369357" height="0.23974288411369357"/>
<text class="edge_text" text-anchor="middle" dominant-baseline="middle" transform="matrix(0.01198714420568468 0 0 0.01198714420568468 -0.8554677682027788 1.9695877420029246)">31</text>
<rect class="edge_bg" x="-1.1787072598510433" y="1.392944055130627" width="0.23974288411369357" height="0.23974288411369357"/>
<text class="edge_text" text-anchor="middle" dominant-baseline="middle" transform="matrix(0.01198714420568468 0 0 0.01198714420568468 -1.0588358177941966 1.5128154971874737)">41</text>
<rect class="edge_bg" x="-1.1787075317975257" y="0.583926544761529" width="0.23974288411369357" height="0.23974288411369357"/>
<text class="edge_text" text-anchor="middle" dominant-baseline="middle" transform="matrix(0.01198714420568468 0 0 0.01198714420568468 -1.058836089740679 0.7037979868183758)">40</text>
</svg>
