<?xml version="1.0" encoding="utf-8"?>
<svg version="1.1" xmlns="http://www.w3.org/2000/svg" viewBox="-2.729632450211014 -1.5031001846965182 6.459953900422027 4.566943270509262" style="enable-background:new -2.729632450211014 -1.5031001846965182 6.459953900422027 4.566943270509262;">
<style type="text/css">
  .face_stroke {fill:none; stroke:#000000; stroke-width:0.02; stroke-miterlimit:10;}
  .face_text {fill:#000000; font-family:monospace;}
  .edge_text {fill:#ff0000; font-family:monospace;}
  .edge_bg {fill:#f3f3f3; stroke:#606060; stroke-width:0.01;}
</style>
<polygon class="face_stroke" points="0.288675134594813,-0.5 -0.5773502691896258,-7.07050159149938e-17 0.288675134594813,0.5"/>
<polygon class="face_stroke" points="0.2886750397644132,0.4999999999999999 1.2397315560595668,0.8090169943749475 1.82751680835204,2.0834935792808685e-16 1.239731556059567,-0.8090169943749473 0.28867503976441344,-0.5000000000000001"/>
<polygon class="face_stroke" points="1.8275165364055577,4.840058495103605e-07 2.234253179481358,-0.9135449736367516 1.2397312841130845,-0.8090165103690982"/>
<polygon class="face_stroke" points="1.8275169527481796,2.478599661348557e-07 2.570661778225574,0.6691308542188246 3.4366871820100124,0.16913085421882454 3.2287754911922537,-0.8090167465149806 2.2342535958239806,-0.9135452097826349"/>
<polygon class="face_stroke" points="1.827516955113455,2.643024453741205e-07 1.6196052642956955,0.978147865036251 2.570661780590849,0.669130870661304"/>
<polygon class="face_stroke" points="1.6196052446649496,0.9781472390398969 1.928622239039897,1.9292037553350503 2.8796787553350507,1.6201867609601033 2.5706617609601032,0.6691302446649495"/>
<polygon class="face_stroke" points="1.6196047609601032,0.9781472446649495 0.6685482446649497,1.287164239039897 0.9775652390398969,2.2382207553350506 1.9286217553350506,1.9292037609601032"/>
<polygon class="face_stroke" points="0.6685487609601031,1.2871642446649494 -0.28250775533505046,1.5961812390398968 0.02650923903989677,2.5472377553350505 0.9775657553350504,2.238220760960103"/>
<polygon class="face_stroke" points="-0.2825082390398968,1.5961812446649493 -1.2335647553350504,1.9051982390398967 -0.9245477609601032,2.8562547553350504 0.026508755335050482,2.547237760960103"/>
<polygon class="face_stroke" points="-0.2825080397644132,1.596182 -0.2825080397644132,0.596182 -1.2335645560595667,0.28716500562505254 -1.8213498083520399,1.096182 -1.233564556059567,1.9051989943749472"/>
<polygon class="face_stroke" points="-1.2335642841130845,0.28716448963090196 -2.228086179481358,0.18263602636324838 -1.8213495364055574,1.0961814840058495"/>
<polygon class="face_stroke" points="-1.2335645958239798,0.2871642097826344 -0.8268279527481798,-0.6263812478599664 -1.5699727782255741,-1.2955118542188244 -2.4359981820100125,-0.7955118542188248 -2.2280864911922533,0.18263574651498077"/>
<polygon class="face_stroke" points="-1.2335641794813579,0.2871649736367515 -0.23904228411308448,0.182636510369098 -0.8268275364055573,-0.6263804840058496"/>
<text class="face_text" text-anchor="middle" dominant-baseline="middle" transform="matrix(0.009133886541018524 0 0 0.009133886541018524 0.0 0.0)">1</text>
<text class="face_text" text-anchor="middle" dominant-baseline="middle" transform="matrix(0.009133886541018524 0 0 0.009133886541018524 0.976866 0.0)">0</text>
<text class="face_text" text-anchor="middle" dominant-baseline="middle" transform="matrix(0.009133886541018524 0 0 0.009133886541018524 1.767167 -0.574187)">21</text>
<text class="face_text" text-anchor="middle" dominant-baseline="middle" transform="matrix(0.009133886541018524 0 0 0.009133886541018524 2.659579 -0.17686)">6</text>
<text class="face_text" text-anchor="middle" dominant-baseline="middle" transform="matrix(0.009133886541018524 0 0 0.009133886541018524 2.005928 0.549093)">4</text>
<text class="face_text" text-anchor="middle" dominant-baseline="middle" transform="matrix(0.009133886541018524 0 0 0.009133886541018524 2.249642 1.299167)">5</text>
<text class="face_text" text-anchor="middle" dominant-baseline="middle" transform="matrix(0.009133886541018524 0 0 0.009133886541018524 1.298585 1.608184)">3</text>
<text class="face_text" text-anchor="middle" dominant-baseline="middle" transform="matrix(0.009133886541018524 0 0 0.009133886541018524 0.347529 1.917201)">2</text>
<text class="face_text" text-anchor="middle" dominant-baseline="middle" transform="matrix(0.009133886541018524 0 0 0.009133886541018524 -0.603528 2.226218)">19</text>
<text class="face_text" text-anchor="middle" dominant-baseline="middle" transform="matrix(0.009133886541018524 0 0 0.009133886541018524 -0.970699 1.096182)">18</text>
<text class="face_text" text-anchor="middle" dominant-baseline="middle" transform="matrix(0.009133886541018524 0 0 0.009133886541018524 -1.761 0.521994)">24</text>
<text class="face_text" text-anchor="middle" dominant-baseline="middle" transform="matrix(0.009133886541018524 0 0 0.009133886541018524 -1.65889 -0.449521)">25</text>
<text class="face_text" text-anchor="middle" dominant-baseline="middle" transform="matrix(0.009133886541018524 0 0 0.009133886541018524 -0.766478 -0.052193)">20</text>
<rect class="edge_bg" x="0.19733617435422796" y="-0.09133886541018534" width="0.1826777308203705" height="0.1826777308203705"/>
<text class="edge_text" text-anchor="middle" dominant-baseline="middle" transform="matrix(0.009133886541018524 0 0 0.009133886541018524 0.2886750397644132 -8.427908566546547e-17)">2</text>
<rect class="edge_bg" x="1.4422850448491358" y="-0.4958468785918095" width="0.1826777308203705" height="0.1826777308203705"/>
<text class="edge_text" text-anchor="middle" dominant-baseline="middle" transform="matrix(0.009133886541018524 0 0 0.009133886541018524 1.533623910259321 -0.4045080131816242)">32</text>
<rect class="edge_bg" x="1.9395464088758945" y="-0.5481113463715195" width="0.1826777308203705" height="0.1826777308203705"/>
<text class="edge_text" text-anchor="middle" dominant-baseline="middle" transform="matrix(0.009133886541018524 0 0 0.009133886541018524 2.0308852742860797 -0.45677248096133427)">33</text>
<rect class="edge_bg" x="2.107750502441967" y="0.24322670207168923" width="0.1826777308203705" height="0.1826777308203705"/>
<text class="edge_text" text-anchor="middle" dominant-baseline="middle" transform="matrix(0.009133886541018524 0 0 0.009133886541018524 2.199089367852152 0.3345655674818745)">8</text>
<rect class="edge_bg" x="2.003794637402341" y="0.7322998764422378" width="0.1826777308203705" height="0.1826777308203705"/>
<text class="edge_text" text-anchor="middle" dominant-baseline="middle" transform="matrix(0.009133886541018524 0 0 0.009133886541018524 2.0951335028125264 0.823638741852423)">4</text>
<rect class="edge_bg" x="1.6827743927373917" y="1.3623366374023411" width="0.1826777308203705" height="0.1826777308203705"/>
<text class="edge_text" text-anchor="middle" dominant-baseline="middle" transform="matrix(0.009133886541018524 0 0 0.009133886541018524 1.774113258147577 1.4536755028125263)">6</text>
<rect class="edge_bg" x="0.7317183927373916" y="1.671353637402341" width="0.1826777308203705" height="0.1826777308203705"/>
<text class="edge_text" text-anchor="middle" dominant-baseline="middle" transform="matrix(0.009133886541018524 0 0 0.009133886541018524 0.8230572581475768 1.7626925028125262)">3</text>
<rect class="edge_bg" x="-0.21933860726260834" y="1.9803706374023409" width="0.1826777308203705" height="0.1826777308203705"/>
<text class="edge_text" text-anchor="middle" dominant-baseline="middle" transform="matrix(0.009133886541018524 0 0 0.009133886541018524 -0.12799974185242308 2.071709502812526)">29</text>
<rect class="edge_bg" x="-0.8493751633221752" y="1.6593516317772885" width="0.1826777308203705" height="0.1826777308203705"/>
<text class="edge_text" text-anchor="middle" dominant-baseline="middle" transform="matrix(0.009133886541018524 0 0 0.009133886541018524 -0.75803629791199 1.7506904971874737)">25</text>
<rect class="edge_bg" x="-1.6187957756695062" y="0.6003341214081905" width="0.1826777308203705" height="0.1826777308203705"/>
<text class="edge_text" text-anchor="middle" dominant-baseline="middle" transform="matrix(0.009133886541018524 0 0 0.009133886541018524 -1.527456910259321 0.6916729868183757)">39</text>
<rect class="edge_bg" x="-1.8221644089183018" y="0.1435611127386226" width="0.1826777308203705" height="0.1826777308203705"/>
<text class="edge_text" text-anchor="middle" dominant-baseline="middle" transform="matrix(0.009133886541018524 0 0 0.009133886541018524 -1.7308255435081166 0.23489997814880786)">44</text>
<rect class="edge_bg" x="-1.121534723353643" y="-0.26094662059473434" width="0.1826777308203705" height="0.1826777308203705"/>
<text class="edge_text" text-anchor="middle" dominant-baseline="middle" transform="matrix(0.009133886541018524 0 0 0.009133886541018524 -1.0301958579434578 -0.1696077551845491)">41</text>
</svg>
