<?xml version="1.0" encoding="utf-8"?>
<svg version="1.1" xmlns="http://www.w3.org/2000/svg" viewBox="-2.4656861522023035 -1.117486058038519 6.183438731079569 4.486698661629454" style="enable-background:new -2.4656861522023035 -1.117486058038519 6.183438731079569 4.486698661629454;">
<style type="text/css">
  .face_stroke {fill:none; stroke:#000000; stroke-width:0.02; stroke-miterlimit:10;}
  .face_text {fill:#000000; font-family:monospace;}
  .edge_text {fill:#ff0000; font-family:monospace;}
  .edge_bg {fill:#f3f3f3; stroke:#606060; stroke-width:0.01;}
</style>
<polygon class="face_stroke" points="0.288675134594813,-0.5 -0.5773502691896258,-7.07050159149938e-17 0.288675134594813,0.5"/>
<polygon class="face_stroke" points="0.2886750397644132,0.4999999999999999 1.2397315560595668,0.8090169943749475 1.82751680835204,2.0834935792808685e-16 1.239731556059567,-0.8090169943749473 0.28867503976441344,-0.5000000000000001"/>
<polygon class="face_stroke" points="1.8275165364055577,4.840058495103605e-07 2.234253179481358,-0.9135449736367516 1.2397312841130845,-0.8090165103690982"/>
<polygon class="face_stroke" points="1.8275169527481796,2.478599661348557e-07 2.570661778225574,0.6691308542188246 3.4366871820100124,0.16913085421882454 3.2287754911922537,-0.8090167465149806 2.2342535958239806,-0.9135452097826349"/>
<polygon class="face_stroke" points="1.827516955113455,2.643024453741205e-07 1.6196052642956955,0.978147865036251 2.570661780590849,0.669130870661304"/>
<polygon class="face_stroke" points="1.6196052446649496,0.9781472390398969 1.928622239039897,1.9292037553350503 2.8796787553350507,1.6201867609601033 2.5706617609601032,0.6691302446649495"/>
<polygon class="face_stroke" points="1.6196047609601032,0.9781472446649495 0.6685482446649497,1.287164239039897 0.9775652390398969,2.2382207553350506 1.9286217553350506,1.9292037609601032"/>
<polygon class="face_stroke" points="0.6685487609601031,1.2871642446649494 -0.28250775533505046,1.5961812390398968 0.02650923903989677,2.5472377553350505 0.9775657553350504,2.238220760960103"/>
<polygon class="face_stroke" points="-0.2825082390398968,1.5961812446649493 -1.2335647553350504,1.9051982390398967 -0.9245477609601032,2.8562547553350504 0.026508755335050482,2.547237760960103"/>
<polygon class="face_stroke" points="-1.2335642390398969,1.9051982446649496 -2.1846207553350503,2.214215239039897 -1.8756037609601033,3.1652717553350507 -0.9245472446649495,2.8562547609601032"/>
<polygon class="face_stroke" points="-1.2335642194091507,1.9051988706613037 -1.976709044886545,1.2360682643024452 -2.1846207357043044,2.214215865036251"/>
<polygon class="face_stroke" points="-1.2335642217744258,1.9051988542188245 -0.36753881798998733,1.4051988542188245 -0.5754505088077466,0.42705125348501893 -1.5699724041760197,0.3225227902173654 -1.9767090472518203,1.236068247859966"/>
<polygon class="face_stroke" points="-0.5754508205186422,0.4270509736367515 -0.9821874635944424,-0.4864944840058495 -1.5699727158869157,0.3225225103690978"/>
<text class="face_text" text-anchor="middle" dominant-baseline="middle" transform="matrix(0.008973397323258909 0 0 0.008973397323258909 0.0 0.0)">1</text>
<text class="face_text" text-anchor="middle" dominant-baseline="middle" transform="matrix(0.008973397323258909 0 0 0.008973397323258909 0.976866 0.0)">0</text>
<text class="face_text" text-anchor="middle" dominant-baseline="middle" transform="matrix(0.008973397323258909 0 0 0.008973397323258909 1.767167 -0.574187)">21</text>
<text class="face_text" text-anchor="middle" dominant-baseline="middle" transform="matrix(0.008973397323258909 0 0 0.008973397323258909 2.659579 -0.17686)">6</text>
<text class="face_text" text-anchor="middle" dominant-baseline="middle" transform="matrix(0.008973397323258909 0 0 0.008973397323258909 2.005928 0.549093)">4</text>
<text class="face_text" text-anchor="middle" dominant-baseline="middle" transform="matrix(0.008973397323258909 0 0 0.008973397323258909 2.249642 1.299167)">5</text>
<text class="face_text" text-anchor="middle" dominant-baseline="middle" transform="matrix(0.008973397323258909 0 0 0.008973397323258909 1.298585 1.608184)">3</text>
<text class="face_text" text-anchor="middle" dominant-baseline="middle" transform="matrix(0.008973397323258909 0 0 0.008973397323258909 0.347529 1.917201)">2</text>
<text class="face_text" text-anchor="middle" dominant-baseline="middle" transform="matrix(0.008973397323258909 0 0 0.008973397323258909 -0.603528 2.226218)">19</text>
<text class="face_text" text-anchor="middle" dominant-baseline="middle" transform="matrix(0.008973397323258909 0 0 0.008973397323258909 -1.554584 2.535235)">17</text>
<text class="face_text" text-anchor="middle" dominant-baseline="middle" transform="matrix(0.008973397323258909 0 0 0.008973397323258909 -1.798298 1.785161)">16</text>
<text class="face_text" text-anchor="middle" dominant-baseline="middle" transform="matrix(0.008973397323258909 0 0 0.008973397323258909 -1.144647 1.059208)">18</text>
<text class="face_text" text-anchor="middle" dominant-baseline="middle" transform="matrix(0.008973397323258909 0 0 0.008973397323258909 -1.042537 0.087693)">20</text>
<rect class="edge_bg" x="0.19894106653182414" y="-0.08973397323258916" width="0.17946794646517816" height="0.17946794646517816"/>
<text class="edge_text" text-anchor="middle" dominant-baseline="middle" transform="matrix(0.008973397323258909 0 0 0.008973397323258909 0.2886750397644132 -8.427908566546547e-17)">2</text>
<rect class="edge_bg" x="1.443889937026732" y="-0.4942419864142133" width="0.17946794646517816" height="0.17946794646517816"/>
<text class="edge_text" text-anchor="middle" dominant-baseline="middle" transform="matrix(0.008973397323258909 0 0 0.008973397323258909 1.533623910259321 -0.4045080131816242)">32</text>
<rect class="edge_bg" x="1.9411513010534907" y="-0.5465064541939233" width="0.17946794646517816" height="0.17946794646517816"/>
<text class="edge_text" text-anchor="middle" dominant-baseline="middle" transform="matrix(0.008973397323258909 0 0 0.008973397323258909 2.0308852742860797 -0.45677248096133427)">33</text>
<rect class="edge_bg" x="2.109355394619563" y="0.2448315942492854" width="0.17946794646517816" height="0.17946794646517816"/>
<text class="edge_text" text-anchor="middle" dominant-baseline="middle" transform="matrix(0.008973397323258909 0 0 0.008973397323258909 2.199089367852152 0.3345655674818745)">8</text>
<rect class="edge_bg" x="2.0053995295799374" y="0.7339047686198339" width="0.17946794646517816" height="0.17946794646517816"/>
<text class="edge_text" text-anchor="middle" dominant-baseline="middle" transform="matrix(0.008973397323258909 0 0 0.008973397323258909 2.0951335028125264 0.823638741852423)">4</text>
<rect class="edge_bg" x="1.684379284914988" y="1.3639415295799373" width="0.17946794646517816" height="0.17946794646517816"/>
<text class="edge_text" text-anchor="middle" dominant-baseline="middle" transform="matrix(0.008973397323258909 0 0 0.008973397323258909 1.774113258147577 1.4536755028125263)">6</text>
<rect class="edge_bg" x="0.7333232849149878" y="1.6729585295799372" width="0.17946794646517816" height="0.17946794646517816"/>
<text class="edge_text" text-anchor="middle" dominant-baseline="middle" transform="matrix(0.008973397323258909 0 0 0.008973397323258909 0.8230572581475768 1.7626925028125262)">3</text>
<rect class="edge_bg" x="-0.21773371508501216" y="1.981975529579937" width="0.17946794646517816" height="0.17946794646517816"/>
<text class="edge_text" text-anchor="middle" dominant-baseline="middle" transform="matrix(0.008973397323258909 0 0 0.008973397323258909 -0.12799974185242308 2.071709502812526)">29</text>
<rect class="edge_bg" x="-1.1687897150850122" y="2.2909925295799374" width="0.17946794646517816" height="0.17946794646517816"/>
<text class="edge_text" text-anchor="middle" dominant-baseline="middle" transform="matrix(0.008973397323258909 0 0 0.008973397323258909 -1.0790557418524231 2.3807265028125264)">27</text>
<rect class="edge_bg" x="-1.7988264507893164" y="1.9699733946161886" width="0.17946794646517816" height="0.17946794646517816"/>
<text class="edge_text" text-anchor="middle" dominant-baseline="middle" transform="matrix(0.008973397323258909 0 0 0.008973397323258909 -1.7090924775567273 2.0597073678487776)">22</text>
<rect class="edge_bg" x="-1.694870607745712" y="1.4808995778068064" width="0.17946794646517816" height="0.17946794646517816"/>
<text class="edge_text" text-anchor="middle" dominant-baseline="middle" transform="matrix(0.008973397323258909 0 0 0.008973397323258909 -1.605136634513123 1.5706335510393954)">26</text>
<rect class="edge_bg" x="-1.162445741435368" y="0.28505276877033575" width="0.17946794646517816" height="0.17946794646517816"/>
<text class="edge_text" text-anchor="middle" dominant-baseline="middle" transform="matrix(0.008973397323258909 0 0 0.008973397323258909 -1.072711768202779 0.37478674200292483)">31</text>
</svg>
