<?xml version="1.0" encoding="utf-8"?>
<svg version="1.1" xmlns="http://www.w3.org/2000/svg" viewBox="-2.959496734709022 -1.1359802553663776 7.224573124058444 4.89357100284234" style="enable-background:new -2.959496734709022 -1.1359802553663776 7.224573124058444 4.89357100284234;">
<style type="text/css">
  .face_stroke {fill:none; stroke:#000000; stroke-width:0.02; stroke-miterlimit:10;}
  .face_text {fill:#000000; font-family:monospace;}
  .edge_text {fill:#ff0000; font-family:monospace;}
  .edge_bg {fill:#f3f3f3; stroke:#606060; stroke-width:0.01;}
</style>
<polygon class="face_stroke" points="0.288675134594813,-0.5 -0.5773502691896258,-7.07050159149938e-17 0.288675134594813,0.5"/>
<polygon class="face_stroke" points="0.2886750397644132,0.4999999999999999 1.2397315560595668,0.8090169943749475 1.82751680835204,2.0834935792808685e-16 1.239731556059567,-0.8090169943749473 0.28867503976441344,-0.5000000000000001"/>
<polygon class="face_stroke" points="1.8275165364055577,4.840058495103605e-07 2.234253179481358,-0.9135449736367516 1.2397312841130845,-0.8090165103690982"/>
<polygon class="face_stroke" points="1.8275169527481796,2.478599661348557e-07 2.570661778225574,0.6691308542188246 3.4366871820100124,0.16913085421882454 3.2287754911922537,-0.8090167465149806 2.2342535958239806,-0.9135452097826349"/>
<polygon class="face_stroke" points="2.570661298107781,0.6691302981077805 3.070661298107781,1.5351557018922195 3.93668670189222,1.0351557018922193 3.4366867018922194,0.16913029810778057"/>
<polygon class="face_stroke" points="2.5706617018922193,0.6691302981077807 1.704636298107781,1.1691302981077807 2.204636298107781,2.0351557018922195 3.0706617018922193,1.5351557018922193"/>
<polygon class="face_stroke" points="1.7046367018922195,1.1691302981077807 0.8386112981077808,1.6691302981077807 1.338611298107781,2.5351557018922195 2.2046367018922197,2.0351557018922195"/>
<polygon class="face_stroke" points="0.8386107018922193,1.6691302981077805 -0.027414701892219284,2.1691302981077802 0.47258529810778077,3.0351557018922195 1.3386107018922195,2.535155701892219"/>
<polygon class="face_stroke" points="-0.027414298107780677,2.1691302981077802 -0.8934397018922193,2.6691302981077802 -0.3934397018922192,3.5351557018922195 0.4725857018922194,3.035155701892219"/>
<polygon class="face_stroke" points="-0.02741481798998735,2.1691308542188246 -0.23532650880774664,1.1909832534850189 -1.2298484041760198,1.0864547902173656 -1.6365850472518202,2.0000002478599663 -0.8934402217744258,2.6691308542188246"/>
<polygon class="face_stroke" points="-1.229847820518642,1.0864550263632484 -2.2243697158869153,1.190983489630902 -1.6365844635944427,2.0000004840058496"/>
<polygon class="face_stroke" points="-1.2298485088077467,1.086454746514981 -1.0219368179899875,0.10830714578117545 -1.8879622217744259,-0.3916928542188246 -2.6311070472518203,0.27743775214003363 -2.22437040417602,1.190983209782634"/>
<polygon class="face_stroke" points="-1.2298477357043045,1.0864548650362509 -0.27879121940915064,0.7774378706613039 -1.0219360448865449,0.1083072643024453"/>
<text class="face_text" text-anchor="middle" dominant-baseline="middle" transform="matrix(0.00978714200568468 0 0 0.00978714200568468 0.0 0.0)">1</text>
<text class="face_text" text-anchor="middle" dominant-baseline="middle" transform="matrix(0.00978714200568468 0 0 0.00978714200568468 0.976866 0.0)">0</text>
<text class="face_text" text-anchor="middle" dominant-baseline="middle" transform="matrix(0.00978714200568468 0 0 0.00978714200568468 1.767167 -0.574187)">21</text>
<text class="face_text" text-anchor="middle" dominant-baseline="middle" transform="matrix(0.00978714200568468 0 0 0.00978714200568468 2.659579 -0.17686)">6</text>
<text class="face_text" text-anchor="middle" dominant-baseline="middle" transform="matrix(0.00978714200568468 0 0 0.00978714200568468 3.253674 0.852143)">7</text>
<text class="face_text" text-anchor="middle" dominant-baseline="middle" transform="matrix(0.00978714200568468 0 0 0.00978714200568468 2.387649 1.352143)">5</text>
<text class="face_text" text-anchor="middle" dominant-baseline="middle" transform="matrix(0.00978714200568468 0 0 0.00978714200568468 1.521624 1.852143)">3</text>
<text class="face_text" text-anchor="middle" dominant-baseline="middle" transform="matrix(0.00978714200568468 0 0 0.00978714200568468 0.655598 2.352143)">2</text>
<text class="face_text" text-anchor="middle" dominant-baseline="middle" transform="matrix(0.00978714200568468 0 0 0.00978714200568468 -0.210427 2.852143)">19</text>
<text class="face_text" text-anchor="middle" dominant-baseline="middle" transform="matrix(0.00978714200568468 0 0 0.00978714200568468 -0.804523 1.82314)">18</text>
<text class="face_text" text-anchor="middle" dominant-baseline="middle" transform="matrix(0.00978714200568468 0 0 0.00978714200568468 -1.696934 1.425813)">24</text>
<text class="face_text" text-anchor="middle" dominant-baseline="middle" transform="matrix(0.00978714200568468 0 0 0.00978714200568468 -1.799045 0.454298)">25</text>
<text class="face_text" text-anchor="middle" dominant-baseline="middle" transform="matrix(0.00978714200568468 0 0 0.00978714200568468 -0.843525 0.6574)">20</text>
<rect class="edge_bg" x="0.19080361970756643" y="-0.09787142005684689" width="0.1957428401136936" height="0.1957428401136936"/>
<text class="edge_text" text-anchor="middle" dominant-baseline="middle" transform="matrix(0.00978714200568468 0 0 0.00978714200568468 0.2886750397644132 -8.427908566546547e-17)">2</text>
<rect class="edge_bg" x="1.435752490202474" y="-0.502379433238471" width="0.1957428401136936" height="0.1957428401136936"/>
<text class="edge_text" text-anchor="middle" dominant-baseline="middle" transform="matrix(0.00978714200568468 0 0 0.00978714200568468 1.533623910259321 -0.4045080131816242)">32</text>
<rect class="edge_bg" x="1.9330138542292328" y="-0.5546439010181811" width="0.1957428401136936" height="0.1957428401136936"/>
<text class="edge_text" text-anchor="middle" dominant-baseline="middle" transform="matrix(0.00978714200568468 0 0 0.00978714200568468 2.0308852742860797 -0.45677248096133427)">33</text>
<rect class="edge_bg" x="2.9058025799431535" y="0.3212588780509337" width="0.1957428401136936" height="0.1957428401136936"/>
<text class="edge_text" text-anchor="middle" dominant-baseline="middle" transform="matrix(0.00978714200568468 0 0 0.00978714200568468 3.003674 0.4191302981077805)">7</text>
<rect class="edge_bg" x="2.722790281835373" y="1.0042715799431532" width="0.1957428401136936" height="0.1957428401136936"/>
<text class="edge_text" text-anchor="middle" dominant-baseline="middle" transform="matrix(0.00978714200568468 0 0 0.00978714200568468 2.8206617018922198 1.102143)">9</text>
<rect class="edge_bg" x="1.8567652818353726" y="1.5042715799431532" width="0.1957428401136936" height="0.1957428401136936"/>
<text class="edge_text" text-anchor="middle" dominant-baseline="middle" transform="matrix(0.00978714200568468 0 0 0.00978714200568468 1.9546367018922195 1.602143)">6</text>
<rect class="edge_bg" x="0.9907392818353727" y="2.004271579943153" width="0.1957428401136936" height="0.1957428401136936"/>
<text class="edge_text" text-anchor="middle" dominant-baseline="middle" transform="matrix(0.00978714200568468 0 0 0.00978714200568468 1.0886107018922195 2.102143)">3</text>
<rect class="edge_bg" x="0.12471428183537266" y="2.504271579943153" width="0.1957428401136936" height="0.1957428401136936"/>
<text class="edge_text" text-anchor="middle" dominant-baseline="middle" transform="matrix(0.00978714200568468 0 0 0.00978714200568468 0.22258570189221946 2.602143)">29</text>
<rect class="edge_bg" x="-0.5582989399390533" y="2.321259434161978" width="0.1957428401136936" height="0.1957428401136936"/>
<text class="edge_text" text-anchor="middle" dominant-baseline="middle" transform="matrix(0.00978714200568468 0 0 0.00978714200568468 -0.46042751988220654 2.4191308542188246)">25</text>
<rect class="edge_bg" x="-1.531087562113389" y="1.4453563351277021" width="0.1957428401136936" height="0.1957428401136936"/>
<text class="edge_text" text-anchor="middle" dominant-baseline="middle" transform="matrix(0.00978714200568468 0 0 0.00978714200568468 -1.4332161420565421 1.543227755184549)">39</text>
<rect class="edge_bg" x="-1.8249808765487303" y="1.0408475580919607" width="0.1957428401136936" height="0.1957428401136936"/>
<text class="edge_text" text-anchor="middle" dominant-baseline="middle" transform="matrix(0.00978714200568468 0 0 0.00978714200568468 -1.7271094564918834 1.1387189781488076)">44</text>
<rect class="edge_bg" x="-1.2237633103522716" y="0.49950964461250136" width="0.1957428401136936" height="0.1957428401136936"/>
<text class="edge_text" text-anchor="middle" dominant-baseline="middle" transform="matrix(0.00978714200568468 0 0 0.00978714200568468 -1.1258918902954247 0.5973810646693481)">41</text>
</svg>
