<?xml version="1.0" encoding="utf-8"?>
<svg version="1.1" xmlns="http://www.w3.org/2000/svg" viewBox="-2.754549861977661 -3.938024652595908 6.486057855606134 4.973091249207563" style="enable-background:new -2.754549861977661 -3.938024652595908 6.486057855606134 4.973091249207563;">
<style type="text/css">
  .face_stroke {fill:none; stroke:#000000; stroke-width:0.02; stroke-miterlimit:10;}
  .face_text {fill:#000000; font-family:monospace;}
  .edge_text {fill:#ff0000; font-family:monospace;}
  .edge_bg {fill:#f3f3f3; stroke:#606060; stroke-width:0.01;}
</style>
<polygon class="face_stroke" points="0.288675134594813,-0.5 -0.5773502691896258,-7.07050159149938e-17 0.288675134594813,0.5"/>
<polygon class="face_stroke" points="0.2886750397644132,0.4999999999999999 1.2397315560595668,0.8090169943749475 1.82751680835204,2.0834935792808685e-16 1.239731556059567,-0.8090169943749473 0.28867503976441344,-0.5000000000000001"/>
<polygon class="face_stroke" points="1.8275165364055577,4.840058495103605e-07 2.234253179481358,-0.9135449736367516 1.2397312841130845,-0.8090165103690982"/>
<polygon class="face_stroke" points="1.8275169527481796,2.478599661348557e-07 2.570661778225574,0.6691308542188246 3.4366871820100124,0.16913085421882454 3.2287754911922537,-0.8090167465149806 2.2342535958239806,-0.9135452097826349"/>
<polygon class="face_stroke" points="3.228775179481358,-0.8090170263632483 2.822038536405558,-1.7225624840058495 2.2342532841130844,-0.9135454896309021"/>
<polygon class="face_stroke" points="2.8220388083520396,-1.722562 2.2342535560595667,-2.5315789943749474 1.2831970397644132,-2.222562 1.283197039764413,-1.222562 2.2342535560595667,-0.9135450056250525"/>
<polygon class="face_stroke" points="1.283197134594813,-2.222562 0.4171717308103742,-1.722562 1.283197134594813,-1.222562"/>
<polygon class="face_stroke" points="1.2831971820100128,-2.2225621457811755 1.0752854911922534,-3.200709746514981 0.08076359582398024,-3.3052382097826345 -0.3259730472518202,-2.3916927521400337 0.41717177822557416,-1.7225621457811755"/>
<polygon class="face_stroke" points="0.08076305035920062,-3.3052384072834005 -0.8327824072834003,-3.7119750503592006 -1.2395190503592004,-2.7984295927165994 -0.3259735927166001,-2.3916929496407993"/>
<polygon class="face_stroke" points="-1.2395184072834005,-2.7984300503592006 -1.6462550503592006,-1.8848845927165994 -0.7327095927166002,-1.4781479496407992 -0.32597294964079926,-2.3916934072833995"/>
<polygon class="face_stroke" points="-1.6462554072834004,-1.8848840503592004 -2.0529920503592005,-0.9713385927165994 -1.1394465927166002,-0.5646019496407991 -0.7327099496407993,-1.4781474072833998"/>
<polygon class="face_stroke" points="-2.0529924072834005,-0.9713390503592005 -2.4597290503592006,-0.05779359271659951 -1.5461835927166,0.3489430503592008 -1.1394469496407993,-0.5646024072833997"/>
<polygon class="face_stroke" points="-1.5461831794813579,0.3489429736367515 -0.5516612841130845,0.244414510369098 -1.1394465364055573,-0.5646024840058496"/>
<text class="face_text" text-anchor="middle" dominant-baseline="middle" transform="matrix(0.009946182498415126 0 0 0.009946182498415126 0.0 0.0)">1</text>
<text class="face_text" text-anchor="middle" dominant-baseline="middle" transform="matrix(0.009946182498415126 0 0 0.009946182498415126 0.976866 0.0)">0</text>
<text class="face_text" text-anchor="middle" dominant-baseline="middle" transform="matrix(0.009946182498415126 0 0 0.009946182498415126 1.767167 -0.574187)">21</text>
<text class="face_text" text-anchor="middle" dominant-baseline="middle" transform="matrix(0.009946182498415126 0 0 0.009946182498415126 2.659579 -0.17686)">6</text>
<text class="face_text" text-anchor="middle" dominant-baseline="middle" transform="matrix(0.009946182498415126 0 0 0.009946182498415126 2.761689 -1.148375)">22</text>
<text class="face_text" text-anchor="middle" dominant-baseline="middle" transform="matrix(0.009946182498415126 0 0 0.009946182498415126 1.971388 -1.722562)">25</text>
<text class="face_text" text-anchor="middle" dominant-baseline="middle" transform="matrix(0.009946182498415126 0 0 0.009946182498415126 0.994522 -1.722562)">20</text>
<text class="face_text" text-anchor="middle" dominant-baseline="middle" transform="matrix(0.009946182498415126 0 0 0.009946182498415126 0.506089 -2.568553)">18</text>
<text class="face_text" text-anchor="middle" dominant-baseline="middle" transform="matrix(0.009946182498415126 0 0 0.009946182498415126 -0.579378 -3.051834)">19</text>
<text class="face_text" text-anchor="middle" dominant-baseline="middle" transform="matrix(0.009946182498415126 0 0 0.009946182498415126 -0.986114 -2.138289)">2</text>
<text class="face_text" text-anchor="middle" dominant-baseline="middle" transform="matrix(0.009946182498415126 0 0 0.009946182498415126 -1.392851 -1.224743)">3</text>
<text class="face_text" text-anchor="middle" dominant-baseline="middle" transform="matrix(0.009946182498415126 0 0 0.009946182498415126 -1.799588 -0.311198)">5</text>
<text class="face_text" text-anchor="middle" dominant-baseline="middle" transform="matrix(0.009946182498415126 0 0 0.009946182498415126 -1.079097 0.009585)">4</text>
<rect class="edge_bg" x="0.18921321478026196" y="-0.09946182498415135" width="0.19892364996830253" height="0.19892364996830253"/>
<text class="edge_text" text-anchor="middle" dominant-baseline="middle" transform="matrix(0.009946182498415126 0 0 0.009946182498415126 0.2886750397644132 -8.427908566546547e-17)">2</text>
<rect class="edge_bg" x="1.4341620852751698" y="-0.5039698381657755" width="0.19892364996830253" height="0.19892364996830253"/>
<text class="edge_text" text-anchor="middle" dominant-baseline="middle" transform="matrix(0.009946182498415126 0 0 0.009946182498415126 1.533623910259321 -0.4045080131816242)">32</text>
<rect class="edge_bg" x="1.9314234493019284" y="-0.5562343059454855" width="0.19892364996830253" height="0.19892364996830253"/>
<text class="edge_text" text-anchor="middle" dominant-baseline="middle" transform="matrix(0.009946182498415126 0 0 0.009946182498415126 2.0308852742860797 -0.45677248096133427)">33</text>
<rect class="edge_bg" x="2.6320524068130697" y="-0.9607430829812263" width="0.19892364996830253" height="0.19892364996830253"/>
<text class="edge_text" text-anchor="middle" dominant-baseline="middle" transform="matrix(0.009946182498415126 0 0 0.009946182498415126 2.731514231797221 -0.8612812579970751)">34</text>
<rect class="edge_bg" x="2.428684357221652" y="-1.4175153277966774" width="0.19892364996830253" height="0.19892364996830253"/>
<text class="edge_text" text-anchor="middle" dominant-baseline="middle" transform="matrix(0.009946182498415126 0 0 0.009946182498415126 2.5281461822058033 -1.3180535028125262)">42</text>
<rect class="edge_bg" x="1.1837353096106618" y="-1.8220238249841512" width="0.19892364996830253" height="0.19892364996830253"/>
<text class="edge_text" text-anchor="middle" dominant-baseline="middle" transform="matrix(0.009946182498415126 0 0 0.009946182498415126 1.283197134594813 -1.722562)">41</text>
<rect class="edge_bg" x="0.7507226551336422" y="-2.072023970765327" width="0.19892364996830253" height="0.19892364996830253"/>
<text class="edge_text" text-anchor="middle" dominant-baseline="middle" transform="matrix(0.009946182498415126 0 0 0.009946182498415126 0.8501844801177935 -1.9725621457811755)">31</text>
<rect class="edge_bg" x="-0.22206709616285067" y="-2.9479275034462513" width="0.19892364996830253" height="0.19892364996830253"/>
<text class="edge_text" text-anchor="middle" dominant-baseline="middle" transform="matrix(0.009946182498415126 0 0 0.009946182498415126 -0.1226052711786994 -2.8484656784621)">25</text>
<rect class="edge_bg" x="-0.8822075034462511" y="-2.694523553805452" width="0.19892364996830253" height="0.19892364996830253"/>
<text class="edge_text" text-anchor="middle" dominant-baseline="middle" transform="matrix(0.009946182498415126 0 0 0.009946182498415126 -0.7827456784620999 -2.5950617288213005)">29</text>
<rect class="edge_bg" x="-1.2889445034462512" y="-1.7809775538054518" width="0.19892364996830253" height="0.19892364996830253"/>
<text class="edge_text" text-anchor="middle" dominant-baseline="middle" transform="matrix(0.009946182498415126 0 0 0.009946182498415126 -1.1894826784621 -1.6815157288213005)">3</text>
<rect class="edge_bg" x="-1.6956815034462511" y="-0.8674325538054517" width="0.19892364996830253" height="0.19892364996830253"/>
<text class="edge_text" text-anchor="middle" dominant-baseline="middle" transform="matrix(0.009946182498415126 0 0 0.009946182498415126 -1.5962196784621 -0.7679707288213005)">6</text>
<rect class="edge_bg" x="-1.442276682927609" y="-0.20729158016870036" width="0.19892364996830253" height="0.19892364996830253"/>
<text class="edge_text" text-anchor="middle" dominant-baseline="middle" transform="matrix(0.009946182498415126 0 0 0.009946182498415126 -1.3428148579434578 -0.1078297551845491)">4</text>
</svg>
