<?xml version="1.0" encoding="utf-8"?>
<svg version="1.1" xmlns="http://www.w3.org/2000/svg" viewBox="-1.9132476091005004 -2.698608793812442 4.562813400211013 3.6746555876248843" style="enable-background:new -1.9132476091005004 -2.698608793812442 4.562813400211013 3.6746555876248843;">
<style type="text/css">
  .face_stroke {fill:none; stroke:#000000; stroke-width:0.02; stroke-miterlimit:10;}
  .face_text {fill:#000000; font-family:monospace;}
  .edge_text {fill:#ff0000; font-family:monospace;}
  .edge_bg {fill:#f3f3f3; stroke:#606060; stroke-width:0.01;}
</style>
<polygon class="face_stroke" points="0.288675134594813,-0.5 -0.5773502691896258,-7.07050159149938e-17 0.288675134594813,0.5"/>
<polygon class="face_stroke" points="0.2886750397644132,0.4999999999999999 1.2397315560595668,0.8090169943749475 1.82751680835204,2.0834935792808685e-16 1.239731556059567,-0.8090169943749473 0.28867503976441344,-0.5000000000000001"/>
<polygon class="face_stroke" points="1.8275165364055577,4.840058495103605e-07 2.234253179481358,-0.9135449736367516 1.2397312841130845,-0.8090165103690982"/>
<polygon class="face_stroke" points="2.2342534911922534,-0.9135452534850189 2.4421651820100125,-1.8916928542188245 1.5761397782255742,-2.3916928542188245 0.8329949527481798,-1.7225622478599663 1.2397315958239796,-0.8090167902173657"/>
<polygon class="face_stroke" points="0.8329945364055577,-1.7225624840058495 0.2452092841130844,-0.9135454896309021 1.239731179481358,-0.8090170263632483"/>
<polygon class="face_stroke" points="0.8329948083520399,-1.722562 0.2452095560595668,-2.5315789943749474 -0.7058469602355867,-2.222562 -0.7058469602355868,-1.222562 0.24520955605956662,-0.9135450056250525"/>
<polygon class="face_stroke" points="-0.7058469999999998,-2.222562 -1.705847,-2.222562 -1.705847,-1.222562 -0.705847,-1.222562"/>
<polygon class="face_stroke" points="-1.705847,-1.2225620000000001 -1.705847,-0.22256200000000004 -0.705847,-0.22256199999999993 -0.7058469999999992,-1.2225619999999995"/>
<polygon class="face_stroke" points="-1.705847,-0.2225620000000001 -1.705847,0.7774380000000001 -0.705847,0.7774380000000001 -0.7058469999999992,-0.22256199999999943"/>
<text class="face_text" text-anchor="middle" dominant-baseline="middle" transform="matrix(0.0073493111752497686 0 0 0.0073493111752497686 0.0 0.0)">1</text>
<text class="face_text" text-anchor="middle" dominant-baseline="middle" transform="matrix(0.0073493111752497686 0 0 0.0073493111752497686 0.976866 0.0)">0</text>
<text class="face_text" text-anchor="middle" dominant-baseline="middle" transform="matrix(0.0073493111752497686 0 0 0.0073493111752497686 1.767167 -0.574187)">21</text>
<text class="face_text" text-anchor="middle" dominant-baseline="middle" transform="matrix(0.0073493111752497686 0 0 0.0073493111752497686 1.665057 -1.545702)">25</text>
<text class="face_text" text-anchor="middle" dominant-baseline="middle" transform="matrix(0.0073493111752497686 0 0 0.0073493111752497686 0.772645 -1.148375)">20</text>
<text class="face_text" text-anchor="middle" dominant-baseline="middle" transform="matrix(0.0073493111752497686 0 0 0.0073493111752497686 -0.017656 -1.722562)">18</text>
<text class="face_text" text-anchor="middle" dominant-baseline="middle" transform="matrix(0.0073493111752497686 0 0 0.0073493111752497686 -1.205847 -1.722562)">19</text>
<text class="face_text" text-anchor="middle" dominant-baseline="middle" transform="matrix(0.0073493111752497686 0 0 0.0073493111752497686 -1.205847 -0.722562)">2</text>
<text class="face_text" text-anchor="middle" dominant-baseline="middle" transform="matrix(0.0073493111752497686 0 0 0.0073493111752497686 -1.205847 0.277438)">3</text>
<rect class="edge_bg" x="0.21518192801191555" y="-0.07349311175249777" width="0.14698622350499538" height="0.14698622350499538"/>
<text class="edge_text" text-anchor="middle" dominant-baseline="middle" transform="matrix(0.0073493111752497686 0 0 0.0073493111752497686 0.2886750397644132 -8.427908566546547e-17)">2</text>
<rect class="edge_bg" x="1.4601307985068233" y="-0.4780011249341219" width="0.14698622350499538" height="0.14698622350499538"/>
<text class="edge_text" text-anchor="middle" dominant-baseline="middle" transform="matrix(0.0073493111752497686 0 0 0.0073493111752497686 1.533623910259321 -0.4045080131816242)">32</text>
<rect class="edge_bg" x="1.6634994317556189" y="-0.9347741336036899" width="0.14698622350499538" height="0.14698622350499538"/>
<text class="edge_text" text-anchor="middle" dominant-baseline="middle" transform="matrix(0.0073493111752497686 0 0 0.0073493111752497686 1.7369925435081166 -0.8612810218511922)">40</text>
<rect class="edge_bg" x="0.9628697461909601" y="-1.3392828669370467" width="0.14698622350499538" height="0.14698622350499538"/>
<text class="edge_text" text-anchor="middle" dominant-baseline="middle" transform="matrix(0.0073493111752497686 0 0 0.0073493111752497686 1.0363628579434578 -1.265789755184549)">41</text>
<rect class="edge_bg" x="0.46560907045330574" y="-1.391546614565024" width="0.14698622350499538" height="0.14698622350499538"/>
<text class="edge_text" text-anchor="middle" dominant-baseline="middle" transform="matrix(0.0073493111752497686 0 0 0.0073493111752497686 0.5391021822058034 -1.3180535028125262)">31</text>
<rect class="edge_bg" x="-0.7793401117524975" y="-1.7960551117524977" width="0.14698622350499538" height="0.14698622350499538"/>
<text class="edge_text" text-anchor="middle" dominant-baseline="middle" transform="matrix(0.0073493111752497686 0 0 0.0073493111752497686 -0.7058469999999998 -1.722562)">25</text>
<rect class="edge_bg" x="-1.2793401117524976" y="-1.2960551117524979" width="0.14698622350499538" height="0.14698622350499538"/>
<text class="edge_text" text-anchor="middle" dominant-baseline="middle" transform="matrix(0.0073493111752497686 0 0 0.0073493111752497686 -1.205847 -1.2225620000000001)">29</text>
<rect class="edge_bg" x="-1.2793401117524976" y="-0.29605511175249777" width="0.14698622350499538" height="0.14698622350499538"/>
<text class="edge_text" text-anchor="middle" dominant-baseline="middle" transform="matrix(0.0073493111752497686 0 0 0.0073493111752497686 -1.205847 -0.2225620000000001)">3</text>
</svg>
