<?xml version="1.0" encoding="utf-8"?>
<svg version="1.1" xmlns="http://www.w3.org/2000/svg" viewBox="-0.6975936230667091 -1.5925059722011798 2.6453537852958324 2.5158812030797524" style="enable-background:new -0.6975936230667091 -1.5925059722011798 2.6453537852958324 2.5158812030797524;">
<style type="text/css">
  .face_stroke {fill:none; stroke:#000000; stroke-width:0.02; stroke-miterlimit:10;}
  .face_text {fill:#000000; font-family:monospace;}
  .edge_text {fill:#ff0000; font-family:monospace;}
  .edge_bg {fill:#f3f3f3; stroke:#606060; stroke-width:0.01;}
</style>
<polygon class="face_stroke" points="0.288675134594813,-0.5 -0.5773502691896258,-7.07050159149938e-17 0.288675134594813,0.5"/>
<polygon class="face_stroke" points="0.2886750397644132,0.4999999999999999 1.2397315560595668,0.8090169943749475 1.82751680835204,2.0834935792808685e-16 1.239731556059567,-0.8090169943749473 0.28867503976441344,-0.5000000000000001"/>
<polygon class="face_stroke" points="1.2397317805908492,-0.8090171293386964 0.4965869551134551,-1.4781477356975548 0.2886752642956955,-0.5000001349637491"/>
<text class="face_text" text-anchor="middle" dominant-baseline="middle" transform="matrix(0.005031762406159505 0 0 0.005031762406159505 0.0 0.0)">1</text>
<text class="face_text" text-anchor="middle" dominant-baseline="middle" transform="matrix(0.005031762406159505 0 0 0.005031762406159505 0.976866 0.0)">0</text>
<text class="face_text" text-anchor="middle" dominant-baseline="middle" transform="matrix(0.005031762406159505 0 0 0.005031762406159505 0.674998 -0.929055)">20</text>
<rect class="edge_bg" x="0.23835741570281818" y="-0.05031762406159513" width="0.1006352481231901" height="0.1006352481231901"/>
<text class="edge_text" text-anchor="middle" dominant-baseline="middle" transform="matrix(0.005031762406159505 0 0 0.005031762406159505 0.2886750397644132 -8.427908566546547e-17)">2</text>
<rect class="edge_bg" x="0.7138858983816775" y="-0.7048262562128176" width="0.1006352481231901" height="0.1006352481231901"/>
<text class="edge_text" text-anchor="middle" dominant-baseline="middle" transform="matrix(0.005031762406159505 0 0 0.005031762406159505 0.7642035224432725 -0.6545086321512226)">30</text>
</svg>
