<?xml version="1.0" encoding="utf-8"?>
<svg version="1.1" xmlns="http://www.w3.org/2000/svg" viewBox="-3.1298442267132427 -1.834226637906137 7.853165042696148 4.7562382814373265" style="enable-background:new -3.1298442267132427 -1.834226637906137 7.853165042696148 4.7562382814373265;">
<style type="text/css">
  .face_stroke {fill:none; stroke:#000000; stroke-width:0.02; stroke-miterlimit:10;}
  .face_text {fill:#000000; font-family:monospace;}
  .edge_text {fill:#ff0000; font-family:monospace;}
  .edge_bg {fill:#f3f3f3; stroke:#606060; stroke-width:0.01;}
</style>
<polygon class="face_stroke" points="0.288675134594813,-0.5 -0.5773502691896258,-7.07050159149938e-17 0.288675134594813,0.5"/>
<polygon class="face_stroke" points="0.2886749999999999,0.5 1.288675,0.5000000000000001 1.2886750000000007,-0.49999999999999944 0.2886749999999997,-0.4999999999999998"/>
<polygon class="face_stroke" points="1.288675231412373,0.5000000000000006 1.8764604837048462,1.3090169943749472 2.8275169999999994,1.618033988749895 3.778573516295153,1.3090169943749477 4.366358768587626,0.5000000000000004 4.366358768587626,-0.4999999999999996 3.778573516295155,-1.3090169943749463 2.8275170000000003,-1.618033988749895 1.8764604837048466,-1.309016994374948 1.2886752314123733,-0.5000000000000006"/>
<polygon class="face_stroke" points="1.2886748710412372,0.49999987666628964 0.4796578766662897,1.0877851289587628 1.0674431289587627,1.8968021233337105 1.8764601233337102,1.3090168710412373"/>
<polygon class="face_stroke" points="0.4796585560595668,1.0877850056250526 -0.47139796023558667,1.396802 -0.4713979602355868,2.396802 0.47965855605956664,2.7058189943749476 1.06744380835204,1.8968020000000003"/>
<polygon class="face_stroke" points="-0.47139886540518705,1.396802 -1.3374242691896259,1.896802 -0.47139886540518705,2.396802"/>
<polygon class="face_stroke" points="-0.4713988179899874,1.3968018542188245 -0.6793105088077467,0.41865425348501895 -1.6738324041760198,0.3141257902173654 -2.0805690472518203,1.227671247859966 -1.3374242217744259,1.8968018542188245"/>
<polygon class="face_stroke" points="-1.6738318205186422,0.31412602636324843 -2.6683537158869157,0.4186544896309018 -2.080568463594443,1.2276714840058496"/>
<polygon class="face_stroke" points="-1.6738318206820366,0.3141257160503099 -1.7783602839496901,-0.6803961793179634 -2.772882179317963,-0.5758677160503102 -2.6683537160503095,0.41865417931796367"/>
<polygon class="face_stroke" points="-1.6738317160503098,0.3141261793179635 -0.6793098206820365,0.20959771605030994 -0.7838382839496899,-0.7849241793179634 -1.7783601793179633,-0.6803957160503101"/>
<text class="face_text" text-anchor="middle" dominant-baseline="middle" transform="matrix(0.009512476562874654 0 0 0.009512476562874654 0.0 0.0)">1</text>
<text class="face_text" text-anchor="middle" dominant-baseline="middle" transform="matrix(0.009512476562874654 0 0 0.009512476562874654 0.788675 0.0)">2</text>
<text class="face_text" text-anchor="middle" dominant-baseline="middle" transform="matrix(0.009512476562874654 0 0 0.009512476562874654 2.827517 0.0)">26</text>
<text class="face_text" text-anchor="middle" dominant-baseline="middle" transform="matrix(0.009512476562874654 0 0 0.009512476562874654 1.178059 1.198401)">19</text>
<text class="face_text" text-anchor="middle" dominant-baseline="middle" transform="matrix(0.009512476562874654 0 0 0.009512476562874654 0.216793 1.896802)">18</text>
<text class="face_text" text-anchor="middle" dominant-baseline="middle" transform="matrix(0.009512476562874654 0 0 0.009512476562874654 -0.760074 1.896802)">20</text>
<text class="face_text" text-anchor="middle" dominant-baseline="middle" transform="matrix(0.009512476562874654 0 0 0.009512476562874654 -1.248507 1.050811)">0</text>
<text class="face_text" text-anchor="middle" dominant-baseline="middle" transform="matrix(0.009512476562874654 0 0 0.009512476562874654 -2.140918 0.653484)">4</text>
<text class="face_text" text-anchor="middle" dominant-baseline="middle" transform="matrix(0.009512476562874654 0 0 0.009512476562874654 -2.223357 -0.130871)">5</text>
<text class="face_text" text-anchor="middle" dominant-baseline="middle" transform="matrix(0.009512476562874654 0 0 0.009512476562874654 -1.228835 -0.235399)">3</text>
<rect class="edge_bg" x="0.19355023437125338" y="-0.09512476562874658" width="0.19024953125749305" height="0.19024953125749305"/>
<text class="edge_text" text-anchor="middle" dominant-baseline="middle" transform="matrix(0.009512476562874654 0 0 0.009512476562874654 0.2886749999999999 -6.123233995736767e-17)">1</text>
<rect class="edge_bg" x="1.1935504657836262" y="-0.09512476562874672" width="0.19024953125749305" height="0.19024953125749305"/>
<text class="edge_text" text-anchor="middle" dominant-baseline="middle" transform="matrix(0.009512476562874654 0 0 0.009512476562874654 1.2886752314123728 -1.8845376462950893e-16)">45</text>
<rect class="edge_bg" x="1.4874427315587273" y="0.8093836082250169" width="0.19024953125749305" height="0.19024953125749305"/>
<text class="edge_text" text-anchor="middle" dominant-baseline="middle" transform="matrix(0.009512476562874654 0 0 0.009512476562874654 1.582567497187474 0.9045083738537634)">47</text>
<rect class="edge_bg" x="0.6784264165770569" y="1.3971687371837798" width="0.19024953125749305" height="0.19024953125749305"/>
<text class="edge_text" text-anchor="middle" dominant-baseline="middle" transform="matrix(0.009512476562874654 0 0 0.009512476562874654 0.7735511822058034 1.4922935028125264)">25</text>
<rect class="edge_bg" x="-0.5665236310339336" y="1.8016772343712535" width="0.19024953125749305" height="0.19024953125749305"/>
<text class="edge_text" text-anchor="middle" dominant-baseline="middle" transform="matrix(0.009512476562874654 0 0 0.009512476562874654 -0.47139886540518705 1.896802)">31</text>
<rect class="edge_bg" x="-0.9995362855109531" y="1.551677088590078" width="0.19024953125749305" height="0.19024953125749305"/>
<text class="edge_text" text-anchor="middle" dominant-baseline="middle" transform="matrix(0.009512476562874654 0 0 0.009512476562874654 -0.9044115198822066 1.6468018542188245)">30</text>
<rect class="edge_bg" x="-1.972324907685289" y="0.6757739895558025" width="0.19024953125749305" height="0.19024953125749305"/>
<text class="edge_text" text-anchor="middle" dominant-baseline="middle" transform="matrix(0.009512476562874654 0 0 0.009512476562874654 -1.8772001420565423 0.770898755184549)">5</text>
<rect class="edge_bg" x="-2.2662175339949195" y="0.2712651820553903" width="0.19024953125749305" height="0.19024953125749305"/>
<text class="edge_text" text-anchor="middle" dominant-baseline="middle" transform="matrix(0.009512476562874654 0 0 0.009512476562874654 -2.171092768366173 0.3663899476841368)">4</text>
<rect class="edge_bg" x="-1.8212207133128833" y="-0.27825953399491965" width="0.19024953125749305" height="0.19024953125749305"/>
<text class="edge_text" text-anchor="middle" dominant-baseline="middle" transform="matrix(0.009512476562874654 0 0 0.009512476562874654 -1.7260959476841367 -0.18313476836617312)">6</text>
</svg>
