<?xml version="1.0" encoding="utf-8"?>
<svg version="1.1" xmlns="http://www.w3.org/2000/svg" viewBox="-0.7484470552397516 -0.6649215025179603 2.9936941073721224 3.6282730553951206" style="enable-background:new -0.7484470552397516 -0.6649215025179603 2.9936941073721224 3.6282730553951206;">
<style type="text/css">
  .face_stroke {fill:none; stroke:#000000; stroke-width:0.02; stroke-miterlimit:10;}
  .face_text {fill:#000000; font-family:monospace;}
  .edge_text {fill:#ff0000; font-family:monospace;}
  .edge_bg {fill:#f3f3f3; stroke:#606060; stroke-width:0.01;}
</style>
<polygon class="face_stroke" points="0.5000000000000001,-0.5 -0.5,-0.5000000000000001 -0.5000000000000001,0.5 0.4999999999999999,0.5000000000000001"/>
<polygon class="face_stroke" points="0.4999998654051868,0.4999999999999999 1.3660252691896257,1.414100318299876e-16 0.49999986540518754,-0.5000000000000003"/>
<polygon class="face_stroke" points="0.4999998179899874,0.5000001457811754 0.7079115088077463,1.4781477465149808 1.7024334041760198,1.5826762097826346 2.10917004725182,0.6691307521400344 1.3660252217744258,1.457811755756211e-07"/>
<polygon class="face_stroke" points="0.7079118205186421,1.4781480263632485 1.1146484635944425,2.3916934840058497 1.7024337158869156,1.5826764896309022"/>
<polygon class="face_stroke" points="0.7079114072834004,1.4781479496407992 -0.20563405035920057,1.8848845927165996 0.2011025927165993,2.7984300503592 1.1146480503592004,2.3916934072834004"/>
<polygon class="face_stroke" points="0.7079120503592006,1.4781474072834002 0.3011754072834004,0.5646019496407993 -0.6123700503592006,0.9713385927165996 -0.20563340728340068,1.8848840503592004"/>
<text class="face_text" text-anchor="middle" dominant-baseline="middle" transform="matrix(0.005987388214744245 0 0 0.005987388214744245 0.0 0.0)">2</text>
<text class="face_text" text-anchor="middle" dominant-baseline="middle" transform="matrix(0.005987388214744245 0 0 0.005987388214744245 0.788675 0.0)">1</text>
<text class="face_text" text-anchor="middle" dominant-baseline="middle" transform="matrix(0.005987388214744245 0 0 0.005987388214744245 1.277108 0.845991)">0</text>
<text class="face_text" text-anchor="middle" dominant-baseline="middle" transform="matrix(0.005987388214744245 0 0 0.005987388214744245 1.174998 1.817506)">4</text>
<text class="face_text" text-anchor="middle" dominant-baseline="middle" transform="matrix(0.005987388214744245 0 0 0.005987388214744245 0.454507 2.138289)">5</text>
<text class="face_text" text-anchor="middle" dominant-baseline="middle" transform="matrix(0.005987388214744245 0 0 0.005987388214744245 0.047771 1.224743)">3</text>
<rect class="edge_bg" x="0.4401259832577446" y="-0.059873882147442485" width="0.1197477642948849" height="0.1197477642948849"/>
<text class="edge_text" text-anchor="middle" dominant-baseline="middle" transform="matrix(0.005987388214744245 0 0 0.005987388214744245 0.49999986540518704 -3.535250795749691e-17)">1</text>
<rect class="edge_bg" x="0.8731386377347641" y="0.19012626363373292" width="0.1197477642948849" height="0.1197477642948849"/>
<text class="edge_text" text-anchor="middle" dominant-baseline="middle" transform="matrix(0.005987388214744245 0 0 0.005987388214744245 0.9330125198822066 0.25000014578117535)">2</text>
<rect class="edge_bg" x="1.1452988860553364" y="1.4705383758496329" width="0.1197477642948849" height="0.1197477642948849"/>
<text class="edge_text" text-anchor="middle" dominant-baseline="middle" transform="matrix(0.005987388214744245 0 0 0.005987388214744245 1.2051727682027789 1.5304122579970754)">5</text>
<rect class="edge_bg" x="0.8514058466738581" y="1.8750467963146573" width="0.1197477642948849" height="0.1197477642948849"/>
<text class="edge_text" text-anchor="middle" dominant-baseline="middle" transform="matrix(0.005987388214744245 0 0 0.005987388214744245 0.9112797288213006 1.9349206784620998)">4</text>
<rect class="edge_bg" x="0.1912654393904577" y="1.621641846673858" width="0.1197477642948849" height="0.1197477642948849"/>
<text class="edge_text" text-anchor="middle" dominant-baseline="middle" transform="matrix(0.005987388214744245 0 0 0.005987388214744245 0.25113932153790014 1.6815157288213005)">6</text>
</svg>
