<?xml version="1.0" encoding="utf-8"?>
<svg version="1.1" xmlns="http://www.w3.org/2000/svg" viewBox="-3.273557593087516 -0.7525118032000733 5.639048004165018 5.555259670401606" style="enable-background:new -3.273557593087516 -0.7525118032000733 5.639048004165018 5.555259670401606;">
<style type="text/css">
  .face_stroke {fill:none; stroke:#000000; stroke-width:0.02; stroke-miterlimit:10;}
  .face_text {fill:#000000; font-family:monospace;}
  .edge_text {fill:#ff0000; font-family:monospace;}
  .edge_bg {fill:#f3f3f3; stroke:#606060; stroke-width:0.01;}
</style>
<polygon class="face_stroke" points="0.5000000000000001,-0.5 -0.5,-0.5000000000000001 -0.5000000000000001,0.5 0.4999999999999999,0.5000000000000001"/>
<polygon class="face_stroke" points="0.4999998654051868,0.4999999999999999 1.3660252691896257,1.414100318299876e-16 0.49999986540518754,-0.5000000000000003"/>
<polygon class="face_stroke" points="0.4999998179899874,0.5000001457811754 0.7079115088077463,1.4781477465149808 1.7024334041760198,1.5826762097826346 2.10917004725182,0.6691307521400344 1.3660252217744258,1.457811755756211e-07"/>
<polygon class="face_stroke" points="0.7079118205186421,1.4781480263632485 1.1146484635944425,2.3916934840058497 1.7024337158869156,1.5826764896309022"/>
<polygon class="face_stroke" points="0.7079114072834004,1.4781479496407992 -0.20563405035920057,1.8848845927165996 0.2011025927165993,2.7984300503592 1.1146480503592004,2.3916934072834004"/>
<polygon class="face_stroke" points="-0.20563341381396727,1.884883935998541 -1.0716588175984056,1.3848839359985412 -2.066180712966679,1.4894123992661943 -2.8093255384440736,2.1585430056250527 -3.0172372292618332,3.1366906063588575 -2.6105005861860326,4.050236064001459 -1.7444751824015947,4.550236064001459 -0.7499532870333201,4.445707600733805 -0.006808461555926737,3.776576994374948 0.2011032292618331,2.798429393641143"/>
<polygon class="face_stroke" points="-0.20563329810778067,1.8848847018922195 0.2943667018922194,1.0188592981077806 -0.5716587018922195,0.5188592981077806 -1.0716587018922195,1.384884701892219"/>
<text class="face_text" text-anchor="middle" dominant-baseline="middle" transform="matrix(0.011110519340803211 0 0 0.011110519340803211 0.0 0.0)">2</text>
<text class="face_text" text-anchor="middle" dominant-baseline="middle" transform="matrix(0.011110519340803211 0 0 0.011110519340803211 0.788675 0.0)">1</text>
<text class="face_text" text-anchor="middle" dominant-baseline="middle" transform="matrix(0.011110519340803211 0 0 0.011110519340803211 1.277108 0.845991)">0</text>
<text class="face_text" text-anchor="middle" dominant-baseline="middle" transform="matrix(0.011110519340803211 0 0 0.011110519340803211 1.174998 1.817506)">4</text>
<text class="face_text" text-anchor="middle" dominant-baseline="middle" transform="matrix(0.011110519340803211 0 0 0.011110519340803211 0.454507 2.138289)">5</text>
<text class="face_text" text-anchor="middle" dominant-baseline="middle" transform="matrix(0.011110519340803211 0 0 0.011110519340803211 -1.408067 2.96756)">26</text>
<text class="face_text" text-anchor="middle" dominant-baseline="middle" transform="matrix(0.011110519340803211 0 0 0.011110519340803211 -0.388646 1.201872)">3</text>
<rect class="edge_bg" x="0.38889467199715494" y="-0.11110519340803215" width="0.22221038681606423" height="0.22221038681606423"/>
<text class="edge_text" text-anchor="middle" dominant-baseline="middle" transform="matrix(0.011110519340803211 0 0 0.011110519340803211 0.49999986540518704 -3.535250795749691e-17)">1</text>
<rect class="edge_bg" x="0.8219073264741744" y="0.13889495237314325" width="0.22221038681606423" height="0.22221038681606423"/>
<text class="edge_text" text-anchor="middle" dominant-baseline="middle" transform="matrix(0.011110519340803211 0 0 0.011110519340803211 0.9330125198822066 0.25000014578117535)">2</text>
<rect class="edge_bg" x="1.0940675747947468" y="1.4193070645890433" width="0.22221038681606423" height="0.22221038681606423"/>
<text class="edge_text" text-anchor="middle" dominant-baseline="middle" transform="matrix(0.011110519340803211 0 0 0.011110519340803211 1.2051727682027789 1.5304122579970754)">5</text>
<rect class="edge_bg" x="0.8001745354132684" y="1.8238154850540678" width="0.22221038681606423" height="0.22221038681606423"/>
<text class="edge_text" text-anchor="middle" dominant-baseline="middle" transform="matrix(0.011110519340803211 0 0 0.011110519340803211 0.9112797288213006 1.9349206784620998)">4</text>
<rect class="edge_bg" x="-0.11337028568409908" y="2.2305514714118093" width="0.22221038681606423" height="0.22221038681606423"/>
<text class="edge_text" text-anchor="middle" dominant-baseline="middle" transform="matrix(0.011110519340803211 0 0 0.011110519340803211 -0.002265092276066971 2.3416566648198414)">54</text>
<rect class="edge_bg" x="-0.7497511934080321" y="1.5237795084841874" width="0.22221038681606423" height="0.22221038681606423"/>
<text class="edge_text" text-anchor="middle" dominant-baseline="middle" transform="matrix(0.011110519340803211 0 0 0.011110519340803211 -0.6386459999999999 1.6348847018922195)">46</text>
</svg>
