<?xml version="1.0" encoding="utf-8"?>
<svg version="1.1" xmlns="http://www.w3.org/2000/svg" viewBox="-1.978802402595908 -0.6408541091005008 3.9681917492075627 3.098790400211014" style="enable-background:new -1.978802402595908 -0.6408541091005008 3.9681917492075627 3.098790400211014;">
<style type="text/css">
  .face_stroke {fill:none; stroke:#000000; stroke-width:0.02; stroke-miterlimit:10;}
  .face_text {fill:#000000; font-family:monospace;}
  .edge_text {fill:#ff0000; font-family:monospace;}
  .edge_bg {fill:#f3f3f3; stroke:#606060; stroke-width:0.01;}
</style>
<polygon class="face_stroke" points="0.5000000000000001,-0.5 -0.5,-0.5000000000000001 -0.5000000000000001,0.5 0.4999999999999999,0.5000000000000001"/>
<polygon class="face_stroke" points="0.4999999999999999,0.5 1.5,0.5000000000000001 1.5000000000000007,-0.49999999999999944 0.49999999999999967,-0.4999999999999998"/>
<polygon class="face_stroke" points="0.5000000000000001,0.5000000397644132 0.19098300562505266,1.451056556059567 0.9999999999999999,2.03884180835204 1.8090169943749475,1.451056556059567 1.5000000000000009,0.5000000397644138"/>
<polygon class="face_stroke" points="0.49999986503625105,0.5000002642956956 -0.4781477356975547,0.707911955113455 0.19098287066130315,1.4510567805908494"/>
<polygon class="face_stroke" points="-0.4781477521400336,0.7079119527481799 -1.3916932097826344,1.11464859582398 -1.2871647465149811,2.1091704911922533 -0.3090171457811752,2.3170821820100125 0.19098285421882455,1.4510567782255746"/>
<polygon class="face_stroke" points="-0.47814794964079954,0.7079114072834003 -0.8848845927165997,-0.20563405035920057 -1.7984300503592006,0.2011025927165997 -1.3916934072834009,1.1146480503592004"/>
<text class="face_text" text-anchor="middle" dominant-baseline="middle" transform="matrix(0.0061975808004220275 0 0 0.0061975808004220275 0.0 0.0)">2</text>
<text class="face_text" text-anchor="middle" dominant-baseline="middle" transform="matrix(0.0061975808004220275 0 0 0.0061975808004220275 1.0 0.0)">19</text>
<text class="face_text" text-anchor="middle" dominant-baseline="middle" transform="matrix(0.0061975808004220275 0 0 0.0061975808004220275 1.0 1.188191)">18</text>
<text class="face_text" text-anchor="middle" dominant-baseline="middle" transform="matrix(0.0061975808004220275 0 0 0.0061975808004220275 0.070945 0.886323)">1</text>
<text class="face_text" text-anchor="middle" dominant-baseline="middle" transform="matrix(0.0061975808004220275 0 0 0.0061975808004220275 -0.655008 1.539974)">0</text>
<text class="face_text" text-anchor="middle" dominant-baseline="middle" transform="matrix(0.0061975808004220275 0 0 0.0061975808004220275 -1.138289 0.454507)">3</text>
<rect class="edge_bg" x="0.43802419199577963" y="-0.06197580800422034" width="0.12395161600844055" height="0.12395161600844055"/>
<text class="edge_text" text-anchor="middle" dominant-baseline="middle" transform="matrix(0.0061975808004220275 0 0 0.0061975808004220275 0.4999999999999999 -6.123233995736767e-17)">29</text>
<rect class="edge_bg" x="0.9380241919957797" y="0.43802423176019295" width="0.12395161600844055" height="0.12395161600844055"/>
<text class="edge_text" text-anchor="middle" dominant-baseline="middle" transform="matrix(0.0061975808004220275 0 0 0.0061975808004220275 1.0 0.5000000397644132)">25</text>
<rect class="edge_bg" x="0.2835155598445571" y="0.9135527144390522" width="0.12395161600844055" height="0.12395161600844055"/>
<text class="edge_text" text-anchor="middle" dominant-baseline="middle" transform="matrix(0.0061975808004220275 0 0 0.0061975808004220275 0.3454913678487774 0.9755285224432725)">28</text>
<rect class="edge_bg" x="-0.20555825696482485" y="1.0175085574826566" width="0.12395161600844055" height="0.12395161600844055"/>
<text class="edge_text" text-anchor="middle" dominant-baseline="middle" transform="matrix(0.0061975808004220275 0 0 0.0061975808004220275 -0.14358244896060457 1.0794843654868769)">2</text>
<rect class="edge_bg" x="-0.9968964864663202" y="0.8493039208170803" width="0.12395161600844055" height="0.12395161600844055"/>
<text class="edge_text" text-anchor="middle" dominant-baseline="middle" transform="matrix(0.0061975808004220275 0 0 0.0061975808004220275 -0.9349206784620999 0.9112797288213006)">0</text>
</svg>
