<?xml version="1.0" encoding="utf-8"?>
<svg version="1.1" xmlns="http://www.w3.org/2000/svg" viewBox="-5.242306287906137 -2.409334216117509 7.387100581437327 4.951483845657403" style="enable-background:new -5.242306287906137 -2.409334216117509 7.387100581437327 4.951483845657403;">
<style type="text/css">
  .face_stroke {fill:none; stroke:#000000; stroke-width:0.02; stroke-miterlimit:10;}
  .face_text {fill:#000000; font-family:monospace;}
  .edge_text {fill:#ff0000; font-family:monospace;}
  .edge_bg {fill:#f3f3f3; stroke:#606060; stroke-width:0.01;}
</style>
<polygon class="face_stroke" points="0.5000000000000001,-0.5 -0.5,-0.5000000000000001 -0.5000000000000001,0.5 0.4999999999999999,0.5000000000000001"/>
<polygon class="face_stroke" points="0.4999999999999999,0.5 1.5,0.5000000000000001 1.5000000000000007,-0.49999999999999944 0.49999999999999967,-0.4999999999999998"/>
<polygon class="face_stroke" points="0.5000000000000001,0.5000000397644132 0.19098300562505266,1.451056556059567 0.9999999999999999,2.03884180835204 1.8090169943749475,1.451056556059567 1.5000000000000009,0.5000000397644138"/>
<polygon class="face_stroke" points="0.49999986503625105,0.5000002642956956 -0.4781477356975547,0.707911955113455 0.19098287066130315,1.4510567805908494"/>
<polygon class="face_stroke" points="-0.4781477521400336,0.7079119527481799 -1.3916932097826344,1.11464859582398 -1.2871647465149811,2.1091704911922533 -0.3090171457811752,2.3170821820100125 0.19098285421882455,1.4510567782255746"/>
<polygon class="face_stroke" points="-1.391693489630902,1.1146482841130845 -2.2007104840058496,1.7024335364055576 -1.2871650263632486,2.109170179481358"/>
<polygon class="face_stroke" points="-1.3916928766662897,1.114647871041237 -1.9794781289587629,0.30563087666628963 -2.7884951233337105,0.8934161289587628 -2.200709871041237,1.7024331233337104"/>
<polygon class="face_stroke" points="-1.9794780056250527,0.3056315162951536 -1.6704610112501053,-0.645425 -1.9794780056250527,-1.5964815162951536 -2.788495,-2.184266768587627 -3.788495,-2.184266768587627 -4.597511994374948,-1.5964815162951538 -4.906528988749895,-0.6454250000000002 -4.597511994374948,0.3056315162951534 -3.788495,0.8934167685876268 -2.7884950000000006,0.8934167685876268"/>
<polygon class="face_stroke" points="-1.9794787553350508,0.3056317609601027 -1.0284222390398972,0.6146487553350506 -0.7194052446649497,-0.3364077609601035 -1.6704617609601036,-0.6454247553350503"/>
<text class="face_text" text-anchor="middle" dominant-baseline="middle" transform="matrix(0.009902967691314806 0 0 0.009902967691314806 0.0 0.0)">2</text>
<text class="face_text" text-anchor="middle" dominant-baseline="middle" transform="matrix(0.009902967691314806 0 0 0.009902967691314806 1.0 0.0)">19</text>
<text class="face_text" text-anchor="middle" dominant-baseline="middle" transform="matrix(0.009902967691314806 0 0 0.009902967691314806 1.0 1.188191)">18</text>
<text class="face_text" text-anchor="middle" dominant-baseline="middle" transform="matrix(0.009902967691314806 0 0 0.009902967691314806 0.070945 0.886323)">1</text>
<text class="face_text" text-anchor="middle" dominant-baseline="middle" transform="matrix(0.009902967691314806 0 0 0.009902967691314806 -0.655008 1.539974)">0</text>
<text class="face_text" text-anchor="middle" dominant-baseline="middle" transform="matrix(0.009902967691314806 0 0 0.009902967691314806 -1.626523 1.642084)">4</text>
<text class="face_text" text-anchor="middle" dominant-baseline="middle" transform="matrix(0.009902967691314806 0 0 0.009902967691314806 -2.090094 1.004032)">5</text>
<text class="face_text" text-anchor="middle" dominant-baseline="middle" transform="matrix(0.009902967691314806 0 0 0.009902967691314806 -3.288495 -0.645425)">26</text>
<text class="face_text" text-anchor="middle" dominant-baseline="middle" transform="matrix(0.009902967691314806 0 0 0.009902967691314806 -1.349442 -0.015388)">3</text>
<rect class="edge_bg" x="0.4009703230868518" y="-0.09902967691314812" width="0.19805935382629614" height="0.19805935382629614"/>
<text class="edge_text" text-anchor="middle" dominant-baseline="middle" transform="matrix(0.009902967691314806 0 0 0.009902967691314806 0.4999999999999999 -6.123233995736767e-17)">29</text>
<rect class="edge_bg" x="0.900970323086852" y="0.40097036285126514" width="0.19805935382629614" height="0.19805935382629614"/>
<text class="edge_text" text-anchor="middle" dominant-baseline="middle" transform="matrix(0.009902967691314806 0 0 0.009902967691314806 1.0 0.5000000397644132)">25</text>
<rect class="edge_bg" x="0.2464616909356293" y="0.8764988455301244" width="0.19805935382629614" height="0.19805935382629614"/>
<text class="edge_text" text-anchor="middle" dominant-baseline="middle" transform="matrix(0.009902967691314806 0 0 0.009902967691314806 0.3454913678487774 0.9755285224432725)">28</text>
<rect class="edge_bg" x="-0.24261212587375264" y="0.9804546885737289" width="0.19805935382629614" height="0.19805935382629614"/>
<text class="edge_text" text-anchor="middle" dominant-baseline="middle" transform="matrix(0.009902967691314806 0 0 0.009902967691314806 -0.14358244896060457 1.0794843654868769)">2</text>
<rect class="edge_bg" x="-1.4384589349102233" y="1.5128795548840732" width="0.19805935382629614" height="0.19805935382629614"/>
<text class="edge_text" text-anchor="middle" dominant-baseline="middle" transform="matrix(0.009902967691314806 0 0 0.009902967691314806 -1.3394292579970752 1.6119092317972212)">5</text>
<rect class="edge_bg" x="-1.8952310507669115" y="1.3095108202743257" width="0.19805935382629614" height="0.19805935382629614"/>
<text class="edge_text" text-anchor="middle" dominant-baseline="middle" transform="matrix(0.009902967691314806 0 0 0.009902967691314806 -1.7962013738537634 1.4085404971874738)">4</text>
<rect class="edge_bg" x="-2.483016179725674" y="0.5004944655282422" width="0.19805935382629614" height="0.19805935382629614"/>
<text class="edge_text" text-anchor="middle" dominant-baseline="middle" transform="matrix(0.009902967691314806 0 0 0.009902967691314806 -2.383986502812526 0.5995241424413903)">54</text>
<rect class="edge_bg" x="-1.9239999350607249" y="-0.26892617410062186" width="0.19805935382629614" height="0.19805935382629614"/>
<text class="edge_text" text-anchor="middle" dominant-baseline="middle" transform="matrix(0.009902967691314806 0 0 0.009902967691314806 -1.8249702581475769 -0.1698964971874738)">46</text>
</svg>
