<?xml version="1.0" encoding="utf-8"?>
<svg version="1.1" xmlns="http://www.w3.org/2000/svg" viewBox="-2.9732828380437923 -1.834226637906137 6.8629173974233915 4.7562382814373265" style="enable-background:new -2.9732828380437923 -1.834226637906137 6.8629173974233915 4.7562382814373265;">
<style type="text/css">
  .face_stroke {fill:none; stroke:#000000; stroke-width:0.02; stroke-miterlimit:10;}
  .face_text {fill:#000000; font-family:monospace;}
  .edge_text {fill:#ff0000; font-family:monospace;}
  .edge_bg {fill:#f3f3f3; stroke:#606060; stroke-width:0.01;}
</style>
<polygon class="face_stroke" points="0.5000000000000001,-0.5 -0.5,-0.5000000000000001 -0.5000000000000001,0.5 0.4999999999999999,0.5000000000000001"/>
<polygon class="face_stroke" points="0.500000231412373,0.5000000000000006 1.0877854837048462,1.3090169943749472 2.0388419999999994,1.618033988749895 2.989898516295153,1.3090169943749477 3.577683768587627,0.5000000000000004 3.577683768587627,-0.4999999999999996 2.989898516295155,-1.3090169943749463 2.0388420000000003,-1.618033988749895 1.0877854837048466,-1.309016994374948 0.5000002314123733,-0.5000000000000006"/>
<polygon class="face_stroke" points="0.4999998710412372,0.49999987666628964 -0.3090171233337103,1.0877851289587628 0.27876812895876274,1.8968021233337105 1.0877851233337104,1.3090168710412373"/>
<polygon class="face_stroke" points="-0.30901744394043323,1.0877850056250526 -1.2600739602355868,1.396802 -1.2600739602355868,2.396802 -0.3090174439404334,2.7058189943749476 0.27876780835203985,1.8968020000000003"/>
<polygon class="face_stroke" points="-0.3090172194091507,1.0877848706613036 -1.052162044886545,0.41865426430244534 -1.2600737357043046,1.396801865036251"/>
<polygon class="face_stroke" points="-1.0521618179899872,0.4186551457811755 -1.9181872217744258,-0.08134485421882454 -2.66133204725182,0.5877857521400337 -2.2545954041760203,1.5013312097826343 -1.2600735088077468,1.3968027465149815"/>
<polygon class="face_stroke" points="-1.0521622981077805,0.4186547018922194 -0.5521622981077805,-0.4473707018922193 -1.4181877018922193,-0.9473707018922194 -1.9181877018922195,-0.08134529810778093"/>
<text class="face_text" text-anchor="middle" dominant-baseline="middle" transform="matrix(0.009512476562874654 0 0 0.009512476562874654 0.0 0.0)">2</text>
<text class="face_text" text-anchor="middle" dominant-baseline="middle" transform="matrix(0.009512476562874654 0 0 0.009512476562874654 2.038842 0.0)">26</text>
<text class="face_text" text-anchor="middle" dominant-baseline="middle" transform="matrix(0.009512476562874654 0 0 0.009512476562874654 0.389384 1.198401)">19</text>
<text class="face_text" text-anchor="middle" dominant-baseline="middle" transform="matrix(0.009512476562874654 0 0 0.009512476562874654 -0.571883 1.896802)">18</text>
<text class="face_text" text-anchor="middle" dominant-baseline="middle" transform="matrix(0.009512476562874654 0 0 0.009512476562874654 -0.873751 0.967747)">1</text>
<text class="face_text" text-anchor="middle" dominant-baseline="middle" transform="matrix(0.009512476562874654 0 0 0.009512476562874654 -1.82927 0.764646)">0</text>
<text class="face_text" text-anchor="middle" dominant-baseline="middle" transform="matrix(0.009512476562874654 0 0 0.009512476562874654 -1.235175 -0.264358)">3</text>
<rect class="edge_bg" x="0.4048754657836263" y="-0.09512476562874672" width="0.19024953125749305" height="0.19024953125749305"/>
<text class="edge_text" text-anchor="middle" dominant-baseline="middle" transform="matrix(0.009512476562874654 0 0 0.009512476562874654 0.5000002314123728 -1.8845376462950893e-16)">45</text>
<rect class="edge_bg" x="0.6987677315587274" y="0.8093836082250169" width="0.19024953125749305" height="0.19024953125749305"/>
<text class="edge_text" text-anchor="middle" dominant-baseline="middle" transform="matrix(0.009512476562874654 0 0 0.009512476562874654 0.7938924971874739 0.9045083738537634)">47</text>
<rect class="edge_bg" x="-0.11024958342294314" y="1.3971687371837798" width="0.19024953125749305" height="0.19024953125749305"/>
<text class="edge_text" text-anchor="middle" dominant-baseline="middle" transform="matrix(0.009512476562874654 0 0 0.009512476562874654 -0.01512481779419661 1.4922935028125264)">25</text>
<rect class="edge_bg" x="-0.879670243185474" y="1.1471686022200307" width="0.19024953125749305" height="0.19024953125749305"/>
<text class="edge_text" text-anchor="middle" dominant-baseline="middle" transform="matrix(0.009512476562874654 0 0 0.009512476562874654 -0.7845454775567275 1.2422933678487773)">28</text>
<rect class="edge_bg" x="-1.2512424290276136" y="0.8126041805193317" width="0.19024953125749305" height="0.19024953125749305"/>
<text class="edge_text" text-anchor="middle" dominant-baseline="middle" transform="matrix(0.009512476562874654 0 0 0.009512476562874654 -1.156117663398867 0.9077289461480782)">2</text>
<rect class="edge_bg" x="-1.5802997656287465" y="0.07352993626347296" width="0.19024953125749305" height="0.19024953125749305"/>
<text class="edge_text" text-anchor="middle" dominant-baseline="middle" transform="matrix(0.009512476562874654 0 0 0.009512476562874654 -1.485175 0.16865470189221948)">0</text>
</svg>
