<?xml version="1.0" encoding="utf-8"?>
<svg version="1.1" xmlns="http://www.w3.org/2000/svg" viewBox="-7.97460716113172 -6.237896648279355 14.858743322517087 13.943094296431852" style="enable-background:new -7.97460716113172 -6.237896648279355 14.858743322517087 13.943094296431852;">
<style type="text/css">
  .face_stroke {fill:none; stroke:#000000; stroke-width:0.02; stroke-miterlimit:10;}
  .face_text {fill:#000000; font-family:monospace;}
  .edge_text {fill:#ff0000; font-family:monospace;}
  .edge_bg {fill:#f3f3f3; stroke:#606060; stroke-width:0.01;}
</style>
<polygon class="face_stroke" points="0.288675134594813,-0.5 -0.5773502691896258,-7.07050159149938e-17 0.288675134594813,0.5"/>
<polygon class="face_stroke" points="0.28867486540518683,0.4999999999999999 1.1547002691896258,1.414100318299876e-16 0.28867486540518755,-0.5000000000000003"/>
<polygon class="face_stroke" points="0.28867521756194847,0.49999962736560644 -0.4103372294459344,1.2151091287205067 -0.8904941642518498,2.0922917311231006 -1.11618454357306,3.0664908137965776 -1.0706699444400973,4.065454487443304 -0.7573259764552156,5.015094186343625 -0.19939192827058383,5.844979478342649 0.5617527841383798,6.493561567805406 1.4696575394576679,6.912738088222071 2.4569871953731366,7.071420634678323 3.4505160280381704,6.957840448627849 4.376558549025979,6.580421252875233 5.166434420917536,5.967154502591518 5.761562163736327,5.163523387136538 6.117803875325745,4.2291295499758625 6.20873873763459,3.233272707444332 6.027622527924733,2.2498110058105905 5.587887806918826,1.3516833004468958 4.922147687221381,0.6054996145992071 4.079777067951968,0.0666009786836339 3.1232507243526326,-0.2250449607711884 2.123509839511284,-0.24780815862729133 1.1547006213463726,-3.7263438690260386e-07"/>
<polygon class="face_stroke" points="0.2886755548211918,0.4999997607022616 -0.680133663719807,0.25219197617970174 -0.41033689110138505,1.2151092631180367"/>
<polygon class="face_stroke" points="-0.6801341088986153,0.2521917368819634 -1.3791465548211916,0.9673012392977385 -0.410337336280193,1.2151090238202982"/>
<polygon class="face_stroke" points="-0.6801337672374967,0.25219186680096284 -0.1999768337628618,-0.6249907363303548 0.025713544079828843,-1.5991898193463592 -0.01980105656924014,-2.59815349292401 -0.333145025995369,-3.5477931913487746 -0.8910790754395008,-4.377678482501036 -1.652223788832804,-5.026260570808619 -2.560128544788268,-5.445437089847376 -3.547458200944567,-5.60411963480518 -4.54098703343722,-5.490539447246848 -5.4670295538522256,-5.113120250088798 -6.256905424813042,-4.499853498606305 -6.852033166412179,-3.696222382248115 -7.208274876583486,-2.761828544546786 -7.299209737380943,-1.7659717018772438 -7.11809352617851,-0.7825100005183783 -6.678358803809537,0.1156177041779407 -6.012618682979631,0.8618013890152474 -5.1702480628923455,1.4007000236523761 -4.213721718850384,1.6923459616555037 -3.213980833974485,1.7151091579943247 -2.2451716161856714,1.4673013705310844 -1.3791462131600722,0.9673013692167367"/>
<text class="face_text" text-anchor="middle" dominant-baseline="middle" transform="matrix(0.027886188592863705 0 0 0.027886188592863705 0.0 0.0)">0</text>
<text class="face_text" text-anchor="middle" dominant-baseline="middle" transform="matrix(0.027886188592863705 0 0 0.027886188592863705 0.57735 0.0)">45</text>
<text class="face_text" text-anchor="middle" dominant-baseline="middle" transform="matrix(0.027886188592863705 0 0 0.027886188592863705 2.540573 3.400401)">47</text>
<text class="face_text" text-anchor="middle" dominant-baseline="middle" transform="matrix(0.027886188592863705 0 0 0.027886188592863705 -0.267265 0.655767)">1</text>
<text class="face_text" text-anchor="middle" dominant-baseline="middle" transform="matrix(0.027886188592863705 0 0 0.027886188592863705 -0.823206 0.811534)">2</text>
<text class="face_text" text-anchor="middle" dominant-baseline="middle" transform="matrix(0.027886188592863705 0 0 0.027886188592863705 -3.631044 -1.9331)">46</text>
<rect class="edge_bg" x="0.009812979476550021" y="-0.2788618859286371" width="0.5577237718572741" height="0.5577237718572741"/>
<text class="edge_text" text-anchor="middle" dominant-baseline="middle" transform="matrix(0.027886188592863705 0 0 0.027886188592863705 0.28867486540518705 -3.535250795749691e-17)">0</text>
<rect class="edge_bg" x="0.4428260335255304" y="-0.028862258563030596" width="0.5577237718572741" height="0.5577237718572741"/>
<text class="edge_text" text-anchor="middle" dominant-baseline="middle" transform="matrix(0.027886188592863705 0 0 0.027886188592863705 0.7216879194541674 0.24999962736560644)">6</text>
<rect class="edge_bg" x="-0.33969255406873344" y="0.578692625981512" width="0.5577237718572741" height="0.5577237718572741"/>
<text class="edge_text" text-anchor="middle" dominant-baseline="middle" transform="matrix(0.027886188592863705 0 0 0.027886188592863705 -0.06083066814009641 0.8575545119101491)">5</text>
<rect class="edge_bg" x="-0.824097608518041" y="0.4547884944224937" width="0.5577237718572741" height="0.5577237718572741"/>
<text class="edge_text" text-anchor="middle" dominant-baseline="middle" transform="matrix(0.027886188592863705 0 0 0.027886188592863705 -0.545235722589404 0.7336503803511307)">7</text>
<rect class="edge_bg" x="-1.3085018761274219" y="0.33088473208021363" width="0.5577237718572741" height="0.5577237718572741"/>
<text class="edge_text" text-anchor="middle" dominant-baseline="middle" transform="matrix(0.027886188592863705 0 0 0.027886188592863705 -1.0296399901987847 0.6097466180088507)">8</text>
</svg>
