<?xml version="1.0" encoding="utf-8"?>
<svg version="1.1" xmlns="http://www.w3.org/2000/svg" viewBox="-1.7910194799721337 -0.8785710317339165 8.380699085111806 8.328562698146156" style="enable-background:new -1.7910194799721337 -0.8785710317339165 8.380699085111806 8.328562698146156;">
<style type="text/css">
  .face_stroke {fill:none; stroke:#000000; stroke-width:0.02; stroke-miterlimit:10;}
  .face_text {fill:#000000; font-family:monospace;}
  .edge_text {fill:#ff0000; font-family:monospace;}
  .edge_bg {fill:#f3f3f3; stroke:#606060; stroke-width:0.01;}
</style>
<polygon class="face_stroke" points="0.288675134594813,-0.5 -0.5773502691896258,-7.07050159149938e-17 0.288675134594813,0.5"/>
<polygon class="face_stroke" points="0.28867486540518683,0.4999999999999999 1.1547002691896258,1.414100318299876e-16 0.28867486540518755,-0.5000000000000003"/>
<polygon class="face_stroke" points="0.28867521756194847,0.49999962736560644 -0.4103372294459344,1.2151091287205067 -0.8904941642518498,2.0922917311231006 -1.11618454357306,3.0664908137965776 -1.0706699444400973,4.065454487443304 -0.7573259764552156,5.015094186343625 -0.19939192827058383,5.844979478342649 0.5617527841383798,6.493561567805406 1.4696575394576679,6.912738088222071 2.4569871953731366,7.071420634678323 3.4505160280381704,6.957840448627849 4.376558549025979,6.580421252875233 5.166434420917536,5.967154502591518 5.761562163736327,5.163523387136538 6.117803875325745,4.2291295499758625 6.20873873763459,3.233272707444332 6.027622527924733,2.2498110058105905 5.587887806918826,1.3516833004468958 4.922147687221381,0.6054996145992071 4.079777067951968,0.0666009786836339 3.1232507243526326,-0.2250449607711884 2.123509839511284,-0.24780815862729133 1.1547006213463726,-3.7263438690260386e-07"/>
<polygon class="face_stroke" points="-0.41033772769479676,1.2151090650830947 -1.4100786124670517,1.237872265973769 -0.8904946598381516,2.092291668943136"/>
<polygon class="face_stroke" points="-0.41033738753294824,1.2151097340262307 -0.9299213401618484,0.360690331056864 -1.4100782723052032,1.237872934916905"/>
<polygon class="face_stroke" points="-0.41033765983815157,1.215109668943136 0.06981927230520324,0.3379270650830947 -0.9299216124670515,0.360690265973769"/>
<text class="face_text" text-anchor="middle" dominant-baseline="middle" transform="matrix(0.016657125396292313 0 0 0.016657125396292313 0.0 0.0)">0</text>
<text class="face_text" text-anchor="middle" dominant-baseline="middle" transform="matrix(0.016657125396292313 0 0 0.016657125396292313 0.57735 0.0)">45</text>
<text class="face_text" text-anchor="middle" dominant-baseline="middle" transform="matrix(0.016657125396292313 0 0 0.016657125396292313 2.540573 3.400401)">47</text>
<text class="face_text" text-anchor="middle" dominant-baseline="middle" transform="matrix(0.016657125396292313 0 0 0.016657125396292313 -0.903637 1.515091)">3</text>
<text class="face_text" text-anchor="middle" dominant-baseline="middle" transform="matrix(0.016657125396292313 0 0 0.016657125396292313 -0.916779 0.937891)">2</text>
<text class="face_text" text-anchor="middle" dominant-baseline="middle" transform="matrix(0.016657125396292313 0 0 0.016657125396292313 -0.42348 0.637909)">1</text>
<rect class="edge_bg" x="0.12210361144226392" y="-0.16657125396292316" width="0.33314250792584627" height="0.33314250792584627"/>
<text class="edge_text" text-anchor="middle" dominant-baseline="middle" transform="matrix(0.016657125396292313 0 0 0.016657125396292313 0.28867486540518705 -3.535250795749691e-17)">0</text>
<rect class="edge_bg" x="0.5551166654912443" y="0.0834283734026833" width="0.33314250792584627" height="0.33314250792584627"/>
<text class="edge_text" text-anchor="middle" dominant-baseline="middle" transform="matrix(0.016657125396292313 0 0 0.016657125396292313 0.7216879194541674 0.24999962736560644)">6</text>
<rect class="edge_bg" x="-0.8169874477293972" y="1.4871291130501922" width="0.33314250792584627" height="0.33314250792584627"/>
<text class="edge_text" text-anchor="middle" dominant-baseline="middle" transform="matrix(0.016657125396292313 0 0 0.016657125396292313 -0.6504161937664741 1.6537003670131154)">10</text>
<rect class="edge_bg" x="-1.0767790838819988" y="1.0599200805086448" width="0.33314250792584627" height="0.33314250792584627"/>
<text class="edge_text" text-anchor="middle" dominant-baseline="middle" transform="matrix(0.016657125396292313 0 0 0.016657125396292313 -0.9102078299190758 1.226491334471568)">9</text>
<rect class="edge_bg" x="-0.8367008901155248" y="0.6213287134955294" width="0.33314250792584627" height="0.33314250792584627"/>
<text class="edge_text" text-anchor="middle" dominant-baseline="middle" transform="matrix(0.016657125396292313 0 0 0.016657125396292313 -0.6701296361526017 0.7878999674584526)">7</text>
</svg>
