<?xml version="1.0" encoding="utf-8"?>
<svg version="1.1" xmlns="http://www.w3.org/2000/svg" viewBox="-9.24521321086539 -4.281890498412554 16.189854422238074 11.893944996571395" style="enable-background:new -9.24521321086539 -4.281890498412554 16.189854422238074 11.893944996571395;">
<style type="text/css">
  .face_stroke {fill:none; stroke:#000000; stroke-width:0.02; stroke-miterlimit:10;}
  .face_text {fill:#000000; font-family:monospace;}
  .edge_text {fill:#ff0000; font-family:monospace;}
  .edge_bg {fill:#f3f3f3; stroke:#606060; stroke-width:0.01;}
</style>
<polygon class="face_stroke" points="0.288675134594813,-0.5 -0.5773502691896258,-7.07050159149938e-17 0.288675134594813,0.5"/>
<polygon class="face_stroke" points="0.28867486540518683,0.4999999999999999 1.1547002691896258,1.414100318299876e-16 0.28867486540518755,-0.5000000000000003"/>
<polygon class="face_stroke" points="0.28867521756194847,0.49999962736560644 -0.4103372294459344,1.2151091287205067 -0.8904941642518498,2.0922917311231006 -1.11618454357306,3.0664908137965776 -1.0706699444400973,4.065454487443304 -0.7573259764552156,5.015094186343625 -0.19939192827058383,5.844979478342649 0.5617527841383798,6.493561567805406 1.4696575394576679,6.912738088222071 2.4569871953731366,7.071420634678323 3.4505160280381704,6.957840448627849 4.376558549025979,6.580421252875233 5.166434420917536,5.967154502591518 5.761562163736327,5.163523387136538 6.117803875325745,4.2291295499758625 6.20873873763459,3.233272707444332 6.027622527924733,2.2498110058105905 5.587887806918826,1.3516833004468958 4.922147687221381,0.6054996145992071 4.079777067951968,0.0666009786836339 3.1232507243526326,-0.2250449607711884 2.123509839511284,-0.24780815862729133 1.1547006213463726,-3.7263438690260386e-07"/>
<polygon class="face_stroke" points="-0.41033772769479676,1.2151090650830947 -1.4100786124670517,1.237872265973769 -0.8904946598381516,2.092291668943136"/>
<polygon class="face_stroke" points="-1.4100783401618484,1.237872331056864 -1.8902352723052032,2.115054934916905 -0.8904943875329484,2.092291734026231"/>
<polygon class="face_stroke" points="-1.4100778317775737,1.2378722584623918 -1.1843874554134035,0.263673175103862 -1.2299020575785766,-0.7352904984047125 -1.5432460284459526,-1.6849301963539216 -2.1011800791495823,-2.514815486659418 -2.862324793527224,-3.16339757381183 -3.770229550118863,-3.5825740914726807 -4.7575592065159915,-3.7412566349320358 -5.751088038836267,-3.627676445865848 -6.677130558678471,-3.2502572473023648 -7.467006428708545,-2.6369904946210956 -8.06213416908803,-1.833359377359694 -8.418375877841228,-0.8989655391177029 -8.509310737127297,0.09689130368984902 -8.328194524432286,1.080353004773837 -7.888459800700244,1.9784807088027816 -7.222719678737871,2.7246643926297094 -6.380349057832712,3.2635630259883914 -5.423822713348126,3.55520896253982 -4.424081828437683,3.5779721573613577 -3.4552726110249585,3.330164368427777 -2.589247208758198,2.830164365799082 -1.8902347639209278,2.115054862322432"/>
<polygon class="face_stroke" points="-1.4100782390523703,1.2378723425036586 -0.45355189678090924,0.946226398693738 -1.18438786416672,0.2636732588026036"/>
<polygon class="face_stroke" points="-0.4535521358332796,0.9462267411973962 -0.2278617609476295,-0.027972342503658598 -1.1843881032190908,0.2636736013062623"/>
<text class="face_text" text-anchor="middle" dominant-baseline="middle" transform="matrix(0.02378788999314279 0 0 0.02378788999314279 0.0 0.0)">0</text>
<text class="face_text" text-anchor="middle" dominant-baseline="middle" transform="matrix(0.02378788999314279 0 0 0.02378788999314279 0.57735 0.0)">45</text>
<text class="face_text" text-anchor="middle" dominant-baseline="middle" transform="matrix(0.02378788999314279 0 0 0.02378788999314279 2.540573 3.400401)">47</text>
<text class="face_text" text-anchor="middle" dominant-baseline="middle" transform="matrix(0.02378788999314279 0 0 0.02378788999314279 -0.903637 1.515091)">3</text>
<text class="face_text" text-anchor="middle" dominant-baseline="middle" transform="matrix(0.02378788999314279 0 0 0.02378788999314279 -1.396936 1.815073)">4</text>
<text class="face_text" text-anchor="middle" dominant-baseline="middle" transform="matrix(0.02378788999314279 0 0 0.02378788999314279 -4.841145 -0.070237)">46</text>
<text class="face_text" text-anchor="middle" dominant-baseline="middle" transform="matrix(0.02378788999314279 0 0 0.02378788999314279 -1.016006 0.815924)">2</text>
<text class="face_text" text-anchor="middle" dominant-baseline="middle" transform="matrix(0.02378788999314279 0 0 0.02378788999314279 -0.621934 0.393976)">1</text>
<rect class="edge_bg" x="0.05079596547375914" y="-0.23787889993142794" width="0.4757577998628558" height="0.4757577998628558"/>
<text class="edge_text" text-anchor="middle" dominant-baseline="middle" transform="matrix(0.02378788999314279 0 0 0.02378788999314279 0.28867486540518705 -3.535250795749691e-17)">0</text>
<rect class="edge_bg" x="0.4838090195227395" y="0.012120727434178524" width="0.4757577998628558" height="0.4757577998628558"/>
<text class="edge_text" text-anchor="middle" dominant-baseline="middle" transform="matrix(0.02378788999314279 0 0 0.02378788999314279 0.7216879194541674 0.24999962736560644)">6</text>
<rect class="edge_bg" x="-0.8882950936979019" y="1.4158214670816875" width="0.4757577998628558" height="0.4757577998628558"/>
<text class="edge_text" text-anchor="middle" dominant-baseline="middle" transform="matrix(0.02378788999314279 0 0 0.02378788999314279 -0.6504161937664741 1.6537003670131154)">10</text>
<rect class="edge_bg" x="-1.3881652637788262" y="1.4272031326101193" width="0.4757577998628558" height="0.4757577998628558"/>
<text class="edge_text" text-anchor="middle" dominant-baseline="middle" transform="matrix(0.02378788999314279 0 0 0.02378788999314279 -1.1502863638473984 1.6650820325415472)">11</text>
<rect class="edge_bg" x="-1.8880351977806784" y="1.4385846604609842" width="0.4757577998628558" height="0.4757577998628558"/>
<text class="edge_text" text-anchor="middle" dominant-baseline="middle" transform="matrix(0.02378788999314279 0 0 0.02378788999314279 -1.6501562978492506 1.676463560392412)">12</text>
<rect class="edge_bg" x="-1.5351119515409732" y="0.5128939007217033" width="0.4757577998628558" height="0.4757577998628558"/>
<text class="edge_text" text-anchor="middle" dominant-baseline="middle" transform="matrix(0.02378788999314279 0 0 0.02378788999314279 -1.2972330516095454 0.7507728006531311)">8</text>
<rect class="edge_bg" x="-1.0568490194576132" y="0.36707127132040135" width="0.4757577998628558" height="0.4757577998628558"/>
<text class="edge_text" text-anchor="middle" dominant-baseline="middle" transform="matrix(0.02378788999314279 0 0 0.02378788999314279 -0.8189701195261853 0.6049501712518293)">7</text>
</svg>
