<?xml version="1.0" encoding="utf-8"?>
<svg version="1.1" xmlns="http://www.w3.org/2000/svg" viewBox="-8.486002807857151 -4.115507474467384 16.8503436157143 9.946124948554463" style="enable-background:new -8.486002807857151 -4.115507474467384 16.8503436157143 9.946124948554463;">
<style type="text/css">
  .face_stroke {fill:none; stroke:#000000; stroke-width:0.02; stroke-miterlimit:10;}
  .face_text {fill:#000000; font-family:monospace;}
  .edge_text {fill:#ff0000; font-family:monospace;}
  .edge_bg {fill:#f3f3f3; stroke:#606060; stroke-width:0.01;}
</style>
<polygon class="face_stroke" points="0.288675134594813,-0.5 -0.5773502691896258,-7.07050159149938e-17 0.288675134594813,0.5"/>
<polygon class="face_stroke" points="0.2886748389083338,0.4999999999999993 0.5584716100653586,1.4629172873477996 1.0780555601007906,2.3173366918942864 1.8088915243789154,2.9998898351129415 2.69677674278129,3.4599548728440936 3.6758608304636127,3.6634108858967274 4.673529599654154,3.5951684725320563 5.615790521772974,3.26028886036107 6.432760414783418,2.683608538246201 7.063848359109469,1.9078972475417808 7.46224944895571,0.9906859460363281 7.598416098051956,-5.6233574437464554e-15 7.462249448955707,-0.9906859460363389 7.063848359109464,-1.9078972475417906 6.432760414783408,-2.6836085382462107 5.615790521772964,-3.2602888603610753 4.67352959965414,-3.5951684725320594 3.675860830463598,-3.6634108858967265 2.69677674278128,-3.4599548728440896 1.8088915243789034,-2.999889835112933 1.0780555601007809,-2.317336691894274 0.5584716100653497,-1.4629172873477805 0.2886748389083307,-0.49999999999997685"/>
<polygon class="face_stroke" points="0.2886748911013848,0.4999997368819634 -0.4103375548211917,1.2151092392977385 0.558471663719807,1.4629170238202982"/>
<polygon class="face_stroke" points="0.2886755548211918,0.4999997607022616 -0.680133663719807,0.25219197617970174 -0.41033689110138505,1.2151092631180367"/>
<polygon class="face_stroke" points="-0.6801336122855948,0.2521927075407029 -1.1997175636177615,-0.6022266962172249 -1.9305535289317812,-1.2847798383267055 -2.818438748032386,-1.7448448747103338 -3.79752283602349,-1.948300886277034 -4.7951916051104595,-1.8800584713982234 -5.737452526721041,-1.545178857797188 -6.5544224188562685,-0.9684985344424242 -7.185510362005041,-0.19278724278021664 -7.583911450459251,0.7244240593298802 -7.720078098051956,1.7151100055728659 -7.583911447452168,2.705795951402539 -7.1855103562138956,3.623007252303349 -6.554422410710565,4.39871854204998 -5.7374525168249075,4.975398862924951 -4.795191594197849,5.31027847366589 -3.797522824903737,5.378520885516422 -2.8184387375301956,5.175064870977854 -1.9305535198260482,4.714999831899177 -1.1997175565838205,4.032446687571349 -0.6801336078451192,3.178027282236297 -0.4103368381494943,2.215109994479034 -0.41033683966717316,1.2151099944790342"/>
<polygon class="face_stroke" points="-0.6801336598381515,0.252192668943136 -0.19997672769479674,-0.6249899349169052 -1.1997176124670514,-0.602226734026231"/>
<text class="face_text" text-anchor="middle" dominant-baseline="middle" transform="matrix(0.019892249897108926 0 0 0.019892249897108926 0.0 0.0)">0</text>
<text class="face_text" text-anchor="middle" dominant-baseline="middle" transform="matrix(0.019892249897108926 0 0 0.019892249897108926 3.926445 0.0)">46</text>
<text class="face_text" text-anchor="middle" dominant-baseline="middle" transform="matrix(0.019892249897108926 0 0 0.019892249897108926 0.145603 1.059342)">44</text>
<text class="face_text" text-anchor="middle" dominant-baseline="middle" transform="matrix(0.019892249897108926 0 0 0.019892249897108926 -0.267265 0.655767)">45</text>
<text class="face_text" text-anchor="middle" dominant-baseline="middle" transform="matrix(0.019892249897108926 0 0 0.019892249897108926 -4.048107 1.71511)">47</text>
<text class="face_text" text-anchor="middle" dominant-baseline="middle" transform="matrix(0.019892249897108926 0 0 0.019892249897108926 -0.693276 -0.325008)">1</text>
<rect class="edge_bg" x="0.08975233993724407" y="-0.1989224989710897" width="0.39784499794217854" height="0.39784499794217854"/>
<text class="edge_text" text-anchor="middle" dominant-baseline="middle" transform="matrix(0.019892249897108926 0 0 0.019892249897108926 0.28867483890833334 -4.454983583814661e-16)">1</text>
<rect class="edge_bg" x="0.22465077843950665" y="0.7825358813800415" width="0.39784499794217854" height="0.39784499794217854"/>
<text class="edge_text" text-anchor="middle" dominant-baseline="middle" transform="matrix(0.019892249897108926 0 0 0.019892249897108926 0.4235732774105959 0.9814583803511308)">2</text>
<rect class="edge_bg" x="-0.2597531671111857" y="0.6586320129390598" width="0.39784499794217854" height="0.39784499794217854"/>
<text class="edge_text" text-anchor="middle" dominant-baseline="middle" transform="matrix(0.019892249897108926 0 0 0.019892249897108926 -0.06083066814009641 0.8575545119101491)">3</text>
<rect class="edge_bg" x="-0.7441577249474721" y="0.5347288520387808" width="0.39784499794217854" height="0.39784499794217854"/>
<text class="edge_text" text-anchor="middle" dominant-baseline="middle" transform="matrix(0.019892249897108926 0 0 0.019892249897108926 -0.5452352259763829 0.7336513510098701)">6</text>
<rect class="edge_bg" x="-1.1388481351236908" y="-0.3739395315126366" width="0.39784499794217854" height="0.39784499794217854"/>
<text class="edge_text" text-anchor="middle" dominant-baseline="middle" transform="matrix(0.019892249897108926 0 0 0.019892249897108926 -0.9399256361526016 -0.17501703254154735)">5</text>
</svg>
