<?xml version="1.0" encoding="utf-8"?>
<svg version="1.1" xmlns="http://www.w3.org/2000/svg" viewBox="-4.446246507857151 -4.0547519744864005 17.034059015714302 8.609503948972801" style="enable-background:new -4.446246507857151 -4.0547519744864005 17.034059015714302 8.609503948972801;">
<style type="text/css">
  .face_stroke {fill:none; stroke:#000000; stroke-width:0.02; stroke-miterlimit:10;}
  .face_text {fill:#000000; font-family:monospace;}
  .edge_text {fill:#ff0000; font-family:monospace;}
  .edge_bg {fill:#f3f3f3; stroke:#606060; stroke-width:0.01;}
</style>
<polygon class="face_stroke" points="3.6377701610916664,-0.5 3.367973389934642,-1.4629172873477991 2.8483894398992082,-2.317336691894288 2.1175534756210848,-2.9998898351129415 1.2296682572187088,-3.459954872844094 0.25058416953638646,-3.6634108858967274 -0.7470845996541539,-3.5951684725320563 -1.6893455217729745,-3.26028886036107 -2.506315414783416,-2.6836085382462027 -3.1374033591094683,-1.9078972475417832 -3.5358044489557092,-0.9906859460363308 -3.671971098051956,-4.496867651790919e-16 -3.5358044489557092,0.9906859460363313 -3.1374033591094688,1.9078972475417824 -2.506315414783417,2.6836085382462023 -1.6893455217729754,3.2602888603610696 -0.7470845996541555,3.595168472532056 0.2505841695363864,3.6634108858967274 1.2296682572187088,3.459954872844094 2.117553475621086,2.9998898351129406 2.848389439899212,2.3173366918942837 3.367973389934644,1.462917287347795 3.637770161091667,0.49999999999999584"/>
<polygon class="face_stroke" points="3.637769865405187,0.4999999999999999 4.503795269189626,1.414100318299876e-16 3.6377698654051875,-0.5000000000000003"/>
<polygon class="face_stroke" points="3.637769730810374,0.49999999999999994 4.503795134594813,1.0 4.503795134594813,-1.1102230246251565e-16"/>
<polygon class="face_stroke" points="4.503795838908333,0.9999999999999993 4.773592610065357,1.9629172873477996 5.29317656010079,2.8173366918942864 6.024012524378914,3.4998898351129415 6.911897742781289,3.9599548728440936 7.890981830463612,4.163410885896727 8.888650599654154,4.095168472532056 9.830911521772974,3.76028886036107 10.647881414783416,3.183608538246201 11.27896935910947,2.407897247541781 11.67737044895571,1.490685946036328 11.813537098051956,0.4999999999999944 11.677370448955706,-0.49068594603633886 11.278969359109464,-1.4078972475417906 10.647881414783406,-2.1836085382462107 9.830911521772963,-2.7602888603610753 8.88865059965414,-3.0951684725320594 7.890981830463597,-3.1634108858967265 6.911897742781279,-2.9599548728440896 6.024012524378902,-2.499889835112933 5.29317656010078,-1.817336691894274 4.773592610065348,-0.9629172873477805 4.50379583890833,2.3148150063434514e-14"/>
<polygon class="face_stroke" points="5.29317613583328,2.817336258802604 5.06748576094763,3.791535342503659 6.024012103219091,3.499889398693738"/>
<polygon class="face_stroke" points="5.293176239052371,2.817336657496342 4.3366498967809095,3.1089826013062627 5.067485864166721,3.7915357411973964"/>
<polygon class="face_stroke" points="5.293176103219091,2.8173363986937376 4.56234013583328,2.134783258802604 4.33664976094763,3.108982342503659"/>
<polygon class="face_stroke" points="4.562340239052371,2.1347836574963415 3.6058138967809095,2.4264296013062623 4.336649864166721,3.108982741197396"/>
<polygon class="face_stroke" points="4.562340103219091,2.1347833986937377 3.83150413583328,1.452230258802604 3.6058137609476297,2.426429342503659"/>
<polygon class="face_stroke" points="3.8315042390523706,1.4522306574963415 2.874977896780909,1.7438766013062623 3.60581386416672,2.4264297411973965"/>
<text class="face_text" text-anchor="middle" dominant-baseline="middle" transform="matrix(0.0172190078979456 0 0 0.0172190078979456 0.0 0.0)">46</text>
<text class="face_text" text-anchor="middle" dominant-baseline="middle" transform="matrix(0.0172190078979456 0 0 0.0172190078979456 3.926445 0.0)">0</text>
<text class="face_text" text-anchor="middle" dominant-baseline="middle" transform="matrix(0.0172190078979456 0 0 0.0172190078979456 4.21512 0.5)">1</text>
<text class="face_text" text-anchor="middle" dominant-baseline="middle" transform="matrix(0.0172190078979456 0 0 0.0172190078979456 8.141566 0.5)">47</text>
<text class="face_text" text-anchor="middle" dominant-baseline="middle" transform="matrix(0.0172190078979456 0 0 0.0172190078979456 5.461558 3.369587)">7</text>
<text class="face_text" text-anchor="middle" dominant-baseline="middle" transform="matrix(0.0172190078979456 0 0 0.0172190078979456 4.899104 3.239285)">6</text>
<text class="face_text" text-anchor="middle" dominant-baseline="middle" transform="matrix(0.0172190078979456 0 0 0.0172190078979456 4.730722 2.687034)">5</text>
<text class="face_text" text-anchor="middle" dominant-baseline="middle" transform="matrix(0.0172190078979456 0 0 0.0172190078979456 4.168268 2.556732)">4</text>
<text class="face_text" text-anchor="middle" dominant-baseline="middle" transform="matrix(0.0172190078979456 0 0 0.0172190078979456 3.999886 2.004481)">3</text>
<text class="face_text" text-anchor="middle" dominant-baseline="middle" transform="matrix(0.0172190078979456 0 0 0.0172190078979456 3.437432 1.874179)">2</text>
<rect class="edge_bg" x="3.465579786425731" y="-0.17219007897945604" width="0.344380157958912" height="0.344380157958912"/>
<text class="edge_text" text-anchor="middle" dominant-baseline="middle" transform="matrix(0.0172190078979456 0 0 0.0172190078979456 3.637769865405187 -3.535250795749691e-17)">1</text>
<rect class="edge_bg" x="3.8985923537231373" y="0.07780992102054388" width="0.344380157958912" height="0.344380157958912"/>
<text class="edge_text" text-anchor="middle" dominant-baseline="middle" transform="matrix(0.0172190078979456 0 0 0.0172190078979456 4.070782432702593 0.2499999999999999)">4</text>
<rect class="edge_bg" x="4.331605759928876" y="0.3278099210205435" width="0.344380157958912" height="0.344380157958912"/>
<text class="edge_text" text-anchor="middle" dominant-baseline="middle" transform="matrix(0.0172190078979456 0 0 0.0172190078979456 4.503795838908332 0.49999999999999956)">5</text>
<rect class="edge_bg" x="5.486404040546729" y="2.986422749768715" width="0.344380157958912" height="0.344380157958912"/>
<text class="edge_text" text-anchor="middle" dominant-baseline="middle" transform="matrix(0.0172190078979456 0 0 0.0172190078979456 5.658594119526185 3.1586128287481707)">18</text>
<rect class="edge_bg" x="5.008140972630089" y="3.1322461203674132" width="0.344380157958912" height="0.344380157958912"/>
<text class="edge_text" text-anchor="middle" dominant-baseline="middle" transform="matrix(0.0172190078979456 0 0 0.0172190078979456 5.180331051609546 3.304436199346869)">17</text>
<rect class="edge_bg" x="4.642722853103904" y="2.7909692916192426" width="0.344380157958912" height="0.344380157958912"/>
<text class="edge_text" text-anchor="middle" dominant-baseline="middle" transform="matrix(0.0172190078979456 0 0 0.0172190078979456 4.81491293208336 2.9631593705986985)">15</text>
<rect class="edge_bg" x="4.277304972630089" y="2.449693120367413" width="0.344380157958912" height="0.344380157958912"/>
<text class="edge_text" text-anchor="middle" dominant-baseline="middle" transform="matrix(0.0172190078979456 0 0 0.0172190078979456 4.449495051609546 2.6218831993468688)">13</text>
<rect class="edge_bg" x="3.9118868531039044" y="2.1084162916192426" width="0.344380157958912" height="0.344380157958912"/>
<text class="edge_text" text-anchor="middle" dominant-baseline="middle" transform="matrix(0.0172190078979456 0 0 0.0172190078979456 4.08407693208336 2.2806063705986985)">11</text>
<rect class="edge_bg" x="3.5464689726300893" y="1.767140120367413" width="0.344380157958912" height="0.344380157958912"/>
<text class="edge_text" text-anchor="middle" dominant-baseline="middle" transform="matrix(0.0172190078979456 0 0 0.0172190078979456 3.7186590516095452 1.939330199346869)">9</text>
</svg>
