<?xml version="1.0" encoding="utf-8"?>
<svg version="1.1" xmlns="http://www.w3.org/2000/svg" viewBox="-4.446246507857151 -4.0547519744864005 17.034059015714302 8.609503948972801" style="enable-background:new -4.446246507857151 -4.0547519744864005 17.034059015714302 8.609503948972801;">
<style type="text/css">
  .face_stroke {fill:none; stroke:#000000; stroke-width:0.02; stroke-miterlimit:10;}
  .face_text {fill:#000000; font-family:monospace;}
  .edge_text {fill:#ff0000; font-family:monospace;}
  .edge_bg {fill:#f3f3f3; stroke:#606060; stroke-width:0.01;}
</style>
<polygon class="face_stroke" points="3.6377701610916664,-0.5 3.367973389934642,-1.4629172873477991 2.8483894398992082,-2.317336691894288 2.1175534756210848,-2.9998898351129415 1.2296682572187088,-3.459954872844094 0.25058416953638646,-3.6634108858967274 -0.7470845996541539,-3.5951684725320563 -1.6893455217729745,-3.26028886036107 -2.506315414783416,-2.6836085382462027 -3.1374033591094683,-1.9078972475417832 -3.5358044489557092,-0.9906859460363308 -3.671971098051956,-4.496867651790919e-16 -3.5358044489557092,0.9906859460363313 -3.1374033591094688,1.9078972475417824 -2.506315414783417,2.6836085382462023 -1.6893455217729754,3.2602888603610696 -0.7470845996541555,3.595168472532056 0.2505841695363864,3.6634108858967274 1.2296682572187088,3.459954872844094 2.117553475621086,2.9998898351129406 2.848389439899212,2.3173366918942837 3.367973389934644,1.462917287347795 3.637770161091667,0.49999999999999584"/>
<polygon class="face_stroke" points="3.637769865405187,0.4999999999999999 4.503795269189626,1.414100318299876e-16 3.6377698654051875,-0.5000000000000003"/>
<polygon class="face_stroke" points="3.637769730810374,0.49999999999999994 4.503795134594813,1.0 4.503795134594813,-1.1102230246251565e-16"/>
<polygon class="face_stroke" points="4.503795838908333,0.9999999999999993 4.773592610065357,1.9629172873477996 5.29317656010079,2.8173366918942864 6.024012524378914,3.4998898351129415 6.911897742781289,3.9599548728440936 7.890981830463612,4.163410885896727 8.888650599654154,4.095168472532056 9.830911521772974,3.76028886036107 10.647881414783416,3.183608538246201 11.27896935910947,2.407897247541781 11.67737044895571,1.490685946036328 11.813537098051956,0.4999999999999944 11.677370448955706,-0.49068594603633886 11.278969359109464,-1.4078972475417906 10.647881414783406,-2.1836085382462107 9.830911521772963,-2.7602888603610753 8.88865059965414,-3.0951684725320594 7.890981830463597,-3.1634108858967265 6.911897742781279,-2.9599548728440896 6.024012524378902,-2.499889835112933 5.29317656010078,-1.817336691894274 4.773592610065348,-0.9629172873477805 4.50379583890833,2.3148150063434514e-14"/>
<polygon class="face_stroke" points="6.91189794573107,-2.9599551304372316 6.069527329733156,-3.498853771466595 6.0240127245357735,-2.499890098096173"/>
<polygon class="face_stroke" points="6.069527275464226,-3.4988539019038267 5.18164205426893,-3.0387888695627687 6.024012670266844,-2.499890228533405"/>
<polygon class="face_stroke" points="5.181641329733156,-3.0387887714665953 5.136126724535774,-2.0398250980961734 6.02401194573107,-2.499890130437232"/>
<polygon class="face_stroke" points="5.1816412754642265,-3.0387889019038266 4.29375605426893,-2.578723869562769 5.136126670266844,-2.039825228533405"/>
<polygon class="face_stroke" points="4.2937563297331565,-2.578723771466595 4.248241724535774,-1.5797600980961735 5.13612694573107,-2.0398251304372317"/>
<polygon class="face_stroke" points="4.293756275464227,-2.5787239019038264 3.405871054268929,-2.118658869562769 4.248241670266843,-1.579760228533405"/>
<polygon class="face_stroke" points="3.405871329733156,-2.1186587714665954 3.3603567245357735,-1.1196950980961735 4.2482419457310705,-1.5797601304372317"/>
<text class="face_text" text-anchor="middle" dominant-baseline="middle" transform="matrix(0.0172190078979456 0 0 0.0172190078979456 0.0 0.0)">46</text>
<text class="face_text" text-anchor="middle" dominant-baseline="middle" transform="matrix(0.0172190078979456 0 0 0.0172190078979456 3.926445 0.0)">0</text>
<text class="face_text" text-anchor="middle" dominant-baseline="middle" transform="matrix(0.0172190078979456 0 0 0.0172190078979456 4.21512 0.5)">1</text>
<text class="face_text" text-anchor="middle" dominant-baseline="middle" transform="matrix(0.0172190078979456 0 0 0.0172190078979456 8.141566 0.5)">47</text>
<text class="face_text" text-anchor="middle" dominant-baseline="middle" transform="matrix(0.0172190078979456 0 0 0.0172190078979456 6.335146 -2.986233)">39</text>
<text class="face_text" text-anchor="middle" dominant-baseline="middle" transform="matrix(0.0172190078979456 0 0 0.0172190078979456 5.758394 -3.012511)">40</text>
<text class="face_text" text-anchor="middle" dominant-baseline="middle" transform="matrix(0.0172190078979456 0 0 0.0172190078979456 5.44726 -2.526168)">41</text>
<text class="face_text" text-anchor="middle" dominant-baseline="middle" transform="matrix(0.0172190078979456 0 0 0.0172190078979456 4.870508 -2.552446)">42</text>
<text class="face_text" text-anchor="middle" dominant-baseline="middle" transform="matrix(0.0172190078979456 0 0 0.0172190078979456 4.559375 -2.066103)">43</text>
<text class="face_text" text-anchor="middle" dominant-baseline="middle" transform="matrix(0.0172190078979456 0 0 0.0172190078979456 3.982623 -2.092381)">44</text>
<text class="face_text" text-anchor="middle" dominant-baseline="middle" transform="matrix(0.0172190078979456 0 0 0.0172190078979456 3.67149 -1.606038)">45</text>
<rect class="edge_bg" x="3.465579786425731" y="-0.17219007897945604" width="0.344380157958912" height="0.344380157958912"/>
<text class="edge_text" text-anchor="middle" dominant-baseline="middle" transform="matrix(0.0172190078979456 0 0 0.0172190078979456 3.637769865405187 -3.535250795749691e-17)">1</text>
<rect class="edge_bg" x="3.8985923537231373" y="0.07780992102054388" width="0.344380157958912" height="0.344380157958912"/>
<text class="edge_text" text-anchor="middle" dominant-baseline="middle" transform="matrix(0.0172190078979456 0 0 0.0172190078979456 4.070782432702593 0.2499999999999999)">4</text>
<rect class="edge_bg" x="4.331605759928876" y="0.3278099210205435" width="0.344380157958912" height="0.344380157958912"/>
<text class="edge_text" text-anchor="middle" dominant-baseline="middle" transform="matrix(0.0172190078979456 0 0 0.0172190078979456 4.503795838908332 0.49999999999999956)">5</text>
<rect class="edge_bg" x="6.295765256153966" y="-2.902112693246158" width="0.344380157958912" height="0.344380157958912"/>
<text class="edge_text" text-anchor="middle" dominant-baseline="middle" transform="matrix(0.0172190078979456 0 0 0.0172190078979456 6.467955335133422 -2.729922614266702)">82</text>
<rect class="edge_bg" x="5.874579893886079" y="-3.1715621441980715" width="0.344380157958912" height="0.344380157958912"/>
<text class="edge_text" text-anchor="middle" dominant-baseline="middle" transform="matrix(0.0172190078979456 0 0 0.0172190078979456 6.046769972865535 -2.9993720652186155)">83</text>
<rect class="edge_bg" x="5.430636558752657" y="-2.9415295299313695" width="0.344380157958912" height="0.344380157958912"/>
<text class="edge_text" text-anchor="middle" dominant-baseline="middle" transform="matrix(0.0172190078979456 0 0 0.0172190078979456 5.602826637732114 -2.7693394509519136)">85</text>
<rect class="edge_bg" x="4.986693893886079" y="-2.7114971441980718" width="0.344380157958912" height="0.344380157958912"/>
<text class="edge_text" text-anchor="middle" dominant-baseline="middle" transform="matrix(0.0172190078979456 0 0 0.0172190078979456 5.158883972865535 -2.539307065218616)">87</text>
<rect class="edge_bg" x="4.5427515587526575" y="-2.4814645299313693" width="0.344380157958912" height="0.344380157958912"/>
<text class="edge_text" text-anchor="middle" dominant-baseline="middle" transform="matrix(0.0172190078979456 0 0 0.0172190078979456 4.714941637732114 -2.3092744509519134)">89</text>
<rect class="edge_bg" x="4.098808893886079" y="-2.2514321441980716" width="0.344380157958912" height="0.344380157958912"/>
<text class="edge_text" text-anchor="middle" dominant-baseline="middle" transform="matrix(0.0172190078979456 0 0 0.0172190078979456 4.270998972865535 -2.0792420652186157)">91</text>
<rect class="edge_bg" x="3.654866558752657" y="-2.0213995299313696" width="0.344380157958912" height="0.344380157958912"/>
<text class="edge_text" text-anchor="middle" dominant-baseline="middle" transform="matrix(0.0172190078979456 0 0 0.0172190078979456 3.827056637732113 -1.8492094509519135)">3</text>
</svg>
