<?xml version="1.0" encoding="utf-8"?>
<svg version="1.1" id="layer_1" xmlns="http://www.w3.org/2000/svg" xmlns:xlink="http://www.w3.org/1999/xlink" x="0px" y="0px" viewBox="-1.5888417685876268 -1.668033988749895 5.98929199784946 4.883390052751354" style="enable-background:new -1.5888417685876268 -1.668033988749895 5.98929199784946 4.883390052751354;" xml:space="preserve">
<style type="text/css">
  .no_fill_black_stroke {fill:none; stroke:#000000; stroke-width:0.02; stroke-miterlimit:10;}
  .face_text {fill:#000000; font-family:monospace;}
  .edge_text {fill:#ff0000; font-family:monospace;}
  .edge_bg {fill:#f3f3f3; stroke:#606060; stroke-width:0.02;}
</style>
<polygon class="no_fill_black_stroke" points="1.5388417685876268, -0.49999999999999994 0.9510565162951536, -1.3090169943749475 9.907600726170916e-17, -1.618033988749895 -0.9510565162951534, -1.3090169943749475 -1.5388417685876268, -0.5000000000000001 -1.5388417685876268, 0.5000000000000006 -0.9510565162951538, 1.3090169943749472 -2.9722802178512745e-16, 1.618033988749895 0.9510565162951533, 1.3090169943749477 1.5388417685876268, 0.5000000000000004"/>
<polygon class="no_fill_black_stroke" points="1.5388448654051867, 0.4999999999999999 2.404870269189626, 1.414100318299876e-16 1.5388448654051876, -0.5000000000000003"/>
<polygon class="no_fill_black_stroke" points="1.5388464138139677, 0.5000039359985406 1.1321097707381673, 1.4135493936411414 1.3400214615559267, 2.3916969943749478 2.083166287033321, 3.060827600733806 3.077688182401593, 3.1653560640014593 3.943713586186033, 2.6653560640014593 4.350450229261833, 1.751810606358858 4.142538538444074, 0.7736630056250539 3.3993937129666794, 0.1045323992661944 2.404871817598405, 3.9359985410936105e-06"/>
<text class="face_text" text-anchor="middle" dominant-baseline="middle" transform="matrix(0.009766780105502708 0 0 0.009766780105502708 0.0 0.0)">0</text>
<text class="face_text" text-anchor="middle" dominant-baseline="middle" transform="matrix(0.009766780105502708 0 0 0.009766780105502708 1.82752 0.0)">1</text>
<text class="face_text" text-anchor="middle" dominant-baseline="middle" transform="matrix(0.009766780105502708 0 0 0.009766780105502708 2.74128 1.58268)">10</text>
<rect class="edge_bg" x="1.44117706435016" y="-0.09766780105502712" width="0.19533560211005416" height="0.19533560211005416"/>
<text class="edge_text" text-anchor="middle" dominant-baseline="middle" transform="matrix(0.009766780105502708 0 0 0.009766780105502708 1.5388448654051872 -3.535250795749691e-17)">2</text>
<rect class="edge_bg" x="1.8741913146511597" y="0.15233613494351356" width="0.19533560211005416" height="0.19533560211005416"/>
<text class="edge_text" text-anchor="middle" dominant-baseline="middle" transform="matrix(0.009766780105502708 0 0 0.009766780105502708 1.9718591157061869 0.25000393599854065)">19</text>
</svg>
