<?xml version="1.0" encoding="utf-8"?>
<svg version="1.1" id="layer_1" xmlns="http://www.w3.org/2000/svg" xmlns:xlink="http://www.w3.org/1999/xlink" x="0px" y="0px" viewBox="-2.2512227685876267 -1.668033988749895 5.667584537175253 5.14508797749979" style="enable-background:new -2.2512227685876267 -1.668033988749895 5.667584537175253 5.14508797749979;" xml:space="preserve">
<style type="text/css">
  .no_fill_black_stroke {fill:none; stroke:#000000; stroke-width:0.02; stroke-miterlimit:10;}
  .face_text {fill:#000000; font-family:monospace;}
  .edge_text {fill:#ff0000; font-family:monospace;}
  .edge_bg {fill:#f3f3f3; stroke:#606060; stroke-width:0.02;}
</style>
<polygon class="no_fill_black_stroke" points="0.288675134594813, -0.5 -0.5773502691896258, -7.07050159149938e-17 0.288675134594813, 0.5"/>
<polygon class="no_fill_black_stroke" points="0.28867823141237325, 0.5000000000000006 0.8764634837048463, 1.3090169943749472 1.8275199999999998, 1.618033988749895 2.7785765162951535, 1.3090169943749477 3.366361768587627, 0.5000000000000004 3.366361768587627, -0.4999999999999996 2.7785765162951552, -1.3090169943749463 1.8275200000000005, -1.618033988749895 0.8764634837048467, -1.309016994374948 0.2886782314123735, -0.5000000000000006"/>
<polygon class="no_fill_black_stroke" points="0.28867551629515364, 0.5000030056250526 -0.6623809999999999, 0.19098601125010517 -1.6134375162951535, 0.5000030056250526 -2.201222768587627, 1.3090199999999999 -2.201222768587627, 2.3090200000000007 -1.6134375162951538, 3.1180369943749473 -0.6623810000000003, 3.427053988749895 0.2886755162951533, 3.1180369943749477 0.8764607685876268, 2.3090200000000003 0.8764607685876268, 1.3090200000000005"/>
<text class="face_text" text-anchor="middle" dominant-baseline="middle" transform="matrix(0.01029017595499958 0 0 0.01029017595499958 0.0 0.0)">1</text>
<text class="face_text" text-anchor="middle" dominant-baseline="middle" transform="matrix(0.01029017595499958 0 0 0.01029017595499958 1.82752 0.0)">0</text>
<text class="face_text" text-anchor="middle" dominant-baseline="middle" transform="matrix(0.01029017595499958 0 0 0.01029017595499958 -0.662381 1.80902)">2</text>
<rect class="edge_bg" x="0.18577647186237722" y="-0.10290175954999599" width="0.2058035190999916" height="0.2058035190999916"/>
<text class="edge_text" text-anchor="middle" dominant-baseline="middle" transform="matrix(0.01029017595499958 0 0 0.01029017595499958 0.28867823141237303 -1.8845376462950893e-16)">2</text>
<rect class="edge_bg" x="0.4796663828913945" y="0.8016097432625303" width="0.2058035190999916" height="0.2058035190999916"/>
<text class="edge_text" text-anchor="middle" dominant-baseline="middle" transform="matrix(0.01029017595499958 0 0 0.01029017595499958 0.5825681424413903 0.9045115028125261)">0</text>
</svg>
