<?xml version="1.0" encoding="utf-8"?>
<svg version="1.1" id="layer_1" xmlns="http://www.w3.org/2000/svg" xmlns:xlink="http://www.w3.org/1999/xlink" x="0px" y="0px" viewBox="-3.2022817685876266 -2.786063988749895 6.618643537175253 6.26311797749979" style="enable-background:new -3.2022817685876266 -2.786063988749895 6.618643537175253 6.26311797749979;" xml:space="preserve">
<style type="text/css">
  .no_fill_black_stroke {fill:none; stroke:#000000; stroke-width:0.02; stroke-miterlimit:10;}
  .face_text {fill:#000000; font-family:monospace;}
  .edge_text {fill:#ff0000; font-family:monospace;}
  .edge_bg {fill:#f3f3f3; stroke:#606060; stroke-width:0.02;}
</style>
<polygon class="no_fill_black_stroke" points="0.288675134594813, -0.5 -0.5773502691896258, -7.07050159149938e-17 0.288675134594813, 0.5"/>
<polygon class="no_fill_black_stroke" points="0.28867823141237325, 0.5000000000000006 0.8764634837048463, 1.3090169943749472 1.8275199999999998, 1.618033988749895 2.7785765162951535, 1.3090169943749477 3.366361768587627, 0.5000000000000004 3.366361768587627, -0.4999999999999996 2.7785765162951552, -1.3090169943749463 1.8275200000000005, -1.618033988749895 0.8764634837048467, -1.309016994374948 0.2886782314123735, -0.5000000000000006"/>
<polygon class="no_fill_black_stroke" points="0.28867551629515364, 0.5000030056250526 -0.6623809999999999, 0.19098601125010517 -1.6134375162951535, 0.5000030056250526 -2.201222768587627, 1.3090199999999999 -2.201222768587627, 2.3090200000000007 -1.6134375162951538, 3.1180369943749473 -0.6623810000000003, 3.427053988749895 0.2886755162951533, 3.1180369943749477 0.8764607685876268, 2.3090200000000003 0.8764607685876268, 1.3090200000000005"/>
<polygon class="no_fill_black_stroke" points="-0.6623834837048463, 0.19098699437494737 -0.0745982314123732, -0.6180300000000001 -0.0745982314123732, -1.61803 -0.6623834837048463, -2.4270469943749475 -1.61344, -2.736063988749895 -2.5644965162951534, -2.4270469943749475 -3.1522817685876268, -1.61803 -3.1522817685876268, -0.6180299999999995 -2.564496516295154, 0.19098699437494715 -1.6134400000000002, 0.5000039887498948"/>
<text class="face_text" text-anchor="middle" dominant-baseline="middle" transform="matrix(0.01252623595499958 0 0 0.01252623595499958 0.0 0.0)">1</text>
<text class="face_text" text-anchor="middle" dominant-baseline="middle" transform="matrix(0.01252623595499958 0 0 0.01252623595499958 1.82752 0.0)">0</text>
<text class="face_text" text-anchor="middle" dominant-baseline="middle" transform="matrix(0.01252623595499958 0 0 0.01252623595499958 -0.662381 1.80902)">2</text>
<text class="face_text" text-anchor="middle" dominant-baseline="middle" transform="matrix(0.01252623595499958 0 0 0.01252623595499958 -1.61344 -1.11803)">10</text>
<rect class="edge_bg" x="0.16341587186237724" y="-0.12526235954999598" width="0.2505247190999916" height="0.2505247190999916"/>
<text class="edge_text" text-anchor="middle" dominant-baseline="middle" transform="matrix(0.01252623595499958 0 0 0.01252623595499958 0.28867823141237303 -1.8845376462950893e-16)">2</text>
<rect class="edge_bg" x="0.45730578289139456" y="0.7792491432625304" width="0.2505247190999916" height="0.2505247190999916"/>
<text class="edge_text" text-anchor="middle" dominant-baseline="middle" transform="matrix(0.01252623595499958 0 0 0.01252623595499958 0.5825681424413903 0.9045115028125261)">0</text>
<rect class="edge_bg" x="-1.2631741014024187" y="0.22023313201242553" width="0.2505247190999916" height="0.2505247190999916"/>
<text class="edge_text" text-anchor="middle" dominant-baseline="middle" transform="matrix(0.01252623595499958 0 0 0.01252623595499958 -1.137911741852423 0.3454954915624213)">17</text>
</svg>
