<?xml version="1.0" encoding="utf-8"?>
<svg version="1.1" id="layer_1" xmlns="http://www.w3.org/2000/svg" xmlns:xlink="http://www.w3.org/1999/xlink" x="0px" y="0px" viewBox="-2.1839682292618328 -1.668033988749895 5.600329997849459 5.418740052751354" style="enable-background:new -2.1839682292618328 -1.668033988749895 5.600329997849459 5.418740052751354;" xml:space="preserve">
<style type="text/css">
  .no_fill_black_stroke {fill:none; stroke:#000000; stroke-width:0.02; stroke-miterlimit:10;}
  .face_text {fill:#000000; font-family:monospace;}
  .edge_text {fill:#ff0000; font-family:monospace;}
  .edge_bg {fill:#f3f3f3; stroke:#606060; stroke-width:0.02;}
</style>
<polygon class="no_fill_black_stroke" points="0.288675134594813, -0.5 -0.5773502691896258, -7.07050159149938e-17 0.288675134594813, 0.5"/>
<polygon class="no_fill_black_stroke" points="0.28867823141237325, 0.5000000000000006 0.8764634837048463, 1.3090169943749472 1.8275199999999998, 1.618033988749895 2.7785765162951535, 1.3090169943749477 3.366361768587627, 0.5000000000000004 3.366361768587627, -0.4999999999999996 2.7785765162951552, -1.3090169943749463 1.8275200000000005, -1.618033988749895 0.8764634837048467, -1.309016994374948 0.2886782314123735, -0.5000000000000006"/>
<polygon class="no_fill_black_stroke" points="0.8764572642956956, 1.3090151349637489 1.084368955113455, 2.287162735697555 1.8275137805908495, 1.6180321293386968"/>
<polygon class="no_fill_black_stroke" points="0.8764605384440737, 1.3090130056250526 0.13331571296667932, 0.6398823992661944 -0.8612061824015937, 0.5353539359985409 -1.7272315861860323, 1.0353539359985406 -2.133968229261833, 1.9488993936411414 -1.9260565384440733, 2.9270469943749475 -1.1829117129666793, 3.5961776007338058 -0.18838981759840717, 3.7007060640014595 0.6776355861860329, 3.200706064001459 1.0843722292618327, 2.2871606063588583"/>
<text class="face_text" text-anchor="middle" dominant-baseline="middle" transform="matrix(0.010837480105502709 0 0 0.010837480105502709 0.0 0.0)">1</text>
<text class="face_text" text-anchor="middle" dominant-baseline="middle" transform="matrix(0.010837480105502709 0 0 0.010837480105502709 1.82752 0.0)">0</text>
<text class="face_text" text-anchor="middle" dominant-baseline="middle" transform="matrix(0.010837480105502709 0 0 0.010837480105502709 1.26278 1.73807)">3</text>
<text class="face_text" text-anchor="middle" dominant-baseline="middle" transform="matrix(0.010837480105502709 0 0 0.010837480105502709 -0.524798 2.11803)">2</text>
<rect class="edge_bg" x="0.18030343035734595" y="-0.10837480105502728" width="0.21674960211005417" height="0.21674960211005417"/>
<text class="edge_text" text-anchor="middle" dominant-baseline="middle" transform="matrix(0.010837480105502709 0 0 0.010837480105502709 0.28867823141237303 -1.8845376462950893e-16)">2</text>
<rect class="edge_bg" x="1.2436107213882455" y="1.3551488310961954" width="0.21674960211005417" height="0.21674960211005417"/>
<text class="edge_text" text-anchor="middle" dominant-baseline="middle" transform="matrix(0.010837480105502709 0 0 0.010837480105502709 1.3519855224432726 1.4635236321512226)">4</text>
<rect class="edge_bg" x="0.8720415827979264" y="1.6897120049369283" width="0.21674960211005417" height="0.21674960211005417"/>
<text class="edge_text" text-anchor="middle" dominant-baseline="middle" transform="matrix(0.010837480105502709 0 0 0.010837480105502709 0.9804163838529535 1.7980868059919555)">3</text>
</svg>
