<?xml version="1.0" encoding="utf-8"?>
<svg version="1.1" xmlns="http://www.w3.org/2000/svg" viewBox="-7.705584038532045 -5.8726334244425695 14.326628078125069 13.233241846765585" style="enable-background:new -7.705584038532045 -5.8726334244425695 14.326628078125069 13.233241846765585;">
<style type="text/css">
  .face_stroke {fill:none; stroke:#000000; stroke-width:0.02; stroke-miterlimit:10;}
  .face_text {fill:#000000; font-family:monospace;}
  .edge_text {fill:#ff0000; font-family:monospace;}
  .edge_bg {fill:#f3f3f3; stroke:#606060; stroke-width:0.01;}
</style>
<polygon class="face_stroke" points="0.288675134594813,-0.5 -0.5773502691896258,-7.07050159149938e-17 0.288675134594813,0.5"/>
<polygon class="face_stroke" points="0.28867486540518683,0.4999999999999999 1.1547002691896258,1.414100318299876e-16 0.28867486540518755,-0.5000000000000003"/>
<polygon class="face_stroke" points="0.28867510516441186,0.49999950622121014 -0.4014039063177006,1.2237335443262816 -0.8596304280451101,2.1125689929812044 -1.0488816724055203,3.094497690243912 -0.953825629101337,4.089969612816997 -0.5821631734410091,5.018337545833069 0.03599581277959718,5.804390640575857 0.8505717648299358,6.384447550147056 1.7955725835446041,6.711515513464475 2.7944399227276113,6.759097429288216 3.7662514910511553,6.5233384937787875 4.632276894835592,6.023338493778786 5.322355906317703,5.299604455673714 5.780582428045113,4.410769007018786 5.969833672405521,3.4288403097560822 5.874777629101336,2.4333683871829983 5.503115173441003,1.5050004541669215 4.884956187220398,0.7189473594241389 4.070380235170061,0.13889044985294285 3.1253794164553867,-0.18817751346447764 2.1265120772723822,-0.23575942928821636 1.1547005089488391,-4.937787849712549e-07"/>
<polygon class="face_stroke" points="0.2886755276342206,0.4999996359839326 -0.6831360391930412,0.26424069430675556 -0.4014034884411799,1.2237336697093115"/>
<polygon class="face_stroke" points="-0.6831365115588206,0.2642413302906883 -1.3732155276342206,0.9879753640160673 -0.40140396080695884,1.2237343056932444"/>
<polygon class="face_stroke" points="-0.6831361066163675,0.26424147383707486 -0.22490957924782773,-0.6245939719096443 -0.03565832865545815,-1.606522667971239 -0.1307143656417269,-2.6019945911476112 -0.5023768154100261,-3.530362526522496 -1.1205357966418261,-4.316415625188523 -1.9351117450107422,-4.896472539929552 -2.8801125616496237,-5.223540509244564 -3.878979900530646,-5.27112243140777 -4.850791470350467,-5.035363502066093 -5.716816877308233,-4.5353635075624545 -6.406895893383632,-3.811629473837076 -6.865122420752172,-2.9227940280903564 -7.054373671344542,-1.94086533202876 -6.959317634358273,-0.9453934088523871 -6.587655184589973,-0.01702547347750305 -5.969496203358172,0.7690276251885246 -5.154920254989256,1.349084539929552 -4.209919438350371,1.676152509244565 -3.2110520994693497,1.7237344314077692 -2.2392405296495292,1.4879755020660912 -1.3732151226917626,0.9879755075624506"/>
<text class="face_text" text-anchor="middle" dominant-baseline="middle" transform="matrix(0.026466483693531172 0 0 0.026466483693531172 0.0 0.0)">0</text>
<text class="face_text" text-anchor="middle" dominant-baseline="middle" transform="matrix(0.026466483693531172 0 0 0.026466483693531172 0.57735 0.0)">43</text>
<text class="face_text" text-anchor="middle" dominant-baseline="middle" transform="matrix(0.026466483693531172 0 0 0.026466483693531172 2.460476 3.261669)">45</text>
<text class="face_text" text-anchor="middle" dominant-baseline="middle" transform="matrix(0.026466483693531172 0 0 0.026466483693531172 -0.265288 0.662658)">1</text>
<text class="face_text" text-anchor="middle" dominant-baseline="middle" transform="matrix(0.026466483693531172 0 0 0.026466483693531172 -0.819252 0.825317)">2</text>
<text class="face_text" text-anchor="middle" dominant-baseline="middle" transform="matrix(0.026466483693531172 0 0 0.026466483693531172 -3.545016 -1.773694)">44</text>
<rect class="edge_bg" x="0.024010028469875322" y="-0.2646648369353118" width="0.5293296738706235" height="0.5293296738706235"/>
<text class="edge_text" text-anchor="middle" dominant-baseline="middle" transform="matrix(0.026466483693531172 0 0 0.026466483693531172 0.28867486540518705 -3.535250795749691e-17)">0</text>
<rect class="edge_bg" x="0.45702297012132065" y="-0.014665330714101588" width="0.5293296738706235" height="0.5293296738706235"/>
<text class="edge_text" text-anchor="middle" dominant-baseline="middle" transform="matrix(0.026466483693531172 0 0 0.026466483693531172 0.7216878070566324 0.24999950622121014)">6</text>
<rect class="edge_bg" x="-0.3210288173387911" y="0.5972018159113104" width="0.5293296738706235" height="0.5293296738706235"/>
<text class="edge_text" text-anchor="middle" dominant-baseline="middle" transform="matrix(0.026466483693531172 0 0 0.026466483693531172 -0.056363980403479313 0.8618666528466221)">5</text>
<rect class="edge_bg" x="-0.8069350731182013" y="0.4793229810566546" width="0.5293296738706235" height="0.5293296738706235"/>
<text class="edge_text" text-anchor="middle" dominant-baseline="middle" transform="matrix(0.026466483693531172 0 0 0.026466483693531172 -0.5422702361828896 0.7439878179919663)">7</text>
<rect class="edge_bg" x="-1.2928404515893785" y="0.3614436537644523" width="0.5293296738706235" height="0.5293296738706235"/>
<text class="edge_text" text-anchor="middle" dominant-baseline="middle" transform="matrix(0.026466483693531172 0 0 0.026466483693531172 -1.0281756146540668 0.626108490699764)">8</text>
</svg>
