<?xml version="1.0" encoding="utf-8"?>
<svg version="1.1" xmlns="http://www.w3.org/2000/svg" viewBox="-1.7687766397660418 -0.8629548714644112 8.107115565132114 7.985007172217038" style="enable-background:new -1.7687766397660418 -0.8629548714644112 8.107115565132114 7.985007172217038;">
<style type="text/css">
  .face_stroke {fill:none; stroke:#000000; stroke-width:0.02; stroke-miterlimit:10;}
  .face_text {fill:#000000; font-family:monospace;}
  .edge_text {fill:#ff0000; font-family:monospace;}
  .edge_bg {fill:#f3f3f3; stroke:#606060; stroke-width:0.01;}
</style>
<polygon class="face_stroke" points="0.288675134594813,-0.5 -0.5773502691896258,-7.07050159149938e-17 0.288675134594813,0.5"/>
<polygon class="face_stroke" points="0.28867486540518683,0.4999999999999999 1.1547002691896258,1.414100318299876e-16 0.28867486540518755,-0.5000000000000003"/>
<polygon class="face_stroke" points="0.28867510516441186,0.49999950622121014 -0.4014039063177006,1.2237335443262816 -0.8596304280451101,2.1125689929812044 -1.0488816724055203,3.094497690243912 -0.953825629101337,4.089969612816997 -0.5821631734410091,5.018337545833069 0.03599581277959718,5.804390640575857 0.8505717648299358,6.384447550147056 1.7955725835446041,6.711515513464475 2.7944399227276113,6.759097429288216 3.7662514910511553,6.5233384937787875 4.632276894835592,6.023338493778786 5.322355906317703,5.299604455673714 5.780582428045113,4.410769007018786 5.969833672405521,3.4288403097560822 5.874777629101336,2.4333683871829983 5.503115173441003,1.5050004541669215 4.884956187220398,0.7189473594241389 4.070380235170061,0.13889044985294285 3.1253794164553867,-0.18817751346447764 2.1265120772723822,-0.23575942928821636 1.1547005089488391,-4.937787849712549e-07"/>
<polygon class="face_stroke" points="-0.40140404784897243,1.2237338761951946 -1.4002713868054912,1.2713157967735342 -0.8596305653455366,2.112569327031271"/>
<polygon class="face_stroke" points="-0.4014036131945088,1.2237342032264658 -0.9420444346544637,0.3824806729687287 -1.4002709521510273,1.2713161238048054"/>
<polygon class="face_stroke" points="-0.4014035653455361,1.2237343270312713 0.056822952151027506,0.33489887619519454 -0.9420443868054912,0.3824807967735342"/>
<text class="face_text" text-anchor="middle" dominant-baseline="middle" transform="matrix(0.015970014344434076 0 0 0.015970014344434076 0.0 0.0)">0</text>
<text class="face_text" text-anchor="middle" dominant-baseline="middle" transform="matrix(0.015970014344434076 0 0 0.015970014344434076 0.57735 0.0)">43</text>
<text class="face_text" text-anchor="middle" dominant-baseline="middle" transform="matrix(0.015970014344434076 0 0 0.015970014344434076 2.460476 3.261669)">45</text>
<text class="face_text" text-anchor="middle" dominant-baseline="middle" transform="matrix(0.015970014344434076 0 0 0.015970014344434076 -0.887102 1.535873)">3</text>
<text class="face_text" text-anchor="middle" dominant-baseline="middle" transform="matrix(0.015970014344434076 0 0 0.015970014344434076 -0.914573 0.959177)">2</text>
<text class="face_text" text-anchor="middle" dominant-baseline="middle" transform="matrix(0.015970014344434076 0 0 0.015970014344434076 -0.428875 0.647038)">1</text>
<rect class="edge_bg" x="0.12897472196084628" y="-0.1597001434443408" width="0.31940028688868155" height="0.31940028688868155"/>
<text class="edge_text" text-anchor="middle" dominant-baseline="middle" transform="matrix(0.015970014344434076 0 0 0.015970014344434076 0.28867486540518705 -3.535250795749691e-17)">0</text>
<rect class="edge_bg" x="0.5619876636122916" y="0.09029936277686937" width="0.31940028688868155" height="0.31940028688868155"/>
<text class="edge_text" text-anchor="middle" dominant-baseline="middle" transform="matrix(0.015970014344434076 0 0 0.015970014344434076 0.7216878070566324 0.24999950622121014)">6</text>
<rect class="edge_bg" x="-0.790217450041595" y="1.5084514581688921" width="0.31940028688868155" height="0.31940028688868155"/>
<text class="edge_text" text-anchor="middle" dominant-baseline="middle" transform="matrix(0.015970014344434076 0 0 0.015970014344434076 -0.6305173065972542 1.668151601613233)">10</text>
<rect class="edge_bg" x="-1.0605374261171088" y="1.087825020071295" width="0.31940028688868155" height="0.31940028688868155"/>
<text class="edge_text" text-anchor="middle" dominant-baseline="middle" transform="matrix(0.015970014344434076 0 0 0.015970014344434076 -0.9008372826727681 1.2475251635156357)">9</text>
<rect class="edge_bg" x="-0.8314241195198545" y="0.643407418458062" width="0.31940028688868155" height="0.31940028688868155"/>
<text class="edge_text" text-anchor="middle" dominant-baseline="middle" transform="matrix(0.015970014344434076 0 0 0.015970014344434076 -0.6717239760755137 0.8031075619024028)">7</text>
</svg>
