<?xml version="1.0" encoding="utf-8"?>
<svg version="1.1" xmlns="http://www.w3.org/2000/svg" viewBox="-8.939714140481593 -3.8819279205478914 15.619526280167452 11.147740842685446" style="enable-background:new -8.939714140481593 -3.8819279205478914 15.619526280167452 11.147740842685446;">
<style type="text/css">
  .face_stroke {fill:none; stroke:#000000; stroke-width:0.02; stroke-miterlimit:10;}
  .face_text {fill:#000000; font-family:monospace;}
  .edge_text {fill:#ff0000; font-family:monospace;}
  .edge_bg {fill:#f3f3f3; stroke:#606060; stroke-width:0.01;}
</style>
<polygon class="face_stroke" points="0.288675134594813,-0.5 -0.5773502691896258,-7.07050159149938e-17 0.288675134594813,0.5"/>
<polygon class="face_stroke" points="0.28867486540518683,0.4999999999999999 1.1547002691896258,1.414100318299876e-16 0.28867486540518755,-0.5000000000000003"/>
<polygon class="face_stroke" points="0.28867510516441186,0.49999950622121014 -0.4014039063177006,1.2237335443262816 -0.8596304280451101,2.1125689929812044 -1.0488816724055203,3.094497690243912 -0.953825629101337,4.089969612816997 -0.5821631734410091,5.018337545833069 0.03599581277959718,5.804390640575857 0.8505717648299358,6.384447550147056 1.7955725835446041,6.711515513464475 2.7944399227276113,6.759097429288216 3.7662514910511553,6.5233384937787875 4.632276894835592,6.023338493778786 5.322355906317703,5.299604455673714 5.780582428045113,4.410769007018786 5.969833672405521,3.4288403097560822 5.874777629101336,2.4333683871829983 5.503115173441003,1.5050004541669215 4.884956187220398,0.7189473594241389 4.070380235170061,0.13889044985294285 3.1253794164553867,-0.18817751346447764 2.1265120772723822,-0.23575942928821636 1.1547005089488391,-4.937787849712549e-07"/>
<polygon class="face_stroke" points="-0.40140404784897243,1.2237338761951946 -1.4002713868054912,1.2713157967735342 -0.8596305653455366,2.112569327031271"/>
<polygon class="face_stroke" points="-1.4002714346544638,1.2713156729687287 -1.8584979521510274,2.1601511238048055 -0.8596306131945088,2.112569203226466"/>
<polygon class="face_stroke" points="-1.4002715664851872,1.2713159912151266 -1.2110203267987467,0.28938729305158606 -1.3060763748413646,-0.7060846290690328 -1.6777388349207132,-1.634452560315996 -2.2958978248829225,-2.420505652116354 -3.1104737796943223,-3.0005625578101793 -4.05547459996583,-3.3276305166294073 -5.054341939375326,-3.375212427698553 -6.026153506576659,-3.1394534875633138 -6.892178907981103,-2.6394534834410424 -7.58225791601825,-1.9157194420512031 -8.040484433514813,-1.026883991215126 -8.229735673201255,-0.044955293051586034 -8.134679625158636,0.9505166290690337 -7.763017165079287,1.8788845603159967 -7.144858175117077,2.664937652116355 -6.330282220305676,3.2449945578101804 -5.385281400034168,3.5720625166294075 -4.386414060624668,3.6196444276985518 -3.4146024934233403,3.3838854875633126 -2.548577092018894,2.8838854834410395 -1.8584980839817473,2.1601514420511987"/>
<polygon class="face_stroke" points="-1.4002710217173384,1.2713162195934842 -0.4552702024837232,0.9442482577754602 -1.211019775798938,0.28938752263105527"/>
<polygon class="face_stroke" points="-0.45527022420106156,0.9442484773689447 -0.2660189782826615,-0.037680219593484277 -1.2110197975162769,0.2893877422245398"/>
<text class="face_text" text-anchor="middle" dominant-baseline="middle" transform="matrix(0.02229548168537089 0 0 0.02229548168537089 0.0 0.0)">0</text>
<text class="face_text" text-anchor="middle" dominant-baseline="middle" transform="matrix(0.02229548168537089 0 0 0.02229548168537089 0.57735 0.0)">43</text>
<text class="face_text" text-anchor="middle" dominant-baseline="middle" transform="matrix(0.02229548168537089 0 0 0.02229548168537089 2.460476 3.261669)">45</text>
<text class="face_text" text-anchor="middle" dominant-baseline="middle" transform="matrix(0.02229548168537089 0 0 0.02229548168537089 -0.887102 1.535873)">3</text>
<text class="face_text" text-anchor="middle" dominant-baseline="middle" transform="matrix(0.02229548168537089 0 0 0.02229548168537089 -1.3728 1.848012)">4</text>
<text class="face_text" text-anchor="middle" dominant-baseline="middle" transform="matrix(0.02229548168537089 0 0 0.02229548168537089 -4.720378 0.122216)">44</text>
<text class="face_text" text-anchor="middle" dominant-baseline="middle" transform="matrix(0.02229548168537089 0 0 0.02229548168537089 -1.022187 0.834984)">2</text>
<text class="face_text" text-anchor="middle" dominant-baseline="middle" transform="matrix(0.02229548168537089 0 0 0.02229548168537089 -0.644103 0.398652)">1</text>
<rect class="edge_bg" x="0.06572004855147814" y="-0.22295481685370894" width="0.4459096337074178" height="0.4459096337074178"/>
<text class="edge_text" text-anchor="middle" dominant-baseline="middle" transform="matrix(0.02229548168537089 0 0 0.02229548168537089 0.28867486540518705 -3.535250795749691e-17)">0</text>
<rect class="edge_bg" x="0.4987329902029235" y="0.027044689367501235" width="0.4459096337074178" height="0.4459096337074178"/>
<text class="edge_text" text-anchor="middle" dominant-baseline="middle" transform="matrix(0.02229548168537089 0 0 0.02229548168537089 0.7216878070566324 0.24999950622121014)">6</text>
<rect class="edge_bg" x="-0.8534721234509631" y="1.445196784759524" width="0.4459096337074178" height="0.4459096337074178"/>
<text class="edge_text" text-anchor="middle" dominant-baseline="middle" transform="matrix(0.02229548168537089 0 0 0.02229548168537089 -0.6305173065972542 1.668151601613233)">10</text>
<rect class="edge_bg" x="-1.3529058407781953" y="1.4689876212438882" width="0.4459096337074178" height="0.4459096337074178"/>
<text class="edge_text" text-anchor="middle" dominant-baseline="middle" transform="matrix(0.02229548168537089 0 0 0.02229548168537089 -1.1299510239244863 1.6919424380975971)">11</text>
<rect class="edge_bg" x="-1.852339642087178" y="1.4927788997794558" width="0.4459096337074178" height="0.4459096337074178"/>
<text class="edge_text" text-anchor="middle" dominant-baseline="middle" transform="matrix(0.02229548168537089 0 0 0.02229548168537089 -1.629384825233469 1.7157337166331648)">12</text>
<rect class="edge_bg" x="-1.5286002156118474" y="0.557397054258561" width="0.4459096337074178" height="0.4459096337074178"/>
<text class="edge_text" text-anchor="middle" dominant-baseline="middle" transform="matrix(0.02229548168537089 0 0 0.02229548168537089 -1.3056453987581385 0.7803518711122699)">8</text>
<rect class="edge_bg" x="-1.056099827712378" y="0.39386329294303335" width="0.4459096337074178" height="0.4459096337074178"/>
<text class="edge_text" text-anchor="middle" dominant-baseline="middle" transform="matrix(0.02229548168537089 0 0 0.02229548168537089 -0.8331450108586692 0.6168181097967422)">7</text>
</svg>
