<?xml version="1.0" encoding="utf-8"?>
<svg version="1.1" xmlns="http://www.w3.org/2000/svg" viewBox="-8.086575627807402 -3.9508575008327487 16.06042325244148 9.625449001665498" style="enable-background:new -8.086575627807402 -3.9508575008327487 16.06042325244148 9.625449001665498;">
<style type="text/css">
  .face_stroke {fill:none; stroke:#000000; stroke-width:0.02; stroke-miterlimit:10;}
  .face_text {fill:#000000; font-family:monospace;}
  .edge_text {fill:#ff0000; font-family:monospace;}
  .edge_bg {fill:#f3f3f3; stroke:#606060; stroke-width:0.01;}
</style>
<polygon class="face_stroke" points="0.288675134594813,-0.5 -0.5773502691896258,-7.07050159149938e-17 0.288675134594813,0.5"/>
<polygon class="face_stroke" points="0.28867561411326337,0.4999999999999992 0.5704081709546935,1.4594929736144975 1.1110489884102916,2.3007465064456794 1.8667985627645496,2.9556072403909637 2.7764305581190705,3.3710222533928507 3.766252000000003,3.513337091666135 4.756073441880938,3.371022253392849 5.665705437235455,2.9556072403909615 6.421455011589712,2.300746506445676 6.962095829045309,1.4594929736144915 7.243828385886738,0.49999999999999434 7.243828385886735,-0.5000000000000081 6.962095829045303,-1.4594929736145041 6.421455011589705,-2.300746506445684 5.665705437235443,-2.9556072403909686 4.7560734418809245,-3.3710222533928524 3.7662519999999917,-3.513337091666135 2.776430558119057,-3.3710222533928467 1.8667985627645407,-2.955607240390958 1.1110489884102805,-2.3007465064456665 0.5704081709546895,-1.4594929736144893 0.2886756141132625,-0.49999999999999173"/>
<polygon class="face_stroke" points="0.2886754884411793,0.5000003302906882 -0.4014035276342206,1.2237343640160672 0.5704080391930412,1.4594933056932444"/>
<polygon class="face_stroke" points="0.2886755276342206,0.4999996359839326 -0.6831360391930412,0.26424069430675556 -0.4014034884411799,1.2237336697093115"/>
<polygon class="face_stroke" points="-0.6831361616917992,0.2642410466684111 -1.2237769738082536,-0.5770124895940294 -1.9795265440063385,-1.2318732283357934 -2.889158536724362,-1.6472882471107975 -3.8789799777020715,-1.789603091666135 -4.868801420486227,-1.647288259674902 -5.778433418477238,-1.2318732524461342 -6.5341829969876715,-0.5770125232973282 -7.074823819782412,0.2642410061025928 -7.356556382713411,1.2237339779290326 -7.356556389060062,2.2237339779290335 -7.0748238383082,3.18322695333159 -6.534183026191744,4.024480489594031 -5.778433455993661,4.679341228335794 -4.868801463275635,5.094756247110799 -3.8789800222979256,5.237071091666135 -2.889158579513771,5.094756259674901 -1.9795265815227585,4.679341252446133 -1.2237770030123256,4.024480523297325 -0.6831361802175846,3.1832269938974003 -0.40140361728658913,2.223734022070965 -0.40140361093993837,1.2237340220709594"/>
<polygon class="face_stroke" points="-0.6831365653455361,0.2642413270312713 -0.2249100478489725,-0.6245941238048054 -1.2237773868054913,-0.5770122032264657"/>
<text class="face_text" text-anchor="middle" dominant-baseline="middle" transform="matrix(0.019250898003330994 0 0 0.019250898003330994 0.0 0.0)">0</text>
<text class="face_text" text-anchor="middle" dominant-baseline="middle" transform="matrix(0.019250898003330994 0 0 0.019250898003330994 3.766252 0.0)">44</text>
<text class="face_text" text-anchor="middle" dominant-baseline="middle" transform="matrix(0.019250898003330994 0 0 0.019250898003330994 0.15256 1.061076)">42</text>
<text class="face_text" text-anchor="middle" dominant-baseline="middle" transform="matrix(0.019250898003330994 0 0 0.019250898003330994 -0.265288 0.662658)">43</text>
<text class="face_text" text-anchor="middle" dominant-baseline="middle" transform="matrix(0.019250898003330994 0 0 0.019250898003330994 -3.87898 1.723734)">45</text>
<text class="face_text" text-anchor="middle" dominant-baseline="middle" transform="matrix(0.019250898003330994 0 0 0.019250898003330994 -0.710608 -0.312455)">1</text>
<rect class="edge_bg" x="0.09616663407995385" y="-0.19250898003331038" width="0.3850179600666199" height="0.3850179600666199"/>
<text class="edge_text" text-anchor="middle" dominant-baseline="middle" transform="matrix(0.019250898003330994 0 0 0.019250898003330994 0.2886756141132638 -4.2588027897666126e-16)">1</text>
<rect class="edge_bg" x="0.23703278378380044" y="0.7872378379586562" width="0.3850179600666199" height="0.3850179600666199"/>
<text class="edge_text" text-anchor="middle" dominant-baseline="middle" transform="matrix(0.019250898003330994 0 0 0.019250898003330994 0.4295417638171104 0.9797468179919662)">2</text>
<rect class="edge_bg" x="-0.24887296043678928" y="0.6693576728133122" width="0.3850179600666199" height="0.3850179600666199"/>
<text class="edge_text" text-anchor="middle" dominant-baseline="middle" transform="matrix(0.019250898003330994 0 0 0.019250898003330994 -0.056363980403479313 0.8618666528466221)">3</text>
<rect class="edge_bg" x="-0.7347788663491783" y="0.5514785543363789" width="0.3850179600666199" height="0.3850179600666199"/>
<text class="edge_text" text-anchor="middle" dominant-baseline="middle" transform="matrix(0.019250898003330994 0 0 0.019250898003330994 -0.5422698863158684 0.7439875343696889)">6</text>
<rect class="edge_bg" x="-1.1459659561088236" y="-0.34889441813090716" width="0.3850179600666199" height="0.3850179600666199"/>
<text class="edge_text" text-anchor="middle" dominant-baseline="middle" transform="matrix(0.019250898003330994 0 0 0.019250898003330994 -0.9534569760755137 -0.15638543809759717)">5</text>
</svg>
