<?xml version="1.0" encoding="utf-8"?>
<svg version="1.1" xmlns="http://www.w3.org/2000/svg" viewBox="-4.216392924475411 -3.8896708008327487 16.253963848950825 8.279341601665497" style="enable-background:new -4.216392924475411 -3.8896708008327487 16.253963848950825 8.279341601665497;">
<style type="text/css">
  .face_stroke {fill:none; stroke:#000000; stroke-width:0.02; stroke-miterlimit:10;}
  .face_text {fill:#000000; font-family:monospace;}
  .edge_text {fill:#ff0000; font-family:monospace;}
  .edge_bg {fill:#f3f3f3; stroke:#606060; stroke-width:0.01;}
</style>
<polygon class="face_stroke" points="3.4775763858867363,-0.5 3.1958438290453066,-1.4594929736144975 2.65520301158971,-2.300746506445678 1.8994534372354517,-2.955607240390963 0.989821441880933,-3.3710222533928498 9.952473976691957e-16,-3.513337091666135 -0.9898214418809318,-3.37102225339285 -1.8994534372354497,-2.9556072403909646 -2.655203011589708,-2.3007465064456802 -3.195843829045306,-1.4594929736144984 -3.4775763858867363,-0.5000000000000001 -3.477576385886737,0.4999999999999992 -3.1958438290453066,1.4594929736144975 -2.6552030115897085,2.3007465064456794 -1.8994534372354506,2.9556072403909637 -0.9898214418809297,3.3710222533928507 2.475080632404671e-15,3.513337091666135 0.9898214418809375,3.371022253392849 1.8994534372354548,2.9556072403909615 2.6552030115897116,2.300746506445676 3.1958438290453093,1.4594929736144915 3.4775763858867377,0.49999999999999434"/>
<polygon class="face_stroke" points="3.477576865405187,0.4999999999999999 4.343602269189626,1.414100318299876e-16 3.4775768654051875,-0.5000000000000003"/>
<polygon class="face_stroke" points="3.4775767308103744,0.49999999999999994 4.343602134594813,1.0 4.343602134594813,-1.1102230246251565e-16"/>
<polygon class="face_stroke" points="4.343601614113263,0.9999999999999992 4.625334170954693,1.9594929736144975 5.165974988410291,2.8007465064456794 5.921724562764549,3.4556072403909637 6.8313565581190705,3.8710222533928507 7.821178000000002,4.013337091666135 8.810999441880938,3.871022253392849 9.720631437235454,3.4556072403909615 10.476381011589712,2.800746506445676 11.017021829045309,1.9594929736144915 11.298754385886738,0.9999999999999943 11.298754385886735,-8.104628079763643e-15 11.017021829045303,-0.9594929736145041 10.476381011589705,-1.8007465064456838 9.720631437235443,-2.4556072403909686 8.810999441880924,-2.8710222533928524 7.821177999999992,-3.013337091666135 6.831356558119056,-2.8710222533928467 5.92172456276454,-2.455607240390958 5.16597498841028,-1.8007465064456665 4.625334170954689,-0.9594929736144893 4.343601614113262,8.271161533457416e-15"/>
<polygon class="face_stroke" points="4.625334565345536,1.9594926729687285 4.167108047848973,2.848328123804805 5.165975386805491,2.8007462032264656"/>
<polygon class="face_stroke" points="4.625333952151028,1.9594928761951944 3.626466613194509,2.007074796773534 4.167107434654464,2.848328327031271"/>
<polygon class="face_stroke" points="4.625334386805491,1.9594932032264658 4.084693565345536,1.1182396729687287 3.6264670478489727,2.0070751238048055"/>
<polygon class="face_stroke" points="4.084693952151028,1.1182398761951946 3.085826613194509,1.1658217967735343 3.6264674346544634,2.0070753270312713"/>
<text class="face_text" text-anchor="middle" dominant-baseline="middle" transform="matrix(0.016558683203330992 0 0 0.016558683203330992 0.0 0.0)">44</text>
<text class="face_text" text-anchor="middle" dominant-baseline="middle" transform="matrix(0.016558683203330992 0 0 0.016558683203330992 3.766252 0.0)">0</text>
<text class="face_text" text-anchor="middle" dominant-baseline="middle" transform="matrix(0.016558683203330992 0 0 0.016558683203330992 4.054927 0.5)">1</text>
<text class="face_text" text-anchor="middle" dominant-baseline="middle" transform="matrix(0.016558683203330992 0 0 0.016558683203330992 7.821178 0.5)">45</text>
<text class="face_text" text-anchor="middle" dominant-baseline="middle" transform="matrix(0.016558683203330992 0 0 0.016558683203330992 4.652806 2.536189)">5</text>
<text class="face_text" text-anchor="middle" dominant-baseline="middle" transform="matrix(0.016558683203330992 0 0 0.016558683203330992 4.139636 2.271632)">4</text>
<text class="face_text" text-anchor="middle" dominant-baseline="middle" transform="matrix(0.016558683203330992 0 0 0.016558683203330992 4.112165 1.694936)">3</text>
<text class="face_text" text-anchor="middle" dominant-baseline="middle" transform="matrix(0.016558683203330992 0 0 0.016558683203330992 3.598996 1.430379)">2</text>
<rect class="edge_bg" x="3.311990033371877" y="-0.16558683203330996" width="0.33117366406661986" height="0.33117366406661986"/>
<text class="edge_text" text-anchor="middle" dominant-baseline="middle" transform="matrix(0.016558683203330992 0 0 0.016558683203330992 3.477576865405187 -3.535250795749691e-17)">1</text>
<rect class="edge_bg" x="3.7450026006692836" y="0.08441316796668996" width="0.33117366406661986" height="0.33117366406661986"/>
<text class="edge_text" text-anchor="middle" dominant-baseline="middle" transform="matrix(0.016558683203330992 0 0 0.016558683203330992 3.9105894327025936 0.2499999999999999)">4</text>
<rect class="edge_bg" x="4.178014782079953" y="0.33441316796668963" width="0.33117366406661986" height="0.33117366406661986"/>
<text class="edge_text" text-anchor="middle" dominant-baseline="middle" transform="matrix(0.016558683203330992 0 0 0.016558683203330992 4.343601614113263 0.49999999999999956)">5</text>
<rect class="edge_bg" x="4.730068144042204" y="2.214532606064287" width="0.33117366406661986" height="0.33117366406661986"/>
<text class="edge_text" text-anchor="middle" dominant-baseline="middle" transform="matrix(0.016558683203330992 0 0 0.016558683203330992 4.895654976075514 2.380119438097597)">14</text>
<rect class="edge_bg" x="4.230633861369436" y="2.2383237695799227" width="0.33117366406661986" height="0.33117366406661986"/>
<text class="edge_text" text-anchor="middle" dominant-baseline="middle" transform="matrix(0.016558683203330992 0 0 0.016558683203330992 4.396220693402746 2.403910601613233)">13</text>
<rect class="edge_bg" x="3.960313885293922" y="1.817697331482326" width="0.33117366406661986" height="0.33117366406661986"/>
<text class="edge_text" text-anchor="middle" dominant-baseline="middle" transform="matrix(0.016558683203330992 0 0 0.016558683203330992 4.125900717327232 1.9832841635156357)">11</text>
<rect class="edge_bg" x="3.6899938613694356" y="1.3970707695799232" width="0.33117366406661986" height="0.33117366406661986"/>
<text class="edge_text" text-anchor="middle" dominant-baseline="middle" transform="matrix(0.016558683203330992 0 0 0.016558683203330992 3.8555806934027457 1.562657601613233)">9</text>
</svg>
