<?xml version="1.0" encoding="utf-8"?>
<svg version="1.1" xmlns="http://www.w3.org/2000/svg" viewBox="-4.216392924475411 -3.8896708008327487 16.253963848950825 8.279341601665497" style="enable-background:new -4.216392924475411 -3.8896708008327487 16.253963848950825 8.279341601665497;">
<style type="text/css">
  .face_stroke {fill:none; stroke:#000000; stroke-width:0.02; stroke-miterlimit:10;}
  .face_text {fill:#000000; font-family:monospace;}
  .edge_text {fill:#ff0000; font-family:monospace;}
  .edge_bg {fill:#f3f3f3; stroke:#606060; stroke-width:0.01;}
</style>
<polygon class="face_stroke" points="3.4775763858867363,-0.5 3.1958438290453066,-1.4594929736144975 2.65520301158971,-2.300746506445678 1.8994534372354517,-2.955607240390963 0.989821441880933,-3.3710222533928498 9.952473976691957e-16,-3.513337091666135 -0.9898214418809318,-3.37102225339285 -1.8994534372354497,-2.9556072403909646 -2.655203011589708,-2.3007465064456802 -3.195843829045306,-1.4594929736144984 -3.4775763858867363,-0.5000000000000001 -3.477576385886737,0.4999999999999992 -3.1958438290453066,1.4594929736144975 -2.6552030115897085,2.3007465064456794 -1.8994534372354506,2.9556072403909637 -0.9898214418809297,3.3710222533928507 2.475080632404671e-15,3.513337091666135 0.9898214418809375,3.371022253392849 1.8994534372354548,2.9556072403909615 2.6552030115897116,2.300746506445676 3.1958438290453093,1.4594929736144915 3.4775763858867377,0.49999999999999434"/>
<polygon class="face_stroke" points="3.477576865405187,0.4999999999999999 4.343602269189626,1.414100318299876e-16 3.4775768654051875,-0.5000000000000003"/>
<polygon class="face_stroke" points="3.4775767308103744,0.49999999999999994 4.343602134594813,1.0 4.343602134594813,-1.1102230246251565e-16"/>
<polygon class="face_stroke" points="4.343601614113263,0.9999999999999992 4.625334170954693,1.9594929736144975 5.165974988410291,2.8007465064456794 5.921724562764549,3.4556072403909637 6.8313565581190705,3.8710222533928507 7.821178000000002,4.013337091666135 8.810999441880938,3.871022253392849 9.720631437235454,3.4556072403909615 10.476381011589712,2.800746506445676 11.017021829045309,1.9594929736144915 11.298754385886738,0.9999999999999943 11.298754385886735,-8.104628079763643e-15 11.017021829045303,-0.9594929736145041 10.476381011589705,-1.8007465064456838 9.720631437235443,-2.4556072403909686 8.810999441880924,-2.8710222533928524 7.821177999999992,-3.013337091666135 6.831356558119056,-2.8710222533928467 5.92172456276454,-2.455607240390958 5.16597498841028,-1.8007465064456665 4.625334170954689,-0.9594929736144893 4.343601614113262,8.271161533457416e-15"/>
<polygon class="face_stroke" points="5.165975224201062,2.8007465226310555 4.976723978282662,3.782675219593484 5.921724797516277,3.45560725777546"/>
<polygon class="face_stroke" points="5.165975021717339,2.8007467804065156 4.220974202483723,3.12781474222454 4.976723775798939,3.7826754773689446"/>
<polygon class="face_stroke" points="5.165974797516277,2.8007462577754607 4.410225224201062,2.1458855226310556 4.220973978282662,3.1278142195934846"/>
<polygon class="face_stroke" points="4.410226021717339,2.145885780406516 3.4652252024837233,2.47295374222454 4.220974775798939,3.1278144773689447"/>
<polygon class="face_stroke" points="4.410225797516277,2.1458862577754605 3.654476224201062,1.4910255226310554 3.4652249782826616,2.4729542195934844"/>
<polygon class="face_stroke" points="3.6544760217173384,1.4910247804065158 2.7094752024837234,1.8180927422245399 3.4652247757989385,2.4729534773689448"/>
<text class="face_text" text-anchor="middle" dominant-baseline="middle" transform="matrix(0.016558683203330992 0 0 0.016558683203330992 0.0 0.0)">44</text>
<text class="face_text" text-anchor="middle" dominant-baseline="middle" transform="matrix(0.016558683203330992 0 0 0.016558683203330992 3.766252 0.0)">0</text>
<text class="face_text" text-anchor="middle" dominant-baseline="middle" transform="matrix(0.016558683203330992 0 0 0.016558683203330992 4.054927 0.5)">1</text>
<text class="face_text" text-anchor="middle" dominant-baseline="middle" transform="matrix(0.016558683203330992 0 0 0.016558683203330992 7.821178 0.5)">45</text>
<text class="face_text" text-anchor="middle" dominant-baseline="middle" transform="matrix(0.016558683203330992 0 0 0.016558683203330992 5.354808 3.346343)">7</text>
<text class="face_text" text-anchor="middle" dominant-baseline="middle" transform="matrix(0.016558683203330992 0 0 0.016558683203330992 4.787891 3.237079)">6</text>
<text class="face_text" text-anchor="middle" dominant-baseline="middle" transform="matrix(0.016558683203330992 0 0 0.016558683203330992 4.599058 2.691482)">5</text>
<text class="face_text" text-anchor="middle" dominant-baseline="middle" transform="matrix(0.016558683203330992 0 0 0.016558683203330992 4.032142 2.582218)">4</text>
<text class="face_text" text-anchor="middle" dominant-baseline="middle" transform="matrix(0.016558683203330992 0 0 0.016558683203330992 3.843309 2.036622)">3</text>
<text class="face_text" text-anchor="middle" dominant-baseline="middle" transform="matrix(0.016558683203330992 0 0 0.016558683203330992 3.276392 1.927357)">2</text>
<rect class="edge_bg" x="3.311990033371877" y="-0.16558683203330996" width="0.33117366406661986" height="0.33117366406661986"/>
<text class="edge_text" text-anchor="middle" dominant-baseline="middle" transform="matrix(0.016558683203330992 0 0 0.016558683203330992 3.477576865405187 -3.535250795749691e-17)">1</text>
<rect class="edge_bg" x="3.7450026006692836" y="0.08441316796668996" width="0.33117366406661986" height="0.33117366406661986"/>
<text class="edge_text" text-anchor="middle" dominant-baseline="middle" transform="matrix(0.016558683203330992 0 0 0.016558683203330992 3.9105894327025936 0.2499999999999999)">4</text>
<rect class="edge_bg" x="4.178014782079953" y="0.33441316796668963" width="0.33117366406661986" height="0.33117366406661986"/>
<text class="edge_text" text-anchor="middle" dominant-baseline="middle" transform="matrix(0.016558683203330992 0 0 0.016558683203330992 4.343601614113263 0.49999999999999956)">5</text>
<rect class="edge_bg" x="5.378263178825359" y="2.962590058169948" width="0.33117366406661986" height="0.33117366406661986"/>
<text class="edge_text" text-anchor="middle" dominant-baseline="middle" transform="matrix(0.016558683203330992 0 0 0.016558683203330992 5.5438500108586695 3.128176890203258)">18</text>
<rect class="edge_bg" x="4.905762566724828" y="3.12612429685442" width="0.33117366406661986" height="0.33117366406661986"/>
<text class="edge_text" text-anchor="middle" dominant-baseline="middle" transform="matrix(0.016558683203330992 0 0 0.016558683203330992 5.071349398758138 3.29171112888773)">17</text>
<rect class="edge_bg" x="4.527887555866159" y="2.7986934066511626" width="0.33117366406661986" height="0.33117366406661986"/>
<text class="edge_text" text-anchor="middle" dominant-baseline="middle" transform="matrix(0.016558683203330992 0 0 0.016558683203330992 4.693474387899469 2.9642802386844727)">15</text>
<rect class="edge_bg" x="4.150013566724828" y="2.47126329685442" width="0.33117366406661986" height="0.33117366406661986"/>
<text class="edge_text" text-anchor="middle" dominant-baseline="middle" transform="matrix(0.016558683203330992 0 0 0.016558683203330992 4.315600398758138 2.63685012888773)">13</text>
<rect class="edge_bg" x="3.7721385558661593" y="2.1438334066511624" width="0.33117366406661986" height="0.33117366406661986"/>
<text class="edge_text" text-anchor="middle" dominant-baseline="middle" transform="matrix(0.016558683203330992 0 0 0.016558683203330992 3.9377253878994694 2.3094202386844724)">11</text>
<rect class="edge_bg" x="3.3942635667248284" y="1.8164022968544202" width="0.33117366406661986" height="0.33117366406661986"/>
<text class="edge_text" text-anchor="middle" dominant-baseline="middle" transform="matrix(0.016558683203330992 0 0 0.016558683203330992 3.5598503987581385 1.9819891288877303)">9</text>
</svg>
