<?xml version="1.0" encoding="utf-8"?>
<svg version="1.1" xmlns="http://www.w3.org/2000/svg" viewBox="-4.216392924475411 -3.8896708008327487 16.253963848950825 8.279341601665497" style="enable-background:new -4.216392924475411 -3.8896708008327487 16.253963848950825 8.279341601665497;">
<style type="text/css">
  .face_stroke {fill:none; stroke:#000000; stroke-width:0.02; stroke-miterlimit:10;}
  .face_text {fill:#000000; font-family:monospace;}
  .edge_text {fill:#ff0000; font-family:monospace;}
  .edge_bg {fill:#f3f3f3; stroke:#606060; stroke-width:0.01;}
</style>
<polygon class="face_stroke" points="3.4775763858867363,-0.5 3.1958438290453066,-1.4594929736144975 2.65520301158971,-2.300746506445678 1.8994534372354517,-2.955607240390963 0.989821441880933,-3.3710222533928498 9.952473976691957e-16,-3.513337091666135 -0.9898214418809318,-3.37102225339285 -1.8994534372354497,-2.9556072403909646 -2.655203011589708,-2.3007465064456802 -3.195843829045306,-1.4594929736144984 -3.4775763858867363,-0.5000000000000001 -3.477576385886737,0.4999999999999992 -3.1958438290453066,1.4594929736144975 -2.6552030115897085,2.3007465064456794 -1.8994534372354506,2.9556072403909637 -0.9898214418809297,3.3710222533928507 2.475080632404671e-15,3.513337091666135 0.9898214418809375,3.371022253392849 1.8994534372354548,2.9556072403909615 2.6552030115897116,2.300746506445676 3.1958438290453093,1.4594929736144915 3.4775763858867377,0.49999999999999434"/>
<polygon class="face_stroke" points="3.477576865405187,0.4999999999999999 4.343602269189626,1.414100318299876e-16 3.4775768654051875,-0.5000000000000003"/>
<polygon class="face_stroke" points="3.4775767308103744,0.49999999999999994 4.343602134594813,1.0 4.343602134594813,-1.1102230246251565e-16"/>
<polygon class="face_stroke" points="4.343601614113263,0.9999999999999992 4.625334170954693,1.9594929736144975 5.165974988410291,2.8007465064456794 5.921724562764549,3.4556072403909637 6.8313565581190705,3.8710222533928507 7.821178000000002,4.013337091666135 8.810999441880938,3.871022253392849 9.720631437235454,3.4556072403909615 10.476381011589712,2.800746506445676 11.017021829045309,1.9594929736144915 11.298754385886738,0.9999999999999943 11.298754385886735,-8.104628079763643e-15 11.017021829045303,-0.9594929736145041 10.476381011589705,-1.8007465064456838 9.720631437235443,-2.4556072403909686 8.810999441880924,-2.8710222533928524 7.821177999999992,-3.013337091666135 6.831356558119056,-2.8710222533928467 5.92172456276454,-2.455607240390958 5.16597498841028,-1.8007465064456665 4.625334170954689,-0.9594929736144893 4.343601614113262,8.271161533457416e-15"/>
<polygon class="face_stroke" points="6.83135698290367,-2.871022372369791 6.01678102625156,-3.4510792754787016 5.921724990844769,-2.4556073521515076"/>
<polygon class="face_stroke" points="6.016781009155231,-3.451079647848492 5.10714901709633,-3.035664627630209 5.92172497374844,-2.455607724521298"/>
<polygon class="face_stroke" points="5.10714902625156,-3.0356642754787018 5.012092990844769,-2.0401923521515077 5.92172498290367,-2.455607372369791"/>
<polygon class="face_stroke" points="5.107149009155231,-3.0356646478484923 4.19751701709633,-2.6202496276302094 5.01209297374844,-2.0401927245212983"/>
<polygon class="face_stroke" points="4.19751702625156,-2.620249275478702 4.10246099084477,-1.6247773521515079 5.0120929829036704,-2.0401923723697912"/>
<polygon class="face_stroke" points="4.197517009155231,-2.6202486478484923 3.28788501709633,-2.204833627630209 4.10246097374844,-1.6247767245212983"/>
<polygon class="face_stroke" points="3.2878850262515606,-2.204834275478702 3.19282899084477,-1.2093623521515078 4.10246098290367,-1.6247773723697914"/>
<text class="face_text" text-anchor="middle" dominant-baseline="middle" transform="matrix(0.016558683203330992 0 0 0.016558683203330992 0.0 0.0)">44</text>
<text class="face_text" text-anchor="middle" dominant-baseline="middle" transform="matrix(0.016558683203330992 0 0 0.016558683203330992 3.766252 0.0)">0</text>
<text class="face_text" text-anchor="middle" dominant-baseline="middle" transform="matrix(0.016558683203330992 0 0 0.016558683203330992 4.054927 0.5)">1</text>
<text class="face_text" text-anchor="middle" dominant-baseline="middle" transform="matrix(0.016558683203330992 0 0 0.016558683203330992 7.821178 0.5)">45</text>
<text class="face_text" text-anchor="middle" dominant-baseline="middle" transform="matrix(0.016558683203330992 0 0 0.016558683203330992 6.256621 -2.925903)">37</text>
<text class="face_text" text-anchor="middle" dominant-baseline="middle" transform="matrix(0.016558683203330992 0 0 0.016558683203330992 5.681885 -2.980784)">38</text>
<text class="face_text" text-anchor="middle" dominant-baseline="middle" transform="matrix(0.016558683203330992 0 0 0.016558683203330992 5.346989 -2.510488)">39</text>
<text class="face_text" text-anchor="middle" dominant-baseline="middle" transform="matrix(0.016558683203330992 0 0 0.016558683203330992 4.772253 -2.565369)">40</text>
<text class="face_text" text-anchor="middle" dominant-baseline="middle" transform="matrix(0.016558683203330992 0 0 0.016558683203330992 4.437357 -2.095073)">41</text>
<text class="face_text" text-anchor="middle" dominant-baseline="middle" transform="matrix(0.016558683203330992 0 0 0.016558683203330992 3.862621 -2.149953)">42</text>
<text class="face_text" text-anchor="middle" dominant-baseline="middle" transform="matrix(0.016558683203330992 0 0 0.016558683203330992 3.527725 -1.679658)">43</text>
<rect class="edge_bg" x="3.311990033371877" y="-0.16558683203330996" width="0.33117366406661986" height="0.33117366406661986"/>
<text class="edge_text" text-anchor="middle" dominant-baseline="middle" transform="matrix(0.016558683203330992 0 0 0.016558683203330992 3.477576865405187 -3.535250795749691e-17)">1</text>
<rect class="edge_bg" x="3.7450026006692836" y="0.08441316796668996" width="0.33117366406661986" height="0.33117366406661986"/>
<text class="edge_text" text-anchor="middle" dominant-baseline="middle" transform="matrix(0.016558683203330992 0 0 0.016558683203330992 3.9105894327025936 0.2499999999999999)">4</text>
<rect class="edge_bg" x="4.178014782079953" y="0.33441316796668963" width="0.33117366406661986" height="0.33117366406661986"/>
<text class="edge_text" text-anchor="middle" dominant-baseline="middle" transform="matrix(0.016558683203330992 0 0 0.016558683203330992 4.343601614113263 0.49999999999999956)">5</text>
<rect class="edge_bg" x="6.21095415484091" y="-2.8289016942939593" width="0.33117366406661986" height="0.33117366406661986"/>
<text class="edge_text" text-anchor="middle" dominant-baseline="middle" transform="matrix(0.016558683203330992 0 0 0.016558683203330992 6.37654098687422 -2.6633148622606493)">78</text>
<rect class="edge_bg" x="5.803666159418525" y="-3.1189305182182054" width="0.33117366406661986" height="0.33117366406661986"/>
<text class="edge_text" text-anchor="middle" dominant-baseline="middle" transform="matrix(0.016558683203330992 0 0 0.016558683203330992 5.969252991451835 -2.9533436861848954)">79</text>
<rect class="edge_bg" x="5.348850172544305" y="-2.9112226559575562" width="0.33117366406661986" height="0.33117366406661986"/>
<text class="edge_text" text-anchor="middle" dominant-baseline="middle" transform="matrix(0.016558683203330992 0 0 0.016558683203330992 5.514437004577615 -2.745635823924246)">81</text>
<rect class="edge_bg" x="4.894034159418525" y="-2.7035155182182056" width="0.33117366406661986" height="0.33117366406661986"/>
<text class="edge_text" text-anchor="middle" dominant-baseline="middle" transform="matrix(0.016558683203330992 0 0 0.016558683203330992 5.059620991451835 -2.5379286861848955)">83</text>
<rect class="edge_bg" x="4.439218172544305" y="-2.4958076559575564" width="0.33117366406661986" height="0.33117366406661986"/>
<text class="edge_text" text-anchor="middle" dominant-baseline="middle" transform="matrix(0.016558683203330992 0 0 0.016558683203330992 4.604805004577615 -2.3302208239242463)">85</text>
<rect class="edge_bg" x="3.984402159418525" y="-2.2880995182182056" width="0.33117366406661986" height="0.33117366406661986"/>
<text class="edge_text" text-anchor="middle" dominant-baseline="middle" transform="matrix(0.016558683203330992 0 0 0.016558683203330992 4.149988991451835 -2.1225126861848955)">87</text>
<rect class="edge_bg" x="3.5295861725443056" y="-2.0803926559575565" width="0.33117366406661986" height="0.33117366406661986"/>
<text class="edge_text" text-anchor="middle" dominant-baseline="middle" transform="matrix(0.016558683203330992 0 0 0.016558683203330992 3.6951730045776157 -1.9148058239242465)">3</text>
</svg>
