<?xml version="1.0" encoding="utf-8"?>
<svg version="1.1" xmlns="http://www.w3.org/2000/svg" viewBox="-7.399012026193119 -5.528989399248723 13.720273051139575 12.568509799122527" style="enable-background:new -7.399012026193119 -5.528989399248723 13.720273051139575 12.568509799122527;">
<style type="text/css">
  .face_stroke {fill:none; stroke:#000000; stroke-width:0.02; stroke-miterlimit:10;}
  .face_text {fill:#000000; font-family:monospace;}
  .edge_text {fill:#ff0000; font-family:monospace;}
  .edge_bg {fill:#f3f3f3; stroke:#606060; stroke-width:0.01;}
</style>
<polygon class="face_stroke" points="0.288675134594813,-0.5 -0.5773502691896258,-7.07050159149938e-17 0.288675134594813,0.5"/>
<polygon class="face_stroke" points="0.28867486540518683,0.4999999999999999 1.1547002691896258,1.414100318299876e-16 0.28867486540518755,-0.5000000000000003"/>
<polygon class="face_stroke" points="0.28867467316045214,0.5000004340426267 -0.39149806461046666,1.233052305872453 -0.8253818037280238,2.13402117377487 -0.9744240699041988,3.1228519999999995 -0.8253818037280243,4.111682826225129 -0.3914980646104671,5.0126516941275465 0.28867467316045303,5.745703565957374 1.1547000769448894,6.245703565957373 2.1296279891267167,6.468224499913688 3.126831786307895,6.393494406327264 4.0577055349521025,6.028153381960868 4.839537017420133,5.404663580102133 5.4028570754837535,4.5784248057861365 5.697612249894657,3.6228519999999937 5.697612249894654,2.62285199999999 5.402857075483748,1.667279194213852 4.839537017420123,0.8410404198978578 4.057705534952088,0.21755061803912445 3.126831786307879,-0.14779040632726792 2.1296279891267007,-0.22252049991368716 1.1547000769448743,4.3404263294632983e-07"/>
<polygon class="face_stroke" points="0.2886752170752213,0.5000000220843988 -0.6862526945517848,0.27747908569726953 -0.3914975225234365,1.2330518922183318"/>
<polygon class="face_stroke" points="-0.6862524774765634,0.2774791077816684 -1.3664252170752214,1.010530977915601 -0.39149730544821537,1.2330519143027305"/>
<polygon class="face_stroke" points="-0.686252940101423,0.2774787010386206 -0.25236919873745434,-0.6234901657819844 -0.10332693009580085,-1.6123209916355017 -0.25236919380649603,-2.6011518182322413 -0.6862529306776435,-3.5021206872164745 -1.3664256666208252,-4.235172560742194 -2.232451069158599,-4.73517256290148 -3.207378980785604,-4.957693499288609 -4.204582778153112,-4.88296340818854 -5.1354565277082305,-4.517622386143119 -5.917288011730825,-3.894132586233747 -6.480608071854531,-3.0678938133222937 -6.7753632486479916,-2.1123210082710737 -6.77536325114132,-1.1123210082710757 -6.480608079112971,-0.1567482017500128 -5.917288023109434,0.6694905739705235 -5.13545654219597,1.292980377778618 -4.204582794462677,1.6583214044659884 -3.2073789974678233,1.733051500538768 -2.2324510847311814,1.5105305690132675 -1.3664256797000784,1.0105305711725514"/>
<text class="face_text" text-anchor="middle" dominant-baseline="middle" transform="matrix(0.025137019598245054 0 0 0.025137019598245054 0.0 0.0)">0</text>
<text class="face_text" text-anchor="middle" dominant-baseline="middle" transform="matrix(0.025137019598245054 0 0 0.025137019598245054 0.57735 0.0)">41</text>
<text class="face_text" text-anchor="middle" dominant-baseline="middle" transform="matrix(0.025137019598245054 0 0 0.025137019598245054 2.380329 3.122852)">43</text>
<text class="face_text" text-anchor="middle" dominant-baseline="middle" transform="matrix(0.025137019598245054 0 0 0.025137019598245054 -0.263025 0.670177)">1</text>
<text class="face_text" text-anchor="middle" dominant-baseline="middle" transform="matrix(0.025137019598245054 0 0 0.025137019598245054 -0.814725 0.840354)">2</text>
<text class="face_text" text-anchor="middle" dominant-baseline="middle" transform="matrix(0.025137019598245054 0 0 0.025137019598245054 -3.45808 -1.612321)">42</text>
<rect class="edge_bg" x="0.037304669422736525" y="-0.2513701959824506" width="0.5027403919649011" height="0.5027403919649011"/>
<text class="edge_text" text-anchor="middle" dominant-baseline="middle" transform="matrix(0.025137019598245054 0 0 0.025137019598245054 0.28867486540518705 -3.535250795749691e-17)">0</text>
<rect class="edge_bg" x="0.47031717907022236" y="-0.0013697619398246874" width="0.5027403919649011" height="0.5027403919649011"/>
<text class="edge_text" text-anchor="middle" dominant-baseline="middle" transform="matrix(0.025137019598245054 0 0 0.025137019598245054 0.7216873750526729 0.25000043404262584)">6</text>
<rect class="edge_bg" x="-0.30278134870655804" y="0.6151557611689147" width="0.5027403919649011" height="0.5027403919649011"/>
<text class="edge_text" text-anchor="middle" dominant-baseline="middle" transform="matrix(0.025137019598245054 0 0 0.025137019598245054 -0.05141115272410754 0.8665259571513653)">5</text>
<rect class="edge_bg" x="-0.7902450874448399" y="0.5038953150597489" width="0.5027403919649011" height="0.5027403919649011"/>
<text class="edge_text" text-anchor="middle" dominant-baseline="middle" transform="matrix(0.025137019598245054 0 0 0.025137019598245054 -0.5388748914623893 0.7552655110421994)">7</text>
<rect class="edge_bg" x="-1.277709505883202" y="0.39263444012313636" width="0.5027403919649011" height="0.5027403919649011"/>
<text class="edge_text" text-anchor="middle" dominant-baseline="middle" transform="matrix(0.025137019598245054 0 0 0.025137019598245054 -1.0263393099007514 0.6440046361055869)">8</text>
</svg>
