<?xml version="1.0" encoding="utf-8"?>
<svg version="1.1" xmlns="http://www.w3.org/2000/svg" viewBox="-1.7430173105187834 -0.8484112249956848 7.794945253766461 7.665046949905058" style="enable-background:new -1.7430173105187834 -0.8484112249956848 7.794945253766461 7.665046949905058;">
<style type="text/css">
  .face_stroke {fill:none; stroke:#000000; stroke-width:0.02; stroke-miterlimit:10;}
  .face_text {fill:#000000; font-family:monospace;}
  .edge_text {fill:#ff0000; font-family:monospace;}
  .edge_bg {fill:#f3f3f3; stroke:#606060; stroke-width:0.01;}
</style>
<polygon class="face_stroke" points="0.288675134594813,-0.5 -0.5773502691896258,-7.07050159149938e-17 0.288675134594813,0.5"/>
<polygon class="face_stroke" points="0.28867486540518683,0.4999999999999999 1.1547002691896258,1.414100318299876e-16 0.28867486540518755,-0.5000000000000003"/>
<polygon class="face_stroke" points="0.28867467316045214,0.5000004340426267 -0.39149806461046666,1.233052305872453 -0.8253818037280238,2.13402117377487 -0.9744240699041988,3.1228519999999995 -0.8253818037280243,4.111682826225129 -0.3914980646104671,5.0126516941275465 0.28867467316045303,5.745703565957374 1.1547000769448894,6.245703565957373 2.1296279891267167,6.468224499913688 3.126831786307895,6.393494406327264 4.0577055349521025,6.028153381960868 4.839537017420133,5.404663580102133 5.4028570754837535,4.5784248057861365 5.697612249894657,3.6228519999999937 5.697612249894654,2.62285199999999 5.402857075483748,1.667279194213852 4.839537017420123,0.8410404198978578 4.057705534952088,0.21755061803912445 3.126831786307879,-0.14779040632726792 2.1296279891267007,-0.22252049991368716 1.1547000769448743,4.3404263294632983e-07"/>
<polygon class="face_stroke" points="-0.3914978196119292,1.233052015215832 -1.3887016171657625,1.3077821038295445 -0.8253815632223085,2.1340208809546226"/>
<polygon class="face_stroke" points="-0.3914973828342374,1.2330518961704549 -0.9548174367776917,0.4068131190453772 -1.388701180388071,1.3077819847841676"/>
<polygon class="face_stroke" points="-0.3914975632223081,1.2330518809546227 0.04238618038807079,0.332083015215832 -0.9548176171657627,0.4068131038295452"/>
<text class="face_text" text-anchor="middle" dominant-baseline="middle" transform="matrix(0.015330093899810117 0 0 0.015330093899810117 0.0 0.0)">0</text>
<text class="face_text" text-anchor="middle" dominant-baseline="middle" transform="matrix(0.015330093899810117 0 0 0.015330093899810117 0.57735 0.0)">41</text>
<text class="face_text" text-anchor="middle" dominant-baseline="middle" transform="matrix(0.015330093899810117 0 0 0.015330093899810117 2.380329 3.122852)">43</text>
<text class="face_text" text-anchor="middle" dominant-baseline="middle" transform="matrix(0.015330093899810117 0 0 0.015330093899810117 -0.868527 1.558285)">3</text>
<text class="face_text" text-anchor="middle" dominant-baseline="middle" transform="matrix(0.015330093899810117 0 0 0.015330093899810117 -0.911672 0.982549)">2</text>
<text class="face_text" text-anchor="middle" dominant-baseline="middle" transform="matrix(0.015330093899810117 0 0 0.015330093899810117 -0.434643 0.657316)">1</text>
<rect class="edge_bg" x="0.1353739264070859" y="-0.15330093899810118" width="0.3066018779962023" height="0.3066018779962023"/>
<text class="edge_text" text-anchor="middle" dominant-baseline="middle" transform="matrix(0.015330093899810117 0 0 0.015330093899810117 0.28867486540518705 -3.535250795749691e-17)">0</text>
<rect class="edge_bg" x="0.5683864360545717" y="0.09669949504452469" width="0.3066018779962023" height="0.3066018779962023"/>
<text class="edge_text" text-anchor="middle" dominant-baseline="middle" transform="matrix(0.015330093899810117 0 0 0.015330093899810117 0.7216873750526729 0.25000043404262584)">6</text>
<rect class="edge_bg" x="-0.7617406304152198" y="1.530235509087126" width="0.3066018779962023" height="0.3066018779962023"/>
<text class="edge_text" text-anchor="middle" dominant-baseline="middle" transform="matrix(0.015330093899810117 0 0 0.015330093899810117 -0.6084396914171186 1.6835364480852273)">10</text>
<rect class="edge_bg" x="-1.0434002206092554" y="1.1171160014792103" width="0.3066018779962023" height="0.3066018779962023"/>
<text class="edge_text" text-anchor="middle" dominant-baseline="middle" transform="matrix(0.015330093899810117 0 0 0.015330093899810117 -0.8900992816111541 1.2704169404773116)">9</text>
<rect class="edge_bg" x="-0.8264585291921366" y="0.666631553393983" width="0.3066018779962023" height="0.3066018779962023"/>
<text class="edge_text" text-anchor="middle" dominant-baseline="middle" transform="matrix(0.015330093899810117 0 0 0.015330093899810117 -0.6731575901940354 0.8199324923920841)">7</text>
</svg>
