<?xml version="1.0" encoding="utf-8"?>
<svg version="1.1" xmlns="http://www.w3.org/2000/svg" viewBox="-8.592160627502116 -3.501153798592389 14.970238252510905 10.44411059843494" style="enable-background:new -8.592160627502116 -3.501153798592389 14.970238252510905 10.44411059843494;">
<style type="text/css">
  .face_stroke {fill:none; stroke:#000000; stroke-width:0.02; stroke-miterlimit:10;}
  .face_text {fill:#000000; font-family:monospace;}
  .edge_text {fill:#ff0000; font-family:monospace;}
  .edge_bg {fill:#f3f3f3; stroke:#606060; stroke-width:0.01;}
</style>
<polygon class="face_stroke" points="0.288675134594813,-0.5 -0.5773502691896258,-7.07050159149938e-17 0.288675134594813,0.5"/>
<polygon class="face_stroke" points="0.28867486540518683,0.4999999999999999 1.1547002691896258,1.414100318299876e-16 0.28867486540518755,-0.5000000000000003"/>
<polygon class="face_stroke" points="0.28867467316045214,0.5000004340426267 -0.39149806461046666,1.233052305872453 -0.8253818037280238,2.13402117377487 -0.9744240699041988,3.1228519999999995 -0.8253818037280243,4.111682826225129 -0.3914980646104671,5.0126516941275465 0.28867467316045303,5.745703565957374 1.1547000769448894,6.245703565957373 2.1296279891267167,6.468224499913688 3.126831786307895,6.393494406327264 4.0577055349521025,6.028153381960868 4.839537017420133,5.404663580102133 5.4028570754837535,4.5784248057861365 5.697612249894657,3.6228519999999937 5.697612249894654,2.62285199999999 5.402857075483748,1.667279194213852 4.839537017420123,0.8410404198978578 4.057705534952088,0.21755061803912445 3.126831786307879,-0.14779040632726792 2.1296279891267007,-0.22252049991368716 1.1547000769448743,4.3404263294632983e-07"/>
<polygon class="face_stroke" points="-0.3914978196119292,1.233052015215832 -1.3887016171657625,1.3077821038295445 -0.8253815632223085,2.1340208809546226"/>
<polygon class="face_stroke" points="-1.3887014367776918,1.3077821190453771 -1.822585180388071,2.2087509847841678 -0.8253813828342376,2.134020896170455"/>
<polygon class="face_stroke" points="-1.388701201202934,1.3077818422109024 -1.2396589300958012,0.3189510167289964 -1.3887011913410174,-0.6698798102393545 -1.8225849259657547,-1.570848680305402 -2.5027576600811967,-2.303900555527015 -3.3687830613723073,-2.8039005598455846 -4.343710972444495,-3.0264214986635283 -5.340914769998329,-2.9516914100498157 -6.271788520464363,-2.586350390325367 -7.0536200060415215,-1.9628605923653588 -7.616940068225311,-1.1366218208584475 -7.911695247401328,-0.18104901654214978 -7.911695252387983,0.8189509834578511 -7.616940082742191,1.7745237907138351 -7.053620028798738,2.6007625678389115 -6.271788549439838,3.224252373596369 -5.340914802617463,3.589593402604712 -4.343711005808935,3.6643235011638478 -3.3687830925174755,3.4418025720691627 -2.5027576862397085,2.9418025763877322 -1.822584944813312,2.208750707949692"/>
<polygon class="face_stroke" points="-1.3887010083165205,1.3077816141712568 -0.45782725693957127,0.9424405967677809 -1.2396587347439083,0.31895078906096186"/>
<polygon class="face_stroke" points="-0.4578272652560916,0.9424412109390381 -0.3087849916834799,-0.046389614171256977 -1.2396587430604287,0.31895140323221893"/>
<text class="face_text" text-anchor="middle" dominant-baseline="middle" transform="matrix(0.02088822119686988 0 0 0.02088822119686988 0.0 0.0)">0</text>
<text class="face_text" text-anchor="middle" dominant-baseline="middle" transform="matrix(0.02088822119686988 0 0 0.02088822119686988 0.57735 0.0)">41</text>
<text class="face_text" text-anchor="middle" dominant-baseline="middle" transform="matrix(0.02088822119686988 0 0 0.02088822119686988 2.380329 3.122852)">43</text>
<text class="face_text" text-anchor="middle" dominant-baseline="middle" transform="matrix(0.02088822119686988 0 0 0.02088822119686988 -0.868527 1.558285)">3</text>
<text class="face_text" text-anchor="middle" dominant-baseline="middle" transform="matrix(0.02088822119686988 0 0 0.02088822119686988 -1.345556 1.883518)">4</text>
<text class="face_text" text-anchor="middle" dominant-baseline="middle" transform="matrix(0.02088822119686988 0 0 0.02088822119686988 -4.594412 0.318951)">42</text>
<text class="face_text" text-anchor="middle" dominant-baseline="middle" transform="matrix(0.02088822119686988 0 0 0.02088822119686988 -1.028729 0.856391)">2</text>
<text class="face_text" text-anchor="middle" dominant-baseline="middle" transform="matrix(0.02088822119686988 0 0 0.02088822119686988 -0.668757 0.405001)">1</text>
<rect class="edge_bg" x="0.07979265343648825" y="-0.20888221196869883" width="0.4177644239373976" height="0.4177644239373976"/>
<text class="edge_text" text-anchor="middle" dominant-baseline="middle" transform="matrix(0.02088822119686988 0 0 0.02088822119686988 0.28867486540518705 -3.535250795749691e-17)">0</text>
<rect class="edge_bg" x="0.5128051630839741" y="0.04111822207392704" width="0.4177644239373976" height="0.4177644239373976"/>
<text class="edge_text" text-anchor="middle" dominant-baseline="middle" transform="matrix(0.02088822119686988 0 0 0.02088822119686988 0.7216873750526729 0.25000043404262584)">6</text>
<rect class="edge_bg" x="-0.8173219033858174" y="1.4746542361165285" width="0.4177644239373976" height="0.4177644239373976"/>
<text class="edge_text" text-anchor="middle" dominant-baseline="middle" transform="matrix(0.02088822119686988 0 0 0.02088822119686988 -0.6084396914171186 1.6835364480852273)">10</text>
<rect class="edge_bg" x="-1.3159236217746633" y="1.5120192956392173" width="0.4177644239373976" height="0.4177644239373976"/>
<text class="edge_text" text-anchor="middle" dominant-baseline="middle" transform="matrix(0.02088822119686988 0 0 0.02088822119686988 -1.1070414098059644 1.7209015076079162)">11</text>
<rect class="edge_bg" x="-1.814525284976822" y="1.5493840631115987" width="0.4177644239373976" height="0.4177644239373976"/>
<text class="edge_text" text-anchor="middle" dominant-baseline="middle" transform="matrix(0.02088822119686988 0 0 0.02088822119686988 -1.6056430730081233 1.7582662750802975)">12</text>
<rect class="edge_bg" x="-1.5230620834989133" y="0.6044839896474107" width="0.4177644239373976" height="0.4177644239373976"/>
<text class="edge_text" text-anchor="middle" dominant-baseline="middle" transform="matrix(0.02088822119686988 0 0 0.02088822119686988 -1.3141798715302144 0.8133662016161095)">8</text>
<rect class="edge_bg" x="-1.0576252161269588" y="0.4218140951169298" width="0.4177644239373976" height="0.4177644239373976"/>
<text class="edge_text" text-anchor="middle" dominant-baseline="middle" transform="matrix(0.02088822119686988 0 0 0.02088822119686988 -0.8487430041582601 0.6306963070856286)">7</text>
</svg>
