<?xml version="1.0" encoding="utf-8"?>
<svg version="1.1" xmlns="http://www.w3.org/2000/svg" viewBox="-7.764746326894619 -3.766562349873804 15.426669653789238 9.266176699122529" style="enable-background:new -7.764746326894619 -3.766562349873804 15.426669653789238 9.266176699122529;">
<style type="text/css">
  .face_stroke {fill:none; stroke:#000000; stroke-width:0.02; stroke-miterlimit:10;}
  .face_text {fill:#000000; font-family:monospace;}
  .edge_text {fill:#ff0000; font-family:monospace;}
  .edge_bg {fill:#f3f3f3; stroke:#606060; stroke-width:0.01;}
</style>
<polygon class="face_stroke" points="0.288675134594813,-0.5 -0.5773502691896258,-7.07050159149938e-17 0.288675134594813,0.5"/>
<polygon class="face_stroke" points="0.2886747501053448,0.5000000000000016 0.5834299245162491,1.4555728057861403 1.1467499825798715,2.281811580102136 1.9285814650478992,2.905301381960868 2.859455213692107,3.2706424063272643 3.8566590108732854,3.345372499913688 4.831586923055113,3.1228515659573723 5.697612326839552,2.6228515659573706 6.37778506461047,1.8897996941275426 6.811668803728027,0.9888308262251188 6.9607110699042,-8.117180318537378e-15 6.811668803728021,-0.9888308262251401 6.3777850646104595,-1.8897996941275585 5.697612326839538,-2.622851565957381 4.831586923055095,-3.1228515659573794 3.856659010873269,-3.3453724999136893 2.8594552136920885,-3.2706424063272603 1.9285814650478827,-2.9053013819608586 1.1467499825798582,-2.2818115801021217 0.5834299245162393,-1.4555728057861201 0.2886747501053417,-0.49999999999997957"/>
<polygon class="face_stroke" points="0.2886755225234367,0.5000001077816684 -0.39149721707522145,1.233051977915601 0.5834306945517846,1.4555729143027305"/>
<polygon class="face_stroke" points="0.2886752170752213,0.5000000220843988 -0.6862526945517848,0.27747908569726953 -0.3914975225234365,1.2330518922183318"/>
<polygon class="face_stroke" points="-0.6862529208870289,0.27747920175001184 -1.2495729768905672,-0.5487595739705242 -2.0314044578040322,-1.1722493777786196 -2.9622782055373214,-1.5375904044659878 -3.959482002532175,-1.612320500538768 -4.934409915268816,-1.3897995690132687 -5.800435320299918,-0.8897995711725539 -6.480608059898576,-0.15674770103862157 -6.914491801262544,0.7442211657819825 -7.063534069904199,1.7330519916355007 -6.914491806193505,2.7218828182322383 -6.480608069322358,3.622851687216473 -5.800435333379177,4.355903560742193 -4.9344099308414044,4.855903562901478 -3.9594820192143954,5.078424499288609 -2.9622782218468875,5.00369440818854 -2.0314044722917677,4.638353386143118 -1.2495729882691728,4.014863586233745 -0.6862529281454677,3.1886248133222908 -0.3914977513520075,2.2330520082710668 -0.39149774885868194,1.2330520082710659"/>
<polygon class="face_stroke" points="-0.6862525632223081,0.2774788809546228 -0.2523688196119292,-0.623489984784168 -1.2495726171657626,-0.5487598961704547"/>
<text class="face_text" text-anchor="middle" dominant-baseline="middle" transform="matrix(0.018532353398245056 0 0 0.018532353398245056 0.0 0.0)">0</text>
<text class="face_text" text-anchor="middle" dominant-baseline="middle" transform="matrix(0.018532353398245056 0 0 0.018532353398245056 3.605958 0.0)">42</text>
<text class="face_text" text-anchor="middle" dominant-baseline="middle" transform="matrix(0.018532353398245056 0 0 0.018532353398245056 0.160203 1.062875)">40</text>
<text class="face_text" text-anchor="middle" dominant-baseline="middle" transform="matrix(0.018532353398245056 0 0 0.018532353398245056 -0.263025 0.670177)">41</text>
<text class="face_text" text-anchor="middle" dominant-baseline="middle" transform="matrix(0.018532353398245056 0 0 0.018532353398245056 -3.708781 1.733052)">43</text>
<text class="face_text" text-anchor="middle" dominant-baseline="middle" transform="matrix(0.018532353398245056 0 0 0.018532353398245056 -0.729398 -0.298257)">1</text>
<rect class="edge_bg" x="0.10335121612289425" y="-0.185323533982451" width="0.37064706796490116" height="0.37064706796490116"/>
<text class="edge_text" text-anchor="middle" dominant-baseline="middle" transform="matrix(0.018532353398245056 0 0 0.018532353398245056 0.2886747501053448 -4.062500313848619e-16)">1</text>
<rect class="edge_bg" x="0.2507295745551601" y="0.7924629770597488" width="0.37064706796490116" height="0.37064706796490116"/>
<text class="edge_text" text-anchor="middle" dominant-baseline="middle" transform="matrix(0.018532353398245056 0 0 0.018532353398245056 0.4360531085376107 0.9777865110421994)">2</text>
<rect class="edge_bg" x="-0.23673468670655812" y="0.6812024231689147" width="0.37064706796490116" height="0.37064706796490116"/>
<text class="edge_text" text-anchor="middle" dominant-baseline="middle" transform="matrix(0.018532353398245056 0 0 0.018532353398245056 -0.05141115272410754 0.8665259571513653)">3</text>
<rect class="edge_bg" x="-0.7241988688553058" y="0.5699420710280922" width="0.37064706796490116" height="0.37064706796490116"/>
<text class="edge_text" text-anchor="middle" dominant-baseline="middle" transform="matrix(0.018532353398245056 0 0 0.018532353398245056 -0.5388753348728552 0.7552656050105429)">6</text>
<rect class="edge_bg" x="-1.153236124176486" y="-0.3209640415903664" width="0.37064706796490116" height="0.37064706796490116"/>
<text class="edge_text" text-anchor="middle" dominant-baseline="middle" transform="matrix(0.018532353398245056 0 0 0.018532353398245056 -0.9679125901940353 -0.13564050760791585)">5</text>
</svg>
