<?xml version="1.0" encoding="utf-8"?>
<svg version="1.1" xmlns="http://www.w3.org/2000/svg" viewBox="-4.065257976894619 -3.704909749905057 15.631107953789238 7.909819499810114" style="enable-background:new -4.065257976894619 -3.704909749905057 15.631107953789238 7.909819499810114;">
<style type="text/css">
  .face_stroke {fill:none; stroke:#000000; stroke-width:0.02; stroke-miterlimit:10;}
  .face_text {fill:#000000; font-family:monospace;}
  .edge_text {fill:#ff0000; font-family:monospace;}
  .edge_bg {fill:#f3f3f3; stroke:#606060; stroke-width:0.01;}
</style>
<polygon class="face_stroke" points="3.3172832498946554,-0.49999999999999994 3.022528075483751,-1.4555728057861408 2.459208017420129,-2.281811580102136 1.6773765349521,-2.905301381960869 0.7465027863078955,-3.270642406327264 -0.25070101087328417,-3.345372499913688 -1.2256289230551072,-3.122851565957374 -2.0916543268395458,-2.622851565957375 -2.7718270646104664,-1.8897996941275486 -3.205710803728024,-0.9888308262251297 -3.354753069904199,-1.9006484009546212e-15 -3.2057108037280253,0.9888308262251263 -2.771827064610468,1.8897996941275452 -2.0916543268395498,2.6228515659573715 -1.2256289230551107,3.1228515659573732 -0.25070101087328944,3.345372499913688 0.7465027863078947,3.270642406327264 1.6773765349521,2.905301381960869 2.45920801742013,2.2818115801021346 3.022528075483751,1.4555728057861415 3.317283249894656,0.4999999999999968"/>
<polygon class="face_stroke" points="3.317282865405187,0.4999999999999999 4.183308269189626,1.414100318299876e-16 3.3172828654051876,-0.5000000000000003"/>
<polygon class="face_stroke" points="3.317283730810374,0.49999999999999994 4.183309134594813,1.0 4.183309134594813,-1.1102230246251565e-16"/>
<polygon class="face_stroke" points="4.183308750105345,1.0000000000000016 4.478063924516249,1.9555728057861403 5.041383982579871,2.781811580102136 5.823215465047899,3.405301381960868 6.754089213692107,3.7706424063272643 7.751293010873285,3.845372499913688 8.726220923055113,3.6228515659573723 9.592246326839552,3.1228515659573706 10.272419064610471,2.3897996941275426 10.706302803728027,1.4888308262251186 10.8553450699042,0.4999999999999919 10.706302803728022,-0.48883082622514007 10.27241906461046,-1.3897996941275585 9.592246326839538,-2.122851565957381 8.726220923055095,-2.6228515659573794 7.751293010873269,-2.8453724999136893 6.7540892136920885,-2.7706424063272603 5.823215465047882,-2.4053013819608586 5.041383982579858,-1.7818115801021217 4.478063924516239,-0.9555728057861201 4.183308750105342,2.042810365310288e-14"/>
<polygon class="face_stroke" points="5.041384265256092,2.7818117890609617 4.892341991683479,3.7706426141712566 5.8232157430604286,3.405301596767781"/>
<polygon class="face_stroke" points="5.04138400831652,2.781811385828743 4.1105102569395715,3.147152403232219 4.892341734743908,3.770642210939038"/>
<polygon class="face_stroke" points="5.041383743060428,2.7818115967677812 4.259552265256091,2.1583217890609623 4.110509991683479,3.147152614171257"/>
<polygon class="face_stroke" points="4.25955200831652,2.158321385828743 3.328678256939571,2.523662403232219 4.110509734743909,3.147152210939038"/>
<polygon class="face_stroke" points="4.2595527430604285,2.158321596767781 3.4777212652560916,1.5348317890609617 3.32867899168348,2.523662614171257"/>
<polygon class="face_stroke" points="3.47772100831652,1.5348323858287432 2.5468472569395715,1.900173403232219 3.328678734743909,2.5236632109390382"/>
<text class="face_text" text-anchor="middle" dominant-baseline="middle" transform="matrix(0.015819638999620227 0 0 0.015819638999620227 0.0 0.0)">42</text>
<text class="face_text" text-anchor="middle" dominant-baseline="middle" transform="matrix(0.015819638999620227 0 0 0.015819638999620227 3.605958 0.0)">0</text>
<text class="face_text" text-anchor="middle" dominant-baseline="middle" transform="matrix(0.015819638999620227 0 0 0.015819638999620227 3.894634 0.5)">1</text>
<text class="face_text" text-anchor="middle" dominant-baseline="middle" transform="matrix(0.015819638999620227 0 0 0.015819638999620227 7.500592 0.5)">43</text>
<text class="face_text" text-anchor="middle" dominant-baseline="middle" transform="matrix(0.015819638999620227 0 0 0.015819638999620227 5.252314 3.319252)">7</text>
<text class="face_text" text-anchor="middle" dominant-baseline="middle" transform="matrix(0.015819638999620227 0 0 0.015819638999620227 4.681412 3.233202)">6</text>
<text class="face_text" text-anchor="middle" dominant-baseline="middle" transform="matrix(0.015819638999620227 0 0 0.015819638999620227 4.470482 2.695762)">5</text>
<text class="face_text" text-anchor="middle" dominant-baseline="middle" transform="matrix(0.015819638999620227 0 0 0.015819638999620227 3.89958 2.609712)">4</text>
<text class="face_text" text-anchor="middle" dominant-baseline="middle" transform="matrix(0.015819638999620227 0 0 0.015819638999620227 3.688651 2.072272)">3</text>
<text class="face_text" text-anchor="middle" dominant-baseline="middle" transform="matrix(0.015819638999620227 0 0 0.015819638999620227 3.117749 1.986223)">2</text>
<rect class="edge_bg" x="3.159086475408985" y="-0.1581963899962023" width="0.31639277999240456" height="0.31639277999240456"/>
<text class="edge_text" text-anchor="middle" dominant-baseline="middle" transform="matrix(0.015819638999620227 0 0 0.015819638999620227 3.317282865405187 -3.535250795749691e-17)">1</text>
<rect class="edge_bg" x="3.592100042706391" y="0.09180361000379761" width="0.31639277999240456" height="0.31639277999240456"/>
<text class="edge_text" text-anchor="middle" dominant-baseline="middle" transform="matrix(0.015819638999620227 0 0 0.015819638999620227 3.7502964327025934 0.2499999999999999)">4</text>
<rect class="edge_bg" x="4.0251123601091425" y="0.34180361000379733" width="0.31639277999240456" height="0.31639277999240456"/>
<text class="edge_text" text-anchor="middle" dominant-baseline="middle" transform="matrix(0.015819638999620227 0 0 0.015819638999620227 4.183308750105345 0.4999999999999996)">5</text>
<rect class="edge_bg" x="5.274103614162057" y="2.9353603029181694" width="0.31639277999240456" height="0.31639277999240456"/>
<text class="edge_text" text-anchor="middle" dominant-baseline="middle" transform="matrix(0.015819638999620227 0 0 0.015819638999620227 5.43230000415826 3.0935566929143716)">18</text>
<rect class="edge_bg" x="4.808666481534011" y="3.118030408387688" width="0.31639277999240456" height="0.31639277999240456"/>
<text class="edge_text" text-anchor="middle" dominant-baseline="middle" transform="matrix(0.015819638999620227 0 0 0.015819638999620227 4.966862871530214 3.2762267983838904)">17</text>
<rect class="edge_bg" x="4.417750477375751" y="2.806285715473317" width="0.31639277999240456" height="0.31639277999240456"/>
<text class="edge_text" text-anchor="middle" dominant-baseline="middle" transform="matrix(0.015819638999620227 0 0 0.015819638999620227 4.575946867371954 2.964482105469519)">15</text>
<rect class="edge_bg" x="4.026834481534012" y="2.4945404083876883" width="0.31639277999240456" height="0.31639277999240456"/>
<text class="edge_text" text-anchor="middle" dominant-baseline="middle" transform="matrix(0.015819638999620227 0 0 0.015819638999620227 4.1850308715302145 2.6527367983838905)">13</text>
<rect class="edge_bg" x="3.635919477375752" y="2.1827957154733166" width="0.31639277999240456" height="0.31639277999240456"/>
<text class="edge_text" text-anchor="middle" dominant-baseline="middle" transform="matrix(0.015819638999620227 0 0 0.015819638999620227 3.7941158673719544 2.340992105469519)">11</text>
<rect class="edge_bg" x="3.245003481534012" y="1.8710514083876886" width="0.31639277999240456" height="0.31639277999240456"/>
<text class="edge_text" text-anchor="middle" dominant-baseline="middle" transform="matrix(0.015819638999620227 0 0 0.015819638999620227 3.403199871530214 2.029247798383891)">9</text>
</svg>
