<?xml version="1.0" encoding="utf-8"?>
<svg version="1.1" xmlns="http://www.w3.org/2000/svg" viewBox="-4.065257976894619 -3.756107869875504 15.631107953789238 7.963455625493439" style="enable-background:new -4.065257976894619 -3.756107869875504 15.631107953789238 7.963455625493439;">
<style type="text/css">
  .face_stroke {fill:none; stroke:#000000; stroke-width:0.02; stroke-miterlimit:10;}
  .face_text {fill:#000000; font-family:monospace;}
  .edge_text {fill:#ff0000; font-family:monospace;}
  .edge_bg {fill:#f3f3f3; stroke:#606060; stroke-width:0.01;}
</style>
<polygon class="face_stroke" points="3.3172832498946554,-0.49999999999999994 3.022528075483751,-1.4555728057861408 2.459208017420129,-2.281811580102136 1.6773765349521,-2.905301381960869 0.7465027863078955,-3.270642406327264 -0.25070101087328417,-3.345372499913688 -1.2256289230551072,-3.122851565957374 -2.0916543268395458,-2.622851565957375 -2.7718270646104664,-1.8897996941275486 -3.205710803728024,-0.9888308262251297 -3.354753069904199,-1.9006484009546212e-15 -3.2057108037280253,0.9888308262251263 -2.771827064610468,1.8897996941275452 -2.0916543268395498,2.6228515659573715 -1.2256289230551107,3.1228515659573732 -0.25070101087328944,3.345372499913688 0.7465027863078947,3.270642406327264 1.6773765349521,2.905301381960869 2.45920801742013,2.2818115801021346 3.022528075483751,1.4555728057861415 3.317283249894656,0.4999999999999968"/>
<polygon class="face_stroke" points="3.317282865405187,0.4999999999999999 4.183308269189626,1.414100318299876e-16 3.3172828654051876,-0.5000000000000003"/>
<polygon class="face_stroke" points="3.317283730810374,0.49999999999999994 4.183309134594813,1.0 4.183309134594813,-1.1102230246251565e-16"/>
<polygon class="face_stroke" points="4.183308750105345,1.0000000000000016 4.478063924516249,1.9555728057861403 5.041383982579871,2.781811580102136 5.823215465047899,3.405301381960868 6.754089213692107,3.7706424063272643 7.751293010873285,3.845372499913688 8.726220923055113,3.6228515659573723 9.592246326839552,3.1228515659573706 10.272419064610471,2.3897996941275426 10.706302803728027,1.4888308262251186 10.8553450699042,0.4999999999999919 10.706302803728022,-0.48883082622514007 10.27241906461046,-1.3897996941275585 9.592246326839538,-2.122851565957381 8.726220923055095,-2.6228515659573794 7.751293010873269,-2.8453724999136893 6.7540892136920885,-2.7706424063272603 5.823215465047882,-2.4053013819608586 5.041383982579858,-1.7818115801021217 4.478063924516239,-0.9555728057861201 4.183308750105342,2.042810365310288e-14"/>
<polygon class="face_stroke" points="6.754088743060429,-2.7706424032322188 5.972257265256092,-3.3941322109390377 5.8232149916834794,-2.405301385828743"/>
<polygon class="face_stroke" points="5.97225800831652,-3.394132614171257 5.041384256939572,-3.028791596767781 5.823215734743909,-2.405301789060962"/>
<polygon class="face_stroke" points="5.041384265256092,-3.028791210939038 4.892341991683479,-2.039960385828743 5.8232157430604286,-2.405301403232219"/>
<polygon class="face_stroke" points="5.04138400831652,-3.028791614171257 4.1105102569395715,-2.663450596767781 4.892341734743908,-2.039960789060962"/>
<polygon class="face_stroke" points="4.110510265256091,-2.663450210939038 3.9614679916834796,-1.6746193858287433 4.892341743060428,-2.039960403232219"/>
<polygon class="face_stroke" points="4.1105100083165205,-2.663450614171257 3.1796362569395713,-2.298109596767781 3.961467734743909,-1.6746197890609622"/>
<polygon class="face_stroke" points="3.1796362652560917,-2.298109210939038 3.03059399168348,-1.3092783858287433 3.961467743060429,-1.6746194032322193"/>
<text class="face_text" text-anchor="middle" dominant-baseline="middle" transform="matrix(0.01592691125098688 0 0 0.01592691125098688 0.0 0.0)">42</text>
<text class="face_text" text-anchor="middle" dominant-baseline="middle" transform="matrix(0.01592691125098688 0 0 0.01592691125098688 3.605958 0.0)">0</text>
<text class="face_text" text-anchor="middle" dominant-baseline="middle" transform="matrix(0.01592691125098688 0 0 0.01592691125098688 3.894634 0.5)">1</text>
<text class="face_text" text-anchor="middle" dominant-baseline="middle" transform="matrix(0.01592691125098688 0 0 0.01592691125098688 7.500592 0.5)">43</text>
<text class="face_text" text-anchor="middle" dominant-baseline="middle" transform="matrix(0.01592691125098688 0 0 0.01592691125098688 6.183187 -2.856692)">35</text>
<text class="face_text" text-anchor="middle" dominant-baseline="middle" transform="matrix(0.01592691125098688 0 0 0.01592691125098688 5.612286 -2.942742)">36</text>
<text class="face_text" text-anchor="middle" dominant-baseline="middle" transform="matrix(0.01592691125098688 0 0 0.01592691125098688 5.252314 -2.491351)">37</text>
<text class="face_text" text-anchor="middle" dominant-baseline="middle" transform="matrix(0.01592691125098688 0 0 0.01592691125098688 4.681412 -2.577401)">38</text>
<text class="face_text" text-anchor="middle" dominant-baseline="middle" transform="matrix(0.01592691125098688 0 0 0.01592691125098688 4.32144 -2.12601)">39</text>
<text class="face_text" text-anchor="middle" dominant-baseline="middle" transform="matrix(0.01592691125098688 0 0 0.01592691125098688 3.750538 -2.21206)">40</text>
<text class="face_text" text-anchor="middle" dominant-baseline="middle" transform="matrix(0.01592691125098688 0 0 0.01592691125098688 3.390566 -1.760669)">41</text>
<rect class="edge_bg" x="3.1580137528953185" y="-0.1592691125098688" width="0.31853822501973755" height="0.31853822501973755"/>
<text class="edge_text" text-anchor="middle" dominant-baseline="middle" transform="matrix(0.01592691125098688 0 0 0.01592691125098688 3.317282865405187 -3.535250795749691e-17)">1</text>
<rect class="edge_bg" x="3.5910273201927247" y="0.09073088749013111" width="0.31853822501973755" height="0.31853822501973755"/>
<text class="edge_text" text-anchor="middle" dominant-baseline="middle" transform="matrix(0.01592691125098688 0 0 0.01592691125098688 3.7502964327025934 0.2499999999999999)">4</text>
<rect class="edge_bg" x="4.024039637595476" y="0.3407308874901308" width="0.31853822501973755" height="0.31853822501973755"/>
<text class="edge_text" text-anchor="middle" dominant-baseline="middle" transform="matrix(0.01592691125098688 0 0 0.01592691125098688 4.183308750105345 0.4999999999999996)">5</text>
<rect class="edge_bg" x="6.129382754862085" y="-2.7472410070403495" width="0.31853822501973755" height="0.31853822501973755"/>
<text class="edge_text" text-anchor="middle" dominant-baseline="middle" transform="matrix(0.01592691125098688 0 0 0.01592691125098688 6.2886518673719545 -2.587971894530481)">74</text>
<rect class="edge_bg" x="5.738467759020345" y="-3.058986314125978" width="0.31853822501973755" height="0.31853822501973755"/>
<text class="edge_text" text-anchor="middle" dominant-baseline="middle" transform="matrix(0.01592691125098688 0 0 0.01592691125098688 5.897736871530214 -2.8997172016161095)">75</text>
<rect class="edge_bg" x="5.273030891648391" y="-2.876315419595497" width="0.31853822501973755" height="0.31853822501973755"/>
<text class="edge_text" text-anchor="middle" dominant-baseline="middle" transform="matrix(0.01592691125098688 0 0 0.01592691125098688 5.43230000415826 -2.7170463070856283)">77</text>
<rect class="edge_bg" x="4.807593759020345" y="-2.693645314125978" width="0.31853822501973755" height="0.31853822501973755"/>
<text class="edge_text" text-anchor="middle" dominant-baseline="middle" transform="matrix(0.01592691125098688 0 0 0.01592691125098688 4.966862871530214 -2.5343762016161095)">79</text>
<rect class="edge_bg" x="4.342156891648391" y="-2.510974419595497" width="0.31853822501973755" height="0.31853822501973755"/>
<text class="edge_text" text-anchor="middle" dominant-baseline="middle" transform="matrix(0.01592691125098688 0 0 0.01592691125098688 4.50142600415826 -2.3517053070856284)">81</text>
<rect class="edge_bg" x="3.876719759020346" y="-2.3283043141259783" width="0.31853822501973755" height="0.31853822501973755"/>
<text class="edge_text" text-anchor="middle" dominant-baseline="middle" transform="matrix(0.01592691125098688 0 0 0.01592691125098688 4.035988871530215 -2.1690352016161096)">83</text>
<rect class="edge_bg" x="3.411282891648392" y="-2.145633419595497" width="0.31853822501973755" height="0.31853822501973755"/>
<text class="edge_text" text-anchor="middle" dominant-baseline="middle" transform="matrix(0.01592691125098688 0 0 0.01592691125098688 3.5705520041582606 -1.9863643070856285)">3</text>
</svg>
