<?xml version="1.0" encoding="utf-8"?>
<svg version="1.1" xmlns="http://www.w3.org/2000/svg" viewBox="-3.276577079500396 -2.320462952595908 4.782645035667082 4.326121849207563" style="enable-background:new -3.276577079500396 -2.320462952595908 4.782645035667082 4.326121849207563;">
<style type="text/css">
  .face_stroke {fill:none; stroke:#000000; stroke-width:0.02; stroke-miterlimit:10;}
  .face_text {fill:#000000; font-family:monospace;}
  .edge_text {fill:#ff0000; font-family:monospace;}
  .edge_bg {fill:#f3f3f3; stroke:#606060; stroke-width:0.01;}
</style>
<polygon class="face_stroke" points="0.288675134594813,-0.5 -0.5773502691896258,-7.07050159149938e-17 0.288675134594813,0.5"/>
<polygon class="face_stroke" points="0.2886749999999999,0.5 1.288675,0.5000000000000001 1.2886750000000007,-0.49999999999999944 0.2886749999999997,-0.4999999999999998"/>
<polygon class="face_stroke" points="0.288675,0.4999999999999999 0.2886749999999999,1.5 1.288675,1.5 1.2886750000000007,0.5000000000000006"/>
<polygon class="face_stroke" points="0.2886750000000001,0.5 -0.711325,0.4999999999999999 -0.7113250000000001,1.5 0.2886749999999999,1.5"/>
<polygon class="face_stroke" points="-0.7113250397644132,0.5 -1.6623815560595667,0.19098300562505255 -2.2501668083520396,0.9999999999999999 -1.662381556059567,1.8090169943749475 -0.7113250397644133,1.5"/>
<polygon class="face_stroke" points="-1.6623818766662897,0.19098312895876285 -2.471398871041237,-0.3968021233337103 -3.0591841233337105,0.41221487104123705 -2.250167128958763,1.0000001233337104"/>
<polygon class="face_stroke" points="-1.662381489630902,0.1909827158869155 -1.5578530263632484,-0.803539179481358 -2.4713984840058494,-0.3968025364055578"/>
<polygon class="face_stroke" points="-1.5578529496407993,-0.8035385927165997 -1.9645895927165995,-1.7170840503592006 -2.8781350503592007,-1.3103474072834003 -2.4713984072834005,-0.3968019496407995"/>
<polygon class="face_stroke" points="-1.5578534072834003,-0.8035389496407995 -0.6443079496407994,-1.2102755927165998 -1.0510445927165994,-2.1238210503592008 -1.9645900503592006,-1.7170844072834004"/>
<polygon class="face_stroke" points="-1.5578530503592005,-0.8035384072834003 -1.1511164072834006,0.11000705035920044 -0.2375709496407995,-0.2967295927165993 -0.6443075927165998,-1.2102750503592006"/>
<text class="face_text" text-anchor="middle" dominant-baseline="middle" transform="matrix(0.008652243698415125 0 0 0.008652243698415125 0.0 0.0)">0</text>
<text class="face_text" text-anchor="middle" dominant-baseline="middle" transform="matrix(0.008652243698415125 0 0 0.008652243698415125 0.788675 0.0)">3</text>
<text class="face_text" text-anchor="middle" dominant-baseline="middle" transform="matrix(0.008652243698415125 0 0 0.008652243698415125 0.788675 1.0)">2</text>
<text class="face_text" text-anchor="middle" dominant-baseline="middle" transform="matrix(0.008652243698415125 0 0 0.008652243698415125 -0.211325 1.0)">1</text>
<text class="face_text" text-anchor="middle" dominant-baseline="middle" transform="matrix(0.008652243698415125 0 0 0.008652243698415125 -1.399516 1.0)">20</text>
<text class="face_text" text-anchor="middle" dominant-baseline="middle" transform="matrix(0.008652243698415125 0 0 0.008652243698415125 -2.360783 0.301599)">8</text>
<text class="face_text" text-anchor="middle" dominant-baseline="middle" transform="matrix(0.008652243698415125 0 0 0.008652243698415125 -1.897211 -0.336453)">6</text>
<text class="face_text" text-anchor="middle" dominant-baseline="middle" transform="matrix(0.008652243698415125 0 0 0.008652243698415125 -2.217994 -1.056943)">7</text>
<text class="face_text" text-anchor="middle" dominant-baseline="middle" transform="matrix(0.008652243698415125 0 0 0.008652243698415125 -1.304449 -1.46368)">5</text>
<text class="face_text" text-anchor="middle" dominant-baseline="middle" transform="matrix(0.008652243698415125 0 0 0.008652243698415125 -0.897712 -0.550134)">4</text>
<rect class="edge_bg" x="0.20215256301584866" y="-0.08652243698415131" width="0.1730448739683025" height="0.1730448739683025"/>
<text class="edge_text" text-anchor="middle" dominant-baseline="middle" transform="matrix(0.008652243698415125 0 0 0.008652243698415125 0.2886749999999999 -6.123233995736767e-17)">0</text>
<rect class="edge_bg" x="0.7021525630158487" y="0.41347756301584865" width="0.1730448739683025" height="0.1730448739683025"/>
<text class="edge_text" text-anchor="middle" dominant-baseline="middle" transform="matrix(0.008652243698415125 0 0 0.008652243698415125 0.788675 0.4999999999999999)">3</text>
<rect class="edge_bg" x="0.20215256301584889" y="0.9134775630158487" width="0.1730448739683025" height="0.1730448739683025"/>
<text class="edge_text" text-anchor="middle" dominant-baseline="middle" transform="matrix(0.008652243698415125 0 0 0.008652243698415125 0.2886750000000001 1.0)">1</text>
<rect class="edge_bg" x="-0.7978474767485645" y="0.9134775630158487" width="0.1730448739683025" height="0.1730448739683025"/>
<text class="edge_text" text-anchor="middle" dominant-baseline="middle" transform="matrix(0.008652243698415125 0 0 0.008652243698415125 -0.7113250397644132 1.0)">31</text>
<rect class="edge_bg" x="-2.0427969397966774" y="0.5089691891620853" width="0.1730448739683025" height="0.1730448739683025"/>
<text class="edge_text" text-anchor="middle" dominant-baseline="middle" transform="matrix(0.008652243698415125 0 0 0.008652243698415125 -1.9562745028125264 0.5954916261462366)">32</text>
<rect class="edge_bg" x="-2.1534124238025267" y="-0.18943234724347224" width="0.1730448739683025" height="0.1730448739683025"/>
<text class="edge_text" text-anchor="middle" dominant-baseline="middle" transform="matrix(0.008652243698415125 0 0 0.008652243698415125 -2.0668899868183757 -0.102909910259321)">11</text>
<rect class="edge_bg" x="-2.101148115446251" y="-0.6866927081628507" width="0.1730448739683025" height="0.1730448739683025"/>
<text class="edge_text" text-anchor="middle" dominant-baseline="middle" transform="matrix(0.008652243698415125 0 0 0.008652243698415125 -2.0146256784621 -0.6001702711786994)">7</text>
<rect class="edge_bg" x="-1.8477441658054519" y="-1.346834115446251" width="0.1730448739683025" height="0.1730448739683025"/>
<text class="edge_text" text-anchor="middle" dominant-baseline="middle" transform="matrix(0.008652243698415125 0 0 0.008652243698415125 -1.7612217288213006 -1.2603116784620998)">9</text>
<rect class="edge_bg" x="-1.1876027585220512" y="-1.0934291658054518" width="0.1730448739683025" height="0.1730448739683025"/>
<text class="edge_text" text-anchor="middle" dominant-baseline="middle" transform="matrix(0.008652243698415125 0 0 0.008652243698415125 -1.1010803215379 -1.0069067288213005)">4</text>
</svg>
