<?xml version="1.0" encoding="utf-8"?>
<svg version="1.1" xmlns="http://www.w3.org/2000/svg" viewBox="-2.173279522081441 -4.32798053698683 5.057884044162883 5.057884372081442" style="enable-background:new -2.173279522081441 -4.32798053698683 5.057884044162883 5.057884372081442;">
<style type="text/css">
  .face_stroke {fill:none; stroke:#000000; stroke-width:0.02; stroke-miterlimit:10;}
  .face_text {fill:#000000; font-family:monospace;}
  .edge_text {fill:#ff0000; font-family:monospace;}
  .edge_bg {fill:#f3f3f3; stroke:#606060; stroke-width:0.01;}
</style>
<polygon class="face_stroke" points="0.288675134594813,-0.5 -0.5773502691896258,-7.07050159149938e-17 0.288675134594813,0.5"/>
<polygon class="face_stroke" points="0.2886749999999999,0.5 1.288675,0.5000000000000001 1.2886750000000007,-0.49999999999999944 0.2886749999999997,-0.4999999999999998"/>
<polygon class="face_stroke" points="1.288674865405187,0.4999999999999999 2.1547002691896258,1.414100318299876e-16 1.2886748654051876,-0.5000000000000003"/>
<polygon class="face_stroke" points="2.1547007018922195,-2.981077805719323e-07 2.6547007018922195,-0.8660257018922193 1.7886752981077807,-1.3660257018922195 1.2886752981077807,-0.5000002981077809"/>
<polygon class="face_stroke" points="2.654700134594813,-0.866025 2.654700134594813,-1.866025 1.7886747308103743,-1.366025"/>
<polygon class="face_stroke" points="2.6547007018922195,-1.8660252981077805 2.1547007018922195,-2.732050701892219 1.2886752981077807,-2.2320507018922195 1.788675298107781,-1.3660252981077805"/>
<polygon class="face_stroke" points="2.1547002691896258,-2.732051 1.2886748654051872,-3.232051 1.288674865405187,-2.232051"/>
<polygon class="face_stroke" points="1.288675,-3.232051 0.288675,-3.232051 0.2886749999999999,-2.232051 1.288675,-2.232051"/>
<polygon class="face_stroke" points="0.288675134594813,-3.232051 -0.5773502691896258,-2.732051 0.288675134594813,-2.232051"/>
<polygon class="face_stroke" points="0.2886747018922194,-3.232051298107781 -0.2113252981077807,-4.09807670189222 -1.0773507018922193,-3.5980767018922197 -0.5773507018922193,-2.7320512981077805"/>
<polygon class="face_stroke" points="-1.0773502981077805,-3.5980767018922197 -1.943375701892219,-3.0980767018922197 -1.443375701892219,-2.2320512981077805 -0.5773502981077805,-2.732051298107781"/>
<polygon class="face_stroke" points="-1.4433757018922193,-2.2320507018922195 -0.9433757018922193,-1.3660252981077805 -0.0773502981077806,-1.8660252981077807 -0.5773502981077807,-2.732050701892219"/>
<polygon class="face_stroke" points="-0.9433751820100125,-1.3660258542188248 -0.7354634911922535,-0.38787825348501925 0.25905840417602005,-0.2833497902173656 0.6657950472518204,-1.1968952478599657 -0.07734977822557407,-1.8660258542188246"/>
<text class="face_text" text-anchor="middle" dominant-baseline="middle" transform="matrix(0.010115768088325766 0 0 0.010115768088325766 0.0 0.0)">0</text>
<text class="face_text" text-anchor="middle" dominant-baseline="middle" transform="matrix(0.010115768088325766 0 0 0.010115768088325766 0.788675 0.0)">4</text>
<text class="face_text" text-anchor="middle" dominant-baseline="middle" transform="matrix(0.010115768088325766 0 0 0.010115768088325766 1.57735 0.0)">6</text>
<text class="face_text" text-anchor="middle" dominant-baseline="middle" transform="matrix(0.010115768088325766 0 0 0.010115768088325766 1.971688 -0.683013)">8</text>
<text class="face_text" text-anchor="middle" dominant-baseline="middle" transform="matrix(0.010115768088325766 0 0 0.010115768088325766 2.366025 -1.366025)">10</text>
<text class="face_text" text-anchor="middle" dominant-baseline="middle" transform="matrix(0.010115768088325766 0 0 0.010115768088325766 1.971688 -2.049038)">12</text>
<text class="face_text" text-anchor="middle" dominant-baseline="middle" transform="matrix(0.010115768088325766 0 0 0.010115768088325766 1.57735 -2.732051)">14</text>
<text class="face_text" text-anchor="middle" dominant-baseline="middle" transform="matrix(0.010115768088325766 0 0 0.010115768088325766 0.788675 -2.732051)">16</text>
<text class="face_text" text-anchor="middle" dominant-baseline="middle" transform="matrix(0.010115768088325766 0 0 0.010115768088325766 0.0 -2.732051)">18</text>
<text class="face_text" text-anchor="middle" dominant-baseline="middle" transform="matrix(0.010115768088325766 0 0 0.010115768088325766 -0.394338 -3.415064)">19</text>
<text class="face_text" text-anchor="middle" dominant-baseline="middle" transform="matrix(0.010115768088325766 0 0 0.010115768088325766 -1.260363 -2.915064)">2</text>
<text class="face_text" text-anchor="middle" dominant-baseline="middle" transform="matrix(0.010115768088325766 0 0 0.010115768088325766 -0.760363 -2.049038)">1</text>
<text class="face_text" text-anchor="middle" dominant-baseline="middle" transform="matrix(0.010115768088325766 0 0 0.010115768088325766 -0.166267 -1.020035)">20</text>
<rect class="edge_bg" x="0.18751731911674224" y="-0.10115768088325772" width="0.20231536176651532" height="0.20231536176651532"/>
<text class="edge_text" text-anchor="middle" dominant-baseline="middle" transform="matrix(0.010115768088325766 0 0 0.010115768088325766 0.2886749999999999 -6.123233995736767e-17)">5</text>
<rect class="edge_bg" x="1.1875171845219292" y="-0.1011576808832577" width="0.20231536176651532" height="0.20231536176651532"/>
<text class="edge_text" text-anchor="middle" dominant-baseline="middle" transform="matrix(0.010115768088325766 0 0 0.010115768088325766 1.288674865405187 -3.535250795749691e-17)">8</text>
<rect class="edge_bg" x="1.6205303191167424" y="-0.3511579789910382" width="0.20231536176651532" height="0.20231536176651532"/>
<text class="edge_text" text-anchor="middle" dominant-baseline="middle" transform="matrix(0.010115768088325766 0 0 0.010115768088325766 1.721688 -0.2500002981077805)">11</text>
<rect class="edge_bg" x="2.120529751819336" y="-1.2171826808832578" width="0.20231536176651532" height="0.20231536176651532"/>
<text class="edge_text" text-anchor="middle" dominant-baseline="middle" transform="matrix(0.010115768088325766 0 0 0.010115768088325766 2.2216874327025935 -1.116025)">14</text>
<rect class="edge_bg" x="2.120530319116743" y="-1.7171829789910382" width="0.20231536176651532" height="0.20231536176651532"/>
<text class="edge_text" text-anchor="middle" dominant-baseline="middle" transform="matrix(0.010115768088325766 0 0 0.010115768088325766 2.2216880000000003 -1.6160252981077805)">17</text>
<rect class="edge_bg" x="1.6205298864141489" y="-2.5832086808832573" width="0.20231536176651532" height="0.20231536176651532"/>
<text class="edge_text" text-anchor="middle" dominant-baseline="middle" transform="matrix(0.010115768088325766 0 0 0.010115768088325766 1.7216875672974066 -2.482051)">20</text>
<rect class="edge_bg" x="1.1875173191167423" y="-2.8332086808832573" width="0.20231536176651532" height="0.20231536176651532"/>
<text class="edge_text" text-anchor="middle" dominant-baseline="middle" transform="matrix(0.010115768088325766 0 0 0.010115768088325766 1.288675 -2.732051)">23</text>
<rect class="edge_bg" x="0.18751745371155532" y="-2.8332086808832573" width="0.20231536176651532" height="0.20231536176651532"/>
<text class="edge_text" text-anchor="middle" dominant-baseline="middle" transform="matrix(0.010115768088325766 0 0 0.010115768088325766 0.288675134594813 -2.732051)">26</text>
<rect class="edge_bg" x="-0.24549568088325757" y="-3.083208978991038" width="0.20231536176651532" height="0.20231536176651532"/>
<text class="edge_text" text-anchor="middle" dominant-baseline="middle" transform="matrix(0.010115768088325766 0 0 0.010115768088325766 -0.1443379999999999 -2.9820512981077805)">25</text>
<rect class="edge_bg" x="-0.9285079789910382" y="-3.2662216808832576" width="0.20231536176651532" height="0.20231536176651532"/>
<text class="edge_text" text-anchor="middle" dominant-baseline="middle" transform="matrix(0.010115768088325766 0 0 0.010115768088325766 -0.8273502981077805 -3.165064)">29</text>
<rect class="edge_bg" x="-1.1115206808832576" y="-2.583208382775477" width="0.20231536176651532" height="0.20231536176651532"/>
<text class="edge_text" text-anchor="middle" dominant-baseline="middle" transform="matrix(0.010115768088325766 0 0 0.010115768088325766 -1.010363 -2.4820507018922195)">1</text>
<rect class="edge_bg" x="-0.611520161001051" y="-1.7171835351020823" width="0.20231536176651532" height="0.20231536176651532"/>
<text class="edge_text" text-anchor="middle" dominant-baseline="middle" transform="matrix(0.010115768088325766 0 0 0.010115768088325766 -0.5103624801177933 -1.6160258542188246)">31</text>
</svg>
