<?xml version="1.0" encoding="utf-8"?>
<svg version="1.1" xmlns="http://www.w3.org/2000/svg" viewBox="-2.004932473378472 -2.239628549614411 4.881520469331201 2.870087051977002" style="enable-background:new -2.004932473378472 -2.239628549614411 4.881520469331201 2.870087051977002;">
<style type="text/css">
  .face_stroke {fill:none; stroke:#000000; stroke-width:0.02; stroke-miterlimit:10;}
  .face_text {fill:#000000; font-family:monospace;}
  .edge_text {fill:#ff0000; font-family:monospace;}
  .edge_bg {fill:#f3f3f3; stroke:#606060; stroke-width:0.01;}
</style>
<polygon class="face_stroke" points="0.288675134594813,-0.5 -0.5773502691896258,-7.07050159149938e-17 0.288675134594813,0.5"/>
<polygon class="face_stroke" points="0.2886749999999999,0.5 1.288675,0.5000000000000001 1.2886750000000007,-0.49999999999999944 0.2886749999999997,-0.4999999999999998"/>
<polygon class="face_stroke" points="1.288674865405187,0.4999999999999999 2.1547002691896258,1.414100318299876e-16 1.2886748654051876,-0.5000000000000003"/>
<polygon class="face_stroke" points="2.1547007018922195,-2.981077805719323e-07 2.6547007018922195,-0.8660257018922193 1.7886752981077807,-1.3660257018922195 1.2886752981077807,-0.5000002981077809"/>
<polygon class="face_stroke" points="1.7886748542188244,-1.3660252217744258 1.1195442478599664,-2.10917004725182 0.20599879021736545,-1.7024334041760198 0.310527253485019,-0.7079115088077466 1.2886748542188249,-0.4999998179899874"/>
<polygon class="face_stroke" points="0.20599871605031,-1.7024331793179635 -0.7885231793179632,-1.5979047160503101 -0.6839947160503097,-0.6033828206820364 0.3105271793179632,-0.7079112839496898"/>
<polygon class="face_stroke" points="-0.78852328394969,-1.5979051793179635 -1.7830451793179631,-1.4933767160503102 -1.6785167160503096,-0.49885482068203646 -0.6839948206820368,-0.6033832839496899"/>
<polygon class="face_stroke" points="-1.6785161793179633,-0.4988547160503102 -1.5739877160503097,0.4956671793179636 -0.5794658206820369,0.3911387160503102 -0.6839942839496903,-0.6033831793179636"/>
<text class="face_text" text-anchor="middle" dominant-baseline="middle" transform="matrix(0.005740174103954004 0 0 0.005740174103954004 0.0 0.0)">0</text>
<text class="face_text" text-anchor="middle" dominant-baseline="middle" transform="matrix(0.005740174103954004 0 0 0.005740174103954004 0.788675 0.0)">4</text>
<text class="face_text" text-anchor="middle" dominant-baseline="middle" transform="matrix(0.005740174103954004 0 0 0.005740174103954004 1.57735 0.0)">6</text>
<text class="face_text" text-anchor="middle" dominant-baseline="middle" transform="matrix(0.005740174103954004 0 0 0.005740174103954004 1.971688 -0.683013)">8</text>
<text class="face_text" text-anchor="middle" dominant-baseline="middle" transform="matrix(0.005740174103954004 0 0 0.005740174103954004 0.942684 -1.277108)">20</text>
<text class="face_text" text-anchor="middle" dominant-baseline="middle" transform="matrix(0.005740174103954004 0 0 0.005740174103954004 -0.238998 -1.152908)">1</text>
<text class="face_text" text-anchor="middle" dominant-baseline="middle" transform="matrix(0.005740174103954004 0 0 0.005740174103954004 -1.23352 -1.04838)">2</text>
<text class="face_text" text-anchor="middle" dominant-baseline="middle" transform="matrix(0.005740174103954004 0 0 0.005740174103954004 -1.128991 -0.053858)">3</text>
<rect class="edge_bg" x="0.23127325896045986" y="-0.057401741039540106" width="0.11480348207908009" height="0.11480348207908009"/>
<text class="edge_text" text-anchor="middle" dominant-baseline="middle" transform="matrix(0.005740174103954004 0 0 0.005740174103954004 0.2886749999999999 -6.123233995736767e-17)">5</text>
<rect class="edge_bg" x="1.231273124365647" y="-0.05740174103954008" width="0.11480348207908009" height="0.11480348207908009"/>
<text class="edge_text" text-anchor="middle" dominant-baseline="middle" transform="matrix(0.005740174103954004 0 0 0.005740174103954004 1.288674865405187 -3.535250795749691e-17)">8</text>
<rect class="edge_bg" x="1.6642862589604601" y="-0.30740203914732056" width="0.11480348207908009" height="0.11480348207908009"/>
<text class="edge_text" text-anchor="middle" dominant-baseline="middle" transform="matrix(0.005740174103954004 0 0 0.005740174103954004 1.721688 -0.2500002981077805)">11</text>
<rect class="edge_bg" x="1.4812731131792847" y="-0.9904142609217466" width="0.11480348207908009" height="0.11480348207908009"/>
<text class="edge_text" text-anchor="middle" dominant-baseline="middle" transform="matrix(0.005740174103954004 0 0 0.005740174103954004 1.5386748542188247 -0.9330125198822066)">32</text>
<rect class="edge_bg" x="0.20086120664459672" y="-1.2625739726733667" width="0.11480348207908009" height="0.11480348207908009"/>
<text class="edge_text" text-anchor="middle" dominant-baseline="middle" transform="matrix(0.005740174103954004 0 0 0.005740174103954004 0.25826294768413677 -1.2051722316338267)">31</text>
<rect class="edge_bg" x="-0.7936607933554032" y="-1.1580459726733667" width="0.11480348207908009" height="0.11480348207908009"/>
<text class="edge_text" text-anchor="middle" dominant-baseline="middle" transform="matrix(0.005740174103954004 0 0 0.005740174103954004 -0.7362590523158632 -1.1006442316338267)">1</text>
<rect class="edge_bg" x="-1.2386569726733667" y="-0.6085206887236769" width="0.11480348207908009" height="0.11480348207908009"/>
<text class="edge_text" text-anchor="middle" dominant-baseline="middle" transform="matrix(0.005740174103954004 0 0 0.005740174103954004 -1.1812552316338267 -0.5511189476841368)">3</text>
</svg>
