<?xml version="1.0" encoding="utf-8"?>
<svg version="1.1" xmlns="http://www.w3.org/2000/svg" viewBox="-0.6861023823678545 -2.165783898769642 2.3925464899210307 2.792725989187244" style="enable-background:new -0.6861023823678545 -2.165783898769642 2.3925464899210307 2.792725989187244;">
<style type="text/css">
  .face_stroke {fill:none; stroke:#000000; stroke-width:0.02; stroke-miterlimit:10;}
  .face_text {fill:#000000; font-family:monospace;}
  .edge_text {fill:#ff0000; font-family:monospace;}
  .edge_bg {fill:#f3f3f3; stroke:#606060; stroke-width:0.01;}
</style>
<polygon class="face_stroke" points="0.288675134594813,-0.5 -0.5773502691896258,-7.07050159149938e-17 0.288675134594813,0.5"/>
<polygon class="face_stroke" points="0.2886749999999999,0.5 1.288675,0.5000000000000001 1.2886750000000007,-0.49999999999999944 0.2886749999999997,-0.4999999999999998"/>
<polygon class="face_stroke" points="1.288675,-0.5000000397644132 1.5976919943749475,-1.4510565560595667 0.788675,-2.03884180835204 -0.020341994374947325,-1.4510565560595667 0.2886749999999999,-0.5000000397644133"/>
<text class="face_text" text-anchor="middle" dominant-baseline="middle" transform="matrix(0.004785092979842061 0 0 0.004785092979842061 0.0 0.0)">0</text>
<text class="face_text" text-anchor="middle" dominant-baseline="middle" transform="matrix(0.004785092979842061 0 0 0.004785092979842061 0.788675 0.0)">4</text>
<text class="face_text" text-anchor="middle" dominant-baseline="middle" transform="matrix(0.004785092979842061 0 0 0.004785092979842061 0.788675 -1.188191)">20</text>
<rect class="edge_bg" x="0.24082407020157928" y="-0.04785092979842068" width="0.09570185959684123" height="0.09570185959684123"/>
<text class="edge_text" text-anchor="middle" dominant-baseline="middle" transform="matrix(0.004785092979842061 0 0 0.004785092979842061 0.2886749999999999 -6.123233995736767e-17)">5</text>
<rect class="edge_bg" x="0.7408240702015794" y="-0.5478509695628339" width="0.09570185959684123" height="0.09570185959684123"/>
<text class="edge_text" text-anchor="middle" dominant-baseline="middle" transform="matrix(0.004785092979842061 0 0 0.004785092979842061 0.788675 -0.5000000397644132)">30</text>
</svg>
