<?xml version="1.0" encoding="utf-8"?>
<svg version="1.1" xmlns="http://www.w3.org/2000/svg" viewBox="-1.1454919881741732 -3.015252079500396 2.873811791241936 3.6826450356670817" style="enable-background:new -1.1454919881741732 -3.015252079500396 2.873811791241936 3.6826450356670817;">
<style type="text/css">
  .face_stroke {fill:none; stroke:#000000; stroke-width:0.02; stroke-miterlimit:10;}
  .face_text {fill:#000000; font-family:monospace;}
  .edge_text {fill:#ff0000; font-family:monospace;}
  .edge_bg {fill:#f3f3f3; stroke:#606060; stroke-width:0.01;}
</style>
<polygon class="face_stroke" points="0.288675134594813,-0.5 -0.5773502691896258,-7.07050159149938e-17 0.288675134594813,0.5"/>
<polygon class="face_stroke" points="0.2886749999999999,0.5 1.288675,0.5000000000000001 1.2886750000000007,-0.49999999999999944 0.2886749999999997,-0.4999999999999998"/>
<polygon class="face_stroke" points="1.288675,-0.5000000397644132 1.5976919943749475,-1.4510565560595667 0.788675,-2.03884180835204 -0.020341994374947325,-1.4510565560595667 0.2886749999999999,-0.5000000397644133"/>
<polygon class="face_stroke" points="0.7886751233337104,-2.038842128958763 0.20088987104123718,-2.8478591233337105 -0.6081271233337103,-2.260073871041237 -0.020341871041237275,-1.4510568766662897"/>
<polygon class="face_stroke" points="-0.6081275364055576,-2.2600734840058494 -1.014864179481358,-1.3465280263632486 -0.020342284113084474,-1.451056489630902"/>
<polygon class="face_stroke" points="-1.0148641793179634,-1.3465277160503102 -0.9103357160503096,-0.35200582068203634 0.08418617931796318,-0.45653428394968976 -0.020342283949690232,-1.4510561793179635"/>
<text class="face_text" text-anchor="middle" dominant-baseline="middle" transform="matrix(0.005747623582483872 0 0 0.005747623582483872 0.0 0.0)">0</text>
<text class="face_text" text-anchor="middle" dominant-baseline="middle" transform="matrix(0.005747623582483872 0 0 0.005747623582483872 0.788675 0.0)">4</text>
<text class="face_text" text-anchor="middle" dominant-baseline="middle" transform="matrix(0.005747623582483872 0 0 0.005747623582483872 0.788675 -1.188191)">20</text>
<text class="face_text" text-anchor="middle" dominant-baseline="middle" transform="matrix(0.005747623582483872 0 0 0.005747623582483872 0.090274 -2.149458)">16</text>
<text class="face_text" text-anchor="middle" dominant-baseline="middle" transform="matrix(0.005747623582483872 0 0 0.005747623582483872 -0.547778 -1.685886)">18</text>
<text class="face_text" text-anchor="middle" dominant-baseline="middle" transform="matrix(0.005747623582483872 0 0 0.005747623582483872 -0.465339 -0.901531)">1</text>
<rect class="edge_bg" x="0.2311987641751612" y="-0.05747623582483878" width="0.11495247164967744" height="0.11495247164967744"/>
<text class="edge_text" text-anchor="middle" dominant-baseline="middle" transform="matrix(0.005747623582483872 0 0 0.005747623582483872 0.2886749999999999 -6.123233995736767e-17)">5</text>
<rect class="edge_bg" x="0.7311987641751613" y="-0.557476275589252" width="0.11495247164967744" height="0.11495247164967744"/>
<text class="edge_text" text-anchor="middle" dominant-baseline="middle" transform="matrix(0.005747623582483872 0 0 0.005747623582483872 0.788675 -0.5000000397644132)">30</text>
<rect class="edge_bg" x="0.3266903903213979" y="-1.802425738637365" width="0.11495247164967744" height="0.11495247164967744"/>
<text class="edge_text" text-anchor="middle" dominant-baseline="middle" transform="matrix(0.005747623582483872 0 0 0.005747623582483872 0.38416662614623664 -1.7449495028125264)">34</text>
<rect class="edge_bg" x="-0.3717111460841597" y="-1.9130412226432143" width="0.11495247164967744" height="0.11495247164967744"/>
<text class="edge_text" text-anchor="middle" dominant-baseline="middle" transform="matrix(0.005747623582483872 0 0 0.005747623582483872 -0.314234910259321 -1.8555649868183757)">26</text>
<rect class="edge_bg" x="-0.5750794674586654" y="-1.4562681835089755" width="0.11495247164967744" height="0.11495247164967744"/>
<text class="edge_text" text-anchor="middle" dominant-baseline="middle" transform="matrix(0.005747623582483872 0 0 0.005747623582483872 -0.5176032316338267 -1.3987919476841368)">28</text>
</svg>
