<?xml version="1.0" encoding="utf-8"?>
<svg version="1.1" xmlns="http://www.w3.org/2000/svg" viewBox="-1.0998532928205504 -2.165783898769642 2.8259998246809976 2.792725989187244" style="enable-background:new -1.0998532928205504 -2.165783898769642 2.8259998246809976 2.792725989187244;">
<style type="text/css">
  .face_stroke {fill:none; stroke:#000000; stroke-width:0.02; stroke-miterlimit:10;}
  .face_text {fill:#000000; font-family:monospace;}
  .edge_text {fill:#ff0000; font-family:monospace;}
  .edge_bg {fill:#f3f3f3; stroke:#606060; stroke-width:0.01;}
</style>
<polygon class="face_stroke" points="0.288675134594813,-0.5 -0.5773502691896258,-7.07050159149938e-17 0.288675134594813,0.5"/>
<polygon class="face_stroke" points="0.2886749999999999,0.5 1.288675,0.5000000000000001 1.2886750000000007,-0.49999999999999944 0.2886749999999997,-0.4999999999999998"/>
<polygon class="face_stroke" points="1.288675,-0.5000000397644132 1.5976919943749475,-1.4510565560595667 0.788675,-2.03884180835204 -0.020341994374947325,-1.4510565560595667 0.2886749999999999,-0.5000000397644133"/>
<polygon class="face_stroke" points="-0.020342239039896848,-1.4510567553350504 -0.9713987553350505,-1.1420397609601032 -0.6623817609601033,-0.19098324466494954 0.28867475533505044,-0.5000002390398968"/>
<text class="face_text" text-anchor="middle" dominant-baseline="middle" transform="matrix(0.005585451978374488 0 0 0.005585451978374488 0.0 0.0)">0</text>
<text class="face_text" text-anchor="middle" dominant-baseline="middle" transform="matrix(0.005585451978374488 0 0 0.005585451978374488 0.788675 0.0)">4</text>
<text class="face_text" text-anchor="middle" dominant-baseline="middle" transform="matrix(0.005585451978374488 0 0 0.005585451978374488 0.788675 -1.188191)">20</text>
<text class="face_text" text-anchor="middle" dominant-baseline="middle" transform="matrix(0.005585451978374488 0 0 0.005585451978374488 -0.341362 -0.82102)">1</text>
<rect class="edge_bg" x="0.232820480216255" y="-0.05585451978374494" width="0.11170903956748976" height="0.11170903956748976"/>
<text class="edge_text" text-anchor="middle" dominant-baseline="middle" transform="matrix(0.005585451978374488 0 0 0.005585451978374488 0.2886749999999999 -6.123233995736767e-17)">5</text>
<rect class="edge_bg" x="0.7328204802162551" y="-0.5558545595481581" width="0.11170903956748976" height="0.11170903956748976"/>
<text class="edge_text" text-anchor="middle" dominant-baseline="middle" transform="matrix(0.005585451978374488 0 0 0.005585451978374488 0.788675 -0.5000000397644132)">30</text>
<rect class="edge_bg" x="0.078311738363832" y="-1.0313830169712186" width="0.11170903956748976" height="0.11170903956748976"/>
<text class="edge_text" text-anchor="middle" dominant-baseline="middle" transform="matrix(0.005585451978374488 0 0 0.005585451978374488 0.13416625814757688 -0.9755284971874737)">31</text>
</svg>
