<?xml version="1.0" encoding="utf-8"?>
<svg version="1.1" xmlns="http://www.w3.org/2000/svg" viewBox="-2.0984620928205504 -2.1942384365363945 3.8721614246809977 3.4187258200557995" style="enable-background:new -2.0984620928205504 -2.1942384365363945 3.8721614246809977 3.4187258200557995;">
<style type="text/css">
  .face_stroke {fill:none; stroke:#000000; stroke-width:0.02; stroke-miterlimit:10;}
  .face_text {fill:#000000; font-family:monospace;}
  .edge_text {fill:#ff0000; font-family:monospace;}
  .edge_bg {fill:#f3f3f3; stroke:#606060; stroke-width:0.01;}
</style>
<polygon class="face_stroke" points="0.288675134594813,-0.5 -0.5773502691896258,-7.07050159149938e-17 0.288675134594813,0.5"/>
<polygon class="face_stroke" points="0.2886749999999999,0.5 1.288675,0.5000000000000001 1.2886750000000007,-0.49999999999999944 0.2886749999999997,-0.4999999999999998"/>
<polygon class="face_stroke" points="1.288675,-0.5000000397644132 1.5976919943749475,-1.4510565560595667 0.788675,-2.03884180835204 -0.020341994374947325,-1.4510565560595667 0.2886749999999999,-0.5000000397644133"/>
<polygon class="face_stroke" points="-0.020342239039896848,-1.4510567553350504 -0.9713987553350505,-1.1420397609601032 -0.6623817609601033,-0.19098324466494954 0.28867475533505044,-0.5000002390398968"/>
<polygon class="face_stroke" points="-0.971398239039897,-1.1420397553350505 -1.9224547553350506,-0.8330227609601031 -1.6134377609601032,0.11803375533505045 -0.6623812446649496,-0.19098323903989678"/>
<polygon class="face_stroke" points="-1.6134377553350503,0.11803423903989685 -1.3044207609601033,1.0690907553350504 -0.35336424466494953,0.7600737609601032 -0.6623812390398967,-0.19098275533505044"/>
<text class="face_text" text-anchor="middle" dominant-baseline="middle" transform="matrix(0.006837451640111599 0 0 0.006837451640111599 0.0 0.0)">0</text>
<text class="face_text" text-anchor="middle" dominant-baseline="middle" transform="matrix(0.006837451640111599 0 0 0.006837451640111599 0.788675 0.0)">4</text>
<text class="face_text" text-anchor="middle" dominant-baseline="middle" transform="matrix(0.006837451640111599 0 0 0.006837451640111599 0.788675 -1.188191)">20</text>
<text class="face_text" text-anchor="middle" dominant-baseline="middle" transform="matrix(0.006837451640111599 0 0 0.006837451640111599 -0.341362 -0.82102)">1</text>
<text class="face_text" text-anchor="middle" dominant-baseline="middle" transform="matrix(0.006837451640111599 0 0 0.006837451640111599 -1.292418 -0.512003)">2</text>
<text class="face_text" text-anchor="middle" dominant-baseline="middle" transform="matrix(0.006837451640111599 0 0 0.006837451640111599 -0.983401 0.439054)">3</text>
<rect class="edge_bg" x="0.2203004835988839" y="-0.06837451640111605" width="0.136749032802232" height="0.136749032802232"/>
<text class="edge_text" text-anchor="middle" dominant-baseline="middle" transform="matrix(0.006837451640111599 0 0 0.006837451640111599 0.2886749999999999 -6.123233995736767e-17)">5</text>
<rect class="edge_bg" x="0.720300483598884" y="-0.5683745561655292" width="0.136749032802232" height="0.136749032802232"/>
<text class="edge_text" text-anchor="middle" dominant-baseline="middle" transform="matrix(0.006837451640111599 0 0 0.006837451640111599 0.788675 -0.5000000397644132)">30</text>
<rect class="edge_bg" x="0.06579174174646088" y="-1.0439030135885896" width="0.136749032802232" height="0.136749032802232"/>
<text class="edge_text" text-anchor="middle" dominant-baseline="middle" transform="matrix(0.006837451640111599 0 0 0.006837451640111599 0.13416625814757688 -0.9755284971874737)">31</text>
<rect class="edge_bg" x="-0.8852642582535393" y="-0.7348860135885897" width="0.136749032802232" height="0.136749032802232"/>
<text class="edge_text" text-anchor="middle" dominant-baseline="middle" transform="matrix(0.006837451640111599 0 0 0.006837451640111599 -0.8168897418524232 -0.6665114971874737)">1</text>
<rect class="edge_bg" x="-1.2062840135885897" y="-0.10484877454869293" width="0.136749032802232" height="0.136749032802232"/>
<text class="edge_text" text-anchor="middle" dominant-baseline="middle" transform="matrix(0.006837451640111599 0 0 0.006837451640111599 -1.1379094971874737 -0.03647425814757693)">3</text>
</svg>
