<?xml version="1.0" encoding="utf-8"?>
<svg version="1.1" xmlns="http://www.w3.org/2000/svg" viewBox="-0.6183012850946111 -0.6183012850946114 2.6026282720814415 2.602628272081442" style="enable-background:new -0.6183012850946111 -0.6183012850946114 2.6026282720814415 2.602628272081442;">
<style type="text/css">
  .face_stroke {fill:none; stroke:#000000; stroke-width:0.02; stroke-miterlimit:10;}
  .face_text {fill:#000000; font-family:monospace;}
  .edge_text {fill:#ff0000; font-family:monospace;}
  .edge_bg {fill:#f3f3f3; stroke:#606060; stroke-width:0.01;}
</style>
<polygon class="face_stroke" points="0.5000000000000001,-0.5 -0.5,-0.5000000000000001 -0.5000000000000001,0.5 0.4999999999999999,0.5000000000000001"/>
<polygon class="face_stroke" points="0.4999998654051868,0.4999999999999999 1.3660252691896257,1.414100318299876e-16 0.49999986540518754,-0.5000000000000003"/>
<polygon class="face_stroke" points="0.5000002981077808,0.5000002981077805 1.000000298107781,1.3660257018922195 1.8660257018922195,0.8660257018922193 1.3660257018922195,2.981077805719323e-07"/>
<polygon class="face_stroke" points="0.4999997018922193,0.5000002981077807 -0.3660257018922193,1.0000002981077807 0.13397429810778078,1.8660257018922195 0.9999997018922194,1.3660257018922193"/>
<text class="face_text" text-anchor="middle" dominant-baseline="middle" transform="matrix(0.005205256544162883 0 0 0.005205256544162883 0.0 0.0)">1</text>
<text class="face_text" text-anchor="middle" dominant-baseline="middle" transform="matrix(0.005205256544162883 0 0 0.005205256544162883 0.788675 0.0)">0</text>
<text class="face_text" text-anchor="middle" dominant-baseline="middle" transform="matrix(0.005205256544162883 0 0 0.005205256544162883 1.183013 0.683013)">3</text>
<text class="face_text" text-anchor="middle" dominant-baseline="middle" transform="matrix(0.005205256544162883 0 0 0.005205256544162883 0.316987 1.183013)">2</text>
<rect class="edge_bg" x="0.4479472999635582" y="-0.05205256544162887" width="0.10410513088325767" height="0.10410513088325767"/>
<text class="edge_text" text-anchor="middle" dominant-baseline="middle" transform="matrix(0.005205256544162883 0 0 0.005205256544162883 0.49999986540518704 -3.535250795749691e-17)">2</text>
<rect class="edge_bg" x="0.8809604345583713" y="0.19794773266615168" width="0.10410513088325767" height="0.10410513088325767"/>
<text class="edge_text" text-anchor="middle" dominant-baseline="middle" transform="matrix(0.005205256544162883 0 0 0.005205256544162883 0.9330130000000001 0.2500002981077805)">0</text>
<rect class="edge_bg" x="0.6979471364505907" y="0.8809604345583713" width="0.10410513088325767" height="0.10410513088325767"/>
<text class="edge_text" text-anchor="middle" dominant-baseline="middle" transform="matrix(0.005205256544162883 0 0 0.005205256544162883 0.7499997018922195 0.9330130000000001)">3</text>
</svg>
