<?xml version="1.0" encoding="utf-8"?>
<svg version="1.1" xmlns="http://www.w3.org/2000/svg" viewBox="-0.9427691291883057 -3.4186535499999997 2.9425469658938836 4.1052561" style="enable-background:new -0.9427691291883057 -3.4186535499999997 2.9425469658938836 4.1052561;">
<style type="text/css">
  .face_stroke {fill:none; stroke:#000000; stroke-width:0.02; stroke-miterlimit:10;}
  .face_text {fill:#000000; font-family:monospace;}
  .edge_text {fill:#ff0000; font-family:monospace;}
  .edge_bg {fill:#f3f3f3; stroke:#606060; stroke-width:0.01;}
</style>
<polygon class="face_stroke" points="0.5000000000000001,-0.5 -0.5,-0.5000000000000001 -0.5000000000000001,0.5 0.4999999999999999,0.5000000000000001"/>
<polygon class="face_stroke" points="0.4999998654051868,0.4999999999999999 1.3660252691896257,1.414100318299876e-16 0.49999986540518754,-0.5000000000000003"/>
<polygon class="face_stroke" points="1.3660257018922195,-2.981077805719323e-07 1.8660257018922195,-0.8660257018922193 1.0000002981077807,-1.3660257018922195 0.5000002981077806,-0.5000002981077809"/>
<polygon class="face_stroke" points="1.8660251345948131,-0.866025 1.8660251345948131,-1.866025 0.9999997308103742,-1.366025"/>
<polygon class="face_stroke" points="1.8660257018922195,-1.8660252981077805 1.3660257018922195,-2.732050701892219 0.5000002981077808,-2.2320507018922195 1.000000298107781,-1.3660252981077805"/>
<polygon class="face_stroke" points="1.3660252691896257,-2.732051 0.4999998654051872,-3.232051 0.4999998654051868,-2.232051"/>
<polygon class="face_stroke" points="0.5000000000000001,-3.232051 -0.5,-3.232051 -0.5000000000000001,-2.232051 0.4999999999999999,-2.232051"/>
<polygon class="face_stroke" points="-0.4999999999999999,-2.2320509602355867 -0.8090169943749473,-1.280994443940433 -1.562620184460651e-16,-0.6932091916479601 0.8090169943749473,-1.280994443940433 0.5000000000000008,-2.2320509602355862"/>
<text class="face_text" text-anchor="middle" dominant-baseline="middle" transform="matrix(0.005885093931787768 0 0 0.005885093931787768 0.0 0.0)">1</text>
<text class="face_text" text-anchor="middle" dominant-baseline="middle" transform="matrix(0.005885093931787768 0 0 0.005885093931787768 0.788675 0.0)">0</text>
<text class="face_text" text-anchor="middle" dominant-baseline="middle" transform="matrix(0.005885093931787768 0 0 0.005885093931787768 1.183013 -0.683013)">4</text>
<text class="face_text" text-anchor="middle" dominant-baseline="middle" transform="matrix(0.005885093931787768 0 0 0.005885093931787768 1.57735 -1.366025)">6</text>
<text class="face_text" text-anchor="middle" dominant-baseline="middle" transform="matrix(0.005885093931787768 0 0 0.005885093931787768 1.183013 -2.049038)">8</text>
<text class="face_text" text-anchor="middle" dominant-baseline="middle" transform="matrix(0.005885093931787768 0 0 0.005885093931787768 0.788675 -2.732051)">10</text>
<text class="face_text" text-anchor="middle" dominant-baseline="middle" transform="matrix(0.005885093931787768 0 0 0.005885093931787768 0.0 -2.732051)">12</text>
<text class="face_text" text-anchor="middle" dominant-baseline="middle" transform="matrix(0.005885093931787768 0 0 0.005885093931787768 0.0 -1.54386)">20</text>
<rect class="edge_bg" x="0.4411489260873094" y="-0.05885093931787771" width="0.11770187863575535" height="0.11770187863575535"/>
<text class="edge_text" text-anchor="middle" dominant-baseline="middle" transform="matrix(0.005885093931787768 0 0 0.005885093931787768 0.49999986540518704 -3.535250795749691e-17)">2</text>
<rect class="edge_bg" x="0.8741620606821224" y="-0.3088512374256582" width="0.11770187863575535" height="0.11770187863575535"/>
<text class="edge_text" text-anchor="middle" dominant-baseline="middle" transform="matrix(0.005885093931787768 0 0 0.005885093931787768 0.9330130000000001 -0.2500002981077805)">5</text>
<rect class="edge_bg" x="1.3741614933847157" y="-1.1748759393178778" width="0.11770187863575535" height="0.11770187863575535"/>
<text class="edge_text" text-anchor="middle" dominant-baseline="middle" transform="matrix(0.005885093931787768 0 0 0.005885093931787768 1.4330124327025935 -1.116025)">8</text>
<rect class="edge_bg" x="1.3741620606821225" y="-1.6748762374256583" width="0.11770187863575535" height="0.11770187863575535"/>
<text class="edge_text" text-anchor="middle" dominant-baseline="middle" transform="matrix(0.005885093931787768 0 0 0.005885093931787768 1.4330130000000003 -1.6160252981077805)">11</text>
<rect class="edge_bg" x="0.8741616279795289" y="-2.5409019393178776" width="0.11770187863575535" height="0.11770187863575535"/>
<text class="edge_text" text-anchor="middle" dominant-baseline="middle" transform="matrix(0.005885093931787768 0 0 0.005885093931787768 0.9330125672974066 -2.482051)">14</text>
<rect class="edge_bg" x="0.44114906068212245" y="-2.7909019393178776" width="0.11770187863575535" height="0.11770187863575535"/>
<text class="edge_text" text-anchor="middle" dominant-baseline="middle" transform="matrix(0.005885093931787768 0 0 0.005885093931787768 0.5000000000000001 -2.732051)">17</text>
<rect class="edge_bg" x="-0.05885093931787763" y="-2.2909018995534645" width="0.11770187863575535" height="0.11770187863575535"/>
<text class="edge_text" text-anchor="middle" dominant-baseline="middle" transform="matrix(0.005885093931787768 0 0 0.005885093931787768 4.2139542832732737e-17 -2.2320509602355867)">33</text>
</svg>
