<?xml version="1.0" encoding="utf-8"?>
<svg version="1.1" xmlns="http://www.w3.org/2000/svg" viewBox="-2.0868859421316346 -0.955477179889601 4.322190976697183 3.222124081322381" style="enable-background:new -2.0868859421316346 -0.955477179889601 4.322190976697183 3.222124081322381;">
<style type="text/css">
  .face_stroke {fill:none; stroke:#000000; stroke-width:0.02; stroke-miterlimit:10;}
  .face_text {fill:#000000; font-family:monospace;}
  .edge_text {fill:#ff0000; font-family:monospace;}
  .edge_bg {fill:#f3f3f3; stroke:#606060; stroke-width:0.01;}
</style>
<polygon class="face_stroke" points="0.5000000000000001,-0.5 -0.5,-0.5000000000000001 -0.5000000000000001,0.5 0.4999999999999999,0.5000000000000001"/>
<polygon class="face_stroke" points="0.5000000397644132,0.4999999999999999 1.4510565560595667,0.8090169943749475 2.03884180835204,2.0834935792808685e-16 1.451056556059567,-0.8090169943749473 0.5000000397644134,-0.5000000000000001"/>
<polygon class="face_stroke" points="0.500000239039897,0.5000002446649494 0.1909832446649492,1.4510567609601026 1.142039760960103,1.7600737553350505 1.4510567553350504,0.8090172390398964"/>
<polygon class="face_stroke" points="0.49999986503625105,0.5000002642956956 -0.4781477356975547,0.707911955113455 0.19098287066130315,1.4510567805908494"/>
<polygon class="face_stroke" points="-0.4781478904407319,0.7079112840818736 -1.2212927159181262,1.377041890440732 -0.5521621095592684,2.120186715918126 0.1909827159181262,1.4510561095592682"/>
<polygon class="face_stroke" points="-0.4781472840818738,0.707912109559268 -1.147277890440732,-0.03523271591812627 -1.8904227159181262,0.633897890440732 -1.2212921095592684,1.3770427159181262"/>
<text class="face_text" text-anchor="middle" dominant-baseline="middle" transform="matrix(0.006444248162644762 0 0 0.006444248162644762 0.0 0.0)">1</text>
<text class="face_text" text-anchor="middle" dominant-baseline="middle" transform="matrix(0.006444248162644762 0 0 0.006444248162644762 1.188191 0.0)">20</text>
<text class="face_text" text-anchor="middle" dominant-baseline="middle" transform="matrix(0.006444248162644762 0 0 0.006444248162644762 0.82102 1.130037)">4</text>
<text class="face_text" text-anchor="middle" dominant-baseline="middle" transform="matrix(0.006444248162644762 0 0 0.006444248162644762 0.070945 0.886323)">0</text>
<text class="face_text" text-anchor="middle" dominant-baseline="middle" transform="matrix(0.006444248162644762 0 0 0.006444248162644762 -0.515155 1.414049)">3</text>
<text class="face_text" text-anchor="middle" dominant-baseline="middle" transform="matrix(0.006444248162644762 0 0 0.006444248162644762 -1.184285 0.670905)">2</text>
<rect class="edge_bg" x="0.4355575581379656" y="-0.0644424816264477" width="0.12888496325289522" height="0.12888496325289522"/>
<text class="edge_text" text-anchor="middle" dominant-baseline="middle" transform="matrix(0.006444248162644762 0 0 0.006444248162644762 0.5000000397644132 -8.427908566546547e-17)">31</text>
<rect class="edge_bg" x="0.9110860155610261" y="0.5900662602259755" width="0.12888496325289522" height="0.12888496325289522"/>
<text class="edge_text" text-anchor="middle" dominant-baseline="middle" transform="matrix(0.006444248162644762 0 0 0.006444248162644762 0.9755284971874737 0.6545087418524231)">30</text>
<rect class="edge_bg" x="0.28104888622232976" y="0.9110860408168249" width="0.12888496325289522" height="0.12888496325289522"/>
<text class="edge_text" text-anchor="middle" dominant-baseline="middle" transform="matrix(0.006444248162644762 0 0 0.006444248162644762 0.3454913678487774 0.9755285224432725)">5</text>
<rect class="edge_bg" x="-0.20802506888775046" y="1.015041215194123" width="0.12888496325289522" height="0.12888496325289522"/>
<text class="edge_text" text-anchor="middle" dominant-baseline="middle" transform="matrix(0.006444248162644762 0 0 0.006444248162644762 -0.14358258726130285 1.0794836968205708)">0</text>
<rect class="edge_bg" x="-0.9141621784470185" y="0.9780349311122495" width="0.12888496325289522" height="0.12888496325289522"/>
<text class="edge_text" text-anchor="middle" dominant-baseline="middle" transform="matrix(0.006444248162644762 0 0 0.006444248162644762 -0.8497196968205709 1.042477412738697)">3</text>
</svg>
