<?xml version="1.0" encoding="utf-8"?>
<svg version="1.1" xmlns="http://www.w3.org/2000/svg" viewBox="-2.5482099528771607 -1.8520740733784729 4.2409818553951215 4.4189616693312015" style="enable-background:new -2.5482099528771607 -1.8520740733784729 4.2409818553951215 4.4189616693312015;">
<style type="text/css">
  .face_stroke {fill:none; stroke:#000000; stroke-width:0.02; stroke-miterlimit:10;}
  .face_text {fill:#000000; font-family:monospace;}
  .edge_text {fill:#ff0000; font-family:monospace;}
  .edge_bg {fill:#f3f3f3; stroke:#606060; stroke-width:0.01;}
</style>
<polygon class="face_stroke" points="0.5000000000000001,-0.5 -0.5,-0.5000000000000001 -0.5000000000000001,0.5 0.4999999999999999,0.5000000000000001"/>
<polygon class="face_stroke" points="0.4999999999999999,0.5 1.5,0.5000000000000001 1.5000000000000007,-0.49999999999999944 0.49999999999999967,-0.4999999999999998"/>
<polygon class="face_stroke" points="0.5,0.4999999999999999 0.4999999999999999,1.5 1.5,1.5 1.5000000000000007,0.5000000000000006"/>
<polygon class="face_stroke" points="0.500000134594813,0.5 -0.36602526918962586,0.9999999999999999 0.500000134594813,1.5"/>
<polygon class="face_stroke" points="-0.3660257018922194,1.0000002981077807 -0.8660257018922195,1.866025701892219 -2.9810778040539887e-07,2.3660257018922195 0.49999970189221954,1.5000002981077811"/>
<polygon class="face_stroke" points="-0.3660251457811755,0.999999778225574 -1.0351557521400334,0.2568549527481798 -1.9487012097826346,0.66359159582398 -1.8441727465149809,1.6581134911922533 -0.8660251457811752,1.8660251820100124"/>
<polygon class="face_stroke" points="-1.0351559496407994,0.25685540728340034 -1.4418925927165995,-0.6566900503592006 -2.3554380503592007,-0.2499534072834003 -1.9487014072834008,0.6635920503592004"/>
<polygon class="face_stroke" points="-1.0351555364055576,0.2568554840058495 -0.44737028411308444,-0.552161510369098 -1.441892179481358,-0.6566899736367515"/>
<polygon class="face_stroke" points="-0.44737028394969003,-0.5521618206820367 -0.3428418206820366,-1.54668371605031 -1.3373637160503098,-1.6512121793179637 -1.4418921793179633,-0.65669028394969"/>
<text class="face_text" text-anchor="middle" dominant-baseline="middle" transform="matrix(0.008481963710790243 0 0 0.008481963710790243 0.0 0.0)">1</text>
<text class="face_text" text-anchor="middle" dominant-baseline="middle" transform="matrix(0.008481963710790243 0 0 0.008481963710790243 1.0 0.0)">2</text>
<text class="face_text" text-anchor="middle" dominant-baseline="middle" transform="matrix(0.008481963710790243 0 0 0.008481963710790243 1.0 1.0)">19</text>
<text class="face_text" text-anchor="middle" dominant-baseline="middle" transform="matrix(0.008481963710790243 0 0 0.008481963710790243 0.211325 1.0)">18</text>
<text class="face_text" text-anchor="middle" dominant-baseline="middle" transform="matrix(0.008481963710790243 0 0 0.008481963710790243 -0.183013 1.683013)">16</text>
<text class="face_text" text-anchor="middle" dominant-baseline="middle" transform="matrix(0.008481963710790243 0 0 0.008481963710790243 -1.212016 1.088917)">20</text>
<text class="face_text" text-anchor="middle" dominant-baseline="middle" transform="matrix(0.008481963710790243 0 0 0.008481963710790243 -1.695297 0.003451)">4</text>
<text class="face_text" text-anchor="middle" dominant-baseline="middle" transform="matrix(0.008481963710790243 0 0 0.008481963710790243 -0.974806 -0.317332)">0</text>
<text class="face_text" text-anchor="middle" dominant-baseline="middle" transform="matrix(0.008481963710790243 0 0 0.008481963710790243 -0.892367 -1.101687)">3</text>
<rect class="edge_bg" x="0.4151803628920975" y="-0.08481963710790248" width="0.16963927421580485" height="0.16963927421580485"/>
<text class="edge_text" text-anchor="middle" dominant-baseline="middle" transform="matrix(0.008481963710790243 0 0 0.008481963710790243 0.4999999999999999 -6.123233995736767e-17)">1</text>
<rect class="edge_bg" x="0.9151803628920976" y="0.4151803628920975" width="0.16963927421580485" height="0.16963927421580485"/>
<text class="edge_text" text-anchor="middle" dominant-baseline="middle" transform="matrix(0.008481963710790243 0 0 0.008481963710790243 1.0 0.4999999999999999)">29</text>
<rect class="edge_bg" x="0.41518049748691055" y="0.9151803628920976" width="0.16963927421580485" height="0.16963927421580485"/>
<text class="edge_text" text-anchor="middle" dominant-baseline="middle" transform="matrix(0.008481963710790243 0 0 0.008481963710790243 0.500000134594813 1.0)">25</text>
<rect class="edge_bg" x="-0.017832637107902324" y="1.1651806609998783" width="0.16963927421580485" height="0.16963927421580485"/>
<text class="edge_text" text-anchor="middle" dominant-baseline="middle" transform="matrix(0.008481963710790243 0 0 0.008481963710790243 0.0669870000000001 1.2500002981077807)">26</text>
<rect class="edge_bg" x="-0.7008447828890777" y="1.3481928430098908" width="0.16963927421580485" height="0.16963927421580485"/>
<text class="edge_text" text-anchor="middle" dominant-baseline="middle" transform="matrix(0.008481963710790243 0 0 0.008481963710790243 -0.6160251457811753 1.4330124801177933)">34</text>
<rect class="edge_bg" x="-1.5767483155700024" y="0.3754040917133981" width="0.16963927421580485" height="0.16963927421580485"/>
<text class="edge_text" text-anchor="middle" dominant-baseline="middle" transform="matrix(0.008481963710790243 0 0 0.008481963710790243 -1.4919286784621 0.4602237288213005)">30</text>
<rect class="edge_bg" x="-1.3233434950513603" y="-0.28473688192335334" width="0.16963927421580485" height="0.16963927421580485"/>
<text class="edge_text" text-anchor="middle" dominant-baseline="middle" transform="matrix(0.008481963710790243 0 0 0.008481963710790243 -1.2385238579434579 -0.19991724481545092)">5</text>
<rect class="edge_bg" x="-1.0294508687417292" y="-0.6892456894237657" width="0.16963927421580485" height="0.16963927421580485"/>
<text class="edge_text" text-anchor="middle" dominant-baseline="middle" transform="matrix(0.008481963710790243 0 0 0.008481963710790243 -0.9446312316338267 -0.6044260523158633)">0</text>
</svg>
