<?xml version="1.0" encoding="utf-8"?>
<svg version="1.1" xmlns="http://www.w3.org/2000/svg" viewBox="-0.7798373876248844 -3.781567957017008 3.5596747752497686 4.48545214544639" style="enable-background:new -0.7798373876248844 -3.781567957017008 3.5596747752497686 4.48545214544639;">
<style type="text/css">
  .face_stroke {fill:none; stroke:#000000; stroke-width:0.02; stroke-miterlimit:10;}
  .face_text {fill:#000000; font-family:monospace;}
  .edge_text {fill:#ff0000; font-family:monospace;}
  .edge_bg {fill:#f3f3f3; stroke:#606060; stroke-width:0.01;}
</style>
<polygon class="face_stroke" points="0.5000000000000001,-0.5 -0.5,-0.5000000000000001 -0.5000000000000001,0.5 0.4999999999999999,0.5000000000000001"/>
<polygon class="face_stroke" points="0.4999999999999999,0.5 1.5,0.5000000000000001 1.5000000000000007,-0.49999999999999944 0.49999999999999967,-0.4999999999999998"/>
<polygon class="face_stroke" points="1.5,-0.500000231412373 2.3090169943749475,-1.0877854837048462 2.618033988749895,-2.038842 2.3090169943749475,-2.9898985162951535 1.5,-3.577683768587627 0.5000000000000001,-3.577683768587627 -0.30901699437494723,-2.9898985162951535 -0.6180339887498949,-2.038842 -0.30901699437494745,-1.0877854837048464 0.4999999999999998,-0.500000231412373"/>
<text class="face_text" text-anchor="middle" dominant-baseline="middle" transform="matrix(0.007119349550499537 0 0 0.007119349550499537 0.0 0.0)">2</text>
<text class="face_text" text-anchor="middle" dominant-baseline="middle" transform="matrix(0.007119349550499537 0 0 0.007119349550499537 1.0 0.0)">19</text>
<text class="face_text" text-anchor="middle" dominant-baseline="middle" transform="matrix(0.007119349550499537 0 0 0.007119349550499537 1.0 -2.038842)">21</text>
<rect class="edge_bg" x="0.4288065044950045" y="-0.07119349550499543" width="0.14238699100999075" height="0.14238699100999075"/>
<text class="edge_text" text-anchor="middle" dominant-baseline="middle" transform="matrix(0.007119349550499537 0 0 0.007119349550499537 0.4999999999999999 -6.123233995736767e-17)">29</text>
<rect class="edge_bg" x="0.9288065044950047" y="-0.5711937269173681" width="0.14238699100999075" height="0.14238699100999075"/>
<text class="edge_text" text-anchor="middle" dominant-baseline="middle" transform="matrix(0.007119349550499537 0 0 0.007119349550499537 1.0 -0.5000002314123728)">37</text>
</svg>
