<?xml version="1.0" encoding="utf-8"?>
<svg version="1.1" xmlns="http://www.w3.org/2000/svg" viewBox="-1.8466101454463895 -1.7798373876248843 6.770904290892778 3.5596747752497686" style="enable-background:new -1.8466101454463895 -1.7798373876248843 6.770904290892778 3.5596747752497686;">
<style type="text/css">
  .face_stroke {fill:none; stroke:#000000; stroke-width:0.02; stroke-miterlimit:10;}
  .face_text {fill:#000000; font-family:monospace;}
  .edge_text {fill:#ff0000; font-family:monospace;}
  .edge_bg {fill:#f3f3f3; stroke:#606060; stroke-width:0.01;}
</style>
<polygon class="face_stroke" points="1.5388417685876268,-0.49999999999999994 0.9510565162951536,-1.3090169943749475 9.907600726170916e-17,-1.618033988749895 -0.9510565162951534,-1.3090169943749475 -1.5388417685876268,-0.5000000000000001 -1.5388417685876268,0.5000000000000006 -0.9510565162951538,1.3090169943749472 -2.9722802178512745e-16,1.618033988749895 0.9510565162951533,1.3090169943749477 1.5388417685876268,0.5000000000000004"/>
<polygon class="face_stroke" points="1.5388422314123733,0.5000000000000006 2.1266274837048464,1.3090169943749472 3.0776839999999996,1.618033988749895 4.028740516295153,1.3090169943749477 4.616525768587627,0.5000000000000004 4.616525768587627,-0.4999999999999996 4.028740516295155,-1.3090169943749463 3.0776840000000005,-1.618033988749895 2.126627483704847,-1.309016994374948 1.5388422314123735,-0.5000000000000006"/>
<text class="face_text" text-anchor="middle" dominant-baseline="middle" transform="matrix(0.007119349550499537 0 0 0.007119349550499537 0.0 0.0)">0</text>
<text class="face_text" text-anchor="middle" dominant-baseline="middle" transform="matrix(0.007119349550499537 0 0 0.007119349550499537 3.077684 0.0)">2</text>
<rect class="edge_bg" x="1.4676487359073778" y="-0.07119349550499557" width="0.14238699100999075" height="0.14238699100999075"/>
<text class="edge_text" text-anchor="middle" dominant-baseline="middle" transform="matrix(0.007119349550499537 0 0 0.007119349550499537 1.538842231412373 -1.8845376462950893e-16)">0</text>
</svg>
