<?xml version="1.0" encoding="utf-8"?>
<svg version="1.1" xmlns="http://www.w3.org/2000/svg" viewBox="-1.8333061184800998 -1.8572032913874628 6.478215697634406 5.26172465802649" style="enable-background:new -1.8333061184800998 -1.8572032913874628 6.478215697634406 5.26172465802649;">
<style type="text/css">
  .face_stroke {fill:none; stroke:#000000; stroke-width:0.02; stroke-miterlimit:10;}
  .face_text {fill:#000000; font-family:monospace;}
  .edge_text {fill:#ff0000; font-family:monospace;}
  .edge_bg {fill:#f3f3f3; stroke:#606060; stroke-width:0.01;}
</style>
<polygon class="face_stroke" points="1.5388417685876268,-0.49999999999999994 0.9510565162951536,-1.3090169943749475 9.907600726170916e-17,-1.618033988749895 -0.9510565162951534,-1.3090169943749475 -1.5388417685876268,-0.5000000000000001 -1.5388417685876268,0.5000000000000006 -0.9510565162951538,1.3090169943749472 -2.9722802178512745e-16,1.618033988749895 0.9510565162951533,1.3090169943749477 1.5388417685876268,0.5000000000000004"/>
<polygon class="face_stroke" points="1.5388418654051867,0.4999999999999999 2.404867269189626,1.414100318299876e-16 1.5388418654051876,-0.5000000000000003"/>
<polygon class="face_stroke" points="1.5388414138139674,0.49999993599854053 1.132104770738167,1.4135453936411413 1.3400164615559265,2.3916929943749476 2.0831612870333207,3.060823600733806 3.077683182401593,3.1653520640014596 3.943708586186033,2.6653520640014587 4.350445229261833,1.751806606358858 4.1425335384440745,0.7736590056250537 3.399388712966679,0.10452839926619428 2.4048668175984047,-6.400145902141219e-08"/>
<text class="face_text" text-anchor="middle" dominant-baseline="middle" transform="matrix(0.010523449316052981 0 0 0.010523449316052981 0.0 0.0)">0</text>
<text class="face_text" text-anchor="middle" dominant-baseline="middle" transform="matrix(0.010523449316052981 0 0 0.010523449316052981 1.827517 0.0)">1</text>
<text class="face_text" text-anchor="middle" dominant-baseline="middle" transform="matrix(0.010523449316052981 0 0 0.010523449316052981 2.741275 1.582676)">10</text>
<rect class="edge_bg" x="1.4336073722446574" y="-0.10523449316052985" width="0.21046898632105962" height="0.21046898632105962"/>
<text class="edge_text" text-anchor="middle" dominant-baseline="middle" transform="matrix(0.010523449316052981 0 0 0.010523449316052981 1.5388418654051872 -3.535250795749691e-17)">2</text>
<rect class="edge_bg" x="1.8666196225456568" y="0.14476544283801074" width="0.21046898632105962" height="0.21046898632105962"/>
<text class="edge_text" text-anchor="middle" dominant-baseline="middle" transform="matrix(0.010523449316052981 0 0 0.010523449316052981 1.9718541157061866 0.24999993599854053)">19</text>
</svg>
