<?xml version="1.0" encoding="utf-8"?>
<svg version="1.1" xmlns="http://www.w3.org/2000/svg" viewBox="-8.752130578428094 -10.061335949822425 15.227684156856188 21.03168589964485" style="enable-background:new -8.752130578428094 -10.061335949822425 15.227684156856188 21.03168589964485;">
<style type="text/css">
  .face_stroke {fill:none; stroke:#000000; stroke-width:0.02; stroke-miterlimit:10;}
  .face_text {fill:#000000; font-family:monospace;}
  .edge_text {fill:#ff0000; font-family:monospace;}
  .edge_bg {fill:#f3f3f3; stroke:#606060; stroke-width:0.01;}
</style>
<polygon class="face_stroke" points="0.5000000000000001,-0.5 -0.5,-0.5000000000000001 -0.5000000000000001,0.5 0.4999999999999999,0.5000000000000001"/>
<polygon class="face_stroke" points="0.4999999999999999,0.5 1.5,0.5000000000000001 1.5000000000000007,-0.49999999999999944 0.49999999999999967,-0.4999999999999998"/>
<polygon class="face_stroke" points="0.5000000000000007,0.4999997728887067 -0.47814760073380547,0.7079114637064663 -1.391693058376406,1.1146481067822664 -2.2007100527513543,1.7024333590747398 -2.869840659110212,2.445578184552134 -3.3698406591102126,3.311603588336572 -3.678857653485161,4.262660104631727 -3.7833861167528138,5.257181999999999 -3.678857653485161,6.251703895368273 -3.3698406591102135,7.202760411663426 -2.869840659110213,8.068785815447866 -2.2007100527513557,8.81193064092526 -1.391693058376409,9.399715893217731 -0.4781476007338066,9.806452536293534 0.5000000000000004,10.014364227111294 1.4999999999999978,10.014364227111294 2.478147600733805,9.806452536293534 3.3916930583764073,9.399715893217733 4.200710052751353,8.811930640925262 4.869840659110212,8.068785815447868 5.369840659110213,7.202760411663427 5.67885765348516,6.251703895368276 5.783386116752814,5.257182000000001 5.678857653485161,4.262660104631731 5.3698406591102135,3.3116035883365758 4.869840659110211,2.445578184552132 4.200710052751358,1.7024333590747425 3.3916930583764056,1.1146481067822656 2.4781476007338075,0.7079114637064663 1.5,0.49999977288870756"/>
<polygon class="face_stroke" points="-0.47814794964079954,0.7079114072834003 -0.8848845927165997,-0.20563405035920057 -1.7984300503592006,0.2011025927165997 -1.3916934072834009,1.1146480503592004"/>
<polygon class="face_stroke" points="-0.8848839416235927,-0.20563410678226735 -0.07586694724864573,-0.7934193590747398 0.593263659110213,-1.5365641845521343 1.0932636591102125,-2.402589588336573 1.4022806534851608,-3.3536461046317267 1.5068091167528137,-4.348168 1.4022806534851608,-5.342689895368274 1.0932636591102125,-6.293746411663427 0.593263659110213,-7.159771815447867 -0.07586694724864573,-7.902916640925261 -0.8848839416235927,-8.490701893217732 -1.7984293992661942,-8.897438536293535 -2.776577,-9.105350227111293 -3.7765769999999996,-9.105350227111295 -4.754724600733805,-8.897438536293535 -5.668270058376406,-8.490701893217734 -6.477287052751354,-7.902916640925261 -7.146417659110212,-7.159771815447867 -7.646417659110213,-6.293746411663428 -7.955434653485161,-5.342689895368274 -8.059963116752813,-4.348168000000001 -7.955434653485161,-3.353646104631728 -7.646417659110213,-2.402589588336575 -7.146417659110213,-1.5365641845521347 -6.477287052751356,-0.7934193590747411 -5.668270058376409,-0.20563410678226823 -4.754724600733807,0.2011025362935337 -3.7765769999999996,0.4090142271112933 -2.7765770000000023,0.4090142271112933 -1.798429399266195,0.2011025362935337"/>
<text class="face_text" text-anchor="middle" dominant-baseline="middle" transform="matrix(0.03045536831371238 0 0 0.03045536831371238 0.0 0.0)">0</text>
<text class="face_text" text-anchor="middle" dominant-baseline="middle" transform="matrix(0.03045536831371238 0 0 0.03045536831371238 1.0 0.0)">29</text>
<text class="face_text" text-anchor="middle" dominant-baseline="middle" transform="matrix(0.03045536831371238 0 0 0.03045536831371238 1.0 5.257182)">31</text>
<text class="face_text" text-anchor="middle" dominant-baseline="middle" transform="matrix(0.03045536831371238 0 0 0.03045536831371238 -1.138289 0.454507)">1</text>
<text class="face_text" text-anchor="middle" dominant-baseline="middle" transform="matrix(0.03045536831371238 0 0 0.03045536831371238 -3.276577 -4.348168)">30</text>
<rect class="edge_bg" x="0.1954463168628761" y="-0.30455368313712383" width="0.6091073662742476" height="0.6091073662742476"/>
<text class="edge_text" text-anchor="middle" dominant-baseline="middle" transform="matrix(0.03045536831371238 0 0 0.03045536831371238 0.4999999999999999 -6.123233995736767e-17)">0</text>
<rect class="edge_bg" x="0.6954463168628764" y="0.19544608975158378" width="0.6091073662742476" height="0.6091073662742476"/>
<text class="edge_text" text-anchor="middle" dominant-baseline="middle" transform="matrix(0.03045536831371238 0 0 0.03045536831371238 1.0000000000000002 0.49999977288870756)">4</text>
<rect class="edge_bg" x="-1.2394743615992236" y="0.6067260456841768" width="0.6091073662742476" height="0.6091073662742476"/>
<text class="edge_text" text-anchor="middle" dominant-baseline="middle" transform="matrix(0.03045536831371238 0 0 0.03045536831371238 -0.9349206784620999 0.9112797288213006)">7</text>
<rect class="edge_bg" x="-1.6462103535820178" y="-0.3068194683814906" width="0.6091073662742476" height="0.6091073662742476"/>
<text class="edge_text" text-anchor="middle" dominant-baseline="middle" transform="matrix(0.03045536831371238 0 0 0.03045536831371238 -1.341656670444894 -0.0022657852443668247)">6</text>
</svg>
