<?xml version="1.0" encoding="utf-8"?>
<svg version="1.1" xmlns="http://www.w3.org/2000/svg" viewBox="-9.750922128428094 -8.907332399822423 17.321656256856187 19.822729799644847" style="enable-background:new -9.750922128428094 -8.907332399822423 17.321656256856187 19.822729799644847;">
<style type="text/css">
  .face_stroke {fill:none; stroke:#000000; stroke-width:0.02; stroke-miterlimit:10;}
  .face_text {fill:#000000; font-family:monospace;}
  .edge_text {fill:#ff0000; font-family:monospace;}
  .edge_bg {fill:#f3f3f3; stroke:#606060; stroke-width:0.01;}
</style>
<polygon class="face_stroke" points="0.5000000000000001,-0.5 -0.5,-0.5000000000000001 -0.5000000000000001,0.5 0.4999999999999999,0.5000000000000001"/>
<polygon class="face_stroke" points="0.4999999999999999,0.5 1.5,0.5000000000000001 1.5000000000000007,-0.49999999999999944 0.49999999999999967,-0.4999999999999998"/>
<polygon class="face_stroke" points="1.5,0.5 2.5,0.5000000000000001 2.500000000000001,-0.49999999999999944 1.4999999999999996,-0.4999999999999998"/>
<polygon class="face_stroke" points="1.5000000000000007,0.4999997728887067 0.5218523992661945,0.7079114637064663 -0.391693058376406,1.1146481067822664 -1.2007100527513543,1.7024333590747398 -1.8698406591102121,2.445578184552134 -2.3698406591102126,3.311603588336572 -2.678857653485161,4.262660104631727 -2.7833861167528138,5.257181999999999 -2.678857653485161,6.251703895368273 -2.3698406591102135,7.202760411663426 -1.869840659110213,8.068785815447866 -1.2007100527513557,8.81193064092526 -0.3916930583764091,9.399715893217731 0.5218523992661934,9.806452536293534 1.5000000000000004,10.014364227111294 2.499999999999998,10.014364227111294 3.478147600733805,9.806452536293534 4.391693058376408,9.399715893217733 5.200710052751353,8.811930640925262 5.869840659110212,8.068785815447868 6.369840659110213,7.202760411663427 6.67885765348516,6.251703895368276 6.783386116752814,5.257182000000001 6.678857653485161,4.262660104631731 6.3698406591102135,3.3116035883365758 5.869840659110211,2.445578184552132 5.200710052751358,1.7024333590747425 4.391693058376406,1.1146481067822656 3.4781476007338075,0.7079114637064663 2.5,0.49999977288870756"/>
<polygon class="face_stroke" points="-0.3916928766662895,1.114647871041237 -0.9794781289587627,0.30563087666628963 -1.78849512333371,0.8934161289587628 -1.2007098710412372,1.7024331233337104"/>
<polygon class="face_stroke" points="-0.9794779472486459,0.3056316409252604 -0.3103473408897872,-0.43751318455213406 0.18965265911021234,-1.303538588336573 0.4986696534851607,-2.2545951046317265 0.6031981167528135,-3.249117 0.4986696534851607,-4.2436388953682735 0.18965265911021234,-5.194695411663427 -0.3103473408897872,-6.060720815447866 -0.9794779472486459,-6.8038656409252605 -1.788494941623593,-7.391650893217733 -2.7020403992661945,-7.798387536293534 -3.6801880000000002,-8.006299227111292 -4.680187999999999,-8.006299227111294 -5.658335600733806,-7.798387536293534 -6.571881058376406,-7.391650893217734 -7.380898052751355,-6.8038656409252605 -8.050028659110213,-6.0607208154478664 -8.550028659110213,-5.194695411663428 -8.859045653485161,-4.2436388953682735 -8.963574116752813,-3.2491170000000005 -8.859045653485161,-2.254595104631728 -8.550028659110215,-1.3035385883365747 -8.050028659110213,-0.4375131845521345 -7.3808980527513555,0.3056316409252591 -6.571881058376409,0.893416893217732 -5.658335600733807,1.300153536293534 -4.680187999999999,1.5080652271112935 -3.6801880000000025,1.5080652271112935 -2.7020403992661954,1.300153536293534 -1.788494941623593,0.8934168932177329"/>
<text class="face_text" text-anchor="middle" dominant-baseline="middle" transform="matrix(0.034643312513712374 0 0 0.034643312513712374 0.0 0.0)">0</text>
<text class="face_text" text-anchor="middle" dominant-baseline="middle" transform="matrix(0.034643312513712374 0 0 0.034643312513712374 1.0 0.0)">29</text>
<text class="face_text" text-anchor="middle" dominant-baseline="middle" transform="matrix(0.034643312513712374 0 0 0.034643312513712374 2.0 0.0)">28</text>
<text class="face_text" text-anchor="middle" dominant-baseline="middle" transform="matrix(0.034643312513712374 0 0 0.034643312513712374 2.0 5.257182)">31</text>
<text class="face_text" text-anchor="middle" dominant-baseline="middle" transform="matrix(0.034643312513712374 0 0 0.034643312513712374 -1.090094 1.004032)">1</text>
<text class="face_text" text-anchor="middle" dominant-baseline="middle" transform="matrix(0.034643312513712374 0 0 0.034643312513712374 -4.180188 -3.249117)">30</text>
<rect class="edge_bg" x="0.15356687486287612" y="-0.3464331251371238" width="0.6928662502742475" height="0.6928662502742475"/>
<text class="edge_text" text-anchor="middle" dominant-baseline="middle" transform="matrix(0.034643312513712374 0 0 0.034643312513712374 0.4999999999999999 -6.123233995736767e-17)">0</text>
<rect class="edge_bg" x="1.1535668748628762" y="-0.3464331251371238" width="0.6928662502742475" height="0.6928662502742475"/>
<text class="edge_text" text-anchor="middle" dominant-baseline="middle" transform="matrix(0.034643312513712374 0 0 0.034643312513712374 1.5 -6.123233995736767e-17)">89</text>
<rect class="edge_bg" x="1.6535668748628767" y="0.1535666477515838" width="0.6928662502742475" height="0.6928662502742475"/>
<text class="edge_text" text-anchor="middle" dominant-baseline="middle" transform="matrix(0.034643312513712374 0 0 0.034643312513712374 2.0000000000000004 0.49999977288870756)">88</text>
<rect class="edge_bg" x="-1.142634498990887" y="1.06210737205035" width="0.6928662502742475" height="0.6928662502742475"/>
<text class="edge_text" text-anchor="middle" dominant-baseline="middle" transform="matrix(0.034643312513712374 0 0 0.034643312513712374 -0.7962013738537632 1.4085404971874738)">7</text>
<rect class="edge_bg" x="-1.7304195695732434" y="0.2530911419343729" width="0.6928662502742475" height="0.6928662502742475"/>
<text class="edge_text" text-anchor="middle" dominant-baseline="middle" transform="matrix(0.034643312513712374 0 0 0.034643312513712374 -1.3839864444361196 0.5995242670714966)">6</text>
</svg>
