<?xml version="1.0" encoding="utf-8"?>
<svg version="1.1" xmlns="http://www.w3.org/2000/svg" viewBox="-10.466105528428095 -7.362975599822423 19.11851505685619 18.204832199644848" style="enable-background:new -10.466105528428095 -7.362975599822423 19.11851505685619 18.204832199644848;">
<style type="text/css">
  .face_stroke {fill:none; stroke:#000000; stroke-width:0.02; stroke-miterlimit:10;}
  .face_text {fill:#000000; font-family:monospace;}
  .edge_text {fill:#ff0000; font-family:monospace;}
  .edge_bg {fill:#f3f3f3; stroke:#606060; stroke-width:0.01;}
</style>
<polygon class="face_stroke" points="0.5000000000000001,-0.5 -0.5,-0.5000000000000001 -0.5000000000000001,0.5 0.4999999999999999,0.5000000000000001"/>
<polygon class="face_stroke" points="0.4999999999999999,0.5 1.5,0.5000000000000001 1.5000000000000007,-0.49999999999999944 0.49999999999999967,-0.4999999999999998"/>
<polygon class="face_stroke" points="1.5,0.5 2.5,0.5000000000000001 2.500000000000001,-0.49999999999999944 1.4999999999999996,-0.4999999999999998"/>
<polygon class="face_stroke" points="2.5,0.5 3.5,0.5000000000000001 3.500000000000001,-0.49999999999999944 2.4999999999999996,-0.4999999999999998"/>
<polygon class="face_stroke" points="2.5000000000000004,0.4999997728887067 1.5218523992661945,0.7079114637064663 0.608306941623594,1.1146481067822664 -0.20071005275135434,1.7024333590747398 -0.8698406591102121,2.445578184552134 -1.3698406591102126,3.311603588336572 -1.678857653485161,4.262660104631727 -1.7833861167528138,5.257181999999999 -1.678857653485161,6.251703895368273 -1.3698406591102135,7.202760411663426 -0.869840659110213,8.068785815447866 -0.20071005275135567,8.81193064092526 0.6083069416235909,9.399715893217731 1.5218523992661934,9.806452536293534 2.5000000000000004,10.014364227111294 3.499999999999998,10.014364227111294 4.478147600733805,9.806452536293534 5.391693058376408,9.399715893217733 6.200710052751353,8.811930640925262 6.869840659110212,8.068785815447868 7.369840659110213,7.202760411663427 7.67885765348516,6.251703895368276 7.783386116752814,5.257182000000001 7.678857653485161,4.262660104631731 7.3698406591102135,3.3116035883365758 6.869840659110211,2.445578184552132 6.200710052751358,1.7024333590747425 5.391693058376406,1.1146481067822656 4.4781476007338075,0.7079114637064663 3.5,0.49999977288870756"/>
<polygon class="face_stroke" points="-0.20071028408187375,1.702433890440732 -0.9438551095592679,1.0333032840818737 -1.6129857159181262,1.776448109559268 -0.8698408904407319,2.4455787159181264"/>
<polygon class="face_stroke" points="-0.9438553408897872,1.033302815447866 -0.4438553408897876,0.16727741166342702 -0.13483834651483928,-0.7837791046317265 -0.03030988324718642,-1.778301 -0.13483834651483928,-2.7728228953682734 -0.4438553408897876,-3.723879411663427 -0.9438553408897872,-4.589904815447866 -1.6129859472486459,-5.33304964092526 -2.422002941623593,-5.920834893217733 -3.3355483992661945,-6.327571536293534 -4.313696,-6.535483227111293 -5.313695999999999,-6.5354832271112935 -6.291843600733806,-6.327571536293534 -7.205389058376406,-5.920834893217734 -8.014406052751355,-5.33304964092526 -8.683536659110212,-4.589904815447866 -9.183536659110214,-3.723879411663428 -9.49255365348516,-2.7728228953682734 -9.597082116752814,-1.7783010000000006 -9.49255365348516,-0.7837791046317277 -9.183536659110214,0.16727741166342547 -8.683536659110214,1.0333028154478656 -8.014406052751356,1.7764476409252592 -7.20538905837641,2.364232893217732 -6.291843600733807,2.770969536293534 -5.313696,2.9788812271112937 -4.313696000000003,2.9788812271112937 -3.3355483992661954,2.770969536293534 -2.422002941623593,2.364232893217733 -1.6129859472486476,1.7764476409252619"/>
<text class="face_text" text-anchor="middle" dominant-baseline="middle" transform="matrix(0.0364096643992897 0 0 0.0364096643992897 0.0 0.0)">0</text>
<text class="face_text" text-anchor="middle" dominant-baseline="middle" transform="matrix(0.0364096643992897 0 0 0.0364096643992897 1.0 0.0)">29</text>
<text class="face_text" text-anchor="middle" dominant-baseline="middle" transform="matrix(0.0364096643992897 0 0 0.0364096643992897 2.0 0.0)">28</text>
<text class="face_text" text-anchor="middle" dominant-baseline="middle" transform="matrix(0.0364096643992897 0 0 0.0364096643992897 3.0 0.0)">27</text>
<text class="face_text" text-anchor="middle" dominant-baseline="middle" transform="matrix(0.0364096643992897 0 0 0.0364096643992897 3.0 5.257182)">31</text>
<text class="face_text" text-anchor="middle" dominant-baseline="middle" transform="matrix(0.0364096643992897 0 0 0.0364096643992897 -0.906848 1.739441)">1</text>
<text class="face_text" text-anchor="middle" dominant-baseline="middle" transform="matrix(0.0364096643992897 0 0 0.0364096643992897 -4.813696 -1.778301)">30</text>
<rect class="edge_bg" x="0.1359033560071029" y="-0.36409664399289704" width="0.728193287985794" height="0.728193287985794"/>
<text class="edge_text" text-anchor="middle" dominant-baseline="middle" transform="matrix(0.0364096643992897 0 0 0.0364096643992897 0.4999999999999999 -6.123233995736767e-17)">0</text>
<rect class="edge_bg" x="1.135903356007103" y="-0.36409664399289704" width="0.728193287985794" height="0.728193287985794"/>
<text class="edge_text" text-anchor="middle" dominant-baseline="middle" transform="matrix(0.0364096643992897 0 0 0.0364096643992897 1.5 -6.123233995736767e-17)">89</text>
<rect class="edge_bg" x="2.135903356007103" y="-0.36409664399289704" width="0.728193287985794" height="0.728193287985794"/>
<text class="edge_text" text-anchor="middle" dominant-baseline="middle" transform="matrix(0.0364096643992897 0 0 0.0364096643992897 2.5 -6.123233995736767e-17)">86</text>
<rect class="edge_bg" x="2.6359033560071037" y="0.13590312889581058" width="0.728193287985794" height="0.728193287985794"/>
<text class="edge_text" text-anchor="middle" dominant-baseline="middle" transform="matrix(0.0364096643992897 0 0 0.0364096643992897 3.0000000000000004 0.49999977288870756)">85</text>
<rect class="edge_bg" x="-0.8993722312541998" y="1.7099096591865324" width="0.728193287985794" height="0.728193287985794"/>
<text class="edge_text" text-anchor="middle" dominant-baseline="middle" transform="matrix(0.0364096643992897 0 0 0.0364096643992897 -0.5352755872613029 2.0740063031794294)">7</text>
<rect class="edge_bg" x="-1.6425172880621137" y="1.040778584193666" width="0.728193287985794" height="0.728193287985794"/>
<text class="edge_text" text-anchor="middle" dominant-baseline="middle" transform="matrix(0.0364096643992897 0 0 0.0364096643992897 -1.2784206440692167 1.404875228186563)">6</text>
</svg>
