<?xml version="1.0" encoding="utf-8"?>
<svg version="1.1" xmlns="http://www.w3.org/2000/svg" viewBox="-10.822717078428095 -5.495759549822423 20.539727156856188 16.248701099644848" style="enable-background:new -10.822717078428095 -5.495759549822423 20.539727156856188 16.248701099644848;">
<style type="text/css">
  .face_stroke {fill:none; stroke:#000000; stroke-width:0.02; stroke-miterlimit:10;}
  .face_text {fill:#000000; font-family:monospace;}
  .edge_text {fill:#ff0000; font-family:monospace;}
  .edge_bg {fill:#f3f3f3; stroke:#606060; stroke-width:0.01;}
</style>
<polygon class="face_stroke" points="0.5000000000000001,-0.5 -0.5,-0.5000000000000001 -0.5000000000000001,0.5 0.4999999999999999,0.5000000000000001"/>
<polygon class="face_stroke" points="0.4999999999999999,0.5 1.5,0.5000000000000001 1.5000000000000007,-0.49999999999999944 0.49999999999999967,-0.4999999999999998"/>
<polygon class="face_stroke" points="1.5,0.5 2.5,0.5000000000000001 2.500000000000001,-0.49999999999999944 1.4999999999999996,-0.4999999999999998"/>
<polygon class="face_stroke" points="2.5,0.5 3.5,0.5000000000000001 3.500000000000001,-0.49999999999999944 2.4999999999999996,-0.4999999999999998"/>
<polygon class="face_stroke" points="3.5,0.5 4.5,0.5000000000000001 4.500000000000001,-0.49999999999999944 3.4999999999999996,-0.4999999999999998"/>
<polygon class="face_stroke" points="3.5000000000000004,0.4999997728887067 2.5218523992661943,0.7079114637064663 1.608306941623594,1.1146481067822664 0.7992899472486457,1.7024333590747398 0.13015934088978787,2.445578184552134 -0.3698406591102126,3.311603588336572 -0.6788576534851609,4.262660104631727 -0.7833861167528138,5.257181999999999 -0.6788576534851609,6.251703895368273 -0.36984065911021347,7.202760411663426 0.13015934088978698,8.068785815447866 0.7992899472486443,8.81193064092526 1.608306941623591,9.399715893217731 2.5218523992661934,9.806452536293534 3.5000000000000004,10.014364227111294 4.499999999999997,10.014364227111294 5.478147600733805,9.806452536293534 6.391693058376408,9.399715893217733 7.200710052751353,8.811930640925262 7.869840659110212,8.068785815447868 8.369840659110213,7.202760411663427 8.67885765348516,6.251703895368276 8.783386116752814,5.257182000000001 8.67885765348516,4.262660104631731 8.369840659110213,3.3116035883365758 7.869840659110211,2.445578184552132 7.200710052751358,1.7024333590747425 6.391693058376406,1.1146481067822656 5.4781476007338075,0.7079114637064663 4.5,0.49999977288870756"/>
<polygon class="face_stroke" points="0.13015970189221937,2.445578298107781 -0.7358657018922194,1.9455782981077807 -1.2358657018922194,2.8116037018922193 -0.3698402981077804,3.3116037018922193"/>
<polygon class="face_stroke" points="-0.7358663408897872,1.945578411663427 -0.42684934651483886,0.9945218953682734 -0.322320883247186,0.0 -0.42684934651483886,-0.9945218953682734 -0.7358663408897872,-1.945578411663427 -1.2358663408897868,-2.811603815447866 -1.9049969472486454,-3.5547486409252604 -2.7140139416235924,-4.142533893217733 -3.627559399266194,-4.549270536293534 -4.605707,-4.757182227111293 -5.605706999999999,-4.757182227111294 -6.5838546007338055,-4.549270536293534 -7.497400058376406,-4.142533893217734 -8.306417052751353,-3.5547486409252604 -8.975547659110212,-2.8116038154478664 -9.475547659110212,-1.9455784116634283 -9.78456465348516,-0.9945218953682734 -9.889093116752814,-5.857958496967221e-16 -9.78456465348516,0.9945218953682722 -9.475547659110212,1.9455784116634254 -8.975547659110212,2.8116038154478655 -8.306417052751355,3.554748640925259 -7.497400058376408,4.142533893217732 -6.583854600733806,4.549270536293534 -5.605706999999999,4.757182227111294 -4.605707000000002,4.757182227111294 -3.627559399266195,4.549270536293534 -2.7140139416235924,4.142533893217733 -1.9049969472486472,3.5547486409252618 -1.2358663408897876,2.811603815447867"/>
<text class="face_text" text-anchor="middle" dominant-baseline="middle" transform="matrix(0.0324974021992897 0 0 0.0324974021992897 0.0 0.0)">0</text>
<text class="face_text" text-anchor="middle" dominant-baseline="middle" transform="matrix(0.0324974021992897 0 0 0.0324974021992897 1.0 0.0)">29</text>
<text class="face_text" text-anchor="middle" dominant-baseline="middle" transform="matrix(0.0324974021992897 0 0 0.0324974021992897 2.0 0.0)">28</text>
<text class="face_text" text-anchor="middle" dominant-baseline="middle" transform="matrix(0.0324974021992897 0 0 0.0324974021992897 3.0 0.0)">27</text>
<text class="face_text" text-anchor="middle" dominant-baseline="middle" transform="matrix(0.0324974021992897 0 0 0.0324974021992897 4.0 0.0)">26</text>
<text class="face_text" text-anchor="middle" dominant-baseline="middle" transform="matrix(0.0324974021992897 0 0 0.0324974021992897 4.0 5.257182)">31</text>
<text class="face_text" text-anchor="middle" dominant-baseline="middle" transform="matrix(0.0324974021992897 0 0 0.0324974021992897 -0.552853 2.628591)">1</text>
<text class="face_text" text-anchor="middle" dominant-baseline="middle" transform="matrix(0.0324974021992897 0 0 0.0324974021992897 -5.105707 0.0)">30</text>
<rect class="edge_bg" x="0.17502597800710296" y="-0.324974021992897" width="0.6499480439857939" height="0.6499480439857939"/>
<text class="edge_text" text-anchor="middle" dominant-baseline="middle" transform="matrix(0.0324974021992897 0 0 0.0324974021992897 0.4999999999999999 -6.123233995736767e-17)">0</text>
<rect class="edge_bg" x="1.175025978007103" y="-0.324974021992897" width="0.6499480439857939" height="0.6499480439857939"/>
<text class="edge_text" text-anchor="middle" dominant-baseline="middle" transform="matrix(0.0324974021992897 0 0 0.0324974021992897 1.5 -6.123233995736767e-17)">89</text>
<rect class="edge_bg" x="2.175025978007103" y="-0.324974021992897" width="0.6499480439857939" height="0.6499480439857939"/>
<text class="edge_text" text-anchor="middle" dominant-baseline="middle" transform="matrix(0.0324974021992897 0 0 0.0324974021992897 2.5 -6.123233995736767e-17)">86</text>
<rect class="edge_bg" x="3.175025978007103" y="-0.324974021992897" width="0.6499480439857939" height="0.6499480439857939"/>
<text class="edge_text" text-anchor="middle" dominant-baseline="middle" transform="matrix(0.0324974021992897 0 0 0.0324974021992897 3.5 -6.123233995736767e-17)">83</text>
<rect class="edge_bg" x="3.675025978007103" y="0.17502575089581063" width="0.6499480439857939" height="0.6499480439857939"/>
<text class="edge_text" text-anchor="middle" dominant-baseline="middle" transform="matrix(0.0324974021992897 0 0 0.0324974021992897 4.0 0.49999977288870756)">82</text>
<rect class="edge_bg" x="-0.4448143201006775" y="2.553616978007103" width="0.6499480439857939" height="0.6499480439857939"/>
<text class="edge_text" text-anchor="middle" dominant-baseline="middle" transform="matrix(0.0324974021992897 0 0 0.0324974021992897 -0.11984029810778057 2.878591)">7</text>
<rect class="edge_bg" x="-1.3108403628826841" y="2.053617091562749" width="0.6499480439857939" height="0.6499480439857939"/>
<text class="edge_text" text-anchor="middle" dominant-baseline="middle" transform="matrix(0.0324974021992897 0 0 0.0324974021992897 -0.9858663408897872 2.378591113555646)">6</text>
</svg>
