<?xml version="1.0" encoding="utf-8"?>
<svg version="1.1" xmlns="http://www.w3.org/2000/svg" viewBox="-10.761467478428095 -3.3872912998224227 21.52317995685619 14.039829599644845" style="enable-background:new -10.761467478428095 -3.3872912998224227 21.52317995685619 14.039829599644845;">
<style type="text/css">
  .face_stroke {fill:none; stroke:#000000; stroke-width:0.02; stroke-miterlimit:10;}
  .face_text {fill:#000000; font-family:monospace;}
  .edge_text {fill:#ff0000; font-family:monospace;}
  .edge_bg {fill:#f3f3f3; stroke:#606060; stroke-width:0.01;}
</style>
<polygon class="face_stroke" points="0.5000000000000001,-0.5 -0.5,-0.5000000000000001 -0.5000000000000001,0.5 0.4999999999999999,0.5000000000000001"/>
<polygon class="face_stroke" points="0.4999999999999999,0.5 1.5,0.5000000000000001 1.5000000000000007,-0.49999999999999944 0.49999999999999967,-0.4999999999999998"/>
<polygon class="face_stroke" points="1.5,0.5 2.5,0.5000000000000001 2.500000000000001,-0.49999999999999944 1.4999999999999996,-0.4999999999999998"/>
<polygon class="face_stroke" points="2.5,0.5 3.5,0.5000000000000001 3.500000000000001,-0.49999999999999944 2.4999999999999996,-0.4999999999999998"/>
<polygon class="face_stroke" points="3.5,0.5 4.5,0.5000000000000001 4.500000000000001,-0.49999999999999944 3.4999999999999996,-0.4999999999999998"/>
<polygon class="face_stroke" points="4.5,0.5 5.5,0.5000000000000001 5.500000000000001,-0.49999999999999944 4.5,-0.4999999999999998"/>
<polygon class="face_stroke" points="4.500000000000001,0.4999997728887067 3.5218523992661943,0.7079114637064663 2.608306941623594,1.1146481067822664 1.7992899472486457,1.7024333590747398 1.1301593408897879,2.445578184552134 0.6301593408897874,3.311603588336572 0.3211423465148391,4.262660104631727 0.21661388324718622,5.257181999999999 0.3211423465148391,6.251703895368273 0.6301593408897865,7.202760411663426 1.130159340889787,8.068785815447866 1.7992899472486443,8.81193064092526 2.608306941623591,9.399715893217731 3.5218523992661934,9.806452536293534 4.5,10.014364227111294 5.499999999999997,10.014364227111294 6.478147600733805,9.806452536293534 7.391693058376408,9.399715893217733 8.200710052751353,8.811930640925262 8.869840659110212,8.068785815447868 9.369840659110213,7.202760411663427 9.67885765348516,6.251703895368276 9.783386116752814,5.257182000000001 9.67885765348516,4.262660104631731 9.369840659110213,3.3116035883365758 8.86984065911021,2.445578184552132 8.200710052751358,1.7024333590747425 7.391693058376406,1.1146481067822656 6.4781476007338075,0.7079114637064663 5.5,0.49999977288870756"/>
<polygon class="face_stroke" points="0.6301597553350505,3.3116042390398968 -0.32089676096010306,3.0025872446649493 -0.6299137553350508,3.9536437609601025 0.32114276096010297,4.26266075533505"/>
<polygon class="face_stroke" points="-0.3208973465148395,3.0025868953682737 -0.21636888324718662,2.008065 -0.3208973465148395,1.0135431046317267 -0.6299143408897878,0.06248658833657328 -1.1299143408897874,-0.8035388154478658 -1.799044947248646,-1.5466836409252602 -2.608061941623593,-2.1344688932177327 -3.5216073992661947,-2.5412055362935337 -4.499755,-2.7491172271112925 -5.4997549999999995,-2.7491172271112934 -6.477902600733806,-2.5412055362935337 -7.391448058376406,-2.1344688932177336 -8.200465052751355,-1.5466836409252602 -8.869595659110212,-0.8035388154478662 -9.369595659110214,0.06248658833657195 -9.67861265348516,1.0135431046317267 -9.783141116752814,2.0080649999999998 -9.67861265348516,3.0025868953682724 -9.369595659110214,3.9536434116634256 -8.869595659110214,4.819668815447866 -8.200465052751357,5.56281364092526 -7.39144805837641,6.150598893217732 -6.477902600733807,6.557335536293534 -5.499755,6.765247227111294 -4.499755000000003,6.765247227111294 -3.5216073992661956,6.557335536293534 -2.608061941623593,6.150598893217733 -1.7990449472486478,5.5628136409252615 -1.1299143408897883,4.8196688154478675 -0.6299143408897878,3.9536434116634274"/>
<text class="face_text" text-anchor="middle" dominant-baseline="middle" transform="matrix(0.028079659199289692 0 0 0.028079659199289692 0.0 0.0)">0</text>
<text class="face_text" text-anchor="middle" dominant-baseline="middle" transform="matrix(0.028079659199289692 0 0 0.028079659199289692 1.0 0.0)">29</text>
<text class="face_text" text-anchor="middle" dominant-baseline="middle" transform="matrix(0.028079659199289692 0 0 0.028079659199289692 2.0 0.0)">28</text>
<text class="face_text" text-anchor="middle" dominant-baseline="middle" transform="matrix(0.028079659199289692 0 0 0.028079659199289692 3.0 0.0)">27</text>
<text class="face_text" text-anchor="middle" dominant-baseline="middle" transform="matrix(0.028079659199289692 0 0 0.028079659199289692 4.0 0.0)">26</text>
<text class="face_text" text-anchor="middle" dominant-baseline="middle" transform="matrix(0.028079659199289692 0 0 0.028079659199289692 5.0 0.0)">25</text>
<text class="face_text" text-anchor="middle" dominant-baseline="middle" transform="matrix(0.028079659199289692 0 0 0.028079659199289692 5.0 5.257182)">31</text>
<text class="face_text" text-anchor="middle" dominant-baseline="middle" transform="matrix(0.028079659199289692 0 0 0.028079659199289692 0.000123 3.632624)">1</text>
<text class="face_text" text-anchor="middle" dominant-baseline="middle" transform="matrix(0.028079659199289692 0 0 0.028079659199289692 -4.999755 2.008065)">30</text>
<rect class="edge_bg" x="0.21920340800710297" y="-0.28079659199289697" width="0.5615931839857938" height="0.5615931839857938"/>
<text class="edge_text" text-anchor="middle" dominant-baseline="middle" transform="matrix(0.028079659199289692 0 0 0.028079659199289692 0.4999999999999999 -6.123233995736767e-17)">0</text>
<rect class="edge_bg" x="1.219203408007103" y="-0.28079659199289697" width="0.5615931839857938" height="0.5615931839857938"/>
<text class="edge_text" text-anchor="middle" dominant-baseline="middle" transform="matrix(0.028079659199289692 0 0 0.028079659199289692 1.5 -6.123233995736767e-17)">89</text>
<rect class="edge_bg" x="2.219203408007103" y="-0.28079659199289697" width="0.5615931839857938" height="0.5615931839857938"/>
<text class="edge_text" text-anchor="middle" dominant-baseline="middle" transform="matrix(0.028079659199289692 0 0 0.028079659199289692 2.5 -6.123233995736767e-17)">86</text>
<rect class="edge_bg" x="3.219203408007103" y="-0.28079659199289697" width="0.5615931839857938" height="0.5615931839857938"/>
<text class="edge_text" text-anchor="middle" dominant-baseline="middle" transform="matrix(0.028079659199289692 0 0 0.028079659199289692 3.5 -6.123233995736767e-17)">83</text>
<rect class="edge_bg" x="4.219203408007103" y="-0.28079659199289697" width="0.5615931839857938" height="0.5615931839857938"/>
<text class="edge_text" text-anchor="middle" dominant-baseline="middle" transform="matrix(0.028079659199289692 0 0 0.028079659199289692 4.5 -6.123233995736767e-17)">80</text>
<rect class="edge_bg" x="4.719203408007103" y="0.21920318089581065" width="0.5615931839857938" height="0.5615931839857938"/>
<text class="edge_text" text-anchor="middle" dominant-baseline="middle" transform="matrix(0.028079659199289692 0 0 0.028079659199289692 5.0 0.49999977288870756)">79</text>
<rect class="edge_bg" x="0.19485466615467995" y="3.5063359051945766" width="0.5615931839857938" height="0.5615931839857938"/>
<text class="edge_text" text-anchor="middle" dominant-baseline="middle" transform="matrix(0.028079659199289692 0 0 0.028079659199289692 0.47565125814757686 3.7871324971874736)">7</text>
<rect class="edge_bg" x="-0.7562024356952115" y="3.1973185615229536" width="0.5615931839857938" height="0.5615931839857938"/>
<text class="edge_text" text-anchor="middle" dominant-baseline="middle" transform="matrix(0.028079659199289692 0 0 0.028079659199289692 -0.47540584370231453 3.4781151535158505)">6</text>
</svg>
