<?xml version="1.0" encoding="utf-8"?>
<svg version="1.1" xmlns="http://www.w3.org/2000/svg" viewBox="-10.774548449822424 -5.371027678428095 21.778860899644847 12.92811435685619" style="enable-background:new -10.774548449822424 -5.371027678428095 21.778860899644847 12.92811435685619;">
<style type="text/css">
  .face_stroke {fill:none; stroke:#000000; stroke-width:0.02; stroke-miterlimit:10;}
  .face_text {fill:#000000; font-family:monospace;}
  .edge_text {fill:#ff0000; font-family:monospace;}
  .edge_bg {fill:#f3f3f3; stroke:#606060; stroke-width:0.01;}
</style>
<polygon class="face_stroke" points="0.5000000000000001,-0.5 -0.5,-0.5000000000000001 -0.5000000000000001,0.5 0.4999999999999999,0.5000000000000001"/>
<polygon class="face_stroke" points="0.4999997728887067,0.49999999999999806 0.7079114637064663,1.4781476007338072 1.1146481067822673,2.3916930583764073 1.7024333590747398,3.2007100527513543 2.445578184552134,3.869840659110212 3.3116035883365735,4.3698406591102135 4.262660104631725,4.67885765348516 5.257181999999999,4.783386116752814 6.25170389536827,4.678857653485161 7.202760411663429,4.369840659110213 8.068785815447866,3.8698406591102135 8.811930640925262,3.200710052751354 9.399715893217731,2.391693058376409 9.806452536293534,1.478147600733807 10.014364227111294,0.49999999999999983 10.014364227111294,-0.4999999999999975 9.806452536293534,-1.4781476007338046 9.399715893217735,-2.3916930583764033 8.81193064092526,-3.2007100527513557 8.068785815447871,-3.8698406591102095 7.202760411663427,-4.369840659110213 6.251703895368272,-4.678857653485161 5.257182000000002,-4.783386116752814 4.262660104631722,-4.678857653485159 3.311603588336572,-4.369840659110213 2.445578184552135,-3.869840659110214 1.702433359074743,-3.200710052751358 1.1146481067822656,-2.391693058376406 0.7079114637064672,-1.4781476007338077 0.49999977288870756,-0.5000000000000047"/>
<polygon class="face_stroke" points="0.4999999549580232,0.5000003542242175 -0.47814764577578267,0.7079120450419769 -0.2702359549580231,1.6860596457757826 0.7079116457757826,1.478147954958023"/>
<polygon class="face_stroke" points="-0.478147463706466,0.7079113992661945 -0.8848841067822661,-0.20563405837640625 -1.4726693590747395,-1.0146510527513541 -2.215814184552134,-1.6837816591102128 -3.081839588336573,-2.1837816591102124 -4.0328961046317255,-2.49279865348516 -5.027418,-2.5973271167528136 -6.021939895368273,-2.4927986534851607 -6.972996411663426,-2.1837816591102133 -7.8390218154478655,-1.6837816591102128 -8.582166640925259,-1.0146510527513555 -9.169951893217734,-0.20563405837640625 -9.576688536293535,0.7079113992661938 -9.784600227111293,1.6860589999999989 -9.784600227111294,2.6860589999999984 -9.576688536293535,3.6642066007338077 -9.169951893217732,4.577752058376408 -8.58216664092526,5.3867690527513545 -7.839021815447866,6.055899659110212 -6.972996411663427,6.555899659110214 -6.021939895368275,6.86491665348516 -5.027418000000001,6.969445116752814 -4.03289610463173,6.864916653485161 -3.081839588336571,6.555899659110213 -2.215814184552135,6.055899659110214 -1.472669359074739,5.3867690527513545 -0.8848841067822679,4.57775205837641 -0.478147463706466,3.664206600733807 -0.27023577288870726,2.686059 -0.27023577288870637,1.6860590000000026"/>
<polygon class="face_stroke" points="-0.8848838710412372,-0.20563387666628974 -0.07586687666628955,-0.7934191289587629 -0.6636521289587628,-1.6024361233337103 -1.4726691233337101,-1.0146508710412372"/>
<text class="face_text" text-anchor="middle" dominant-baseline="middle" transform="matrix(0.02585622871371238 0 0 0.02585622871371238 0.0 0.0)">0</text>
<text class="face_text" text-anchor="middle" dominant-baseline="middle" transform="matrix(0.02585622871371238 0 0 0.02585622871371238 5.257182 0.0)">30</text>
<text class="face_text" text-anchor="middle" dominant-baseline="middle" transform="matrix(0.02585622871371238 0 0 0.02585622871371238 0.114882 1.09303)">29</text>
<text class="face_text" text-anchor="middle" dominant-baseline="middle" transform="matrix(0.02585622871371238 0 0 0.02585622871371238 -5.027418 2.186059)">31</text>
<text class="face_text" text-anchor="middle" dominant-baseline="middle" transform="matrix(0.02585622871371238 0 0 0.02585622871371238 -0.774268 -0.904035)">1</text>
<rect class="edge_bg" x="0.24143748575158375" y="-0.25856228713712437" width="0.5171245742742476" height="0.5171245742742476"/>
<text class="edge_text" text-anchor="middle" dominant-baseline="middle" transform="matrix(0.02585622871371238 0 0 0.02585622871371238 0.49999977288870756 -5.825867987392522e-16)">1</text>
<rect class="edge_bg" x="0.3453935132297792" y="0.7305118674539964" width="0.5171245742742476" height="0.5171245742742476"/>
<text class="edge_text" text-anchor="middle" dominant-baseline="middle" transform="matrix(0.02585622871371238 0 0 0.02585622871371238 0.603955800366903 0.9890741545911202)">2</text>
<rect class="edge_bg" x="-0.6327539054347109" y="0.9384229124959735" width="0.5171245742742476" height="0.5171245742742476"/>
<text class="edge_text" text-anchor="middle" dominant-baseline="middle" transform="matrix(0.02585622871371238 0 0 0.02585622871371238 -0.37419161829758707 1.1969851996330974)">4</text>
<rect class="edge_bg" x="-1.4373387843245975" y="-0.8687046609908872" width="0.5171245742742476" height="0.5171245742742476"/>
<text class="edge_text" text-anchor="middle" dominant-baseline="middle" transform="matrix(0.02585622871371238 0 0 0.02585622871371238 -1.1787764971874737 -0.6101423738537634)">7</text>
</svg>
