<?xml version="1.0" encoding="utf-8"?>
<svg version="1.1" xmlns="http://www.w3.org/2000/svg" viewBox="-9.256589073467357 -11.233034166438596 16.24929014614048 23.287865332877193" style="enable-background:new -9.256589073467357 -11.233034166438596 16.24929014614048 23.287865332877193;">
<style type="text/css">
  .face_stroke {fill:none; stroke:#000000; stroke-width:0.02; stroke-miterlimit:10;}
  .face_text {fill:#000000; font-family:monospace;}
  .edge_text {fill:#ff0000; font-family:monospace;}
  .edge_bg {fill:#f3f3f3; stroke:#606060; stroke-width:0.01;}
</style>
<polygon class="face_stroke" points="0.5000000000000001,-0.5 -0.5,-0.5000000000000001 -0.5000000000000001,0.5 0.4999999999999999,0.5000000000000001"/>
<polygon class="face_stroke" points="0.4999999999999999,0.5 1.5,0.5000000000000001 1.5000000000000007,-0.49999999999999944 0.49999999999999967,-0.4999999999999998"/>
<polygon class="face_stroke" points="0.500000000000001,0.5000001024282188 -0.4819286972627066,0.6892513467886294 -1.4102966302787792,1.0609138024489564 -2.2515501631099606,1.6015546199045545 -2.97528420121503,2.2916336313866656 -3.5553411107862294,3.1062095834370025 -3.9707561237881146,4.01584157879152 -4.206515059297542,4.987653147115062 -4.254096975121285,5.986520486298068 -4.111782136848,6.976341928179002 -3.7847141735305785,7.92134274689367 -3.2847141735305794,8.787368150678107 -2.6298534395852933,9.543117725032369 -1.8438003448425087,10.16127671125297 -0.9549648961875845,10.619503232980382 0.004528077426908972,10.901235789821811 0.999999999999999,10.996291833125996 1.9954719225730846,10.901235789821813 2.9549648961875827,10.619503232980383 3.843800344842511,10.16127671125297 4.629853439585299,9.543117725032364 5.284714173530583,8.787368150678102 5.784714173530584,7.921342746893659 6.111782136848003,6.976341928178988 6.254096975121286,5.9865204862980494 6.20651505929754,4.987653147115045 5.970756123788108,4.015841578791499 5.555341110786217,3.1062095834369816 4.975284201215011,2.2916336313866448 4.251550163109936,1.6015546199045358 3.4102966302787476,1.0609138024489404 2.481928697262676,0.6892513467886197 1.4999999999999625,0.5000001024282152"/>
<polygon class="face_stroke" points="-0.4819288047784961,0.6892517366151626 -0.8535912633848375,-0.23911619522150396 -1.781959195221504,0.13254626338483722 -1.4102967366151626,1.060914195221504"/>
<polygon class="face_stroke" points="-0.8535913548848963,-0.2391168100976131 -0.012337823769345224,-0.7797576302227824 0.7113962121458788,-1.4698366440015374 1.291453119132162,-2.2844125978925827 1.7068681292474897,-3.194044594565348 1.942627061673043,-4.165856163637029 1.9902089743270532,-5.1647235029710306 1.8478941329127427,-6.154544944400351 1.520826166596526,-7.099545762077126 1.0208261638483456,-7.965571164274902 0.3659654275048214,-8.721320736551075 -0.4200876691995852,-9.339479720277277 -1.308923119308611,-9.797706239184123 -2.2684160938171374,-10.07943879298077 -3.263888016691864,-10.174494833125996 -4.259359938963306,-10.079438786662857 -5.218852911683774,-9.797706226776643 -6.107688358884596,-9.339479702228669 -6.893741451665765,-8.721320713513663 -7.548602183212809,-7.9655711370813185 -8.048602180464629,-7.099545731710217 -8.375670140783257,-6.1545449119576565 -8.517984975915516,-5.164723469625113 -8.470403056922043,-4.165856130593095 -8.234644118328742,-3.194044563017695 -7.819229102440298,-2.2844125689814248 -7.239172190284186,-1.469836618771799 -6.515438149989272,-0.7797576095863317 -5.674184615442457,-0.23911679480030124 -4.745816681246983,0.13254565791401163 -3.7638879833837193,0.32179689915844367 -2.7638879833837184,0.32179689598511807 -1.7819592867215663,0.13254564850872885"/>
<text class="face_text" text-anchor="middle" dominant-baseline="middle" transform="matrix(0.03249858029228096 0 0 0.03249858029228096 0.0 0.0)">0</text>
<text class="face_text" text-anchor="middle" dominant-baseline="middle" transform="matrix(0.03249858029228096 0 0 0.03249858029228096 1.0 0.0)">32</text>
<text class="face_text" text-anchor="middle" dominant-baseline="middle" transform="matrix(0.03249858029228096 0 0 0.03249858029228096 1.0 5.736237)">34</text>
<text class="face_text" text-anchor="middle" dominant-baseline="middle" transform="matrix(0.03249858029228096 0 0 0.03249858029228096 -1.131944 0.410899)">1</text>
<text class="face_text" text-anchor="middle" dominant-baseline="middle" transform="matrix(0.03249858029228096 0 0 0.03249858029228096 -3.263888 -4.91444)">33</text>
<rect class="edge_bg" x="0.17501419707719024" y="-0.3249858029228097" width="0.6499716058456193" height="0.6499716058456193"/>
<text class="edge_text" text-anchor="middle" dominant-baseline="middle" transform="matrix(0.03249858029228096 0 0 0.03249858029228096 0.4999999999999999 -6.123233995736767e-17)">0</text>
<rect class="edge_bg" x="0.6750141970771906" y="0.17501429950540914" width="0.6499716058456193" height="0.6499716058456193"/>
<text class="edge_text" text-anchor="middle" dominant-baseline="middle" transform="matrix(0.03249858029228096 0 0 0.03249858029228096 1.0000000000000002 0.5000001024282188)">4</text>
<rect class="edge_bg" x="-1.271098573619639" y="0.5500971629955238" width="0.6499716058456193" height="0.6499716058456193"/>
<text class="edge_text" text-anchor="middle" dominant-baseline="middle" transform="matrix(0.03249858029228096 0 0 0.03249858029228096 -0.9461127706968293 0.8750829659183335)">7</text>
<rect class="edge_bg" x="-1.6427611237260398" y="-0.3782713837172522" width="0.6499716058456193" height="0.6499716058456193"/>
<text class="edge_text" text-anchor="middle" dominant-baseline="middle" transform="matrix(0.03249858029228096 0 0 0.03249858029228096 -1.3177753208032301 -0.053285580794442566)">6</text>
</svg>
