<?xml version="1.0" encoding="utf-8"?>
<svg version="1.1" xmlns="http://www.w3.org/2000/svg" viewBox="-10.292119073884326 -10.183645266438596 18.381750146577307 22.188505532877194" style="enable-background:new -10.292119073884326 -10.183645266438596 18.381750146577307 22.188505532877194;">
<style type="text/css">
  .face_stroke {fill:none; stroke:#000000; stroke-width:0.02; stroke-miterlimit:10;}
  .face_text {fill:#000000; font-family:monospace;}
  .edge_text {fill:#ff0000; font-family:monospace;}
  .edge_bg {fill:#f3f3f3; stroke:#606060; stroke-width:0.01;}
</style>
<polygon class="face_stroke" points="0.5000000000000001,-0.5 -0.5,-0.5000000000000001 -0.5000000000000001,0.5 0.4999999999999999,0.5000000000000001"/>
<polygon class="face_stroke" points="0.4999999999999999,0.5 1.5,0.5000000000000001 1.5000000000000007,-0.49999999999999944 0.49999999999999967,-0.4999999999999998"/>
<polygon class="face_stroke" points="1.5,0.5 2.5,0.5000000000000001 2.500000000000001,-0.49999999999999944 1.4999999999999996,-0.4999999999999998"/>
<polygon class="face_stroke" points="1.5000000000000009,0.5000001024282188 0.5180713027372934,0.6892513467886294 -0.41029663027877916,1.0609138024489564 -1.2515501631099606,1.6015546199045545 -1.9752842012150298,2.2916336313866656 -2.5553411107862294,3.1062095834370025 -2.9707561237881146,4.01584157879152 -3.2065150592975424,4.987653147115062 -3.2540969751212847,5.986520486298068 -3.1117821368480003,6.976341928179002 -2.7847141735305785,7.92134274689367 -2.2847141735305794,8.787368150678107 -1.6298534395852933,9.543117725032369 -0.8438003448425087,10.16127671125297 0.04503510381241549,10.619503232980382 1.004528077426909,10.901235789821811 1.9999999999999991,10.996291833125996 2.995471922573085,10.901235789821813 3.9549648961875827,10.619503232980383 4.843800344842511,10.16127671125297 5.629853439585299,9.543117725032364 6.284714173530583,8.787368150678102 6.784714173530584,7.921342746893659 7.111782136848003,6.976341928178988 7.254096975121286,5.9865204862980494 7.20651505929754,4.987653147115045 6.970756123788108,4.015841578791499 6.555341110786217,3.1062095834369816 5.975284201215011,2.2916336313866448 5.251550163109936,1.6015546199045358 4.410296630278747,1.0609138024489404 3.481928697262676,0.6892513467886197 2.4999999999999627,0.5000001024282152"/>
<polygon class="face_stroke" points="-0.41029682414115387,1.0609133543988911 -0.9509376456011089,0.21965982414115404 -1.7921911758588458,0.7603006456011088 -1.2515503543988913,1.6015541758588459"/>
<polygon class="face_stroke" points="-0.950937817208998,0.21966036461810345 -0.22720378238869587,-0.4704186503089747 0.3528531233051302,-1.2849946051203744 0.7682681319771776,-2.194626602452263 1.0040270628607928,-3.1664381718980144 1.0516089739299384,-4.165305511307512 0.9092941309451144,-5.1551269525110275 0.5822261631294996,-6.100127769668856 0.08222615900722907,-6.9661531710733 -0.572634578535415,-7.721902742310428 -1.3586876762206317,-8.340061724789429 -2.2475231270567084,-8.798288242285993 -3.2070161020122496,-9.080020794560248 -4.202488025037799,-9.175076833125996 -5.197959947158419,-9.080020785083379 -6.157452919431872,-8.798288223674774 -7.046288365905642,-8.340061697716516 -7.832341457706,-7.7219027077543085 -8.487202188053926,-6.966153130282921 -8.987202183931654,-6.100127724118488 -9.314270142750884,-5.155126903846982 -9.45658497631263,-4.165305461288634 -9.409003055734292,-3.166438122332112 -9.173244115599054,-2.194626555130781 -8.75782909826733,-1.284994561753635 -8.17777218481876,-0.4704186124643637 -7.454038143428924,0.21966039557278405 -6.612784608024297,0.7603012090240253 -5.684416673239116,1.1319636602653333 -4.702487975075575,1.3212148999517752 -3.7024879750755733,1.3212148951917873 -2.7205592787137,1.131963646157407 -1.7921913474667308,0.7603011860780566"/>
<text class="face_text" text-anchor="middle" dominant-baseline="middle" transform="matrix(0.036763500293154616 0 0 0.036763500293154616 0.0 0.0)">0</text>
<text class="face_text" text-anchor="middle" dominant-baseline="middle" transform="matrix(0.036763500293154616 0 0 0.036763500293154616 1.0 0.0)">32</text>
<text class="face_text" text-anchor="middle" dominant-baseline="middle" transform="matrix(0.036763500293154616 0 0 0.036763500293154616 2.0 0.0)">31</text>
<text class="face_text" text-anchor="middle" dominant-baseline="middle" transform="matrix(0.036763500293154616 0 0 0.036763500293154616 2.0 5.736237)">34</text>
<text class="face_text" text-anchor="middle" dominant-baseline="middle" transform="matrix(0.036763500293154616 0 0 0.036763500293154616 -1.101244 0.910607)">1</text>
<text class="face_text" text-anchor="middle" dominant-baseline="middle" transform="matrix(0.036763500293154616 0 0 0.036763500293154616 -4.202488 -3.915022)">33</text>
<rect class="edge_bg" x="0.13236499706845373" y="-0.3676350029315462" width="0.7352700058630923" height="0.7352700058630923"/>
<text class="edge_text" text-anchor="middle" dominant-baseline="middle" transform="matrix(0.036763500293154616 0 0 0.036763500293154616 0.4999999999999999 -6.123233995736767e-17)">0</text>
<rect class="edge_bg" x="1.132364997068454" y="-0.3676350029315462" width="0.7352700058630923" height="0.7352700058630923"/>
<text class="edge_text" text-anchor="middle" dominant-baseline="middle" transform="matrix(0.036763500293154616 0 0 0.036763500293154616 1.5 -6.123233995736767e-17)">98</text>
<rect class="edge_bg" x="1.6323649970684544" y="0.13236509949667263" width="0.7352700058630923" height="0.7352700058630923"/>
<text class="edge_text" text-anchor="middle" dominant-baseline="middle" transform="matrix(0.036763500293154616 0 0 0.036763500293154616 2.0000000000000004 0.5000001024282188)">97</text>
<rect class="edge_bg" x="-1.1985585922015685" y="0.9635987621973224" width="0.7352700058630923" height="0.7352700058630923"/>
<text class="edge_text" text-anchor="middle" dominant-baseline="middle" transform="matrix(0.036763500293154616 0 0 0.036763500293154616 -0.8309235892700223 1.3312337651288686)">7</text>
<rect class="edge_bg" x="-1.7391995852694113" y="0.12234577241653433" width="0.7352700058630923" height="0.7352700058630923"/>
<text class="edge_text" text-anchor="middle" dominant-baseline="middle" transform="matrix(0.036763500293154616 0 0 0.036763500293154616 -1.3715645823378653 0.4899807753480805)">6</text>
</svg>
