<?xml version="1.0" encoding="utf-8"?>
<svg version="1.1" xmlns="http://www.w3.org/2000/svg" viewBox="-11.0922653243013 -8.767994316438596 20.267617647014138 20.705442632877194" style="enable-background:new -11.0922653243013 -8.767994316438596 20.267617647014138 20.705442632877194;">
<style type="text/css">
  .face_stroke {fill:none; stroke:#000000; stroke-width:0.02; stroke-miterlimit:10;}
  .face_text {fill:#000000; font-family:monospace;}
  .edge_text {fill:#ff0000; font-family:monospace;}
  .edge_bg {fill:#f3f3f3; stroke:#606060; stroke-width:0.01;}
</style>
<polygon class="face_stroke" points="0.5000000000000001,-0.5 -0.5,-0.5000000000000001 -0.5000000000000001,0.5 0.4999999999999999,0.5000000000000001"/>
<polygon class="face_stroke" points="0.4999999999999999,0.5 1.5,0.5000000000000001 1.5000000000000007,-0.49999999999999944 0.49999999999999967,-0.4999999999999998"/>
<polygon class="face_stroke" points="1.5,0.5 2.5,0.5000000000000001 2.500000000000001,-0.49999999999999944 1.4999999999999996,-0.4999999999999998"/>
<polygon class="face_stroke" points="2.5,0.5 3.5,0.5000000000000001 3.500000000000001,-0.49999999999999944 2.4999999999999996,-0.4999999999999998"/>
<polygon class="face_stroke" points="2.500000000000001,0.5000001024282188 1.5180713027372934,0.6892513467886294 0.5897033697212208,1.0609138024489564 -0.2515501631099606,1.6015546199045545 -0.9752842012150298,2.2916336313866656 -1.5553411107862294,3.1062095834370025 -1.9707561237881146,4.01584157879152 -2.2065150592975424,4.987653147115062 -2.2540969751212847,5.986520486298068 -2.1117821368480003,6.976341928179002 -1.7847141735305785,7.92134274689367 -1.2847141735305794,8.787368150678107 -0.6298534395852933,9.543117725032369 0.15619965515749135,10.16127671125297 1.0450351038124155,10.619503232980382 2.004528077426909,10.901235789821811 2.999999999999999,10.996291833125996 3.995471922573085,10.901235789821813 4.954964896187583,10.619503232980383 5.843800344842511,10.16127671125297 6.629853439585299,9.543117725032364 7.284714173530583,8.787368150678102 7.784714173530584,7.921342746893659 8.111782136848003,6.976341928178988 8.254096975121286,5.9865204862980494 8.20651505929754,4.987653147115045 7.970756123788108,4.015841578791499 7.555341110786217,3.1062095834369816 6.975284201215011,2.2916336313866448 6.251550163109936,1.6015546199045358 5.410296630278747,1.0609138024489404 4.481928697262676,0.6892513467886197 3.4999999999999627,0.5000001024282152"/>
<polygon class="face_stroke" points="-0.2515504750996105,1.6015545088249894 -0.9416294911750104,0.8778204750996105 -1.6653635249003895,1.5678994911750106 -0.9752845088249895,2.2916335249003894"/>
<polygon class="face_stroke" points="-0.9416287769232712,0.8778203433835889 -0.36157187252190326,0.06324438765183382 0.05384313470686575,-0.8463876103391783 0.28960206404854283,-1.8181991801589998 0.3371839735328219,-2.8170665196439932 0.19486912897748532,-3.8068879606217036 -0.13219884033752738,-4.751888777260586 -0.632198845833889,-5.617914177871698 -1.2870595845756525,-6.373663748069783 -2.0731126832416797,-6.991822729301583 -2.961948134804808,-7.450049245387865 -3.9214411102073634,-7.731781796139726 -4.916913033383734,-7.826837833125996 -5.912384955353533,-7.7317817835039 -6.87187792717997,-7.450049220572903 -7.7607133729266895,-6.991822693204364 -8.546766463746238,-6.373663701994953 -9.201627192895042,-5.617914123484524 -9.701627187398682,-4.751888716526759 -10.028695144718512,-3.8068878957363053 -10.171009976709747,-2.8170664529521487 -10.123428054546542,-1.8181991140711258 -9.887669112869366,-0.8463875472438651 -9.472254094094362,0.06324444547415942 -8.892197179353335,0.8778203938430753 -8.168463136868574,1.567899400731899 -7.327209600606135,2.1085402128483546 -6.39884166523125,2.480202662616655 -5.41691296676743,2.669453900745106 -4.416912966767429,2.6694538943984547 -3.4349842707058285,2.4802026438060834 -2.5066163400485677,2.1085401822537273 -1.6653628106486456,1.567899359458985"/>
<text class="face_text" text-anchor="middle" dominant-baseline="middle" transform="matrix(0.04053523529402828 0 0 0.04053523529402828 0.0 0.0)">0</text>
<text class="face_text" text-anchor="middle" dominant-baseline="middle" transform="matrix(0.04053523529402828 0 0 0.04053523529402828 1.0 0.0)">32</text>
<text class="face_text" text-anchor="middle" dominant-baseline="middle" transform="matrix(0.04053523529402828 0 0 0.04053523529402828 2.0 0.0)">31</text>
<text class="face_text" text-anchor="middle" dominant-baseline="middle" transform="matrix(0.04053523529402828 0 0 0.04053523529402828 3.0 0.0)">30</text>
<text class="face_text" text-anchor="middle" dominant-baseline="middle" transform="matrix(0.04053523529402828 0 0 0.04053523529402828 3.0 5.736237)">34</text>
<text class="face_text" text-anchor="middle" dominant-baseline="middle" transform="matrix(0.04053523529402828 0 0 0.04053523529402828 -0.958457 1.584727)">1</text>
<text class="face_text" text-anchor="middle" dominant-baseline="middle" transform="matrix(0.04053523529402828 0 0 0.04053523529402828 -4.916913 -2.566783)">33</text>
<rect class="edge_bg" x="0.09464764705971712" y="-0.4053523529402828" width="0.8107047058805655" height="0.8107047058805655"/>
<text class="edge_text" text-anchor="middle" dominant-baseline="middle" transform="matrix(0.04053523529402828 0 0 0.04053523529402828 0.4999999999999999 -6.123233995736767e-17)">0</text>
<rect class="edge_bg" x="1.0946476470597173" y="-0.4053523529402828" width="0.8107047058805655" height="0.8107047058805655"/>
<text class="edge_text" text-anchor="middle" dominant-baseline="middle" transform="matrix(0.04053523529402828 0 0 0.04053523529402828 1.5 -6.123233995736767e-17)">98</text>
<rect class="edge_bg" x="2.094647647059717" y="-0.4053523529402828" width="0.8107047058805655" height="0.8107047058805655"/>
<text class="edge_text" text-anchor="middle" dominant-baseline="middle" transform="matrix(0.04053523529402828 0 0 0.04053523529402828 2.5 -6.123233995736767e-17)">95</text>
<rect class="edge_bg" x="2.5946476470597175" y="0.09464774948793603" width="0.8107047058805655" height="0.8107047058805655"/>
<text class="edge_text" text-anchor="middle" dominant-baseline="middle" transform="matrix(0.04053523529402828 0 0 0.04053523529402828 3.0000000000000004 0.5000001024282188)">94</text>
<rect class="edge_bg" x="-1.0187698449025826" y="1.541241663922407" width="0.8107047058805655" height="0.8107047058805655"/>
<text class="edge_text" text-anchor="middle" dominant-baseline="middle" transform="matrix(0.04053523529402828 0 0 0.04053523529402828 -0.6134174919622999 1.9465940168626896)">7</text>
<rect class="edge_bg" x="-1.708848146726243" y="0.8175074984810065" width="0.8107047058805655" height="0.8107047058805655"/>
<text class="edge_text" text-anchor="middle" dominant-baseline="middle" transform="matrix(0.04053523529402828 0 0 0.04053523529402828 -1.3034957937859604 1.2228598514212892)">6</text>
</svg>
