<?xml version="1.0" encoding="utf-8"?>
<svg version="1.1" xmlns="http://www.w3.org/2000/svg" viewBox="-11.591967724718268 -7.037245716438596 21.83873444745096 18.892277432877194" style="enable-background:new -11.591967724718268 -7.037245716438596 21.83873444745096 18.892277432877194;">
<style type="text/css">
  .face_stroke {fill:none; stroke:#000000; stroke-width:0.02; stroke-miterlimit:10;}
  .face_text {fill:#000000; font-family:monospace;}
  .edge_text {fill:#ff0000; font-family:monospace;}
  .edge_bg {fill:#f3f3f3; stroke:#606060; stroke-width:0.01;}
</style>
<polygon class="face_stroke" points="0.5000000000000001,-0.5 -0.5,-0.5000000000000001 -0.5000000000000001,0.5 0.4999999999999999,0.5000000000000001"/>
<polygon class="face_stroke" points="0.4999999999999999,0.5 1.5,0.5000000000000001 1.5000000000000007,-0.49999999999999944 0.49999999999999967,-0.4999999999999998"/>
<polygon class="face_stroke" points="1.5,0.5 2.5,0.5000000000000001 2.500000000000001,-0.49999999999999944 1.4999999999999996,-0.4999999999999998"/>
<polygon class="face_stroke" points="2.5,0.5 3.5,0.5000000000000001 3.500000000000001,-0.49999999999999944 2.4999999999999996,-0.4999999999999998"/>
<polygon class="face_stroke" points="3.5,0.5 4.5,0.5000000000000001 4.500000000000001,-0.49999999999999944 3.4999999999999996,-0.4999999999999998"/>
<polygon class="face_stroke" points="3.500000000000001,0.5000001024282188 2.5180713027372934,0.6892513467886294 1.5897033697212208,1.0609138024489564 0.7484498368900394,1.6015546199045545 0.02471579878497021,2.2916336313866656 -0.5553411107862294,3.1062095834370025 -0.9707561237881146,4.01584157879152 -1.2065150592975424,4.987653147115062 -1.2540969751212847,5.986520486298068 -1.1117821368480003,6.976341928179002 -0.7847141735305785,7.92134274689367 -0.2847141735305794,8.787368150678107 0.3701465604147067,9.543117725032369 1.1561996551574913,10.16127671125297 2.0450351038124155,10.619503232980382 3.004528077426909,10.901235789821811 3.999999999999999,10.996291833125996 4.995471922573085,10.901235789821813 5.954964896187583,10.619503232980383 6.843800344842511,10.16127671125297 7.629853439585299,9.543117725032364 8.284714173530583,8.787368150678102 8.784714173530585,7.921342746893659 9.111782136848003,6.976341928178988 9.254096975121286,5.9865204862980494 9.20651505929754,4.987653147115045 8.970756123788108,4.015841578791499 8.555341110786216,3.1062095834369816 7.975284201215011,2.2916336313866448 7.251550163109936,1.6015546199045358 6.410296630278747,1.0609138024489404 5.481928697262676,0.6892513467886197 4.499999999999963,0.5000001024282152"/>
<polygon class="face_stroke" points="0.024715429880510342,2.2916334732284005 -0.7898605267715996,1.7115765701194898 -1.3699174298805104,2.5261525267715994 -0.5553414732284008,3.1062094298805105"/>
<polygon class="face_stroke" points="-0.7898598683489366,1.711576380424043 -0.3744448625634469,0.801944381773907 -0.13868593476370705,-0.16986718841998427 -0.09110402686429353,-1.1687345279804744 -0.23341887299014363,-2.1585559687323785 -0.5604868438045543,-3.103556784852314 -1.060486850675006,-3.969582184670095 -1.7153475906158895,-4.725331753829137 -2.5014006902627264,-5.343490733813735 -3.3902361425529053,-5.801717248489735 -4.349729118402475,-6.083449797719205 -5.345201041729668,-6.178505833125996 -6.340672963548644,-6.083449781924421 -7.300165934928067,-5.801717217471033 -8.189001379947737,-5.343490688692212 -8.975054469786475,-4.7253316962356 -9.62991519773616,-3.969582116686127 -10.12991519086571,-3.103556708935031 -10.456983146686142,-2.1585558876256306 -10.599297977106861,-1.1687344446156684 -10.551716053358792,-0.16986710581014197 -10.315957110139678,0.8019444606430485 -9.900542089921396,1.711576452701948 -9.320485173887912,2.526152400150511 -8.596751130308231,3.216231405891011 -7.755497593187972,3.756872216672684 -6.827129657223388,4.128534664967975 -5.84520095845929,4.317785901538437 -4.845200958459289,4.317785893605124 -3.863272262697971,4.128534641454764 -2.9349043326304085,3.7568721784294006 -2.0936508040883006,3.2162313542998726 -1.3699167714578446,2.5261523370761494"/>
<text class="face_text" text-anchor="middle" dominant-baseline="middle" transform="matrix(0.03778455486575439 0 0 0.03778455486575439 0.0 0.0)">0</text>
<text class="face_text" text-anchor="middle" dominant-baseline="middle" transform="matrix(0.03778455486575439 0 0 0.03778455486575439 1.0 0.0)">32</text>
<text class="face_text" text-anchor="middle" dominant-baseline="middle" transform="matrix(0.03778455486575439 0 0 0.03778455486575439 2.0 0.0)">31</text>
<text class="face_text" text-anchor="middle" dominant-baseline="middle" transform="matrix(0.03778455486575439 0 0 0.03778455486575439 3.0 0.0)">30</text>
<text class="face_text" text-anchor="middle" dominant-baseline="middle" transform="matrix(0.03778455486575439 0 0 0.03778455486575439 4.0 0.0)">29</text>
<text class="face_text" text-anchor="middle" dominant-baseline="middle" transform="matrix(0.03778455486575439 0 0 0.03778455486575439 4.0 5.736237)">34</text>
<text class="face_text" text-anchor="middle" dominant-baseline="middle" transform="matrix(0.03778455486575439 0 0 0.03778455486575439 -0.672601 2.408893)">1</text>
<text class="face_text" text-anchor="middle" dominant-baseline="middle" transform="matrix(0.03778455486575439 0 0 0.03778455486575439 -5.345201 -0.918451)">33</text>
<rect class="edge_bg" x="0.122154451342456" y="-0.37784554865754394" width="0.7556910973150878" height="0.7556910973150878"/>
<text class="edge_text" text-anchor="middle" dominant-baseline="middle" transform="matrix(0.03778455486575439 0 0 0.03778455486575439 0.4999999999999999 -6.123233995736767e-17)">0</text>
<rect class="edge_bg" x="1.1221544513424562" y="-0.37784554865754394" width="0.7556910973150878" height="0.7556910973150878"/>
<text class="edge_text" text-anchor="middle" dominant-baseline="middle" transform="matrix(0.03778455486575439 0 0 0.03778455486575439 1.5 -6.123233995736767e-17)">98</text>
<rect class="edge_bg" x="2.122154451342456" y="-0.37784554865754394" width="0.7556910973150878" height="0.7556910973150878"/>
<text class="edge_text" text-anchor="middle" dominant-baseline="middle" transform="matrix(0.03778455486575439 0 0 0.03778455486575439 2.5 -6.123233995736767e-17)">95</text>
<rect class="edge_bg" x="3.122154451342456" y="-0.37784554865754394" width="0.7556910973150878" height="0.7556910973150878"/>
<text class="edge_text" text-anchor="middle" dominant-baseline="middle" transform="matrix(0.03778455486575439 0 0 0.03778455486575439 3.5 -6.123233995736767e-17)">92</text>
<rect class="edge_bg" x="3.622154451342456" y="0.12215455377067491" width="0.7556910973150878" height="0.7556910973150878"/>
<text class="edge_text" text-anchor="middle" dominant-baseline="middle" transform="matrix(0.03778455486575439 0 0 0.03778455486575439 4.0 0.5000001024282188)">91</text>
<rect class="edge_bg" x="-0.6431585703314889" y="2.3210759028969115" width="0.7556910973150878" height="0.7556910973150878"/>
<text class="edge_text" text-anchor="middle" dominant-baseline="middle" transform="matrix(0.03778455486575439 0 0 0.03778455486575439 -0.26531302167394505 2.6989214515544555)">7</text>
<rect class="edge_bg" x="-1.4577338685609351" y="1.7410188100925545" width="0.7556910973150878" height="0.7556910973150878"/>
<text class="edge_text" text-anchor="middle" dominant-baseline="middle" transform="matrix(0.03778455486575439 0 0 0.03778455486575439 -1.0798883199033913 2.1188643587500984)">6</text>
</svg>
