<?xml version="1.0" encoding="utf-8"?>
<svg version="1.1" xmlns="http://www.w3.org/2000/svg" viewBox="-11.737022120548557 -5.053953216438596 23.038315243082693 16.814542432877193" style="enable-background:new -11.737022120548557 -5.053953216438596 23.038315243082693 16.814542432877193;">
<style type="text/css">
  .face_stroke {fill:none; stroke:#000000; stroke-width:0.02; stroke-miterlimit:10;}
  .face_text {fill:#000000; font-family:monospace;}
  .edge_text {fill:#ff0000; font-family:monospace;}
  .edge_bg {fill:#f3f3f3; stroke:#606060; stroke-width:0.01;}
</style>
<polygon class="face_stroke" points="0.5000000000000001,-0.5 -0.5,-0.5000000000000001 -0.5000000000000001,0.5 0.4999999999999999,0.5000000000000001"/>
<polygon class="face_stroke" points="0.4999999999999999,0.5 1.5,0.5000000000000001 1.5000000000000007,-0.49999999999999944 0.49999999999999967,-0.4999999999999998"/>
<polygon class="face_stroke" points="1.5,0.5 2.5,0.5000000000000001 2.500000000000001,-0.49999999999999944 1.4999999999999996,-0.4999999999999998"/>
<polygon class="face_stroke" points="2.5,0.5 3.5,0.5000000000000001 3.500000000000001,-0.49999999999999944 2.4999999999999996,-0.4999999999999998"/>
<polygon class="face_stroke" points="3.5,0.5 4.5,0.5000000000000001 4.500000000000001,-0.49999999999999944 3.4999999999999996,-0.4999999999999998"/>
<polygon class="face_stroke" points="4.5,0.5 5.5,0.5000000000000001 5.500000000000001,-0.49999999999999944 4.5,-0.4999999999999998"/>
<polygon class="face_stroke" points="4.500000000000001,0.5000001024282188 3.5180713027372934,0.6892513467886294 2.589703369721221,1.0609138024489564 1.7484498368900394,1.6015546199045545 1.0247157987849702,2.2916336313866656 0.4446588892137706,3.1062095834370025 0.0292438762118854,4.01584157879152 -0.20651505929754244,4.987653147115062 -0.2540969751212847,5.986520486298068 -0.11178213684800031,6.976341928179002 0.21528582646942152,7.92134274689367 0.7152858264694206,8.787368150678107 1.3701465604147067,9.543117725032369 2.1561996551574913,10.16127671125297 3.0450351038124155,10.619503232980382 4.004528077426909,10.901235789821811 4.999999999999999,10.996291833125996 5.995471922573085,10.901235789821813 6.954964896187583,10.619503232980383 7.843800344842511,10.16127671125297 8.629853439585299,9.543117725032364 9.284714173530583,8.787368150678102 9.784714173530585,7.921342746893659 10.111782136848003,6.976341928178988 10.254096975121286,5.9865204862980494 10.20651505929754,4.987653147115045 9.970756123788108,4.015841578791499 9.555341110786216,3.1062095834369816 8.975284201215011,2.2916336313866448 8.251550163109936,1.6015546199045358 7.410296630278747,1.0609138024489404 6.481928697262676,0.6892513467886197 5.499999999999963,0.5000001024282152"/>
<polygon class="face_stroke" points="0.4446585061385918,3.1062095140796915 -0.4649734859203084,2.690794493861408 -0.8803885061385918,3.600426485920308 0.02924348592030812,4.0158415061385915"/>
<polygon class="face_stroke" points="-0.4649728898603236,2.6907944606430525 -0.22921394664120953,1.718982894189861 -0.1816320228931385,0.7201155553843355 -0.3239468533138581,-0.26970588762562553 -0.6510148091342902,-1.2147067089350272 -1.1510148022638385,-2.0807321166861232 -1.8058755302135232,-2.8364816962355968 -2.591928620052261,-3.454640688692209 -3.480764065071929,-3.9128672174710313 -4.440257036451353,-4.1945997819244205 -5.435728958270327,-4.289655833125996 -6.43120088159752,-4.194599797719206 -7.390693857447092,-3.912867248489736 -8.27952930973727,-3.4546407338137377 -9.065582409384108,-2.836481753829139 -9.720443149324993,-2.0807321846700986 -10.220443156195445,-1.2147067848523165 -10.547511127009855,-0.26970596873238306 -10.689825973135708,0.7201154720195199 -10.642244065236294,1.7189828115800134 -10.406485137436555,2.6907943817739035 -9.991070131651067,3.600426380424039 -9.411013228542156,4.415002337076149 -8.687279195911701,5.105081354299871 -7.846025667369593,5.6457221784293985 -6.91765773730204,6.017384641454761 -5.935729041540718,6.206635893605123 -4.935729041540717,6.206635901538439 -3.9538003427766197,6.017384664967977 -3.025432406812027,5.645722216672683 -2.1841788696917717,5.1050814058910134 -1.460444826112088,4.415002400150509 -0.8803879100786025,3.600426452701946"/>
<text class="face_text" text-anchor="middle" dominant-baseline="middle" transform="matrix(0.03362908486575439 0 0 0.03362908486575439 0.0 0.0)">0</text>
<text class="face_text" text-anchor="middle" dominant-baseline="middle" transform="matrix(0.03362908486575439 0 0 0.03362908486575439 1.0 0.0)">32</text>
<text class="face_text" text-anchor="middle" dominant-baseline="middle" transform="matrix(0.03362908486575439 0 0 0.03362908486575439 2.0 0.0)">31</text>
<text class="face_text" text-anchor="middle" dominant-baseline="middle" transform="matrix(0.03362908486575439 0 0 0.03362908486575439 3.0 0.0)">30</text>
<text class="face_text" text-anchor="middle" dominant-baseline="middle" transform="matrix(0.03362908486575439 0 0 0.03362908486575439 4.0 0.0)">29</text>
<text class="face_text" text-anchor="middle" dominant-baseline="middle" transform="matrix(0.03362908486575439 0 0 0.03362908486575439 5.0 0.0)">28</text>
<text class="face_text" text-anchor="middle" dominant-baseline="middle" transform="matrix(0.03362908486575439 0 0 0.03362908486575439 5.0 5.736237)">34</text>
<text class="face_text" text-anchor="middle" dominant-baseline="middle" transform="matrix(0.03362908486575439 0 0 0.03362908486575439 -0.217865 3.353318)">1</text>
<text class="face_text" text-anchor="middle" dominant-baseline="middle" transform="matrix(0.03362908486575439 0 0 0.03362908486575439 -5.435729 0.970399)">33</text>
<rect class="edge_bg" x="0.163709151342456" y="-0.33629084865754394" width="0.6725816973150878" height="0.6725816973150878"/>
<text class="edge_text" text-anchor="middle" dominant-baseline="middle" transform="matrix(0.03362908486575439 0 0 0.03362908486575439 0.4999999999999999 -6.123233995736767e-17)">0</text>
<rect class="edge_bg" x="1.1637091513424562" y="-0.33629084865754394" width="0.6725816973150878" height="0.6725816973150878"/>
<text class="edge_text" text-anchor="middle" dominant-baseline="middle" transform="matrix(0.03362908486575439 0 0 0.03362908486575439 1.5 -6.123233995736767e-17)">98</text>
<rect class="edge_bg" x="2.1637091513424562" y="-0.33629084865754394" width="0.6725816973150878" height="0.6725816973150878"/>
<text class="edge_text" text-anchor="middle" dominant-baseline="middle" transform="matrix(0.03362908486575439 0 0 0.03362908486575439 2.5 -6.123233995736767e-17)">95</text>
<rect class="edge_bg" x="3.1637091513424562" y="-0.33629084865754394" width="0.6725816973150878" height="0.6725816973150878"/>
<text class="edge_text" text-anchor="middle" dominant-baseline="middle" transform="matrix(0.03362908486575439 0 0 0.03362908486575439 3.5 -6.123233995736767e-17)">92</text>
<rect class="edge_bg" x="4.163709151342456" y="-0.33629084865754394" width="0.6725816973150878" height="0.6725816973150878"/>
<text class="edge_text" text-anchor="middle" dominant-baseline="middle" transform="matrix(0.03362908486575439 0 0 0.03362908486575439 4.5 -6.123233995736767e-17)">89</text>
<rect class="edge_bg" x="4.663709151342456" y="0.1637092537706749" width="0.6725816973150878" height="0.6725816973150878"/>
<text class="edge_text" text-anchor="middle" dominant-baseline="middle" transform="matrix(0.03362908486575439 0 0 0.03362908486575439 5.0 0.5000001024282188)">88</text>
<rect class="edge_bg" x="-0.09933985262809361" y="3.2247346614515977" width="0.6725816973150878" height="0.6725816973150878"/>
<text class="edge_text" text-anchor="middle" dominant-baseline="middle" transform="matrix(0.03362908486575439 0 0 0.03362908486575439 0.23695099602945027 3.5610255101091415)">7</text>
<rect class="edge_bg" x="-1.008971248627009" y="2.809319608014959" width="0.6725816973150878" height="0.6725816973150878"/>
<text class="edge_text" text-anchor="middle" dominant-baseline="middle" transform="matrix(0.03362908486575439 0 0 0.03362908486575439 -0.6726803999694653 3.145610456672503)">6</text>
</svg>
