<?xml version="1.0" encoding="utf-8"?>
<svg version="1.1" xmlns="http://www.w3.org/2000/svg" viewBox="-11.878231866438595 -5.888065672653271 23.96378673287719 13.947311345703655" style="enable-background:new -11.878231866438595 -5.888065672653271 23.96378673287719 13.947311345703655;">
<style type="text/css">
  .face_stroke {fill:none; stroke:#000000; stroke-width:0.02; stroke-miterlimit:10;}
  .face_text {fill:#000000; font-family:monospace;}
  .edge_text {fill:#ff0000; font-family:monospace;}
  .edge_bg {fill:#f3f3f3; stroke:#606060; stroke-width:0.01;}
</style>
<polygon class="face_stroke" points="0.5000000000000001,-0.5 -0.5,-0.5000000000000001 -0.5000000000000001,0.5 0.4999999999999999,0.5000000000000001"/>
<polygon class="face_stroke" points="0.5000001024282188,0.49999999999999983 0.6892513467886294,1.4819286972627075 1.0609138024489564,2.4102966302787787 1.6015546199045545,3.2515501631099606 2.2916336313866656,3.97528420121503 3.106209583437,4.555341110786228 4.01584157879152,4.970756123788115 4.987653147115061,5.206515059297542 5.986520486298071,5.254096975121285 6.976341928179004,5.111782136847999 7.921342746893678,4.784714173530575 8.787368150678116,4.284714173530573 9.543117725032374,3.6298534395852866 10.161276711252981,2.843800344842493 10.619503232980389,1.9549648961875676 10.901235789821818,0.9954719225730639 10.996291833125996,-1.739912689394195e-14 10.901235789821808,-0.9954719225731071 10.619503232980374,-1.954964896187604 10.161276711252956,-2.8438003448425304 9.543117725032348,-3.6298534395853146 8.78736815067808,-4.284714173530599 7.921342746893641,-4.784714173530591 6.976341928178966,-5.111782136848008 5.986520486298031,-5.2540969751212865 4.987653147115018,-5.206515059297536 4.015841578791477,-4.9707561237881 3.1062095834369576,-4.555341110786203 2.2916336313866306,-3.9752842012149996 1.6015546199045216,-3.251550163109919 1.0609138024489342,-2.410296630278735 0.6892513467886134,-1.481928697262654 0.5000001024282144,-0.49999999999994893"/>
<polygon class="face_stroke" points="0.49999972552201427,0.5000000285595856 -0.48192897144041447,0.6892512744779856 -0.29267772552201465,1.6711799714404143 0.6892509714404143,1.4819287255220148"/>
<polygon class="face_stroke" points="-0.48192834913995064,0.6892512947294285 -0.853590806273286,-0.23911663769694114 -1.3942316250636688,-1.0803701696703074 -2.0843106376941023,-1.8041042066804547 -2.898886590664793,-2.3841611149591952 -3.808518586678435,-2.799576126517803 -4.7803301553760456,-3.0353350604852927 -5.77919749463455,-3.0829169747241685 -6.769018936289676,-2.9406021348803715 -7.714019754485399,-2.6135341700635526 -8.580045157476505,-2.1135341686894633 -9.33579473079172,-1.4586734335450582 -9.953953715765124,-0.6726203378214604 -10.412180236082254,0.21621511156051287 -10.693912791401292,1.1757080856220254 -10.788968833125995,2.1711800083459303 -10.693912788242336,3.1666519307681917 -10.412180229878516,4.126144903935676 -9.953953706740823,5.014980351863549 -9.335794719273018,5.801033445625526 -8.580045143879719,6.45589417837169 -7.7140197393019445,6.955894176997603 -6.76901892006833,7.282962138815627 -5.77919747796159,7.4252769755184005 -4.780330138854073,7.377695058109792 -3.8085185709046008,7.141936121058425 -2.8988865762092058,6.726521106613259 -2.0843106250792247,6.146464195749601 -1.394231614745432,5.422730156549603 -0.8535907986246221,4.581476622860604 -0.48192834443730437,3.653108689254827 -0.2926771016348866,2.671179991691836 -0.2926771032215525,1.6711799916918402"/>
<polygon class="face_stroke" points="-0.853591354398891,-0.23911682414115398 -0.01233782414115403,-0.779757645601109 -0.5529786456011091,-1.621011175858846 -1.3942321758588458,-1.0803703543988912"/>
<text class="face_text" text-anchor="middle" dominant-baseline="middle" transform="matrix(0.02789462269140731 0 0 0.02789462269140731 0.0 0.0)">0</text>
<text class="face_text" text-anchor="middle" dominant-baseline="middle" transform="matrix(0.02789462269140731 0 0 0.02789462269140731 5.736237 0.0)">33</text>
<text class="face_text" text-anchor="middle" dominant-baseline="middle" transform="matrix(0.02789462269140731 0 0 0.02789462269140731 0.103661 1.08559)">32</text>
<text class="face_text" text-anchor="middle" dominant-baseline="middle" transform="matrix(0.02789462269140731 0 0 0.02789462269140731 -5.528914 2.17118)">34</text>
<text class="face_text" text-anchor="middle" dominant-baseline="middle" transform="matrix(0.02789462269140731 0 0 0.02789462269140731 -0.703285 -0.930064)">1</text>
<rect class="edge_bg" x="0.22105387551414568" y="-0.2789462269140738" width="0.5578924538281462" height="0.5578924538281462"/>
<text class="edge_text" text-anchor="middle" dominant-baseline="middle" transform="matrix(0.02789462269140731 0 0 0.02789462269140731 0.5000001024282188 -6.412540756188549e-16)">1</text>
<rect class="edge_bg" x="0.3156791215671414" y="0.7120181501267269" width="0.5578924538281462" height="0.5578924538281462"/>
<text class="edge_text" text-anchor="middle" dominant-baseline="middle" transform="matrix(0.02789462269140731 0 0 0.02789462269140731 0.5946253484812145 0.9909643770408)">2</text>
<rect class="edge_bg" x="-0.6662489530948233" y="0.9012694162965696" width="0.5578924538281462" height="0.5578924538281462"/>
<text class="edge_text" text-anchor="middle" dominant-baseline="middle" transform="matrix(0.02789462269140731 0 0 0.02789462269140731 -0.38730272618075023 1.1802156432106428)">4</text>
<rect class="edge_bg" x="-1.4028579920429416" y="-0.9386898161840954" width="0.5578924538281462" height="0.5578924538281462"/>
<text class="edge_text" text-anchor="middle" dominant-baseline="middle" transform="matrix(0.02789462269140731 0 0 0.02789462269140731 -1.1239117651288686 -0.6597435892700223)">7</text>
</svg>
