<?xml version="1.0" encoding="utf-8"?>
<svg version="1.1" xmlns="http://www.w3.org/2000/svg" viewBox="-8.915499371286971 -10.473180707903303 15.558624740600877 21.82435641580661" style="enable-background:new -8.915499371286971 -10.473180707903303 15.558624740600877 21.82435641580661;">
<style type="text/css">
  .face_stroke {fill:none; stroke:#000000; stroke-width:0.02; stroke-miterlimit:10;}
  .face_text {fill:#000000; font-family:monospace;}
  .edge_text {fill:#ff0000; font-family:monospace;}
  .edge_bg {fill:#f3f3f3; stroke:#606060; stroke-width:0.01;}
</style>
<polygon class="face_stroke" points="0.5000000000000001,-0.5 -0.5,-0.5000000000000001 -0.5000000000000001,0.5 0.4999999999999999,0.5000000000000001"/>
<polygon class="face_stroke" points="0.4999999999999999,0.5 1.5,0.5000000000000001 1.5000000000000007,-0.49999999999999944 0.49999999999999967,-0.4999999999999998"/>
<polygon class="face_stroke" points="0.4999999999999992,0.49999962292919786 -0.47952994125249404,0.7012981430178575 -1.3984877528727244,1.0956539981311764 -2.219251194080001,1.666922213225968 -2.9082181131556895,2.39171500045509 -3.4371821234826507,3.2403592579498404 -3.784487376327472,4.178111390096923 -3.935915153832048,5.166579714425034 -3.8852659849933344,6.16529622159609 -3.6346134527346123,7.133373340462294 -3.194219301176977,8.031177880033036 -2.5821133186293124,8.821953616970735 -1.8233551959365193,9.473326099692956 -0.9490085797919365,9.958628062224037 0.0051306766081127275,10.257991185197392 1.0000000000000078,10.359159507184824 1.9948693233919028,10.25799118519739 2.9490085797919514,9.95862806222403 3.8233551959365357,9.473326099692944 4.582113318629325,8.82195361697072 5.194219301176989,8.031177880033017 5.6346134527346186,7.1333733404622786 5.885265984993337,6.165296221596069 5.935915153832047,5.1665797144250165 5.7844873763274665,4.178111390096902 5.4371821234826445,3.2403592579498266 4.908218113155677,2.391715000455074 4.2192511940799875,1.6669222132259565 3.3984877528727053,1.0956539981311648 2.479529941252477,0.7012981430178522 1.4999999999999774,0.4999996229291952"/>
<polygon class="face_stroke" points="-0.4795301687007164,0.7012989834293119 -0.8738860165706882,-0.21765883129928365 -1.7928438312992836,0.1766970165706881 -1.3984879834293116,1.0956548312992838"/>
<polygon class="face_stroke" points="-0.8738862811879144,-0.21765897922597954 -0.0531228354778257,-0.7889271878514061 0.6358440893107726,-1.5137199696499977 1.1648081063268618,-2.3623642229753843 1.5121133665631676,-3.3001163523849586 1.6635411518589818,-4.2885846755194965 1.612891990892285,-5.287301183089773 1.362239466264076,-6.2553783039316535 0.9218453217830556,-7.153182846973641 0.3097393454683912,-7.94395858873604 -0.4490187720901959,-8.595331077438892 -1.3233653844095636,-9.080633046861688 -2.277504638449993,-9.3799961773557 -3.2723739610444658,-9.481164507184822 -4.267243285233783,-9.379996193039082 -5.22138254399345,-9.080633077586377 -6.095729163963247,-8.595331121947012 -6.8544872917902415,-7.943958645205421 -7.466593280570905,-7.1531829130924205 -7.906987439205153,-6.255378376992924 -8.157639979094386,-5.287301260102394 -8.208289155805113,-4.288584753330565 -8.056861386091773,-3.300116427808878 -7.709556140638439,-2.362364292924292 -7.1805921370006,-1.5137200312601755 -6.491625223637826,-0.7889272386005279 -5.670861786933361,-0.2176590170363708 -4.75190397842149,0.17669684532029528 -3.772374038755657,0.3779953731297372 -2.772374038755657,0.3779953810118677 -1.7928440959165017,0.17669686864399026"/>
<text class="face_text" text-anchor="middle" dominant-baseline="middle" transform="matrix(0.031117249481201755 0 0 0.031117249481201755 0.0 0.0)">0</text>
<text class="face_text" text-anchor="middle" dominant-baseline="middle" transform="matrix(0.031117249481201755 0 0 0.031117249481201755 1.0 0.0)">30</text>
<text class="face_text" text-anchor="middle" dominant-baseline="middle" transform="matrix(0.031117249481201755 0 0 0.031117249481201755 1.0 5.416901)">32</text>
<text class="face_text" text-anchor="middle" dominant-baseline="middle" transform="matrix(0.031117249481201755 0 0 0.031117249481201755 -1.136187 0.438998)">1</text>
<text class="face_text" text-anchor="middle" dominant-baseline="middle" transform="matrix(0.031117249481201755 0 0 0.031117249481201755 -3.272374 -4.538906)">31</text>
<rect class="edge_bg" x="0.18882750518798236" y="-0.3111724948120176" width="0.6223449896240351" height="0.6223449896240351"/>
<text class="edge_text" text-anchor="middle" dominant-baseline="middle" transform="matrix(0.031117249481201755 0 0 0.031117249481201755 0.4999999999999999 -6.123233995736767e-17)">0</text>
<rect class="edge_bg" x="0.6888275051879826" y="0.18882712811717944" width="0.6223449896240351" height="0.6223449896240351"/>
<text class="edge_text" text-anchor="middle" dominant-baseline="middle" transform="matrix(0.031117249481201755 0 0 0.031117249481201755 1.0000000000000002 0.499999622929197)">4</text>
<rect class="edge_bg" x="-1.2501815708770316" y="0.5873044125522804" width="0.6223449896240351" height="0.6223449896240351"/>
<text class="edge_text" text-anchor="middle" dominant-baseline="middle" transform="matrix(0.031117249481201755 0 0 0.031117249481201755 -0.9390090760650142 0.8984769073642979)">7</text>
<rect class="edge_bg" x="-1.6445376833642296" y="-0.33165355010300995" width="0.6223449896240351" height="0.6223449896240351"/>
<text class="edge_text" text-anchor="middle" dominant-baseline="middle" transform="matrix(0.031117249481201755 0 0 0.031117249481201755 -1.333365188552212 -0.020481055290992423)">6</text>
</svg>
