<?xml version="1.0" encoding="utf-8"?>
<svg version="1.1" xmlns="http://www.w3.org/2000/svg" viewBox="-9.927964017735453 -9.356171807903305 17.66692103688024 20.654156615806613" style="enable-background:new -9.927964017735453 -9.356171807903305 17.66692103688024 20.654156615806613;">
<style type="text/css">
  .face_stroke {fill:none; stroke:#000000; stroke-width:0.02; stroke-miterlimit:10;}
  .face_text {fill:#000000; font-family:monospace;}
  .edge_text {fill:#ff0000; font-family:monospace;}
  .edge_bg {fill:#f3f3f3; stroke:#606060; stroke-width:0.01;}
</style>
<polygon class="face_stroke" points="0.5000000000000001,-0.5 -0.5,-0.5000000000000001 -0.5000000000000001,0.5 0.4999999999999999,0.5000000000000001"/>
<polygon class="face_stroke" points="0.4999999999999999,0.5 1.5,0.5000000000000001 1.5000000000000007,-0.49999999999999944 0.49999999999999967,-0.4999999999999998"/>
<polygon class="face_stroke" points="1.5,0.5 2.5,0.5000000000000001 2.500000000000001,-0.49999999999999944 1.4999999999999996,-0.4999999999999998"/>
<polygon class="face_stroke" points="1.4999999999999991,0.49999962292919786 0.520470058747506,0.7012981430178575 -0.3984877528727244,1.0956539981311764 -1.2192511940800008,1.666922213225968 -1.9082181131556895,2.39171500045509 -2.4371821234826507,3.2403592579498404 -2.784487376327472,4.178111390096923 -2.935915153832048,5.166579714425034 -2.8852659849933344,6.16529622159609 -2.6346134527346123,7.133373340462294 -2.194219301176977,8.031177880033036 -1.5821133186293124,8.821953616970735 -0.8233551959365193,9.473326099692956 0.050991420208063465,9.958628062224037 1.0051306766081127,10.257991185197392 2.000000000000008,10.359159507184824 2.994869323391903,10.25799118519739 3.9490085797919514,9.95862806222403 4.823355195936536,9.473326099692944 5.582113318629325,8.82195361697072 6.194219301176989,8.031177880033017 6.6346134527346186,7.1333733404622786 6.885265984993337,6.165296221596069 6.935915153832047,5.1665797144250165 6.7844873763274665,4.178111390096902 6.4371821234826445,3.2403592579498266 5.908218113155677,2.391715000455074 5.2192511940799875,1.6669222132259565 4.398487752872706,1.0956539981311648 3.479529941252477,0.7012981430178522 2.4999999999999774,0.4999996229291952"/>
<polygon class="face_stroke" points="-0.3984881711466248,1.0956546091376071 -0.9697563908623926,0.27489117114662487 -1.790519828853375,0.8461593908623928 -1.219251609137607,1.666922828853375"/>
<polygon class="face_stroke" points="-0.9697557848072642,0.2748907686493438 -0.2807888698122296,-0.4499020224587249 0.24817513573678607,-1.2985462829315932 0.5954803833019735,-2.2362984170340354 0.7469081552413801,-3.2247667422146993 0.696258980779799,-4.2234832491005925 0.4456064430707132,-5.191560366555599 0.005212286458355031,-6.089364903646881 -0.6068937005414505,-6.880140637138365 -1.3656518269015296,-7.531513115588707 -2.239998445778407,-8.016815073197135 -3.1941377038638983,-8.316178190798599 -4.1890070278253795,-8.417346507184822 -5.183876350647688,-8.316178179596182 -6.138015605362295,-8.016815051250932 -7.012362218774581,-7.531513083797197 -7.771120337800084,-6.880140596803095 -8.383226315895605,-6.0893648564191825 -8.823620462398516,-5.191560314368978 -9.074272989206872,-4.223483194091574 -9.124922152422716,-3.2247666866353617 -8.973494369352968,-2.236298363159801 -8.626189111228515,-1.2985462329680826 -8.097225096123601,-0.4499019784514471 -7.408258172967262,0.2748908048987242 -6.587494728543691,0.8461590153725402 -5.668536914703199,1.2405148653120377 -4.689006972317374,1.4418133798858501 -3.6890069723173746,1.4418133742557546 -2.70947703219821,1.2405148486522468 -1.790519222798241,0.8461589883651084"/>
<text class="face_text" text-anchor="middle" dominant-baseline="middle" transform="matrix(0.03533384207376048 0 0 0.03533384207376048 0.0 0.0)">0</text>
<text class="face_text" text-anchor="middle" dominant-baseline="middle" transform="matrix(0.03533384207376048 0 0 0.03533384207376048 1.0 0.0)">30</text>
<text class="face_text" text-anchor="middle" dominant-baseline="middle" transform="matrix(0.03533384207376048 0 0 0.03533384207376048 2.0 0.0)">29</text>
<text class="face_text" text-anchor="middle" dominant-baseline="middle" transform="matrix(0.03533384207376048 0 0 0.03533384207376048 2.0 5.416901)">32</text>
<text class="face_text" text-anchor="middle" dominant-baseline="middle" transform="matrix(0.03533384207376048 0 0 0.03533384207376048 -1.094504 0.970907)">1</text>
<text class="face_text" text-anchor="middle" dominant-baseline="middle" transform="matrix(0.03533384207376048 0 0 0.03533384207376048 -4.189007 -3.475088)">31</text>
<rect class="edge_bg" x="0.1466615792623951" y="-0.35333842073760485" width="0.7066768414752096" height="0.7066768414752096"/>
<text class="edge_text" text-anchor="middle" dominant-baseline="middle" transform="matrix(0.03533384207376048 0 0 0.03533384207376048 0.4999999999999999 -6.123233995736767e-17)">0</text>
<rect class="edge_bg" x="1.1466615792623953" y="-0.35333842073760485" width="0.7066768414752096" height="0.7066768414752096"/>
<text class="edge_text" text-anchor="middle" dominant-baseline="middle" transform="matrix(0.03533384207376048 0 0 0.03533384207376048 1.5 -6.123233995736767e-17)">92</text>
<rect class="edge_bg" x="1.6466615792623958" y="0.14666120219159218" width="0.7066768414752096" height="0.7066768414752096"/>
<text class="edge_text" text-anchor="middle" dominant-baseline="middle" transform="matrix(0.03533384207376048 0 0 0.03533384207376048 2.0000000000000004 0.499999622929197)">91</text>
<rect class="edge_bg" x="-1.1622083108797208" y="1.0279502982578865" width="0.7066768414752096" height="0.7066768414752096"/>
<text class="edge_text" text-anchor="middle" dominant-baseline="middle" transform="matrix(0.03533384207376048 0 0 0.03533384207376048 -0.8088698901421159 1.3812887189954912)">7</text>
<rect class="edge_bg" x="-1.7334759245403593" y="0.20718645776962263" width="0.7066768414752096" height="0.7066768414752096"/>
<text class="edge_text" text-anchor="middle" dominant-baseline="middle" transform="matrix(0.03533384207376048 0 0 0.03533384207376048 -1.3801375038027546 0.5605248785072274)">6</text>
</svg>
