<?xml version="1.0" encoding="utf-8"?>
<svg version="1.1" xmlns="http://www.w3.org/2000/svg" viewBox="-10.674381768771312 -7.856920907903305 19.496501537965422 19.08351281580661" style="enable-background:new -10.674381768771312 -7.856920907903305 19.496501537965422 19.08351281580661;">
<style type="text/css">
  .face_stroke {fill:none; stroke:#000000; stroke-width:0.02; stroke-miterlimit:10;}
  .face_text {fill:#000000; font-family:monospace;}
  .edge_text {fill:#ff0000; font-family:monospace;}
  .edge_bg {fill:#f3f3f3; stroke:#606060; stroke-width:0.01;}
</style>
<polygon class="face_stroke" points="0.5000000000000001,-0.5 -0.5,-0.5000000000000001 -0.5000000000000001,0.5 0.4999999999999999,0.5000000000000001"/>
<polygon class="face_stroke" points="0.4999999999999999,0.5 1.5,0.5000000000000001 1.5000000000000007,-0.49999999999999944 0.49999999999999967,-0.4999999999999998"/>
<polygon class="face_stroke" points="1.5,0.5 2.5,0.5000000000000001 2.500000000000001,-0.49999999999999944 1.4999999999999996,-0.4999999999999998"/>
<polygon class="face_stroke" points="2.5,0.5 3.5,0.5000000000000001 3.500000000000001,-0.49999999999999944 2.4999999999999996,-0.4999999999999998"/>
<polygon class="face_stroke" points="2.499999999999999,0.49999962292919786 1.520470058747506,0.7012981430178575 0.6015122471272756,1.0956539981311764 -0.21925119408000082,1.666922213225968 -0.9082181131556895,2.39171500045509 -1.4371821234826507,3.2403592579498404 -1.7844873763274718,4.178111390096923 -1.935915153832048,5.166579714425034 -1.8852659849933344,6.16529622159609 -1.6346134527346123,7.133373340462294 -1.194219301176977,8.031177880033036 -0.5821133186293124,8.821953616970735 0.1766448040634807,9.473326099692956 1.0509914202080635,9.958628062224037 2.005130676608113,10.257991185197392 3.000000000000008,10.359159507184824 3.994869323391903,10.25799118519739 4.949008579791951,9.95862806222403 5.823355195936536,9.473326099692944 6.582113318629325,8.82195361697072 7.194219301176989,8.031177880033017 7.6346134527346186,7.1333733404622786 7.885265984993337,6.165296221596069 7.935915153832047,5.1665797144250165 7.7844873763274665,4.178111390096902 7.4371821234826445,3.2403592579498266 6.908218113155677,2.391715000455074 6.2192511940799875,1.6669222132259565 5.398487752872706,1.0956539981311648 4.479529941252477,0.7012981430178522 3.4999999999999774,0.4999996229291952"/>
<polygon class="face_stroke" points="-0.2192511468778522,1.6669230647293432 -0.944043935270657,0.9779561468778522 -1.6330108531221479,1.702748935270657 -0.9082180647293434,2.3917158531221476"/>
<polygon class="face_stroke" points="-0.9440438817346863,0.9779559929438202 -0.41507987284110825,0.12931173455563405 -0.06777462158017755,-0.808440398178055 0.08365315425484798,-1.796908722761932 0.03300398372927482,-2.7956252298474373 -0.2176485501645553,-3.7637023482902823 -0.6580427032386069,-4.661506887117186 -1.2701486871219125,-5.45228262302102 -2.028906810914891,-6.103655104461678 -2.903253427879161,-6.588957065515963 -3.8573926847848425,-6.888320186877753 -4.852262008347614,-6.989488507184823 -5.847131331568632,-6.8883201835170285 -6.801270587463048,-6.5889570589321025 -7.675617202787941,-6.103655094924226 -8.434375324380547,-5.45228261092044 -9.046481305592566,-4.661506872948878 -9.486875455633784,-3.763702332634296 -9.737527986257396,-2.7956252133447306 -9.788177153409247,-1.79690870608813 -9.63674937423512,-0.8084403820157822 -9.289444119806408,0.12931174954468938 -8.76048010804606,0.9779560061460066 -8.071513187746175,1.7027487922114428 -7.25074974557401,2.2740170059199407 -6.331791933287701,2.6683728594811127 -5.352261991695207,2.869671377915317 -4.352261991695207,2.8696713762262878 -3.3727320507827123,2.668372854483173 -2.4537742398285607,2.274016997817707 -1.6330107995861693,1.7027487813366182"/>
<text class="face_text" text-anchor="middle" dominant-baseline="middle" transform="matrix(0.03816702563161322 0 0 0.03816702563161322 0.0 0.0)">0</text>
<text class="face_text" text-anchor="middle" dominant-baseline="middle" transform="matrix(0.03816702563161322 0 0 0.03816702563161322 1.0 0.0)">30</text>
<text class="face_text" text-anchor="middle" dominant-baseline="middle" transform="matrix(0.03816702563161322 0 0 0.03816702563161322 2.0 0.0)">29</text>
<text class="face_text" text-anchor="middle" dominant-baseline="middle" transform="matrix(0.03816702563161322 0 0 0.03816702563161322 3.0 0.0)">28</text>
<text class="face_text" text-anchor="middle" dominant-baseline="middle" transform="matrix(0.03816702563161322 0 0 0.03816702563161322 3.0 5.416901)">32</text>
<text class="face_text" text-anchor="middle" dominant-baseline="middle" transform="matrix(0.03816702563161322 0 0 0.03816702563161322 -0.926131 1.684836)">1</text>
<text class="face_text" text-anchor="middle" dominant-baseline="middle" transform="matrix(0.03816702563161322 0 0 0.03816702563161322 -4.852262 -2.04723)">31</text>
<rect class="edge_bg" x="0.11832974368386767" y="-0.3816702563161323" width="0.7633405126322644" height="0.7633405126322644"/>
<text class="edge_text" text-anchor="middle" dominant-baseline="middle" transform="matrix(0.03816702563161322 0 0 0.03816702563161322 0.4999999999999999 -6.123233995736767e-17)">0</text>
<rect class="edge_bg" x="1.1183297436838677" y="-0.3816702563161323" width="0.7633405126322644" height="0.7633405126322644"/>
<text class="edge_text" text-anchor="middle" dominant-baseline="middle" transform="matrix(0.03816702563161322 0 0 0.03816702563161322 1.5 -6.123233995736767e-17)">92</text>
<rect class="edge_bg" x="2.118329743683868" y="-0.3816702563161323" width="0.7633405126322644" height="0.7633405126322644"/>
<text class="edge_text" text-anchor="middle" dominant-baseline="middle" transform="matrix(0.03816702563161322 0 0 0.03816702563161322 2.5 -6.123233995736767e-17)">89</text>
<rect class="edge_bg" x="2.6183297436838684" y="0.11832936661306476" width="0.7633405126322644" height="0.7633405126322644"/>
<text class="edge_text" text-anchor="middle" dominant-baseline="middle" transform="matrix(0.03816702563161322 0 0 0.03816702563161322 3.0000000000000004 0.499999622929197)">88</text>
<rect class="edge_bg" x="-0.94540486211973" y="1.6476492026096132" width="0.7633405126322644" height="0.7633405126322644"/>
<text class="edge_text" text-anchor="middle" dominant-baseline="middle" transform="matrix(0.03816702563161322 0 0 0.03816702563161322 -0.5637346058035977 2.0293194589257455)">7</text>
<rect class="edge_bg" x="-1.670197596976563" y="0.9586821308240909" width="0.7633405126322644" height="0.7633405126322644"/>
<text class="edge_text" text-anchor="middle" dominant-baseline="middle" transform="matrix(0.03816702563161322 0 0 0.03816702563161322 -1.2885273406604307 1.3403523871402232)">6</text>
</svg>
