<?xml version="1.0" encoding="utf-8"?>
<svg version="1.1" xmlns="http://www.w3.org/2000/svg" viewBox="-11.083252869807172 -6.036808907903305 20.97246173905061 17.176728815806612" style="enable-background:new -11.083252869807172 -6.036808907903305 20.97246173905061 17.176728815806612;">
<style type="text/css">
  .face_stroke {fill:none; stroke:#000000; stroke-width:0.02; stroke-miterlimit:10;}
  .face_text {fill:#000000; font-family:monospace;}
  .edge_text {fill:#ff0000; font-family:monospace;}
  .edge_bg {fill:#f3f3f3; stroke:#606060; stroke-width:0.01;}
</style>
<polygon class="face_stroke" points="0.5000000000000001,-0.5 -0.5,-0.5000000000000001 -0.5000000000000001,0.5 0.4999999999999999,0.5000000000000001"/>
<polygon class="face_stroke" points="0.4999999999999999,0.5 1.5,0.5000000000000001 1.5000000000000007,-0.49999999999999944 0.49999999999999967,-0.4999999999999998"/>
<polygon class="face_stroke" points="1.5,0.5 2.5,0.5000000000000001 2.500000000000001,-0.49999999999999944 1.4999999999999996,-0.4999999999999998"/>
<polygon class="face_stroke" points="2.5,0.5 3.5,0.5000000000000001 3.500000000000001,-0.49999999999999944 2.4999999999999996,-0.4999999999999998"/>
<polygon class="face_stroke" points="3.5,0.5 4.5,0.5000000000000001 4.500000000000001,-0.49999999999999944 3.4999999999999996,-0.4999999999999998"/>
<polygon class="face_stroke" points="3.499999999999999,0.49999962292919786 2.520470058747506,0.7012981430178575 1.6015122471272756,1.0956539981311764 0.7807488059199992,1.666922213225968 0.09178188684431055,2.39171500045509 -0.43718212348265073,3.2403592579498404 -0.7844873763274718,4.178111390096923 -0.935915153832048,5.166579714425034 -0.8852659849933344,6.16529622159609 -0.6346134527346123,7.133373340462294 -0.19421930117697705,8.031177880033036 0.41788668137068763,8.821953616970735 1.1766448040634807,9.473326099692956 2.0509914202080637,9.958628062224037 3.005130676608113,10.257991185197392 4.000000000000008,10.359159507184824 4.994869323391903,10.25799118519739 5.949008579791951,9.95862806222403 6.823355195936536,9.473326099692944 7.582113318629325,8.82195361697072 8.19421930117699,8.031177880033017 8.63461345273462,7.1333733404622786 8.885265984993337,6.165296221596069 8.935915153832047,5.1665797144250165 8.784487376327466,4.178111390096902 8.437182123482645,3.2403592579498266 7.908218113155677,2.391715000455074 7.2192511940799875,1.6669222132259565 6.398487752872706,1.0956539981311648 5.479529941252477,0.7012981430178522 4.499999999999978,0.4999996229291952"/>
<polygon class="face_stroke" points="0.09178213427082271,2.391715877967319 -0.7568621220326813,1.8627518657291775 -1.2858261342708228,2.7113961220326814 -0.4371818779673189,3.240360134270823"/>
<polygon class="face_stroke" points="-0.7568618814190025,1.8627517520428616 -0.4095566264623294,0.9249996206779256 -0.2581288467316849,-0.06346870330916476 -0.3087780133212501,-1.0621852105942815 -0.5594305433998246,-2.0302623300249647 -0.9998246929355696,-2.928066870587491 -1.6119306737023757,-3.718842608903675 -2.3706887949282516,-4.370215093334649 -3.2450354099799155,-4.855517057834792 -4.199174665705787,-5.154880182956908 -5.194043988869847,-5.256048507184823 -6.188913312489576,-5.1548801874378745 -7.143052569563802,-4.855517066613274 -8.017399186801303,-4.370215106051256 -8.77615731096101,-3.718842625037784 -9.38826329528953,-2.9280668894785715 -9.828657448869055,-2.030262350899612 -10.07930998330792,-1.062185232597887 -10.129959154395781,-0.06346872554089589 -9.978531379117271,0.9249995991282365 -9.631226128384302,1.862751732057463 -9.102262119968518,2.71139599074346 -8.41329520252509,3.436188779524161 -7.592531762604331,4.007456996467342 -6.6735739518722035,4.4018128536501875 -5.694044011073041,4.603111375944784 -4.694044011073041,4.603111378196821 -3.7145140693672154,4.401812860314098 -2.795556256858877,4.007457007270304 -1.9747928143650846,3.4361887940239 -1.2858258936571385,2.711396008346359"/>
<text class="face_text" text-anchor="middle" dominant-baseline="middle" transform="matrix(0.034353457631613224 0 0 0.034353457631613224 0.0 0.0)">0</text>
<text class="face_text" text-anchor="middle" dominant-baseline="middle" transform="matrix(0.034353457631613224 0 0 0.034353457631613224 1.0 0.0)">30</text>
<text class="face_text" text-anchor="middle" dominant-baseline="middle" transform="matrix(0.034353457631613224 0 0 0.034353457631613224 2.0 0.0)">29</text>
<text class="face_text" text-anchor="middle" dominant-baseline="middle" transform="matrix(0.034353457631613224 0 0 0.034353457631613224 3.0 0.0)">28</text>
<text class="face_text" text-anchor="middle" dominant-baseline="middle" transform="matrix(0.034353457631613224 0 0 0.034353457631613224 4.0 0.0)">27</text>
<text class="face_text" text-anchor="middle" dominant-baseline="middle" transform="matrix(0.034353457631613224 0 0 0.034353457631613224 4.0 5.416901)">32</text>
<text class="face_text" text-anchor="middle" dominant-baseline="middle" transform="matrix(0.034353457631613224 0 0 0.034353457631613224 -0.597022 2.551556)">1</text>
<text class="face_text" text-anchor="middle" dominant-baseline="middle" transform="matrix(0.034353457631613224 0 0 0.034353457631613224 -5.194044 -0.31379)">31</text>
<rect class="edge_bg" x="0.15646542368386762" y="-0.3435345763161323" width="0.6870691526322645" height="0.6870691526322645"/>
<text class="edge_text" text-anchor="middle" dominant-baseline="middle" transform="matrix(0.034353457631613224 0 0 0.034353457631613224 0.4999999999999999 -6.123233995736767e-17)">0</text>
<rect class="edge_bg" x="1.1564654236838678" y="-0.3435345763161323" width="0.6870691526322645" height="0.6870691526322645"/>
<text class="edge_text" text-anchor="middle" dominant-baseline="middle" transform="matrix(0.034353457631613224 0 0 0.034353457631613224 1.5 -6.123233995736767e-17)">92</text>
<rect class="edge_bg" x="2.156465423683868" y="-0.3435345763161323" width="0.6870691526322645" height="0.6870691526322645"/>
<text class="edge_text" text-anchor="middle" dominant-baseline="middle" transform="matrix(0.034353457631613224 0 0 0.034353457631613224 2.5 -6.123233995736767e-17)">89</text>
<rect class="edge_bg" x="3.156465423683868" y="-0.3435345763161323" width="0.6870691526322645" height="0.6870691526322645"/>
<text class="edge_text" text-anchor="middle" dominant-baseline="middle" transform="matrix(0.034353457631613224 0 0 0.034353457631613224 3.5 -6.123233995736767e-17)">86</text>
<rect class="edge_bg" x="3.656465423683868" y="0.1564650466130647" width="0.6870691526322645" height="0.6870691526322645"/>
<text class="edge_text" text-anchor="middle" dominant-baseline="middle" transform="matrix(0.034353457631613224 0 0 0.034353457631613224 4.0 0.499999622929197)">85</text>
<rect class="edge_bg" x="-0.5162344481643801" y="2.4725034298029387" width="0.6870691526322645" height="0.6870691526322645"/>
<text class="edge_text" text-anchor="middle" dominant-baseline="middle" transform="matrix(0.034353457631613224 0 0 0.034353457631613224 -0.17269987184824792 2.816038006119071)">7</text>
<rect class="edge_bg" x="-1.3648784638542053" y="1.9435393038784818" width="0.6870691526322645" height="0.6870691526322645"/>
<text class="edge_text" text-anchor="middle" dominant-baseline="middle" transform="matrix(0.034353457631613224 0 0 0.034353457631613224 -1.0213438875380731 2.287073880194614)">6</text>
</svg>
