<?xml version="1.0" encoding="utf-8"?>
<svg version="1.1" xmlns="http://www.w3.org/2000/svg" viewBox="-11.096899770843033 -3.970351157903305 22.0343775401358 15.011868315806613" style="enable-background:new -11.096899770843033 -3.970351157903305 22.0343775401358 15.011868315806613;">
<style type="text/css">
  .face_stroke {fill:none; stroke:#000000; stroke-width:0.02; stroke-miterlimit:10;}
  .face_text {fill:#000000; font-family:monospace;}
  .edge_text {fill:#ff0000; font-family:monospace;}
  .edge_bg {fill:#f3f3f3; stroke:#606060; stroke-width:0.01;}
</style>
<polygon class="face_stroke" points="0.5000000000000001,-0.5 -0.5,-0.5000000000000001 -0.5000000000000001,0.5 0.4999999999999999,0.5000000000000001"/>
<polygon class="face_stroke" points="0.4999999999999999,0.5 1.5,0.5000000000000001 1.5000000000000007,-0.49999999999999944 0.49999999999999967,-0.4999999999999998"/>
<polygon class="face_stroke" points="1.5,0.5 2.5,0.5000000000000001 2.500000000000001,-0.49999999999999944 1.4999999999999996,-0.4999999999999998"/>
<polygon class="face_stroke" points="2.5,0.5 3.5,0.5000000000000001 3.500000000000001,-0.49999999999999944 2.4999999999999996,-0.4999999999999998"/>
<polygon class="face_stroke" points="3.5,0.5 4.5,0.5000000000000001 4.500000000000001,-0.49999999999999944 3.4999999999999996,-0.4999999999999998"/>
<polygon class="face_stroke" points="4.5,0.5 5.5,0.5000000000000001 5.500000000000001,-0.49999999999999944 4.5,-0.4999999999999998"/>
<polygon class="face_stroke" points="4.499999999999999,0.49999962292919786 3.520470058747506,0.7012981430178575 2.6015122471272756,1.0956539981311764 1.7807488059199992,1.666922213225968 1.0917818868443105,2.39171500045509 0.5628178765173493,3.2403592579498404 0.21551262367252821,4.178111390096923 0.06408484616795196,5.166579714425034 0.11473401500666558,6.16529622159609 0.36538654726538766,7.133373340462294 0.805780698823023,8.031177880033036 1.4178866813706876,8.821953616970735 2.1766448040634807,9.473326099692956 3.0509914202080637,9.958628062224037 4.005130676608113,10.257991185197392 5.000000000000008,10.359159507184824 5.994869323391903,10.25799118519739 6.949008579791951,9.95862806222403 7.823355195936536,9.473326099692944 8.582113318629325,8.82195361697072 9.19421930117699,8.031177880033017 9.63461345273462,7.1333733404622786 9.885265984993337,6.165296221596069 9.935915153832047,5.1665797144250165 9.784487376327466,4.178111390096902 9.437182123482645,3.2403592579498266 8.908218113155677,2.391715000455074 8.219251194079987,1.6669222132259565 7.398487752872706,1.0956539981311648 6.479529941252477,0.7012981430178522 5.499999999999978,0.4999996229291952"/>
<polygon class="face_stroke" points="0.5628176943242998,3.240359564328117 -0.37493443567188334,2.8930543056757 -0.7222396943243,3.8308064356718825 0.21551243567188297,4.1781116943243"/>
<polygon class="face_stroke" points="-0.3749346313444821,2.893054639533907 -0.22350684771821783,1.9045863161436032 -0.27415601037177595,0.9058698086588748 -0.5248085366350947,-0.06220731175964689 -0.9652026826325324,-0.9600118540577953 -1.577308660282839,-1.7507875947863298 -2.336066778941612,-2.4021600822076192 -3.2104133920806692,-2.8874620501536206 -4.1645526466267295,-3.1868251790360618 -5.159421969392079,-3.2879935071848228 -6.15429129341052,-3.1868251913587193 -7.108430551664556,-2.887462074294445 -7.982777170814664,-2.402160117178284 -8.741535297541471,-1.7507876391551296 -9.353641284986493,-0.960011906008265 -9.794035442104324,-0.06220736916493008 -10.044687980358447,0.9058697481489589 -10.095337155382314,1.9045862550063362 -9.943909383999422,2.8930545802722554 -9.596604136962199,3.830806714570235 -9.067640131890977,4.679450975340915 -8.378673217304005,5.404243766836879 -7.5579097796346515,5.975511987014743 -6.6389519704567075,6.369867847819261 -5.659422030450875,6.5711663739742505 -4.659422030450875,6.571166380167353 -3.6798920879517185,6.369867866145023 -2.7609342738891978,5.975512016722902 -1.9401708291439994,5.404243806711182 -1.2512039055795974,4.679451023748904 -0.7222398899968949,3.830806769530082"/>
<text class="face_text" text-anchor="middle" dominant-baseline="middle" transform="matrix(0.030023736631613226 0 0 0.030023736631613226 0.0 0.0)">0</text>
<text class="face_text" text-anchor="middle" dominant-baseline="middle" transform="matrix(0.030023736631613226 0 0 0.030023736631613226 1.0 0.0)">30</text>
<text class="face_text" text-anchor="middle" dominant-baseline="middle" transform="matrix(0.030023736631613226 0 0 0.030023736631613226 2.0 0.0)">29</text>
<text class="face_text" text-anchor="middle" dominant-baseline="middle" transform="matrix(0.030023736631613226 0 0 0.030023736631613226 3.0 0.0)">28</text>
<text class="face_text" text-anchor="middle" dominant-baseline="middle" transform="matrix(0.030023736631613226 0 0 0.030023736631613226 4.0 0.0)">27</text>
<text class="face_text" text-anchor="middle" dominant-baseline="middle" transform="matrix(0.030023736631613226 0 0 0.030023736631613226 5.0 0.0)">26</text>
<text class="face_text" text-anchor="middle" dominant-baseline="middle" transform="matrix(0.030023736631613226 0 0 0.030023736631613226 5.0 5.416901)">32</text>
<text class="face_text" text-anchor="middle" dominant-baseline="middle" transform="matrix(0.030023736631613226 0 0 0.030023736631613226 -0.079711 3.535583)">1</text>
<text class="face_text" text-anchor="middle" dominant-baseline="middle" transform="matrix(0.030023736631613226 0 0 0.030023736631613226 -5.159422 1.654265)">31</text>
<rect class="edge_bg" x="0.19976263368386765" y="-0.3002373663161323" width="0.6004747326322645" height="0.6004747326322645"/>
<text class="edge_text" text-anchor="middle" dominant-baseline="middle" transform="matrix(0.030023736631613226 0 0 0.030023736631613226 0.4999999999999999 -6.123233995736767e-17)">0</text>
<rect class="edge_bg" x="1.1997626336838678" y="-0.3002373663161323" width="0.6004747326322645" height="0.6004747326322645"/>
<text class="edge_text" text-anchor="middle" dominant-baseline="middle" transform="matrix(0.030023736631613226 0 0 0.030023736631613226 1.5 -6.123233995736767e-17)">92</text>
<rect class="edge_bg" x="2.199762633683868" y="-0.3002373663161323" width="0.6004747326322645" height="0.6004747326322645"/>
<text class="edge_text" text-anchor="middle" dominant-baseline="middle" transform="matrix(0.030023736631613226 0 0 0.030023736631613226 2.5 -6.123233995736767e-17)">89</text>
<rect class="edge_bg" x="3.199762633683868" y="-0.3002373663161323" width="0.6004747326322645" height="0.6004747326322645"/>
<text class="edge_text" text-anchor="middle" dominant-baseline="middle" transform="matrix(0.030023736631613226 0 0 0.030023736631613226 3.5 -6.123233995736767e-17)">86</text>
<rect class="edge_bg" x="4.199762633683868" y="-0.3002373663161323" width="0.6004747326322645" height="0.6004747326322645"/>
<text class="edge_text" text-anchor="middle" dominant-baseline="middle" transform="matrix(0.030023736631613226 0 0 0.030023736631613226 4.5 -6.123233995736767e-17)">83</text>
<rect class="edge_bg" x="4.699762633683868" y="0.19976225661306474" width="0.6004747326322645" height="0.6004747326322645"/>
<text class="edge_text" text-anchor="middle" dominant-baseline="middle" transform="matrix(0.030023736631613226 0 0 0.030023736631613226 5.0 0.499999622929197)">82</text>
<rect class="edge_bg" x="0.08892769868195932" y="3.408998263010076" width="0.6004747326322645" height="0.6004747326322645"/>
<text class="edge_text" text-anchor="middle" dominant-baseline="middle" transform="matrix(0.030023736631613226 0 0 0.030023736631613226 0.38916506499809156 3.709235629326208)">7</text>
<rect class="edge_bg" x="-0.8488246269868212" y="3.0616933382158664" width="0.6004747326322645" height="0.6004747326322645"/>
<text class="edge_text" text-anchor="middle" dominant-baseline="middle" transform="matrix(0.030023736631613226 0 0 0.030023736631613226 -0.548587260670689 3.3619307045319986)">6</text>
</svg>
