<?xml version="1.0" encoding="utf-8"?>
<svg version="1.1" xmlns="http://www.w3.org/2000/svg" viewBox="-11.162219057903306 -5.5385480692645785 22.546206115806612 13.25792413951569" style="enable-background:new -11.162219057903306 -5.5385480692645785 22.546206115806612 13.25792413951569;">
<style type="text/css">
  .face_stroke {fill:none; stroke:#000000; stroke-width:0.02; stroke-miterlimit:10;}
  .face_text {fill:#000000; font-family:monospace;}
  .edge_text {fill:#ff0000; font-family:monospace;}
  .edge_bg {fill:#f3f3f3; stroke:#606060; stroke-width:0.01;}
</style>
<polygon class="face_stroke" points="0.5000000000000001,-0.5 -0.5,-0.5000000000000001 -0.5000000000000001,0.5 0.4999999999999999,0.5000000000000001"/>
<polygon class="face_stroke" points="0.49999962292919786,0.4999999999999994 0.7012981430178575,1.4795299412524936 1.0956539981311773,2.398487752872726 1.6669222132259693,3.2192511940800026 2.39171500045509,3.9082181131556886 3.2403592579498444,4.437182123482653 4.178111390096925,4.784487376327472 5.166579714425037,4.935915153832048 6.165296221596089,4.885265984993334 7.133373340462297,4.6346134527346114 8.031177880033038,4.194219301176975 8.821953616970735,3.5821133186293115 9.473326099692956,2.8233551959365197 9.958628062224037,1.9490085797919328 10.257991185197394,0.9948693233918834 10.359159507184824,-1.1958317839706214e-14 10.257991185197387,-0.994869323391911 9.958628062224026,-1.949008579791959 9.473326099692944,-2.8233551959365393 8.821953616970719,-3.582113318629328 8.031177880033013,-4.19421930117699 7.133373340462275,-4.634613452734619 6.165296221596066,-4.885265984993338 5.166579714425013,-4.935915153832047 4.178111390096902,-4.7844873763274665 3.2403592579498186,-4.437182123482641 2.391715000455067,-3.9082181131556717 1.6669222132259538,-3.2192511940799844 1.095653998131163,-2.3984877528727018 0.7012981430178504,-1.4795299412524732 0.4999996229291961,-0.4999999999999821"/>
<polygon class="face_stroke" points="0.49999971290877865,0.49999977086295333 -0.4795302291370467,0.7012982870912214 -0.27823171290877885,1.6808282291370467 0.7012982291370464,1.479529712908779"/>
<polygon class="face_stroke" points="-0.4795301371869334,0.7012980773320074 -0.8738859886785777,-0.2176597358424055 -1.4451542005386875,-1.038423179301088 -2.169946985052542,-1.7273901012332304 -3.018591240462612,-2.256354114904756 -3.956343371240938,-2.6036593714453193 -4.944811694972263,-2.7550871528455154 -5.943528202342927,-2.7044379879428107 -6.911605322196969,-2.453785459499346 -7.809409863503333,-2.01339131148002 -8.600185602853383,-1.4012853320488547 -9.251558088565922,-0.642527211923166 -9.736860054542863,0.23181940230881093 -10.036223181276545,1.18595865752905 -10.137391507184823,2.180827980522236 -10.036223189118235,3.175697304312842 -9.736860069905202,4.129836561892702 -9.251558110819978,5.004183179949891 -8.60018563108807,5.762941305209784 -7.8094098965627206,6.375047290873946 -6.9116053587276,6.815441445969886 -5.9435282408492345,7.066093982043861 -4.944811733877794,7.11674315481858 -3.956343408952895,6.965315381209622 -3.0185912754370583,6.618010132060541 -2.1699470158576264,6.08904612507814 -1.4451542259132442,5.400079208858909 -0.873886007583768,4.579315769903033 -0.4795301488487791,3.6603579598369835 -0.2782316248997292,2.680828019377815 -0.2782316209586666,1.6808280193778196"/>
<polygon class="face_stroke" points="-0.8738856091376072,-0.21765917114662492 -0.053122171146624875,-0.7889273908623927 -0.6243903908623927,-1.609690828853375 -1.4451538288533752,-1.0384226091376072"/>
<text class="face_text" text-anchor="middle" dominant-baseline="middle" transform="matrix(0.026515848279031383 0 0 0.026515848279031383 0.0 0.0)">0</text>
<text class="face_text" text-anchor="middle" dominant-baseline="middle" transform="matrix(0.026515848279031383 0 0 0.026515848279031383 5.416901 0.0)">31</text>
<text class="face_text" text-anchor="middle" dominant-baseline="middle" transform="matrix(0.026515848279031383 0 0 0.026515848279031383 0.110884 1.090414)">30</text>
<text class="face_text" text-anchor="middle" dominant-baseline="middle" transform="matrix(0.026515848279031383 0 0 0.026515848279031383 -5.195133 2.180828)">32</text>
<text class="face_text" text-anchor="middle" dominant-baseline="middle" transform="matrix(0.026515848279031383 0 0 0.026515848279031383 -0.749138 -0.913675)">1</text>
<rect class="edge_bg" x="0.23484114013888313" y="-0.26515848279031445" width="0.5303169655806277" height="0.5303169655806277"/>
<text class="edge_text" text-anchor="middle" dominant-baseline="middle" transform="matrix(0.026515848279031383 0 0 0.026515848279031383 0.499999622929197 -6.021467533152972e-16)">1</text>
<rect class="edge_bg" x="0.33549048823259886" y="0.7246062590955522" width="0.5303169655806277" height="0.5303169655806277"/>
<text class="edge_text" text-anchor="middle" dominant-baseline="middle" transform="matrix(0.026515848279031383 0 0 0.026515848279031383 0.6006489710229127 0.989764741885866)">2</text>
<rect class="edge_bg" x="-0.6440393618631121" y="0.9259045655646064" width="0.5303169655806277" height="0.5303169655806277"/>
<text class="edge_text" text-anchor="middle" dominant-baseline="middle" transform="matrix(0.026515848279031383 0 0 0.026515848279031383 -0.3788808790727982 1.1910630483549203)">4</text>
<rect class="edge_bg" x="-1.424678201785805" y="-0.89319937293243" width="0.5303169655806277" height="0.5303169655806277"/>
<text class="edge_text" text-anchor="middle" dominant-baseline="middle" transform="matrix(0.026515848279031383 0 0 0.026515848279031383 -1.1595197189954913 -0.6280408901421162)">7</text>
</svg>
