<?xml version="1.0" encoding="utf-8"?>
<svg version="1.1" xmlns="http://www.w3.org/2000/svg" viewBox="-4.995755734511297 -1.0147801818604472 7.148190282999686 4.526790124680998" style="enable-background:new -4.995755734511297 -1.0147801818604472 7.148190282999686 4.526790124680998;">
<style type="text/css">
  .face_stroke {fill:none; stroke:#000000; stroke-width:0.02; stroke-miterlimit:10;}
  .face_text {fill:#000000; font-family:monospace;}
  .edge_text {fill:#ff0000; font-family:monospace;}
  .edge_bg {fill:#f3f3f3; stroke:#606060; stroke-width:0.01;}
</style>
<polygon class="face_stroke" points="0.288675134594813,-0.5 -0.5773502691896258,-7.07050159149938e-17 0.288675134594813,0.5"/>
<polygon class="face_stroke" points="0.2886750397644132,0.4999999999999999 1.2397315560595668,0.8090169943749475 1.82751680835204,2.0834935792808685e-16 1.239731556059567,-0.8090169943749473 0.28867503976441344,-0.5000000000000001"/>
<polygon class="face_stroke" points="0.2886752642956956,0.5000001349637488 0.4965869551134549,1.4781477356975548 1.2397317805908494,0.8090171293386968"/>
<polygon class="face_stroke" points="0.2886749549580232,0.5000003542242175 -0.6894726457757827,0.7079120450419769 -0.4815609549580231,1.6860596457757826 0.49658664577578254,1.478147954958023"/>
<polygon class="face_stroke" points="-0.4815607356975547,1.686058955113455 0.18756987066130315,2.4292037805908495 0.49658686503625094,1.4781472642956957"/>
<polygon class="face_stroke" points="-0.4815608904407319,1.6860592840818738 -1.2247057159181263,2.355189890440732 -0.5555751095592684,3.098334715918126 0.1875697159181262,2.4292041095592682"/>
<polygon class="face_stroke" points="-1.2247058706613034,2.3551902194091507 -1.533722865036251,3.3062467357043044 -0.5555752643024453,3.098335044886545"/>
<polygon class="face_stroke" points="-1.2247052446649493,2.355190239039897 -2.175761760960103,2.0461732446649497 -2.484778755335051,2.997229760960103 -1.5337222390398968,3.3062467553350507"/>
<polygon class="face_stroke" points="-2.1757621349637493,2.0461732642956956 -3.153909735697555,2.2540849551134547 -2.484779129338697,2.9972297805908497"/>
<polygon class="face_stroke" points="-2.1757623542242173,2.046172954958023 -2.383674045041977,1.0680253542242175 -3.3618216457757826,1.275937045041977 -3.153909954958023,2.254084645775783"/>
<polygon class="face_stroke" points="-2.3836742643024453,1.068025044886545 -3.0528048706613036,0.3248802194091507 -3.361821865036251,1.2759367357043043"/>
<polygon class="face_stroke" points="-3.0528040056250525,0.32488044394043325 -3.861821,-0.2629048083520399 -4.670837994374947,0.32488044394043314 -4.361821,1.2759369602355868 -3.361821,1.2759369602355868"/>
<polygon class="face_stroke" points="-3.052804489630902,0.32488071588691547 -2.948276026363249,-0.6696411794813579 -3.8618214840058496,-0.26290453640555783"/>
<polygon class="face_stroke" points="-3.052804179317963,0.3248807160503101 -2.05828228394969,0.4294091793179634 -1.9537538206820362,-0.5651127160503095 -2.94827571605031,-0.6696411793179634"/>
<polygon class="face_stroke" points="-2.058282209782634,0.42940940417602 -1.1447367521400342,0.8361460472518203 -0.47560614578117544,0.0930012217744259 -0.9756061457811753,-0.7730241820100127 -1.9537537465149803,-0.5651124911922539"/>
</svg>
