<?xml version="1.0" encoding="utf-8"?>
<svg version="1.1" xmlns="http://www.w3.org/2000/svg" viewBox="-8.510457529682707 -6.930471588550887 15.920630059365411 15.291686177101774" style="enable-background:new -8.510457529682707 -6.930471588550887 15.920630059365411 15.291686177101774;">
<style type="text/css">
  .face_stroke {fill:none; stroke:#000000; stroke-width:0.02; stroke-miterlimit:10;}
  .face_text {fill:#000000; font-family:monospace;}
  .edge_text {fill:#ff0000; font-family:monospace;}
  .edge_bg {fill:#f3f3f3; stroke:#606060; stroke-width:0.01;}
</style>
<polygon class="face_stroke" points="0.288675134594813,-0.5 -0.5773502691896258,-7.07050159149938e-17 0.288675134594813,0.5"/>
<polygon class="face_stroke" points="0.28867486540518683,0.4999999999999999 1.1547002691896258,1.414100318299876e-16 0.28867486540518755,-0.5000000000000003"/>
<polygon class="face_stroke" points="0.2886755260313243,0.49999952093349753 -0.42579715360147885,1.1996628614468623 -0.9438241629746087,2.0550271216073686 -1.232855959919081,3.012346619139437 -1.2747316136482802,4.0114694492382945 -1.066819922830521,4.9896170499721 -0.622184743645593,5.885328810211514 0.0312358603445122,6.64232386586327 0.8523850694782176,7.2130374335477025 1.7896670589701071,7.5616094808695165 2.784188954338378,7.666137944137169 3.773461287301364,7.520054915574759 4.695324438889866,7.132539329122657 5.491854356914061,6.527940214260283 6.113002137192369,5.74424675693445 6.519738780268173,4.830701299291849 6.686507526984277,3.8447052622213436 6.602829683651965,2.8482124029718445 6.2739630369133845,1.903836032734361 5.720571487670047,1.0709147920242645 4.977426662192655,0.4017841856654023 4.091223082961448,-0.06151184945446175 3.1176441800882877,-0.28986271956512244 2.1178634966134444,-0.26892029968177145 1.1547009298157833,-4.790665109055681e-07"/>
<polygon class="face_stroke" points="0.288674748810154,0.49999982670063337 -0.6744878179875045,0.23108000608536772 -0.4257979308226496,1.1996631672139988"/>
<polygon class="face_stroke" points="-0.6744870691773505,0.23107983278600108 -1.388959748810154,0.9307431732993667 -0.42579718201249583,1.1996629939146326"/>
<polygon class="face_stroke" points="-0.6744878463985207,0.23108013855313692 -0.15646083702539082,-0.6242841216073696 0.13257095991908097,-1.5816036191394365 0.1744466136482803,-2.580726449238295 -0.03346507716947933,-3.5588740499721006 -0.47810025635440656,-4.454585810211514 -1.1315208603445117,-5.21158086586327 -1.9526700694782155,-5.782294433547701 -2.8899520589701067,-6.130866480869516 -3.884473954338381,-6.23539494413717 -4.873746287301368,-6.089311915574758 -5.79560943888987,-5.701796329122654 -6.592139356914066,-5.09719721426028 -7.213287137192376,-4.31350375693444 -7.620023780268176,-3.3999582992918382 -7.786792526984279,-2.413962262221334 -7.703114683651962,-1.4174694029718284 -7.374248036913379,-0.4730930327343479 -6.820856487670033,0.359828207975752 -6.0777116621926375,1.0289588143346102 -5.191508082961424,1.4922548494544703 -4.217929180088262,1.7206057195651252 -3.218148496613419,1.6996632996817675 -2.2549859298157635,1.4307434790665026 -1.388960526031326,0.9307434790665043"/>
<text class="face_text" text-anchor="middle" dominant-baseline="middle" transform="matrix(0.03058337235420355 0 0 0.03058337235420355 0.0 0.0)">0</text>
<text class="face_text" text-anchor="middle" dominant-baseline="middle" transform="matrix(0.03058337235420355 0 0 0.03058337235420355 0.57735 0.0)">49</text>
<text class="face_text" text-anchor="middle" dominant-baseline="middle" transform="matrix(0.03058337235420355 0 0 0.03058337235420355 2.700642 3.677648)">51</text>
<text class="face_text" text-anchor="middle" dominant-baseline="middle" transform="matrix(0.03058337235420355 0 0 0.03058337235420355 -0.270537 0.643581)">1</text>
<text class="face_text" text-anchor="middle" dominant-baseline="middle" transform="matrix(0.03058337235420355 0 0 0.03058337235420355 -0.829748 0.787162)">2</text>
<text class="face_text" text-anchor="middle" dominant-baseline="middle" transform="matrix(0.03058337235420355 0 0 0.03058337235420355 -3.800927 -2.246905)">50</text>
<rect class="edge_bg" x="-0.01715885813684842" y="-0.30583372354203553" width="0.611667447084071" height="0.611667447084071"/>
<text class="edge_text" text-anchor="middle" dominant-baseline="middle" transform="matrix(0.03058337235420355 0 0 0.03058337235420355 0.28867486540518705 -3.535250795749691e-17)">0</text>
<rect class="edge_bg" x="0.41585450438150867" y="-0.055834202608538386" width="0.611667447084071" height="0.611667447084071"/>
<text class="edge_text" text-anchor="middle" dominant-baseline="middle" transform="matrix(0.03058337235420355 0 0 0.03058337235420355 0.7216882279235441 0.2499995209334971)">6</text>
<rect class="edge_bg" x="-0.37439531454828334" y="0.5439977734152808" width="0.611667447084071" height="0.611667447084071"/>
<text class="edge_text" text-anchor="middle" dominant-baseline="middle" transform="matrix(0.03058337235420355 0 0 0.03058337235420355 -0.06856159100624784 0.8498314969573162)">5</text>
<rect class="edge_bg" x="-0.8559758491369585" y="0.40953768980828126" width="0.611667447084071" height="0.611667447084071"/>
<text class="edge_text" text-anchor="middle" dominant-baseline="middle" transform="matrix(0.03058337235420355 0 0 0.03058337235420355 -0.550142125594923 0.7153714133503167)">7</text>
<rect class="edge_bg" x="-1.337557909756958" y="0.27507808526778493" width="0.611667447084071" height="0.611667447084071"/>
<text class="edge_text" text-anchor="middle" dominant-baseline="middle" transform="matrix(0.03058337235420355 0 0 0.03058337235420355 -1.0317241862149227 0.5809118088098204)">8</text>
</svg>
