<?xml version="1.0" encoding="utf-8"?>
<svg version="1.1" xmlns="http://www.w3.org/2000/svg" viewBox="-1.8311821688460053 -0.9083068972068589 8.923293967060296 8.982751738550887" style="enable-background:new -1.8311821688460053 -0.9083068972068589 8.923293967060296 8.982751738550887;">
<style type="text/css">
  .face_stroke {fill:none; stroke:#000000; stroke-width:0.02; stroke-miterlimit:10;}
  .face_text {fill:#000000; font-family:monospace;}
  .edge_text {fill:#ff0000; font-family:monospace;}
  .edge_bg {fill:#f3f3f3; stroke:#606060; stroke-width:0.01;}
</style>
<polygon class="face_stroke" points="0.288675134594813,-0.5 -0.5773502691896258,-7.07050159149938e-17 0.288675134594813,0.5"/>
<polygon class="face_stroke" points="0.28867486540518683,0.4999999999999999 1.1547002691896258,1.414100318299876e-16 0.28867486540518755,-0.5000000000000003"/>
<polygon class="face_stroke" points="0.2886755260313243,0.49999952093349753 -0.42579715360147885,1.1996628614468623 -0.9438241629746087,2.0550271216073686 -1.232855959919081,3.012346619139437 -1.2747316136482802,4.0114694492382945 -1.066819922830521,4.9896170499721 -0.622184743645593,5.885328810211514 0.0312358603445122,6.64232386586327 0.8523850694782176,7.2130374335477025 1.7896670589701071,7.5616094808695165 2.784188954338378,7.666137944137169 3.773461287301364,7.520054915574759 4.695324438889866,7.132539329122657 5.491854356914061,6.527940214260283 6.113002137192369,5.74424675693445 6.519738780268173,4.830701299291849 6.686507526984277,3.8447052622213436 6.602829683651965,2.8482124029718445 6.2739630369133845,1.903836032734361 5.720571487670047,1.0709147920242645 4.977426662192655,0.4017841856654023 4.091223082961448,-0.06151184945446175 3.1176441800882877,-0.28986271956512244 2.1178634966134444,-0.26892029968177145 1.1547009298157833,-4.790665109055681e-07"/>
<polygon class="face_stroke" points="-0.42579710238400803,1.1996633865742834 -1.4255777858588536,1.1787209666909264 -0.9438241117571382,2.05502764673479"/>
<polygon class="face_stroke" points="-0.42579721414114635,1.1996630333090736 -0.9075508882428616,0.32335635326520984 -1.4255778976159919,1.1787206134257167"/>
<polygon class="face_stroke" points="-0.4257971117571382,1.1996636467347903 0.09222989761599187,0.3442993865742833 -0.9075507858588536,0.32335696669092645"/>
<text class="face_text" text-anchor="middle" dominant-baseline="middle" transform="matrix(0.017846587934120594 0 0 0.017846587934120594 0.0 0.0)">0</text>
<text class="face_text" text-anchor="middle" dominant-baseline="middle" transform="matrix(0.017846587934120594 0 0 0.017846587934120594 0.57735 0.0)">49</text>
<text class="face_text" text-anchor="middle" dominant-baseline="middle" transform="matrix(0.017846587934120594 0 0 0.017846587934120594 2.700642 3.677648)">51</text>
<text class="face_text" text-anchor="middle" dominant-baseline="middle" transform="matrix(0.017846587934120594 0 0 0.017846587934120594 -0.931733 1.477804)">3</text>
<text class="face_text" text-anchor="middle" dominant-baseline="middle" transform="matrix(0.017846587934120594 0 0 0.017846587934120594 -0.919642 0.90058)">2</text>
<text class="face_text" text-anchor="middle" dominant-baseline="middle" transform="matrix(0.017846587934120594 0 0 0.017846587934120594 -0.413706 0.62244)">1</text>
<rect class="edge_bg" x="0.11020898606398113" y="-0.17846587934120595" width="0.35693175868241184" height="0.35693175868241184"/>
<text class="edge_text" text-anchor="middle" dominant-baseline="middle" transform="matrix(0.017846587934120594 0 0 0.017846587934120594 0.28867486540518705 -3.535250795749691e-17)">0</text>
<rect class="edge_bg" x="0.5432223485823382" y="0.07153364159229117" width="0.35693175868241184" height="0.35693175868241184"/>
<text class="edge_text" text-anchor="middle" dominant-baseline="middle" transform="matrix(0.017846587934120594 0 0 0.017846587934120594 0.7216882279235441 0.2499995209334971)">6</text>
<rect class="edge_bg" x="-0.8632764864117791" y="1.4488796373133308" width="0.35693175868241184" height="0.35693175868241184"/>
<text class="edge_text" text-anchor="middle" dominant-baseline="middle" transform="matrix(0.017846587934120594 0 0 0.017846587934120594 -0.6848106070705732 1.6273455166545368)">10</text>
<rect class="edge_bg" x="-1.104153435219775" y="1.0107259440261893" width="0.35693175868241184" height="0.35693175868241184"/>
<text class="edge_text" text-anchor="middle" dominant-baseline="middle" transform="matrix(0.017846587934120594 0 0 0.017846587934120594 -0.9256875558785692 1.1891918233673953)">9</text>
<rect class="edge_bg" x="-0.845139828149202" y="0.5830444273716524" width="0.35693175868241184" height="0.35693175868241184"/>
<text class="edge_text" text-anchor="middle" dominant-baseline="middle" transform="matrix(0.017846587934120594 0 0 0.017846587934120594 -0.666673948807996 0.7615103067128584)">7</text>
</svg>
