<?xml version="1.0" encoding="utf-8"?>
<svg version="1.1" xmlns="http://www.w3.org/2000/svg" viewBox="-9.843030379682705 -5.0373163385508875 17.31665875936541 13.308380677101773" style="enable-background:new -9.843030379682705 -5.0373163385508875 17.31665875936541 13.308380677101773;">
<style type="text/css">
  .face_stroke {fill:none; stroke:#000000; stroke-width:0.02; stroke-miterlimit:10;}
  .face_text {fill:#000000; font-family:monospace;}
  .edge_text {fill:#ff0000; font-family:monospace;}
  .edge_bg {fill:#f3f3f3; stroke:#606060; stroke-width:0.01;}
</style>
<polygon class="face_stroke" points="0.288675134594813,-0.5 -0.5773502691896258,-7.07050159149938e-17 0.288675134594813,0.5"/>
<polygon class="face_stroke" points="0.28867486540518683,0.4999999999999999 1.1547002691896258,1.414100318299876e-16 0.28867486540518755,-0.5000000000000003"/>
<polygon class="face_stroke" points="0.2886755260313243,0.49999952093349753 -0.42579715360147885,1.1996628614468623 -0.9438241629746087,2.0550271216073686 -1.232855959919081,3.012346619139437 -1.2747316136482802,4.0114694492382945 -1.066819922830521,4.9896170499721 -0.622184743645593,5.885328810211514 0.0312358603445122,6.64232386586327 0.8523850694782176,7.2130374335477025 1.7896670589701071,7.5616094808695165 2.784188954338378,7.666137944137169 3.773461287301364,7.520054915574759 4.695324438889866,7.132539329122657 5.491854356914061,6.527940214260283 6.113002137192369,5.74424675693445 6.519738780268173,4.830701299291849 6.686507526984277,3.8447052622213436 6.602829683651965,2.8482124029718445 6.2739630369133845,1.903836032734361 5.720571487670047,1.0709147920242645 4.977426662192655,0.4017841856654023 4.091223082961448,-0.06151184945446175 3.1176441800882877,-0.28986271956512244 2.1178634966134444,-0.26892029968177145 1.1547009298157833,-4.790665109055681e-07"/>
<polygon class="face_stroke" points="-0.42579710238400803,1.1996633865742834 -1.4255777858588536,1.1787209666909264 -0.9438241117571382,2.05502764673479"/>
<polygon class="face_stroke" points="-1.4255778882428618,1.1787213532652099 -1.9436048976159919,2.0340856134257166 -0.9438242141411465,2.055028033309074"/>
<polygon class="face_stroke" points="-1.4255778370253909,1.1787208783926304 -1.136546040080919,0.22140138086056332 -1.0946703863517198,-0.7777214492382949 -1.3025820771694794,-1.7558690499721004 -1.7472172563544066,-2.6515808102115135 -2.4006378603445118,-3.40857586586327 -3.2217870694782156,-3.979289433547701 -4.159069058970107,-4.327861480869516 -5.153590954338381,-4.43238994413717 -6.142863287301369,-4.286306915574758 -7.0647264388898705,-3.898791329122655 -7.861256356914065,-3.29419221426028 -8.482404137192376,-2.5104987569344406 -8.889140780268177,-1.5969532992918385 -9.055909526984278,-0.6109572622213341 -8.972231683651962,0.3855355970281715 -8.643365036913378,1.329911967265652 -8.089973487670033,2.1628332079757517 -7.346828662192637,2.83196381433461 -6.460625082961425,3.29525984945447 -5.487046180088263,3.523610719565125 -4.48726549661342,3.5026682996817673 -3.524102929815763,3.2337484790665023 -2.658077526031326,2.733748479066504 -1.9436048463985216,2.034085138553138"/>
<polygon class="face_stroke" points="-1.4255782332725442,1.1787204558809075 -0.45199933039938345,0.9503695857702518 -1.136546436328072,0.22140095834884022"/>
<polygon class="face_stroke" points="-0.4519995636719276,0.9503700416511597 -0.1629677667274559,-0.006949455880907618 -1.1365466696006163,0.22140141422974777"/>
<text class="face_text" text-anchor="middle" dominant-baseline="middle" transform="matrix(0.026616761354203548 0 0 0.026616761354203548 0.0 0.0)">0</text>
<text class="face_text" text-anchor="middle" dominant-baseline="middle" transform="matrix(0.026616761354203548 0 0 0.026616761354203548 0.57735 0.0)">49</text>
<text class="face_text" text-anchor="middle" dominant-baseline="middle" transform="matrix(0.026616761354203548 0 0 0.026616761354203548 2.700642 3.677648)">51</text>
<text class="face_text" text-anchor="middle" dominant-baseline="middle" transform="matrix(0.026616761354203548 0 0 0.026616761354203548 -0.931733 1.477804)">3</text>
<text class="face_text" text-anchor="middle" dominant-baseline="middle" transform="matrix(0.026616761354203548 0 0 0.026616761354203548 -1.437669 1.755945)">4</text>
<text class="face_text" text-anchor="middle" dominant-baseline="middle" transform="matrix(0.026616761354203548 0 0 0.026616761354203548 -5.070044 -0.4439)">50</text>
<text class="face_text" text-anchor="middle" dominant-baseline="middle" transform="matrix(0.026616761354203548 0 0 0.026616761354203548 -1.004708 0.783497)">2</text>
<text class="face_text" text-anchor="middle" dominant-baseline="middle" transform="matrix(0.026616761354203548 0 0 0.026616761354203548 -0.583838 0.388274)">1</text>
<rect class="edge_bg" x="0.022507251863151556" y="-0.26616761354203555" width="0.532335227084071" height="0.532335227084071"/>
<text class="edge_text" text-anchor="middle" dominant-baseline="middle" transform="matrix(0.026616761354203548 0 0 0.026616761354203548 0.28867486540518705 -3.535250795749691e-17)">0</text>
<rect class="edge_bg" x="0.45552061438150865" y="-0.01616809260853841" width="0.532335227084071" height="0.532335227084071"/>
<text class="edge_text" text-anchor="middle" dominant-baseline="middle" transform="matrix(0.026616761354203548 0 0 0.026616761354203548 0.7216882279235441 0.2499995209334971)">6</text>
<rect class="edge_bg" x="-0.9509782206126087" y="1.3611779031125013" width="0.532335227084071" height="0.532335227084071"/>
<text class="edge_text" text-anchor="middle" dominant-baseline="middle" transform="matrix(0.026616761354203548 0 0 0.026616761354203548 -0.6848106070705732 1.6273455166545368)">10</text>
<rect class="edge_bg" x="-1.4508686647340394" y="1.3507070797451064" width="0.532335227084071" height="0.532335227084071"/>
<text class="edge_text" text-anchor="middle" dominant-baseline="middle" transform="matrix(0.026616761354203548 0 0 0.026616761354203548 -1.184701051192004 1.6168746932871418)">11</text>
<rect class="edge_bg" x="-1.9507589552539908" y="1.3402353949308488" width="0.532335227084071" height="0.532335227084071"/>
<text class="edge_text" text-anchor="middle" dominant-baseline="middle" transform="matrix(0.026616761354203548 0 0 0.026616761354203548 -1.6845913417119553 1.6064030084728842)">12</text>
<rect class="edge_bg" x="-1.5472299483423435" y="0.4338930935728384" width="0.532335227084071" height="0.532335227084071"/>
<text class="edge_text" text-anchor="middle" dominant-baseline="middle" transform="matrix(0.026616761354203548 0 0 0.026616761354203548 -1.281062334800308 0.7000607071148739)">8</text>
<rect class="edge_bg" x="-1.0604407301783076" y="0.3197181143984184" width="0.532335227084071" height="0.532335227084071"/>
<text class="edge_text" text-anchor="middle" dominant-baseline="middle" transform="matrix(0.026616761354203548 0 0 0.026616761354203548 -0.7942731166362721 0.5858857279404539)">7</text>
</svg>
