<?xml version="1.0" encoding="utf-8"?>
<svg version="1.1" xmlns="http://www.w3.org/2000/svg" viewBox="-9.203520765557712 -4.464625205224879 18.269919531115427 10.628913410449758" style="enable-background:new -9.203520765557712 -4.464625205224879 18.269919531115427 10.628913410449758;">
<style type="text/css">
  .face_stroke {fill:none; stroke:#000000; stroke-width:0.02; stroke-miterlimit:10;}
  .face_text {fill:#000000; font-family:monospace;}
  .edge_text {fill:#ff0000; font-family:monospace;}
  .edge_bg {fill:#f3f3f3; stroke:#606060; stroke-width:0.01;}
</style>
<polygon class="face_stroke" points="0.288675134594813,-0.5 -0.5773502691896258,-7.07050159149938e-17 0.288675134594813,0.5"/>
<polygon class="face_stroke" points="0.2886754558470872,0.49999999999999833 0.5373653430119414,1.468583161128629 1.019119017113657,2.344889841172494 1.7036661230423467,3.0738584685939063 2.5479940485443597,3.609685263572902 3.4990505648395107,3.918702257947849 4.497077293267783,3.9814927774771633 5.47936454399647,3.79411146289144 6.384191596462488,3.3683321713263696 7.154704839238277,2.730908181577683 7.742490091530751,1.9218911872027384 8.110614644215431,0.9921147013144869 8.235947877779738,1.1606915963901538e-14 8.110614644215438,-0.9921147013144643 7.7424900915307635,-1.9218911872027151 7.1547048392382955,-2.7309081815776635 6.384191596462508,-3.368332171326357 5.479364543996496,-3.794111462891432 4.4970772932678065,-3.981492777477162 3.4990505648395405,-3.9187022579478548 2.5479940485443837,-3.6096852635729135 1.7036661230423644,-3.073858468593921 1.0191190171136748,-2.3448898411725185 0.5373653430119525,-1.4685831611286575 0.28867545584709076,-0.5000000000000266"/>
<polygon class="face_stroke" points="0.28867493082264956,0.499999832786001 -0.42579774881015386,1.1996631732993668 0.5373648179875042,1.4685829939146324"/>
<polygon class="face_stroke" points="0.288674748810154,0.49999982670063337 -0.6744878179875045,0.23108000608536772 -0.4257979308226496,1.1996631672139988"/>
<polygon class="face_stroke" points="-0.6744873430119416,0.23107983887136907 -1.1562410171136568,-0.6452268411724946 -1.8407881230423455,-1.3741954685939055 -2.68511604854436,-1.9100222635729025 -3.6361725648395145,-2.21903925794785 -4.634199293267786,-2.2818297774771636 -5.616486543996475,-2.094448462891439 -6.521313596462495,-1.6686691713263657 -7.291826839238283,-1.031245181577676 -7.879612091530756,-0.22222818720272897 -8.247736644215435,0.7075482986855238 -8.373069877779738,1.699663000000003 -8.247736644215433,2.6917777013144804 -7.879612091530755,3.6215541872027295 -7.291826839238281,4.430571181577678 -6.521313596462493,5.067995171326367 -5.616486543996471,5.493774462891439 -4.634199293267785,5.681155777477163 -3.6361725648395153,5.61836525794785 -2.6851160485443604,5.309348263572903 -1.8407881230423473,4.773521468593907 -1.1562410171136595,4.044552841172498 -0.6744873430119442,3.168246161128637 -0.42579745584708784,2.199663000000005 -0.4257974558470856,1.1996630000000108"/>
<polygon class="face_stroke" points="-1.1562415636719274,-0.6452269583488403 -0.8672097667274559,-1.6025464558809075 -1.8407886696006162,-1.3741955857702521"/>
<polygon class="face_stroke" points="-1.1562412332725442,-0.6452265441190925 -0.1826623303993835,-0.8735774142297483 -0.8672094363280721,-1.6025460416511599"/>
<polygon class="face_stroke" points="-1.1562406696006162,-0.6452265857702523 -0.4716935636719277,0.08374204165115967 -0.18266176672745554,-0.8735774558809073"/>
<text class="face_text" text-anchor="middle" dominant-baseline="middle" transform="matrix(0.02125782682089952 0 0 0.02125782682089952 0.0 0.0)">0</text>
<text class="face_text" text-anchor="middle" dominant-baseline="middle" transform="matrix(0.02125782682089952 0 0 0.02125782682089952 4.246583 0.0)">50</text>
<text class="face_text" text-anchor="middle" dominant-baseline="middle" transform="matrix(0.02125782682089952 0 0 0.02125782682089952 0.133414 1.056082)">48</text>
<text class="face_text" text-anchor="middle" dominant-baseline="middle" transform="matrix(0.02125782682089952 0 0 0.02125782682089952 -0.270537 0.643581)">49</text>
<text class="face_text" text-anchor="middle" dominant-baseline="middle" transform="matrix(0.02125782682089952 0 0 0.02125782682089952 -4.383705 1.699663)">51</text>
<text class="face_text" text-anchor="middle" dominant-baseline="middle" transform="matrix(0.02125782682089952 0 0 0.02125782682089952 -1.28808 -1.207323)">3</text>
<text class="face_text" text-anchor="middle" dominant-baseline="middle" transform="matrix(0.02125782682089952 0 0 0.02125782682089952 -0.735371 -1.04045)">2</text>
<text class="face_text" text-anchor="middle" dominant-baseline="middle" transform="matrix(0.02125782682089952 0 0 0.02125782682089952 -0.603532 -0.478354)">1</text>
<rect class="edge_bg" x="0.07609718763809159" y="-0.21257826820899564" width="0.42515653641799034" height="0.42515653641799034"/>
<text class="edge_text" text-anchor="middle" dominant-baseline="middle" transform="matrix(0.02125782682089952 0 0 0.02125782682089952 0.28867545584708676 -4.847038805268027e-16)">1</text>
<rect class="edge_bg" x="0.20044160619608187" y="0.7717131451413215" width="0.42515653641799034" height="0.42515653641799034"/>
<text class="edge_text" text-anchor="middle" dominant-baseline="middle" transform="matrix(0.02125782682089952 0 0 0.02125782682089952 0.41301987440507704 0.9842914133503167)">2</text>
<rect class="edge_bg" x="-0.281139859215243" y="0.637253228748321" width="0.42515653641799034" height="0.42515653641799034"/>
<text class="edge_text" text-anchor="middle" dominant-baseline="middle" transform="matrix(0.02125782682089952 0 0 0.02125782682089952 -0.06856159100624784 0.8498314969573162)">3</text>
<rect class="edge_bg" x="-0.7627206676385092" y="0.5027931512266891" width="0.42515653641799034" height="0.42515653641799034"/>
<text class="edge_text" text-anchor="middle" dominant-baseline="middle" transform="matrix(0.02125782682089952 0 0 0.02125782682089952 -0.550142399429514 0.7153714194356843)">6</text>
<rect class="edge_bg" x="-1.7110933848452672" y="-1.2222895402685412" width="0.42515653641799034" height="0.42515653641799034"/>
<text class="edge_text" text-anchor="middle" dominant-baseline="middle" transform="matrix(0.02125782682089952 0 0 0.02125782682089952 -1.498515116636272 -1.009711272059546)">10</text>
<rect class="edge_bg" x="-1.2243036030093033" y="-1.3364645610941215" width="0.42515653641799034" height="0.42515653641799034"/>
<text class="edge_text" text-anchor="middle" dominant-baseline="middle" transform="matrix(0.02125782682089952 0 0 0.02125782682089952 -1.0117253348003081 -1.1238862928851263)">9</text>
<rect class="edge_bg" x="-0.8820294863730314" y="-0.971980289034575" width="0.42515653641799034" height="0.42515653641799034"/>
<text class="edge_text" text-anchor="middle" dominant-baseline="middle" transform="matrix(0.02125782682089952 0 0 0.02125782682089952 -0.6694512181640362 -0.7594020208255798)">7</text>
</svg>
