<?xml version="1.0" encoding="utf-8"?>
<svg version="1.1" xmlns="http://www.w3.org/2000/svg" viewBox="-4.827393365557712 -4.40464205522488 18.436626731115425 9.30928411044976" style="enable-background:new -4.827393365557712 -4.40464205522488 18.436626731115425 9.30928411044976;">
<style type="text/css">
  .face_stroke {fill:none; stroke:#000000; stroke-width:0.02; stroke-miterlimit:10;}
  .face_text {fill:#000000; font-family:monospace;}
  .edge_text {fill:#ff0000; font-family:monospace;}
  .edge_bg {fill:#f3f3f3; stroke:#606060; stroke-width:0.01;}
</style>
<polygon class="face_stroke" points="3.957907544152913,-0.5 3.7092176569880584,-1.4685831611286309 3.227463982886343,-2.3448898411724945 2.5429168769576544,-3.0738584685939054 1.69858895145564,-3.6096852635729024 0.7475324351604855,-3.91870225794785 -0.2504942932677856,-3.9814927774771633 -1.2327815439964747,-3.7941114628914385 -2.1376085964624947,-3.3683321713263656 -2.9081218392382833,-2.730908181577676 -3.4959070915307557,-1.921891187202729 -3.864031644215434,-0.9921147013144761 -3.989364877779738,3.054711499933208e-15 -3.864031644215433,0.9921147013144803 -3.4959070915307553,1.9218911872027296 -2.9081218392382815,2.7309081815776777 -2.1376085964624925,3.368332171326367 -1.2327815439964713,3.7941114628914394 -0.25049429326778483,3.9814927774771633 0.7475324351604845,3.91870225794785 1.6985889514556394,3.609685263572903 2.5429168769576527,3.073858468593907 3.2274639828863405,2.344889841172498 3.7092176569880557,1.468583161128637 3.957907544152912,0.5000000000000051"/>
<polygon class="face_stroke" points="3.957907865405187,0.4999999999999999 4.823933269189626,1.414100318299876e-16 3.9579078654051876,-0.5000000000000003"/>
<polygon class="face_stroke" points="3.957907730810374,0.49999999999999994 4.823933134594813,1.0 4.823933134594813,-1.1102230246251565e-16"/>
<polygon class="face_stroke" points="4.823932455847087,0.9999999999999983 5.0726223430119415,1.968583161128629 5.554376017113658,2.844889841172494 6.238923123042348,3.5738584685939063 7.08325104854436,4.109685263572902 8.034307564839512,4.418702257947849 9.032334293267784,4.481492777477163 10.014621543996471,4.29411146289144 10.91944859646249,3.8683321713263696 11.689961839238277,3.230908181577683 12.27774709153075,2.421891187202738 12.645871644215433,1.4921147013144869 12.771204877779738,0.5000000000000117 12.645871644215438,-0.49211470131446433 12.277747091530763,-1.4218911872027151 11.689961839238297,-2.2309081815776635 10.919448596462509,-2.868332171326357 10.014621543996496,-3.294111462891432 9.032334293267807,-3.481492777477162 8.03430756483954,-3.4187022579478548 7.083251048544384,-3.1096852635729135 6.238923123042365,-2.573858468593921 5.554376017113675,-1.8448898411725185 5.072622343011953,-0.9685831611286575 4.823932455847091,-2.6645352591003757e-14"/>
<polygon class="face_stroke" points="5.072623111757139,1.9685833532652097 4.554596102384008,2.8239476134257164 5.554376785858854,2.8448900333090736"/>
<polygon class="face_stroke" points="5.072622897615992,1.9685833865742834 4.072842214141146,1.9476409666909265 4.554595888242861,2.82394764673479"/>
<polygon class="face_stroke" points="5.0726227858588535,1.9685830333090735 4.590869111757138,1.0922763532652098 4.072842102384008,1.9476406134257167"/>
<polygon class="face_stroke" points="4.590868897615993,1.0922763865742833 3.5910882141411467,1.0713339666909265 4.072841888242862,1.9476406467347902"/>
<text class="face_text" text-anchor="middle" dominant-baseline="middle" transform="matrix(0.01861856822089952 0 0 0.01861856822089952 0.0 0.0)">50</text>
<text class="face_text" text-anchor="middle" dominant-baseline="middle" transform="matrix(0.01861856822089952 0 0 0.01861856822089952 4.246583 0.0)">0</text>
<text class="face_text" text-anchor="middle" dominant-baseline="middle" transform="matrix(0.01861856822089952 0 0 0.01861856822089952 4.535258 0.5)">1</text>
<text class="face_text" text-anchor="middle" dominant-baseline="middle" transform="matrix(0.01861856822089952 0 0 0.01861856822089952 8.78184 0.5)">51</text>
<text class="face_text" text-anchor="middle" dominant-baseline="middle" transform="matrix(0.01861856822089952 0 0 0.01861856822089952 5.060532 2.545807)">5</text>
<text class="face_text" text-anchor="middle" dominant-baseline="middle" transform="matrix(0.01861856822089952 0 0 0.01861856822089952 4.566687 2.246724)">4</text>
<text class="face_text" text-anchor="middle" dominant-baseline="middle" transform="matrix(0.01861856822089952 0 0 0.01861856822089952 4.578778 1.6695)">3</text>
<text class="face_text" text-anchor="middle" dominant-baseline="middle" transform="matrix(0.01861856822089952 0 0 0.01861856822089952 4.084933 1.370417)">2</text>
<rect class="edge_bg" x="3.771722183196192" y="-0.18618568220899523" width="0.3723713644179904" height="0.3723713644179904"/>
<text class="edge_text" text-anchor="middle" dominant-baseline="middle" transform="matrix(0.01861856822089952 0 0 0.01861856822089952 3.957907865405187 -3.535250795749691e-17)">1</text>
<rect class="edge_bg" x="4.204734750493598" y="0.06381431779100469" width="0.3723713644179904" height="0.3723713644179904"/>
<text class="edge_text" text-anchor="middle" dominant-baseline="middle" transform="matrix(0.01861856822089952 0 0 0.01861856822089952 4.390920432702593 0.2499999999999999)">4</text>
<rect class="edge_bg" x="4.637746773638092" y="0.3138143177910043" width="0.3723713644179904" height="0.3723713644179904"/>
<text class="edge_text" text-anchor="middle" dominant-baseline="middle" transform="matrix(0.01861856822089952 0 0 0.01861856822089952 4.823932455847087 0.4999999999999995)">5</text>
<rect class="edge_bg" x="5.127314266599001" y="2.2205510110781463" width="0.3723713644179904" height="0.3723713644179904"/>
<text class="edge_text" text-anchor="middle" dominant-baseline="middle" transform="matrix(0.01861856822089952 0 0 0.01861856822089952 5.313499948807996 2.4067366932871415)">14</text>
<rect class="edge_bg" x="4.627423710720432" y="2.2100798344455415" width="0.3723713644179904" height="0.3723713644179904"/>
<text class="edge_text" text-anchor="middle" dominant-baseline="middle" transform="matrix(0.01861856822089952 0 0 0.01861856822089952 4.813609392929427 2.3962655166545366)">13</text>
<rect class="edge_bg" x="4.386546761912435" y="1.7719261411584" width="0.3723713644179904" height="0.3723713644179904"/>
<text class="edge_text" text-anchor="middle" dominant-baseline="middle" transform="matrix(0.01861856822089952 0 0 0.01861856822089952 4.5727324441214305 1.958111823367395)">11</text>
<rect class="edge_bg" x="4.1456697107204326" y="1.3337728344455417" width="0.3723713644179904" height="0.3723713644179904"/>
<text class="edge_text" text-anchor="middle" dominant-baseline="middle" transform="matrix(0.01861856822089952 0 0 0.01861856822089952 4.331855392929428 1.5199585166545369)">9</text>
</svg>
