<?xml version="1.0" encoding="utf-8"?>
<svg version="1.1" xmlns="http://www.w3.org/2000/svg" viewBox="-4.827393365557712 -4.40464205522488 18.436626731115425 9.30928411044976" style="enable-background:new -4.827393365557712 -4.40464205522488 18.436626731115425 9.30928411044976;">
<style type="text/css">
  .face_stroke {fill:none; stroke:#000000; stroke-width:0.02; stroke-miterlimit:10;}
  .face_text {fill:#000000; font-family:monospace;}
  .edge_text {fill:#ff0000; font-family:monospace;}
  .edge_bg {fill:#f3f3f3; stroke:#606060; stroke-width:0.01;}
</style>
<polygon class="face_stroke" points="3.957907544152913,-0.5 3.7092176569880584,-1.4685831611286309 3.227463982886343,-2.3448898411724945 2.5429168769576544,-3.0738584685939054 1.69858895145564,-3.6096852635729024 0.7475324351604855,-3.91870225794785 -0.2504942932677856,-3.9814927774771633 -1.2327815439964747,-3.7941114628914385 -2.1376085964624947,-3.3683321713263656 -2.9081218392382833,-2.730908181577676 -3.4959070915307557,-1.921891187202729 -3.864031644215434,-0.9921147013144761 -3.989364877779738,3.054711499933208e-15 -3.864031644215433,0.9921147013144803 -3.4959070915307553,1.9218911872027296 -2.9081218392382815,2.7309081815776777 -2.1376085964624925,3.368332171326367 -1.2327815439964713,3.7941114628914394 -0.25049429326778483,3.9814927774771633 0.7475324351604845,3.91870225794785 1.6985889514556394,3.609685263572903 2.5429168769576527,3.073858468593907 3.2274639828863405,2.344889841172498 3.7092176569880557,1.468583161128637 3.957907544152912,0.5000000000000051"/>
<polygon class="face_stroke" points="3.957907865405187,0.4999999999999999 4.823933269189626,1.414100318299876e-16 3.9579078654051876,-0.5000000000000003"/>
<polygon class="face_stroke" points="3.957907730810374,0.49999999999999994 4.823933134594813,1.0 4.823933134594813,-1.1102230246251565e-16"/>
<polygon class="face_stroke" points="4.823932455847087,0.9999999999999983 5.0726223430119415,1.968583161128629 5.554376017113658,2.844889841172494 6.238923123042348,3.5738584685939063 7.08325104854436,4.109685263572902 8.034307564839512,4.418702257947849 9.032334293267784,4.481492777477163 10.014621543996471,4.29411146289144 10.91944859646249,3.8683321713263696 11.689961839238277,3.230908181577683 12.27774709153075,2.421891187202738 12.645871644215433,1.4921147013144869 12.771204877779738,0.5000000000000117 12.645871644215438,-0.49211470131446433 12.277747091530763,-1.4218911872027151 11.689961839238297,-2.2309081815776635 10.919448596462509,-2.868332171326357 10.014621543996496,-3.294111462891432 9.032334293267807,-3.481492777477162 8.03430756483954,-3.4187022579478548 7.083251048544384,-3.1096852635729135 6.238923123042365,-2.573858468593921 5.554376017113675,-1.8448898411725185 5.072622343011953,-0.9685831611286575 4.823932455847091,-2.6645352591003757e-14"/>
<polygon class="face_stroke" points="5.554376563671927,2.84488995834884 5.2653447667274555,3.8022094558809076 6.2389236696006165,3.573858585770252"/>
<polygon class="face_stroke" points="5.554376233272544,2.8448895441190922 4.580797330399383,3.0732404142297476 5.265344436328072,3.80220904165116"/>
<polygon class="face_stroke" points="5.554376669600616,2.844889585770252 4.869829563671927,2.1159209583488403 4.580797766727455,3.0732404558809074"/>
<polygon class="face_stroke" points="4.869829233272545,2.115921544119092 3.896250330399384,2.3442724142297475 4.580797436328073,3.0732410416511597"/>
<polygon class="face_stroke" points="4.869829669600617,2.115921585770252 4.185282563671928,1.3869529583488402 3.896250766727456,2.3442724558809074"/>
<polygon class="face_stroke" points="4.185282233272544,1.3869525441190924 3.211703330399384,1.6153034142297478 3.896250436328072,2.3442720416511595"/>
<text class="face_text" text-anchor="middle" dominant-baseline="middle" transform="matrix(0.01861856822089952 0 0 0.01861856822089952 0.0 0.0)">50</text>
<text class="face_text" text-anchor="middle" dominant-baseline="middle" transform="matrix(0.01861856822089952 0 0 0.01861856822089952 4.246583 0.0)">0</text>
<text class="face_text" text-anchor="middle" dominant-baseline="middle" transform="matrix(0.01861856822089952 0 0 0.01861856822089952 4.535258 0.5)">1</text>
<text class="face_text" text-anchor="middle" dominant-baseline="middle" transform="matrix(0.01861856822089952 0 0 0.01861856822089952 8.78184 0.5)">51</text>
<text class="face_text" text-anchor="middle" dominant-baseline="middle" transform="matrix(0.01861856822089952 0 0 0.01861856822089952 5.686215 3.406986)">7</text>
<text class="face_text" text-anchor="middle" dominant-baseline="middle" transform="matrix(0.01861856822089952 0 0 0.01861856822089952 5.133506 3.240113)">6</text>
<text class="face_text" text-anchor="middle" dominant-baseline="middle" transform="matrix(0.01861856822089952 0 0 0.01861856822089952 5.001668 2.678017)">5</text>
<text class="face_text" text-anchor="middle" dominant-baseline="middle" transform="matrix(0.01861856822089952 0 0 0.01861856822089952 4.448959 2.511145)">4</text>
<text class="face_text" text-anchor="middle" dominant-baseline="middle" transform="matrix(0.01861856822089952 0 0 0.01861856822089952 4.317121 1.949049)">3</text>
<text class="face_text" text-anchor="middle" dominant-baseline="middle" transform="matrix(0.01861856822089952 0 0 0.01861856822089952 3.764412 1.782176)">2</text>
<rect class="edge_bg" x="3.771722183196192" y="-0.18618568220899523" width="0.3723713644179904" height="0.3723713644179904"/>
<text class="edge_text" text-anchor="middle" dominant-baseline="middle" transform="matrix(0.01861856822089952 0 0 0.01861856822089952 3.957907865405187 -3.535250795749691e-17)">1</text>
<rect class="edge_bg" x="4.204734750493598" y="0.06381431779100469" width="0.3723713644179904" height="0.3723713644179904"/>
<text class="edge_text" text-anchor="middle" dominant-baseline="middle" transform="matrix(0.01861856822089952 0 0 0.01861856822089952 4.390920432702593 0.2499999999999999)">4</text>
<rect class="edge_bg" x="4.637746773638092" y="0.3138143177910043" width="0.3723713644179904" height="0.3723713644179904"/>
<text class="edge_text" text-anchor="middle" dominant-baseline="middle" transform="matrix(0.01861856822089952 0 0 0.01861856822089952 4.823932455847087 0.4999999999999995)">5</text>
<rect class="edge_bg" x="5.710464434427276" y="3.023188589850551" width="0.3723713644179904" height="0.3723713644179904"/>
<text class="edge_text" text-anchor="middle" dominant-baseline="middle" transform="matrix(0.01861856822089952 0 0 0.01861856822089952 5.8966501166362715 3.209374272059546)">18</text>
<rect class="edge_bg" x="5.2236746525913125" y="3.1373636106761307" width="0.3723713644179904" height="0.3723713644179904"/>
<text class="edge_text" text-anchor="middle" dominant-baseline="middle" transform="matrix(0.01861856822089952 0 0 0.01861856822089952 5.409860334800308 3.323549292885126)">17</text>
<rect class="edge_bg" x="4.881401535955041" y="2.772879338616585" width="0.3723713644179904" height="0.3723713644179904"/>
<text class="edge_text" text-anchor="middle" dominant-baseline="middle" transform="matrix(0.01861856822089952 0 0 0.01861856822089952 5.067587218164036 2.95906502082558)">15</text>
<rect class="edge_bg" x="4.539127652591313" y="2.4083956106761306" width="0.3723713644179904" height="0.3723713644179904"/>
<text class="edge_text" text-anchor="middle" dominant-baseline="middle" transform="matrix(0.01861856822089952 0 0 0.01861856822089952 4.725313334800308 2.5945812928851257)">13</text>
<rect class="edge_bg" x="4.196854535955041" y="2.043911338616585" width="0.3723713644179904" height="0.3723713644179904"/>
<text class="edge_text" text-anchor="middle" dominant-baseline="middle" transform="matrix(0.01861856822089952 0 0 0.01861856822089952 4.383040218164036 2.23009702082558)">11</text>
<rect class="edge_bg" x="3.854580652591313" y="1.6794266106761309" width="0.3723713644179904" height="0.3723713644179904"/>
<text class="edge_text" text-anchor="middle" dominant-baseline="middle" transform="matrix(0.01861856822089952 0 0 0.01861856822089952 4.040766334800308 1.865612292885126)">9</text>
</svg>
