<?xml version="1.0" encoding="utf-8"?>
<svg version="1.1" xmlns="http://www.w3.org/2000/svg" viewBox="-4.827393365557712 -4.4092164641046665 18.436626731115425 9.409921105805076" style="enable-background:new -4.827393365557712 -4.4092164641046665 18.436626731115425 9.409921105805076;">
<style type="text/css">
  .face_stroke {fill:none; stroke:#000000; stroke-width:0.02; stroke-miterlimit:10;}
  .face_text {fill:#000000; font-family:monospace;}
  .edge_text {fill:#ff0000; font-family:monospace;}
  .edge_bg {fill:#f3f3f3; stroke:#606060; stroke-width:0.01;}
</style>
<polygon class="face_stroke" points="3.957907544152913,-0.5 3.7092176569880584,-1.4685831611286309 3.227463982886343,-2.3448898411724945 2.5429168769576544,-3.0738584685939054 1.69858895145564,-3.6096852635729024 0.7475324351604855,-3.91870225794785 -0.2504942932677856,-3.9814927774771633 -1.2327815439964747,-3.7941114628914385 -2.1376085964624947,-3.3683321713263656 -2.9081218392382833,-2.730908181577676 -3.4959070915307557,-1.921891187202729 -3.864031644215434,-0.9921147013144761 -3.989364877779738,3.054711499933208e-15 -3.864031644215433,0.9921147013144803 -3.4959070915307553,1.9218911872027296 -2.9081218392382815,2.7309081815776777 -2.1376085964624925,3.368332171326367 -1.2327815439964713,3.7941114628914394 -0.25049429326778483,3.9814927774771633 0.7475324351604845,3.91870225794785 1.6985889514556394,3.609685263572903 2.5429168769576527,3.073858468593907 3.2274639828863405,2.344889841172498 3.7092176569880557,1.468583161128637 3.957907544152912,0.5000000000000051"/>
<polygon class="face_stroke" points="3.957907865405187,0.4999999999999999 4.823933269189626,1.414100318299876e-16 3.9579078654051876,-0.5000000000000003"/>
<polygon class="face_stroke" points="3.957907730810374,0.49999999999999994 4.823933134594813,1.0 4.823933134594813,-1.1102230246251565e-16"/>
<polygon class="face_stroke" points="4.823932455847087,0.9999999999999983 5.0726223430119415,1.968583161128629 5.554376017113658,2.844889841172494 6.238923123042348,3.5738584685939063 7.08325104854436,4.109685263572902 8.034307564839512,4.418702257947849 9.032334293267784,4.481492777477163 10.014621543996471,4.29411146289144 10.91944859646249,3.8683321713263696 11.689961839238277,3.230908181577683 12.27774709153075,2.421891187202738 12.645871644215433,1.4921147013144869 12.771204877779738,0.5000000000000117 12.645871644215438,-0.49211470131446433 12.277747091530763,-1.4218911872027151 11.689961839238297,-2.2309081815776635 10.919448596462509,-2.868332171326357 10.014621543996496,-3.294111462891432 9.032334293267807,-3.481492777477162 8.03430756483954,-3.4187022579478548 7.083251048544384,-3.1096852635729135 6.238923123042365,-2.573858468593921 5.554376017113675,-1.8448898411725185 5.072622343011953,-0.9685831611286575 4.823932455847091,-2.6645352591003757e-14"/>
<polygon class="face_stroke" points="6.238923909409062,3.573858124974048 6.197048255679862,4.572980955072906 7.083251834911077,4.109684919953045"/>
<polygon class="face_stroke" points="6.238923744320138,3.573858044927093 5.352720165088924,4.037154080046955 6.197048090590939,4.5729808750259515"/>
<polygon class="face_stroke" points="6.238923834911076,3.573858919953045 5.394595909409061,3.038032124974048 5.352720255679861,4.037154955072906"/>
<polygon class="face_stroke" points="5.394595744320139,3.038032044927093 4.508392165088924,3.501328080046955 5.352720090590939,4.037154875025951"/>
<polygon class="face_stroke" points="5.394595834911076,3.038031919953045 4.550267909409062,2.502205124974048 4.508392255679861,3.5013279550729064"/>
<polygon class="face_stroke" points="4.550267744320138,2.502205044927093 3.6640641650889236,2.965501080046955 4.508392090590939,3.501327875025952"/>
<polygon class="face_stroke" points="4.550267834911077,2.502204919953045 3.7059399094090617,1.9663781249740482 3.6640642556798615,2.9655009550729066"/>
<polygon class="face_stroke" points="3.7059397443201383,1.966378044927093 2.8197361650889237,2.4296740800469547 3.6640640905909385,2.9655008750259517"/>
<text class="face_text" text-anchor="middle" dominant-baseline="middle" transform="matrix(0.018819842211610153 0 0 0.018819842211610153 0.0 0.0)">50</text>
<text class="face_text" text-anchor="middle" dominant-baseline="middle" transform="matrix(0.018819842211610153 0 0 0.018819842211610153 4.246583 0.0)">0</text>
<text class="face_text" text-anchor="middle" dominant-baseline="middle" transform="matrix(0.018819842211610153 0 0 0.018819842211610153 4.535258 0.5)">1</text>
<text class="face_text" text-anchor="middle" dominant-baseline="middle" transform="matrix(0.018819842211610153 0 0 0.018819842211610153 8.78184 0.5)">51</text>
<text class="face_text" text-anchor="middle" dominant-baseline="middle" transform="matrix(0.018819842211610153 0 0 0.018819842211610153 6.506408 4.085508)">9</text>
<text class="face_text" text-anchor="middle" dominant-baseline="middle" transform="matrix(0.018819842211610153 0 0 0.018819842211610153 5.929564 4.061331)">8</text>
<text class="face_text" text-anchor="middle" dominant-baseline="middle" transform="matrix(0.018819842211610153 0 0 0.018819842211610153 5.66208 3.549682)">7</text>
<text class="face_text" text-anchor="middle" dominant-baseline="middle" transform="matrix(0.018819842211610153 0 0 0.018819842211610153 5.085236 3.525505)">6</text>
<text class="face_text" text-anchor="middle" dominant-baseline="middle" transform="matrix(0.018819842211610153 0 0 0.018819842211610153 4.817752 3.013855)">5</text>
<text class="face_text" text-anchor="middle" dominant-baseline="middle" transform="matrix(0.018819842211610153 0 0 0.018819842211610153 4.240908 2.989678)">4</text>
<text class="face_text" text-anchor="middle" dominant-baseline="middle" transform="matrix(0.018819842211610153 0 0 0.018819842211610153 3.973424 2.478028)">3</text>
<text class="face_text" text-anchor="middle" dominant-baseline="middle" transform="matrix(0.018819842211610153 0 0 0.018819842211610153 3.39658 2.453851)">2</text>
<rect class="edge_bg" x="3.7697094432890856" y="-0.18819842211610155" width="0.37639684423220304" height="0.37639684423220304"/>
<text class="edge_text" text-anchor="middle" dominant-baseline="middle" transform="matrix(0.018819842211610153 0 0 0.018819842211610153 3.957907865405187 -3.535250795749691e-17)">1</text>
<rect class="edge_bg" x="4.202722010586491" y="0.06180157788389837" width="0.37639684423220304" height="0.37639684423220304"/>
<text class="edge_text" text-anchor="middle" dominant-baseline="middle" transform="matrix(0.018819842211610153 0 0 0.018819842211610153 4.390920432702593 0.2499999999999999)">4</text>
<rect class="edge_bg" x="4.635734033730985" y="0.31180157788389795" width="0.37639684423220304" height="0.37639684423220304"/>
<text class="edge_text" text-anchor="middle" dominant-baseline="middle" transform="matrix(0.018819842211610153 0 0 0.018819842211610153 4.823932455847087 0.4999999999999995)">5</text>
<rect class="edge_bg" x="6.472889450043968" y="3.653573100347445" width="0.37639684423220304" height="0.37639684423220304"/>
<text class="edge_text" text-anchor="middle" dominant-baseline="middle" transform="matrix(0.018819842211610153 0 0 0.018819842211610153 6.66108787216007 3.8417715224635467)">22</text>
<rect class="edge_bg" x="6.029787495339437" y="3.8852210378604206" width="0.37639684423220304" height="0.37639684423220304"/>
<text class="edge_text" text-anchor="middle" dominant-baseline="middle" transform="matrix(0.018819842211610153 0 0 0.018819842211610153 6.217985917455539 4.073419459976522)">21</text>
<rect class="edge_bg" x="5.607623623179367" y="3.617308515396874" width="0.37639684423220304" height="0.37639684423220304"/>
<text class="edge_text" text-anchor="middle" dominant-baseline="middle" transform="matrix(0.018819842211610153 0 0 0.018819842211610153 5.795822045295469 3.8055069375129755)">19</text>
<rect class="edge_bg" x="5.185459495339437" y="3.349395037860421" width="0.37639684423220304" height="0.37639684423220304"/>
<text class="edge_text" text-anchor="middle" dominant-baseline="middle" transform="matrix(0.018819842211610153 0 0 0.018819842211610153 5.373657917455539 3.5375934599765224)">17</text>
<rect class="edge_bg" x="4.763295623179367" y="3.081481515396874" width="0.37639684423220304" height="0.37639684423220304"/>
<text class="edge_text" text-anchor="middle" dominant-baseline="middle" transform="matrix(0.018819842211610153 0 0 0.018819842211610153 4.951494045295469 3.2696799375129757)">15</text>
<rect class="edge_bg" x="4.341131495339437" y="2.813568037860421" width="0.37639684423220304" height="0.37639684423220304"/>
<text class="edge_text" text-anchor="middle" dominant-baseline="middle" transform="matrix(0.018819842211610153 0 0 0.018819842211610153 4.529329917455539 3.0017664599765226)">13</text>
<rect class="edge_bg" x="3.9189676231793675" y="2.5456545153968744" width="0.37639684423220304" height="0.37639684423220304"/>
<text class="edge_text" text-anchor="middle" dominant-baseline="middle" transform="matrix(0.018819842211610153 0 0 0.018819842211610153 4.107166045295469 2.733852937512976)">11</text>
<rect class="edge_bg" x="3.496803495339437" y="2.277741037860421" width="0.37639684423220304" height="0.37639684423220304"/>
<text class="edge_text" text-anchor="middle" dominant-baseline="middle" transform="matrix(0.018819842211610153 0 0 0.018819842211610153 3.6850019174555384 2.4659394599765223)">9</text>
</svg>
