<?xml version="1.0" encoding="utf-8"?>
<svg version="1.1" xmlns="http://www.w3.org/2000/svg" viewBox="-4.827393365557712 -4.516299147161922 18.436626731115425 9.426258206764755" style="enable-background:new -4.827393365557712 -4.516299147161922 18.436626731115425 9.426258206764755;">
<style type="text/css">
  .face_stroke {fill:none; stroke:#000000; stroke-width:0.02; stroke-miterlimit:10;}
  .face_text {fill:#000000; font-family:monospace;}
  .edge_text {fill:#ff0000; font-family:monospace;}
  .edge_bg {fill:#f3f3f3; stroke:#606060; stroke-width:0.01;}
</style>
<polygon class="face_stroke" points="3.957907544152913,-0.5 3.7092176569880584,-1.4685831611286309 3.227463982886343,-2.3448898411724945 2.5429168769576544,-3.0738584685939054 1.69858895145564,-3.6096852635729024 0.7475324351604855,-3.91870225794785 -0.2504942932677856,-3.9814927774771633 -1.2327815439964747,-3.7941114628914385 -2.1376085964624947,-3.3683321713263656 -2.9081218392382833,-2.730908181577676 -3.4959070915307557,-1.921891187202729 -3.864031644215434,-0.9921147013144761 -3.989364877779738,3.054711499933208e-15 -3.864031644215433,0.9921147013144803 -3.4959070915307553,1.9218911872027296 -2.9081218392382815,2.7309081815776777 -2.1376085964624925,3.368332171326367 -1.2327815439964713,3.7941114628914394 -0.25049429326778483,3.9814927774771633 0.7475324351604845,3.91870225794785 1.6985889514556394,3.609685263572903 2.5429168769576527,3.073858468593907 3.2274639828863405,2.344889841172498 3.7092176569880557,1.468583161128637 3.957907544152912,0.5000000000000051"/>
<polygon class="face_stroke" points="3.957907865405187,0.4999999999999999 4.823933269189626,1.414100318299876e-16 3.9579078654051876,-0.5000000000000003"/>
<polygon class="face_stroke" points="3.957907730810374,0.49999999999999994 4.823933134594813,1.0 4.823933134594813,-1.1102230246251565e-16"/>
<polygon class="face_stroke" points="4.823932455847087,0.9999999999999983 5.0726223430119415,1.968583161128629 5.554376017113658,2.844889841172494 6.238923123042348,3.5738584685939063 7.08325104854436,4.109685263572902 8.034307564839512,4.418702257947849 9.032334293267784,4.481492777477163 10.014621543996471,4.29411146289144 10.91944859646249,3.8683321713263696 11.689961839238277,3.230908181577683 12.27774709153075,2.421891187202738 12.645871644215433,1.4921147013144869 12.771204877779738,0.5000000000000117 12.645871644215438,-0.49211470131446433 12.277747091530763,-1.4218911872027151 11.689961839238297,-2.2309081815776635 10.919448596462509,-2.868332171326357 10.014621543996496,-3.294111462891432 9.032334293267807,-3.481492777477162 8.03430756483954,-3.4187022579478548 7.083251048544384,-3.1096852635729135 6.238923123042365,-2.573858468593921 5.554376017113675,-1.8448898411725185 5.072622343011953,-0.9685831611286575 4.823932455847091,-2.6645352591003757e-14"/>
<polygon class="face_stroke" points="8.034307780590849,-3.4187021293386968 7.291162955113455,-4.087832735697555 7.083251264295695,-3.1096851349637493"/>
<polygon class="face_stroke" points="7.2911627357043045,-4.087832865036251 6.340106219409151,-3.7788158706613033 7.083251044886545,-3.109685264302445"/>
<polygon class="face_stroke" points="6.3401069551134555,-3.7788157356975547 6.132195264295696,-2.800668134963749 7.0832517805908495,-3.109685129338696"/>
<polygon class="face_stroke" points="6.340106735704304,-3.778815865036251 5.3890502194091505,-3.4697988706613034 6.1321950448865445,-2.800668264302445"/>
<polygon class="face_stroke" points="5.389049955113455,-3.469798735697555 5.181138264295695,-2.491651134963749 6.132194780590849,-2.800668129338696"/>
<polygon class="face_stroke" points="5.389049735704305,-3.469798865036251 4.437993219409151,-3.1607818706613036 5.181138044886545,-2.4916512643024453"/>
<polygon class="face_stroke" points="4.4379939551134555,-3.160781735697555 4.230082264295696,-2.1826341349637493 5.1811387805908495,-2.4916511293386963"/>
<polygon class="face_stroke" points="4.437993735704304,-3.1607818650362507 3.4869372194091506,-2.8517648706613032 4.230082044886545,-2.182634264302445"/>
<polygon class="face_stroke" points="3.486936955113455,-2.8517647356975546 3.2790252642956954,-1.873617134963749 4.230081780590849,-2.182634129338696"/>
<text class="face_text" text-anchor="middle" dominant-baseline="middle" transform="matrix(0.018852516413529512 0 0 0.018852516413529512 0.0 0.0)">50</text>
<text class="face_text" text-anchor="middle" dominant-baseline="middle" transform="matrix(0.018852516413529512 0 0 0.018852516413529512 4.246583 0.0)">0</text>
<text class="face_text" text-anchor="middle" dominant-baseline="middle" transform="matrix(0.018852516413529512 0 0 0.018852516413529512 4.535258 0.5)">1</text>
<text class="face_text" text-anchor="middle" dominant-baseline="middle" transform="matrix(0.018852516413529512 0 0 0.018852516413529512 8.78184 0.5)">51</text>
<text class="face_text" text-anchor="middle" dominant-baseline="middle" transform="matrix(0.018852516413529512 0 0 0.018852516413529512 7.469574 -3.53874)">41</text>
<text class="face_text" text-anchor="middle" dominant-baseline="middle" transform="matrix(0.018852516413529512 0 0 0.018852516413529512 6.90484 -3.658778)">42</text>
<text class="face_text" text-anchor="middle" dominant-baseline="middle" transform="matrix(0.018852516413529512 0 0 0.018852516413529512 6.518518 -3.229723)">43</text>
<text class="face_text" text-anchor="middle" dominant-baseline="middle" transform="matrix(0.018852516413529512 0 0 0.018852516413529512 5.953784 -3.349761)">44</text>
<text class="face_text" text-anchor="middle" dominant-baseline="middle" transform="matrix(0.018852516413529512 0 0 0.018852516413529512 5.567461 -2.920706)">45</text>
<text class="face_text" text-anchor="middle" dominant-baseline="middle" transform="matrix(0.018852516413529512 0 0 0.018852516413529512 5.002727 -3.040744)">46</text>
<text class="face_text" text-anchor="middle" dominant-baseline="middle" transform="matrix(0.018852516413529512 0 0 0.018852516413529512 4.616405 -2.611689)">47</text>
<text class="face_text" text-anchor="middle" dominant-baseline="middle" transform="matrix(0.018852516413529512 0 0 0.018852516413529512 4.051671 -2.731727)">48</text>
<text class="face_text" text-anchor="middle" dominant-baseline="middle" transform="matrix(0.018852516413529512 0 0 0.018852516413529512 3.665348 -2.302672)">49</text>
<rect class="edge_bg" x="3.769382701269892" y="-0.18852516413529513" width="0.3770503282705902" height="0.3770503282705902"/>
<text class="edge_text" text-anchor="middle" dominant-baseline="middle" transform="matrix(0.018852516413529512 0 0 0.018852516413529512 3.957907865405187 -3.535250795749691e-17)">1</text>
<rect class="edge_bg" x="4.202395268567298" y="0.061474835864704785" width="0.3770503282705902" height="0.3770503282705902"/>
<text class="edge_text" text-anchor="middle" dominant-baseline="middle" transform="matrix(0.018852516413529512 0 0 0.018852516413529512 4.390920432702593 0.2499999999999999)">4</text>
<rect class="edge_bg" x="4.635407291711792" y="0.31147483586470437" width="0.3770503282705902" height="0.3770503282705902"/>
<text class="edge_text" text-anchor="middle" dominant-baseline="middle" transform="matrix(0.018852516413529512 0 0 0.018852516413529512 4.823932455847087 0.4999999999999995)">5</text>
<rect class="edge_bg" x="7.370254358307977" y="-3.4527187962865176" width="0.3770503282705902" height="0.3770503282705902"/>
<text class="edge_text" text-anchor="middle" dominant-baseline="middle" transform="matrix(0.018852516413529512 0 0 0.018852516413529512 7.558779522443272 -3.2641936321512226)">86</text>
<rect class="edge_bg" x="6.99868172616013" y="-3.787284228804643" width="0.3770503282705902" height="0.3770503282705902"/>
<text class="edge_text" text-anchor="middle" dominant-baseline="middle" transform="matrix(0.018852516413529512 0 0 0.018852516413529512 7.187206890295425 -3.598759064669348)">87</text>
<rect class="edge_bg" x="6.5231542037168575" y="-3.6327755966534205" width="0.3770503282705902" height="0.3770503282705902"/>
<text class="edge_text" text-anchor="middle" dominant-baseline="middle" transform="matrix(0.018852516413529512 0 0 0.018852516413529512 6.7116793678521525 -3.4442504325181256)">89</text>
<rect class="edge_bg" x="6.047625726160129" y="-3.478267228804643" width="0.3770503282705902" height="0.3770503282705902"/>
<text class="edge_text" text-anchor="middle" dominant-baseline="middle" transform="matrix(0.018852516413529512 0 0 0.018852516413529512 6.236150890295424 -3.289742064669348)">91</text>
<rect class="edge_bg" x="5.572097203716857" y="-3.3237585966534207" width="0.3770503282705902" height="0.3770503282705902"/>
<text class="edge_text" text-anchor="middle" dominant-baseline="middle" transform="matrix(0.018852516413529512 0 0 0.018852516413529512 5.760622367852152 -3.1352334325181257)">93</text>
<rect class="edge_bg" x="5.09656872616013" y="-3.169250228804643" width="0.3770503282705902" height="0.3770503282705902"/>
<text class="edge_text" text-anchor="middle" dominant-baseline="middle" transform="matrix(0.018852516413529512 0 0 0.018852516413529512 5.285093890295425 -2.980725064669348)">95</text>
<rect class="edge_bg" x="4.621041203716858" y="-3.014741596653421" width="0.3770503282705902" height="0.3770503282705902"/>
<text class="edge_text" text-anchor="middle" dominant-baseline="middle" transform="matrix(0.018852516413529512 0 0 0.018852516413529512 4.8095663678521525 -2.826216432518126)">97</text>
<rect class="edge_bg" x="4.1455127261601294" y="-2.860233228804643" width="0.3770503282705902" height="0.3770503282705902"/>
<text class="edge_text" text-anchor="middle" dominant-baseline="middle" transform="matrix(0.018852516413529512 0 0 0.018852516413529512 4.334037890295424 -2.671708064669348)">99</text>
<rect class="edge_bg" x="3.669984203716857" y="-2.7057245966534205" width="0.3770503282705902" height="0.3770503282705902"/>
<text class="edge_text" text-anchor="middle" dominant-baseline="middle" transform="matrix(0.018852516413529512 0 0 0.018852516413529512 3.858509367852152 -2.5171994325181255)">3</text>
</svg>
