<?xml version="1.0" encoding="utf-8"?>
<svg version="1.1" xmlns="http://www.w3.org/2000/svg" viewBox="-4.827393365557712 -4.40464205522488 18.436626731115425 9.30928411044976" style="enable-background:new -4.827393365557712 -4.40464205522488 18.436626731115425 9.30928411044976;">
<style type="text/css">
  .face_stroke {fill:none; stroke:#000000; stroke-width:0.02; stroke-miterlimit:10;}
  .face_text {fill:#000000; font-family:monospace;}
  .edge_text {fill:#ff0000; font-family:monospace;}
  .edge_bg {fill:#f3f3f3; stroke:#606060; stroke-width:0.01;}
</style>
<polygon class="face_stroke" points="3.957907544152913,-0.5 3.7092176569880584,-1.4685831611286309 3.227463982886343,-2.3448898411724945 2.5429168769576544,-3.0738584685939054 1.69858895145564,-3.6096852635729024 0.7475324351604855,-3.91870225794785 -0.2504942932677856,-3.9814927774771633 -1.2327815439964747,-3.7941114628914385 -2.1376085964624947,-3.3683321713263656 -2.9081218392382833,-2.730908181577676 -3.4959070915307557,-1.921891187202729 -3.864031644215434,-0.9921147013144761 -3.989364877779738,3.054711499933208e-15 -3.864031644215433,0.9921147013144803 -3.4959070915307553,1.9218911872027296 -2.9081218392382815,2.7309081815776777 -2.1376085964624925,3.368332171326367 -1.2327815439964713,3.7941114628914394 -0.25049429326778483,3.9814927774771633 0.7475324351604845,3.91870225794785 1.6985889514556394,3.609685263572903 2.5429168769576527,3.073858468593907 3.2274639828863405,2.344889841172498 3.7092176569880557,1.468583161128637 3.957907544152912,0.5000000000000051"/>
<polygon class="face_stroke" points="3.957907865405187,0.4999999999999999 4.823933269189626,1.414100318299876e-16 3.9579078654051876,-0.5000000000000003"/>
<polygon class="face_stroke" points="3.957907730810374,0.49999999999999994 4.823933134594813,1.0 4.823933134594813,-1.1102230246251565e-16"/>
<polygon class="face_stroke" points="4.823932455847087,0.9999999999999983 5.0726223430119415,1.968583161128629 5.554376017113658,2.844889841172494 6.238923123042348,3.5738584685939063 7.08325104854436,4.109685263572902 8.034307564839512,4.418702257947849 9.032334293267784,4.481492777477163 10.014621543996471,4.29411146289144 10.91944859646249,3.8683321713263696 11.689961839238277,3.230908181577683 12.27774709153075,2.421891187202738 12.645871644215433,1.4921147013144869 12.771204877779738,0.5000000000000117 12.645871644215438,-0.49211470131446433 12.277747091530763,-1.4218911872027151 11.689961839238297,-2.2309081815776635 10.919448596462509,-2.868332171326357 10.014621543996496,-3.294111462891432 9.032334293267807,-3.481492777477162 8.03430756483954,-3.4187022579478548 7.083251048544384,-3.1096852635729135 6.238923123042365,-2.573858468593921 5.554376017113675,-1.8448898411725185 5.072622343011953,-0.9685831611286575 4.823932455847091,-2.6645352591003757e-14"/>
<polygon class="face_stroke" points="7.083251834911077,-3.109684919953045 6.197048255679863,-3.572980955072907 6.238923909409062,-2.5738581249740484"/>
<polygon class="face_stroke" points="6.197048090590939,-3.5729808750259515 5.352720165088924,-3.037154080046955 6.238923744320138,-2.573858044927093"/>
<polygon class="face_stroke" points="5.352720255679862,-3.0371549550729067 5.394595909409061,-2.0380321249740483 6.238923834911076,-2.573858919953045"/>
<polygon class="face_stroke" points="5.352720090590939,-3.0371548750259514 4.508392165088924,-2.501328080046955 5.394595744320138,-2.038032044927093"/>
<polygon class="face_stroke" points="4.508392255679862,-2.501327955072907 4.550267909409061,-1.5022051249740485 5.394595834911076,-2.038031919953045"/>
<polygon class="face_stroke" points="4.508392090590939,-2.501327875025952 3.6640641650889236,-1.9655010800469548 4.550267744320138,-1.5022050449270932"/>
<polygon class="face_stroke" points="3.664064255679862,-1.9655009550729068 3.7059399094090613,-0.9663781249740483 4.550267834911077,-1.5022049199530447"/>
<text class="face_text" text-anchor="middle" dominant-baseline="middle" transform="matrix(0.01861856822089952 0 0 0.01861856822089952 0.0 0.0)">50</text>
<text class="face_text" text-anchor="middle" dominant-baseline="middle" transform="matrix(0.01861856822089952 0 0 0.01861856822089952 4.246583 0.0)">0</text>
<text class="face_text" text-anchor="middle" dominant-baseline="middle" transform="matrix(0.01861856822089952 0 0 0.01861856822089952 4.535258 0.5)">1</text>
<text class="face_text" text-anchor="middle" dominant-baseline="middle" transform="matrix(0.01861856822089952 0 0 0.01861856822089952 8.78184 0.5)">51</text>
<text class="face_text" text-anchor="middle" dominant-baseline="middle" transform="matrix(0.01861856822089952 0 0 0.01861856822089952 6.506408 -3.085508)">43</text>
<text class="face_text" text-anchor="middle" dominant-baseline="middle" transform="matrix(0.01861856822089952 0 0 0.01861856822089952 5.929564 -3.061331)">44</text>
<text class="face_text" text-anchor="middle" dominant-baseline="middle" transform="matrix(0.01861856822089952 0 0 0.01861856822089952 5.66208 -2.549682)">45</text>
<text class="face_text" text-anchor="middle" dominant-baseline="middle" transform="matrix(0.01861856822089952 0 0 0.01861856822089952 5.085236 -2.525505)">46</text>
<text class="face_text" text-anchor="middle" dominant-baseline="middle" transform="matrix(0.01861856822089952 0 0 0.01861856822089952 4.817752 -2.013855)">47</text>
<text class="face_text" text-anchor="middle" dominant-baseline="middle" transform="matrix(0.01861856822089952 0 0 0.01861856822089952 4.240908 -1.989678)">48</text>
<text class="face_text" text-anchor="middle" dominant-baseline="middle" transform="matrix(0.01861856822089952 0 0 0.01861856822089952 3.973424 -1.478028)">49</text>
<rect class="edge_bg" x="3.771722183196192" y="-0.18618568220899523" width="0.3723713644179904" height="0.3723713644179904"/>
<text class="edge_text" text-anchor="middle" dominant-baseline="middle" transform="matrix(0.01861856822089952 0 0 0.01861856822089952 3.957907865405187 -3.535250795749691e-17)">1</text>
<rect class="edge_bg" x="4.204734750493598" y="0.06381431779100469" width="0.3723713644179904" height="0.3723713644179904"/>
<text class="edge_text" text-anchor="middle" dominant-baseline="middle" transform="matrix(0.01861856822089952 0 0 0.01861856822089952 4.390920432702593 0.2499999999999999)">4</text>
<rect class="edge_bg" x="4.637746773638092" y="0.3138143177910043" width="0.3723713644179904" height="0.3723713644179904"/>
<text class="edge_text" text-anchor="middle" dominant-baseline="middle" transform="matrix(0.01861856822089952 0 0 0.01861856822089952 4.823932455847087 0.4999999999999995)">5</text>
<rect class="edge_bg" x="6.474902189951075" y="-3.027957204672542" width="0.3723713644179904" height="0.3723713644179904"/>
<text class="edge_text" text-anchor="middle" dominant-baseline="middle" transform="matrix(0.01861856822089952 0 0 0.01861856822089952 6.66108787216007 -2.8417715224635467)">90</text>
<rect class="edge_bg" x="6.031800235246544" y="-3.2596051421855177" width="0.3723713644179904" height="0.3723713644179904"/>
<text class="edge_text" text-anchor="middle" dominant-baseline="middle" transform="matrix(0.01861856822089952 0 0 0.01861856822089952 6.217985917455539 -3.0734194599765225)">91</text>
<rect class="edge_bg" x="5.609636363086474" y="-2.9916926197219706" width="0.3723713644179904" height="0.3723713644179904"/>
<text class="edge_text" text-anchor="middle" dominant-baseline="middle" transform="matrix(0.01861856822089952 0 0 0.01861856822089952 5.795822045295469 -2.8055069375129755)">93</text>
<rect class="edge_bg" x="5.187472235246544" y="-2.7237791421855175" width="0.3723713644179904" height="0.3723713644179904"/>
<text class="edge_text" text-anchor="middle" dominant-baseline="middle" transform="matrix(0.01861856822089952 0 0 0.01861856822089952 5.373657917455539 -2.5375934599765224)">95</text>
<rect class="edge_bg" x="4.765308363086474" y="-2.455865619721971" width="0.3723713644179904" height="0.3723713644179904"/>
<text class="edge_text" text-anchor="middle" dominant-baseline="middle" transform="matrix(0.01861856822089952 0 0 0.01861856822089952 4.951494045295469 -2.2696799375129757)">97</text>
<rect class="edge_bg" x="4.343144235246544" y="-2.1879521421855177" width="0.3723713644179904" height="0.3723713644179904"/>
<text class="edge_text" text-anchor="middle" dominant-baseline="middle" transform="matrix(0.01861856822089952 0 0 0.01861856822089952 4.529329917455539 -2.0017664599765226)">99</text>
<rect class="edge_bg" x="3.920980363086474" y="-1.920038619721971" width="0.3723713644179904" height="0.3723713644179904"/>
<text class="edge_text" text-anchor="middle" dominant-baseline="middle" transform="matrix(0.01861856822089952 0 0 0.01861856822089952 4.107166045295469 -1.7338529375129759)">3</text>
</svg>
