<?xml version="1.0" encoding="utf-8"?>
<svg version="1.1" xmlns="http://www.w3.org/2000/svg" viewBox="-2.317215251977002 -0.6446985427109416 5.463396503954004 3.183367939640707" style="enable-background:new -2.317215251977002 -0.6446985427109416 5.463396503954004 3.183367939640707;">
<style type="text/css">
  .face_stroke {fill:none; stroke:#000000; stroke-width:0.02; stroke-miterlimit:10;}
  .face_text {fill:#000000; font-family:monospace;}
  .edge_text {fill:#ff0000; font-family:monospace;}
  .edge_bg {fill:#f3f3f3; stroke:#606060; stroke-width:0.01;}
</style>
<polygon class="face_stroke" points="0.288675134594813,-0.5 -0.5773502691896258,-7.07050159149938e-17 0.288675134594813,0.5"/>
<polygon class="face_stroke" points="0.2886749999999999,0.5 1.288675,0.5000000000000001 1.2886750000000007,-0.49999999999999944 0.2886749999999997,-0.4999999999999998"/>
<polygon class="face_stroke" points="1.288674865405187,0.4999999999999999 2.1547002691896258,1.414100318299876e-16 1.2886748654051876,-0.5000000000000003"/>
<polygon class="face_stroke" points="1.2886748179899876,0.5000001457811754 1.4965865088077466,1.4781477465149808 2.4911084041760203,1.5826762097826346 2.8978450472518205,0.6691307521400344 2.154700221774426,1.457811755756211e-07"/>
<polygon class="face_stroke" points="1.2886749549580232,0.5000003542242175 0.3105273542242174,0.7079120450419769 0.5184390450419769,1.6860596457757826 1.4965866457757826,1.478147954958023"/>
<polygon class="face_stroke" points="0.3105279549580232,0.7079113542242175 -0.6676196457757827,0.9158230450419769 -0.4597079549580231,1.8939706457757826 0.5184396457757825,1.686058954958023"/>
<polygon class="face_stroke" points="-0.6676205088077467,0.9158232534850189 -1.6621424041760198,0.8112947902173654 -2.06887904725182,1.724840247859966 -1.325734221774426,2.3939708542188245 -0.4597088179899874,1.8939708542188245"/>
<polygon class="face_stroke" points="-0.66762028394969,0.9158231793179634 -0.5630918206820366,-0.07869871605030992 -1.5576137160503098,-0.1832271793179635 -1.6621421793179634,0.8112947160503101"/>
<text class="face_text" text-anchor="middle" dominant-baseline="middle" transform="matrix(0.006366735879281414 0 0 0.006366735879281414 0.0 0.0)">0</text>
<text class="face_text" text-anchor="middle" dominant-baseline="middle" transform="matrix(0.006366735879281414 0 0 0.006366735879281414 0.788675 0.0)">3</text>
<text class="face_text" text-anchor="middle" dominant-baseline="middle" transform="matrix(0.006366735879281414 0 0 0.006366735879281414 1.57735 0.0)">22</text>
<text class="face_text" text-anchor="middle" dominant-baseline="middle" transform="matrix(0.006366735879281414 0 0 0.006366735879281414 2.065783 0.845991)">21</text>
<text class="face_text" text-anchor="middle" dominant-baseline="middle" transform="matrix(0.006366735879281414 0 0 0.006366735879281414 0.903557 1.09303)">2</text>
<text class="face_text" text-anchor="middle" dominant-baseline="middle" transform="matrix(0.006366735879281414 0 0 0.006366735879281414 -0.07459 1.300941)">1</text>
<text class="face_text" text-anchor="middle" dominant-baseline="middle" transform="matrix(0.006366735879281414 0 0 0.006366735879281414 -1.236817 1.54798)">20</text>
<text class="face_text" text-anchor="middle" dominant-baseline="middle" transform="matrix(0.006366735879281414 0 0 0.006366735879281414 -1.112617 0.366298)">4</text>
<rect class="edge_bg" x="0.22500764120718575" y="-0.0636673587928142" width="0.12733471758562828" height="0.12733471758562828"/>
<text class="edge_text" text-anchor="middle" dominant-baseline="middle" transform="matrix(0.006366735879281414 0 0 0.006366735879281414 0.2886749999999999 -6.123233995736767e-17)">0</text>
<rect class="edge_bg" x="1.225007506612373" y="-0.06366735879281418" width="0.12733471758562828" height="0.12733471758562828"/>
<text class="edge_text" text-anchor="middle" dominant-baseline="middle" transform="matrix(0.006366735879281414 0 0 0.006366735879281414 1.288674865405187 -3.535250795749691e-17)">36</text>
<rect class="edge_bg" x="1.6580201610893928" y="0.1863327869883612" width="0.12733471758562828" height="0.12733471758562828"/>
<text class="edge_text" text-anchor="middle" dominant-baseline="middle" transform="matrix(0.006366735879281414 0 0 0.006366735879281414 1.7216875198822068 0.25000014578117535)">37</text>
<rect class="edge_bg" x="1.328963441574089" y="0.9254067957983061" width="0.12733471758562828" height="0.12733471758562828"/>
<text class="edge_text" text-anchor="middle" dominant-baseline="middle" transform="matrix(0.006366735879281414 0 0 0.006366735879281414 1.392630800366903 0.9890741545911202)">35</text>
<rect class="edge_bg" x="0.3508164415740888" y="1.1333177957983063" width="0.12733471758562828" height="0.12733471758562828"/>
<text class="edge_text" text-anchor="middle" dominant-baseline="middle" transform="matrix(0.006366735879281414 0 0 0.006366735879281414 0.41448380036690297 1.1969851545911203)">1</text>
<rect class="edge_bg" x="-0.6273320221916812" y="1.3412296950591076" width="0.12733471758562828" height="0.12733471758562828"/>
<text class="edge_text" text-anchor="middle" dominant-baseline="middle" transform="matrix(0.006366735879281414 0 0 0.006366735879281414 -0.563664663398867 1.4048970538519217)">31</text>
<rect class="edge_bg" x="-1.2285485904266407" y="0.7998915888913226" width="0.12733471758562828" height="0.12733471758562828"/>
<text class="edge_text" text-anchor="middle" dominant-baseline="middle" transform="matrix(0.006366735879281414 0 0 0.006366735879281414 -1.1648812316338266 0.8635589476841368)">30</text>
</svg>
