<?xml version="1.0" encoding="utf-8"?>
<svg version="1.1" xmlns="http://www.w3.org/2000/svg" viewBox="-3.576293522634357 -2.8511834338214546 6.7824308827379 5.494923539851721" style="enable-background:new -3.576293522634357 -2.8511834338214546 6.7824308827379 5.494923539851721;">
<style type="text/css">
  .face_stroke {fill:none; stroke:#000000; stroke-width:0.02; stroke-miterlimit:10;}
  .face_text {fill:#000000; font-family:monospace;}
  .edge_text {fill:#ff0000; font-family:monospace;}
  .edge_bg {fill:#f3f3f3; stroke:#606060; stroke-width:0.01;}
</style>
<polygon class="face_stroke" points="0.288675134594813,-0.5 -0.5773502691896258,-7.07050159149938e-17 0.288675134594813,0.5"/>
<polygon class="face_stroke" points="0.2886749999999999,0.5 1.288675,0.5000000000000001 1.2886750000000007,-0.49999999999999944 0.2886749999999997,-0.4999999999999998"/>
<polygon class="face_stroke" points="1.288674865405187,0.4999999999999999 2.1547002691896258,1.414100318299876e-16 1.2886748654051876,-0.5000000000000003"/>
<polygon class="face_stroke" points="1.2886748179899876,0.5000001457811754 1.4965865088077466,1.4781477465149808 2.4911084041760203,1.5826762097826346 2.8978450472518205,0.6691307521400344 2.154700221774426,1.457811755756211e-07"/>
<polygon class="face_stroke" points="1.2886749549580232,0.5000003542242175 0.3105273542242174,0.7079120450419769 0.5184390450419769,1.6860596457757826 1.4965866457757826,1.478147954958023"/>
<polygon class="face_stroke" points="0.3105279549580232,0.7079113542242175 -0.6676196457757827,0.9158230450419769 -0.4597079549580231,1.8939706457757826 0.5184396457757825,1.686058954958023"/>
<polygon class="face_stroke" points="-0.6676205088077467,0.9158232534850189 -1.6621424041760198,0.8112947902173654 -2.06887904725182,1.724840247859966 -1.325734221774426,2.3939708542188245 -0.4597088179899874,1.8939708542188245"/>
<polygon class="face_stroke" points="-1.6621419496407994,0.8112945927165998 -2.5756874072834006,0.4045579496407995 -2.9824240503592008,1.3181034072834006 -2.0688785927166,1.7248400503592007"/>
<polygon class="face_stroke" points="-1.6621420263632485,0.8112951794813579 -1.766670489630902,-0.18322671588691553 -2.5756874840058495,0.4045585364055574"/>
<polygon class="face_stroke" points="-1.7666708766662897,-0.18322712895876286 -2.354456128958763,-0.9922441233337105 -3.1634731233337106,-0.40445887104123723 -2.5756878710412376,0.4045581233337103"/>
<polygon class="face_stroke" points="-2.3544555159941507,-0.9922435364055576 -3.2680009736367515,-1.3989801794813579 -3.163472510369098,-0.4044582841130844"/>
<polygon class="face_stroke" points="-2.3544557521400336,-0.9922439527481799 -1.6853251457811753,-1.7353887782255741 -2.1853251457811753,-2.6014141820100125 -3.1634727465149806,-2.393502491192254 -3.2680012097826343,-1.3989805958239798"/>
<polygon class="face_stroke" points="-2.3544557159181263,-0.9922438904407321 -1.6113108904407318,-0.3231132840818737 -0.9421802840818737,-1.066258109559268 -1.685325109559268,-1.735388715918126"/>
<polygon class="face_stroke" points="-1.6113107159181261,-0.32311289044073216 -0.8681658904407319,0.34601771591812625 -0.19903528408187376,-0.39712710955926805 -0.942180109559268,-1.0662577159181263"/>
<text class="face_text" text-anchor="middle" dominant-baseline="middle" transform="matrix(0.010989847079703442 0 0 0.010989847079703442 0.0 0.0)">0</text>
<text class="face_text" text-anchor="middle" dominant-baseline="middle" transform="matrix(0.010989847079703442 0 0 0.010989847079703442 0.788675 0.0)">3</text>
<text class="face_text" text-anchor="middle" dominant-baseline="middle" transform="matrix(0.010989847079703442 0 0 0.010989847079703442 1.57735 0.0)">22</text>
<text class="face_text" text-anchor="middle" dominant-baseline="middle" transform="matrix(0.010989847079703442 0 0 0.010989847079703442 2.065783 0.845991)">21</text>
<text class="face_text" text-anchor="middle" dominant-baseline="middle" transform="matrix(0.010989847079703442 0 0 0.010989847079703442 0.903557 1.09303)">2</text>
<text class="face_text" text-anchor="middle" dominant-baseline="middle" transform="matrix(0.010989847079703442 0 0 0.010989847079703442 -0.07459 1.300941)">1</text>
<text class="face_text" text-anchor="middle" dominant-baseline="middle" transform="matrix(0.010989847079703442 0 0 0.010989847079703442 -1.236817 1.54798)">20</text>
<text class="face_text" text-anchor="middle" dominant-baseline="middle" transform="matrix(0.010989847079703442 0 0 0.010989847079703442 -2.322283 1.064699)">8</text>
<text class="face_text" text-anchor="middle" dominant-baseline="middle" transform="matrix(0.010989847079703442 0 0 0.010989847079703442 -2.0015 0.344209)">6</text>
<text class="face_text" text-anchor="middle" dominant-baseline="middle" transform="matrix(0.010989847079703442 0 0 0.010989847079703442 -2.465072 -0.293843)">7</text>
<text class="face_text" text-anchor="middle" dominant-baseline="middle" transform="matrix(0.010989847079703442 0 0 0.010989847079703442 -2.928643 -0.931894)">29</text>
<text class="face_text" text-anchor="middle" dominant-baseline="middle" transform="matrix(0.010989847079703442 0 0 0.010989847079703442 -2.531316 -1.824306)">30</text>
<text class="face_text" text-anchor="middle" dominant-baseline="middle" transform="matrix(0.010989847079703442 0 0 0.010989847079703442 -1.648318 -1.029251)">5</text>
<text class="face_text" text-anchor="middle" dominant-baseline="middle" transform="matrix(0.010989847079703442 0 0 0.010989847079703442 -0.905173 -0.36012)">4</text>
<rect class="edge_bg" x="0.1787765292029655" y="-0.10989847079703446" width="0.21979694159406882" height="0.21979694159406882"/>
<text class="edge_text" text-anchor="middle" dominant-baseline="middle" transform="matrix(0.010989847079703442 0 0 0.010989847079703442 0.2886749999999999 -6.123233995736767e-17)">0</text>
<rect class="edge_bg" x="1.1787763946081524" y="-0.10989847079703445" width="0.21979694159406882" height="0.21979694159406882"/>
<text class="edge_text" text-anchor="middle" dominant-baseline="middle" transform="matrix(0.010989847079703442 0 0 0.010989847079703442 1.288674865405187 -3.535250795749691e-17)">36</text>
<rect class="edge_bg" x="1.6117890490851723" y="0.14010167498414094" width="0.21979694159406882" height="0.21979694159406882"/>
<text class="edge_text" text-anchor="middle" dominant-baseline="middle" transform="matrix(0.010989847079703442 0 0 0.010989847079703442 1.7216875198822068 0.25000014578117535)">37</text>
<rect class="edge_bg" x="1.2827323295698685" y="0.8791756837940858" width="0.21979694159406882" height="0.21979694159406882"/>
<text class="edge_text" text-anchor="middle" dominant-baseline="middle" transform="matrix(0.010989847079703442 0 0 0.010989847079703442 1.392630800366903 0.9890741545911202)">35</text>
<rect class="edge_bg" x="0.30458532956986856" y="1.087086683794086" width="0.21979694159406882" height="0.21979694159406882"/>
<text class="edge_text" text-anchor="middle" dominant-baseline="middle" transform="matrix(0.010989847079703442 0 0 0.010989847079703442 0.41448380036690297 1.1969851545911203)">1</text>
<rect class="edge_bg" x="-0.6735631341959014" y="1.2949985830548871" width="0.21979694159406882" height="0.21979694159406882"/>
<text class="edge_text" text-anchor="middle" dominant-baseline="middle" transform="matrix(0.010989847079703442 0 0 0.010989847079703442 -0.563664663398867 1.4048970538519217)">31</text>
<rect class="edge_bg" x="-1.975408741975734" y="1.1581688507408656" width="0.21979694159406882" height="0.21979694159406882"/>
<text class="edge_text" text-anchor="middle" dominant-baseline="middle" transform="matrix(0.010989847079703442 0 0 0.010989847079703442 -1.8655102711786995 1.2680673215379001)">32</text>
<rect class="edge_bg" x="-2.2288132259815834" y="0.4980283871464234" width="0.21979694159406882" height="0.21979694159406882"/>
<text class="edge_text" text-anchor="middle" dominant-baseline="middle" transform="matrix(0.010989847079703442 0 0 0.010989847079703442 -2.118914755184549 0.6079268579434578)">11</text>
<rect class="edge_bg" x="-2.281077844650798" y="0.000767026390439407" width="0.21979694159406882" height="0.21979694159406882"/>
<text class="edge_text" text-anchor="middle" dominant-baseline="middle" transform="matrix(0.010989847079703442 0 0 0.010989847079703442 -2.1711793738537635 0.11066549718747382)">7</text>
<rect class="edge_bg" x="-2.868862483978659" y="-0.8082493810563555" width="0.21979694159406882" height="0.21979694159406882"/>
<text class="edge_text" text-anchor="middle" dominant-baseline="middle" transform="matrix(0.010989847079703442 0 0 0.010989847079703442 -2.7589640131816244 -0.6983509102593211)">50</text>
<rect class="edge_bg" x="-2.9211269517583682" y="-1.3055107450831143" width="0.21979694159406882" height="0.21979694159406882"/>
<text class="edge_text" text-anchor="middle" dominant-baseline="middle" transform="matrix(0.010989847079703442 0 0 0.010989847079703442 -2.8112284809613337 -1.1956122742860797)">53</text>
<rect class="edge_bg" x="-2.1297888835357317" y="-1.4737147739764636" width="0.21979694159406882" height="0.21979694159406882"/>
<text class="edge_text" text-anchor="middle" dominant-baseline="middle" transform="matrix(0.010989847079703442 0 0 0.010989847079703442 -2.019890412738697 -1.3638163031794293)">52</text>
<rect class="edge_bg" x="-1.3866438835357315" y="-0.8045837739764637" width="0.21979694159406882" height="0.21979694159406882"/>
<text class="edge_text" text-anchor="middle" dominant-baseline="middle" transform="matrix(0.010989847079703442 0 0 0.010989847079703442 -1.276745412738697 -0.6946853031794293)">4</text>
</svg>
