<?xml version="1.0" encoding="utf-8"?>
<svg version="1.1" xmlns="http://www.w3.org/2000/svg" viewBox="-5.878055899292356 -1.4120650873811638 9.193800991617708 5.160804882845557" style="enable-background:new -5.878055899292356 -1.4120650873811638 9.193800991617708 5.160804882845557;">
<style type="text/css">
  .face_stroke {fill:none; stroke:#000000; stroke-width:0.02; stroke-miterlimit:10;}
  .face_text {fill:#000000; font-family:monospace;}
  .edge_text {fill:#ff0000; font-family:monospace;}
  .edge_bg {fill:#f3f3f3; stroke:#606060; stroke-width:0.01;}
</style>
<polygon class="face_stroke" points="0.288675134594813,-0.5 -0.5773502691896258,-7.07050159149938e-17 0.288675134594813,0.5"/>
<polygon class="face_stroke" points="0.2886749999999999,0.5 1.288675,0.5000000000000001 1.2886750000000007,-0.49999999999999944 0.2886749999999997,-0.4999999999999998"/>
<polygon class="face_stroke" points="1.288674865405187,0.4999999999999999 2.1547002691896258,1.414100318299876e-16 1.2886748654051876,-0.5000000000000003"/>
<polygon class="face_stroke" points="1.2886748179899876,0.5000001457811754 1.4965865088077466,1.4781477465149808 2.4911084041760203,1.5826762097826346 2.8978450472518205,0.6691307521400344 2.154700221774426,1.457811755756211e-07"/>
<polygon class="face_stroke" points="1.2886749549580232,0.5000003542242175 0.3105273542242174,0.7079120450419769 0.5184390450419769,1.6860596457757826 1.4965866457757826,1.478147954958023"/>
<polygon class="face_stroke" points="0.3105279549580232,0.7079113542242175 -0.6676196457757827,0.9158230450419769 -0.4597079549580231,1.8939706457757826 0.5184396457757825,1.686058954958023"/>
<polygon class="face_stroke" points="-0.45970873569755466,1.8939709551134551 0.2094218706613032,2.6371157805908494 0.5184388650362509,1.6860592642956957"/>
<polygon class="face_stroke" points="-0.4597078904407319,1.8939712840818737 -1.2028527159181261,2.563101890440732 -0.5337221095592684,3.306246715918126 0.20942271591812622,2.637116109559268"/>
<polygon class="face_stroke" points="-1.2028528706613035,2.563101219409151 -1.5118698650362512,3.5141577357043046 -0.5337222643024454,3.3062460448865454"/>
<polygon class="face_stroke" points="-1.2028532446649494,2.563101239039897 -2.153909760960103,2.2540842446649494 -2.462926755335051,3.2051407609601026 -1.5118702390398968,3.5141577553350505"/>
<polygon class="face_stroke" points="-2.1539101349637493,2.2540842642956957 -3.132057735697555,2.461995955113455 -2.462927129338697,3.20514078059085"/>
<polygon class="face_stroke" points="-2.153909354224217,2.254084954958023 -2.3618210450419768,1.2759373542242176 -3.3399686457757825,1.483849045041977 -3.132056954958023,2.4619966457757827"/>
<polygon class="face_stroke" points="-2.361821264302445,1.275937044886545 -3.0309518706613034,0.5327922194091507 -3.339968865036251,1.4838487357043044"/>
<polygon class="face_stroke" points="-3.0309522446649493,0.5327922390398969 -3.982008760960103,0.22377524466494947 -4.291025755335051,1.1748317609601027 -3.3399692390398967,1.4838487553350506"/>
<polygon class="face_stroke" points="-3.9820081349637495,0.22377526429569566 -4.960155735697555,0.431686955113455 -4.291025129338697,1.1748317805908495"/>
<polygon class="face_stroke" points="-3.9820082534850187,0.22377549119225337 -3.8774797902173654,-0.7707464041760199 -4.791025247859966,-1.1774830472518203 -5.460155854218824,-0.43433822177442616 -4.960155854218824,0.43168718201001277"/>
<polygon class="face_stroke" points="-3.9820081793179636,0.2237747160503101 -2.98748628394969,0.3283031793179634 -2.8829578206820363,-0.6662187160503096 -3.87747971605031,-0.7707471793179634"/>
<polygon class="face_stroke" points="-2.9874861793179637,0.3283037160503101 -1.9929642839496902,0.4328321793179634 -1.8884358206820362,-0.5616897160503096 -2.88295771605031,-0.6662181793179635"/>
<polygon class="face_stroke" points="-1.9929652097826345,0.43283240417602004 -1.0794197521400344,0.8395690472518204 -0.4102891457811756,0.09642422177442589 -0.9102891457811755,-0.7696011820100126 -1.8884367465149805,-0.5616894911922539"/>
<text class="face_text" text-anchor="middle" dominant-baseline="middle" transform="matrix(0.010321609765691115 0 0 0.010321609765691115 0.0 0.0)">0</text>
<text class="face_text" text-anchor="middle" dominant-baseline="middle" transform="matrix(0.010321609765691115 0 0 0.010321609765691115 0.788675 0.0)">3</text>
<text class="face_text" text-anchor="middle" dominant-baseline="middle" transform="matrix(0.010321609765691115 0 0 0.010321609765691115 1.57735 0.0)">22</text>
<text class="face_text" text-anchor="middle" dominant-baseline="middle" transform="matrix(0.010321609765691115 0 0 0.010321609765691115 2.065783 0.845991)">21</text>
<text class="face_text" text-anchor="middle" dominant-baseline="middle" transform="matrix(0.010321609765691115 0 0 0.010321609765691115 0.903557 1.09303)">2</text>
<text class="face_text" text-anchor="middle" dominant-baseline="middle" transform="matrix(0.010321609765691115 0 0 0.010321609765691115 -0.07459 1.300941)">1</text>
<text class="face_text" text-anchor="middle" dominant-baseline="middle" transform="matrix(0.010321609765691115 0 0 0.010321609765691115 0.089384 2.072382)">18</text>
<text class="face_text" text-anchor="middle" dominant-baseline="middle" transform="matrix(0.010321609765691115 0 0 0.010321609765691115 -0.496715 2.600109)">16</text>
<text class="face_text" text-anchor="middle" dominant-baseline="middle" transform="matrix(0.010321609765691115 0 0 0.010321609765691115 -1.082815 3.127835)">14</text>
<text class="face_text" text-anchor="middle" dominant-baseline="middle" transform="matrix(0.010321609765691115 0 0 0.010321609765691115 -1.83289 2.884121)">12</text>
<text class="face_text" text-anchor="middle" dominant-baseline="middle" transform="matrix(0.010321609765691115 0 0 0.010321609765691115 -2.582965 2.640407)">10</text>
<text class="face_text" text-anchor="middle" dominant-baseline="middle" transform="matrix(0.010321609765691115 0 0 0.010321609765691115 -2.746939 1.868967)">8</text>
<text class="face_text" text-anchor="middle" dominant-baseline="middle" transform="matrix(0.010321609765691115 0 0 0.010321609765691115 -2.910914 1.097526)">6</text>
<text class="face_text" text-anchor="middle" dominant-baseline="middle" transform="matrix(0.010321609765691115 0 0 0.010321609765691115 -3.660989 0.853812)">7</text>
<text class="face_text" text-anchor="middle" dominant-baseline="middle" transform="matrix(0.010321609765691115 0 0 0.010321609765691115 -4.411063 0.610098)">29</text>
<text class="face_text" text-anchor="middle" dominant-baseline="middle" transform="matrix(0.010321609765691115 0 0 0.010321609765691115 -4.614165 -0.345421)">30</text>
<text class="face_text" text-anchor="middle" dominant-baseline="middle" transform="matrix(0.010321609765691115 0 0 0.010321609765691115 -3.432483 -0.221222)">5</text>
<text class="face_text" text-anchor="middle" dominant-baseline="middle" transform="matrix(0.010321609765691115 0 0 0.010321609765691115 -2.437961 -0.116693)">4</text>
<text class="face_text" text-anchor="middle" dominant-baseline="middle" transform="matrix(0.010321609765691115 0 0 0.010321609765691115 -1.25628 0.007507)">20</text>
<rect class="edge_bg" x="0.18545890234308876" y="-0.1032160976569112" width="0.2064321953138223" height="0.2064321953138223"/>
<text class="edge_text" text-anchor="middle" dominant-baseline="middle" transform="matrix(0.010321609765691115 0 0 0.010321609765691115 0.2886749999999999 -6.123233995736767e-17)">0</text>
<rect class="edge_bg" x="1.1854587677482757" y="-0.10321609765691118" width="0.2064321953138223" height="0.2064321953138223"/>
<text class="edge_text" text-anchor="middle" dominant-baseline="middle" transform="matrix(0.010321609765691115 0 0 0.010321609765691115 1.288674865405187 -3.535250795749691e-17)">36</text>
<rect class="edge_bg" x="1.6184714222252956" y="0.1467840481242642" width="0.2064321953138223" height="0.2064321953138223"/>
<text class="edge_text" text-anchor="middle" dominant-baseline="middle" transform="matrix(0.010321609765691115 0 0 0.010321609765691115 1.7216875198822068 0.25000014578117535)">37</text>
<rect class="edge_bg" x="1.2894147027099918" y="0.8858580569342092" width="0.2064321953138223" height="0.2064321953138223"/>
<text class="edge_text" text-anchor="middle" dominant-baseline="middle" transform="matrix(0.010321609765691115 0 0 0.010321609765691115 1.392630800366903 0.9890741545911202)">35</text>
<rect class="edge_bg" x="0.3112677027099918" y="1.0937690569342091" width="0.2064321953138223" height="0.2064321953138223"/>
<text class="edge_text" text-anchor="middle" dominant-baseline="middle" transform="matrix(0.010321609765691115 0 0 0.010321609765691115 0.41448380036690297 1.1969851545911203)">1</text>
<rect class="edge_bg" x="-0.0738510329875629" y="1.6867990120476644" width="0.2064321953138223" height="0.2064321953138223"/>
<text class="edge_text" text-anchor="middle" dominant-baseline="middle" transform="matrix(0.010321609765691115 0 0 0.010321609765691115 0.029365064669348247 1.7900151097045756)">28</text>
<rect class="edge_bg" x="-0.22835868491821398" y="2.1623275991636595" width="0.2064321953138223" height="0.2064321953138223"/>
<text class="edge_text" text-anchor="middle" dominant-baseline="middle" transform="matrix(0.010321609765691115 0 0 0.010321609765691115 -0.12514258726130284 2.2655436968205707)">26</text>
<rect class="edge_bg" x="-0.9715036651387856" y="2.8314575344909367" width="0.2064321953138223" height="0.2064321953138223"/>
<text class="edge_text" text-anchor="middle" dominant-baseline="middle" transform="matrix(0.010321609765691115 0 0 0.010321609765691115 -0.8682875674818745 2.934673632147848)">23</text>
<rect class="edge_bg" x="-1.4605778395093343" y="2.9354133995305625" width="0.2064321953138223" height="0.2064321953138223"/>
<text class="edge_text" text-anchor="middle" dominant-baseline="middle" transform="matrix(0.010321609765691115 0 0 0.010321609765691115 -1.357361741852423 3.0386294971874737)">20</text>
<rect class="edge_bg" x="-2.4116347298081338" y="2.6263964247863614" width="0.2064321953138223" height="0.2064321953138223"/>
<text class="edge_text" text-anchor="middle" dominant-baseline="middle" transform="matrix(0.010321609765691115 0 0 0.010321609765691115 -2.3084186321512226 2.7296125224432726)">17</text>
<rect class="edge_bg" x="-2.746199252248031" y="2.2548247027099917" width="0.2064321953138223" height="0.2064321953138223"/>
<text class="edge_text" text-anchor="middle" dominant-baseline="middle" transform="matrix(0.010321609765691115 0 0 0.010321609765691115 -2.64298315459112 2.358040800366903)">14</text>
<rect class="edge_bg" x="-2.9541111623262593" y="1.2766767926385136" width="0.2064321953138223" height="0.2064321953138223"/>
<text class="edge_text" text-anchor="middle" dominant-baseline="middle" transform="matrix(0.010321609765691115 0 0 0.010321609765691115 -2.850895064669348 1.3798928902954248)">11</text>
<rect class="edge_bg" x="-3.288676839509334" y="0.9051043995305625" width="0.2064321953138223" height="0.2064321953138223"/>
<text class="edge_text" text-anchor="middle" dominant-baseline="middle" transform="matrix(0.010321609765691115 0 0 0.010321609765691115 -3.185460741852423 1.0083204971874737)">7</text>
<rect class="edge_bg" x="-4.239732729808134" y="0.5960874247863615" width="0.2064321953138223" height="0.2064321953138223"/>
<text class="edge_text" text-anchor="middle" dominant-baseline="middle" transform="matrix(0.010321609765691115 0 0 0.010321609765691115 -4.136516632151223 0.6993035224432725)">50</text>
<rect class="edge_bg" x="-4.574298151508832" y="0.22451523894422193" width="0.2064321953138223" height="0.2064321953138223"/>
<text class="edge_text" text-anchor="middle" dominant-baseline="middle" transform="matrix(0.010321609765691115 0 0 0.010321609765691115 -4.471082053851921 0.32773133660113307)">53</text>
<rect class="edge_bg" x="-4.0329600453410475" y="-0.37670232929073805" width="0.2064321953138223" height="0.2064321953138223"/>
<text class="edge_text" text-anchor="middle" dominant-baseline="middle" transform="matrix(0.010321609765691115 0 0 0.010321609765691115 -3.9297439476841367 -0.2734862316338269)">52</text>
<rect class="edge_bg" x="-3.038438045341048" y="-0.272173329290738" width="0.2064321953138223" height="0.2064321953138223"/>
<text class="edge_text" text-anchor="middle" dominant-baseline="middle" transform="matrix(0.010321609765691115 0 0 0.010321609765691115 -2.935221947684137 -0.1689572316338269)">4</text>
<rect class="edge_bg" x="-2.043917075805719" y="-0.16764464116502803" width="0.2064321953138223" height="0.2064321953138223"/>
<text class="edge_text" text-anchor="middle" dominant-baseline="middle" transform="matrix(0.010321609765691115 0 0 0.010321609765691115 -1.9407009781488078 -0.06442854350811689)">30</text>
</svg>
