<?xml version="1.0" encoding="utf-8"?>
<svg version="1.1" xmlns="http://www.w3.org/2000/svg" viewBox="-4.2048224726343575 -1.9821282923253525 7.440889782737901 5.17825539161771" style="enable-background:new -4.2048224726343575 -1.9821282923253525 7.440889782737901 5.17825539161771;">
<style type="text/css">
  .face_stroke {fill:none; stroke:#000000; stroke-width:0.02; stroke-miterlimit:10;}
  .face_text {fill:#000000; font-family:monospace;}
  .edge_text {fill:#ff0000; font-family:monospace;}
  .edge_bg {fill:#f3f3f3; stroke:#606060; stroke-width:0.01;}
</style>
<polygon class="face_stroke" points="0.288675134594813,-0.5 -0.5773502691896258,-7.07050159149938e-17 0.288675134594813,0.5"/>
<polygon class="face_stroke" points="0.2886749999999999,0.5 1.288675,0.5000000000000001 1.2886750000000007,-0.49999999999999944 0.2886749999999997,-0.4999999999999998"/>
<polygon class="face_stroke" points="1.288674865405187,0.4999999999999999 2.1547002691896258,1.414100318299876e-16 1.2886748654051876,-0.5000000000000003"/>
<polygon class="face_stroke" points="1.2886748179899876,0.5000001457811754 1.4965865088077466,1.4781477465149808 2.4911084041760203,1.5826762097826346 2.8978450472518205,0.6691307521400344 2.154700221774426,1.457811755756211e-07"/>
<polygon class="face_stroke" points="1.4965868205186421,1.4781480263632485 1.9033234635944425,2.3916934840058497 2.4911087158869156,1.5826764896309022"/>
<polygon class="face_stroke" points="1.4965864072834005,1.4781479496407992 0.5830409496407994,1.8848845927165996 0.9897775927165993,2.7984300503592 1.9033230503592005,2.3916934072834004"/>
<polygon class="face_stroke" points="1.4965870503592007,1.4781474072834002 1.0898504072834005,0.5646019496407993 0.17630494964079946,0.9713385927165996 0.5830415927165993,1.8848840503592004"/>
<polygon class="face_stroke" points="0.1763044072834004,0.9713389496407995 -0.7372410503592006,1.3780755927165997 -0.3305044072834007,2.2916210503592005 0.5830410503592005,1.8848844072834008"/>
<polygon class="face_stroke" points="-0.7372405958239799,1.3780757902173657 -1.7317624911922533,1.482604253485019 -1.939674182010013,2.4607518542188243 -1.0736487782255746,2.9607518542188247 -0.3305039527481799,2.291621247859967"/>
<polygon class="face_stroke" points="-1.7317623542242173,1.4826040450419768 -2.7099099549580234,1.2746923542242174 -2.9178216457757826,2.252839954958023 -1.9396740450419772,2.4607516457757828"/>
<polygon class="face_stroke" points="-1.731762134963749,1.4826037357043045 -2.0407791293386963,0.5315472194091507 -2.709909735697555,1.2746920448865453"/>
<polygon class="face_stroke" points="-2.0407792840818737,0.531546890440732 -2.7839241095592677,-0.13758371591812624 -3.453054715918126,0.6055611095592678 -2.709909890440732,1.2746917159181264"/>
<polygon class="face_stroke" points="-2.783924264302445,-0.13758304488654496 -3.762071865036251,-0.34549473570430445 -3.453054870661304,0.6055617805908493"/>
<polygon class="face_stroke" points="-2.7839241457811754,-0.1375828179899874 -2.2839241457811754,-1.003608221774426 -2.9530547521400337,-1.7467530472518202 -3.8666002097826344,-1.3400164041760199 -3.762071746514981,-0.3454945088077467"/>
<polygon class="face_stroke" points="-2.7839247018922197,-0.13758329810778094 -1.9178992981077805,0.3624167018922193 -1.4178992981077805,-0.503608701892219 -2.283924701892219,-1.0036087018922195"/>
<polygon class="face_stroke" points="-1.9178987018922196,0.3624167018922191 -1.0518732981077803,0.8624167018922193 -0.5518732981077804,-0.0036087018922189573 -1.417898701892219,-0.5036087018922195"/>
<text class="face_text" text-anchor="middle" dominant-baseline="middle" transform="matrix(0.01035651078323542 0 0 0.01035651078323542 0.0 0.0)">0</text>
<text class="face_text" text-anchor="middle" dominant-baseline="middle" transform="matrix(0.01035651078323542 0 0 0.01035651078323542 0.788675 0.0)">3</text>
<text class="face_text" text-anchor="middle" dominant-baseline="middle" transform="matrix(0.01035651078323542 0 0 0.01035651078323542 1.57735 0.0)">22</text>
<text class="face_text" text-anchor="middle" dominant-baseline="middle" transform="matrix(0.01035651078323542 0 0 0.01035651078323542 2.065783 0.845991)">21</text>
<text class="face_text" text-anchor="middle" dominant-baseline="middle" transform="matrix(0.01035651078323542 0 0 0.01035651078323542 1.963673 1.817506)">23</text>
<text class="face_text" text-anchor="middle" dominant-baseline="middle" transform="matrix(0.01035651078323542 0 0 0.01035651078323542 1.243182 2.138289)">19</text>
<text class="face_text" text-anchor="middle" dominant-baseline="middle" transform="matrix(0.01035651078323542 0 0 0.01035651078323542 0.836446 1.224743)">2</text>
<text class="face_text" text-anchor="middle" dominant-baseline="middle" transform="matrix(0.01035651078323542 0 0 0.01035651078323542 -0.0771 1.63148)">1</text>
<text class="face_text" text-anchor="middle" dominant-baseline="middle" transform="matrix(0.01035651078323542 0 0 0.01035651078323542 -1.162566 2.114761)">20</text>
<text class="face_text" text-anchor="middle" dominant-baseline="middle" transform="matrix(0.01035651078323542 0 0 0.01035651078323542 -2.324792 1.867722)">8</text>
<text class="face_text" text-anchor="middle" dominant-baseline="middle" transform="matrix(0.01035651078323542 0 0 0.01035651078323542 -2.160817 1.096281)">6</text>
<text class="face_text" text-anchor="middle" dominant-baseline="middle" transform="matrix(0.01035651078323542 0 0 0.01035651078323542 -2.746917 0.568554)">7</text>
<text class="face_text" text-anchor="middle" dominant-baseline="middle" transform="matrix(0.01035651078323542 0 0 0.01035651078323542 -3.333017 0.040828)">29</text>
<text class="face_text" text-anchor="middle" dominant-baseline="middle" transform="matrix(0.01035651078323542 0 0 0.01035651078323542 -3.129915 -0.914691)">30</text>
<text class="face_text" text-anchor="middle" dominant-baseline="middle" transform="matrix(0.01035651078323542 0 0 0.01035651078323542 -2.100912 -0.320596)">5</text>
<text class="face_text" text-anchor="middle" dominant-baseline="middle" transform="matrix(0.01035651078323542 0 0 0.01035651078323542 -1.234886 0.179404)">4</text>
<rect class="edge_bg" x="0.1851098921676457" y="-0.10356510783235426" width="0.2071302156647084" height="0.2071302156647084"/>
<text class="edge_text" text-anchor="middle" dominant-baseline="middle" transform="matrix(0.01035651078323542 0 0 0.01035651078323542 0.2886749999999999 -6.123233995736767e-17)">0</text>
<rect class="edge_bg" x="1.1851097575728327" y="-0.10356510783235424" width="0.2071302156647084" height="0.2071302156647084"/>
<text class="edge_text" text-anchor="middle" dominant-baseline="middle" transform="matrix(0.01035651078323542 0 0 0.01035651078323542 1.288674865405187 -3.535250795749691e-17)">36</text>
<rect class="edge_bg" x="1.6181224120498525" y="0.14643503794882115" width="0.2071302156647084" height="0.2071302156647084"/>
<text class="edge_text" text-anchor="middle" dominant-baseline="middle" transform="matrix(0.01035651078323542 0 0 0.01035651078323542 1.7216875198822068 0.25000014578117535)">37</text>
<rect class="edge_bg" x="1.8902826603704246" y="1.426847150164721" width="0.2071302156647084" height="0.2071302156647084"/>
<text class="edge_text" text-anchor="middle" dominant-baseline="middle" transform="matrix(0.01035651078323542 0 0 0.01035651078323542 1.9938477682027789 1.5304122579970754)">39</text>
<rect class="edge_bg" x="1.5963896209889463" y="1.8313555706297455" width="0.2071302156647084" height="0.2071302156647084"/>
<text class="edge_text" text-anchor="middle" dominant-baseline="middle" transform="matrix(0.01035651078323542 0 0 0.01035651078323542 1.6999547288213006 1.9349206784620998)">38</text>
<rect class="edge_bg" x="0.9362492137055459" y="1.5779506209889462" width="0.2071302156647084" height="0.2071302156647084"/>
<text class="edge_text" text-anchor="middle" dominant-baseline="middle" transform="matrix(0.01035651078323542 0 0 0.01035651078323542 1.0398143215379 1.6815157288213005)">29</text>
<rect class="edge_bg" x="0.27610762098894637" y="1.3245465706297457" width="0.2071302156647084" height="0.2071302156647084"/>
<text class="edge_text" text-anchor="middle" dominant-baseline="middle" transform="matrix(0.01035651078323542 0 0 0.01035651078323542 0.37967272882130054 1.4281116784621)">1</text>
<rect class="edge_bg" x="-0.6374373821184341" y="1.7312834112063118" width="0.2071302156647084" height="0.2071302156647084"/>
<text class="edge_text" text-anchor="middle" dominant-baseline="middle" transform="matrix(0.01035651078323542 0 0 0.01035651078323542 -0.53387227428608 1.834848519038666)">31</text>
<rect class="edge_bg" x="-1.9392833074654514" y="1.8681127375765254" width="0.2071302156647084" height="0.2071302156647084"/>
<text class="edge_text" text-anchor="middle" dominant-baseline="middle" transform="matrix(0.01035651078323542 0 0 0.01035651078323542 -1.8357181996330971 1.9716778454088797)">32</text>
<rect class="edge_bg" x="-2.3244010431630064" y="1.2750827824630706" width="0.2071302156647084" height="0.2071302156647084"/>
<text class="edge_text" text-anchor="middle" dominant-baseline="middle" transform="matrix(0.01035651078323542 0 0 0.01035651078323542 -2.220835935330652 1.378647890295425)">11</text>
<rect class="edge_bg" x="-2.478909695093657" y="0.799554195347075" width="0.2071302156647084" height="0.2071302156647084"/>
<text class="edge_text" text-anchor="middle" dominant-baseline="middle" transform="matrix(0.01035651078323542 0 0 0.01035651078323542 -2.375344587261303 0.9031193031794291)">7</text>
<rect class="edge_bg" x="-3.2220546753142285" y="0.130424260019798" width="0.2071302156647084" height="0.2071302156647084"/>
<text class="edge_text" text-anchor="middle" dominant-baseline="middle" transform="matrix(0.01035651078323542 0 0 0.01035651078323542 -3.1184895674818742 0.2339893678521522)">50</text>
<rect class="edge_bg" x="-3.3765630539804325" y="-0.34510377123122116" width="0.2071302156647084" height="0.2071302156647084"/>
<text class="edge_text" text-anchor="middle" dominant-baseline="middle" transform="matrix(0.01035651078323542 0 0 0.01035651078323542 -3.2729979461480783 -0.24153866339886698)">53</text>
<rect class="edge_bg" x="-2.637489809724574" y="-0.6741611078323542" width="0.2071302156647084" height="0.2071302156647084"/>
<text class="edge_text" text-anchor="middle" dominant-baseline="middle" transform="matrix(0.01035651078323542 0 0 0.01035651078323542 -2.5339247018922197 -0.570596)">52</text>
<rect class="edge_bg" x="-1.7714638097245736" y="-0.1741611078323542" width="0.2071302156647084" height="0.2071302156647084"/>
<text class="edge_text" text-anchor="middle" dominant-baseline="middle" transform="matrix(0.01035651078323542 0 0 0.01035651078323542 -1.6678987018922193 -0.07059599999999999)">4</text>
</svg>
