<?xml version="1.0" encoding="utf-8"?>
<svg version="1.1" xmlns="http://www.w3.org/2000/svg" viewBox="-3.339451102595908 -0.7133871619776613 5.172245149207563 4.222396455606135" style="enable-background:new -3.339451102595908 -0.7133871619776613 5.172245149207563 4.222396455606135;">
<style type="text/css">
  .face_stroke {fill:none; stroke:#000000; stroke-width:0.02; stroke-miterlimit:10;}
  .face_text {fill:#000000; font-family:monospace;}
  .edge_text {fill:#ff0000; font-family:monospace;}
  .edge_bg {fill:#f3f3f3; stroke:#606060; stroke-width:0.01;}
</style>
<polygon class="face_stroke" points="0.288675134594813,-0.5 -0.5773502691896258,-7.07050159149938e-17 0.288675134594813,0.5"/>
<polygon class="face_stroke" points="0.2886749999999999,0.5 1.288675,0.5000000000000001 1.2886750000000007,-0.49999999999999944 0.2886749999999997,-0.4999999999999998"/>
<polygon class="face_stroke" points="0.288675,0.4999999999999999 0.2886749999999999,1.5 1.288675,1.5 1.2886750000000007,0.5000000000000006"/>
<polygon class="face_stroke" points="0.2886750000000001,1.5000000397644135 -0.020341994374947325,2.451056556059567 0.7886749999999999,3.03884180835204 1.5976919943749475,2.451056556059567 1.288675000000001,1.500000039764414"/>
<polygon class="face_stroke" points="0.28867486503625106,1.5000002642956956 -0.6894727356975547,1.707911955113455 -0.020342129338696835,2.451056780590849"/>
<polygon class="face_stroke" points="-0.6894727521400336,1.7079119527481799 -1.6030182097826344,2.1146485958239802 -1.4984897465149811,3.1091704911922533 -0.5203421457811752,3.3170821820100125 -0.020342145781175436,2.4510567782255746"/>
<polygon class="face_stroke" points="-1.603017489630902,2.1146482841130845 -2.4120344840058494,2.7024335364055574 -1.4984890263632487,3.109170179481358"/>
<polygon class="face_stroke" points="-1.6030178766662897,2.114647871041237 -2.190803128958763,1.3056308766662896 -2.9998201233337105,1.8934161289587628 -2.4120348710412376,2.7024331233337104"/>
<polygon class="face_stroke" points="-2.190803515994151,1.3056314635944422 -3.1043489736367516,0.898894820518642 -2.9998205103690982,1.8934167158869155"/>
<polygon class="face_stroke" points="-2.1908035927165996,1.3056310503592006 -1.7840669496407995,0.39208559271659965 -2.6976124072834007,-0.014651050359200557 -3.104349050359201,0.8988944072834004"/>
<polygon class="face_stroke" points="-2.1908030503592006,1.3056314072834005 -1.2772575927166,1.712368050359201 -0.8705209496407992,0.7988225927166002 -1.7840664072834003,0.39208594964079946"/>
<polygon class="face_stroke" points="-0.8705205927165997,0.7988220503592005 -0.4637839496407995,-0.11472340728340036 -1.3773294072834004,-0.5214600503592006 -1.7840660503592005,0.39208540728340047"/>
<text class="face_text" text-anchor="middle" dominant-baseline="middle" transform="matrix(0.00844479291121227 0 0 0.00844479291121227 0.0 0.0)">0</text>
<text class="face_text" text-anchor="middle" dominant-baseline="middle" transform="matrix(0.00844479291121227 0 0 0.00844479291121227 0.788675 0.0)">4</text>
<text class="face_text" text-anchor="middle" dominant-baseline="middle" transform="matrix(0.00844479291121227 0 0 0.00844479291121227 0.788675 1.0)">5</text>
<text class="face_text" text-anchor="middle" dominant-baseline="middle" transform="matrix(0.00844479291121227 0 0 0.00844479291121227 0.788675 2.188191)">30</text>
<text class="face_text" text-anchor="middle" dominant-baseline="middle" transform="matrix(0.00844479291121227 0 0 0.00844479291121227 -0.14038 1.886323)">22</text>
<text class="face_text" text-anchor="middle" dominant-baseline="middle" transform="matrix(0.00844479291121227 0 0 0.00844479291121227 -0.866333 2.539974)">21</text>
<text class="face_text" text-anchor="middle" dominant-baseline="middle" transform="matrix(0.00844479291121227 0 0 0.00844479291121227 -1.837847 2.642084)">23</text>
<text class="face_text" text-anchor="middle" dominant-baseline="middle" transform="matrix(0.00844479291121227 0 0 0.00844479291121227 -2.301419 2.004032)">19</text>
<text class="face_text" text-anchor="middle" dominant-baseline="middle" transform="matrix(0.00844479291121227 0 0 0.00844479291121227 -2.764991 1.365981)">18</text>
<text class="face_text" text-anchor="middle" dominant-baseline="middle" transform="matrix(0.00844479291121227 0 0 0.00844479291121227 -2.444208 0.64549)">1</text>
<text class="face_text" text-anchor="middle" dominant-baseline="middle" transform="matrix(0.00844479291121227 0 0 0.00844479291121227 -1.530662 1.052227)">2</text>
<text class="face_text" text-anchor="middle" dominant-baseline="middle" transform="matrix(0.00844479291121227 0 0 0.00844479291121227 -1.123925 0.138681)">3</text>
<rect class="edge_bg" x="0.2042270708878772" y="-0.08444792911212276" width="0.1688958582242454" height="0.1688958582242454"/>
<text class="edge_text" text-anchor="middle" dominant-baseline="middle" transform="matrix(0.00844479291121227 0 0 0.00844479291121227 0.2886749999999999 -6.123233995736767e-17)">5</text>
<rect class="edge_bg" x="0.7042270708878773" y="0.41555207088787716" width="0.1688958582242454" height="0.1688958582242454"/>
<text class="edge_text" text-anchor="middle" dominant-baseline="middle" transform="matrix(0.00844479291121227 0 0 0.00844479291121227 0.788675 0.4999999999999999)">4</text>
<rect class="edge_bg" x="0.7042270708878773" y="1.4155521106522908" width="0.1688958582242454" height="0.1688958582242454"/>
<text class="edge_text" text-anchor="middle" dominant-baseline="middle" transform="matrix(0.00844479291121227 0 0 0.00844479291121227 0.788675 1.5000000397644135)">52</text>
<rect class="edge_bg" x="0.049718438736654685" y="1.8910805933311496" width="0.1688958582242454" height="0.1688958582242454"/>
<text class="edge_text" text-anchor="middle" dominant-baseline="middle" transform="matrix(0.00844479291121227 0 0 0.00844479291121227 0.1341663678487774 1.9755285224432724)">54</text>
<rect class="edge_bg" x="-0.4393553780727273" y="1.9950364363747544" width="0.1688958582242454" height="0.1688958582242454"/>
<text class="edge_text" text-anchor="middle" dominant-baseline="middle" transform="matrix(0.00844479291121227 0 0 0.00844479291121227 -0.35490744896060455 2.079484365486877)">37</text>
<rect class="edge_bg" x="-1.6352011871091978" y="2.5274613026850985" width="0.1688958582242454" height="0.1688958582242454"/>
<text class="edge_text" text-anchor="middle" dominant-baseline="middle" transform="matrix(0.00844479291121227 0 0 0.00844479291121227 -1.550753257997075 2.6119092317972212)">39</text>
<rect class="edge_bg" x="-2.091974302965886" y="2.324092568075351" width="0.1688958582242454" height="0.1688958582242454"/>
<text class="edge_text" text-anchor="middle" dominant-baseline="middle" transform="matrix(0.00844479291121227 0 0 0.00844479291121227 -2.0075263738537634 2.4085404971874738)">38</text>
<rect class="edge_bg" x="-2.6797599422937473" y="1.515076160628556" width="0.1688958582242454" height="0.1688958582242454"/>
<text class="edge_text" text-anchor="middle" dominant-baseline="middle" transform="matrix(0.00844479291121227 0 0 0.00844479291121227 -2.5953120131816245 1.5995240897406788)">25</text>
<rect class="edge_bg" x="-2.732024250650023" y="1.017814799709178" width="0.1688958582242454" height="0.1688958582242454"/>
<text class="edge_text" text-anchor="middle" dominant-baseline="middle" transform="matrix(0.00844479291121227 0 0 0.00844479291121227 -2.6475763215379002 1.1022627288213007)">28</text>
<rect class="edge_bg" x="-2.0718826579334233" y="0.764410749349977" width="0.1688958582242454" height="0.1688958582242454"/>
<text class="edge_text" text-anchor="middle" dominant-baseline="middle" transform="matrix(0.00844479291121227 0 0 0.00844479291121227 -1.9874347288213006 0.8488586784620997)">1</text>
<rect class="edge_bg" x="-1.4117412506500229" y="0.5110057997091779" width="0.1688958582242454" height="0.1688958582242454"/>
<text class="edge_text" text-anchor="middle" dominant-baseline="middle" transform="matrix(0.00844479291121227 0 0 0.00844479291121227 -1.3272933215379001 0.5954537288213007)">3</text>
</svg>
