<?xml version="1.0" encoding="utf-8"?>
<svg version="1.1" xmlns="http://www.w3.org/2000/svg" viewBox="-5.255922329188306 -3.0045709931535156 8.287319365893884 5.995446407748522" style="enable-background:new -5.255922329188306 -3.0045709931535156 8.287319365893884 5.995446407748522;">
<style type="text/css">
  .face_stroke {fill:none; stroke:#000000; stroke-width:0.02; stroke-miterlimit:10;}
  .face_text {fill:#000000; font-family:monospace;}
  .edge_text {fill:#ff0000; font-family:monospace;}
  .edge_bg {fill:#f3f3f3; stroke:#606060; stroke-width:0.01;}
</style>
<polygon class="face_stroke" points="0.288675134594813,-0.5 -0.5773502691896258,-7.07050159149938e-17 0.288675134594813,0.5"/>
<polygon class="face_stroke" points="0.2886749999999999,0.5 1.288675,0.5000000000000001 1.2886750000000007,-0.49999999999999944 0.2886749999999997,-0.4999999999999998"/>
<polygon class="face_stroke" points="1.288674865405187,0.4999999999999999 2.1547002691896258,1.414100318299876e-16 1.2886748654051876,-0.5000000000000003"/>
<polygon class="face_stroke" points="2.1547007018922195,-2.981077805719323e-07 2.6547007018922195,-0.8660257018922193 1.7886752981077807,-1.3660257018922195 1.2886752981077807,-0.5000002981077809"/>
<polygon class="face_stroke" points="2.654700134594813,-0.866025 2.654700134594813,-1.866025 1.7886747308103743,-1.366025"/>
<polygon class="face_stroke" points="2.6547007018922195,-1.8660252981077805 2.1547007018922195,-2.732050701892219 1.2886752981077807,-2.2320507018922195 1.788675298107781,-1.3660252981077805"/>
<polygon class="face_stroke" points="1.2886748542188244,-2.2320511820100126 0.3105272534850192,-2.024139491192254 0.20599879021736556,-1.02961759582398 1.1195442478599658,-0.6228809527481798 1.7886748542188244,-1.3660257782255742"/>
<polygon class="face_stroke" points="0.3105271793179634,-2.02413871605031 -0.6839947160503098,-2.1286671793179637 -0.7885231793179635,-1.13414528394969 0.20599871605031,-1.0296168206820366"/>
<polygon class="face_stroke" points="-0.6839948206820365,-2.12866771605031 -1.6785167160503098,-2.2331961793179635 -1.7830451793179634,-1.2386742839496898 -0.78852328394969,-1.1341458206820365"/>
<polygon class="face_stroke" points="-1.6785157902173657,-2.2331964041760197 -2.5920612478599665,-2.6399330472518203 -3.2611918542188247,-1.896788221774426 -2.7611918542188247,-1.0307628179899873 -1.783044253485019,-1.2386745088077467"/>
<polygon class="face_stroke" points="-2.7611927356975547,-1.030762044886545 -2.092062129338697,-0.2876172194091505 -1.783045134963749,-1.2386737357043045"/>
<polygon class="face_stroke" points="-2.7611927521400337,-1.03076204725182 -3.6747382097826344,-0.6240254041760198 -3.570209746514981,0.37049649119225336 -2.592062145781175,0.5784081820100125 -2.0920621457811754,-0.28761722177442545"/>
<polygon class="face_stroke" points="-3.5702088650362507,0.37049626429569554 -3.2611918706613037,1.3215527805908494 -2.592061264302445,0.5784079551134551"/>
<polygon class="face_stroke" points="-3.570209,0.37049603976441314 -4.570209,0.37049603976441314 -4.879225994374948,1.321552556059567 -4.070209,1.9093378083520398 -3.2611920056250527,1.321552556059567"/>
<polygon class="face_stroke" points="-4.0702091233337105,1.9093381289587625 -3.482423871041237,2.71835512333371 -2.6734068766662897,2.1305698710412373 -3.2611921289587626,1.3215528766662894"/>
<polygon class="face_stroke" points="-2.6734068710412373,2.1305691233337103 -1.8643898766662894,1.5427838710412374 -2.4521751289587628,0.7337668766662897 -3.2611921233337102,1.3215521289587628"/>
<polygon class="face_stroke" points="-1.8643898710412372,1.5427841233337103 -1.0553728766662895,0.9549988710412372 -1.6431581289587627,0.1459818766662896 -2.4521751233337103,0.7337671289587627"/>
<polygon class="face_stroke" points="-1.0553728710412371,0.9549991233337103 -0.24635587666628955,0.36721387104123715 -0.8341411289587628,-0.4418031233337104 -1.6431581233337103,0.14598212895876275"/>
<text class="face_text" text-anchor="middle" dominant-baseline="middle" transform="matrix(0.011990892815497044 0 0 0.011990892815497044 0.0 0.0)">0</text>
<text class="face_text" text-anchor="middle" dominant-baseline="middle" transform="matrix(0.011990892815497044 0 0 0.011990892815497044 0.788675 0.0)">4</text>
<text class="face_text" text-anchor="middle" dominant-baseline="middle" transform="matrix(0.011990892815497044 0 0 0.011990892815497044 1.57735 0.0)">6</text>
<text class="face_text" text-anchor="middle" dominant-baseline="middle" transform="matrix(0.011990892815497044 0 0 0.011990892815497044 1.971688 -0.683013)">8</text>
<text class="face_text" text-anchor="middle" dominant-baseline="middle" transform="matrix(0.011990892815497044 0 0 0.011990892815497044 2.366025 -1.366025)">10</text>
<text class="face_text" text-anchor="middle" dominant-baseline="middle" transform="matrix(0.011990892815497044 0 0 0.011990892815497044 1.971688 -2.049038)">12</text>
<text class="face_text" text-anchor="middle" dominant-baseline="middle" transform="matrix(0.011990892815497044 0 0 0.011990892815497044 0.942684 -1.454943)">20</text>
<text class="face_text" text-anchor="middle" dominant-baseline="middle" transform="matrix(0.011990892815497044 0 0 0.011990892815497044 -0.238998 -1.579142)">1</text>
<text class="face_text" text-anchor="middle" dominant-baseline="middle" transform="matrix(0.011990892815497044 0 0 0.011990892815497044 -1.23352 -1.683671)">2</text>
<text class="face_text" text-anchor="middle" dominant-baseline="middle" transform="matrix(0.011990892815497044 0 0 0.011990892815497044 -2.415201 -1.807871)">21</text>
<text class="face_text" text-anchor="middle" dominant-baseline="middle" transform="matrix(0.011990892815497044 0 0 0.011990892815497044 -2.2121 -0.852351)">22</text>
<text class="face_text" text-anchor="middle" dominant-baseline="middle" transform="matrix(0.011990892815497044 0 0 0.011990892815497044 -2.938053 -0.1987)">30</text>
<text class="face_text" text-anchor="middle" dominant-baseline="middle" transform="matrix(0.011990892815497044 0 0 0.011990892815497044 -3.141154 0.756819)">29</text>
<text class="face_text" text-anchor="middle" dominant-baseline="middle" transform="matrix(0.011990892815497044 0 0 0.011990892815497044 -4.070209 1.058687)">28</text>
<text class="face_text" text-anchor="middle" dominant-baseline="middle" transform="matrix(0.011990892815497044 0 0 0.011990892815497044 -3.371808 2.019954)">9</text>
<text class="face_text" text-anchor="middle" dominant-baseline="middle" transform="matrix(0.011990892815497044 0 0 0.011990892815497044 -2.562791 1.432168)">7</text>
<text class="face_text" text-anchor="middle" dominant-baseline="middle" transform="matrix(0.011990892815497044 0 0 0.011990892815497044 -1.753774 0.844383)">5</text>
<text class="face_text" text-anchor="middle" dominant-baseline="middle" transform="matrix(0.011990892815497044 0 0 0.011990892815497044 -0.944757 0.256598)">3</text>
<rect class="edge_bg" x="0.16876607184502945" y="-0.1199089281549705" width="0.2398178563099409" height="0.2398178563099409"/>
<text class="edge_text" text-anchor="middle" dominant-baseline="middle" transform="matrix(0.011990892815497044 0 0 0.011990892815497044 0.2886749999999999 -6.123233995736767e-17)">5</text>
<rect class="edge_bg" x="1.1687659372502166" y="-0.11990892815497049" width="0.2398178563099409" height="0.2398178563099409"/>
<text class="edge_text" text-anchor="middle" dominant-baseline="middle" transform="matrix(0.011990892815497044 0 0 0.011990892815497044 1.288674865405187 -3.535250795749691e-17)">8</text>
<rect class="edge_bg" x="1.6017790718450295" y="-0.36990922626275097" width="0.2398178563099409" height="0.2398178563099409"/>
<text class="edge_text" text-anchor="middle" dominant-baseline="middle" transform="matrix(0.011990892815497044 0 0 0.011990892815497044 1.721688 -0.2500002981077805)">11</text>
<rect class="edge_bg" x="2.101778504547623" y="-1.2359339281549704" width="0.2398178563099409" height="0.2398178563099409"/>
<text class="edge_text" text-anchor="middle" dominant-baseline="middle" transform="matrix(0.011990892815497044 0 0 0.011990892815497044 2.2216874327025935 -1.116025)">14</text>
<rect class="edge_bg" x="2.10177907184503" y="-1.735934226262751" width="0.2398178563099409" height="0.2398178563099409"/>
<text class="edge_text" text-anchor="middle" dominant-baseline="middle" transform="matrix(0.011990892815497044 0 0 0.011990892815497044 2.2216880000000003 -1.6160252981077805)">17</text>
<rect class="edge_bg" x="1.418765926063854" y="-1.9189474082727638" width="0.2398178563099409" height="0.2398178563099409"/>
<text class="edge_text" text-anchor="middle" dominant-baseline="middle" transform="matrix(0.011990892815497044 0 0 0.011990892815497044 1.5386748542188247 -1.7990384801177934)">33</text>
<rect class="edge_bg" x="0.13835401952916632" y="-1.646786696521144" width="0.2398178563099409" height="0.2398178563099409"/>
<text class="edge_text" text-anchor="middle" dominant-baseline="middle" transform="matrix(0.011990892815497044 0 0 0.011990892815497044 0.25826294768413677 -1.5268777683661734)">31</text>
<rect class="edge_bg" x="-0.8561679804708336" y="-1.7513156965211438" width="0.2398178563099409" height="0.2398178563099409"/>
<text class="edge_text" text-anchor="middle" dominant-baseline="middle" transform="matrix(0.011990892815497044 0 0 0.011990892815497044 -0.7362590523158632 -1.6314067683661733)">1</text>
<rect class="edge_bg" x="-1.850688950006163" y="-1.8558443846468538" width="0.2398178563099409" height="0.2398178563099409"/>
<text class="edge_text" text-anchor="middle" dominant-baseline="middle" transform="matrix(0.011990892815497044 0 0 0.011990892815497044 -1.7307800218511924 -1.7359354564918834)">35</text>
<rect class="edge_bg" x="-2.3920278634856222" y="-1.254626818450395" width="0.2398178563099409" height="0.2398178563099409"/>
<text class="edge_text" text-anchor="middle" dominant-baseline="middle" transform="matrix(0.011990892815497044 0 0 0.011990892815497044 -2.272118935330652 -1.1347178902954247)">37</text>
<rect class="edge_bg" x="-2.546536377115575" y="-0.7790985626680935" width="0.2398178563099409" height="0.2398178563099409"/>
<text class="edge_text" text-anchor="middle" dominant-baseline="middle" transform="matrix(0.011990892815497044 0 0 0.011990892815497044 -2.4266274489606046 -0.6591896345131231)">54</text>
<rect class="edge_bg" x="-3.201043992824318" y="0.35454318154960485" width="0.2398178563099409" height="0.2398178563099409"/>
<text class="edge_text" text-anchor="middle" dominant-baseline="middle" transform="matrix(0.011990892815497044 0 0 0.011990892815497044 -3.081135064669348 0.4744521097045753)">53</text>
<rect class="edge_bg" x="-3.535609430967497" y="0.7261153697570195" width="0.2398178563099409" height="0.2398178563099409"/>
<text class="edge_text" text-anchor="middle" dominant-baseline="middle" transform="matrix(0.011990892815497044 0 0 0.011990892815497044 -3.4157005028125265 0.84602429791199)">51</text>
<rect class="edge_bg" x="-3.785609554301207" y="1.4955365746575557" width="0.2398178563099409" height="0.2398178563099409"/>
<text class="edge_text" text-anchor="middle" dominant-baseline="middle" transform="matrix(0.011990892815497044 0 0 0.011990892815497044 -3.665700626146237 1.615445502812526)">48</text>
<rect class="edge_bg" x="-3.087208425342444" y="1.6061516979912662" width="0.2398178563099409" height="0.2398178563099409"/>
<text class="edge_text" text-anchor="middle" dominant-baseline="middle" transform="matrix(0.011990892815497044 0 0 0.011990892815497044 -2.9672994971874735 1.7260606261462368)">12</text>
<rect class="edge_bg" x="-2.278191425342444" y="1.0183666979912664" width="0.2398178563099409" height="0.2398178563099409"/>
<text class="edge_text" text-anchor="middle" dominant-baseline="middle" transform="matrix(0.011990892815497044 0 0 0.011990892815497044 -2.1582824971874737 1.1382756261462368)">9</text>
<rect class="edge_bg" x="-1.4691744253424441" y="0.4305816979912662" width="0.2398178563099409" height="0.2398178563099409"/>
<text class="edge_text" text-anchor="middle" dominant-baseline="middle" transform="matrix(0.011990892815497044 0 0 0.011990892815497044 -1.3492654971874738 0.5504906261462367)">6</text>
</svg>
