<?xml version="1.0" encoding="utf-8"?>
<svg version="1.1" xmlns="http://www.w3.org/2000/svg" viewBox="-3.703867979188306 -2.3024155873811636 6.661357665893884 4.251401882845558" style="enable-background:new -3.703867979188306 -2.3024155873811636 6.661357665893884 4.251401882845558;">
<style type="text/css">
  .face_stroke {fill:none; stroke:#000000; stroke-width:0.02; stroke-miterlimit:10;}
  .face_text {fill:#000000; font-family:monospace;}
  .edge_text {fill:#ff0000; font-family:monospace;}
  .edge_bg {fill:#f3f3f3; stroke:#606060; stroke-width:0.01;}
</style>
<polygon class="face_stroke" points="0.288675134594813,-0.5 -0.5773502691896258,-7.07050159149938e-17 0.288675134594813,0.5"/>
<polygon class="face_stroke" points="0.2886749999999999,0.5 1.288675,0.5000000000000001 1.2886750000000007,-0.49999999999999944 0.2886749999999997,-0.4999999999999998"/>
<polygon class="face_stroke" points="1.288674865405187,0.4999999999999999 2.1547002691896258,1.414100318299876e-16 1.2886748654051876,-0.5000000000000003"/>
<polygon class="face_stroke" points="2.1547007018922195,-2.981077805719323e-07 2.6547007018922195,-0.8660257018922193 1.7886752981077807,-1.3660257018922195 1.2886752981077807,-0.5000002981077809"/>
<polygon class="face_stroke" points="1.7886748542188244,-1.3660252217744258 1.1195442478599664,-2.10917004725182 0.20599879021736545,-1.7024334041760198 0.310527253485019,-0.7079115088077466 1.2886748542188249,-0.4999998179899874"/>
<polygon class="face_stroke" points="0.20599871605031,-1.7024331793179635 -0.7885231793179632,-1.5979047160503101 -0.6839947160503097,-0.6033828206820364 0.3105271793179632,-0.7079112839496898"/>
<polygon class="face_stroke" points="-0.78852328394969,-1.5979051793179635 -1.7830451793179631,-1.4933767160503102 -1.6785167160503096,-0.49885482068203646 -0.6839948206820368,-0.6033832839496899"/>
<polygon class="face_stroke" points="-1.783044253485019,-1.4933764911922534 -2.7611918542188247,-1.7012881820100128 -3.2611918542188247,-0.8352627782255744 -2.592061247859967,-0.09211795274817991 -1.678515790217366,-0.4988545958239797"/>
<polygon class="face_stroke" points="-2.5920614840058493,-0.0921185364055578 -1.7830444896309017,0.4956667158869155 -1.678516026363248,-0.49885517948135755"/>
<polygon class="face_stroke" points="-2.592062,-0.09211780835203986 -3.4010789943749473,0.49566744394043316 -3.092062,1.4467239602355866 -2.0920620000000003,1.4467239602355868 -1.7830450056250524,0.49566744394043344"/>
<polygon class="face_stroke" points="-2.0920617553350507,1.4467237609601027 -1.141005239039897,1.7557407553350506 -0.8319882446649496,0.8046842390398965 -1.7830447609601034,0.4956672446649497"/>
<polygon class="face_stroke" points="-0.8319882390398969,0.8046837553350505 -0.5229712446649495,-0.1463727609601031 -1.4740277609601031,-0.45538975533505055 -1.7830447553350508,0.4956667609601027"/>
<text class="face_text" text-anchor="middle" dominant-baseline="middle" transform="matrix(0.008502803765691116 0 0 0.008502803765691116 0.0 0.0)">0</text>
<text class="face_text" text-anchor="middle" dominant-baseline="middle" transform="matrix(0.008502803765691116 0 0 0.008502803765691116 0.788675 0.0)">4</text>
<text class="face_text" text-anchor="middle" dominant-baseline="middle" transform="matrix(0.008502803765691116 0 0 0.008502803765691116 1.57735 0.0)">6</text>
<text class="face_text" text-anchor="middle" dominant-baseline="middle" transform="matrix(0.008502803765691116 0 0 0.008502803765691116 1.971688 -0.683013)">8</text>
<text class="face_text" text-anchor="middle" dominant-baseline="middle" transform="matrix(0.008502803765691116 0 0 0.008502803765691116 0.942684 -1.277108)">20</text>
<text class="face_text" text-anchor="middle" dominant-baseline="middle" transform="matrix(0.008502803765691116 0 0 0.008502803765691116 -0.238998 -1.152908)">1</text>
<text class="face_text" text-anchor="middle" dominant-baseline="middle" transform="matrix(0.008502803765691116 0 0 0.008502803765691116 -1.23352 -1.04838)">2</text>
<text class="face_text" text-anchor="middle" dominant-baseline="middle" transform="matrix(0.008502803765691116 0 0 0.008502803765691116 -2.415201 -0.92418)">21</text>
<text class="face_text" text-anchor="middle" dominant-baseline="middle" transform="matrix(0.008502803765691116 0 0 0.008502803765691116 -2.017874 -0.031769)">22</text>
<text class="face_text" text-anchor="middle" dominant-baseline="middle" transform="matrix(0.008502803765691116 0 0 0.008502803765691116 -2.592062 0.758533)">30</text>
<text class="face_text" text-anchor="middle" dominant-baseline="middle" transform="matrix(0.008502803765691116 0 0 0.008502803765691116 -1.462025 1.125704)">5</text>
<text class="face_text" text-anchor="middle" dominant-baseline="middle" transform="matrix(0.008502803765691116 0 0 0.008502803765691116 -1.153008 0.174647)">3</text>
<rect class="edge_bg" x="0.20364696234308874" y="-0.08502803765691122" width="0.17005607531382233" height="0.17005607531382233"/>
<text class="edge_text" text-anchor="middle" dominant-baseline="middle" transform="matrix(0.008502803765691116 0 0 0.008502803765691116 0.2886749999999999 -6.123233995736767e-17)">5</text>
<rect class="edge_bg" x="1.2036468277482757" y="-0.0850280376569112" width="0.17005607531382233" height="0.17005607531382233"/>
<text class="edge_text" text-anchor="middle" dominant-baseline="middle" transform="matrix(0.008502803765691116 0 0 0.008502803765691116 1.288674865405187 -3.535250795749691e-17)">8</text>
<rect class="edge_bg" x="1.6366599623430889" y="-0.3350283357646917" width="0.17005607531382233" height="0.17005607531382233"/>
<text class="edge_text" text-anchor="middle" dominant-baseline="middle" transform="matrix(0.008502803765691116 0 0 0.008502803765691116 1.721688 -0.2500002981077805)">11</text>
<rect class="edge_bg" x="1.4536468165619134" y="-1.0180405575391178" width="0.17005607531382233" height="0.17005607531382233"/>
<text class="edge_text" text-anchor="middle" dominant-baseline="middle" transform="matrix(0.008502803765691116 0 0 0.008502803765691116 1.5386748542188247 -0.9330125198822066)">32</text>
<rect class="edge_bg" x="0.1732349100272256" y="-1.290200269290738" width="0.17005607531382233" height="0.17005607531382233"/>
<text class="edge_text" text-anchor="middle" dominant-baseline="middle" transform="matrix(0.008502803765691116 0 0 0.008502803765691116 0.25826294768413677 -1.2051722316338267)">31</text>
<rect class="edge_bg" x="-0.8212870899727743" y="-1.185672269290738" width="0.17005607531382233" height="0.17005607531382233"/>
<text class="edge_text" text-anchor="middle" dominant-baseline="middle" transform="matrix(0.008502803765691116 0 0 0.008502803765691116 -0.7362590523158632 -1.1006442316338267)">1</text>
<rect class="edge_bg" x="-1.8158080595081036" y="-1.0811435811650278" width="0.17005607531382233" height="0.17005607531382233"/>
<text class="edge_text" text-anchor="middle" dominant-baseline="middle" transform="matrix(0.008502803765691116 0 0 0.008502803765691116 -1.7307800218511924 -0.9961155435081167)">35</text>
<rect class="edge_bg" x="-2.22031679284146" y="-0.380514895600369" width="0.17005607531382233" height="0.17005607531382233"/>
<text class="edge_text" text-anchor="middle" dominant-baseline="middle" transform="matrix(0.008502803765691116 0 0 0.008502803765691116 -2.1352887551845487 -0.29548685794345786)">37</text>
<rect class="edge_bg" x="-2.2725815404694374" y="0.11674678013728543" width="0.17005607531382233" height="0.17005607531382233"/>
<text class="edge_text" text-anchor="middle" dominant-baseline="middle" transform="matrix(0.008502803765691116 0 0 0.008502803765691116 -2.187553502812526 0.2017748177941966)">54</text>
<rect class="edge_bg" x="-2.0225812958044878" y="0.8861674651556152" width="0.17005607531382233" height="0.17005607531382233"/>
<text class="edge_text" text-anchor="middle" dominant-baseline="middle" transform="matrix(0.008502803765691116 0 0 0.008502803765691116 -1.9375532581475767 0.9711955028125263)">52</text>
<rect class="edge_bg" x="-1.392544534844385" y="0.5651472204906658" width="0.17005607531382233" height="0.17005607531382233"/>
<text class="edge_text" text-anchor="middle" dominant-baseline="middle" transform="matrix(0.008502803765691116 0 0 0.008502803765691116 -1.3075164971874738 0.6501752581475769)">6</text>
</svg>
