<?xml version="1.0" encoding="utf-8"?>
<svg version="1.1" xmlns="http://www.w3.org/2000/svg" viewBox="-3.7204981079661135 -3.0173541652963025 5.571437250071588 3.728890923177021" style="enable-background:new -3.7204981079661135 -3.0173541652963025 5.571437250071588 3.728890923177021;">
<style type="text/css">
  .face_stroke {fill:none; stroke:#000000; stroke-width:0.02; stroke-miterlimit:10;}
  .face_text {fill:#000000; font-family:monospace;}
  .edge_text {fill:#ff0000; font-family:monospace;}
  .edge_bg {fill:#f3f3f3; stroke:#606060; stroke-width:0.01;}
</style>
<polygon class="face_stroke" points="0.288675134594813,-0.5 -0.5773502691896258,-7.07050159149938e-17 0.288675134594813,0.5"/>
<polygon class="face_stroke" points="0.2886749999999999,0.5 1.288675,0.5000000000000001 1.2886750000000007,-0.49999999999999944 0.2886749999999997,-0.4999999999999998"/>
<polygon class="face_stroke" points="1.288675,-0.5000000397644132 1.5976919943749475,-1.4510565560595667 0.788675,-2.03884180835204 -0.020341994374947325,-1.4510565560595667 0.2886749999999999,-0.5000000397644133"/>
<polygon class="face_stroke" points="0.7886751233337104,-2.038842128958763 0.20088987104123718,-2.8478591233337105 -0.6081271233337103,-2.260073871041237 -0.020341871041237275,-1.4510568766662897"/>
<polygon class="face_stroke" points="-0.6081275364055576,-2.2600734840058494 -1.014864179481358,-1.3465280263632486 -0.020342284113084474,-1.451056489630902"/>
<polygon class="face_stroke" points="-0.6081269496407994,-2.2600734072834006 -1.5216724072834003,-2.6668100503592007 -1.9284090503592006,-1.7532645927165995 -1.0148635927166,-1.3465279496407994"/>
<polygon class="face_stroke" points="-1.521672820518642,-2.6668099736367514 -2.5161947158869156,-2.562281510369098 -1.9284094635944427,-1.7532645159941507"/>
<polygon class="face_stroke" points="-2.516194443940433,-2.5622819943749473 -3.4672509602355865,-2.2532650000000003 -3.4672509602355865,-1.2532650000000003 -2.5161944439404333,-0.9442480056250526 -1.92840919164796,-1.7532649999999999"/>
<polygon class="face_stroke" points="-3.4672507357043045,-1.253264865036251 -3.2593390448865454,-0.2751172643024453 -2.516194219409151,-0.9442478706613031"/>
<polygon class="face_stroke" points="-3.2593397159181263,-0.275117109559268 -2.5902091095592685,0.46802771591812625 -1.847064284081874,-0.2011028904407316 -2.516194890440732,-0.9442477159181262"/>
<polygon class="face_stroke" points="-1.847064109559268,-0.20110328408187372 -1.103919284081874,-0.870233890440732 -1.773049890440732,-1.613378715918126 -2.516194715918126,-0.944248109559268"/>
<polygon class="face_stroke" points="-1.8470637159181265,-0.201103109559268 -1.1779331095592684,0.5420417159181262 -0.43478828408187387,-0.1270888904407316 -1.1039188904407318,-0.8702337159181263"/>
<text class="face_text" text-anchor="middle" dominant-baseline="middle" transform="matrix(0.007457781846354042 0 0 0.007457781846354042 0.0 0.0)">0</text>
<text class="face_text" text-anchor="middle" dominant-baseline="middle" transform="matrix(0.007457781846354042 0 0 0.007457781846354042 0.788675 0.0)">4</text>
<text class="face_text" text-anchor="middle" dominant-baseline="middle" transform="matrix(0.007457781846354042 0 0 0.007457781846354042 0.788675 -1.188191)">20</text>
<text class="face_text" text-anchor="middle" dominant-baseline="middle" transform="matrix(0.007457781846354042 0 0 0.007457781846354042 0.090274 -2.149458)">16</text>
<text class="face_text" text-anchor="middle" dominant-baseline="middle" transform="matrix(0.007457781846354042 0 0 0.007457781846354042 -0.547778 -1.685886)">18</text>
<text class="face_text" text-anchor="middle" dominant-baseline="middle" transform="matrix(0.007457781846354042 0 0 0.007457781846354042 -1.268268 -2.006669)">19</text>
<text class="face_text" text-anchor="middle" dominant-baseline="middle" transform="matrix(0.007457781846354042 0 0 0.007457781846354042 -1.988759 -2.327452)">23</text>
<text class="face_text" text-anchor="middle" dominant-baseline="middle" transform="matrix(0.007457781846354042 0 0 0.007457781846354042 -2.77906 -1.753265)">21</text>
<text class="face_text" text-anchor="middle" dominant-baseline="middle" transform="matrix(0.007457781846354042 0 0 0.007457781846354042 -3.080928 -0.82421)">22</text>
<text class="face_text" text-anchor="middle" dominant-baseline="middle" transform="matrix(0.007457781846354042 0 0 0.007457781846354042 -2.553202 -0.23811)">3</text>
<text class="face_text" text-anchor="middle" dominant-baseline="middle" transform="matrix(0.007457781846354042 0 0 0.007457781846354042 -1.810057 -0.907241)">2</text>
<text class="face_text" text-anchor="middle" dominant-baseline="middle" transform="matrix(0.007457781846354042 0 0 0.007457781846354042 -1.140926 -0.164096)">1</text>
<rect class="edge_bg" x="0.21409718153645949" y="-0.07457781846354047" width="0.14915563692708084" height="0.14915563692708084"/>
<text class="edge_text" text-anchor="middle" dominant-baseline="middle" transform="matrix(0.007457781846354042 0 0 0.007457781846354042 0.2886749999999999 -6.123233995736767e-17)">5</text>
<rect class="edge_bg" x="0.7140971815364596" y="-0.5745778582279536" width="0.14915563692708084" height="0.14915563692708084"/>
<text class="edge_text" text-anchor="middle" dominant-baseline="middle" transform="matrix(0.007457781846354042 0 0 0.007457781846354042 0.788675 -0.5000000397644132)">30</text>
<rect class="edge_bg" x="0.30958880768269625" y="-1.8195273212760668" width="0.14915563692708084" height="0.14915563692708084"/>
<text class="edge_text" text-anchor="middle" dominant-baseline="middle" transform="matrix(0.007457781846354042 0 0 0.007457781846354042 0.38416662614623664 -1.7449495028125264)">34</text>
<rect class="edge_bg" x="-0.38881272872286143" y="-1.930142805281916" width="0.14915563692708084" height="0.14915563692708084"/>
<text class="edge_text" text-anchor="middle" dominant-baseline="middle" transform="matrix(0.007457781846354042 0 0 0.007457781846354042 -0.314234910259321 -1.8555649868183757)">26</text>
<rect class="edge_bg" x="-0.8860730896422397" y="-1.8778784969256404" width="0.14915563692708084" height="0.14915563692708084"/>
<text class="edge_text" text-anchor="middle" dominant-baseline="middle" transform="matrix(0.007457781846354042 0 0 0.007457781846354042 -0.8114952711786994 -1.8033006784621)">25</text>
<rect class="edge_bg" x="-1.7996189605200825" y="-2.284615063278992" width="0.14915563692708084" height="0.14915563692708084"/>
<text class="edge_text" text-anchor="middle" dominant-baseline="middle" transform="matrix(0.007457781846354042 0 0 0.007457781846354042 -1.7250411420565421 -2.2100372448154513)">38</text>
<rect class="edge_bg" x="-2.2968796362577373" y="-2.2323513156510146" width="0.14915563692708084" height="0.14915563692708084"/>
<text class="edge_text" text-anchor="middle" dominant-baseline="middle" transform="matrix(0.007457781846354042 0 0 0.007457781846354042 -2.2223018177941967 -2.157773497187474)">39</text>
<rect class="edge_bg" x="-3.0663002960202683" y="-1.173334186312318" width="0.14915563692708084" height="0.14915563692708084"/>
<text class="edge_text" text-anchor="middle" dominant-baseline="middle" transform="matrix(0.007457781846354042 0 0 0.007457781846354042 -2.9917224775567277 -1.0987563678487775)">37</text>
<rect class="edge_bg" x="-2.96234512164297" y="-0.6842602312022376" width="0.14915563692708084" height="0.14915563692708084"/>
<text class="edge_text" text-anchor="middle" dominant-baseline="middle" transform="matrix(0.007457781846354042 0 0 0.007457781846354042 -2.8877673031794293 -0.6096824127386972)">36</text>
<rect class="edge_bg" x="-2.2562072312022377" y="-0.647253515284111" width="0.14915563692708084" height="0.14915563692708084"/>
<text class="edge_text" text-anchor="middle" dominant-baseline="middle" transform="matrix(0.007457781846354042 0 0 0.007457781846354042 -2.181629412738697 -0.5726756968205706)">3</text>
<rect class="edge_bg" x="-1.5500691216429696" y="-0.6102462312022375" width="0.14915563692708084" height="0.14915563692708084"/>
<text class="edge_text" text-anchor="middle" dominant-baseline="middle" transform="matrix(0.007457781846354042 0 0 0.007457781846354042 -1.4754913031794292 -0.5356684127386971)">1</text>
</svg>
