<?xml version="1.0" encoding="utf-8"?>
<svg version="1.1" xmlns="http://www.w3.org/2000/svg" viewBox="-2.786297237971772 -0.7463424427109416 4.8738621274765626 5.419533739640708" style="enable-background:new -2.786297237971772 -0.7463424427109416 4.8738621274765626 5.419533739640708;">
<style type="text/css">
  .face_stroke {fill:none; stroke:#000000; stroke-width:0.02; stroke-miterlimit:10;}
  .face_text {fill:#000000; font-family:monospace;}
  .edge_text {fill:#ff0000; font-family:monospace;}
  .edge_bg {fill:#f3f3f3; stroke:#606060; stroke-width:0.01;}
</style>
<polygon class="face_stroke" points="0.5000000000000001,-0.5 -0.5,-0.5000000000000001 -0.5000000000000001,0.5 0.4999999999999999,0.5000000000000001"/>
<polygon class="face_stroke" points="0.4999998654051868,0.4999999999999999 1.3660252691896257,1.414100318299876e-16 0.49999986540518754,-0.5000000000000003"/>
<polygon class="face_stroke" points="0.5000002981077808,0.5000002981077805 1.000000298107781,1.3660257018922195 1.8660257018922195,0.8660257018922193 1.3660257018922195,2.981077805719323e-07"/>
<polygon class="face_stroke" points="0.9999997308103742,1.366025 1.8660251345948131,1.866025 1.8660251345948127,0.8660249999999999"/>
<polygon class="face_stroke" points="0.9999997782255741,1.3660251457811756 0.2568549527481797,2.035155752140034 0.6635915958239795,2.9487012097826346 1.6581134911922528,2.8441727465149818 1.8660251820100129,1.866025145781176"/>
<polygon class="face_stroke" points="0.25685553640555764,2.0351555159941506 -0.33092971588691567,2.8441725103690976 0.6635921794813578,2.9487009736367518"/>
<polygon class="face_stroke" points="-0.33093040417601977,2.8441727902173657 -0.7376670472518202,3.757718247859966 0.005477778225574173,4.426848854218825 0.8715031820100126,3.9268488542188247 0.6635914911922539,2.9487012534850194"/>
<polygon class="face_stroke" points="-0.33092994964079947,2.8441725927165993 -1.2444754072834003,2.437435949640799 -1.6512120503592005,3.3509814072834003 -0.7376665927166002,3.7577180503592005"/>
<polygon class="face_stroke" points="-1.2444759496407993,2.4374365927165993 -2.1580214072834005,2.030699949640799 -2.5647580503592007,2.9442454072834003 -1.6512125927166001,3.3509820503592005"/>
<polygon class="face_stroke" points="-1.2444760263632484,2.437436179481358 -1.349004489630902,1.4429142841130846 -2.1580214840058494,2.0306995364055576"/>
<polygon class="face_stroke" points="-1.24447571605031,2.4374361793179635 -0.24995382068203664,2.3329077160503098 -0.35448228394969006,1.3383858206820365 -1.3490041793179635,1.4429142839496898"/>
<polygon class="face_stroke" points="-0.3544818206820366,1.3383857160503099 -0.45901028394969,0.3438638206820366 -1.4535321793179632,0.44839228394968983 -1.3490037160503097,1.4429141793179636"/>
<text class="face_text" text-anchor="middle" dominant-baseline="middle" transform="matrix(0.009747724254953126 0 0 0.009747724254953126 0.0 0.0)">1</text>
<text class="face_text" text-anchor="middle" dominant-baseline="middle" transform="matrix(0.009747724254953126 0 0 0.009747724254953126 0.788675 0.0)">0</text>
<text class="face_text" text-anchor="middle" dominant-baseline="middle" transform="matrix(0.009747724254953126 0 0 0.009747724254953126 1.183013 0.683013)">3</text>
<text class="face_text" text-anchor="middle" dominant-baseline="middle" transform="matrix(0.009747724254953126 0 0 0.009747724254953126 1.57735 1.366025)">22</text>
<text class="face_text" text-anchor="middle" dominant-baseline="middle" transform="matrix(0.009747724254953126 0 0 0.009747724254953126 1.088917 2.212016)">21</text>
<text class="face_text" text-anchor="middle" dominant-baseline="middle" transform="matrix(0.009747724254953126 0 0 0.009747724254953126 0.196506 2.609343)">23</text>
<text class="face_text" text-anchor="middle" dominant-baseline="middle" transform="matrix(0.009747724254953126 0 0 0.009747724254953126 0.094395 3.580858)">24</text>
<text class="face_text" text-anchor="middle" dominant-baseline="middle" transform="matrix(0.009747724254953126 0 0 0.009747724254953126 -0.991071 3.097577)">17</text>
<text class="face_text" text-anchor="middle" dominant-baseline="middle" transform="matrix(0.009747724254953126 0 0 0.009747724254953126 -1.904617 2.690841)">16</text>
<text class="face_text" text-anchor="middle" dominant-baseline="middle" transform="matrix(0.009747724254953126 0 0 0.009747724254953126 -1.583834 1.97035)">18</text>
<text class="face_text" text-anchor="middle" dominant-baseline="middle" transform="matrix(0.009747724254953126 0 0 0.009747724254953126 -0.799479 1.887911)">19</text>
<text class="face_text" text-anchor="middle" dominant-baseline="middle" transform="matrix(0.009747724254953126 0 0 0.009747724254953126 -0.904007 0.893389)">2</text>
<rect class="edge_bg" x="0.40252262285565577" y="-0.0974772425495313" width="0.19495448509906252" height="0.19495448509906252"/>
<text class="edge_text" text-anchor="middle" dominant-baseline="middle" transform="matrix(0.009747724254953126 0 0 0.009747724254953126 0.49999986540518704 -3.535250795749691e-17)">2</text>
<rect class="edge_bg" x="0.8355357574504688" y="0.15252305555824924" width="0.19495448509906252" height="0.19495448509906252"/>
<text class="edge_text" text-anchor="middle" dominant-baseline="middle" transform="matrix(0.009747724254953126 0 0 0.009747724254953126 0.9330130000000001 0.2500002981077805)">0</text>
<rect class="edge_bg" x="1.3355351901530623" y="1.0185477574504689" width="0.19495448509906252" height="0.19495448509906252"/>
<text class="edge_text" text-anchor="middle" dominant-baseline="middle" transform="matrix(0.009747724254953126 0 0 0.009747724254953126 1.4330124327025935 1.116025)">36</text>
<rect class="edge_bg" x="1.335535237568262" y="1.5185479032316445" width="0.19495448509906252" height="0.19495448509906252"/>
<text class="edge_text" text-anchor="middle" dominant-baseline="middle" transform="matrix(0.009747724254953126 0 0 0.009747724254953126 1.4330124801177933 1.6160251457811756)">37</text>
<rect class="edge_bg" x="0.3627466153939265" y="2.39445100226592" width="0.19495448509906252" height="0.19495448509906252"/>
<text class="edge_text" text-anchor="middle" dominant-baseline="middle" transform="matrix(0.009747724254953126 0 0 0.009747724254953126 0.46022385794345777 2.491928244815451)">39</text>
<rect class="edge_bg" x="0.06885330095858545" y="2.7989597793016614" width="0.19495448509906252" height="0.19495448509906252"/>
<text class="edge_text" text-anchor="middle" dominant-baseline="middle" transform="matrix(0.009747724254953126 0 0 0.009747724254953126 0.1663305435081167 2.8964370218511926)">41</text>
<rect class="edge_bg" x="-0.6317755137282307" y="3.2034680789883687" width="0.19495448509906252" height="0.19495448509906252"/>
<text class="edge_text" text-anchor="middle" dominant-baseline="middle" transform="matrix(0.009747724254953126 0 0 0.009747724254953126 -0.5342982711786994 3.3009453215379)">40</text>
<rect class="edge_bg" x="-1.5453215137282306" y="2.7967320789883687" width="0.19495448509906252" height="0.19495448509906252"/>
<text class="edge_text" text-anchor="middle" dominant-baseline="middle" transform="matrix(0.009747724254953126 0 0 0.009747724254953126 -1.4478442711786994 2.8942093215379)">22</text>
<rect class="edge_bg" x="-1.7987259977340802" y="2.136590615393927" width="0.19495448509906252" height="0.19495448509906252"/>
<text class="edge_text" text-anchor="middle" dominant-baseline="middle" transform="matrix(0.009747724254953126 0 0 0.009747724254953126 -1.701248755184549 2.234067857943458)">26</text>
<rect class="edge_bg" x="-1.394217190233668" y="1.8426979890842956" width="0.19495448509906252" height="0.19495448509906252"/>
<text class="edge_text" text-anchor="middle" dominant-baseline="middle" transform="matrix(0.009747724254953126 0 0 0.009747724254953126 -1.2967399476841368 1.9401752316338268)">25</text>
<rect class="edge_bg" x="-0.9492200109157045" y="1.2931727051346056" width="0.19495448509906252" height="0.19495448509906252"/>
<text class="edge_text" text-anchor="middle" dominant-baseline="middle" transform="matrix(0.009747724254953126 0 0 0.009747724254953126 -0.8517427683661732 1.3906499476841367)">29</text>
</svg>
