<?xml version="1.0" encoding="utf-8"?>
<svg version="1.1" xmlns="http://www.w3.org/2000/svg" viewBox="-1.5902519787014637 -3.512754579219143 5.2329815864370035 5.958644029479523" style="enable-background:new -1.5902519787014637 -3.512754579219143 5.2329815864370035 5.958644029479523;">
<style type="text/css">
  .face_stroke {fill:none; stroke:#000000; stroke-width:0.02; stroke-miterlimit:10;}
  .face_text {fill:#000000; font-family:monospace;}
  .edge_text {fill:#ff0000; font-family:monospace;}
  .edge_bg {fill:#f3f3f3; stroke:#606060; stroke-width:0.01;}
</style>
<polygon class="face_stroke" points="0.5000000000000001,-0.5 -0.5,-0.5000000000000001 -0.5000000000000001,0.5 0.4999999999999999,0.5000000000000001"/>
<polygon class="face_stroke" points="0.4999998654051868,0.4999999999999999 1.3660252691896257,1.414100318299876e-16 0.49999986540518754,-0.5000000000000003"/>
<polygon class="face_stroke" points="0.5000002981077808,0.5000002981077805 1.000000298107781,1.3660257018922195 1.8660257018922195,0.8660257018922193 1.3660257018922195,2.981077805719323e-07"/>
<polygon class="face_stroke" points="0.9999997308103742,1.366025 1.8660251345948131,1.866025 1.8660251345948127,0.8660249999999999"/>
<polygon class="face_stroke" points="1.8660250397644131,1.866025 2.8170815560595663,2.1750419943749475 3.4048668083520397,1.3660250000000003 2.817081556059567,0.5570080056250527 1.8660250397644131,0.8660249999999999"/>
<polygon class="face_stroke" points="2.8170817553350505,0.5570087609601031 2.508064760960103,-0.39404775533505054 1.5570082446649494,-0.08503076096010315 1.8660252390398968,0.8660257553350504"/>
<polygon class="face_stroke" points="2.5080647553350506,-0.39404823903989694 2.199047760960103,-1.3451047553350506 1.2479912446649495,-1.0360877609601031 1.557008239039897,-0.0850312446649496"/>
<polygon class="face_stroke" points="2.199047960235587,-1.345105 2.199047960235587,-2.345105 1.2479914439404332,-2.6541219943749477 0.66020619164796,-1.845105 1.247991443940433,-1.0360880056250528"/>
<polygon class="face_stroke" points="1.2479911233337104,-2.654121871041237 0.43897412895876275,-3.2419071233337102 -0.14881112333371038,-2.4328901289587628 0.6602058710412371,-1.8451048766662894"/>
<polygon class="face_stroke" points="-0.14881051036909793,-2.4328897158869154 -0.25333897363675156,-1.438367820518642 0.6602064840058495,-1.8451044635944425"/>
<polygon class="face_stroke" points="-0.14881082068203655,-2.43288971605031 -1.1433327160503097,-2.5374181793179633 -1.2478611793179635,-1.5428962839496898 -0.25333928394968996,-1.4383678206820365"/>
<polygon class="face_stroke" points="-1.24786071605031,-1.5428961793179634 -1.3523891793179634,-0.5483742839496899 -0.35786728394969003,-0.4438458206820366 -0.25333882068203617,-1.4383677160503097"/>
<text class="face_text" text-anchor="middle" dominant-baseline="middle" transform="matrix(0.010465963172874007 0 0 0.010465963172874007 0.0 0.0)">1</text>
<text class="face_text" text-anchor="middle" dominant-baseline="middle" transform="matrix(0.010465963172874007 0 0 0.010465963172874007 0.788675 0.0)">0</text>
<text class="face_text" text-anchor="middle" dominant-baseline="middle" transform="matrix(0.010465963172874007 0 0 0.010465963172874007 1.183013 0.683013)">3</text>
<text class="face_text" text-anchor="middle" dominant-baseline="middle" transform="matrix(0.010465963172874007 0 0 0.010465963172874007 1.57735 1.366025)">22</text>
<text class="face_text" text-anchor="middle" dominant-baseline="middle" transform="matrix(0.010465963172874007 0 0 0.010465963172874007 2.554216 1.366025)">30</text>
<text class="face_text" text-anchor="middle" dominant-baseline="middle" transform="matrix(0.010465963172874007 0 0 0.010465963172874007 2.187045 0.235989)">5</text>
<text class="face_text" text-anchor="middle" dominant-baseline="middle" transform="matrix(0.010465963172874007 0 0 0.010465963172874007 1.878028 -0.715068)">4</text>
<text class="face_text" text-anchor="middle" dominant-baseline="middle" transform="matrix(0.010465963172874007 0 0 0.010465963172874007 1.510857 -1.845105)">20</text>
<text class="face_text" text-anchor="middle" dominant-baseline="middle" transform="matrix(0.010465963172874007 0 0 0.010465963172874007 0.54959 -2.543506)">16</text>
<text class="face_text" text-anchor="middle" dominant-baseline="middle" transform="matrix(0.010465963172874007 0 0 0.010465963172874007 0.086019 -1.905454)">18</text>
<text class="face_text" text-anchor="middle" dominant-baseline="middle" transform="matrix(0.010465963172874007 0 0 0.010465963172874007 -0.698336 -1.987893)">19</text>
<text class="face_text" text-anchor="middle" dominant-baseline="middle" transform="matrix(0.010465963172874007 0 0 0.010465963172874007 -0.802864 -0.993371)">2</text>
<rect class="edge_bg" x="0.395340233676447" y="-0.10465963172874011" width="0.20931926345748014" height="0.20931926345748014"/>
<text class="edge_text" text-anchor="middle" dominant-baseline="middle" transform="matrix(0.010465963172874007 0 0 0.010465963172874007 0.49999986540518704 -3.535250795749691e-17)">2</text>
<rect class="edge_bg" x="0.82835336827126" y="0.14534066637904045" width="0.20931926345748014" height="0.20931926345748014"/>
<text class="edge_text" text-anchor="middle" dominant-baseline="middle" transform="matrix(0.010465963172874007 0 0 0.010465963172874007 0.9330130000000001 0.2500002981077805)">0</text>
<rect class="edge_bg" x="1.3283528009738534" y="1.01136536827126" width="0.20931926345748014" height="0.20931926345748014"/>
<text class="edge_text" text-anchor="middle" dominant-baseline="middle" transform="matrix(0.010465963172874007 0 0 0.010465963172874007 1.4330124327025935 1.116025)">36</text>
<rect class="edge_bg" x="1.761365408035673" y="1.26136536827126" width="0.20931926345748014" height="0.20931926345748014"/>
<text class="edge_text" text-anchor="middle" dominant-baseline="middle" transform="matrix(0.010465963172874007 0 0 0.010465963172874007 1.8660250397644131 1.366025)">54</text>
<rect class="edge_bg" x="2.2368938654587334" y="0.6068576264188368" width="0.20931926345748014" height="0.20931926345748014"/>
<text class="edge_text" text-anchor="middle" dominant-baseline="middle" transform="matrix(0.010465963172874007 0 0 0.010465963172874007 2.3415534971874736 0.7115172581475768)">52</text>
<rect class="edge_bg" x="1.9278768654587337" y="-0.34419937358116326" width="0.20931926345748014" height="0.20931926345748014"/>
<text class="edge_text" text-anchor="middle" dominant-baseline="middle" transform="matrix(0.010465963172874007 0 0 0.010465963172874007 2.0325364971874738 -0.23953974185242316)">4</text>
<rect class="edge_bg" x="1.61886007035927" y="-1.2952561345412663" width="0.20931926345748014" height="0.20931926345748014"/>
<text class="edge_text" text-anchor="middle" dominant-baseline="middle" transform="matrix(0.010465963172874007 0 0 0.010465963172874007 1.72351970208801 -1.1905965028125263)">30</text>
<rect class="edge_bg" x="0.8494388654587338" y="-2.3542730055825034" width="0.20931926345748014" height="0.20931926345748014"/>
<text class="edge_text" text-anchor="middle" dominant-baseline="middle" transform="matrix(0.010465963172874007 0 0 0.010465963172874007 0.9540984971874739 -2.249613373853763)">34</text>
<rect class="edge_bg" x="0.15103835508963573" y="-2.2436567214694194" width="0.20931926345748014" height="0.20931926345748014"/>
<text class="edge_text" text-anchor="middle" dominant-baseline="middle" transform="matrix(0.010465963172874007 0 0 0.010465963172874007 0.2556979868183758 -2.138997089740679)">26</text>
<rect class="edge_bg" x="-0.30573468404460324" y="-2.0402884000949135" width="0.20931926345748014" height="0.20931926345748014"/>
<text class="edge_text" text-anchor="middle" dominant-baseline="middle" transform="matrix(0.010465963172874007 0 0 0.010465963172874007 -0.2010750523158632 -1.9356287683661733)">25</text>
<rect class="edge_bg" x="-0.8552594000949133" y="-1.5952915794128768" width="0.20931926345748014" height="0.20931926345748014"/>
<text class="edge_text" text-anchor="middle" dominant-baseline="middle" transform="matrix(0.010465963172874007 0 0 0.010465963172874007 -0.7505997683661733 -1.4906319476841368)">29</text>
</svg>
