<?xml version="1.0" encoding="utf-8"?>
<svg version="1.1" xmlns="http://www.w3.org/2000/svg" viewBox="-3.7528295847090223 -3.0361704192756194 5.886419824058444 6.690633782434802" style="enable-background:new -3.7528295847090223 -3.0361704192756194 5.886419824058444 6.690633782434802;">
<style type="text/css">
  .face_stroke {fill:none; stroke:#000000; stroke-width:0.02; stroke-miterlimit:10;}
  .face_text {fill:#000000; font-family:monospace;}
  .edge_text {fill:#ff0000; font-family:monospace;}
  .edge_bg {fill:#f3f3f3; stroke:#606060; stroke-width:0.01;}
</style>
<polygon class="face_stroke" points="0.5000000000000001,-0.5 -0.5,-0.5000000000000001 -0.5000000000000001,0.5 0.4999999999999999,0.5000000000000001"/>
<polygon class="face_stroke" points="0.4999998654051868,0.4999999999999999 1.3660252691896257,1.414100318299876e-16 0.49999986540518754,-0.5000000000000003"/>
<polygon class="face_stroke" points="1.3660257018922195,-2.981077805719323e-07 1.8660257018922195,-0.8660257018922193 1.0000002981077807,-1.3660257018922195 0.5000002981077806,-0.5000002981077809"/>
<polygon class="face_stroke" points="1.8660251345948131,-0.866025 1.8660251345948131,-1.866025 0.9999997308103742,-1.366025"/>
<polygon class="face_stroke" points="1.8660257018922195,-1.8660252981077805 1.3660257018922195,-2.732050701892219 0.5000002981077808,-2.2320507018922195 1.000000298107781,-1.3660252981077805"/>
<polygon class="face_stroke" points="0.4999998542188246,-2.2320511820100126 -0.47814774651498076,-2.024139491192254 -0.5826762097826343,-1.02961759582398 0.33086924785996574,-0.6228809527481798 0.9999998542188244,-1.3660257782255742"/>
<polygon class="face_stroke" points="-0.47814782068203665,-2.02413871605031 -1.47266971605031,-2.1286671793179637 -1.5771981793179635,-1.13414528394969 -0.5826762839496901,-1.0296168206820366"/>
<polygon class="face_stroke" points="-1.5771981794813579,-1.1341459736367516 -1.1704615364055575,-0.22060051599415054 -0.5826762841130844,-1.0296175103690977"/>
<polygon class="face_stroke" points="-1.5771975927165998,-1.1341460503592007 -2.4907430503592005,-0.7274094072834003 -2.084006407283401,0.18613605035920044 -1.1704609496407996,-0.22060059271659932"/>
<polygon class="face_stroke" points="-2.490743463594442,-0.7274094840058495 -3.0785287158869155,0.0816075103690978 -2.084006820518642,0.18613597363675163"/>
<polygon class="face_stroke" points="-3.0785284041760197,0.08160779021736553 -3.4852650472518203,0.9951532478599662 -2.742120221774426,1.6642838542188247 -1.8760948179899875,1.1642838542188245 -2.084006508807746,0.1861362534850195"/>
<polygon class="face_stroke" points="-2.7421202691896256,1.664284 -1.8760948654051868,2.1642840000000003 -1.8760948654051872,1.1642839999999999"/>
<polygon class="face_stroke" points="-2.742120221774426,1.6642841457811755 -3.4852650472518203,2.3334147521400337 -3.07852840417602,3.2469602097826344 -2.084006508807747,3.1424317465149816 -1.876094817989987,2.164284145781176"/>
<polygon class="face_stroke" points="-2.0840066457757827,3.142431954958023 -1.1058590450419772,3.3503436457757827 -0.8979473542242172,2.372196045041977 -1.8760949549580228,2.1642843542242174"/>
<polygon class="face_stroke" points="-0.8979470450419766,2.3721956457757827 -0.6900353542242174,1.3940480450419768 -1.6681829549580232,1.1861363542242174 -1.8760946457757823,2.164283954958023"/>
<polygon class="face_stroke" points="-0.6900360450419767,1.3940476457757824 -0.4821243542242174,0.4159000450419768 -1.4602719549580232,0.20798835422421746 -1.6681836457757826,1.1861359549580233"/>
<text class="face_text" text-anchor="middle" dominant-baseline="middle" transform="matrix(0.011772839648116889 0 0 0.011772839648116889 0.0 0.0)">1</text>
<text class="face_text" text-anchor="middle" dominant-baseline="middle" transform="matrix(0.011772839648116889 0 0 0.011772839648116889 0.788675 0.0)">0</text>
<text class="face_text" text-anchor="middle" dominant-baseline="middle" transform="matrix(0.011772839648116889 0 0 0.011772839648116889 1.183013 -0.683013)">4</text>
<text class="face_text" text-anchor="middle" dominant-baseline="middle" transform="matrix(0.011772839648116889 0 0 0.011772839648116889 1.57735 -1.366025)">6</text>
<text class="face_text" text-anchor="middle" dominant-baseline="middle" transform="matrix(0.011772839648116889 0 0 0.011772839648116889 1.183013 -2.049038)">8</text>
<text class="face_text" text-anchor="middle" dominant-baseline="middle" transform="matrix(0.011772839648116889 0 0 0.011772839648116889 0.154009 -1.454943)">20</text>
<text class="face_text" text-anchor="middle" dominant-baseline="middle" transform="matrix(0.011772839648116889 0 0 0.011772839648116889 -1.027673 -1.579142)">16</text>
<text class="face_text" text-anchor="middle" dominant-baseline="middle" transform="matrix(0.011772839648116889 0 0 0.011772839648116889 -1.110112 -0.794788)">18</text>
<text class="face_text" text-anchor="middle" dominant-baseline="middle" transform="matrix(0.011772839648116889 0 0 0.011772839648116889 -1.830602 -0.474005)">19</text>
<text class="face_text" text-anchor="middle" dominant-baseline="middle" transform="matrix(0.011772839648116889 0 0 0.011772839648116889 -2.551093 -0.153222)">23</text>
<text class="face_text" text-anchor="middle" dominant-baseline="middle" transform="matrix(0.011772839648116889 0 0 0.011772839648116889 -2.653203 0.818293)">21</text>
<text class="face_text" text-anchor="middle" dominant-baseline="middle" transform="matrix(0.011772839648116889 0 0 0.011772839648116889 -2.16477 1.664284)">22</text>
<text class="face_text" text-anchor="middle" dominant-baseline="middle" transform="matrix(0.011772839648116889 0 0 0.011772839648116889 -2.653203 2.510275)">30</text>
<text class="face_text" text-anchor="middle" dominant-baseline="middle" transform="matrix(0.011772839648116889 0 0 0.011772839648116889 -1.490977 2.757314)">5</text>
<text class="face_text" text-anchor="middle" dominant-baseline="middle" transform="matrix(0.011772839648116889 0 0 0.011772839648116889 -1.283065 1.779166)">3</text>
<text class="face_text" text-anchor="middle" dominant-baseline="middle" transform="matrix(0.011772839648116889 0 0 0.011772839648116889 -1.075154 0.801018)">2</text>
<rect class="edge_bg" x="0.38227146892401814" y="-0.11772839648116892" width="0.23545679296233776" height="0.23545679296233776"/>
<text class="edge_text" text-anchor="middle" dominant-baseline="middle" transform="matrix(0.011772839648116889 0 0 0.011772839648116889 0.49999986540518704 -3.535250795749691e-17)">2</text>
<rect class="edge_bg" x="0.8152846035188313" y="-0.3677286945889494" width="0.23545679296233776" height="0.23545679296233776"/>
<text class="edge_text" text-anchor="middle" dominant-baseline="middle" transform="matrix(0.011772839648116889 0 0 0.011772839648116889 0.9330130000000001 -0.2500002981077805)">5</text>
<rect class="edge_bg" x="1.3152840362214246" y="-1.2337533964811689" width="0.23545679296233776" height="0.23545679296233776"/>
<text class="edge_text" text-anchor="middle" dominant-baseline="middle" transform="matrix(0.011772839648116889 0 0 0.011772839648116889 1.4330124327025935 -1.116025)">8</text>
<rect class="edge_bg" x="1.3152846035188315" y="-1.7337536945889493" width="0.23545679296233776" height="0.23545679296233776"/>
<text class="edge_text" text-anchor="middle" dominant-baseline="middle" transform="matrix(0.011772839648116889 0 0 0.011772839648116889 1.4330130000000003 -1.6160252981077805)">11</text>
<rect class="edge_bg" x="0.6322714577376558" y="-1.9167668765989623" width="0.23545679296233776" height="0.23545679296233776"/>
<text class="edge_text" text-anchor="middle" dominant-baseline="middle" transform="matrix(0.011772839648116889 0 0 0.011772839648116889 0.7499998542188246 -1.7990384801177934)">32</text>
<rect class="edge_bg" x="-0.6481404487970321" y="-1.6446061648473422" width="0.23545679296233776" height="0.23545679296233776"/>
<text class="edge_text" text-anchor="middle" dominant-baseline="middle" transform="matrix(0.011772839648116889 0 0 0.011772839648116889 -0.5304120523158633 -1.5268777683661734)">34</text>
<rect class="edge_bg" x="-1.19766562827839" y="-1.1996101384840938" width="0.23545679296233776" height="0.23545679296233776"/>
<text class="edge_text" text-anchor="middle" dominant-baseline="middle" transform="matrix(0.011772839648116889 0 0 0.011772839648116889 -1.0799372317972211 -1.081881742002925)">26</text>
<rect class="edge_bg" x="-1.4915576676598683" y="-0.7951017180190689" width="0.23545679296233776" height="0.23545679296233776"/>
<text class="edge_text" text-anchor="middle" dominant-baseline="middle" transform="matrix(0.011772839648116889 0 0 0.011772839648116889 -1.3738292711786995 -0.6773733215379001)">25</text>
<rect class="edge_bg" x="-2.405103538537711" y="-0.3883651516657179" width="0.23545679296233776" height="0.23545679296233776"/>
<text class="edge_text" text-anchor="middle" dominant-baseline="middle" transform="matrix(0.011772839648116889 0 0 0.011772839648116889 -2.287375142056542 -0.270636755184549)">38</text>
<rect class="edge_bg" x="-2.6989958529730522" y="0.01614362537002341" width="0.23545679296233776" height="0.23545679296233776"/>
<text class="edge_text" text-anchor="middle" dominant-baseline="middle" transform="matrix(0.011772839648116889 0 0 0.011772839648116889 -2.5812674564918834 0.1338720218511923)">39</text>
<rect class="edge_bg" x="-2.4268359637785752" y="1.296555603518831" width="0.23545679296233776" height="0.23545679296233776"/>
<text class="edge_text" text-anchor="middle" dominant-baseline="middle" transform="matrix(0.011772839648116889 0 0 0.011772839648116889 -2.3091075672974064 1.4142839999999999)">37</text>
<rect class="edge_bg" x="-2.4268359163633755" y="1.7965557493000066" width="0.23545679296233776" height="0.23545679296233776"/>
<text class="edge_text" text-anchor="middle" dominant-baseline="middle" transform="matrix(0.011772839648116889 0 0 0.011772839648116889 -2.3091075198822066 1.9142841457811755)">54</text>
<rect class="edge_bg" x="-2.0977791968480717" y="2.5356297581099514" width="0.23545679296233776" height="0.23545679296233776"/>
<text class="edge_text" text-anchor="middle" dominant-baseline="middle" transform="matrix(0.011772839648116889 0 0 0.011772839648116889 -1.9800508003669028 2.6533581545911202)">52</text>
<rect class="edge_bg" x="-1.5047492418900483" y="2.150511403885734" width="0.23545679296233776" height="0.23545679296233776"/>
<text class="edge_text" text-anchor="middle" dominant-baseline="middle" transform="matrix(0.011772839648116889 0 0 0.011772839648116889 -1.3870208454088795 2.268239800366903)">6</text>
<rect class="edge_bg" x="-1.2968382418900484" y="1.172363403885734" width="0.23545679296233776" height="0.23545679296233776"/>
<text class="edge_text" text-anchor="middle" dominant-baseline="middle" transform="matrix(0.011772839648116889 0 0 0.011772839648116889 -1.1791098454088795 1.2900918003669029)">3</text>
</svg>
