<?xml version="1.0" encoding="utf-8"?>
<svg version="1.1" xmlns="http://www.w3.org/2000/svg" viewBox="-2.121136270271766 -1.2902457645950067 3.7935713307608987 3.306570107748523" style="enable-background:new -2.121136270271766 -1.2902457645950067 3.7935713307608987 3.306570107748523;">
<style type="text/css">
  .face_stroke {fill:none; stroke:#000000; stroke-width:0.02; stroke-miterlimit:10;}
  .face_text {fill:#000000; font-family:monospace;}
  .edge_text {fill:#ff0000; font-family:monospace;}
  .edge_bg {fill:#f3f3f3; stroke:#606060; stroke-width:0.01;}
</style>
<polygon class="face_stroke" points="0.5000000000000001,-0.5 -0.5,-0.5000000000000001 -0.5000000000000001,0.5 0.4999999999999999,0.5000000000000001"/>
<polygon class="face_stroke" points="0.4999999999999999,0.5 1.5,0.5000000000000001 1.5000000000000007,-0.49999999999999944 0.49999999999999967,-0.4999999999999998"/>
<polygon class="face_stroke" points="0.4999999999999999,0.49999986540518715 0.9999999999999999,1.3660252691896257 1.5000000000000004,0.49999986540518754"/>
<polygon class="face_stroke" points="0.4999997018922193,0.5000002981077807 -0.3660257018922193,1.0000002981077807 0.13397429810778078,1.8660257018922195 0.9999997018922194,1.3660257018922193"/>
<polygon class="face_stroke" points="-0.36602499999999993,0.9999997308103742 -0.866025,1.8660251345948131 0.1339749999999999,1.8660251345948131"/>
<polygon class="face_stroke" points="-0.3660251457811755,0.999999778225574 -1.0351557521400334,0.2568549527481798 -1.9487012097826346,0.66359159582398 -1.8441727465149809,1.6581134911922533 -0.8660251457811752,1.8660251820100124"/>
<polygon class="face_stroke" points="-1.0351555159941506,0.25685553640555764 -1.8441725103690978,-0.33092971588691567 -1.9487009736367515,0.6635921794813578"/>
<polygon class="face_stroke" points="-1.0351561289587627,0.2568551233337104 -0.4473708766662896,-0.5521618710412372 -1.2563878710412373,-1.1399471233337102 -1.8441731233337104,-0.33093012895876295"/>
<text class="face_text" text-anchor="middle" dominant-baseline="middle" transform="matrix(0.0066131402154970455 0 0 0.0066131402154970455 0.0 0.0)">2</text>
<text class="face_text" text-anchor="middle" dominant-baseline="middle" transform="matrix(0.0066131402154970455 0 0 0.0066131402154970455 1.0 0.0)">1</text>
<text class="face_text" text-anchor="middle" dominant-baseline="middle" transform="matrix(0.0066131402154970455 0 0 0.0066131402154970455 1.0 0.788675)">0</text>
<text class="face_text" text-anchor="middle" dominant-baseline="middle" transform="matrix(0.0066131402154970455 0 0 0.0066131402154970455 0.316987 1.183013)">3</text>
<text class="face_text" text-anchor="middle" dominant-baseline="middle" transform="matrix(0.0066131402154970455 0 0 0.0066131402154970455 -0.366025 1.57735)">22</text>
<text class="face_text" text-anchor="middle" dominant-baseline="middle" transform="matrix(0.0066131402154970455 0 0 0.0066131402154970455 -1.212016 1.088917)">21</text>
<text class="face_text" text-anchor="middle" dominant-baseline="middle" transform="matrix(0.0066131402154970455 0 0 0.0066131402154970455 -1.609343 0.196506)">23</text>
<text class="face_text" text-anchor="middle" dominant-baseline="middle" transform="matrix(0.0066131402154970455 0 0 0.0066131402154970455 -1.145772 -0.441546)">19</text>
<rect class="edge_bg" x="0.4338685978450294" y="-0.06613140215497051" width="0.13226280430994092" height="0.13226280430994092"/>
<text class="edge_text" text-anchor="middle" dominant-baseline="middle" transform="matrix(0.0066131402154970455 0 0 0.0066131402154970455 0.4999999999999999 -6.123233995736767e-17)">1</text>
<rect class="edge_bg" x="0.9338685978450295" y="0.43386846325021655" width="0.13226280430994092" height="0.13226280430994092"/>
<text class="edge_text" text-anchor="middle" dominant-baseline="middle" transform="matrix(0.0066131402154970455 0 0 0.0066131402154970455 1.0 0.49999986540518704)">2</text>
<rect class="edge_bg" x="0.683868299737249" y="0.8668815978450296" width="0.13226280430994092" height="0.13226280430994092"/>
<text class="edge_text" text-anchor="middle" dominant-baseline="middle" transform="matrix(0.0066131402154970455 0 0 0.0066131402154970455 0.7499997018922195 0.9330130000000001)">0</text>
<rect class="edge_bg" x="-0.18215640215497034" y="1.366881030547623" width="0.13226280430994092" height="0.13226280430994092"/>
<text class="edge_text" text-anchor="middle" dominant-baseline="middle" transform="matrix(0.0066131402154970455 0 0 0.0066131402154970455 -0.11602499999999988 1.4330124327025935)">36</text>
<rect class="edge_bg" x="-0.6821565479361458" y="1.3668810779628229" width="0.13226280430994092" height="0.13226280430994092"/>
<text class="edge_text" text-anchor="middle" dominant-baseline="middle" transform="matrix(0.0066131402154970455 0 0 0.0066131402154970455 -0.6160251457811753 1.4330124801177933)">37</text>
<rect class="edge_bg" x="-1.5580596469704213" y="0.3940924557884873" width="0.13226280430994092" height="0.13226280430994092"/>
<text class="edge_text" text-anchor="middle" dominant-baseline="middle" transform="matrix(0.0066131402154970455 0 0 0.0066131402154970455 -1.491928244815451 0.46022385794345777)">39</text>
<rect class="edge_bg" x="-1.505796028301207" y="-0.10316890496749662" width="0.13226280430994092" height="0.13226280430994092"/>
<text class="edge_text" text-anchor="middle" dominant-baseline="middle" transform="matrix(0.0066131402154970455 0 0 0.0066131402154970455 -1.4396646261462367 -0.03703750281252616)">38</text>
</svg>
