<?xml version="1.0" encoding="utf-8"?>
<svg version="1.1" xmlns="http://www.w3.org/2000/svg" viewBox="-3.6731912969297658 -2.786297237971772 5.419533739640707 4.8738621274765626" style="enable-background:new -3.6731912969297658 -2.786297237971772 5.419533739640707 4.8738621274765626;">
<style type="text/css">
  .face_stroke {fill:none; stroke:#000000; stroke-width:0.02; stroke-miterlimit:10;}
  .face_text {fill:#000000; font-family:monospace;}
  .edge_text {fill:#ff0000; font-family:monospace;}
  .edge_bg {fill:#f3f3f3; stroke:#606060; stroke-width:0.01;}
</style>
<polygon class="face_stroke" points="0.5000000000000001,-0.5 -0.5,-0.5000000000000001 -0.5000000000000001,0.5 0.4999999999999999,0.5000000000000001"/>
<polygon class="face_stroke" points="0.4999999999999999,0.5 1.5,0.5000000000000001 1.5000000000000007,-0.49999999999999944 0.49999999999999967,-0.4999999999999998"/>
<polygon class="face_stroke" points="0.4999999999999999,0.49999986540518715 0.9999999999999999,1.3660252691896257 1.5000000000000004,0.49999986540518754"/>
<polygon class="face_stroke" points="0.4999997018922193,0.5000002981077807 -0.3660257018922193,1.0000002981077807 0.13397429810778078,1.8660257018922195 0.9999997018922194,1.3660257018922193"/>
<polygon class="face_stroke" points="-0.36602499999999993,0.9999997308103742 -0.866025,1.8660251345948131 0.1339749999999999,1.8660251345948131"/>
<polygon class="face_stroke" points="-0.3660251457811755,0.999999778225574 -1.0351557521400334,0.2568549527481798 -1.9487012097826346,0.66359159582398 -1.8441727465149809,1.6581134911922533 -0.8660251457811752,1.8660251820100124"/>
<polygon class="face_stroke" points="-1.0351555159941506,0.25685553640555764 -1.8441725103690978,-0.33092971588691567 -1.9487009736367515,0.6635921794813578"/>
<polygon class="face_stroke" points="-1.8441727902173657,-0.3309304041760199 -2.7577182478599664,-0.7376670472518202 -3.4268488542188247,0.005477778225573854 -2.9268488542188247,0.8715031820100128 -1.948701253485019,0.6635914911922532"/>
<polygon class="face_stroke" points="-1.8441725927165993,-0.33092994964079947 -1.4374359496407991,-1.2444754072834003 -2.3509814072834003,-1.6512120503592005 -2.7577180503592005,-0.7376665927165995"/>
<polygon class="face_stroke" points="-1.4374365927165997,-1.2444759496407993 -1.0306999496407996,-2.1580214072834005 -1.9442454072834003,-2.5647580503592007 -2.3509820503592005,-1.6512125927165995"/>
<polygon class="face_stroke" points="-1.437436179481358,-1.2444760263632486 -0.44291428411308453,-1.349004489630902 -1.0306995364055573,-2.1580214840058494"/>
<polygon class="face_stroke" points="-1.4374361793179633,-1.2444757160503102 -1.3329077160503098,-0.24995382068203642 -0.3383858206820368,-0.35448228394968984 -0.44291428394969024,-1.3490041793179637"/>
<text class="face_text" text-anchor="middle" dominant-baseline="middle" transform="matrix(0.009747724254953126 0 0 0.009747724254953126 0.0 0.0)">2</text>
<text class="face_text" text-anchor="middle" dominant-baseline="middle" transform="matrix(0.009747724254953126 0 0 0.009747724254953126 1.0 0.0)">1</text>
<text class="face_text" text-anchor="middle" dominant-baseline="middle" transform="matrix(0.009747724254953126 0 0 0.009747724254953126 1.0 0.788675)">0</text>
<text class="face_text" text-anchor="middle" dominant-baseline="middle" transform="matrix(0.009747724254953126 0 0 0.009747724254953126 0.316987 1.183013)">3</text>
<text class="face_text" text-anchor="middle" dominant-baseline="middle" transform="matrix(0.009747724254953126 0 0 0.009747724254953126 -0.366025 1.57735)">22</text>
<text class="face_text" text-anchor="middle" dominant-baseline="middle" transform="matrix(0.009747724254953126 0 0 0.009747724254953126 -1.212016 1.088917)">21</text>
<text class="face_text" text-anchor="middle" dominant-baseline="middle" transform="matrix(0.009747724254953126 0 0 0.009747724254953126 -1.609343 0.196506)">23</text>
<text class="face_text" text-anchor="middle" dominant-baseline="middle" transform="matrix(0.009747724254953126 0 0 0.009747724254953126 -2.580858 0.094395)">24</text>
<text class="face_text" text-anchor="middle" dominant-baseline="middle" transform="matrix(0.009747724254953126 0 0 0.009747724254953126 -2.097577 -0.991071)">17</text>
<text class="face_text" text-anchor="middle" dominant-baseline="middle" transform="matrix(0.009747724254953126 0 0 0.009747724254953126 -1.690841 -1.904617)">16</text>
<text class="face_text" text-anchor="middle" dominant-baseline="middle" transform="matrix(0.009747724254953126 0 0 0.009747724254953126 -0.97035 -1.583834)">18</text>
<text class="face_text" text-anchor="middle" dominant-baseline="middle" transform="matrix(0.009747724254953126 0 0 0.009747724254953126 -0.887911 -0.799479)">19</text>
<rect class="edge_bg" x="0.4025227574504686" y="-0.09747724254953131" width="0.19495448509906252" height="0.19495448509906252"/>
<text class="edge_text" text-anchor="middle" dominant-baseline="middle" transform="matrix(0.009747724254953126 0 0 0.009747724254953126 0.4999999999999999 -6.123233995736767e-17)">1</text>
<rect class="edge_bg" x="0.9025227574504687" y="0.40252262285565577" width="0.19495448509906252" height="0.19495448509906252"/>
<text class="edge_text" text-anchor="middle" dominant-baseline="middle" transform="matrix(0.009747724254953126 0 0 0.009747724254953126 1.0 0.49999986540518704)">2</text>
<rect class="edge_bg" x="0.6525224593426883" y="0.8355357574504688" width="0.19495448509906252" height="0.19495448509906252"/>
<text class="edge_text" text-anchor="middle" dominant-baseline="middle" transform="matrix(0.009747724254953126 0 0 0.009747724254953126 0.7499997018922195 0.9330130000000001)">0</text>
<rect class="edge_bg" x="-0.21350224254953115" y="1.3355351901530623" width="0.19495448509906252" height="0.19495448509906252"/>
<text class="edge_text" text-anchor="middle" dominant-baseline="middle" transform="matrix(0.009747724254953126 0 0 0.009747724254953126 -0.11602499999999988 1.4330124327025935)">36</text>
<rect class="edge_bg" x="-0.7135023883307066" y="1.335535237568262" width="0.19495448509906252" height="0.19495448509906252"/>
<text class="edge_text" text-anchor="middle" dominant-baseline="middle" transform="matrix(0.009747724254953126 0 0 0.009747724254953126 -0.6160251457811753 1.4330124801177933)">37</text>
<rect class="edge_bg" x="-1.589405487364982" y="0.3627466153939265" width="0.19495448509906252" height="0.19495448509906252"/>
<text class="edge_text" text-anchor="middle" dominant-baseline="middle" transform="matrix(0.009747724254953126 0 0 0.009747724254953126 -1.491928244815451 0.46022385794345777)">39</text>
<rect class="edge_bg" x="-1.9939142644007235" y="0.06885330095858545" width="0.19495448509906252" height="0.19495448509906252"/>
<text class="edge_text" text-anchor="middle" dominant-baseline="middle" transform="matrix(0.009747724254953126 0 0 0.009747724254953126 -1.8964370218511923 0.1663305435081167)">41</text>
<rect class="edge_bg" x="-2.398422564087431" y="-0.6317755137282307" width="0.19495448509906252" height="0.19495448509906252"/>
<text class="edge_text" text-anchor="middle" dominant-baseline="middle" transform="matrix(0.009747724254953126 0 0 0.009747724254953126 -2.3009453215379 -0.5342982711786994)">40</text>
<rect class="edge_bg" x="-1.9916865640874313" y="-1.5453215137282306" width="0.19495448509906252" height="0.19495448509906252"/>
<text class="edge_text" text-anchor="middle" dominant-baseline="middle" transform="matrix(0.009747724254953126 0 0 0.009747724254953126 -1.8942093215379001 -1.4478442711786994)">22</text>
<rect class="edge_bg" x="-1.331545100492989" y="-1.7987259977340802" width="0.19495448509906252" height="0.19495448509906252"/>
<text class="edge_text" text-anchor="middle" dominant-baseline="middle" transform="matrix(0.009747724254953126 0 0 0.009747724254953126 -1.2340678579434579 -1.701248755184549)">26</text>
<rect class="edge_bg" x="-1.037652474183358" y="-1.394217190233668" width="0.19495448509906252" height="0.19495448509906252"/>
<text class="edge_text" text-anchor="middle" dominant-baseline="middle" transform="matrix(0.009747724254953126 0 0 0.009747724254953126 -0.9401752316338267 -1.2967399476841368)">25</text>
</svg>
