<?xml version="1.0" encoding="utf-8"?>
<svg version="1.1" xmlns="http://www.w3.org/2000/svg" viewBox="-1.9248259606506548 -3.1344532262051246 5.273710103516879 5.238596972292456" style="enable-background:new -1.9248259606506548 -3.1344532262051246 5.273710103516879 5.238596972292456;">
<style type="text/css">
  .face_stroke {fill:none; stroke:#000000; stroke-width:0.02; stroke-miterlimit:10;}
  .face_text {fill:#000000; font-family:monospace;}
  .edge_text {fill:#ff0000; font-family:monospace;}
  .edge_bg {fill:#f3f3f3; stroke:#606060; stroke-width:0.01;}
</style>
<polygon class="face_stroke" points="0.5000000000000001,-0.5 -0.5,-0.5000000000000001 -0.5000000000000001,0.5 0.4999999999999999,0.5000000000000001"/>
<polygon class="face_stroke" points="0.4999999999999999,0.5 1.5,0.5000000000000001 1.5000000000000007,-0.49999999999999944 0.49999999999999967,-0.4999999999999998"/>
<polygon class="face_stroke" points="0.4999999999999999,0.49999986540518715 0.9999999999999999,1.3660252691896257 1.5000000000000004,0.49999986540518754"/>
<polygon class="face_stroke" points="1.0000002981077807,1.366025701892219 1.8660257018922197,1.8660257018922195 2.3660257018922195,1.0000002981077811 1.5000002981077811,0.5000002981077806"/>
<polygon class="face_stroke" points="2.366025221774426,0.9999998542188244 3.1091700472518204,0.33086924785996635 2.7024334041760203,-0.5826762097826343 1.7079115088077468,-0.478147746514981 1.4999998179899872,0.49999985421882426"/>
<polygon class="face_stroke" points="2.7024331793179632,-0.5826762839496902 2.59790471605031,-1.5771981793179635 1.6033828206820369,-1.4726697160503102 1.7079112839496904,-0.47814782068203643"/>
<polygon class="face_stroke" points="1.603383510369098,-1.4726697158869155 0.7943665159941505,-0.8848844635944426 1.7079119736367514,-0.478147820518642"/>
<polygon class="face_stroke" points="1.6033831233337104,-1.472669128958763 1.0155978710412372,-2.2816861233337105 0.20658087666628966,-1.6939008710412373 0.7943661289587627,-0.8848838766662898"/>
<polygon class="face_stroke" points="1.0155974840058495,-2.281686536405558 0.10205202636324856,-2.688423179481358 0.20658048963090206,-1.6939012841130845"/>
<polygon class="face_stroke" points="0.10205274651498097,-2.6884234911922533 -0.8760948542188245,-2.896335182010013 -1.3760948542188247,-2.0303097782255746 -0.7069642478599668,-1.2871649527481799 0.20658120978263417,-1.6939015958239796"/>
<polygon class="face_stroke" points="-1.3760948706613034,-2.030309780590849 -1.685111865036251,-1.0792532642956956 -0.7069642643024453,-1.2871649551134547"/>
<polygon class="face_stroke" points="-1.6851116457757827,-1.079252954958023 -1.477199954958023,-0.10110535422421729 -0.49905235422421745,-0.30901704504197686 -0.7069640450419767,-1.2871646457757824"/>
<text class="face_text" text-anchor="middle" dominant-baseline="middle" transform="matrix(0.010477193944584911 0 0 0.010477193944584911 0.0 0.0)">2</text>
<text class="face_text" text-anchor="middle" dominant-baseline="middle" transform="matrix(0.010477193944584911 0 0 0.010477193944584911 1.0 0.0)">1</text>
<text class="face_text" text-anchor="middle" dominant-baseline="middle" transform="matrix(0.010477193944584911 0 0 0.010477193944584911 1.0 0.788675)">0</text>
<text class="face_text" text-anchor="middle" dominant-baseline="middle" transform="matrix(0.010477193944584911 0 0 0.010477193944584911 1.683013 1.183013)">4</text>
<text class="face_text" text-anchor="middle" dominant-baseline="middle" transform="matrix(0.010477193944584911 0 0 0.010477193944584911 2.277108 0.154009)">20</text>
<text class="face_text" text-anchor="middle" dominant-baseline="middle" transform="matrix(0.010477193944584911 0 0 0.010477193944584911 2.152908 -1.027673)">16</text>
<text class="face_text" text-anchor="middle" dominant-baseline="middle" transform="matrix(0.010477193944584911 0 0 0.010477193944584911 1.368554 -0.945234)">18</text>
<text class="face_text" text-anchor="middle" dominant-baseline="middle" transform="matrix(0.010477193944584911 0 0 0.010477193944584911 0.904982 -1.583285)">19</text>
<text class="face_text" text-anchor="middle" dominant-baseline="middle" transform="matrix(0.010477193944584911 0 0 0.010477193944584911 0.44141 -2.221337)">23</text>
<text class="face_text" text-anchor="middle" dominant-baseline="middle" transform="matrix(0.010477193944584911 0 0 0.010477193944584911 -0.530104 -2.119227)">21</text>
<text class="face_text" text-anchor="middle" dominant-baseline="middle" transform="matrix(0.010477193944584911 0 0 0.010477193944584911 -1.256057 -1.465576)">22</text>
<text class="face_text" text-anchor="middle" dominant-baseline="middle" transform="matrix(0.010477193944584911 0 0 0.010477193944584911 -1.092082 -0.694135)">3</text>
<rect class="edge_bg" x="0.3952280605541508" y="-0.10477193944584917" width="0.20954387889169823" height="0.20954387889169823"/>
<text class="edge_text" text-anchor="middle" dominant-baseline="middle" transform="matrix(0.010477193944584911 0 0 0.010477193944584911 0.4999999999999999 -6.123233995736767e-17)">1</text>
<rect class="edge_bg" x="0.8952280605541509" y="0.3952279259593379" width="0.20954387889169823" height="0.20954387889169823"/>
<text class="edge_text" text-anchor="middle" dominant-baseline="middle" transform="matrix(0.010477193944584911 0 0 0.010477193944584911 1.0 0.49999986540518704)">2</text>
<rect class="edge_bg" x="1.1452283586619316" y="0.828241060554151" width="0.20954387889169823" height="0.20954387889169823"/>
<text class="edge_text" text-anchor="middle" dominant-baseline="middle" transform="matrix(0.010477193944584911 0 0 0.010477193944584911 1.2500002981077807 0.9330130000000001)">5</text>
<rect class="edge_bg" x="1.8282405804363577" y="0.6452279147729756" width="0.20954387889169823" height="0.20954387889169823"/>
<text class="edge_text" text-anchor="middle" dominant-baseline="middle" transform="matrix(0.010477193944584911 0 0 0.010477193944584911 1.9330125198822068 0.7499998542188246)">30</text>
<rect class="edge_bg" x="2.100400292187978" y="-0.6351839917617124" width="0.20954387889169823" height="0.20954387889169823"/>
<text class="edge_text" text-anchor="middle" dominant-baseline="middle" transform="matrix(0.010477193944584911 0 0 0.010477193944584911 2.205172231633827 -0.5304120523158633)">34</text>
<rect class="edge_bg" x="1.550875802557076" y="-1.080180707648628" width="0.20954387889169823" height="0.20954387889169823"/>
<text class="edge_text" text-anchor="middle" dominant-baseline="middle" transform="matrix(0.010477193944584911 0 0 0.010477193944584911 1.655647742002925 -0.9754087682027789)">26</text>
<rect class="edge_bg" x="1.0941026867003876" y="-1.2835484422583754" width="0.20954387889169823" height="0.20954387889169823"/>
<text class="edge_text" text-anchor="middle" dominant-baseline="middle" transform="matrix(0.010477193944584911 0 0 0.010477193944584911 1.1988746261462366 -1.1787765028125263)">25</text>
<rect class="edge_bg" x="0.5063170473725267" y="-2.0925658497051702" width="0.20954387889169823" height="0.20954387889169823"/>
<text class="edge_text" text-anchor="middle" dominant-baseline="middle" transform="matrix(0.010477193944584911 0 0 0.010477193944584911 0.6110889868183758 -1.9877939102593212)">38</text>
<rect class="edge_bg" x="0.04954503870295862" y="-2.2959344829539656" width="0.20954387889169823" height="0.20954387889169823"/>
<text class="edge_text" text-anchor="middle" dominant-baseline="middle" transform="matrix(0.010477193944584911 0 0 0.010477193944584911 0.15431697814880774 -2.1911625435081166)">39</text>
<rect class="edge_bg" x="-1.1463015069277234" y="-1.7635093072980013" width="0.20954387889169823" height="0.20954387889169823"/>
<text class="edge_text" text-anchor="middle" dominant-baseline="middle" transform="matrix(0.010477193944584911 0 0 0.010477193944584911 -1.0415295674818743 -1.6587373678521522)">37</text>
<rect class="edge_bg" x="-1.3008097848547286" y="-1.287980739812752" width="0.20954387889169823" height="0.20954387889169823"/>
<text class="edge_text" text-anchor="middle" dominant-baseline="middle" transform="matrix(0.010477193944584911 0 0 0.010477193944584911 -1.1960378454088796 -1.183208800366903)">36</text>
</svg>
