<?xml version="1.0" encoding="utf-8"?>
<svg version="1.1" xmlns="http://www.w3.org/2000/svg" viewBox="-3.7450450873473677 -1.9871759260763513 7.106929128827951 4.520764166612507" style="enable-background:new -3.7450450873473677 -1.9871759260763513 7.106929128827951 4.520764166612507;">
<style type="text/css">
  .face_stroke {fill:none; stroke:#000000; stroke-width:0.02; stroke-miterlimit:10;}
  .face_text {fill:#000000; font-family:monospace;}
  .edge_text {fill:#ff0000; font-family:monospace;}
  .edge_bg {fill:#f3f3f3; stroke:#606060; stroke-width:0.01;}
</style>
<polygon class="face_stroke" points="0.5000000000000001,-0.5 -0.5,-0.5000000000000001 -0.5000000000000001,0.5 0.4999999999999999,0.5000000000000001"/>
<polygon class="face_stroke" points="0.4999999999999999,0.5 1.5,0.5000000000000001 1.5000000000000007,-0.49999999999999944 0.49999999999999967,-0.4999999999999998"/>
<polygon class="face_stroke" points="1.5000000397644135,0.4999999999999999 2.4510565560595667,0.8090169943749475 3.03884180835204,2.0834935792808685e-16 2.451056556059567,-0.8090169943749473 1.5000000397644135,-0.5000000000000001"/>
<polygon class="face_stroke" points="1.500000239039897,0.5000002446649494 1.1909832446649493,1.4510567609601026 2.142039760960103,1.7600737553350505 2.4510567553350504,0.8090172390398964"/>
<polygon class="face_stroke" points="1.4999998650362512,0.5000002642956956 0.5218522643024454,0.707911955113455 1.1909828706613033,1.4510567805908494"/>
<polygon class="face_stroke" points="0.5218521095592681,0.7079112840818736 -0.22129271591812621,1.377041890440732 0.4478378904407317,2.120186715918126 1.1909827159181263,1.4510561095592682"/>
<polygon class="face_stroke" points="-0.2212928706613035,1.3770422194091507 -0.5303098650362511,2.3280987357043044 0.4478377356975547,2.120187044886545"/>
<polygon class="face_stroke" points="-0.22129200562505258,1.3770424439404332 -1.030309,0.78925719164796 -1.8393259943749474,1.3770424439404332 -1.530309,2.328098960235587 -0.5303090000000001,2.328098960235587"/>
<polygon class="face_stroke" points="-1.0303095159941504,0.7892574635944424 -1.9438549736367516,0.38252082051864206 -1.8393265103690981,1.3770427158869156"/>
<polygon class="face_stroke" points="-1.9438552534850189,0.3825205088077467 -2.9220028542188246,0.17460881798998729 -3.4220028542188246,1.0406342217744255 -2.7528722478599668,1.7837790472518202 -1.8393267902173658,1.3770424041760203"/>
<polygon class="face_stroke" points="-1.9438550450419767,0.38252064577578243 -1.7359433542242173,-0.5956269549580232 -2.7140909549580234,-0.8035386457757825 -2.9220026457757826,0.1746089549580232"/>
<polygon class="face_stroke" points="-1.7359430450419768,-0.5956273542242176 -1.5280313542242174,-1.5737749549580233 -2.506178954958023,-1.7816866457757827 -2.7140906457757827,-0.8035390450419768"/>
<polygon class="face_stroke" points="-1.7359427357043045,-0.5956271349637492 -0.7848862194091507,-0.9046441293386962 -1.5280310448865448,-1.5737747356975547"/>
<polygon class="face_stroke" points="-1.7359427553350506,-0.5956267609601031 -1.4269257609601032,0.35542975533505045 -0.4758692446649496,0.046412760960103217 -0.7848862390398967,-0.9046437553350504"/>
<text class="face_text" text-anchor="middle" dominant-baseline="middle" transform="matrix(0.009041528333225014 0 0 0.009041528333225014 0.0 0.0)">2</text>
<text class="face_text" text-anchor="middle" dominant-baseline="middle" transform="matrix(0.009041528333225014 0 0 0.009041528333225014 1.0 0.0)">1</text>
<text class="face_text" text-anchor="middle" dominant-baseline="middle" transform="matrix(0.009041528333225014 0 0 0.009041528333225014 2.188191 0.0)">20</text>
<text class="face_text" text-anchor="middle" dominant-baseline="middle" transform="matrix(0.009041528333225014 0 0 0.009041528333225014 1.82102 1.130037)">4</text>
<text class="face_text" text-anchor="middle" dominant-baseline="middle" transform="matrix(0.009041528333225014 0 0 0.009041528333225014 1.070945 0.886323)">0</text>
<text class="face_text" text-anchor="middle" dominant-baseline="middle" transform="matrix(0.009041528333225014 0 0 0.009041528333225014 0.484845 1.414049)">3</text>
<text class="face_text" text-anchor="middle" dominant-baseline="middle" transform="matrix(0.009041528333225014 0 0 0.009041528333225014 -0.101255 1.941776)">22</text>
<text class="face_text" text-anchor="middle" dominant-baseline="middle" transform="matrix(0.009041528333225014 0 0 0.009041528333225014 -1.030309 1.639908)">21</text>
<text class="face_text" text-anchor="middle" dominant-baseline="middle" transform="matrix(0.009041528333225014 0 0 0.009041528333225014 -1.604497 0.849607)">23</text>
<text class="face_text" text-anchor="middle" dominant-baseline="middle" transform="matrix(0.009041528333225014 0 0 0.009041528333225014 -2.576012 0.951717)">24</text>
<text class="face_text" text-anchor="middle" dominant-baseline="middle" transform="matrix(0.009041528333225014 0 0 0.009041528333225014 -2.328973 -0.210509)">17</text>
<text class="face_text" text-anchor="middle" dominant-baseline="middle" transform="matrix(0.009041528333225014 0 0 0.009041528333225014 -2.121061 -1.188657)">16</text>
<text class="face_text" text-anchor="middle" dominant-baseline="middle" transform="matrix(0.009041528333225014 0 0 0.009041528333225014 -1.34962 -1.024682)">18</text>
<text class="face_text" text-anchor="middle" dominant-baseline="middle" transform="matrix(0.009041528333225014 0 0 0.009041528333225014 -1.105906 -0.274607)">19</text>
<rect class="edge_bg" x="0.40958471666774976" y="-0.09041528333225018" width="0.18083056666450026" height="0.18083056666450026"/>
<text class="edge_text" text-anchor="middle" dominant-baseline="middle" transform="matrix(0.009041528333225014 0 0 0.009041528333225014 0.4999999999999999 -6.123233995736767e-17)">1</text>
<rect class="edge_bg" x="1.4095847564321633" y="-0.09041528333225021" width="0.18083056666450026" height="0.18083056666450026"/>
<text class="edge_text" text-anchor="middle" dominant-baseline="middle" transform="matrix(0.009041528333225014 0 0 0.009041528333225014 1.5000000397644135 -8.427908566546547e-17)">31</text>
<rect class="edge_bg" x="1.8851132138552238" y="0.564093458520173" width="0.18083056666450026" height="0.18083056666450026"/>
<text class="edge_text" text-anchor="middle" dominant-baseline="middle" transform="matrix(0.009041528333225014 0 0 0.009041528333225014 1.9755284971874738 0.6545087418524231)">30</text>
<rect class="edge_bg" x="1.2550760845165274" y="0.8851132391110224" width="0.18083056666450026" height="0.18083056666450026"/>
<text class="edge_text" text-anchor="middle" dominant-baseline="middle" transform="matrix(0.009041528333225014 0 0 0.009041528333225014 1.3454913678487774 0.9755285224432725)">5</text>
<rect class="edge_bg" x="0.7660021294064471" y="0.9890684134883206" width="0.18083056666450026" height="0.18083056666450026"/>
<text class="edge_text" text-anchor="middle" dominant-baseline="middle" transform="matrix(0.009041528333225014 0 0 0.009041528333225014 0.8564174127386972 1.0794836968205708)">0</text>
<rect class="edge_bg" x="0.02285714918587546" y="1.6581993488155975" width="0.18083056666450026" height="0.18083056666450026"/>
<text class="edge_text" text-anchor="middle" dominant-baseline="middle" transform="matrix(0.009041528333225014 0 0 0.009041528333225014 0.11327243251812559 1.7486146321478477)">36</text>
<rect class="edge_bg" x="-0.4662157861447763" y="1.7621554187557598" width="0.18083056666450026" height="0.18083056666450026"/>
<text class="edge_text" text-anchor="middle" dominant-baseline="middle" transform="matrix(0.009041528333225014 0 0 0.009041528333225014 -0.3758005028125262 1.85257070208801)">37</text>
<rect class="edge_bg" x="-1.5252332965138744" y="0.9927348064084288" width="0.18083056666450026" height="0.18083056666450026"/>
<text class="edge_text" text-anchor="middle" dominant-baseline="middle" transform="matrix(0.009041528333225014 0 0 0.009041528333225014 -1.4348180131816242 1.083150089740679)">39</text>
<rect class="edge_bg" x="-1.9820063051834422" y="0.7893661731596332" width="0.18083056666450026" height="0.18083056666450026"/>
<text class="edge_text" text-anchor="middle" dominant-baseline="middle" transform="matrix(0.009041528333225014 0 0 0.009041528333225014 -1.8915910218511922 0.8797814564918833)">41</text>
<rect class="edge_bg" x="-2.5233441287411296" y="0.18814951703465282" width="0.18083056666450026" height="0.18083056666450026"/>
<text class="edge_text" text-anchor="middle" dominant-baseline="middle" transform="matrix(0.009041528333225014 0 0 0.009041528333225014 -2.4329288454088793 0.27856480036690295)">40</text>
<rect class="edge_bg" x="-2.31543212874113" y="-0.7899984829653472" width="0.18083056666450026" height="0.18083056666450026"/>
<text class="edge_text" text-anchor="middle" dominant-baseline="middle" transform="matrix(0.009041528333225014 0 0 0.009041528333225014 -2.22501684540888 -0.6995831996330971)">22</text>
<rect class="edge_bg" x="-1.7224021736276751" y="-1.175116218662902" width="0.18083056666450026" height="0.18083056666450026"/>
<text class="edge_text" text-anchor="middle" dominant-baseline="middle" transform="matrix(0.009041528333225014 0 0 0.009041528333225014 -1.6319868902954249 -1.0847009353306518)">26</text>
<rect class="edge_bg" x="-1.350829780519724" y="-0.840550541479827" width="0.18083056666450026" height="0.18083056666450026"/>
<text class="edge_text" text-anchor="middle" dominant-baseline="middle" transform="matrix(0.009041528333225014 0 0 0.009041528333225014 -1.2604144971874738 -0.7501352581475769)">25</text>
</svg>
