<?xml version="1.0" encoding="utf-8"?>
<svg version="1.1" xmlns="http://www.w3.org/2000/svg" viewBox="-1.2909921119776613 -1.0097261466116547 3.779887355606135 4.415601349207563" style="enable-background:new -1.2909921119776613 -1.0097261466116547 3.779887355606135 4.415601349207563;">
<style type="text/css">
  .face_stroke {fill:none; stroke:#000000; stroke-width:0.02; stroke-miterlimit:10;}
  .face_text {fill:#000000; font-family:monospace;}
  .edge_text {fill:#ff0000; font-family:monospace;}
  .edge_bg {fill:#f3f3f3; stroke:#606060; stroke-width:0.01;}
</style>
<polygon class="face_stroke" points="0.5000000000000001,-0.5 -0.5,-0.5000000000000001 -0.5000000000000001,0.5 0.4999999999999999,0.5000000000000001"/>
<polygon class="face_stroke" points="0.5000000397644132,0.4999999999999999 1.4510565560595667,0.8090169943749475 2.03884180835204,2.0834935792808685e-16 1.451056556059567,-0.8090169943749473 0.5000000397644134,-0.5000000000000001"/>
<polygon class="face_stroke" points="0.5000002642956956,0.5000001349637488 0.707911955113455,1.4781477356975548 1.4510567805908494,0.8090171293386968"/>
<polygon class="face_stroke" points="0.7079119527481798,1.4781477521400337 1.1146485958239796,2.391693209782634 2.109170491192253,2.287164746514981 2.317082182010013,1.309017145781176 1.4510567782255746,0.8090171457811755"/>
<polygon class="face_stroke" points="0.7079114072834004,1.4781479496407992 -0.20563405035920057,1.8848845927165996 0.2011025927165993,2.7984300503592 1.1146480503592004,2.3916934072834004"/>
<polygon class="face_stroke" points="-0.2056335927165996,1.8848839496407992 -1.1191790503592005,2.2916205927165993 -0.7124424072834007,3.2051660503592005 0.20110305035920045,2.7984294072834004"/>
<polygon class="face_stroke" points="-0.20563351599415047,1.8848845364055578 -1.014650510369098,1.2970992841130844 -1.1191789736367515,2.291621179481358"/>
<polygon class="face_stroke" points="-0.20563412895876276,1.8848841233337104 0.38215112333371043,1.075867128958763 -0.42686587104123724,0.48808187666628966 -1.0146511233337103,1.297098871041237"/>
<text class="face_text" text-anchor="middle" dominant-baseline="middle" transform="matrix(0.0075597747112122705 0 0 0.0075597747112122705 0.0 0.0)">2</text>
<text class="face_text" text-anchor="middle" dominant-baseline="middle" transform="matrix(0.0075597747112122705 0 0 0.0075597747112122705 1.188191 0.0)">21</text>
<text class="face_text" text-anchor="middle" dominant-baseline="middle" transform="matrix(0.0075597747112122705 0 0 0.0075597747112122705 0.886323 0.929055)">23</text>
<text class="face_text" text-anchor="middle" dominant-baseline="middle" transform="matrix(0.0075597747112122705 0 0 0.0075597747112122705 1.539974 1.655008)">24</text>
<text class="face_text" text-anchor="middle" dominant-baseline="middle" transform="matrix(0.0075597747112122705 0 0 0.0075597747112122705 0.454507 2.138289)">17</text>
<text class="face_text" text-anchor="middle" dominant-baseline="middle" transform="matrix(0.0075597747112122705 0 0 0.0075597747112122705 -0.459038 2.545025)">16</text>
<text class="face_text" text-anchor="middle" dominant-baseline="middle" transform="matrix(0.0075597747112122705 0 0 0.0075597747112122705 -0.779821 1.824535)">18</text>
<text class="face_text" text-anchor="middle" dominant-baseline="middle" transform="matrix(0.0075597747112122705 0 0 0.0075597747112122705 -0.31625 1.186483)">19</text>
<rect class="edge_bg" x="0.4244022926522905" y="-0.07559774711212279" width="0.1511954942242454" height="0.1511954942242454"/>
<text class="edge_text" text-anchor="middle" dominant-baseline="middle" transform="matrix(0.0075597747112122705 0 0 0.0075597747112122705 0.5000000397644132 -8.427908566546547e-17)">35</text>
<rect class="edge_bg" x="0.8999307753311497" y="0.5789108850390998" width="0.1511954942242454" height="0.1511954942242454"/>
<text class="edge_text" text-anchor="middle" dominant-baseline="middle" transform="matrix(0.0075597747112122705 0 0 0.0075597747112122705 0.9755285224432725 0.6545086321512226)">39</text>
<rect class="edge_bg" x="1.0038866183747541" y="1.0679847018484818" width="0.1511954942242454" height="0.1511954942242454"/>
<text class="edge_text" text-anchor="middle" dominant-baseline="middle" transform="matrix(0.0075597747112122705 0 0 0.0075597747112122705 1.0794843654868769 1.1435824489606046)">41</text>
<rect class="edge_bg" x="0.8356819817091778" y="1.859322931349977" width="0.1511954942242454" height="0.1511954942242454"/>
<text class="edge_text" text-anchor="middle" dominant-baseline="middle" transform="matrix(0.0075597747112122705 0 0 0.0075597747112122705 0.9112797288213006 1.9349206784620998)">40</text>
<rect class="edge_bg" x="-0.07786301829082216" y="2.2660589313499773" width="0.1511954942242454" height="0.1511954942242454"/>
<text class="edge_text" text-anchor="middle" dominant-baseline="middle" transform="matrix(0.0075597747112122705 0 0 0.0075597747112122705 -0.0022652711786994573 2.3416566784621)">22</text>
<rect class="edge_bg" x="-0.7380039919275737" y="2.0126551108313353" width="0.1511954942242454" height="0.1511954942242454"/>
<text class="edge_text" text-anchor="middle" dominant-baseline="middle" transform="matrix(0.0075597747112122705 0 0 0.0075597747112122705 -0.662406244815451 2.088252857943458)">26</text>
<rect class="edge_bg" x="-0.6857403732583593" y="1.515393750075351" width="0.1511954942242454" height="0.1511954942242454"/>
<text class="edge_text" text-anchor="middle" dominant-baseline="middle" transform="matrix(0.0075597747112122705 0 0 0.0075597747112122705 -0.6101426261462366 1.5909914971874737)">25</text>
</svg>
