<?xml version="1.0" encoding="utf-8"?>
<svg version="1.1" xmlns="http://www.w3.org/2000/svg" viewBox="-3.5806027871650725 -1.0431826868046359 6.178527110564375 5.1516452334531495" style="enable-background:new -3.5806027871650725 -1.0431826868046359 6.178527110564375 5.1516452334531495;">
<style type="text/css">
  .face_stroke {fill:none; stroke:#000000; stroke-width:0.02; stroke-miterlimit:10;}
  .face_text {fill:#000000; font-family:monospace;}
  .edge_text {fill:#ff0000; font-family:monospace;}
  .edge_bg {fill:#f3f3f3; stroke:#606060; stroke-width:0.01;}
</style>
<polygon class="face_stroke" points="0.5000000000000001,-0.5 -0.5,-0.5000000000000001 -0.5000000000000001,0.5 0.4999999999999999,0.5000000000000001"/>
<polygon class="face_stroke" points="0.5000000397644132,0.4999999999999999 1.4510565560595667,0.8090169943749475 2.03884180835204,2.0834935792808685e-16 1.451056556059567,-0.8090169943749473 0.5000000397644134,-0.5000000000000001"/>
<polygon class="face_stroke" points="0.5000002642956956,0.5000001349637488 0.707911955113455,1.4781477356975548 1.4510567805908494,0.8090171293386968"/>
<polygon class="face_stroke" points="0.7079119527481798,1.4781477521400337 1.1146485958239796,2.391693209782634 2.109170491192253,2.287164746514981 2.317082182010013,1.309017145781176 1.4510567782255746,0.8090171457811755"/>
<polygon class="face_stroke" points="0.7079114072834004,1.4781479496407992 -0.20563405035920057,1.8848845927165996 0.2011025927165993,2.7984300503592 1.1146480503592004,2.3916934072834004"/>
<polygon class="face_stroke" points="-0.2056335927165996,1.8848839496407992 -1.1191790503592005,2.2916205927165993 -0.7124424072834007,3.2051660503592005 0.20110305035920045,2.7984294072834004"/>
<polygon class="face_stroke" points="-1.1191795958239799,2.2916207902173658 -2.1137014911922534,2.396149253485019 -2.321613182010013,3.3742968542188243 -1.4555877782255746,3.8742968542188247 -0.7124429527481799,3.205166247859967"/>
<polygon class="face_stroke" points="-2.1137013542242173,2.396149045041977 -3.0918489549580235,2.1882373542242175 -3.2997606457757827,3.166384954958023 -2.321613045041977,3.374296645775783"/>
<polygon class="face_stroke" points="-2.113701134963749,2.3961497357043045 -2.422718129338696,1.4450932194091508 -3.0918487356975546,2.1882380448865453"/>
<polygon class="face_stroke" points="-2.113700760960103,2.396149755335051 -1.1626442446649494,2.0871327609601034 -1.4716612390398969,1.1360762446649495 -2.4227177553350505,1.445093239039897"/>
<polygon class="face_stroke" points="-1.1626448706613035,2.0871327805908493 -0.4935142643024454,1.343987955113455 -1.471661865036251,1.1360762642956956"/>
<polygon class="face_stroke" points="-0.49351404504197677,1.3439876457757824 -0.2856023542242174,0.3658400450419768 -1.2637499549580231,0.15792835422421747 -1.4716616457757825,1.1360759549580233"/>
<text class="face_text" text-anchor="middle" dominant-baseline="middle" transform="matrix(0.0103032904669063 0 0 0.0103032904669063 0.0 0.0)">2</text>
<text class="face_text" text-anchor="middle" dominant-baseline="middle" transform="matrix(0.0103032904669063 0 0 0.0103032904669063 1.188191 0.0)">21</text>
<text class="face_text" text-anchor="middle" dominant-baseline="middle" transform="matrix(0.0103032904669063 0 0 0.0103032904669063 0.886323 0.929055)">23</text>
<text class="face_text" text-anchor="middle" dominant-baseline="middle" transform="matrix(0.0103032904669063 0 0 0.0103032904669063 1.539974 1.655008)">24</text>
<text class="face_text" text-anchor="middle" dominant-baseline="middle" transform="matrix(0.0103032904669063 0 0 0.0103032904669063 0.454507 2.138289)">17</text>
<text class="face_text" text-anchor="middle" dominant-baseline="middle" transform="matrix(0.0103032904669063 0 0 0.0103032904669063 -0.459038 2.545025)">16</text>
<text class="face_text" text-anchor="middle" dominant-baseline="middle" transform="matrix(0.0103032904669063 0 0 0.0103032904669063 -1.544505 3.028306)">20</text>
<text class="face_text" text-anchor="middle" dominant-baseline="middle" transform="matrix(0.0103032904669063 0 0 0.0103032904669063 -2.706731 2.781267)">4</text>
<text class="face_text" text-anchor="middle" dominant-baseline="middle" transform="matrix(0.0103032904669063 0 0 0.0103032904669063 -2.542756 2.009827)">0</text>
<text class="face_text" text-anchor="middle" dominant-baseline="middle" transform="matrix(0.0103032904669063 0 0 0.0103032904669063 -1.792681 1.766113)">1</text>
<text class="face_text" text-anchor="middle" dominant-baseline="middle" transform="matrix(0.0103032904669063 0 0 0.0103032904669063 -1.042607 1.522399)">18</text>
<text class="face_text" text-anchor="middle" dominant-baseline="middle" transform="matrix(0.0103032904669063 0 0 0.0103032904669063 -0.878632 0.750958)">19</text>
<rect class="edge_bg" x="0.3969671350953502" y="-0.10303290466906308" width="0.206065809338126" height="0.206065809338126"/>
<text class="edge_text" text-anchor="middle" dominant-baseline="middle" transform="matrix(0.0103032904669063 0 0 0.0103032904669063 0.5000000397644132 -8.427908566546547e-17)">35</text>
<rect class="edge_bg" x="0.8724956177742095" y="0.5514757274821596" width="0.206065809338126" height="0.206065809338126"/>
<text class="edge_text" text-anchor="middle" dominant-baseline="middle" transform="matrix(0.0103032904669063 0 0 0.0103032904669063 0.9755285224432725 0.6545086321512226)">39</text>
<rect class="edge_bg" x="0.9764514608178139" y="1.0405495442915416" width="0.206065809338126" height="0.206065809338126"/>
<text class="edge_text" text-anchor="middle" dominant-baseline="middle" transform="matrix(0.0103032904669063 0 0 0.0103032904669063 1.0794843654868769 1.1435824489606046)">41</text>
<rect class="edge_bg" x="0.8082468241522376" y="1.8318877737930368" width="0.206065809338126" height="0.206065809338126"/>
<text class="edge_text" text-anchor="middle" dominant-baseline="middle" transform="matrix(0.0103032904669063 0 0 0.0103032904669063 0.9112797288213006 1.9349206784620998)">40</text>
<rect class="edge_bg" x="-0.10529817584776245" y="2.238623773793037" width="0.206065809338126" height="0.206065809338126"/>
<text class="edge_text" text-anchor="middle" dominant-baseline="middle" transform="matrix(0.0103032904669063 0 0 0.0103032904669063 -0.0022652711786994573 2.3416566784621)">22</text>
<rect class="edge_bg" x="-1.018844178955143" y="2.6453606143696033" width="0.206065809338126" height="0.206065809338126"/>
<text class="edge_text" text-anchor="middle" dominant-baseline="middle" transform="matrix(0.0103032904669063 0 0 0.0103032904669063 -0.91581127428608 2.7483935190386664)">34</text>
<rect class="edge_bg" x="-2.32069010430216" y="2.782189940739817" width="0.206065809338126" height="0.206065809338126"/>
<text class="edge_text" text-anchor="middle" dominant-baseline="middle" transform="matrix(0.0103032904669063 0 0 0.0103032904669063 -2.217657199633097 2.88522284540888)">30</text>
<rect class="edge_bg" x="-2.7058078399997147" y="2.1891609856263616" width="0.206065809338126" height="0.206065809338126"/>
<text class="edge_text" text-anchor="middle" dominant-baseline="middle" transform="matrix(0.0103032904669063 0 0 0.0103032904669063 -2.6027749353306517 2.2921938902954246)">5</text>
<rect class="edge_bg" x="-2.37124216281664" y="1.8175885925184108" width="0.206065809338126" height="0.206065809338126"/>
<text class="edge_text" text-anchor="middle" dominant-baseline="middle" transform="matrix(0.0103032904669063 0 0 0.0103032904669063 -2.268209258147577 1.9206214971874738)">2</text>
<rect class="edge_bg" x="-1.4201862725178405" y="1.5085716177742097" width="0.206065809338126" height="0.206065809338126"/>
<text class="edge_text" text-anchor="middle" dominant-baseline="middle" transform="matrix(0.0103032904669063 0 0 0.0103032904669063 -1.3171533678487775 1.6116045224432727)">28</text>
<rect class="edge_bg" x="-1.0856207500779425" y="1.13699889569784" width="0.206065809338126" height="0.206065809338126"/>
<text class="edge_text" text-anchor="middle" dominant-baseline="middle" transform="matrix(0.0103032904669063 0 0 0.0103032904669063 -0.9825878454088796 1.240031800366903)">25</text>
</svg>
