<?xml version="1.0" encoding="utf-8"?>
<svg version="1.1" xmlns="http://www.w3.org/2000/svg" viewBox="-1.875639546087331 -1.0890442545828265 4.744802572292455 6.1605997245733395" style="enable-background:new -1.875639546087331 -1.0890442545828265 4.744802572292455 6.1605997245733395;">
<style type="text/css">
  .face_stroke {fill:none; stroke:#000000; stroke-width:0.02; stroke-miterlimit:10;}
  .face_text {fill:#000000; font-family:monospace;}
  .edge_text {fill:#ff0000; font-family:monospace;}
  .edge_bg {fill:#f3f3f3; stroke:#606060; stroke-width:0.01;}
</style>
<polygon class="face_stroke" points="0.5000000000000001,-0.5 -0.5,-0.5000000000000001 -0.5000000000000001,0.5 0.4999999999999999,0.5000000000000001"/>
<polygon class="face_stroke" points="0.5000000397644132,0.4999999999999999 1.4510565560595667,0.8090169943749475 2.03884180835204,2.0834935792808685e-16 1.451056556059567,-0.8090169943749473 0.5000000397644134,-0.5000000000000001"/>
<polygon class="face_stroke" points="1.4510562841130843,0.8090165103690978 2.445578179481358,0.9135449736367516 2.0388415364055574,-4.840058495103605e-07"/>
<polygon class="face_stroke" points="1.4510565958239803,0.8090167902173654 1.0443199527481797,1.722562247859966 1.7874647782255741,2.3916928542188245 2.6534901820100125,1.8916928542188245 2.445578491192254,0.9135452534850194"/>
<polygon class="face_stroke" points="1.044319890440732,1.722562284081874 0.3751892840818737,2.465707109559268 1.118334109559268,3.134837715918126 1.787464715918126,2.391692890440732"/>
<polygon class="face_stroke" points="0.3751888904407321,2.4657072840818737 -0.29394171591812623,3.2088521095592677 0.4492031095592681,3.877982715918126 1.1183337159181264,3.134837890440732"/>
<polygon class="face_stroke" points="-0.2939417782255741,3.2088521457811754 -1.1599671820100126,3.7088521457811754 -0.9520554911922536,4.686999746514981 0.042466404176020045,4.791528209782634 0.4492030472518203,3.8779827521400345"/>
<polygon class="face_stroke" points="-0.2939412981077806,3.208851701892219 -0.7939412981077807,2.3428262981077808 -1.6599667018922193,2.8428262981077803 -1.1599667018922193,3.708851701892219"/>
<polygon class="face_stroke" points="-0.29394099999999995,3.2088522691896255 0.2060590000000001,2.342826865405187 -0.7939410000000001,2.342826865405187"/>
<polygon class="face_stroke" points="0.2060590000000001,2.3428269999999998 0.2060590000000001,1.342827 -0.793941,1.3428269999999998 -0.7939410000000001,2.3428269999999998"/>
<polygon class="face_stroke" points="0.2060590000000001,1.3428271345948128 -0.29394099999999995,0.47680173081037414 -0.793941,1.3428271345948128"/>
<text class="face_text" text-anchor="middle" dominant-baseline="middle" transform="matrix(0.00948960514458491 0 0 0.00948960514458491 0.0 0.0)">2</text>
<text class="face_text" text-anchor="middle" dominant-baseline="middle" transform="matrix(0.00948960514458491 0 0 0.00948960514458491 1.188191 0.0)">21</text>
<text class="face_text" text-anchor="middle" dominant-baseline="middle" transform="matrix(0.00948960514458491 0 0 0.00948960514458491 1.978492 0.574187)">32</text>
<text class="face_text" text-anchor="middle" dominant-baseline="middle" transform="matrix(0.00948960514458491 0 0 0.00948960514458491 1.876382 1.545702)">24</text>
<text class="face_text" text-anchor="middle" dominant-baseline="middle" transform="matrix(0.00948960514458491 0 0 0.00948960514458491 1.081327 2.4287)">17</text>
<text class="face_text" text-anchor="middle" dominant-baseline="middle" transform="matrix(0.00948960514458491 0 0 0.00948960514458491 0.412196 3.171845)">16</text>
<text class="face_text" text-anchor="middle" dominant-baseline="middle" transform="matrix(0.00948960514458491 0 0 0.00948960514458491 -0.382859 4.054843)">20</text>
<text class="face_text" text-anchor="middle" dominant-baseline="middle" transform="matrix(0.00948960514458491 0 0 0.00948960514458491 -0.976954 3.025839)">1</text>
<text class="face_text" text-anchor="middle" dominant-baseline="middle" transform="matrix(0.00948960514458491 0 0 0.00948960514458491 -0.293941 2.631502)">18</text>
<text class="face_text" text-anchor="middle" dominant-baseline="middle" transform="matrix(0.00948960514458491 0 0 0.00948960514458491 -0.293941 1.842827)">19</text>
<text class="face_text" text-anchor="middle" dominant-baseline="middle" transform="matrix(0.00948960514458491 0 0 0.00948960514458491 -0.293941 1.054152)">23</text>
<rect class="edge_bg" x="0.4051039883185641" y="-0.09489605144584919" width="0.1897921028916982" height="0.1897921028916982"/>
<text class="edge_text" text-anchor="middle" dominant-baseline="middle" transform="matrix(0.00948960514458491 0 0 0.00948960514458491 0.5000000397644132 -8.427908566546547e-17)">35</text>
<rect class="edge_bg" x="1.650052858813472" y="0.3096119617357751" width="0.1897921028916982" height="0.1897921028916982"/>
<text class="edge_text" text-anchor="middle" dominant-baseline="middle" transform="matrix(0.00948960514458491 0 0 0.00948960514458491 1.744948910259321 0.4045080131816242)">57</text>
<rect class="edge_bg" x="1.8534214920622676" y="0.766384970405343" width="0.1897921028916982" height="0.1897921028916982"/>
<text class="edge_text" text-anchor="middle" dominant-baseline="middle" transform="matrix(0.00948960514458491 0 0 0.00948960514458491 1.9483175435081166 0.8612810218511922)">58</text>
<rect class="edge_bg" x="1.32099625173358" y="1.962231535815454" width="0.1897921028916982" height="0.1897921028916982"/>
<text class="edge_text" text-anchor="middle" dominant-baseline="middle" transform="matrix(0.00948960514458491 0 0 0.00948960514458491 1.415892303179429 2.057127587261303)">40</text>
<rect class="edge_bg" x="0.65186525173358" y="2.7053765358154536" width="0.1897921028916982" height="0.1897921028916982"/>
<text class="edge_text" text-anchor="middle" dominant-baseline="middle" transform="matrix(0.00948960514458491 0 0 0.00948960514458491 0.7467613031794291 2.800272587261303)">22</text>
<rect class="edge_bg" x="-0.017265416932726027" y="3.4485213975147553" width="0.1897921028916982" height="0.1897921028916982"/>
<text class="edge_text" text-anchor="middle" dominant-baseline="middle" transform="matrix(0.00948960514458491 0 0 0.00948960514458491 0.07763063451312308 3.5434174489606045)">34</text>
<rect class="edge_bg" x="-0.821850051445849" y="3.36395565044637" width="0.1897921028916982" height="0.1897921028916982"/>
<text class="edge_text" text-anchor="middle" dominant-baseline="middle" transform="matrix(0.00948960514458491 0 0 0.00948960514458491 -0.7269539999999999 3.458851701892219)">31</text>
<rect class="edge_bg" x="-0.6388370514458492" y="2.680943515851557" width="0.1897921028916982" height="0.1897921028916982"/>
<text class="edge_text" text-anchor="middle" dominant-baseline="middle" transform="matrix(0.00948960514458491 0 0 0.00948960514458491 -0.5439410000000001 2.7758395672974063)">28</text>
<rect class="edge_bg" x="-0.38883705144584907" y="2.247930948554151" width="0.1897921028916982" height="0.1897921028916982"/>
<text class="edge_text" text-anchor="middle" dominant-baseline="middle" transform="matrix(0.00948960514458491 0 0 0.00948960514458491 -0.29394099999999995 2.342827)">25</text>
<rect class="edge_bg" x="-0.3888370514458491" y="1.2479310831489638" width="0.1897921028916982" height="0.1897921028916982"/>
<text class="edge_text" text-anchor="middle" dominant-baseline="middle" transform="matrix(0.00948960514458491 0 0 0.00948960514458491 -0.293941 1.3428271345948128)">38</text>
</svg>
