<?xml version="1.0" encoding="utf-8"?>
<svg version="1.1" xmlns="http://www.w3.org/2000/svg" viewBox="-1.5517283466485132 -2.8111646911105135 3.5207808334531494 3.468839200211014" style="enable-background:new -1.5517283466485132 -2.8111646911105135 3.5207808334531494 3.468839200211014;">
<style type="text/css">
  .face_stroke {fill:none; stroke:#000000; stroke-width:0.02; stroke-miterlimit:10;}
  .face_text {fill:#000000; font-family:monospace;}
  .edge_text {fill:#ff0000; font-family:monospace;}
  .edge_bg {fill:#f3f3f3; stroke:#606060; stroke-width:0.01;}
</style>
<polygon class="face_stroke" points="0.5000000000000001,-0.5 -0.5,-0.5000000000000001 -0.5000000000000001,0.5 0.4999999999999999,0.5000000000000001"/>
<polygon class="face_stroke" points="0.4999999999999999,0.5 1.5,0.5000000000000001 1.5000000000000007,-0.49999999999999944 0.49999999999999967,-0.4999999999999998"/>
<polygon class="face_stroke" points="1.5,-0.5000000397644132 1.8090169943749475,-1.4510565560595667 1.0,-2.03884180835204 0.19098300562505266,-1.4510565560595667 0.4999999999999999,-0.5000000397644133"/>
<polygon class="face_stroke" points="1.0000004840058496,-2.0388415364055574 0.08645502636324853,-2.445578179481358 0.19098348963090203,-1.4510562841130843"/>
<polygon class="face_stroke" points="0.08645474651498097,-2.4455784911922533 -0.8916928542188245,-2.653490182010013 -1.3916928542188245,-1.7874647782255744 -0.7225622478599668,-1.04431995274818 0.19098320978263417,-1.4510565958239796"/>
<polygon class="face_stroke" points="-0.7225624840058495,-1.0443195364055577 0.08645451036909821,-0.4565342841130845 0.190982973636752,-1.4510561794813577"/>
<text class="face_text" text-anchor="middle" dominant-baseline="middle" transform="matrix(0.006937678400422028 0 0 0.006937678400422028 0.0 0.0)">3</text>
<text class="face_text" text-anchor="middle" dominant-baseline="middle" transform="matrix(0.006937678400422028 0 0 0.006937678400422028 1.0 0.0)">2</text>
<text class="face_text" text-anchor="middle" dominant-baseline="middle" transform="matrix(0.006937678400422028 0 0 0.006937678400422028 1.0 -1.188191)">21</text>
<text class="face_text" text-anchor="middle" dominant-baseline="middle" transform="matrix(0.006937678400422028 0 0 0.006937678400422028 0.425813 -1.978492)">31</text>
<text class="face_text" text-anchor="middle" dominant-baseline="middle" transform="matrix(0.006937678400422028 0 0 0.006937678400422028 -0.545702 -1.876382)">30</text>
<text class="face_text" text-anchor="middle" dominant-baseline="middle" transform="matrix(0.006937678400422028 0 0 0.006937678400422028 -0.148375 -0.98397)">22</text>
<rect class="edge_bg" x="0.4306232159957796" y="-0.06937678400422034" width="0.13875356800844058" height="0.13875356800844058"/>
<text class="edge_text" text-anchor="middle" dominant-baseline="middle" transform="matrix(0.006937678400422028 0 0 0.006937678400422028 0.4999999999999999 -6.123233995736767e-17)">3</text>
<rect class="edge_bg" x="0.9306232159957797" y="-0.5693768237686335" width="0.13875356800844058" height="0.13875356800844058"/>
<text class="edge_text" text-anchor="middle" dominant-baseline="middle" transform="matrix(0.006937678400422028 0 0 0.006937678400422028 1.0 -0.5000000397644132)">35</text>
<rect class="edge_bg" x="0.5261152028141555" y="-1.8143256942635413" width="0.13875356800844058" height="0.13875356800844058"/>
<text class="edge_text" text-anchor="middle" dominant-baseline="middle" transform="matrix(0.006937678400422028 0 0 0.006937678400422028 0.5954919868183758 -1.744948910259321)">55</text>
<rect class="edge_bg" x="0.06934219414458745" y="-2.017694327512337" width="0.13875356800844058" height="0.13875356800844058"/>
<text class="edge_text" text-anchor="middle" dominant-baseline="middle" transform="matrix(0.006937678400422028 0 0 0.006937678400422028 0.13871897814880774 -1.9483175435081166)">56</text>
<rect class="edge_bg" x="-0.33516653918876926" y="-1.3170646419476781" width="0.13875356800844058" height="0.13875356800844058"/>
<text class="edge_text" text-anchor="middle" dominant-baseline="middle" transform="matrix(0.006937678400422028 0 0 0.006937678400422028 -0.265789755184549 -1.2476878579434578)">54</text>
</svg>
