<?xml version="1.0" encoding="utf-8"?>
<svg version="1.1" xmlns="http://www.w3.org/2000/svg" viewBox="-1.0514375496144113 -1.024467844093695 2.870087051977003 4.7399186938124425" style="enable-background:new -1.0514375496144113 -1.024467844093695 2.870087051977003 4.7399186938124425;">
<style type="text/css">
  .face_stroke {fill:none; stroke:#000000; stroke-width:0.02; stroke-miterlimit:10;}
  .face_text {fill:#000000; font-family:monospace;}
  .edge_text {fill:#ff0000; font-family:monospace;}
  .edge_bg {fill:#f3f3f3; stroke:#606060; stroke-width:0.01;}
</style>
<polygon class="face_stroke" points="0.6881909602355868,-0.5 -0.26286555605956674,-0.8090169943749475 -0.8506508083520399,-1.0417467896404342e-16 -0.2628655560595669,0.8090169943749473 0.6881909602355867,0.5000000000000001"/>
<polygon class="face_stroke" points="0.6881909999999999,0.5 1.6881909999999998,0.5000000000000001 1.6881910000000007,-0.49999999999999944 0.6881909999999997,-0.4999999999999998"/>
<polygon class="face_stroke" points="0.688191,0.4999999999999999 0.6881909999999999,1.5 1.6881909999999998,1.5 1.6881910000000007,0.5000000000000006"/>
<polygon class="face_stroke" points="0.688191,1.5 0.6881909999999999,2.5 1.6881909999999998,2.5 1.6881910000000007,1.5000000000000004"/>
<polygon class="face_stroke" points="0.688191,2.5 0.6881909999999999,3.5 1.6881909999999998,3.5 1.6881910000000007,2.5000000000000004"/>
<polygon class="face_stroke" points="0.688191134594813,2.5 -0.17783426918962586,3.0 0.688191134594813,3.5"/>
<polygon class="face_stroke" points="0.6881911820100126,2.4999998542188244 0.4802794911922533,1.5218522534850187 -0.5142424041760197,1.4173237902173654 -0.9209790472518202,2.330869247859966 -0.17783422177442582,2.9999998542188244"/>
<polygon class="face_stroke" points="0.48027917948135795,1.5218519736367515 0.07354253640555763,0.6083065159941504 -0.5142427158869156,1.4173235103690978"/>
<text class="face_text" text-anchor="middle" dominant-baseline="middle" transform="matrix(0.005740174103954006 0 0 0.005740174103954006 0.0 0.0)">21</text>
<text class="face_text" text-anchor="middle" dominant-baseline="middle" transform="matrix(0.005740174103954006 0 0 0.005740174103954006 1.188191 0.0)">2</text>
<text class="face_text" text-anchor="middle" dominant-baseline="middle" transform="matrix(0.005740174103954006 0 0 0.005740174103954006 1.188191 1.0)">3</text>
<text class="face_text" text-anchor="middle" dominant-baseline="middle" transform="matrix(0.005740174103954006 0 0 0.005740174103954006 1.188191 2.0)">5</text>
<text class="face_text" text-anchor="middle" dominant-baseline="middle" transform="matrix(0.005740174103954006 0 0 0.005740174103954006 1.188191 3.0)">7</text>
<text class="face_text" text-anchor="middle" dominant-baseline="middle" transform="matrix(0.005740174103954006 0 0 0.005740174103954006 0.399516 3.0)">29</text>
<text class="face_text" text-anchor="middle" dominant-baseline="middle" transform="matrix(0.005740174103954006 0 0 0.005740174103954006 -0.088917 2.154009)">30</text>
<text class="face_text" text-anchor="middle" dominant-baseline="middle" transform="matrix(0.005740174103954006 0 0 0.005740174103954006 0.013193 1.182494)">22</text>
<rect class="edge_bg" x="0.6307892589604598" y="-0.05740174103954012" width="0.11480348207908012" height="0.11480348207908012"/>
<text class="edge_text" text-anchor="middle" dominant-baseline="middle" transform="matrix(0.005740174103954006 0 0 0.005740174103954006 0.6881909999999999 -6.123233995736767e-17)">35</text>
<rect class="edge_bg" x="1.13078925896046" y="0.44259825896045984" width="0.11480348207908012" height="0.11480348207908012"/>
<text class="edge_text" text-anchor="middle" dominant-baseline="middle" transform="matrix(0.005740174103954006 0 0 0.005740174103954006 1.188191 0.4999999999999999)">3</text>
<rect class="edge_bg" x="1.13078925896046" y="1.44259825896046" width="0.11480348207908012" height="0.11480348207908012"/>
<text class="edge_text" text-anchor="middle" dominant-baseline="middle" transform="matrix(0.005740174103954006 0 0 0.005740174103954006 1.188191 1.5)">6</text>
<rect class="edge_bg" x="1.13078925896046" y="2.44259825896046" width="0.11480348207908012" height="0.11480348207908012"/>
<text class="edge_text" text-anchor="middle" dominant-baseline="middle" transform="matrix(0.005740174103954006 0 0 0.005740174103954006 1.188191 2.5)">9</text>
<rect class="edge_bg" x="0.6307893935552729" y="2.94259825896046" width="0.11480348207908012" height="0.11480348207908012"/>
<text class="edge_text" text-anchor="middle" dominant-baseline="middle" transform="matrix(0.005740174103954006 0 0 0.005740174103954006 0.688191134594813 3.0)">50</text>
<rect class="edge_bg" x="0.19777673907825338" y="2.6925981131792844" width="0.11480348207908012" height="0.11480348207908012"/>
<text class="edge_text" text-anchor="middle" dominant-baseline="middle" transform="matrix(0.005740174103954006 0 0 0.005740174103954006 0.2551784801177934 2.7499998542188244)">53</text>
<rect class="edge_bg" x="-0.07438350924231885" y="1.4121860009633846" width="0.11480348207908012" height="0.11480348207908012"/>
<text class="edge_text" text-anchor="middle" dominant-baseline="middle" transform="matrix(0.005740174103954006 0 0 0.005740174103954006 -0.01698176820277879 1.4695877420029246)">54</text>
</svg>
