<?xml version="1.0" encoding="utf-8"?>
<svg version="1.1" xmlns="http://www.w3.org/2000/svg" viewBox="-2.888635989122293 -1.8081170792376644 5.6507617564701595 4.959699128010658" style="enable-background:new -2.888635989122293 -1.8081170792376644 5.6507617564701595 4.959699128010658;">
<style type="text/css">
  .face_stroke {fill:none; stroke:#000000; stroke-width:0.02; stroke-miterlimit:10;}
  .face_text {fill:#000000; font-family:monospace;}
  .edge_text {fill:#ff0000; font-family:monospace;}
  .edge_bg {fill:#f3f3f3; stroke:#606060; stroke-width:0.01;}
</style>
<polygon class="face_stroke" points="0.6881909602355868,-0.5 -0.26286555605956674,-0.8090169943749475 -0.8506508083520399,-1.0417467896404342e-16 -0.2628655560595669,0.8090169943749473 0.6881909602355867,0.5000000000000001"/>
<polygon class="face_stroke" points="0.6881908654051868,0.4999999999999999 1.554216269189626,1.414100318299876e-16 0.6881908654051876,-0.5000000000000003"/>
<polygon class="face_stroke" points="1.5542162217744258,-1.457811755756211e-07 2.29736104725182,-0.6691307521400337 1.89062440417602,-1.5826762097826346 0.8961025088077466,-1.478147746514981 0.688190817989987,-0.5000001457811758"/>
<polygon class="face_stroke" points="1.5542162194091507,-1.2933869654452312e-07 2.505272735704304,0.30901686503625125 2.297361044886545,-0.6691307356975547"/>
<polygon class="face_stroke" points="1.5542164439404333,5.625052534874442e-09 0.9664311916479602,0.8090169999999999 1.5542164439404331,1.6180339943749473 2.5052729602355868,1.309017 2.5052729602355863,0.30901699999999965"/>
<polygon class="face_stroke" points="0.9664314635944424,0.8090165159941506 0.5596948205186421,1.7225619736367515 1.5542167158869153,1.6180335103690981"/>
<polygon class="face_stroke" points="0.5596948206820368,1.7225622839496897 0.6642232839496904,2.7170841793179634 1.6587451793179633,2.61255571605031 1.55421671605031,1.6180338206820362"/>
<polygon class="face_stroke" points="0.55969471605031,1.7225628206820367 -0.43482717931796333,1.82709128394969 -0.3302987160503097,2.8216131793179637 0.6642231793179632,2.7170847160503104"/>
<polygon class="face_stroke" points="-0.43482728394969006,1.8270908206820364 -1.4293491793179633,1.9316192839496897 -1.3248207160503096,2.9261411793179635 -0.33029882068203686,2.82161271605031"/>
<polygon class="face_stroke" points="-0.43482728411308447,1.827090510369098 -1.0226125364055576,1.0180735159941503 -1.429349179481358,1.9316189736367515"/>
<polygon class="face_stroke" points="-1.02261295274818,1.0180737521400336 -1.7657577782255742,0.34894314578117547 -2.631783182010013,0.8489431457811751 -2.4238714911922536,1.8270907465149806 -1.4293495958239801,1.9316192097826343"/>
<polygon class="face_stroke" points="-1.022612955113455,1.0180737356975547 -0.8147012642956957,0.039926134963748916 -1.7657577805908495,0.34894312933869637"/>
<text class="face_text" text-anchor="middle" dominant-baseline="middle" transform="matrix(0.009919398256021316 0 0 0.009919398256021316 0.0 0.0)">21</text>
<text class="face_text" text-anchor="middle" dominant-baseline="middle" transform="matrix(0.009919398256021316 0 0 0.009919398256021316 0.976866 0.0)">32</text>
<text class="face_text" text-anchor="middle" dominant-baseline="middle" transform="matrix(0.009919398256021316 0 0 0.009919398256021316 1.465299 -0.845991)">36</text>
<text class="face_text" text-anchor="middle" dominant-baseline="middle" transform="matrix(0.009919398256021316 0 0 0.009919398256021316 2.11895 -0.120038)">33</text>
<text class="face_text" text-anchor="middle" dominant-baseline="middle" transform="matrix(0.009919398256021316 0 0 0.009919398256021316 1.817082 0.809017)">24</text>
<text class="face_text" text-anchor="middle" dominant-baseline="middle" transform="matrix(0.009919398256021316 0 0 0.009919398256021316 1.026781 1.383204)">23</text>
<text class="face_text" text-anchor="middle" dominant-baseline="middle" transform="matrix(0.009919398256021316 0 0 0.009919398256021316 1.10922 2.167559)">19</text>
<text class="face_text" text-anchor="middle" dominant-baseline="middle" transform="matrix(0.009919398256021316 0 0 0.009919398256021316 0.114698 2.272088)">2</text>
<text class="face_text" text-anchor="middle" dominant-baseline="middle" transform="matrix(0.009919398256021316 0 0 0.009919398256021316 -0.879824 2.376616)">3</text>
<text class="face_text" text-anchor="middle" dominant-baseline="middle" transform="matrix(0.009919398256021316 0 0 0.009919398256021316 -0.962263 1.592261)">22</text>
<text class="face_text" text-anchor="middle" dominant-baseline="middle" transform="matrix(0.009919398256021316 0 0 0.009919398256021316 -1.854675 1.194934)">30</text>
<text class="face_text" text-anchor="middle" dominant-baseline="middle" transform="matrix(0.009919398256021316 0 0 0.009919398256021316 -1.201024 0.468981)">31</text>
<rect class="edge_bg" x="0.5889968828449739" y="-0.0991939825602132" width="0.1983879651204263" height="0.1983879651204263"/>
<text class="edge_text" text-anchor="middle" dominant-baseline="middle" transform="matrix(0.009919398256021316 0 0 0.009919398256021316 0.688190865405187 -3.535250795749691e-17)">57</text>
<rect class="edge_bg" x="1.0220095373219935" y="-0.3491941283413885" width="0.1983879651204263" height="0.1983879651204263"/>
<text class="edge_text" text-anchor="middle" dominant-baseline="middle" transform="matrix(0.009919398256021316 0 0 0.009919398256021316 1.1212035198822066 -0.25000014578117535)">65</text>
<rect class="edge_bg" x="1.8265946495876346" y="-0.43375941507833876" width="0.1983879651204263" height="0.1983879651204263"/>
<text class="edge_text" text-anchor="middle" dominant-baseline="middle" transform="matrix(0.009919398256021316 0 0 0.009919398256021316 1.9257886321478477 -0.3345654325181256)">67</text>
<rect class="edge_bg" x="1.9305507195277969" y="0.05531452025231311" width="0.1983879651204263" height="0.1983879651204263"/>
<text class="edge_text" text-anchor="middle" dominant-baseline="middle" transform="matrix(0.009919398256021316 0 0 0.009919398256021316 2.02974470208801 0.15450850281252626)">59</text>
<rect class="edge_bg" x="1.1611301071804658" y="1.1143310306214114" width="0.1983879651204263" height="0.1983879651204263"/>
<text class="edge_text" text-anchor="middle" dominant-baseline="middle" transform="matrix(0.009919398256021316 0 0 0.009919398256021316 1.2603240897406789 1.2135250131816244)">41</text>
<rect class="edge_bg" x="0.9577617858059603" y="1.57110406975565" width="0.1983879651204263" height="0.1983879651204263"/>
<text class="edge_text" text-anchor="middle" dominant-baseline="middle" transform="matrix(0.009919398256021316 0 0 0.009919398256021316 1.0569557683661734 1.670298052315863)">38</text>
<rect class="edge_bg" x="0.5127649651239236" y="2.12062978580596" width="0.1983879651204263" height="0.1983879651204263"/>
<text class="edge_text" text-anchor="middle" dominant-baseline="middle" transform="matrix(0.009919398256021316 0 0 0.009919398256021316 0.6119589476841367 2.2198237683661732)">29</text>
<rect class="edge_bg" x="-0.48175703487607646" y="2.2251577858059597" width="0.1983879651204263" height="0.1983879651204263"/>
<text class="edge_text" text-anchor="middle" dominant-baseline="middle" transform="matrix(0.009919398256021316 0 0 0.009919398256021316 -0.3825630523158633 2.324351768366173)">3</text>
<rect class="edge_bg" x="-1.0312822143574343" y="1.7801607594427116" width="0.1983879651204263" height="0.1983879651204263"/>
<text class="edge_text" text-anchor="middle" dominant-baseline="middle" transform="matrix(0.009919398256021316 0 0 0.009919398256021316 -0.9320882317972211 1.8793547420029246)">36</text>
<rect class="edge_bg" x="-1.3251752568462931" y="1.375652498401121" width="0.1983879651204263" height="0.1983879651204263"/>
<text class="edge_text" text-anchor="middle" dominant-baseline="middle" transform="matrix(0.009919398256021316 0 0 0.009919398256021316 -1.22598127428608 1.474846480961334)">54</text>
<rect class="edge_bg" x="-1.4933793504123654" y="0.5843144499579124" width="0.1983879651204263" height="0.1983879651204263"/>
<text class="edge_text" text-anchor="middle" dominant-baseline="middle" transform="matrix(0.009919398256021316 0 0 0.009919398256021316 -1.3941853678521523 0.6835084325181255)">56</text>
</svg>
