<?xml version="1.0" encoding="utf-8"?>
<svg version="1.1" xmlns="http://www.w3.org/2000/svg" viewBox="-3.8843345052397518 -3.129909586804636 6.476062007372123 7.54038103345315" style="enable-background:new -3.8843345052397518 -3.129909586804636 6.476062007372123 7.54038103345315;">
<style type="text/css">
  .face_stroke {fill:none; stroke:#000000; stroke-width:0.02; stroke-miterlimit:10;}
  .face_text {fill:#000000; font-family:monospace;}
  .edge_text {fill:#ff0000; font-family:monospace;}
  .edge_bg {fill:#f3f3f3; stroke:#606060; stroke-width:0.01;}
</style>
<polygon class="face_stroke" points="0.6881909602355868,-0.5 -0.26286555605956674,-0.8090169943749475 -0.8506508083520399,-1.0417467896404342e-16 -0.2628655560595669,0.8090169943749473 0.6881909602355867,0.5000000000000001"/>
<polygon class="face_stroke" points="0.6881908654051868,0.4999999999999999 1.554216269189626,1.414100318299876e-16 0.6881908654051876,-0.5000000000000003"/>
<polygon class="face_stroke" points="1.5542162217744258,-1.457811755756211e-07 2.29736104725182,-0.6691307521400337 1.89062440417602,-1.5826762097826346 0.8961025088077466,-1.478147746514981 0.688190817989987,-0.5000001457811758"/>
<polygon class="face_stroke" points="0.8961027357043043,-1.4781478650362512 -0.05495378059084932,-1.1691308706613037 0.6881910448865449,-0.5000002643024454"/>
<polygon class="face_stroke" points="0.8961029602355868,-1.478148 0.8961029602355868,-2.478148 -0.05495355605956673,-2.7871649943749475 -0.6427388083520399,-1.978148 -0.054953556059566894,-1.1691310056250526"/>
<polygon class="face_stroke" points="-0.6427395364055575,-1.9781474840058495 -1.0494761794813579,-1.0646020263632487 -0.05495428411308445,-1.169130489630902"/>
<polygon class="face_stroke" points="-0.6427389496407995,-1.9781474072834002 -1.5562844072834003,-2.3848840503592004 -1.9630210503592007,-1.4713385927165994 -1.0494755927166002,-1.064601949640799"/>
<polygon class="face_stroke" points="-1.9630214072834002,-1.4713390503592005 -2.3697580503592004,-0.5577935927165996 -1.4562125927166,-0.1510569496407992 -1.049475949640799,-1.0646024072833997"/>
<polygon class="face_stroke" points="-2.3697574072834007,-0.5577930503592006 -2.776494050359201,0.35575240728340046 -1.8629485927166003,0.7624890503592008 -1.4562119496407995,-0.1510564072833998"/>
<polygon class="face_stroke" points="-2.7764944072834004,0.35575194964079937 -3.1832310503592005,1.2692974072834005 -2.2696855927166,1.6760340503592008 -1.8629489496407992,0.7624885927166001"/>
<polygon class="face_stroke" points="-3.1832314072834005,1.2692979496407992 -3.5899680503592006,2.1828434072834004 -2.6764225927166,2.5895800503592006 -2.2696859496407993,1.6760345927166"/>
<polygon class="face_stroke" points="-2.676422179481358,2.5895799736367513 -1.6819002841130843,2.485051510369098 -2.2696855364055573,1.6760345159941505"/>
<polygon class="face_stroke" points="-2.676422491192253,2.589579253485019 -2.884334182010013,3.567726854218824 -2.0183087782255744,4.067726854218824 -1.2751639527481797,3.3985962478599667 -1.68190059582398,2.4850507902173655"/>
<polygon class="face_stroke" points="-1.2751635364055576,3.3985964840058496 -0.6873782841130845,2.589579489630902 -1.681900179481358,2.485051026363249"/>
<polygon class="face_stroke" points="-0.6873785958239799,2.5895792097826345 -0.2806419527481797,1.6760337521400337 -1.023786778225574,1.0069031457811755 -1.8898121820100124,1.5069031457811752 -1.6819004911922535,2.4850507465149807"/>
<polygon class="face_stroke" points="-0.280641955113455,1.6760337356975548 -0.07273026429569562,0.6978861349637488 -1.0237867805908494,1.0069031293386963"/>
<text class="face_text" text-anchor="middle" dominant-baseline="middle" transform="matrix(0.012952124014744246 0 0 0.012952124014744246 0.0 0.0)">21</text>
<text class="face_text" text-anchor="middle" dominant-baseline="middle" transform="matrix(0.012952124014744246 0 0 0.012952124014744246 0.976866 0.0)">32</text>
<text class="face_text" text-anchor="middle" dominant-baseline="middle" transform="matrix(0.012952124014744246 0 0 0.012952124014744246 1.465299 -0.845991)">36</text>
<text class="face_text" text-anchor="middle" dominant-baseline="middle" transform="matrix(0.012952124014744246 0 0 0.012952124014744246 0.50978 -1.049093)">31</text>
<text class="face_text" text-anchor="middle" dominant-baseline="middle" transform="matrix(0.012952124014744246 0 0 0.012952124014744246 0.207912 -1.978148)">30</text>
<text class="face_text" text-anchor="middle" dominant-baseline="middle" transform="matrix(0.012952124014744246 0 0 0.012952124014744246 -0.58239 -1.40396)">22</text>
<text class="face_text" text-anchor="middle" dominant-baseline="middle" transform="matrix(0.012952124014744246 0 0 0.012952124014744246 -1.30288 -1.724743)">3</text>
<text class="face_text" text-anchor="middle" dominant-baseline="middle" transform="matrix(0.012952124014744246 0 0 0.012952124014744246 -1.709617 -0.811198)">2</text>
<text class="face_text" text-anchor="middle" dominant-baseline="middle" transform="matrix(0.012952124014744246 0 0 0.012952124014744246 -2.116353 0.102348)">19</text>
<text class="face_text" text-anchor="middle" dominant-baseline="middle" transform="matrix(0.012952124014744246 0 0 0.012952124014744246 -2.52309 1.015893)">17</text>
<text class="face_text" text-anchor="middle" dominant-baseline="middle" transform="matrix(0.012952124014744246 0 0 0.012952124014744246 -2.929827 1.929439)">15</text>
<text class="face_text" text-anchor="middle" dominant-baseline="middle" transform="matrix(0.012952124014744246 0 0 0.012952124014744246 -2.209336 2.250222)">25</text>
<text class="face_text" text-anchor="middle" dominant-baseline="middle" transform="matrix(0.012952124014744246 0 0 0.012952124014744246 -2.107226 3.221736)">26</text>
<text class="face_text" text-anchor="middle" dominant-baseline="middle" transform="matrix(0.012952124014744246 0 0 0.012952124014744246 -1.214814 2.824409)">33</text>
<text class="face_text" text-anchor="middle" dominant-baseline="middle" transform="matrix(0.012952124014744246 0 0 0.012952124014744246 -1.112704 1.852894)">24</text>
<text class="face_text" text-anchor="middle" dominant-baseline="middle" transform="matrix(0.012952124014744246 0 0 0.012952124014744246 -0.459053 1.126941)">23</text>
<rect class="edge_bg" x="0.5586696252577446" y="-0.12952124014744248" width="0.2590424802948849" height="0.2590424802948849"/>
<text class="edge_text" text-anchor="middle" dominant-baseline="middle" transform="matrix(0.012952124014744246 0 0 0.012952124014744246 0.688190865405187 -3.535250795749691e-17)">57</text>
<rect class="edge_bg" x="0.9916822797347641" y="-0.37952138592861784" width="0.2590424802948849" height="0.2590424802948849"/>
<text class="edge_text" text-anchor="middle" dominant-baseline="middle" transform="matrix(0.012952124014744246 0 0 0.012952124014744246 1.1212035198822066 -0.25000014578117535)">65</text>
<rect class="edge_bg" x="0.6626256501479822" y="-1.1185953048167907" width="0.2590424802948849" height="0.2590424802948849"/>
<text class="edge_text" text-anchor="middle" dominant-baseline="middle" transform="matrix(0.012952124014744246 0 0 0.012952124014744246 0.7921468902954247 -0.9890740646693482)">66</text>
<rect class="edge_bg" x="0.2910534619405676" y="-1.4531607429599687" width="0.2590424802948849" height="0.2590424802948849"/>
<text class="edge_text" text-anchor="middle" dominant-baseline="middle" transform="matrix(0.012952124014744246 0 0 0.012952124014744246 0.42057470208801 -1.3236395028125263)">56</text>
<rect class="edge_bg" x="-0.4783681504067634" y="-1.7031602269658181" width="0.2590424802948849" height="0.2590424802948849"/>
<text class="edge_text" text-anchor="middle" dominant-baseline="middle" transform="matrix(0.012952124014744246 0 0 0.012952124014744246 -0.34884691025932096 -1.5736389868183758)">54</text>
<rect class="edge_bg" x="-0.9756285113261419" y="-1.6508959186095422" width="0.2590424802948849" height="0.2590424802948849"/>
<text class="edge_text" text-anchor="middle" dominant-baseline="middle" transform="matrix(0.012952124014744246 0 0 0.012952124014744246 -0.8461072711786994 -1.5213746784620998)">36</text>
<rect class="edge_bg" x="-1.6357699186095422" y="-1.3974919689687428" width="0.2590424802948849" height="0.2590424802948849"/>
<text class="edge_text" text-anchor="middle" dominant-baseline="middle" transform="matrix(0.012952124014744246 0 0 0.012952124014744246 -1.5062486784620999 -1.2679707288213005)">3</text>
<rect class="edge_bg" x="-2.0425059186095424" y="-0.483945968968743" width="0.2590424802948849" height="0.2590424802948849"/>
<text class="edge_text" text-anchor="middle" dominant-baseline="middle" transform="matrix(0.012952124014744246 0 0 0.012952124014744246 -1.9129846784621 -0.35442472882130055)">29</text>
<rect class="edge_bg" x="-2.449242918609542" y="0.42959903103125685" width="0.2590424802948849" height="0.2590424802948849"/>
<text class="edge_text" text-anchor="middle" dominant-baseline="middle" transform="matrix(0.012952124014744246 0 0 0.012952124014744246 -2.3197216784620998 0.5591202711786993)">27</text>
<rect class="edge_bg" x="-2.8559799186095423" y="1.343145031031257" width="0.2590424802948849" height="0.2590424802948849"/>
<text class="edge_text" text-anchor="middle" dominant-baseline="middle" transform="matrix(0.012952124014744246 0 0 0.012952124014744246 -2.7264586784621 1.4726662711786993)">24</text>
<rect class="edge_bg" x="-2.6025750980909" y="2.0032860046680083" width="0.2590424802948849" height="0.2590424802948849"/>
<text class="edge_text" text-anchor="middle" dominant-baseline="middle" transform="matrix(0.012952124014744246 0 0 0.012952124014744246 -2.473053857943458 2.1328072448154507)">42</text>
<rect class="edge_bg" x="-2.308682783655559" y="2.4077937817037496" width="0.2590424802948849" height="0.2590424802948849"/>
<text class="edge_text" text-anchor="middle" dominant-baseline="middle" transform="matrix(0.012952124014744246 0 0 0.012952124014744246 -2.1791615435081164 2.537315021851192)">45</text>
<rect class="edge_bg" x="-1.6080530980909002" y="2.812302515037107" width="0.2590424802948849" height="0.2590424802948849"/>
<text class="edge_text" text-anchor="middle" dominant-baseline="middle" transform="matrix(0.012952124014744246 0 0 0.012952124014744246 -1.4785318579434579 2.9418237551845494)">60</text>
<rect class="edge_bg" x="-1.3141607836555589" y="2.4077937380013656" width="0.2590424802948849" height="0.2590424802948849"/>
<text class="edge_text" text-anchor="middle" dominant-baseline="middle" transform="matrix(0.012952124014744246 0 0 0.012952124014744246 -1.1846395435081165 2.537314978148808)">59</text>
<rect class="edge_bg" x="-0.7817356079995946" y="1.2119471923706833" width="0.2590424802948849" height="0.2590424802948849"/>
<text class="edge_text" text-anchor="middle" dominant-baseline="middle" transform="matrix(0.012952124014744246 0 0 0.012952124014744246 -0.6522143678521521 1.3414684325181256)">41</text>
</svg>
