<?xml version="1.0" encoding="utf-8"?>
<svg version="1.1" xmlns="http://www.w3.org/2000/svg" viewBox="-2.4299339587149116 -0.9657769030595929 6.145984052188016 3.448717991062202" style="enable-background:new -2.4299339587149116 -0.9657769030595929 6.145984052188016 3.448717991062202;">
<style type="text/css">
  .face_stroke {fill:none; stroke:#000000; stroke-width:0.02; stroke-miterlimit:10;}
  .face_text {fill:#000000; font-family:monospace;}
  .edge_text {fill:#ff0000; font-family:monospace;}
  .edge_bg {fill:#f3f3f3; stroke:#606060; stroke-width:0.01;}
</style>
<polygon class="face_stroke" points="0.288675134594813,-0.5 -0.5773502691896258,-7.07050159149938e-17 0.288675134594813,0.5"/>
<polygon class="face_stroke" points="0.2886750397644132,0.4999999999999999 1.2397315560595668,0.8090169943749475 1.82751680835204,2.0834935792808685e-16 1.239731556059567,-0.8090169943749473 0.28867503976441344,-0.5000000000000001"/>
<polygon class="face_stroke" points="1.2397312841130843,0.8090165103690978 2.2342531794813576,0.9135449736367516 1.8275165364055577,-4.840058495103605e-07"/>
<polygon class="face_stroke" points="2.23425359582398,0.9135452097826345 3.2287754911922533,0.809016746514981 3.4366871820100124,-0.16913085421882454 2.570661778225574,-0.6691308542188246 1.8275169527481796,-2.4785996635690033e-07"/>
<polygon class="face_stroke" points="2.234253820682037,0.9135452839496898 2.3387822839496906,1.9080671793179635 3.333304179317963,1.8035387160503102 3.22877571605031,0.8090168206820363"/>
<polygon class="face_stroke" points="2.23425371605031,0.9135458206820366 1.239731820682037,1.01807428394969 1.3442602839496904,2.0125961793179634 2.3387821793179633,1.9080677160503101"/>
<polygon class="face_stroke" points="1.23973171605031,1.0180738206820366 0.24520982068203667,1.1226022839496899 0.3497382839496903,2.1171241793179636 1.3442601793179632,2.0125957160503103"/>
<polygon class="face_stroke" points="0.24520971605031,1.1226028206820367 -0.7493121793179633,1.22713128394969 -0.6447837160503096,2.221653179317964 0.3497381793179632,2.11712471605031"/>
<polygon class="face_stroke" points="-0.7493122839496901,1.2271308206820366 -1.7438341793179633,1.33165928394969 -1.6393057160503097,2.3261811793179636 -0.6447838206820369,2.2216527160503103"/>
<polygon class="face_stroke" points="-0.7493125088077466,1.227130746514981 -0.5414008179899873,0.24898314578117547 -1.4074262217744258,-0.2510168542188246 -2.15057104725182,0.41811375214003366 -1.7438344041760203,1.331659209782634"/>
<polygon class="face_stroke" points="-0.5414008654051871,0.248983 -0.5414008654051871,-0.751017 -1.4074262691896258,-0.25101700000000005"/>
<text class="face_text" text-anchor="middle" dominant-baseline="middle" transform="matrix(0.006897435982124404 0 0 0.006897435982124404 0.0 0.0)">22</text>
<text class="face_text" text-anchor="middle" dominant-baseline="middle" transform="matrix(0.006897435982124404 0 0 0.006897435982124404 0.976866 0.0)">21</text>
<text class="face_text" text-anchor="middle" dominant-baseline="middle" transform="matrix(0.006897435982124404 0 0 0.006897435982124404 1.767167 0.574187)">23</text>
<text class="face_text" text-anchor="middle" dominant-baseline="middle" transform="matrix(0.006897435982124404 0 0 0.006897435982124404 2.659579 0.17686)">24</text>
<text class="face_text" text-anchor="middle" dominant-baseline="middle" transform="matrix(0.006897435982124404 0 0 0.006897435982124404 2.783779 1.358542)">17</text>
<text class="face_text" text-anchor="middle" dominant-baseline="middle" transform="matrix(0.006897435982124404 0 0 0.006897435982124404 1.789257 1.463071)">19</text>
<text class="face_text" text-anchor="middle" dominant-baseline="middle" transform="matrix(0.006897435982124404 0 0 0.006897435982124404 0.794735 1.567599)">2</text>
<text class="face_text" text-anchor="middle" dominant-baseline="middle" transform="matrix(0.006897435982124404 0 0 0.006897435982124404 -0.199787 1.672128)">3</text>
<text class="face_text" text-anchor="middle" dominant-baseline="middle" transform="matrix(0.006897435982124404 0 0 0.006897435982124404 -1.194309 1.776656)">5</text>
<text class="face_text" text-anchor="middle" dominant-baseline="middle" transform="matrix(0.006897435982124404 0 0 0.006897435982124404 -1.318509 0.594974)">30</text>
<text class="face_text" text-anchor="middle" dominant-baseline="middle" transform="matrix(0.006897435982124404 0 0 0.006897435982124404 -0.830076 -0.251017)">31</text>
<rect class="edge_bg" x="0.21970067994316916" y="-0.06897435982124413" width="0.1379487196424881" height="0.1379487196424881"/>
<text class="edge_text" text-anchor="middle" dominant-baseline="middle" transform="matrix(0.006897435982124404 0 0 0.006897435982124404 0.2886750397644132 -8.427908566546547e-17)">37</text>
<rect class="edge_bg" x="1.464649550438077" y="0.33553365336038016" width="0.1379487196424881" height="0.1379487196424881"/>
<text class="edge_text" text-anchor="middle" dominant-baseline="middle" transform="matrix(0.006897435982124404 0 0 0.006897435982124404 1.533623910259321 0.4045080131816242)">39</text>
<rect class="edge_bg" x="1.9619109144648357" y="0.3877981211400902" width="0.1379487196424881" height="0.1379487196424881"/>
<text class="edge_text" text-anchor="middle" dominant-baseline="middle" transform="matrix(0.006897435982124404 0 0 0.006897435982124404 2.0308852742860797 0.45677248096133427)">41</text>
<rect class="edge_bg" x="2.662540408544929" y="0.7923066924946192" width="0.1379487196424881" height="0.1379487196424881"/>
<text class="edge_text" text-anchor="middle" dominant-baseline="middle" transform="matrix(0.006897435982124404 0 0 0.006897435982124404 2.731514768366173 0.8612810523158632)">40</text>
<rect class="edge_bg" x="2.2175435878628926" y="1.3418324085449294" width="0.1379487196424881" height="0.1379487196424881"/>
<text class="edge_text" text-anchor="middle" dominant-baseline="middle" transform="matrix(0.006897435982124404 0 0 0.006897435982124404 2.286517947684137 1.4108067683661734)">27</text>
<rect class="edge_bg" x="1.2230215878628927" y="1.4463604085449293" width="0.1379487196424881" height="0.1379487196424881"/>
<text class="edge_text" text-anchor="middle" dominant-baseline="middle" transform="matrix(0.006897435982124404 0 0 0.006897435982124404 1.2919959476841367 1.5153347683661733)">29</text>
<rect class="edge_bg" x="0.2284995878628927" y="1.5508894085449294" width="0.1379487196424881" height="0.1379487196424881"/>
<text class="edge_text" text-anchor="middle" dominant-baseline="middle" transform="matrix(0.006897435982124404 0 0 0.006897435982124404 0.29747394768413676 1.6198637683661734)">3</text>
<rect class="edge_bg" x="-0.7660224121371073" y="1.6554174085449294" width="0.1379487196424881" height="0.1379487196424881"/>
<text class="edge_text" text-anchor="middle" dominant-baseline="middle" transform="matrix(0.006897435982124404 0 0 0.006897435982124404 -0.6970480523158633 1.7243917683661734)">6</text>
<rect class="edge_bg" x="-1.3155478163131273" y="1.2104206183275636" width="0.1379487196424881" height="0.1379487196424881"/>
<text class="edge_text" text-anchor="middle" dominant-baseline="middle" transform="matrix(0.006897435982124404 0 0 0.006897435982124404 -1.2465734564918833 1.2793949781488076)">52</text>
<rect class="edge_bg" x="-1.0433879271186506" y="-0.06999135982124392" width="0.1379487196424881" height="0.1379487196424881"/>
<text class="edge_text" text-anchor="middle" dominant-baseline="middle" transform="matrix(0.006897435982124404 0 0 0.006897435982124404 -0.9744135672974065 -0.0010169999999998791)">56</text>
</svg>
