<?xml version="1.0" encoding="utf-8"?>
<svg version="1.1" xmlns="http://www.w3.org/2000/svg" viewBox="-2.0842516578701424 -1.1020352080385192 5.783840689398257 4.146779961629454" style="enable-background:new -2.0842516578701424 -1.1020352080385192 5.783840689398257 4.146779961629454;">
<style type="text/css">
  .face_stroke {fill:none; stroke:#000000; stroke-width:0.02; stroke-miterlimit:10;}
  .face_text {fill:#000000; font-family:monospace;}
  .edge_text {fill:#ff0000; font-family:monospace;}
  .edge_bg {fill:#f3f3f3; stroke:#606060; stroke-width:0.01;}
</style>
<polygon class="face_stroke" points="0.288675134594813,-0.5 -0.5773502691896258,-7.07050159149938e-17 0.288675134594813,0.5"/>
<polygon class="face_stroke" points="0.2886750397644132,0.4999999999999999 1.2397315560595668,0.8090169943749475 1.82751680835204,2.0834935792808685e-16 1.239731556059567,-0.8090169943749473 0.28867503976441344,-0.5000000000000001"/>
<polygon class="face_stroke" points="1.8275165364055577,4.840058495103605e-07 2.234253179481358,-0.9135449736367516 1.2397312841130845,-0.8090165103690982"/>
<polygon class="face_stroke" points="1.8275169527481796,2.478599661348557e-07 2.570661778225574,0.6691308542188246 3.4366871820100124,0.16913085421882454 3.2287754911922537,-0.8090167465149806 2.2342535958239806,-0.9135452097826349"/>
<polygon class="face_stroke" points="1.827516955113455,2.643024453741205e-07 1.6196052642956955,0.978147865036251 2.570661780590849,0.669130870661304"/>
<polygon class="face_stroke" points="1.6196052446649496,0.9781472390398969 1.928622239039897,1.9292037553350503 2.8796787553350507,1.6201867609601033 2.5706617609601032,0.6691302446649495"/>
<polygon class="face_stroke" points="1.6196047609601032,0.9781472446649495 0.6685482446649497,1.287164239039897 0.9775652390398969,2.2382207553350506 1.9286217553350506,1.9292037609601032"/>
<polygon class="face_stroke" points="0.6685487609601031,1.2871642446649494 -0.28250775533505046,1.5961812390398968 0.02650923903989677,2.5472377553350505 0.9775657553350504,2.238220760960103"/>
<polygon class="face_stroke" points="-0.2825082390398968,1.5961812446649493 -1.2335647553350504,1.9051982390398967 -0.9245477609601032,2.8562547553350504 0.026508755335050482,2.547237760960103"/>
<polygon class="face_stroke" points="-0.2825080397644132,1.596182 -0.2825080397644132,0.596182 -1.2335645560595667,0.28716500562505254 -1.8213498083520399,1.096182 -1.233564556059567,1.9051989943749472"/>
<polygon class="face_stroke" points="-0.2825082642956956,0.596181865036251 -0.49041995511345493,-0.38196573569755465 -1.2335647805908492,0.2871648706613035"/>
<text class="face_text" text-anchor="middle" dominant-baseline="middle" transform="matrix(0.008293559923258908 0 0 0.008293559923258908 0.0 0.0)">22</text>
<text class="face_text" text-anchor="middle" dominant-baseline="middle" transform="matrix(0.008293559923258908 0 0 0.008293559923258908 0.976866 0.0)">21</text>
<text class="face_text" text-anchor="middle" dominant-baseline="middle" transform="matrix(0.008293559923258908 0 0 0.008293559923258908 1.767167 -0.574187)">32</text>
<text class="face_text" text-anchor="middle" dominant-baseline="middle" transform="matrix(0.008293559923258908 0 0 0.008293559923258908 2.659579 -0.17686)">24</text>
<text class="face_text" text-anchor="middle" dominant-baseline="middle" transform="matrix(0.008293559923258908 0 0 0.008293559923258908 2.005928 0.549093)">23</text>
<text class="face_text" text-anchor="middle" dominant-baseline="middle" transform="matrix(0.008293559923258908 0 0 0.008293559923258908 2.249642 1.299167)">19</text>
<text class="face_text" text-anchor="middle" dominant-baseline="middle" transform="matrix(0.008293559923258908 0 0 0.008293559923258908 1.298585 1.608184)">2</text>
<text class="face_text" text-anchor="middle" dominant-baseline="middle" transform="matrix(0.008293559923258908 0 0 0.008293559923258908 0.347529 1.917201)">3</text>
<text class="face_text" text-anchor="middle" dominant-baseline="middle" transform="matrix(0.008293559923258908 0 0 0.008293559923258908 -0.603528 2.226218)">5</text>
<text class="face_text" text-anchor="middle" dominant-baseline="middle" transform="matrix(0.008293559923258908 0 0 0.008293559923258908 -0.970699 1.096182)">30</text>
<text class="face_text" text-anchor="middle" dominant-baseline="middle" transform="matrix(0.008293559923258908 0 0 0.008293559923258908 -0.668831 0.167127)">31</text>
<rect class="edge_bg" x="0.20573944053182414" y="-0.08293559923258916" width="0.16587119846517814" height="0.16587119846517814"/>
<text class="edge_text" text-anchor="middle" dominant-baseline="middle" transform="matrix(0.008293559923258908 0 0 0.008293559923258908 0.2886750397644132 -8.427908566546547e-17)">37</text>
<rect class="edge_bg" x="1.450688311026732" y="-0.4874436124142133" width="0.16587119846517814" height="0.16587119846517814"/>
<text class="edge_text" text-anchor="middle" dominant-baseline="middle" transform="matrix(0.008293559923258908 0 0 0.008293559923258908 1.533623910259321 -0.4045080131816242)">57</text>
<rect class="edge_bg" x="1.9479496750534906" y="-0.5397080801939234" width="0.16587119846517814" height="0.16587119846517814"/>
<text class="edge_text" text-anchor="middle" dominant-baseline="middle" transform="matrix(0.008293559923258908 0 0 0.008293559923258908 2.0308852742860797 -0.45677248096133427)">58</text>
<rect class="edge_bg" x="2.1161537686195633" y="0.2516299682492854" width="0.16587119846517814" height="0.16587119846517814"/>
<text class="edge_text" text-anchor="middle" dominant-baseline="middle" transform="matrix(0.008293559923258908 0 0 0.008293559923258908 2.199089367852152 0.3345655674818745)">41</text>
<rect class="edge_bg" x="2.0121979035799376" y="0.7407031426198339" width="0.16587119846517814" height="0.16587119846517814"/>
<text class="edge_text" text-anchor="middle" dominant-baseline="middle" transform="matrix(0.008293559923258908 0 0 0.008293559923258908 2.0951335028125264 0.823638741852423)">38</text>
<rect class="edge_bg" x="1.6911776589149878" y="1.3707399035799372" width="0.16587119846517814" height="0.16587119846517814"/>
<text class="edge_text" text-anchor="middle" dominant-baseline="middle" transform="matrix(0.008293559923258908 0 0 0.008293559923258908 1.774113258147577 1.4536755028125263)">29</text>
<rect class="edge_bg" x="0.7401216589149877" y="1.6797569035799371" width="0.16587119846517814" height="0.16587119846517814"/>
<text class="edge_text" text-anchor="middle" dominant-baseline="middle" transform="matrix(0.008293559923258908 0 0 0.008293559923258908 0.8230572581475768 1.7626925028125262)">3</text>
<rect class="edge_bg" x="-0.21093534108501216" y="1.988773903579937" width="0.16587119846517814" height="0.16587119846517814"/>
<text class="edge_text" text-anchor="middle" dominant-baseline="middle" transform="matrix(0.008293559923258908 0 0 0.008293559923258908 -0.12799974185242308 2.071709502812526)">6</text>
<rect class="edge_bg" x="-0.8409718971445791" y="1.6677548979548846" width="0.16587119846517814" height="0.16587119846517814"/>
<text class="edge_text" text-anchor="middle" dominant-baseline="middle" transform="matrix(0.008293559923258908 0 0 0.008293559923258908 -0.75803629791199 1.7506904971874737)">52</text>
<rect class="edge_bg" x="-0.8409721216758616" y="0.35873776861618834" width="0.16587119846517814" height="0.16587119846517814"/>
<text class="edge_text" text-anchor="middle" dominant-baseline="middle" transform="matrix(0.008293559923258908 0 0 0.008293559923258908 -0.7580365224432725 0.4416733678487774)">56</text>
</svg>
