<?xml version="1.0" encoding="utf-8"?>
<svg version="1.1" id="layer_1" xmlns="http://www.w3.org/2000/svg" xmlns:xlink="http://www.w3.org/1999/xlink" x="0px" y="0px" viewBox="-0.9006508083520399 -1.0500000000000003 4.11403285560386 3.7472776007338062" style="enable-background:new -0.9006508083520399 -1.0500000000000003 4.11403285560386 3.7472776007338062;" xml:space="preserve">
<style type="text/css">
  .no_fill_black_stroke {fill:none; stroke:#000000; stroke-width:0.02; stroke-miterlimit:10;}
  .face_text {fill:#000000; font-family:monospace;}
  .edge_text {fill:#ff0000; font-family:monospace;}
  .edge_bg {fill:#f3f3f3; stroke:#606060; stroke-width:0.02;}
</style>
<polygon class="no_fill_black_stroke" points="0.6881909602355868, -0.5 -0.26286555605956674, -0.8090169943749475 -0.8506508083520399, -1.0417467896404342e-16 -0.2628655560595669, 0.8090169943749473 0.6881909602355867, 0.5000000000000001"/>
<polygon class="no_fill_black_stroke" points="0.6881945962155611, 0.5000000000000002 1.5542199999999997, 1.0000000000000002 2.4202454037844383, 0.5000000000000006 2.420245403784439, -0.4999999999999994 1.5542200000000002, -1.0000000000000002 0.6881945962155609, -0.4999999999999999"/>
<polygon class="no_fill_black_stroke" points="1.5542118179899873, 0.9999991457811752 1.7621235088077463, 1.9781467465149807 2.75664540417602, 2.0826752097826344 3.16338204725182, 1.1691297521400343 2.4202372217744257, 0.49999914578117555"/>
<polygon class="no_fill_black_stroke" points="1.5542168254773943, 0.9999993936411417 0.6031603091822408, 0.6909823992661941 -0.13998451629515374, 1.3601130056250526 0.06792717452260566, 2.3382606063588582 1.0189836908177585, 2.647277600733806 1.7621285162951539, 1.9781469943749477"/>
<text class="face_text" text-anchor="middle" dominant-baseline="middle" transform="matrix(0.0074945552014676125 0 0 0.0074945552014676125 0.0 0.0)">0</text>
<text class="face_text" text-anchor="middle" dominant-baseline="middle" transform="matrix(0.0074945552014676125 0 0 0.0074945552014676125 1.55422 0.0)">1</text>
<text class="face_text" text-anchor="middle" dominant-baseline="middle" transform="matrix(0.0074945552014676125 0 0 0.0074945552014676125 2.33132 1.34599)">8</text>
<text class="face_text" text-anchor="middle" dominant-baseline="middle" transform="matrix(0.0074945552014676125 0 0 0.0074945552014676125 0.811072 1.66913)">7</text>
<rect class="edge_bg" x="0.613249044200885" y="-0.07494555201467623" width="0.14989110402935224" height="0.14989110402935224"/>
<text class="edge_text" text-anchor="middle" dominant-baseline="middle" transform="matrix(0.0074945552014676125 0 0 0.0074945552014676125 0.6881945962155611 -1.0605752387249072e-16)">2</text>
<rect class="edge_bg" x="1.9122789678675303" y="0.6750535937664992" width="0.14989110402935224" height="0.14989110402935224"/>
<text class="edge_text" text-anchor="middle" dominant-baseline="middle" transform="matrix(0.0074945552014676125 0 0 0.0074945552014676125 1.9872245198822065 0.7499991457811753)">14</text>
<rect class="edge_bg" x="1.5832271188715978" y="1.4141276419933684" width="0.14989110402935224" height="0.14989110402935224"/>
<text class="edge_text" text-anchor="middle" dominant-baseline="middle" transform="matrix(0.0074945552014676125 0 0 0.0074945552014676125 1.658172670886274 1.4890731940080446)">15</text>
</svg>
