<?xml version="1.0" encoding="utf-8"?>
<svg version="1.1" id="layer_1" xmlns="http://www.w3.org/2000/svg" xmlns:xlink="http://www.w3.org/1999/xlink" x="0px" y="0px" viewBox="-3.0431565162951535 -1.9333466007338058 6.2565385635469735 4.990734201467612" style="enable-background:new -3.0431565162951535 -1.9333466007338058 6.2565385635469735 4.990734201467612;" xml:space="preserve">
<style type="text/css">
  .no_fill_black_stroke {fill:none; stroke:#000000; stroke-width:0.02; stroke-miterlimit:10;}
  .face_text {fill:#000000; font-family:monospace;}
  .edge_text {fill:#ff0000; font-family:monospace;}
  .edge_bg {fill:#f3f3f3; stroke:#606060; stroke-width:0.02;}
</style>
<polygon class="no_fill_black_stroke" points="0.6881909602355868, -0.5 -0.26286555605956674, -0.8090169943749475 -0.8506508083520399, -1.0417467896404342e-16 -0.2628655560595669, 0.8090169943749473 0.6881909602355867, 0.5000000000000001"/>
<polygon class="no_fill_black_stroke" points="0.6881945962155611, 0.5000000000000002 1.5542199999999997, 1.0000000000000002 2.4202454037844383, 0.5000000000000006 2.420245403784439, -0.4999999999999994 1.5542200000000002, -1.0000000000000002 0.6881945962155609, -0.4999999999999999"/>
<polygon class="no_fill_black_stroke" points="1.5542118179899873, 0.9999991457811752 1.7621235088077463, 1.9781467465149807 2.75664540417602, 2.0826752097826344 3.16338204725182, 1.1691297521400343 2.4202372217744257, 0.49999914578117555"/>
<polygon class="no_fill_black_stroke" points="1.5542168254773943, 0.9999993936411417 0.6031603091822408, 0.6909823992661941 -0.13998451629515374, 1.3601130056250526 0.06792717452260566, 2.3382606063588582 1.0189836908177585, 2.647277600733806 1.7621285162951539, 1.9781469943749477"/>
<polygon class="no_fill_black_stroke" points="-0.13998517452260562, 1.360109393641142 -1.0910416908177591, 1.0510923992661942 -1.8341865162951536, 1.7202230056250527 -1.6262748254773944, 2.6983706063588584 -0.6752183091822413, 3.0073876007338063 0.06792651629515378, 2.338256994374948"/>
<polygon class="no_fill_black_stroke" points="-1.0910434837048464, 1.0510969943749475 -1.2989551745226056, 0.07294939364114161 -2.250011690817759, -0.23606760073380595 -2.9931565162951537, 0.4330630056250524 -2.7852448254773945, 1.4112106063588583 -1.8341883091822413, 1.720227600733806"/>
<polygon class="no_fill_black_stroke" points="-1.2989483091822405, 0.07294860073380582 -0.5558034837048463, -0.5961820056250525 -0.7637151745226057, -1.5743296063588583 -1.7147716908177593, -1.8833466007338058 -2.4579165162951537, -1.2142159943749475 -2.2500048254773946, -0.23606839364114163"/>
<text class="face_text" text-anchor="middle" dominant-baseline="middle" transform="matrix(0.009981468402935224 0 0 0.009981468402935224 0.0 0.0)">0</text>
<text class="face_text" text-anchor="middle" dominant-baseline="middle" transform="matrix(0.009981468402935224 0 0 0.009981468402935224 1.55422 0.0)">1</text>
<text class="face_text" text-anchor="middle" dominant-baseline="middle" transform="matrix(0.009981468402935224 0 0 0.009981468402935224 2.33132 1.34599)">8</text>
<text class="face_text" text-anchor="middle" dominant-baseline="middle" transform="matrix(0.009981468402935224 0 0 0.009981468402935224 0.811072 1.66913)">7</text>
<text class="face_text" text-anchor="middle" dominant-baseline="middle" transform="matrix(0.009981468402935224 0 0 0.009981468402935224 -0.88313 2.02924)">15</text>
<text class="face_text" text-anchor="middle" dominant-baseline="middle" transform="matrix(0.009981468402935224 0 0 0.009981468402935224 -2.0421 0.74208)">6</text>
<text class="face_text" text-anchor="middle" dominant-baseline="middle" transform="matrix(0.009981468402935224 0 0 0.009981468402935224 -1.50686 -0.905199)">2</text>
<rect class="edge_bg" x="0.5883799121862089" y="-0.09981468402935235" width="0.1996293680587045" height="0.1996293680587045"/>
<text class="edge_text" text-anchor="middle" dominant-baseline="middle" transform="matrix(0.009981468402935224 0 0 0.009981468402935224 0.6881945962155611 -1.0605752387249072e-16)">2</text>
<rect class="edge_bg" x="1.8874098358528542" y="0.6501844617518231" width="0.1996293680587045" height="0.1996293680587045"/>
<text class="edge_text" text-anchor="middle" dominant-baseline="middle" transform="matrix(0.009981468402935224 0 0 0.009981468402935224 1.9872245198822065 0.7499991457811753)">14</text>
<rect class="edge_bg" x="1.5583579868569217" y="1.3892585099786923" width="0.1996293680587045" height="0.1996293680587045"/>
<text class="edge_text" text-anchor="middle" dominant-baseline="middle" transform="matrix(0.009981468402935224 0 0 0.009981468402935224 1.658172670886274 1.4890731940080446)">15</text>
<rect class="edge_bg" x="-0.13584401314307804" y="1.7493685099786924" width="0.1996293680587045" height="0.1996293680587045"/>
<text class="edge_text" text-anchor="middle" dominant-baseline="middle" transform="matrix(0.009981468402935224 0 0 0.009981468402935224 -0.036029329113725805 1.8491831940080448)">35</text>
<rect class="edge_bg" x="-1.5624305804728957" y="1.2858476135250243" width="0.1996293680587045" height="0.1996293680587045"/>
<text class="edge_text" text-anchor="middle" dominant-baseline="middle" transform="matrix(0.009981468402935224 0 0 0.009981468402935224 -1.4626158964435434 1.3856622975543766)">32</text>
<rect class="edge_bg" x="-1.8742912513591699" y="-0.18137458048302002" width="0.1996293680587045" height="0.1996293680587045"/>
<text class="edge_text" text-anchor="middle" dominant-baseline="middle" transform="matrix(0.009981468402935224 0 0 0.009981468402935224 -1.7744765673298175 -0.08155989645366779)">9</text>
</svg>
