<?xml version="1.0" encoding="utf-8"?>
<svg version="1.1" id="layer_1" xmlns="http://www.w3.org/2000/svg" xmlns:xlink="http://www.w3.org/1999/xlink" x="0px" y="0px" viewBox="-2.5755018953682733 -4.182325457642601 6.947858411663427 6.315000667425235" style="enable-background:new -2.5755018953682733 -4.182325457642601 6.947858411663427 6.315000667425235;" xml:space="preserve">
<style type="text/css">
  .no_fill_black_stroke {fill:none; stroke:#000000; stroke-width:0.02; stroke-miterlimit:10;}
  .face_text {fill:#000000; font-family:monospace;}
  .edge_text {fill:#ff0000; font-family:monospace;}
  .edge_bg {fill:#f3f3f3; stroke:#606060; stroke-width:0.02;}
</style>
<polygon class="no_fill_black_stroke" points="0.6881909602355868, -0.5 -0.26286555605956674, -0.8090169943749475 -0.8506508083520399, -1.0417467896404342e-16 -0.2628655560595669, 0.8090169943749473 0.6881909602355867, 0.5000000000000001"/>
<polygon class="no_fill_black_stroke" points="0.6881945962155611, 0.5000000000000002 1.5542199999999997, 1.0000000000000002 2.4202454037844383, 0.5000000000000006 2.420245403784439, -0.4999999999999994 1.5542200000000002, -1.0000000000000002 0.6881945962155609, -0.4999999999999999"/>
<polygon class="no_fill_black_stroke" points="1.5542118179899873, 0.9999991457811752 1.7621235088077463, 1.9781467465149807 2.75664540417602, 2.0826752097826344 3.16338204725182, 1.1691297521400343 2.4202372217744257, 0.49999914578117555"/>
<polygon class="no_fill_black_stroke" points="3.163388309182241, 1.1691306007338058 4.114444825477395, 0.8601136063588584 4.322356516295154, -0.11803399437494744 3.57921169081776, -0.7871646007338058 2.628155174522606, -0.47814760635885856 2.4202434837048465, 0.4999999943749478"/>
<polygon class="no_fill_black_stroke" points="3.579210960235587, -0.7871600000000001 3.579210960235587, -1.78716 2.628154443940433, -2.0961769943749475 2.0403691916479603, -1.28716 2.628154443940433, -0.47814300562505274"/>
<polygon class="no_fill_black_stroke" points="2.6281518953682736, -2.0961815367323466 2.221415252292473, -3.0097269943749474 1.2268933569241998, -3.114255457642601 0.6391081046317264, -2.3052384632676537 1.0458447477075266, -1.3916930056250525 2.0403666430758007, -1.287164542357399"/>
<polygon class="no_fill_black_stroke" points="1.2268948953682735, -3.114251536732347 0.8201582522924733, -4.027796994374948 -0.17436364307580016, -4.132325457642601 -0.7621488953682736, -3.323308463267654 -0.35541225229247336, -2.4097630056250527 0.6391096430758006, -2.3052345423573994"/>
<polygon class="no_fill_black_stroke" points="-0.7621447477075268, -3.323316994374948 -1.7566666430758002, -3.427845457642601 -2.3444518953682736, -2.6188284632676537 -1.9377152522924734, -1.7052830056250525 -0.9431933569241995, -1.600754542357399 -0.35540810463172656, -2.4097715367323467"/>
<polygon class="no_fill_black_stroke" points="-1.9377166430758002, -1.7052784576426012 -2.5255018953682735, -0.8962614632676538 -2.1187652522924734, 0.017283994374947542 -1.1242433569241994, 0.12181245764260096 -0.5364581046317265, -0.6872045367323466 -0.9431947477075259, -1.600749994374947"/>
<text class="face_text" text-anchor="middle" dominant-baseline="middle" transform="matrix(0.012630001334850469 0 0 0.012630001334850469 0.0 0.0)">0</text>
<text class="face_text" text-anchor="middle" dominant-baseline="middle" transform="matrix(0.012630001334850469 0 0 0.012630001334850469 1.55422 0.0)">1</text>
<text class="face_text" text-anchor="middle" dominant-baseline="middle" transform="matrix(0.012630001334850469 0 0 0.012630001334850469 2.33132 1.34599)">8</text>
<text class="face_text" text-anchor="middle" dominant-baseline="middle" transform="matrix(0.012630001334850469 0 0 0.012630001334850469 3.3713 0.190983)">9</text>
<text class="face_text" text-anchor="middle" dominant-baseline="middle" transform="matrix(0.012630001334850469 0 0 0.012630001334850469 2.89102 -1.28716)">3</text>
<text class="face_text" text-anchor="middle" dominant-baseline="middle" transform="matrix(0.012630001334850469 0 0 0.012630001334850469 1.63363 -2.20071)">2</text>
<text class="face_text" text-anchor="middle" dominant-baseline="middle" transform="matrix(0.012630001334850469 0 0 0.012630001334850469 0.232373 -3.21878)">6</text>
<text class="face_text" text-anchor="middle" dominant-baseline="middle" transform="matrix(0.012630001334850469 0 0 0.012630001334850469 -1.34993 -2.5143)">15</text>
<text class="face_text" text-anchor="middle" dominant-baseline="middle" transform="matrix(0.012630001334850469 0 0 0.012630001334850469 -1.53098 -0.791733)">7</text>
<rect class="edge_bg" x="0.5618945828670564" y="-0.1263000133485048" width="0.25260002669700937" height="0.25260002669700937"/>
<text class="edge_text" text-anchor="middle" dominant-baseline="middle" transform="matrix(0.012630001334850469 0 0 0.012630001334850469 0.6881945962155611 -1.0605752387249072e-16)">2</text>
<rect class="edge_bg" x="1.860924506533702" y="0.6236991324326706" width="0.25260002669700937" height="0.25260002669700937"/>
<text class="edge_text" text-anchor="middle" dominant-baseline="middle" transform="matrix(0.012630001334850469 0 0 0.012630001334850469 1.9872245198822065 0.7499991457811753)">14</text>
<rect class="edge_bg" x="2.665515883095039" y="0.708265284205872" width="0.25260002669700937" height="0.25260002669700937"/>
<text class="edge_text" text-anchor="middle" dominant-baseline="middle" transform="matrix(0.012630001334850469 0 0 0.012630001334850469 2.7918158964435436 0.8345652975543767)">17</text>
<rect class="edge_bg" x="2.9773826887395054" y="-0.7589515161610311" width="0.25260002669700937" height="0.25260002669700937"/>
<text class="edge_text" text-anchor="middle" dominant-baseline="middle" transform="matrix(0.012630001334850469 0 0 0.012630001334850469 3.10368270208801 -0.6326515028125264)">18</text>
<rect class="edge_bg" x="2.2079592558735324" y="-1.8179730528933773" width="0.25260002669700937" height="0.25260002669700937"/>
<text class="edge_text" text-anchor="middle" dominant-baseline="middle" transform="matrix(0.012630001334850469 0 0 0.012630001334850469 2.334259269222037 -1.6916730395448727)">3</text>
<rect class="edge_bg" x="0.8067022558735323" y="-2.8360430528933773" width="0.25260002669700937" height="0.25260002669700937"/>
<text class="edge_text" text-anchor="middle" dominant-baseline="middle" transform="matrix(0.012630001334850469 0 0 0.012630001334850469 0.933002269222037 -2.7097430395448727)">9</text>
<rect class="edge_bg" x="-0.6850764395181315" y="-2.9928442789021514" width="0.25260002669700937" height="0.25260002669700937"/>
<text class="edge_text" text-anchor="middle" dominant-baseline="middle" transform="matrix(0.012630001334850469 0 0 0.012630001334850469 -0.5587764261696267 -2.866544265553647)">32</text>
<rect class="edge_bg" x="-1.5667557087401682" y="-1.779314239357279" width="0.25260002669700937" height="0.25260002669700937"/>
<text class="edge_text" text-anchor="middle" dominant-baseline="middle" transform="matrix(0.012630001334850469 0 0 0.012630001334850469 -1.4404556953916636 -1.6530142260087743)">35</text>
</svg>
