<?xml version="1.0" encoding="utf-8"?>
<svg version="1.1" id="layer_1" xmlns="http://www.w3.org/2000/svg" xmlns:xlink="http://www.w3.org/1999/xlink" x="0px" y="0px" viewBox="-3.0917308083520396 -2.0573876007338057 6.947852703720313 5.20356845495263" style="enable-background:new -3.0917308083520396 -2.0573876007338057 6.947852703720313 5.20356845495263;" xml:space="preserve">
<style type="text/css">
  .no_fill_black_stroke {fill:none; stroke:#000000; stroke-width:0.02; stroke-miterlimit:10;}
  .face_text {fill:#000000; font-family:monospace;}
  .edge_text {fill:#ff0000; font-family:monospace;}
  .edge_bg {fill:#f3f3f3; stroke:#606060; stroke-width:0.02;}
</style>
<polygon class="no_fill_black_stroke" points="0.8660254037844389, -0.5 6.123233995736767e-17, -1.0000000000000002 -0.8660254037844389, -0.5 -0.8660254037844388, 0.5000000000000002 -1.8369701987210302e-16, 1.0000000000000002 0.8660254037844386, 0.5000000000000006"/>
<polygon class="no_fill_black_stroke" points="0.8660290397644131, 0.4999999999999999 1.8170855560595665, 0.8090169943749475 2.40487080835204, 2.0834935792808685e-16 1.817085556059567, -0.8090169943749473 0.8660290397644134, -0.5000000000000001"/>
<polygon class="no_fill_black_stroke" points="1.8170781046317264, 0.8090165367323463 2.2238147477075265, 1.7225619943749475 3.2183366430758005, 1.827090457642601 3.8061218953682734, 1.0180734632676536 3.399385252292474, 0.10452800562505304 2.4048633569241993, -4.5764260092617803e-07"/>
<polygon class="no_fill_black_stroke" points="1.8170852522924732, 0.8090130056250524 0.8225633569241999, 0.7044845423573989 0.23477810463172655, 1.5135015367323463 0.6415147477075267, 2.4270469943749475 1.6360366430758007, 2.5315754576426013 2.223821895368274, 1.7225584632676536"/>
<polygon class="no_fill_black_stroke" points="0.23477440417602005, 1.5135047902173655 -0.7597474911922534, 1.6180332534850188 -0.9676591820100129, 2.596180854218824 -0.10163377822557448, 3.0961808542188245 0.6415110472518201, 2.4270502478599667"/>
<polygon class="no_fill_black_stroke" points="-0.7597434837048463, 1.6180330056250525 -1.5028883091822407, 0.9489023992661941 -2.4539448254773943, 1.2579193936411412 -2.661856516295154, 2.236066994374948 -1.91871169081776, 2.9051976007338056 -0.9676551745226056, 2.596180606358858"/>
<polygon class="no_fill_black_stroke" points="-1.5028890397644132, 0.948903 -1.5028890397644132, -0.051097000000000004 -2.4539455560595664, -0.36011399437494745 -3.04173080835204, 0.4489029999999999 -2.453945556059567, 1.2579199943749473"/>
<polygon class="no_fill_black_stroke" points="-1.5028883091822407, -0.05109239926619413 -0.7597434837048463, -0.7202230056250525 -0.9676551745226057, -1.6983706063588584 -1.9187116908177593, -2.007387600733806 -2.661856516295154, -1.3382569943749476 -2.4539448254773943, -0.3601093936411416"/>
<text class="face_text" text-anchor="middle" dominant-baseline="middle" transform="matrix(0.01040713690990526 0 0 0.01040713690990526 0.0 0.0)">1</text>
<text class="face_text" text-anchor="middle" dominant-baseline="middle" transform="matrix(0.01040713690990526 0 0 0.01040713690990526 1.55422 0.0)">0</text>
<text class="face_text" text-anchor="middle" dominant-baseline="middle" transform="matrix(0.01040713690990526 0 0 0.01040713690990526 2.8116 0.913545)">6</text>
<text class="face_text" text-anchor="middle" dominant-baseline="middle" transform="matrix(0.01040713690990526 0 0 0.01040713690990526 1.2293 1.61803)">2</text>
<text class="face_text" text-anchor="middle" dominant-baseline="middle" transform="matrix(0.01040713690990526 0 0 0.01040713690990526 -0.190551 2.25019)">3</text>
<text class="face_text" text-anchor="middle" dominant-baseline="middle" transform="matrix(0.01040713690990526 0 0 0.01040713690990526 -1.7108 1.92705)">9</text>
<text class="face_text" text-anchor="middle" dominant-baseline="middle" transform="matrix(0.01040713690990526 0 0 0.01040713690990526 -2.19108 0.448903)">8</text>
<text class="face_text" text-anchor="middle" dominant-baseline="middle" transform="matrix(0.01040713690990526 0 0 0.01040713690990526 -1.7108 -1.02924)">7</text>
<rect class="edge_bg" x="0.7619576706653606" y="-0.10407136909905268" width="0.2081427381981052" height="0.2081427381981052"/>
<text class="edge_text" text-anchor="middle" dominant-baseline="middle" transform="matrix(0.01040713690990526 0 0 0.01040713690990526 0.8660290397644131 -8.427908566546547e-17)">2</text>
<rect class="edge_bg" x="2.0068993616789106" y="0.3004366704458201" width="0.2081427381981052" height="0.2081427381981052"/>
<text class="edge_text" text-anchor="middle" dominant-baseline="middle" transform="matrix(0.01040713690990526 0 0 0.01040713690990526 2.110970730777963 0.4045080395448727)">11</text>
<rect class="edge_bg" x="1.9163822047313206" y="1.1617143653473003" width="0.2081427381981052" height="0.2081427381981052"/>
<text class="edge_text" text-anchor="middle" dominant-baseline="middle" transform="matrix(0.01040713690990526 0 0 0.01040713690990526 2.0204535738303733 1.265785734446353)">9</text>
<rect class="edge_bg" x="0.3340713566148674" y="1.8662061499396132" width="0.2081427381981052" height="0.2081427381981052"/>
<text class="edge_text" text-anchor="middle" dominant-baseline="middle" transform="matrix(0.01040713690990526 0 0 0.01040713690990526 0.43814272571392 1.9702775190386659)">3</text>
<rect class="edge_bg" x="-0.9677706982127785" y="2.003035436892903" width="0.2081427381981052" height="0.2081427381981052"/>
<text class="edge_text" text-anchor="middle" dominant-baseline="middle" transform="matrix(0.01040713690990526 0 0 0.01040713690990526 -0.8636993291137259 2.1071068059919553)">18</text>
<rect class="edge_bg" x="-2.0824886670110425" y="0.9993401280884212" width="0.2081427381981052" height="0.2081427381981052"/>
<text class="edge_text" text-anchor="middle" dominant-baseline="middle" transform="matrix(0.01040713690990526 0 0 0.01040713690990526 -1.9784172979119898 1.1034114971874738)">17</text>
<rect class="edge_bg" x="-2.08248793642887" y="-0.3096722655527203" width="0.2081427381981052" height="0.2081427381981052"/>
<text class="edge_text" text-anchor="middle" dominant-baseline="middle" transform="matrix(0.01040713690990526 0 0 0.01040713690990526 -1.9784165673298175 -0.20560089645366775)">15</text>
</svg>
