<?xml version="1.0" encoding="utf-8"?>
<svg version="1.1" id="layer_1" xmlns="http://www.w3.org/2000/svg" xmlns:xlink="http://www.w3.org/1999/xlink" x="0px" y="0px" viewBox="-2.2829054037844387 -1.0500000000000003 6.139027299152712 7.893115209782634" style="enable-background:new -2.2829054037844387 -1.0500000000000003 6.139027299152712 7.893115209782634;" xml:space="preserve">
<style type="text/css">
  .no_fill_black_stroke {fill:none; stroke:#000000; stroke-width:0.02; stroke-miterlimit:10;}
  .face_text {fill:#000000; font-family:monospace;}
  .edge_text {fill:#ff0000; font-family:monospace;}
  .edge_bg {fill:#f3f3f3; stroke:#606060; stroke-width:0.02;}
</style>
<polygon class="no_fill_black_stroke" points="0.8660254037844389, -0.5 6.123233995736767e-17, -1.0000000000000002 -0.8660254037844389, -0.5 -0.8660254037844388, 0.5000000000000002 -1.8369701987210302e-16, 1.0000000000000002 0.8660254037844386, 0.5000000000000006"/>
<polygon class="no_fill_black_stroke" points="0.8660290397644131, 0.4999999999999999 1.8170855560595665, 0.8090169943749475 2.40487080835204, 2.0834935792808685e-16 1.817085556059567, -0.8090169943749473 0.8660290397644134, -0.5000000000000001"/>
<polygon class="no_fill_black_stroke" points="1.8170781046317264, 0.8090165367323463 2.2238147477075265, 1.7225619943749475 3.2183366430758005, 1.827090457642601 3.8061218953682734, 1.0180734632676536 3.399385252292474, 0.10452800562505304 2.4048633569241993, -4.5764260092617803e-07"/>
<polygon class="no_fill_black_stroke" points="2.2238145958239803, 1.7225647902173655 1.8170779527481797, 2.636110247859966 2.560222778225574, 3.3052408542188245 3.4262481820100126, 2.8052408542188245 3.218336491192254, 1.8270932534850193"/>
<polygon class="no_fill_black_stroke" points="1.8170816908177594, 2.636112399266194 0.8660251745226059, 2.945129393641141 0.6581134837048462, 3.9232769943749477 1.4012583091822401, 4.5924076007338055 2.3523148254773947, 4.283390606358858 2.560226516295154, 3.3052430056250524"/>
<polygon class="no_fill_black_stroke" points="0.6581136908177595, 3.923272399266194 -0.29294282547739414, 4.232289393641142 -0.5008545162951538, 5.210436994374947 0.24229030918224015, 5.879567600733806 1.1933468254773945, 5.570550606358858 1.4012585162951539, 4.592403005625052"/>
<polygon class="no_fill_black_stroke" points="-0.500854778225574, 5.210439145781176 -1.3668801820100125, 5.710439145781175 -1.1589684911922535, 6.68858674651498 -0.1644465958239799, 6.793115209782634 0.24229004725182035, 5.879569752140034"/>
<polygon class="no_fill_black_stroke" points="-0.5008545962155612, 5.21044 -0.5008545962155612, 4.21044 -1.36688, 3.71044 -2.232905403784439, 4.21044 -2.232905403784439, 5.21044 -1.3668800000000003, 5.71044"/>
<polygon class="no_fill_black_stroke" points="-0.500854778225574, 4.210440854218825 0.24229004725182024, 3.5413102478599665 -0.1644465958239799, 2.6277647902173658 -1.1589684911922533, 2.732293253485019 -1.366880182010013, 3.7104408542188243"/>
<polygon class="no_fill_black_stroke" points="-0.16444674770752676, 2.6277569943749475 0.2422898953682735, 1.7142115367323465 -0.3454953569241997, 0.9051945423573989 -1.3400172522924731, 1.0097230056250523 -1.7467538953682737, 1.923268463267653 -1.1589686430758002, 2.7322854576426012"/>
<text class="face_text" text-anchor="middle" dominant-baseline="middle" transform="matrix(0.012278054598305424 0 0 0.012278054598305424 0.0 0.0)">1</text>
<text class="face_text" text-anchor="middle" dominant-baseline="middle" transform="matrix(0.012278054598305424 0 0 0.012278054598305424 1.55422 0.0)">0</text>
<text class="face_text" text-anchor="middle" dominant-baseline="middle" transform="matrix(0.012278054598305424 0 0 0.012278054598305424 2.8116 0.913545)">6</text>
<text class="face_text" text-anchor="middle" dominant-baseline="middle" transform="matrix(0.012278054598305424 0 0 0.012278054598305424 2.64914 2.45925)">5</text>
<text class="face_text" text-anchor="middle" dominant-baseline="middle" transform="matrix(0.012278054598305424 0 0 0.012278054598305424 1.60917 3.61426)">4</text>
<text class="face_text" text-anchor="middle" dominant-baseline="middle" transform="matrix(0.012278054598305424 0 0 0.012278054598305424 0.450202 4.90142)">10</text>
<text class="face_text" text-anchor="middle" dominant-baseline="middle" transform="matrix(0.012278054598305424 0 0 0.012278054598305424 -0.589772 6.05643)">18</text>
<text class="face_text" text-anchor="middle" dominant-baseline="middle" transform="matrix(0.012278054598305424 0 0 0.012278054598305424 -1.36688 4.71044)">9</text>
<text class="face_text" text-anchor="middle" dominant-baseline="middle" transform="matrix(0.012278054598305424 0 0 0.012278054598305424 -0.589772 3.36445)">3</text>
<text class="face_text" text-anchor="middle" dominant-baseline="middle" transform="matrix(0.012278054598305424 0 0 0.012278054598305424 -0.752232 1.81874)">2</text>
<rect class="edge_bg" x="0.7432484937813589" y="-0.12278054598305432" width="0.24556109196610848" height="0.24556109196610848"/>
<text class="edge_text" text-anchor="middle" dominant-baseline="middle" transform="matrix(0.012278054598305424 0 0 0.012278054598305424 0.8660290397644131 -8.427908566546547e-17)">2</text>
<rect class="edge_bg" x="1.9881901847949088" y="0.2817274935618185" width="0.24556109196610848" height="0.24556109196610848"/>
<text class="edge_text" text-anchor="middle" dominant-baseline="middle" transform="matrix(0.012278054598305424 0 0 0.012278054598305424 2.110970730777963 0.4045080395448727)">11</text>
<rect class="edge_bg" x="2.598294997525062" y="1.652048475868138" width="0.24556109196610848" height="0.24556109196610848"/>
<text class="edge_text" text-anchor="middle" dominant-baseline="middle" transform="matrix(0.012278054598305424 0 0 0.012278054598305424 2.7210755435081166 1.7748290218511922)">10</text>
<rect class="edge_bg" x="2.065873557573402" y="2.847897156462569" width="0.24556109196610848" height="0.24556109196610848"/>
<text class="edge_text" text-anchor="middle" dominant-baseline="middle" transform="matrix(0.012278054598305424 0 0 0.012278054598305424 2.1886541035564564 2.9706777024456232)">8</text>
<rect class="edge_bg" x="0.9069055575734024" y="4.135057156462569" width="0.24556109196610848" height="0.24556109196610848"/>
<text class="edge_text" text-anchor="middle" dominant-baseline="middle" transform="matrix(0.012278054598305424 0 0 0.012278054598305424 1.0296861035564566 4.257837702445623)">21</text>
<rect class="edge_bg" x="-0.2520629114699311" y="5.42222390297755" width="0.24556109196610848" height="0.24556109196610848"/>
<text class="edge_text" text-anchor="middle" dominant-baseline="middle" transform="matrix(0.012278054598305424 0 0 0.012278054598305424 -0.12928236548687688 5.545004448960604)">43</text>
<rect class="edge_bg" x="-1.056647844090835" y="5.337659454016946" width="0.24556109196610848" height="0.24556109196610848"/>
<text class="edge_text" text-anchor="middle" dominant-baseline="middle" transform="matrix(0.012278054598305424 0 0 0.012278054598305424 -0.9338672981077806 5.46044)">41</text>
<rect class="edge_bg" x="-1.0566480261008475" y="3.8376603082357703" width="0.24556109196610848" height="0.24556109196610848"/>
<text class="edge_text" text-anchor="middle" dominant-baseline="middle" transform="matrix(0.012278054598305424 0 0 0.012278054598305424 -0.9338674801177933 3.9604408542188247)">18</text>
<rect class="edge_bg" x="-0.7844882413747177" y="2.55724068002572" width="0.24556109196610848" height="0.24556109196610848"/>
<text class="edge_text" text-anchor="middle" dominant-baseline="middle" transform="matrix(0.012278054598305424 0 0 0.012278054598305424 -0.6617076953916635 2.6800212260087743)">3</text>
</svg>
