<?xml version="1.0" encoding="utf-8"?>
<svg version="1.1" xmlns="http://www.w3.org/2000/svg" viewBox="-2.7639525134594813 -1.6183012634594813 4.105255296108588 2.6026277961085884" style="enable-background:new -2.7639525134594813 -1.6183012634594813 4.105255296108588 2.6026277961085884;">
<style type="text/css">
  .face_stroke {fill:none; stroke:#000000; stroke-width:0.02; stroke-miterlimit:10;}
  .face_text {fill:#000000; font-family:monospace;}
  .edge_text {fill:#ff0000; font-family:monospace;}
  .edge_bg {fill:#f3f3f3; stroke:#606060; stroke-width:0.01;}
</style>
<polygon class="face_stroke" points="0.288675134594813,-0.5 -0.5773502691896258,-7.07050159149938e-17 0.288675134594813,0.5"/>
<polygon class="face_stroke" points="0.28867486540518683,0.4999999999999999 1.1547002691896258,1.414100318299876e-16 0.28867486540518755,-0.5000000000000003"/>
<polygon class="face_stroke" points="1.1547001345948131,0.0 1.1547001345948131,-1.0 0.2886747308103742,-0.5000000000000001"/>
<polygon class="face_stroke" points="1.1547002691896258,-1.0 0.2886748654051872,-1.5 0.28867486540518683,-0.5000000000000001"/>
<polygon class="face_stroke" points="0.2886750000000001,-1.5 -0.711325,-1.5 -0.7113250000000001,-0.5 0.2886749999999999,-0.4999999999999999"/>
<polygon class="face_stroke" points="-0.711324865405187,-1.5 -1.5773502691896257,-1.0 -0.711324865405187,-0.5"/>
<polygon class="face_stroke" points="-1.5773501345948129,-1.0 -1.577350134594813,-1.1102230246251565e-16 -0.7113247308103742,-0.49999999999999983"/>
<polygon class="face_stroke" points="-1.57735,-1.0 -2.57735,-1.0 -2.57735,0.0 -1.57735,1.1102230246251565e-16"/>
<polygon class="face_stroke" points="-2.57735,-1.3459481285060804e-07 -2.07735,0.8660252691896259 -1.5773499999999996,-1.3459481246202998e-07"/>
<polygon class="face_stroke" points="-2.07735,0.866025134594813 -1.07735,0.8660251345948132 -1.5773499999999998,-2.691896258122384e-07"/>
<polygon class="face_stroke" points="-1.07735,0.8660252691896259 -0.5773499999999999,-1.3459481285060804e-07 -1.57735,-1.3459481285060804e-07"/>
</svg>
