<?xml version="1.0" encoding="utf-8"?>
<svg version="1.1" xmlns="http://www.w3.org/2000/svg" viewBox="-9.815900899822424 -8.640430128428095 18.514950799644847 18.64097425685619" style="enable-background:new -9.815900899822424 -8.640430128428095 18.514950799644847 18.64097425685619;">
<style type="text/css">
  .face_stroke {fill:none; stroke:#000000; stroke-width:0.02; stroke-miterlimit:10;}
  .face_text {fill:#000000; font-family:monospace;}
  .edge_text {fill:#ff0000; font-family:monospace;}
  .edge_bg {fill:#f3f3f3; stroke:#606060; stroke-width:0.01;}
</style>
<polygon class="face_stroke" points="0.288675134594813,-0.5 -0.5773502691896258,-7.07050159149938e-17 0.288675134594813,0.5"/>
<polygon class="face_stroke" points="0.28867486540518683,0.4999999999999999 1.1547002691896258,1.414100318299876e-16 0.28867486540518755,-0.5000000000000003"/>
<polygon class="face_stroke" points="0.2886751845521345,0.5000003408897871 -0.4544696409252591,1.1691309472486444 -1.0422548932177338,1.9781479416235936 -1.448991536293534,2.8916933992661935 -1.6569032271112927,3.8698409999999988 -1.6569032271112936,4.869840999999998 -1.448991536293534,5.8479886007338076 -1.042254893217733,6.761534058376407 -0.45446964092526043,7.570551052751354 0.2886751845521336,8.239681659110213 1.1547005883365733,8.739681659110214 2.1057571046317243,9.048698653485161 3.100278999999999,9.153227116752813 4.0948008953682695,9.048698653485161 5.0458574116634285,8.739681659110213 5.911882815447865,8.239681659110214 6.655027640925261,7.5705510527513535 7.242812893217732,6.761534058376409 7.649549536293534,5.847988600733807 7.857461227111292,4.869841 7.857461227111294,3.8698410000000028 7.649549536293534,2.8916933992661953 7.242812893217735,1.9781479416235968 6.655027640925259,1.1691309472486444 5.91188281544787,0.5000003408897906 5.045857411663427,3.4088978750901333e-07 4.094800895368272,-0.30901665348516083 3.1002790000000013,-0.4135451167528137 2.1057571046317225,-0.30901665348515905 1.1547005883365717,3.4088978750901333e-07"/>
<polygon class="face_stroke" points="0.28867478059084933,0.5000001293386964 -0.6623817357043044,0.1909831349637489 -0.4544700448865451,1.1691307356975547"/>
<polygon class="face_stroke" points="-0.662380955113455,0.19098326430244528 -1.4055257805908492,0.8601138706613034 -0.4544692642956959,1.1691308650362513"/>
<polygon class="face_stroke" points="-0.6623813590747396,0.19098305275135452 -0.07459610678226625,-0.6180339416235934 0.3321405362935339,-1.5315793992661941 0.5400522271112926,-2.509727 0.5400522271112926,-3.509727 0.3321405362935339,-4.4878746007338055 -0.07459610678226625,-5.401420058376406 -0.6623813590747396,-6.210437052751354 -1.405526184552134,-6.879567659110213 -2.271551588336573,-7.379567659110212 -3.222608104631726,-7.68858465348516 -4.21713,-7.793113116752814 -5.211651895368273,-7.688584653485161 -6.162708411663426,-7.379567659110213 -7.028733815447866,-6.879567659110213 -7.771878640925259,-6.210437052751356 -8.359663893217734,-5.401420058376406 -8.766400536293535,-4.487874600733806 -8.974312227111293,-3.509727000000001 -8.974312227111295,-2.5097270000000016 -8.766400536293535,-1.5315793992661926 -8.359663893217732,-0.6180339416235925 -7.7718786409252605,0.19098305275135452 -7.0287338154478665,0.8601136591102123 -6.162708411663427,1.3601136591102136 -5.211651895368275,1.6691306534851602 -4.217130000000001,1.773659116752814 -3.22260810463173,1.669130653485161 -2.271551588336571,1.3601136591102128 -1.405526184552135,0.8601136591102136"/>
<text class="face_text" text-anchor="middle" dominant-baseline="middle" transform="matrix(0.0370299015992897 0 0 0.0370299015992897 0.0 0.0)">0</text>
<text class="face_text" text-anchor="middle" dominant-baseline="middle" transform="matrix(0.0370299015992897 0 0 0.0370299015992897 0.57735 0.0)">59</text>
<text class="face_text" text-anchor="middle" dominant-baseline="middle" transform="matrix(0.0370299015992897 0 0 0.0370299015992897 3.100279 4.369841)">61</text>
<text class="face_text" text-anchor="middle" dominant-baseline="middle" transform="matrix(0.0370299015992897 0 0 0.0370299015992897 -0.276059 0.620038)">1</text>
<text class="face_text" text-anchor="middle" dominant-baseline="middle" transform="matrix(0.0370299015992897 0 0 0.0370299015992897 -0.840792 0.740076)">2</text>
<text class="face_text" text-anchor="middle" dominant-baseline="middle" transform="matrix(0.0370299015992897 0 0 0.0370299015992897 -4.21713 -3.009727)">60</text>
<rect class="edge_bg" x="-0.08162415058770989" y="-0.370299015992897" width="0.7405980319857939" height="0.7405980319857939"/>
<text class="edge_text" text-anchor="middle" dominant-baseline="middle" transform="matrix(0.0370299015992897 0 0 0.0370299015992897 0.28867486540518705 -3.535250795749691e-17)">0</text>
<rect class="edge_bg" x="0.3513888704514576" y="-0.12029867510310943" width="0.7405980319857939" height="0.7405980319857939"/>
<text class="edge_text" text-anchor="middle" dominant-baseline="middle" transform="matrix(0.0370299015992897 0 0 0.0370299015992897 0.7216878864443546 0.2500003408897875)">6</text>
<rect class="edge_bg" x="-0.45319664814074473" y="0.4642664165252286" width="0.7405980319857939" height="0.7405980319857939"/>
<text class="edge_text" text-anchor="middle" dominant-baseline="middle" transform="matrix(0.0370299015992897 0 0 0.0370299015992897 -0.08289763214784779 0.8345654325181255)">5</text>
<rect class="edge_bg" x="-0.9287241256974722" y="0.3097580486764512" width="0.7405980319857939" height="0.7405980319857939"/>
<text class="edge_text" text-anchor="middle" dominant-baseline="middle" transform="matrix(0.0370299015992897 0 0 0.0370299015992897 -0.5584251097045753 0.6800570646693481)">7</text>
<rect class="edge_bg" x="-1.404252787806334" y="0.1552493399378867" width="0.7405980319857939" height="0.7405980319857939"/>
<text class="edge_text" text-anchor="middle" dominant-baseline="middle" transform="matrix(0.0370299015992897 0 0 0.0370299015992897 -1.033953771813437 0.5255483559307836)">8</text>
</svg>
