<?xml version="1.0" encoding="utf-8"?>
<svg version="1.1" xmlns="http://www.w3.org/2000/svg" viewBox="-2.132621449822423 -0.982661355837641 10.465800899644847 10.618549828428094" style="enable-background:new -2.132621449822423 -0.982661355837641 10.465800899644847 10.618549828428094;">
<style type="text/css">
  .face_stroke {fill:none; stroke:#000000; stroke-width:0.02; stroke-miterlimit:10;}
  .face_text {fill:#000000; font-family:monospace;}
  .edge_text {fill:#ff0000; font-family:monospace;}
  .edge_bg {fill:#f3f3f3; stroke:#606060; stroke-width:0.01;}
</style>
<polygon class="face_stroke" points="0.288675134594813,-0.5 -0.5773502691896258,-7.07050159149938e-17 0.288675134594813,0.5"/>
<polygon class="face_stroke" points="0.28867486540518683,0.4999999999999999 1.1547002691896258,1.414100318299876e-16 0.28867486540518755,-0.5000000000000003"/>
<polygon class="face_stroke" points="0.2886751845521345,0.5000003408897871 -0.4544696409252591,1.1691309472486444 -1.0422548932177338,1.9781479416235936 -1.448991536293534,2.8916933992661935 -1.6569032271112927,3.8698409999999988 -1.6569032271112936,4.869840999999998 -1.448991536293534,5.8479886007338076 -1.042254893217733,6.761534058376407 -0.45446964092526043,7.570551052751354 0.2886751845521336,8.239681659110213 1.1547005883365733,8.739681659110214 2.1057571046317243,9.048698653485161 3.100278999999999,9.153227116752813 4.0948008953682695,9.048698653485161 5.0458574116634285,8.739681659110213 5.911882815447865,8.239681659110214 6.655027640925261,7.5705510527513535 7.242812893217732,6.761534058376409 7.649549536293534,5.847988600733807 7.857461227111292,4.869841 7.857461227111294,3.8698410000000028 7.649549536293534,2.8916933992661953 7.242812893217735,1.9781479416235968 6.655027640925259,1.1691309472486444 5.91188281544787,0.5000003408897906 5.045857411663427,3.4088978750901333e-07 4.094800895368272,-0.30901665348516083 3.1002790000000013,-0.4135451167528137 2.1057571046317225,-0.30901665348515905 1.1547005883365717,3.4088978750901333e-07"/>
<polygon class="face_stroke" points="-0.4544692841130845,1.169130489630902 -1.448991179481358,1.0646020263632485 -1.0422545364055575,1.9781474840058495"/>
<polygon class="face_stroke" points="-0.4544698205186421,1.1691309736367514 -0.8612064635944424,0.25558551599415047 -1.4489917158869157,1.0646025103690977"/>
<polygon class="face_stroke" points="-0.4544695364055576,1.1691304840058496 0.1333157158869155,0.360113489630902 -0.8612061794813579,0.2555850263632484"/>
<text class="face_text" text-anchor="middle" dominant-baseline="middle" transform="matrix(0.020931601799289695 0 0 0.020931601799289695 0.0 0.0)">0</text>
<text class="face_text" text-anchor="middle" dominant-baseline="middle" transform="matrix(0.020931601799289695 0 0 0.020931601799289695 0.57735 0.0)">59</text>
<text class="face_text" text-anchor="middle" dominant-baseline="middle" transform="matrix(0.020931601799289695 0 0 0.020931601799289695 3.100279 4.369841)">61</text>
<text class="face_text" text-anchor="middle" dominant-baseline="middle" transform="matrix(0.020931601799289695 0 0 0.020931601799289695 -0.981905 1.40396)">3</text>
<text class="face_text" text-anchor="middle" dominant-baseline="middle" transform="matrix(0.020931601799289695 0 0 0.020931601799289695 -0.921556 0.829773)">2</text>
<text class="face_text" text-anchor="middle" dominant-baseline="middle" transform="matrix(0.020931601799289695 0 0 0.020931601799289695 -0.39412 0.594943)">1</text>
<rect class="edge_bg" x="0.0793588474122901" y="-0.20931601799289698" width="0.4186320359857939" height="0.4186320359857939"/>
<text class="edge_text" text-anchor="middle" dominant-baseline="middle" transform="matrix(0.020931601799289695 0 0 0.020931601799289695 0.28867486540518705 -3.535250795749691e-17)">0</text>
<rect class="edge_bg" x="0.5123718684514575" y="0.04068432289689056" width="0.4186320359857939" height="0.4186320359857939"/>
<text class="edge_text" text-anchor="middle" dominant-baseline="middle" transform="matrix(0.020931601799289695 0 0 0.020931601799289695 0.7216878864443546 0.2500003408897875)">6</text>
<rect class="edge_bg" x="-0.9576779282522181" y="1.3643229688254788" width="0.4186320359857939" height="0.4186320359857939"/>
<text class="edge_text" text-anchor="middle" dominant-baseline="middle" transform="matrix(0.020931601799289695 0 0 0.020931601799289695 -0.7483619102593211 1.5736389868183758)">10</text>
<rect class="edge_bg" x="-1.1610467861956757" y="0.9075507240100278" width="0.4186320359857939" height="0.4186320359857939"/>
<text class="edge_text" text-anchor="middle" dominant-baseline="middle" transform="matrix(0.020931601799289695 0 0 0.020931601799289695 -0.9517307682027788 1.1168667420029248)">9</text>
<rect class="edge_bg" x="-0.8671538759363548" y="0.5030417371916522" width="0.4186320359857939" height="0.4186320359857939"/>
<text class="edge_text" text-anchor="middle" dominant-baseline="middle" transform="matrix(0.020931601799289695 0 0 0.020931601799289695 -0.6578378579434578 0.7123577551845491)">7</text>
</svg>
