<?xml version="1.0" encoding="utf-8"?>
<svg version="1.1" xmlns="http://www.w3.org/2000/svg" viewBox="-11.259015649822423 -6.873662328428096 20.026785299644846 16.79007465685619" style="enable-background:new -11.259015649822423 -6.873662328428096 20.026785299644846 16.79007465685619;">
<style type="text/css">
  .face_stroke {fill:none; stroke:#000000; stroke-width:0.02; stroke-miterlimit:10;}
  .face_text {fill:#000000; font-family:monospace;}
  .edge_text {fill:#ff0000; font-family:monospace;}
  .edge_bg {fill:#f3f3f3; stroke:#606060; stroke-width:0.01;}
</style>
<polygon class="face_stroke" points="0.288675134594813,-0.5 -0.5773502691896258,-7.07050159149938e-17 0.288675134594813,0.5"/>
<polygon class="face_stroke" points="0.28867486540518683,0.4999999999999999 1.1547002691896258,1.414100318299876e-16 0.28867486540518755,-0.5000000000000003"/>
<polygon class="face_stroke" points="0.2886751845521345,0.5000003408897871 -0.4544696409252591,1.1691309472486444 -1.0422548932177338,1.9781479416235936 -1.448991536293534,2.8916933992661935 -1.6569032271112927,3.8698409999999988 -1.6569032271112936,4.869840999999998 -1.448991536293534,5.8479886007338076 -1.042254893217733,6.761534058376407 -0.45446964092526043,7.570551052751354 0.2886751845521336,8.239681659110213 1.1547005883365733,8.739681659110214 2.1057571046317243,9.048698653485161 3.100278999999999,9.153227116752813 4.0948008953682695,9.048698653485161 5.0458574116634285,8.739681659110213 5.911882815447865,8.239681659110214 6.655027640925261,7.5705510527513535 7.242812893217732,6.761534058376409 7.649549536293534,5.847988600733807 7.857461227111292,4.869841 7.857461227111294,3.8698410000000028 7.649549536293534,2.8916933992661953 7.242812893217735,1.9781479416235968 6.655027640925259,1.1691309472486444 5.91188281544787,0.5000003408897906 5.045857411663427,3.4088978750901333e-07 4.094800895368272,-0.30901665348516083 3.1002790000000013,-0.4135451167528137 2.1057571046317225,-0.30901665348515905 1.1547005883365717,3.4088978750901333e-07"/>
<polygon class="face_stroke" points="-0.4544692841130845,1.169130489630902 -1.448991179481358,1.0646020263632485 -1.0422545364055575,1.9781474840058495"/>
<polygon class="face_stroke" points="-1.4489914635944423,1.0646025159941503 -2.0367767158869157,1.8736195103690978 -1.0422548205186422,1.9781479736367515"/>
<polygon class="face_stroke" points="-1.448991106782266,1.0646020583764064 -1.042254463706466,0.15105660073380567 -0.8343427728887072,-0.827091 -0.8343427728887072,-1.827091 -1.042254463706466,-2.805238600733806 -1.448991106782266,-3.7187840583764062 -2.0367763590747394,-4.527801052751355 -2.779921184552134,-5.196931659110213 -3.6459465883365727,-5.696931659110213 -4.5970031046317255,-6.00594865348516 -5.591525,-6.110477116752814 -6.5860468953682725,-6.005948653485161 -7.537103411663426,-5.696931659110214 -8.403128815447864,-5.196931659110213 -9.146273640925259,-4.5278010527513555 -9.734058893217734,-3.7187840583764062 -10.140795536293535,-2.8052386007338064 -10.348707227111293,-1.8270910000000014 -10.348707227111294,-0.827091000000002 -10.140795536293535,0.15105660073380722 -9.734058893217732,1.0646020583764073 -9.14627364092526,1.8736190527513543 -8.403128815447866,2.5427496591102123 -7.537103411663427,3.0427496591102132 -6.586046895368275,3.35176665348516 -5.591525000000001,3.4562951167528135 -4.59700310463173,3.3517666534851607 -3.645946588336571,3.0427496591102123 -2.7799211845521348,2.5427496591102132 -2.036776359074739,1.8736190527513539"/>
<polygon class="face_stroke" points="-1.448991179481358,1.0646019736367514 -0.4544692841130845,0.960073510369098 -1.0422545364055573,0.1510565159941505"/>
<polygon class="face_stroke" points="-0.4544694635944424,0.9600734840058496 -0.04773282051864208,0.04652802636324849 -1.0422547158869155,0.15105648963090187"/>
<text class="face_text" text-anchor="middle" dominant-baseline="middle" transform="matrix(0.033580149313712386 0 0 0.033580149313712386 0.0 0.0)">0</text>
<text class="face_text" text-anchor="middle" dominant-baseline="middle" transform="matrix(0.033580149313712386 0 0 0.033580149313712386 0.57735 0.0)">59</text>
<text class="face_text" text-anchor="middle" dominant-baseline="middle" transform="matrix(0.033580149313712386 0 0 0.033580149313712386 3.100279 4.369841)">61</text>
<text class="face_text" text-anchor="middle" dominant-baseline="middle" transform="matrix(0.033580149313712386 0 0 0.033580149313712386 -0.981905 1.40396)">3</text>
<text class="face_text" text-anchor="middle" dominant-baseline="middle" transform="matrix(0.033580149313712386 0 0 0.033580149313712386 -1.509341 1.63879)">4</text>
<text class="face_text" text-anchor="middle" dominant-baseline="middle" transform="matrix(0.033580149313712386 0 0 0.033580149313712386 -5.591525 -1.327091)">60</text>
<text class="face_text" text-anchor="middle" dominant-baseline="middle" transform="matrix(0.033580149313712386 0 0 0.033580149313712386 -0.981905 0.725244)">2</text>
<text class="face_text" text-anchor="middle" dominant-baseline="middle" transform="matrix(0.033580149313712386 0 0 0.033580149313712386 -0.514819 0.385886)">1</text>
<rect class="edge_bg" x="-0.047126627731936765" y="-0.3358014931371239" width="0.6716029862742476" height="0.6716029862742476"/>
<text class="edge_text" text-anchor="middle" dominant-baseline="middle" transform="matrix(0.033580149313712386 0 0 0.033580149313712386 0.28867486540518705 -3.535250795749691e-17)">0</text>
<rect class="edge_bg" x="0.38588639330723074" y="-0.08580115224733631" width="0.6716029862742476" height="0.6716029862742476"/>
<text class="edge_text" text-anchor="middle" dominant-baseline="middle" transform="matrix(0.033580149313712386 0 0 0.033580149313712386 0.7216878864443546 0.2500003408897875)">6</text>
<rect class="edge_bg" x="-1.084163403396445" y="1.237837493681252" width="0.6716029862742476" height="0.6716029862742476"/>
<text class="edge_text" text-anchor="middle" dominant-baseline="middle" transform="matrix(0.033580149313712386 0 0 0.033580149313712386 -0.7483619102593211 1.5736389868183758)">10</text>
<rect class="edge_bg" x="-1.581424635193666" y="1.1855737516783271" width="0.6716029862742476" height="0.6716029862742476"/>
<text class="edge_text" text-anchor="middle" dominant-baseline="middle" transform="matrix(0.033580149313712386 0 0 0.033580149313712386 -1.2456231420565422 1.521375244815451)">11</text>
<rect class="edge_bg" x="-2.078685226065627" y="1.1333090624267568" width="0.6716029862742476" height="0.6716029862742476"/>
<text class="edge_text" text-anchor="middle" dominant-baseline="middle" transform="matrix(0.033580149313712386 0 0 0.033580149313712386 -1.7428837329285032 1.4691105555638806)">12</text>
<rect class="edge_bg" x="-1.5814243510805817" y="0.27202775167832705" width="0.6716029862742476" height="0.6716029862742476"/>
<text class="edge_text" text-anchor="middle" dominant-baseline="middle" transform="matrix(0.033580149313712386 0 0 0.033580149313712386 -1.2456228579434578 0.6078292448154509)">8</text>
<rect class="edge_bg" x="-1.0841635828778027" y="0.21976349368125203" width="0.6716029862742476" height="0.6716029862742476"/>
<text class="edge_text" text-anchor="middle" dominant-baseline="middle" transform="matrix(0.033580149313712386 0 0 0.033580149313712386 -0.748362089740679 0.5555649868183758)">7</text>
</svg>
