<?xml version="1.0" encoding="utf-8"?>
<svg version="1.1" xmlns="http://www.w3.org/2000/svg" viewBox="-11.876190949822423 -6.024194478428096 20.673349899644847 15.900155956856189" style="enable-background:new -11.876190949822423 -6.024194478428096 20.673349899644847 15.900155956856189;">
<style type="text/css">
  .face_stroke {fill:none; stroke:#000000; stroke-width:0.02; stroke-miterlimit:10;}
  .face_text {fill:#000000; font-family:monospace;}
  .edge_text {fill:#ff0000; font-family:monospace;}
  .edge_bg {fill:#f3f3f3; stroke:#606060; stroke-width:0.01;}
</style>
<polygon class="face_stroke" points="0.288675134594813,-0.5 -0.5773502691896258,-7.07050159149938e-17 0.288675134594813,0.5"/>
<polygon class="face_stroke" points="0.28867486540518683,0.4999999999999999 1.1547002691896258,1.414100318299876e-16 0.28867486540518755,-0.5000000000000003"/>
<polygon class="face_stroke" points="0.2886751845521345,0.5000003408897871 -0.4544696409252591,1.1691309472486444 -1.0422548932177338,1.9781479416235936 -1.448991536293534,2.8916933992661935 -1.6569032271112927,3.8698409999999988 -1.6569032271112936,4.869840999999998 -1.448991536293534,5.8479886007338076 -1.042254893217733,6.761534058376407 -0.45446964092526043,7.570551052751354 0.2886751845521336,8.239681659110213 1.1547005883365733,8.739681659110214 2.1057571046317243,9.048698653485161 3.100278999999999,9.153227116752813 4.0948008953682695,9.048698653485161 5.0458574116634285,8.739681659110213 5.911882815447865,8.239681659110214 6.655027640925261,7.5705510527513535 7.242812893217732,6.761534058376409 7.649549536293534,5.847988600733807 7.857461227111292,4.869841 7.857461227111294,3.8698410000000028 7.649549536293534,2.8916933992661953 7.242812893217735,1.9781479416235968 6.655027640925259,1.1691309472486444 5.91188281544787,0.5000003408897906 5.045857411663427,3.4088978750901333e-07 4.094800895368272,-0.30901665348516083 3.1002790000000013,-0.4135451167528137 2.1057571046317225,-0.30901665348515905 1.1547005883365717,3.4088978750901333e-07"/>
<polygon class="face_stroke" points="-0.4544692841130845,1.169130489630902 -1.448991179481358,1.0646020263632485 -1.0422545364055575,1.9781474840058495"/>
<polygon class="face_stroke" points="-1.4489914635944423,1.0646025159941503 -2.0367767158869157,1.8736195103690978 -1.0422548205186422,1.9781479736367515"/>
<polygon class="face_stroke" points="-2.0367771794813576,1.8736190263632484 -1.6300405364055575,2.7871644840058494 -1.0422552841130843,1.9781474896309024"/>
<polygon class="face_stroke" points="-2.036776463594442,1.8736195159941507 -2.6245617158869154,2.6826365103690977 -1.630039820518642,2.787164973636752"/>
<polygon class="face_stroke" points="-2.0367771067822664,1.8736190583764065 -1.6300404637064663,0.9600736007338057 -1.4221287728887075,-0.018074000000000034 -1.4221287728887075,-1.018074 -1.6300404637064663,-1.9962216007338056 -2.0367771067822664,-2.9097670583764064 -2.62456235907474,-3.7187840527513543 -3.3677071845521342,-4.387914659110213 -4.233732588336573,-4.887914659110213 -5.184789104631726,-5.19693165348516 -6.179311,-5.301460116752814 -7.173832895368273,-5.196931653485161 -8.124889411663426,-4.887914659110214 -8.990914815447866,-4.387914659110213 -9.73405964092526,-3.7187840527513556 -10.321844893217733,-2.9097670583764064 -10.728581536293534,-1.9962216007338065 -10.936493227111292,-1.0180740000000013 -10.936493227111294,-0.018074000000001977 -10.728581536293534,0.9600736007338072 -10.321844893217733,1.8736190583764074 -9.73405964092526,2.6826360527513544 -8.990914815447866,3.351766659110212 -8.124889411663426,3.8517666591102135 -7.1738328953682755,4.16078365348516 -6.179311000000001,4.265312116752813 -5.18478910463173,4.1607836534851605 -4.233732588336571,3.8517666591102127 -3.367707184552135,3.3517666591102135 -2.6245623590747393,2.682636052751354"/>
<polygon class="face_stroke" points="-1.6300397357043044,0.960073865036251 -0.6789832194091506,0.6510568706613039 -1.4221280448865448,-0.01807373569755466"/>
<polygon class="face_stroke" points="-0.678983955113455,0.6510567356975547 -0.47107226429569565,-0.32709086503625107 -1.4221287805908494,-0.0180738706613036"/>
<text class="face_text" text-anchor="middle" dominant-baseline="middle" transform="matrix(0.03180031191371238 0 0 0.03180031191371238 0.0 0.0)">0</text>
<text class="face_text" text-anchor="middle" dominant-baseline="middle" transform="matrix(0.03180031191371238 0 0 0.03180031191371238 0.57735 0.0)">59</text>
<text class="face_text" text-anchor="middle" dominant-baseline="middle" transform="matrix(0.03180031191371238 0 0 0.03180031191371238 3.100279 4.369841)">61</text>
<text class="face_text" text-anchor="middle" dominant-baseline="middle" transform="matrix(0.03180031191371238 0 0 0.03180031191371238 -0.981905 1.40396)">3</text>
<text class="face_text" text-anchor="middle" dominant-baseline="middle" transform="matrix(0.03180031191371238 0 0 0.03180031191371238 -1.509341 1.63879)">4</text>
<text class="face_text" text-anchor="middle" dominant-baseline="middle" transform="matrix(0.03180031191371238 0 0 0.03180031191371238 -1.569691 2.212977)">5</text>
<text class="face_text" text-anchor="middle" dominant-baseline="middle" transform="matrix(0.03180031191371238 0 0 0.03180031191371238 -2.097126 2.447807)">6</text>
<text class="face_text" text-anchor="middle" dominant-baseline="middle" transform="matrix(0.03180031191371238 0 0 0.03180031191371238 -6.179311 -0.518074)">60</text>
<text class="face_text" text-anchor="middle" dominant-baseline="middle" transform="matrix(0.03180031191371238 0 0 0.03180031191371238 -1.243717 0.531019)">2</text>
<text class="face_text" text-anchor="middle" dominant-baseline="middle" transform="matrix(0.03180031191371238 0 0 0.03180031191371238 -0.857395 0.101964)">1</text>
<rect class="edge_bg" x="-0.029328253731936704" y="-0.3180031191371238" width="0.6360062382742475" height="0.6360062382742475"/>
<text class="edge_text" text-anchor="middle" dominant-baseline="middle" transform="matrix(0.03180031191371238 0 0 0.03180031191371238 0.28867486540518705 -3.535250795749691e-17)">0</text>
<rect class="edge_bg" x="0.4036847673072308" y="-0.06800277824733625" width="0.6360062382742475" height="0.6360062382742475"/>
<text class="edge_text" text-anchor="middle" dominant-baseline="middle" transform="matrix(0.03180031191371238 0 0 0.03180031191371238 0.7216878864443546 0.2500003408897875)">6</text>
<rect class="edge_bg" x="-1.0663650293964448" y="1.255635867681252" width="0.6360062382742475" height="0.6360062382742475"/>
<text class="edge_text" text-anchor="middle" dominant-baseline="middle" transform="matrix(0.03180031191371238 0 0 0.03180031191371238 -0.7483619102593211 1.5736389868183758)">10</text>
<rect class="edge_bg" x="-1.563626261193666" y="1.2033721256783272" width="0.6360062382742475" height="0.6360062382742475"/>
<text class="edge_text" text-anchor="middle" dominant-baseline="middle" transform="matrix(0.03180031191371238 0 0 0.03180031191371238 -1.2456231420565422 1.521375244815451)">11</text>
<rect class="edge_bg" x="-1.8575193509343448" y="1.6078801388599513" width="0.6360062382742475" height="0.6360062382742475"/>
<text class="edge_text" text-anchor="middle" dominant-baseline="middle" transform="matrix(0.03180031191371238 0 0 0.03180031191371238 -1.539516231797221 1.925883257997075)">13</text>
<rect class="edge_bg" x="-2.1514112611936658" y="2.0123891256783275" width="0.6360062382742475" height="0.6360062382742475"/>
<text class="edge_text" text-anchor="middle" dominant-baseline="middle" transform="matrix(0.03180031191371238 0 0 0.03180031191371238 -1.833408142056542 2.3303922448154513)">15</text>
<rect class="edge_bg" x="-2.6486728520656273" y="1.960124436426757" width="0.6360062382742475" height="0.6360062382742475"/>
<text class="edge_text" text-anchor="middle" dominant-baseline="middle" transform="matrix(0.03180031191371238 0 0 0.03180031191371238 -2.3306697329285035 2.2781275555638807)">16</text>
<rect class="edge_bg" x="-1.8440870094325486" y="0.15299694553222443" width="0.6360062382742475" height="0.6360062382742475"/>
<text class="edge_text" text-anchor="middle" dominant-baseline="middle" transform="matrix(0.03180031191371238 0 0 0.03180031191371238 -1.5260838902954248 0.4710000646693482)">8</text>
<rect class="edge_bg" x="-1.3685594869892759" y="-0.0015116866189981426" width="0.6360062382742475" height="0.6360062382742475"/>
<text class="edge_text" text-anchor="middle" dominant-baseline="middle" transform="matrix(0.03180031191371238 0 0 0.03180031191371238 -1.0505563678521521 0.3164914325181256)">7</text>
</svg>
