<?xml version="1.0" encoding="utf-8"?>
<svg version="1.1" xmlns="http://www.w3.org/2000/svg" viewBox="-2.5314890998109907 -0.982661355837641 10.883662247251916 10.618549828428094" style="enable-background:new -2.5314890998109907 -0.982661355837641 10.883662247251916 10.618549828428094;">
<style type="text/css">
  .face_stroke {fill:none; stroke:#000000; stroke-width:0.02; stroke-miterlimit:10;}
  .face_text {fill:#000000; font-family:monospace;}
  .edge_text {fill:#ff0000; font-family:monospace;}
  .edge_bg {fill:#f3f3f3; stroke:#606060; stroke-width:0.01;}
</style>
<polygon class="face_stroke" points="0.288675134594813,-0.5 -0.5773502691896258,-7.07050159149938e-17 0.288675134594813,0.5"/>
<polygon class="face_stroke" points="0.28867486540518683,0.4999999999999999 1.1547002691896258,1.414100318299876e-16 0.28867486540518755,-0.5000000000000003"/>
<polygon class="face_stroke" points="0.2886751845521345,0.5000003408897871 -0.4544696409252591,1.1691309472486444 -1.0422548932177338,1.9781479416235936 -1.448991536293534,2.8916933992661935 -1.6569032271112927,3.8698409999999988 -1.6569032271112936,4.869840999999998 -1.448991536293534,5.8479886007338076 -1.042254893217733,6.761534058376407 -0.45446964092526043,7.570551052751354 0.2886751845521336,8.239681659110213 1.1547005883365733,8.739681659110214 2.1057571046317243,9.048698653485161 3.100278999999999,9.153227116752813 4.0948008953682695,9.048698653485161 5.0458574116634285,8.739681659110213 5.911882815447865,8.239681659110214 6.655027640925261,7.5705510527513535 7.242812893217732,6.761534058376409 7.649549536293534,5.847988600733807 7.857461227111292,4.869841 7.857461227111294,3.8698410000000028 7.649549536293534,2.8916933992661953 7.242812893217735,1.9781479416235968 6.655027640925259,1.1691309472486444 5.91188281544787,0.5000003408897906 5.045857411663427,3.4088978750901333e-07 4.094800895368272,-0.30901665348516083 3.1002790000000013,-0.4135451167528137 2.1057571046317225,-0.30901665348515905 1.1547005883365717,3.4088978750901333e-07"/>
<polygon class="face_stroke" points="-1.0422548205186422,1.9781480263632483 -2.0367767158869157,2.082676489630902 -1.4489914635944428,2.8916934840058492"/>
<polygon class="face_stroke" points="-1.0422552841130845,1.978147510369098 -1.6300405364055575,1.1691305159941505 -2.036777179481358,2.0826759736367513"/>
<polygon class="face_stroke" points="-1.0422544635944422,1.9781474840058495 -0.635517820518642,1.0646020263632485 -1.6300397158869155,1.169130489630902"/>
<polygon class="face_stroke" points="-0.6355182841130845,1.064602510369098 -1.2233035364055576,0.25558551599415047 -1.630040179481358,1.1691309736367514"/>
<polygon class="face_stroke" points="-0.6355184635944424,1.0646024840058494 -0.2287818205186421,0.15105702636324847 -1.2233037158869156,0.2555854896309019"/>
<text class="face_text" text-anchor="middle" dominant-baseline="middle" transform="matrix(0.02123709965685619 0 0 0.02123709965685619 0.0 0.0)">0</text>
<text class="face_text" text-anchor="middle" dominant-baseline="middle" transform="matrix(0.02123709965685619 0 0 0.02123709965685619 0.57735 0.0)">59</text>
<text class="face_text" text-anchor="middle" dominant-baseline="middle" transform="matrix(0.02123709965685619 0 0 0.02123709965685619 3.100279 4.369841)">61</text>
<text class="face_text" text-anchor="middle" dominant-baseline="middle" transform="matrix(0.02123709965685619 0 0 0.02123709965685619 -1.509341 2.317506)">5</text>
<text class="face_text" text-anchor="middle" dominant-baseline="middle" transform="matrix(0.02123709965685619 0 0 0.02123709965685619 -1.569691 1.743318)">4</text>
<text class="face_text" text-anchor="middle" dominant-baseline="middle" transform="matrix(0.02123709965685619 0 0 0.02123709965685619 -1.102604 1.40396)">3</text>
<text class="face_text" text-anchor="middle" dominant-baseline="middle" transform="matrix(0.02123709965685619 0 0 0.02123709965685619 -1.162954 0.829773)">2</text>
<text class="face_text" text-anchor="middle" dominant-baseline="middle" transform="matrix(0.02123709965685619 0 0 0.02123709965685619 -0.695868 0.490415)">1</text>
<rect class="edge_bg" x="0.07630386883662518" y="-0.2123709965685619" width="0.42474199313712374" height="0.42474199313712374"/>
<text class="edge_text" text-anchor="middle" dominant-baseline="middle" transform="matrix(0.02123709965685619 0 0 0.02123709965685619 0.28867486540518705 -3.535250795749691e-17)">0</text>
<rect class="edge_bg" x="0.5093168898757927" y="0.03762934432122564" width="0.42474199313712374" height="0.42474199313712374"/>
<text class="edge_text" text-anchor="middle" dominant-baseline="middle" transform="matrix(0.02123709965685619 0 0 0.02123709965685619 0.7216878864443546 0.2500003408897875)">6</text>
<rect class="edge_bg" x="-1.457994138625104" y="2.222549758615987" width="0.42474199313712374" height="0.42474199313712374"/>
<text class="edge_text" text-anchor="middle" dominant-baseline="middle" transform="matrix(0.02123709965685619 0 0 0.02123709965685619 -1.2456231420565422 2.4349207551845486)">14</text>
<rect class="edge_bg" x="-1.751887228365783" y="1.818040745434363" width="0.42474199313712374" height="0.42474199313712374"/>
<text class="edge_text" text-anchor="middle" dominant-baseline="middle" transform="matrix(0.02123709965685619 0 0 0.02123709965685619 -1.539516231797221 2.030411742002925)">13</text>
<rect class="edge_bg" x="-1.5485180863092407" y="1.3612679902498142" width="0.42474199313712374" height="0.42474199313712374"/>
<text class="edge_text" text-anchor="middle" dominant-baseline="middle" transform="matrix(0.02123709965685619 0 0 0.02123709965685619 -1.3361470897406789 1.573638986818376)">11</text>
<rect class="edge_bg" x="-1.345150228365783" y="0.904495745434363" width="0.42474199313712374" height="0.42474199313712374"/>
<text class="edge_text" text-anchor="middle" dominant-baseline="middle" transform="matrix(0.02123709965685619 0 0 0.02123709965685619 -1.1327792317972212 1.1168667420029248)">9</text>
<rect class="edge_bg" x="-1.141782086309241" y="0.447722990249814" width="0.42474199313712374" height="0.42474199313712374"/>
<text class="edge_text" text-anchor="middle" dominant-baseline="middle" transform="matrix(0.02123709965685619 0 0 0.02123709965685619 -0.929411089740679 0.6600939868183758)">7</text>
</svg>
