<?xml version="1.0" encoding="utf-8"?>
<svg version="1.1" xmlns="http://www.w3.org/2000/svg" viewBox="-11.876190949822423 -5.804684628428095 20.673349899644847 15.670193256856189" style="enable-background:new -11.876190949822423 -5.804684628428095 20.673349899644847 15.670193256856189;">
<style type="text/css">
  .face_stroke {fill:none; stroke:#000000; stroke-width:0.02; stroke-miterlimit:10;}
  .face_text {fill:#000000; font-family:monospace;}
  .edge_text {fill:#ff0000; font-family:monospace;}
  .edge_bg {fill:#f3f3f3; stroke:#606060; stroke-width:0.01;}
</style>
<polygon class="face_stroke" points="0.288675134594813,-0.5 -0.5773502691896258,-7.07050159149938e-17 0.288675134594813,0.5"/>
<polygon class="face_stroke" points="0.28867486540518683,0.4999999999999999 1.1547002691896258,1.414100318299876e-16 0.28867486540518755,-0.5000000000000003"/>
<polygon class="face_stroke" points="0.2886751845521345,0.5000003408897871 -0.4544696409252591,1.1691309472486444 -1.0422548932177338,1.9781479416235936 -1.448991536293534,2.8916933992661935 -1.6569032271112927,3.8698409999999988 -1.6569032271112936,4.869840999999998 -1.448991536293534,5.8479886007338076 -1.042254893217733,6.761534058376407 -0.45446964092526043,7.570551052751354 0.2886751845521336,8.239681659110213 1.1547005883365733,8.739681659110214 2.1057571046317243,9.048698653485161 3.100278999999999,9.153227116752813 4.0948008953682695,9.048698653485161 5.0458574116634285,8.739681659110213 5.911882815447865,8.239681659110214 6.655027640925261,7.5705510527513535 7.242812893217732,6.761534058376409 7.649549536293534,5.847988600733807 7.857461227111292,4.869841 7.857461227111294,3.8698410000000028 7.649549536293534,2.8916933992661953 7.242812893217735,1.9781479416235968 6.655027640925259,1.1691309472486444 5.91188281544787,0.5000003408897906 5.045857411663427,3.4088978750901333e-07 4.094800895368272,-0.30901665348516083 3.1002790000000013,-0.4135451167528137 2.1057571046317225,-0.30901665348515905 1.1547005883365717,3.4088978750901333e-07"/>
<polygon class="face_stroke" points="-1.0422548205186422,1.9781480263632483 -2.0367767158869157,2.082676489630902 -1.4489914635944428,2.8916934840058492"/>
<polygon class="face_stroke" points="-1.0422552841130845,1.978147510369098 -1.6300405364055575,1.1691305159941505 -2.036777179481358,2.0826759736367513"/>
<polygon class="face_stroke" points="-1.6300404637064663,1.1691306007338058 -1.4221287728887075,0.190983 -1.4221287728887075,-0.809017 -1.6300404637064663,-1.7871646007338056 -2.0367771067822664,-2.7007100583764063 -2.62456235907474,-3.509727052751354 -3.3677071845521342,-4.178857659110213 -4.233732588336573,-4.6788576591102125 -5.184789104631726,-4.98787465348516 -6.179311,-5.092403116752814 -7.173832895368273,-4.987874653485161 -8.124889411663426,-4.678857659110213 -8.990914815447866,-4.178857659110213 -9.73405964092526,-3.5097270527513555 -10.321844893217733,-2.7007100583764063 -10.728581536293534,-1.7871646007338065 -10.936493227111292,-0.8090170000000013 -10.936493227111294,0.19098299999999807 -10.728581536293534,1.1691306007338071 -10.321844893217733,2.0826760583764075 -9.73405964092526,2.8916930527513545 -8.990914815447866,3.5608236591102123 -8.124889411663426,4.060823659110214 -7.1738328953682755,4.36984065348516 -6.179311000000001,4.474369116752814 -5.18478910463173,4.369840653485161 -4.233732588336571,4.060823659110213 -3.367707184552135,3.5608236591102136 -2.6245623590747393,2.891693052751354 -2.036777106782268,2.0826760583764092"/>
<polygon class="face_stroke" points="-1.6300397357043044,1.1691308650362509 -0.6789832194091506,0.8601138706613038 -1.4221280448865448,0.19098326430244528"/>
<polygon class="face_stroke" points="-0.678983955113455,0.8601137356975547 -0.47107226429569565,-0.11803386503625107 -1.4221287805908494,0.19098312933869638"/>
<text class="face_text" text-anchor="middle" dominant-baseline="middle" transform="matrix(0.031340386513712376 0 0 0.031340386513712376 0.0 0.0)">0</text>
<text class="face_text" text-anchor="middle" dominant-baseline="middle" transform="matrix(0.031340386513712376 0 0 0.031340386513712376 0.57735 0.0)">59</text>
<text class="face_text" text-anchor="middle" dominant-baseline="middle" transform="matrix(0.031340386513712376 0 0 0.031340386513712376 3.100279 4.369841)">61</text>
<text class="face_text" text-anchor="middle" dominant-baseline="middle" transform="matrix(0.031340386513712376 0 0 0.031340386513712376 -1.509341 2.317506)">5</text>
<text class="face_text" text-anchor="middle" dominant-baseline="middle" transform="matrix(0.031340386513712376 0 0 0.031340386513712376 -1.569691 1.743318)">4</text>
<text class="face_text" text-anchor="middle" dominant-baseline="middle" transform="matrix(0.031340386513712376 0 0 0.031340386513712376 -6.179311 -0.309017)">60</text>
<text class="face_text" text-anchor="middle" dominant-baseline="middle" transform="matrix(0.031340386513712376 0 0 0.031340386513712376 -1.243717 0.740076)">2</text>
<text class="face_text" text-anchor="middle" dominant-baseline="middle" transform="matrix(0.031340386513712376 0 0 0.031340386513712376 -0.857395 0.311021)">1</text>
<rect class="edge_bg" x="-0.024728999731936707" y="-0.3134038651371238" width="0.6268077302742475" height="0.6268077302742475"/>
<text class="edge_text" text-anchor="middle" dominant-baseline="middle" transform="matrix(0.031340386513712376 0 0 0.031340386513712376 0.28867486540518705 -3.535250795749691e-17)">0</text>
<rect class="edge_bg" x="0.4082840213072308" y="-0.06340352424733625" width="0.6268077302742475" height="0.6268077302742475"/>
<text class="edge_text" text-anchor="middle" dominant-baseline="middle" transform="matrix(0.031340386513712376 0 0 0.031340386513712376 0.7216878864443546 0.2500003408897875)">6</text>
<rect class="edge_bg" x="-1.559027007193666" y="2.121516890047425" width="0.6268077302742475" height="0.6268077302742475"/>
<text class="edge_text" text-anchor="middle" dominant-baseline="middle" transform="matrix(0.031340386513712376 0 0 0.031340386513712376 -1.2456231420565422 2.4349207551845486)">14</text>
<rect class="edge_bg" x="-1.852920096934345" y="1.717007876865801" width="0.6268077302742475" height="0.6268077302742475"/>
<text class="edge_text" text-anchor="middle" dominant-baseline="middle" transform="matrix(0.031340386513712376 0 0 0.031340386513712376 -1.539516231797221 2.030411742002925)">13</text>
<rect class="edge_bg" x="-2.1468126503814906" y="1.3124994644179822" width="0.6268077302742475" height="0.6268077302742475"/>
<text class="edge_text" text-anchor="middle" dominant-baseline="middle" transform="matrix(0.031340386513712376 0 0 0.031340386513712376 -1.8334087852443668 1.625903329555106)">12</text>
<rect class="edge_bg" x="-1.8394877554325486" y="0.36665319953222436" width="0.6268077302742475" height="0.6268077302742475"/>
<text class="edge_text" text-anchor="middle" dominant-baseline="middle" transform="matrix(0.031340386513712376 0 0 0.031340386513712376 -1.5260838902954248 0.6800570646693481)">8</text>
<rect class="edge_bg" x="-1.363960232989276" y="0.2121445673810018" width="0.6268077302742475" height="0.6268077302742475"/>
<text class="edge_text" text-anchor="middle" dominant-baseline="middle" transform="matrix(0.031340386513712376 0 0 0.031340386513712376 -1.0505563678521521 0.5255484325181256)">7</text>
</svg>
