<?xml version="1.0" encoding="utf-8"?>
<svg version="1.1" xmlns="http://www.w3.org/2000/svg" viewBox="-4.838291899822423 -11.566953378428094 13.300312799644846 21.706855756856186" style="enable-background:new -4.838291899822423 -11.566953378428094 13.300312799644846 21.706855756856186;">
<style type="text/css">
  .face_stroke {fill:none; stroke:#000000; stroke-width:0.02; stroke-miterlimit:10;}
  .face_text {fill:#000000; font-family:monospace;}
  .edge_text {fill:#ff0000; font-family:monospace;}
  .edge_bg {fill:#f3f3f3; stroke:#606060; stroke-width:0.01;}
</style>
<polygon class="face_stroke" points="0.288675134594813,-0.5 -0.5773502691896258,-7.07050159149938e-17 0.288675134594813,0.5"/>
<polygon class="face_stroke" points="0.28867486540518683,0.4999999999999999 1.1547002691896258,1.414100318299876e-16 0.28867486540518755,-0.5000000000000003"/>
<polygon class="face_stroke" points="0.2886751845521345,0.5000003408897871 -0.4544696409252591,1.1691309472486444 -1.0422548932177338,1.9781479416235936 -1.448991536293534,2.8916933992661935 -1.6569032271112927,3.8698409999999988 -1.6569032271112936,4.869840999999998 -1.448991536293534,5.8479886007338076 -1.042254893217733,6.761534058376407 -0.45446964092526043,7.570551052751354 0.2886751845521336,8.239681659110213 1.1547005883365733,8.739681659110214 2.1057571046317243,9.048698653485161 3.100278999999999,9.153227116752813 4.0948008953682695,9.048698653485161 5.0458574116634285,8.739681659110213 5.911882815447865,8.239681659110214 6.655027640925261,7.5705510527513535 7.242812893217732,6.761534058376409 7.649549536293534,5.847988600733807 7.857461227111292,4.869841 7.857461227111294,3.8698410000000028 7.649549536293534,2.8916933992661953 7.242812893217735,1.9781479416235968 6.655027640925259,1.1691309472486444 5.91188281544787,0.5000003408897906 5.045857411663427,3.4088978750901333e-07 4.094800895368272,-0.30901665348516083 3.1002790000000013,-0.4135451167528137 2.1057571046317225,-0.30901665348515905 1.1547005883365717,3.4088978750901333e-07"/>
<polygon class="face_stroke" points="3.100278715886916,-0.41354548963090204 2.5124934635944425,-1.2225624840058495 2.1057568205186423,-0.30901702636324857"/>
<polygon class="face_stroke" points="2.512494179481358,-1.2225619736367515 1.5179722841130845,-1.1180335103690981 2.1057575364055574,-0.3090165159941505"/>
<polygon class="face_stroke" points="1.5179714635944426,-1.1180344840058494 1.1112348205186422,-0.2044890263632485 2.1057567158869155,-0.309017489630902"/>
<polygon class="face_stroke" points="1.5179721794813579,-1.1180339736367515 0.5234502841130845,-1.0135055103690982 1.1112355364055573,-0.20448851599415052"/>
<polygon class="face_stroke" points="1.517971895368274,-1.1180343465148397 2.469028411663427,-1.4270513408897871 3.335053815447866,-1.9270513408897867 4.07819864092526,-2.5961819472486454 4.665983893217733,-3.4051989416235933 5.072720536293534,-4.318744399266194 5.280632227111292,-5.296892 5.280632227111292,-6.296892 5.072720536293534,-7.275039600733805 4.665983893217733,-8.188585058376406 4.07819864092526,-8.997602052751354 3.335053815447866,-9.666732659110213 2.469028411663427,-10.166732659110213 1.517971895368274,-10.47574965348516 0.5234500000000003,-10.580278116752813 -0.47107189536827243,-10.47574965348516 -1.4221284116634265,-10.166732659110213 -2.2881538154478656,-9.666732659110213 -3.031298640925259,-8.997602052751356 -3.619083893217734,-8.188585058376406 -4.0258205362935335,-7.275039600733806 -4.233732227111293,-6.2968920000000015 -4.233732227111293,-5.2968920000000015 -4.0258205362935335,-4.318744399266192 -3.619083893217733,-3.4051989416235924 -3.0312986409252605,-2.5961819472486454 -2.2881538154478664,-1.9270513408897876 -1.4221284116634267,-1.4270513408897862 -0.47107189536827565,-1.1180343465148397 0.5234499999999991,-1.013505883247186"/>
<polygon class="face_stroke" points="-2.2881541345948126,-1.927051 -2.288154134594813,-0.9270510000000002 -1.4221287308103743,-1.4270509999999998"/>
<polygon class="face_stroke" points="-2.2881542691896257,-0.9270510000000001 -1.422128865405187,-0.42705099999999996 -1.4221288654051873,-1.427051"/>
<polygon class="face_stroke" points="-1.4221281345948134,-0.42705100000000007 -0.5561027308103742,-0.9270509999999998 -1.4221281345948125,-1.4270510000000003"/>
<polygon class="face_stroke" points="-1.422128269189626,-0.42705100000000007 -0.556102865405187,0.07294899999999999 -0.5561028654051873,-0.9270510000000001"/>
<text class="face_text" text-anchor="middle" dominant-baseline="middle" transform="matrix(0.026600625599289694 0 0 0.026600625599289694 0.0 0.0)">0</text>
<text class="face_text" text-anchor="middle" dominant-baseline="middle" transform="matrix(0.026600625599289694 0 0 0.026600625599289694 0.57735 0.0)">59</text>
<text class="face_text" text-anchor="middle" dominant-baseline="middle" transform="matrix(0.026600625599289694 0 0 0.026600625599289694 3.100279 4.369841)">61</text>
<text class="face_text" text-anchor="middle" dominant-baseline="middle" transform="matrix(0.026600625599289694 0 0 0.026600625599289694 2.572843 -0.648375)">55</text>
<text class="face_text" text-anchor="middle" dominant-baseline="middle" transform="matrix(0.026600625599289694 0 0 0.026600625599289694 2.045408 -0.883204)">56</text>
<text class="face_text" text-anchor="middle" dominant-baseline="middle" transform="matrix(0.026600625599289694 0 0 0.026600625599289694 1.578321 -0.543847)">57</text>
<text class="face_text" text-anchor="middle" dominant-baseline="middle" transform="matrix(0.026600625599289694 0 0 0.026600625599289694 1.050886 -0.778676)">58</text>
<text class="face_text" text-anchor="middle" dominant-baseline="middle" transform="matrix(0.026600625599289694 0 0 0.026600625599289694 0.52345 -5.796892)">60</text>
<text class="face_text" text-anchor="middle" dominant-baseline="middle" transform="matrix(0.026600625599289694 0 0 0.026600625599289694 -1.999479 -1.427051)">4</text>
<text class="face_text" text-anchor="middle" dominant-baseline="middle" transform="matrix(0.026600625599289694 0 0 0.026600625599289694 -1.710804 -0.927051)">3</text>
<text class="face_text" text-anchor="middle" dominant-baseline="middle" transform="matrix(0.026600625599289694 0 0 0.026600625599289694 -1.133453 -0.927051)">2</text>
<text class="face_text" text-anchor="middle" dominant-baseline="middle" transform="matrix(0.026600625599289694 0 0 0.026600625599289694 -0.844778 -0.427051)">1</text>
<rect class="edge_bg" x="0.022668609412290097" y="-0.266006255992897" width="0.5320125119857939" height="0.5320125119857939"/>
<text class="edge_text" text-anchor="middle" dominant-baseline="middle" transform="matrix(0.026600625599289694 0 0 0.026600625599289694 0.28867486540518705 -3.535250795749691e-17)">0</text>
<rect class="edge_bg" x="0.4556816304514576" y="-0.016005915103109447" width="0.5320125119857939" height="0.5320125119857939"/>
<text class="edge_text" text-anchor="middle" dominant-baseline="middle" transform="matrix(0.026600625599289694 0 0 0.026600625599289694 0.7216878864443546 0.2500003408897875)">6</text>
<rect class="edge_bg" x="2.337011512209882" y="-0.6272875139899722" width="0.5320125119857939" height="0.5320125119857939"/>
<text class="edge_text" text-anchor="middle" dominant-baseline="middle" transform="matrix(0.026600625599289694 0 0 0.026600625599289694 2.603017768202779 -0.3612812579970752)">114</text>
<rect class="edge_bg" x="2.043119601950561" y="-1.031795500808348" width="0.5320125119857939" height="0.5320125119857939"/>
<text class="edge_text" text-anchor="middle" dominant-baseline="middle" transform="matrix(0.026600625599289694 0 0 0.026600625599289694 2.309125857943458 -0.765789244815451)">115</text>
<rect class="edge_bg" x="1.5458578337477822" y="-0.9795322428112727" width="0.5320125119857939" height="0.5320125119857939"/>
<text class="edge_text" text-anchor="middle" dominant-baseline="middle" transform="matrix(0.026600625599289694 0 0 0.026600625599289694 1.811864089740679 -0.7135259868183758)">117</text>
<rect class="edge_bg" x="1.048597601950561" y="-0.927267500808348" width="0.5320125119857939" height="0.5320125119857939"/>
<text class="edge_text" text-anchor="middle" dominant-baseline="middle" transform="matrix(0.026600625599289694 0 0 0.026600625599289694 1.3146038579434578 -0.661261244815451)">119</text>
<rect class="edge_bg" x="0.7547046916912398" y="-1.3317763708739108" width="0.5320125119857939" height="0.5320125119857939"/>
<text class="edge_text" text-anchor="middle" dominant-baseline="middle" transform="matrix(0.026600625599289694 0 0 0.026600625599289694 1.0207109476841367 -1.0657701148810137)">2</text>
<rect class="edge_bg" x="-2.1211476886954905" y="-1.9430572559928971" width="0.5320125119857939" height="0.5320125119857939"/>
<text class="edge_text" text-anchor="middle" dominant-baseline="middle" transform="matrix(0.026600625599289694 0 0 0.026600625599289694 -1.8551414327025935 -1.677051)">12</text>
<rect class="edge_bg" x="-2.1211478232903036" y="-1.4430572559928971" width="0.5320125119857939" height="0.5320125119857939"/>
<text class="edge_text" text-anchor="middle" dominant-baseline="middle" transform="matrix(0.026600625599289694 0 0 0.026600625599289694 -1.8551415672974065 -1.177051)">11</text>
<rect class="edge_bg" x="-1.68813439058771" y="-1.193057255992897" width="0.5320125119857939" height="0.5320125119857939"/>
<text class="edge_text" text-anchor="middle" dominant-baseline="middle" transform="matrix(0.026600625599289694 0 0 0.026600625599289694 -1.422128134594813 -0.927051)">9</text>
<rect class="edge_bg" x="-1.2551218232903034" y="-0.943057255992897" width="0.5320125119857939" height="0.5320125119857939"/>
<text class="edge_text" text-anchor="middle" dominant-baseline="middle" transform="matrix(0.026600625599289694 0 0 0.026600625599289694 -0.9891155672974065 -0.6770510000000001)">7</text>
</svg>
