<?xml version="1.0" encoding="utf-8"?>
<svg version="1.1" xmlns="http://www.w3.org/2000/svg" viewBox="-6.000028699822423 -11.095604178428093 14.517370399644847 21.213061356856187" style="enable-background:new -6.000028699822423 -11.095604178428093 14.517370399644847 21.213061356856187;">
<style type="text/css">
  .face_stroke {fill:none; stroke:#000000; stroke-width:0.02; stroke-miterlimit:10;}
  .face_text {fill:#000000; font-family:monospace;}
  .edge_text {fill:#ff0000; font-family:monospace;}
  .edge_bg {fill:#f3f3f3; stroke:#606060; stroke-width:0.01;}
</style>
<polygon class="face_stroke" points="0.288675134594813,-0.5 -0.5773502691896258,-7.07050159149938e-17 0.288675134594813,0.5"/>
<polygon class="face_stroke" points="0.28867486540518683,0.4999999999999999 1.1547002691896258,1.414100318299876e-16 0.28867486540518755,-0.5000000000000003"/>
<polygon class="face_stroke" points="0.2886751845521345,0.5000003408897871 -0.4544696409252591,1.1691309472486444 -1.0422548932177338,1.9781479416235936 -1.448991536293534,2.8916933992661935 -1.6569032271112927,3.8698409999999988 -1.6569032271112936,4.869840999999998 -1.448991536293534,5.8479886007338076 -1.042254893217733,6.761534058376407 -0.45446964092526043,7.570551052751354 0.2886751845521336,8.239681659110213 1.1547005883365733,8.739681659110214 2.1057571046317243,9.048698653485161 3.100278999999999,9.153227116752813 4.0948008953682695,9.048698653485161 5.0458574116634285,8.739681659110213 5.911882815447865,8.239681659110214 6.655027640925261,7.5705510527513535 7.242812893217732,6.761534058376409 7.649549536293534,5.847988600733807 7.857461227111292,4.869841 7.857461227111294,3.8698410000000028 7.649549536293534,2.8916933992661953 7.242812893217735,1.9781479416235968 6.655027640925259,1.1691309472486444 5.91188281544787,0.5000003408897906 5.045857411663427,3.4088978750901333e-07 4.094800895368272,-0.30901665348516083 3.1002790000000013,-0.4135451167528137 2.1057571046317225,-0.30901665348515905 1.1547005883365717,3.4088978750901333e-07"/>
<polygon class="face_stroke" points="2.1057567805908493,-0.3090171293386964 1.362611955113455,-0.9781477356975548 1.1547002642956956,-1.3496374906551978e-07"/>
<polygon class="face_stroke" points="1.3626117357043044,-0.9781478650362512 0.41155521940915063,-0.6691308706613036 1.1547000448865448,-2.643024453741205e-07"/>
<polygon class="face_stroke" points="1.3626124116634273,-0.9781473408897874 2.228637815447866,-1.478147340889787 2.9717826409252606,-2.1472779472486456 3.559567893217734,-2.9562949416235935 3.966304536293534,-3.8698403992661943 4.174216227111293,-4.847988 4.174216227111293,-5.847988 3.966304536293534,-6.826135600733806 3.559567893217734,-7.739681058376407 2.9717826409252606,-8.548698052751355 2.228637815447866,-9.217828659110213 1.3626124116634273,-9.717828659110213 0.4115558953682741,-10.02684565348516 -0.5829659999999997,-10.131374116752813 -1.5774878953682725,-10.02684565348516 -2.5285444116634266,-9.717828659110214 -3.3945698154478654,-9.217828659110213 -4.137714640925259,-8.548698052751355 -4.725499893217734,-7.739681058376407 -5.132236536293534,-6.8261356007338065 -5.340148227111293,-5.847988000000001 -5.3401482271112934,-4.847988000000002 -5.132236536293534,-3.8698403992661925 -4.725499893217733,-2.9562949416235926 -4.13771464092526,-2.1472779472486456 -3.3945698154478663,-1.4781473408897878 -2.5285444116634266,-0.9781473408897865 -1.5774878953682756,-0.6691303465148399 -0.5829660000000009,-0.5646018832471862 0.41155589536826986,-0.669130346514839"/>
<polygon class="face_stroke" points="-2.5285447357043043,-0.9781478650362512 -2.320633044886545,-2.643024453741205e-07 -1.5774882194091504,-0.6691308706613032"/>
<polygon class="face_stroke" points="-2.3206327805908495,-1.2933869654452312e-07 -1.369576264295696,0.30901686503625125 -1.5774879551134549,-0.6691307356975547"/>
<polygon class="face_stroke" points="-1.369576044886545,0.30901673569755467 -0.6264312194091507,-0.3601138706613036 -1.5774877357043045,-0.6691308650362511"/>
<polygon class="face_stroke" points="-1.3695767805908492,0.30901687066130346 -0.4185202642956959,0.6180338650362514 -0.6264319551134548,-0.36011373569755467"/>
<text class="face_text" text-anchor="middle" dominant-baseline="middle" transform="matrix(0.029034740799289693 0 0 0.029034740799289693 0.0 0.0)">0</text>
<text class="face_text" text-anchor="middle" dominant-baseline="middle" transform="matrix(0.029034740799289693 0 0 0.029034740799289693 0.57735 0.0)">59</text>
<text class="face_text" text-anchor="middle" dominant-baseline="middle" transform="matrix(0.029034740799289693 0 0 0.029034740799289693 3.100279 4.369841)">61</text>
<text class="face_text" text-anchor="middle" dominant-baseline="middle" transform="matrix(0.029034740799289693 0 0 0.029034740799289693 1.541023 -0.429055)">57</text>
<text class="face_text" text-anchor="middle" dominant-baseline="middle" transform="matrix(0.029034740799289693 0 0 0.029034740799289693 0.976289 -0.549093)">58</text>
<text class="face_text" text-anchor="middle" dominant-baseline="middle" transform="matrix(0.029034740799289693 0 0 0.029034740799289693 -0.582966 -5.347988)">60</text>
<text class="face_text" text-anchor="middle" dominant-baseline="middle" transform="matrix(0.029034740799289693 0 0 0.029034740799289693 -2.142222 -0.549093)">4</text>
<text class="face_text" text-anchor="middle" dominant-baseline="middle" transform="matrix(0.029034740799289693 0 0 0.029034740799289693 -1.755899 -0.120038)">3</text>
<text class="face_text" text-anchor="middle" dominant-baseline="middle" transform="matrix(0.029034740799289693 0 0 0.029034740799289693 -1.191165 -0.240076)">2</text>
<text class="face_text" text-anchor="middle" dominant-baseline="middle" transform="matrix(0.029034740799289693 0 0 0.029034740799289693 -0.804843 0.188979)">1</text>
<rect class="edge_bg" x="-0.0016725425877098798" y="-0.290347407992897" width="0.5806948159857939" height="0.5806948159857939"/>
<text class="edge_text" text-anchor="middle" dominant-baseline="middle" transform="matrix(0.029034740799289693 0 0 0.029034740799289693 0.28867486540518705 -3.535250795749691e-17)">0</text>
<rect class="edge_bg" x="0.4313404784514576" y="-0.040347067103109424" width="0.5806948159857939" height="0.5806948159857939"/>
<text class="edge_text" text-anchor="middle" dominant-baseline="middle" transform="matrix(0.029034740799289693 0 0 0.029034740799289693 0.7216878864443546 0.2500003408897875)">6</text>
<rect class="edge_bg" x="1.3398811144503757" y="-0.44485604014411956" width="0.5806948159857939" height="0.5806948159857939"/>
<text class="edge_text" text-anchor="middle" dominant-baseline="middle" transform="matrix(0.029034740799289693 0 0 0.029034740799289693 1.6302285224432727 -0.15450863215122262)">118</text>
<rect class="edge_bg" x="0.9683084823025276" y="-0.7794214726622452" width="0.5806948159857939" height="0.5806948159857939"/>
<text class="edge_text" text-anchor="middle" dominant-baseline="middle" transform="matrix(0.029034740799289693 0 0 0.029034740799289693 1.2586558902954246 -0.4890740646693482)">119</text>
<rect class="edge_bg" x="0.5967367455229534" y="-1.113986251695211" width="0.5806948159857939" height="0.5806948159857939"/>
<text class="edge_text" text-anchor="middle" dominant-baseline="middle" transform="matrix(0.029034740799289693 0 0 0.029034740799289693 0.8870841535158503 -0.8236388437023141)">2</text>
<rect class="edge_bg" x="-2.3433638855496244" y="-1.1139867758416744" width="0.5806948159857939" height="0.5806948159857939"/>
<text class="edge_text" text-anchor="middle" dominant-baseline="middle" transform="matrix(0.029034740799289693 0 0 0.029034740799289693 -2.0530164775567274 -0.8236393678487774)">12</text>
<rect class="edge_bg" x="-2.2394077758450495" y="-0.6249128405110225" width="0.5806948159857939" height="0.5806948159857939"/>
<text class="edge_text" text-anchor="middle" dominant-baseline="middle" transform="matrix(0.029034740799289693 0 0 0.029034740799289693 -1.9490603678521523 -0.3345654325181256)">11</text>
<rect class="edge_bg" x="-1.7638792982883218" y="-0.47040447266224517" width="0.5806948159857939" height="0.5806948159857939"/>
<text class="edge_text" text-anchor="middle" dominant-baseline="middle" transform="matrix(0.029034740799289693 0 0 0.029034740799289693 -1.4735318902954249 -0.1800570646693482)">9</text>
<rect class="edge_bg" x="-1.2883517758450491" y="-0.3158958405110225" width="0.5806948159857939" height="0.5806948159857939"/>
<text class="edge_text" text-anchor="middle" dominant-baseline="middle" transform="matrix(0.029034740799289693 0 0 0.029034740799289693 -0.9980043678521522 -0.02554843251812558)">7</text>
</svg>
