<?xml version="1.0" encoding="utf-8"?>
<svg version="1.1" xmlns="http://www.w3.org/2000/svg" viewBox="-10.957427899822424 -5.345181278428095 21.749060799644845 12.35949355685619" style="enable-background:new -10.957427899822424 -5.345181278428095 21.749060799644845 12.35949355685619;">
<style type="text/css">
  .face_stroke {fill:none; stroke:#000000; stroke-width:0.02; stroke-miterlimit:10;}
  .face_text {fill:#000000; font-family:monospace;}
  .edge_text {fill:#ff0000; font-family:monospace;}
  .edge_bg {fill:#f3f3f3; stroke:#606060; stroke-width:0.01;}
</style>
<polygon class="face_stroke" points="0.288675134594813,-0.5 -0.5773502691896258,-7.07050159149938e-17 0.288675134594813,0.5"/>
<polygon class="face_stroke" points="0.28867477288870624,0.49999999999999806 0.49658646370646586,1.4781476007338072 0.9033231067822669,2.3916930583764073 1.4911083590747394,3.2007100527513543 2.2342531845521334,3.869840659110212 3.100278588336573,4.3698406591102135 4.0513351046317245,4.67885765348516 5.045856999999999,4.783386116752814 6.04037889536827,4.678857653485161 6.991435411663429,4.369840659110213 7.857460815447865,3.8698406591102135 8.600605640925261,3.200710052751354 9.188390893217733,2.391693058376409 9.595127536293534,1.478147600733807 9.803039227111292,0.49999999999999983 9.803039227111293,-0.4999999999999975 9.595127536293534,-1.4781476007338046 9.188390893217736,-2.3916930583764033 8.60060564092526,-3.2007100527513557 7.857460815447871,-3.8698406591102095 6.991435411663427,-4.369840659110213 6.0403788953682716,-4.678857653485161 5.045857000000002,-4.783386116752814 4.051335104631722,-4.678857653485159 3.1002785883365718,-4.369840659110213 2.2342531845521347,-3.869840659110214 1.4911083590747425,-3.200710052751358 0.9033231067822651,-2.391693058376406 0.49658646370646675,-1.4781476007338077 0.28867477288870713,-0.5000000000000047"/>
<polygon class="face_stroke" points="0.288675044886545,0.5000002643024454 -0.4544697805908493,1.1691308706613035 0.4965867357043041,1.4781478650362514"/>
<polygon class="face_stroke" points="0.28867478059084933,0.5000001293386964 -0.6623817357043044,0.1909831349637489 -0.4544700448865451,1.1691307356975547"/>
<polygon class="face_stroke" points="-0.662381463706466,0.19098339926619423 -1.0691181067822662,-0.7225620583764065 -1.6569033590747395,-1.5315790527513544 -2.400048184552134,-2.2007096591102133 -3.266073588336573,-2.7007096591102124 -4.2171301046317256,-3.00972665348516 -5.211652,-3.1142551167528136 -6.206173895368273,-3.0097266534851608 -7.157230411663426,-2.7007096591102133 -8.023255815447865,-2.2007096591102133 -8.766400640925259,-1.5315790527513558 -9.354185893217734,-0.7225620583764065 -9.760922536293535,0.19098339926619357 -9.968834227111293,1.1691309999999986 -9.968834227111294,2.169130999999998 -9.760922536293535,3.147278600733807 -9.354185893217732,4.060824058376407 -8.76640064092526,4.8698410527513545 -8.023255815447866,5.538971659110212 -7.157230411663427,6.038971659110214 -6.206173895368275,6.34798865348516 -5.211652000000001,6.452517116752814 -4.21713010463173,6.347988653485161 -3.266073588336571,6.038971659110213 -2.400048184552135,5.538971659110214 -1.656903359074739,4.869841052751354 -1.069118106782268,4.060824058376409 -0.662381463706466,3.1472786007338067 -0.45446977288870727,2.1691309999999997 -0.4544697728887064,1.1691310000000024"/>
<polygon class="face_stroke" points="-1.0691184635944422,-0.7225625159941506 -0.662381820518642,-1.6361079736367516 -1.6569037158869153,-1.5315795103690981"/>
<polygon class="face_stroke" points="-1.069118179481358,-0.7225620263632485 -0.0745962841130845,-0.8270904896309019 -0.6623815364055573,-1.6361074840058496"/>
<polygon class="face_stroke" points="-1.0691177158869154,-0.7225625103690981 -0.48133246359444265,0.08645448400584949 -0.07459582051864233,-0.8270909736367518"/>
<text class="face_text" text-anchor="middle" dominant-baseline="middle" transform="matrix(0.02471898711371238 0 0 0.02471898711371238 0.0 0.0)">0</text>
<text class="face_text" text-anchor="middle" dominant-baseline="middle" transform="matrix(0.02471898711371238 0 0 0.02471898711371238 5.045857 0.0)">60</text>
<text class="face_text" text-anchor="middle" dominant-baseline="middle" transform="matrix(0.02471898711371238 0 0 0.02471898711371238 0.110264 1.049093)">58</text>
<text class="face_text" text-anchor="middle" dominant-baseline="middle" transform="matrix(0.02471898711371238 0 0 0.02471898711371238 -0.276059 0.620038)">59</text>
<text class="face_text" text-anchor="middle" dominant-baseline="middle" transform="matrix(0.02471898711371238 0 0 0.02471898711371238 -5.211652 1.669131)">61</text>
<text class="face_text" text-anchor="middle" dominant-baseline="middle" transform="matrix(0.02471898711371238 0 0 0.02471898711371238 -1.129468 -1.29675)">3</text>
<text class="face_text" text-anchor="middle" dominant-baseline="middle" transform="matrix(0.02471898711371238 0 0 0.02471898711371238 -0.602032 -1.06192)">2</text>
<text class="face_text" text-anchor="middle" dominant-baseline="middle" transform="matrix(0.02471898711371238 0 0 0.02471898711371238 -0.541682 -0.487733)">1</text>
<rect class="edge_bg" x="0.041484901751583314" y="-0.2471898711371244" width="0.49437974227424764" height="0.49437974227424764"/>
<text class="edge_text" text-anchor="middle" dominant-baseline="middle" transform="matrix(0.02471898711371238 0 0 0.02471898711371238 0.28867477288870713 -5.825867987392522e-16)">1</text>
<rect class="edge_bg" x="0.14544101915830093" y="0.7418841935322245" width="0.49437974227424764" height="0.49437974227424764"/>
<text class="edge_text" text-anchor="middle" dominant-baseline="middle" transform="matrix(0.02471898711371238 0 0 0.02471898711371238 0.39263089029542475 0.9890740646693482)">2</text>
<rect class="edge_bg" x="-0.3300875032849716" y="0.5873755613810017" width="0.49437974227424764" height="0.49437974227424764"/>
<text class="edge_text" text-anchor="middle" dominant-baseline="middle" transform="matrix(0.02471898711371238 0 0 0.02471898711371238 -0.08289763214784779 0.8345654325181255)">3</text>
<rect class="edge_bg" x="-0.805615489434711" y="0.43286732849597337" width="0.49437974227424764" height="0.49437974227424764"/>
<text class="edge_text" text-anchor="middle" dominant-baseline="middle" transform="matrix(0.02471898711371238 0 0 0.02471898711371238 -0.5584256182975871 0.6800571996330972)">6</text>
<rect class="edge_bg" x="-1.6102009608778027" y="-1.374260884318748" width="0.49437974227424764" height="0.49437974227424764"/>
<text class="edge_text" text-anchor="middle" dominant-baseline="middle" transform="matrix(0.02471898711371238 0 0 0.02471898711371238 -1.3630110897406789 -1.1270710131816242)">10</text>
<rect class="edge_bg" x="-1.1129397290805816" y="-1.4265246263216729" width="0.49437974227424764" height="0.49437974227424764"/>
<text class="edge_text" text-anchor="middle" dominant-baseline="middle" transform="matrix(0.02471898711371238 0 0 0.02471898711371238 -0.8657498579434578 -1.179334755184549)">9</text>
<rect class="edge_bg" x="-0.8190466393399025" y="-1.0220166131400488" width="0.49437974227424764" height="0.49437974227424764"/>
<text class="edge_text" text-anchor="middle" dominant-baseline="middle" transform="matrix(0.02471898711371238 0 0 0.02471898711371238 -0.5718567682027788 -0.7748267420029249)">7</text>
</svg>
