<?xml version="1.0" encoding="utf-8"?>
<svg version="1.1" xmlns="http://www.w3.org/2000/svg" viewBox="-10.784759599822422 -5.404313078428095 21.568170199644847 13.660393156856191" style="enable-background:new -10.784759599822422 -5.404313078428095 21.568170199644847 13.660393156856191;">
<style type="text/css">
  .face_stroke {fill:none; stroke:#000000; stroke-width:0.02; stroke-miterlimit:10;}
  .face_text {fill:#000000; font-family:monospace;}
  .edge_text {fill:#ff0000; font-family:monospace;}
  .edge_bg {fill:#f3f3f3; stroke:#606060; stroke-width:0.01;}
</style>
<polygon class="face_stroke" points="0.288675134594813,-0.5 -0.5773502691896258,-7.07050159149938e-17 0.288675134594813,0.5"/>
<polygon class="face_stroke" points="0.28867477288870624,0.49999999999999806 0.49658646370646586,1.4781476007338072 0.9033231067822669,2.3916930583764073 1.4911083590747394,3.2007100527513543 2.2342531845521334,3.869840659110212 3.100278588336573,4.3698406591102135 4.0513351046317245,4.67885765348516 5.045856999999999,4.783386116752814 6.04037889536827,4.678857653485161 6.991435411663429,4.369840659110213 7.857460815447865,3.8698406591102135 8.600605640925261,3.200710052751354 9.188390893217733,2.391693058376409 9.595127536293534,1.478147600733807 9.803039227111292,0.49999999999999983 9.803039227111293,-0.4999999999999975 9.595127536293534,-1.4781476007338046 9.188390893217736,-2.3916930583764033 8.60060564092526,-3.2007100527513557 7.857460815447871,-3.8698406591102095 6.991435411663427,-4.369840659110213 6.0403788953682716,-4.678857653485161 5.045857000000002,-4.783386116752814 4.051335104631722,-4.678857653485159 3.1002785883365718,-4.369840659110213 2.2342531845521347,-3.869840659110214 1.4911083590747425,-3.200710052751358 0.9033231067822651,-2.391693058376406 0.49658646370646675,-1.4781476007338077 0.28867477288870713,-0.5000000000000047"/>
<polygon class="face_stroke" points="0.4965865364055576,1.4781475159941504 -0.09119871588691564,2.2871645103690974 0.9033231794813579,2.3916929736367516"/>
<polygon class="face_stroke" points="0.4965867158869155,1.478147489630902 -0.4979351794813579,1.3736190263632484 -0.09119853640555758,2.2871644840058494"/>
<polygon class="face_stroke" points="0.49658717948135794,1.4781479736367515 0.08985053640555764,0.5646025159941505 -0.4979347158869156,1.3736195103690978"/>
<polygon class="face_stroke" points="0.08984971588691554,0.5646024896309021 -0.9046721794813579,0.46007402636324846 -0.49793553640555754,1.3736194840058495"/>
<polygon class="face_stroke" points="-0.9046721067822663,0.4600739416235937 -1.4924573590747396,-0.3489430527513542 -2.235602184552134,-1.0180736591102129 -3.101627588336573,-1.5180736591102124 -4.052684104631726,-1.8270906534851599 -5.047206,-1.9316191167528136 -6.041727895368273,-1.8270906534851608 -6.992784411663426,-1.5180736591102133 -7.858809815447866,-1.0180736591102129 -8.601954640925259,-0.3489430527513555 -9.189739893217734,0.4600739416235937 -9.596476536293533,1.3736193992661938 -9.804388227111293,2.351766999999999 -9.804388227111293,3.3517669999999984 -9.596476536293533,4.329914600733807 -9.189739893217734,5.2434600583764075 -8.60195464092526,6.052477052751355 -7.8588098154478665,6.721607659110212 -6.992784411663427,7.221607659110214 -6.041727895368275,7.530624653485161 -5.047206000000001,7.635153116752814 -4.05268410463173,7.530624653485161 -3.101627588336571,7.221607659110212 -2.235602184552135,6.721607659110214 -1.4924573590747392,6.052477052751354 -0.9046721067822681,5.243460058376409 -0.49793546370646613,4.329914600733807 -0.2900237728887074,3.351767 -0.2900237728887065,2.351767000000003 -0.49793546370646613,1.3736193992661956"/>
<polygon class="face_stroke" points="-2.235601865405187,-1.018074 -2.235601865405187,-2.018074 -3.101627269189626,-1.518074"/>
<polygon class="face_stroke" points="-2.235602134594813,-1.018074 -1.3695767308103743,-1.5180739999999997 -2.2356021345948127,-2.0180740000000004"/>
<polygon class="face_stroke" points="-2.235602269189626,-1.018074 -1.369576865405187,-0.5180739999999999 -1.3695768654051874,-1.518074"/>
<polygon class="face_stroke" points="-1.369576134594813,-0.518074 -0.503550730810374,-1.0180739999999997 -1.3695761345948123,-1.5180740000000004"/>
<polygon class="face_stroke" points="-1.3695762691896258,-0.5180740000000001 -0.503550865405187,-0.018074000000000034 -0.5035508654051872,-1.0180740000000001"/>
<text class="face_text" text-anchor="middle" dominant-baseline="middle" transform="matrix(0.027320786313712382 0 0 0.027320786313712382 0.0 0.0)">0</text>
<text class="face_text" text-anchor="middle" dominant-baseline="middle" transform="matrix(0.027320786313712382 0 0 0.027320786313712382 5.045857 0.0)">60</text>
<text class="face_text" text-anchor="middle" dominant-baseline="middle" transform="matrix(0.027320786313712382 0 0 0.027320786313712382 0.436237 2.052335)">56</text>
<text class="face_text" text-anchor="middle" dominant-baseline="middle" transform="matrix(0.027320786313712382 0 0 0.027320786313712382 -0.030849 1.712977)">57</text>
<text class="face_text" text-anchor="middle" dominant-baseline="middle" transform="matrix(0.027320786313712382 0 0 0.027320786313712382 0.029501 1.13879)">58</text>
<text class="face_text" text-anchor="middle" dominant-baseline="middle" transform="matrix(0.027320786313712382 0 0 0.027320786313712382 -0.437586 0.799432)">59</text>
<text class="face_text" text-anchor="middle" dominant-baseline="middle" transform="matrix(0.027320786313712382 0 0 0.027320786313712382 -5.047206 2.851767)">61</text>
<text class="face_text" text-anchor="middle" dominant-baseline="middle" transform="matrix(0.027320786313712382 0 0 0.027320786313712382 -2.524277 -1.518074)">5</text>
<text class="face_text" text-anchor="middle" dominant-baseline="middle" transform="matrix(0.027320786313712382 0 0 0.027320786313712382 -1.946927 -1.518074)">4</text>
<text class="face_text" text-anchor="middle" dominant-baseline="middle" transform="matrix(0.027320786313712382 0 0 0.027320786313712382 -1.658252 -1.018074)">3</text>
<text class="face_text" text-anchor="middle" dominant-baseline="middle" transform="matrix(0.027320786313712382 0 0 0.027320786313712382 -1.080901 -1.018074)">2</text>
<text class="face_text" text-anchor="middle" dominant-baseline="middle" transform="matrix(0.027320786313712382 0 0 0.027320786313712382 -0.792226 -0.518074)">1</text>
<rect class="edge_bg" x="0.015466909751583324" y="-0.27320786313712436" width="0.5464157262742476" height="0.5464157262742476"/>
<text class="edge_text" text-anchor="middle" dominant-baseline="middle" transform="matrix(0.027320786313712382 0 0 0.027320786313712382 0.28867477288870713 -5.825867987392522e-16)">1</text>
<rect class="edge_bg" x="0.426746994806334" y="1.661712381678327" width="0.5464157262742476" height="0.5464157262742476"/>
<text class="edge_text" text-anchor="middle" dominant-baseline="middle" transform="matrix(0.027320786313712382 0 0 0.027320786313712382 0.6999548579434578 1.9349202448154508)">116</text>
<rect class="edge_bg" x="-0.07051377339644482" y="1.609448123681252" width="0.5464157262742476" height="0.5464157262742476"/>
<text class="edge_text" text-anchor="middle" dominant-baseline="middle" transform="matrix(0.027320786313712382 0 0 0.027320786313712382 0.20269408974067898 1.8826559868183756)">117</text>
<rect class="edge_bg" x="-0.2738816313399026" y="1.152675878865801" width="0.5464157262742476" height="0.5464157262742476"/>
<text class="edge_text" text-anchor="middle" dominant-baseline="middle" transform="matrix(0.027320786313712382 0 0 0.027320786313712382 -0.000673768202778792 1.4258837420029247)">119</text>
<rect class="edge_bg" x="-0.4772507733964448" y="0.6959031236812521" width="0.5464157262742476" height="0.5464157262742476"/>
<text class="edge_text" text-anchor="middle" dominant-baseline="middle" transform="matrix(0.027320786313712382 0 0 0.027320786313712382 -0.20404291025932098 0.9691109868183758)">3</text>
<rect class="edge_bg" x="-0.9745116483814904" y="0.6436388073077706" width="0.5464157262742476" height="0.5464157262742476"/>
<text class="edge_text" text-anchor="middle" dominant-baseline="middle" transform="matrix(0.027320786313712382 0 0 0.027320786313712382 -0.7013037852443667 0.9168466704448943)">6</text>
<rect class="edge_bg" x="-2.9418224304345304" y="-1.5412818631371237" width="0.5464157262742476" height="0.5464157262742476"/>
<text class="edge_text" text-anchor="middle" dominant-baseline="middle" transform="matrix(0.027320786313712382 0 0 0.027320786313712382 -2.6686145672974066 -1.268074)">14</text>
<rect class="edge_bg" x="-2.508809997731937" y="-1.7912818631371237" width="0.5464157262742476" height="0.5464157262742476"/>
<text class="edge_text" text-anchor="middle" dominant-baseline="middle" transform="matrix(0.027320786313712382 0 0 0.027320786313712382 -2.235602134594813 -1.518074)">13</text>
<rect class="edge_bg" x="-2.0757974304345304" y="-1.5412818631371237" width="0.5464157262742476" height="0.5464157262742476"/>
<text class="edge_text" text-anchor="middle" dominant-baseline="middle" transform="matrix(0.027320786313712382 0 0 0.027320786313712382 -1.8025895672974066 -1.268074)">11</text>
<rect class="edge_bg" x="-1.6427839977319367" y="-1.2912818631371237" width="0.5464157262742476" height="0.5464157262742476"/>
<text class="edge_text" text-anchor="middle" dominant-baseline="middle" transform="matrix(0.027320786313712382 0 0 0.027320786313712382 -1.369576134594813 -1.018074)">9</text>
<rect class="edge_bg" x="-1.2097714304345302" y="-1.041281863137124" width="0.5464157262742476" height="0.5464157262742476"/>
<text class="edge_text" text-anchor="middle" dominant-baseline="middle" transform="matrix(0.027320786313712382 0 0 0.027320786313712382 -0.9365635672974064 -0.7680740000000001)">7</text>
</svg>
