<?xml version="1.0" encoding="utf-8"?>
<svg version="1.1" xmlns="http://www.w3.org/2000/svg" viewBox="-5.7519199498224225 -5.336724728428095 21.884229899644847 12.17344945685619" style="enable-background:new -5.7519199498224225 -5.336724728428095 21.884229899644847 12.17344945685619;">
<style type="text/css">
  .face_stroke {fill:none; stroke:#000000; stroke-width:0.02; stroke-miterlimit:10;}
  .face_text {fill:#000000; font-family:monospace;}
  .edge_text {fill:#ff0000; font-family:monospace;}
  .edge_bg {fill:#f3f3f3; stroke:#606060; stroke-width:0.01;}
</style>
<polygon class="face_stroke" points="4.757182227111293,-0.5 4.549270536293534,-1.4781476007338057 4.142533893217734,-2.3916930583764064 3.5547486409252604,-3.2007100527513543 2.811603815447866,-3.869840659110213 1.9455784116634272,-4.369840659110213 0.9945218953682741,-4.67885765348516 2.9289792484836103e-16,-4.783386116752814 -0.9945218953682724,-4.678857653485161 -1.9455784116634265,-4.3698406591102135 -2.8116038154478655,-3.869840659110213 -3.554748640925259,-3.2007100527513557 -4.142533893217734,-2.3916930583764064 -4.549270536293534,-1.4781476007338064 -4.757182227111293,-0.5000000000000013 -4.757182227111294,0.49999999999999806 -4.549270536293534,1.4781476007338072 -4.142533893217733,2.3916930583764073 -3.5547486409252604,3.2007100527513543 -2.8116038154478664,3.869840659110212 -1.9455784116634267,4.3698406591102135 -0.9945218953682756,4.67885765348516 -8.78693774545083e-16,4.783386116752814 0.9945218953682698,4.678857653485161 1.9455784116634287,4.369840659110213 2.811603815447865,3.8698406591102135 3.554748640925261,3.200710052751354 4.142533893217732,2.391693058376409 4.549270536293534,1.478147600733807 4.757182227111293,0.49999999999999983"/>
<polygon class="face_stroke" points="4.757181865405187,0.4999999999999999 5.623207269189626,1.414100318299876e-16 4.757181865405188,-0.5000000000000003"/>
<polygon class="face_stroke" points="4.757181730810374,0.49999999999999994 5.623207134594813,1.0 5.623207134594813,-1.1102230246251565e-16"/>
<polygon class="face_stroke" points="4.757181865405187,0.4999999999999999 4.757181865405187,1.5 5.623207269189626,1.0000000000000002"/>
<polygon class="face_stroke" points="4.757181730810374,1.5 5.623207134594813,2.0 5.623207134594813,0.9999999999999999"/>
<polygon class="face_stroke" points="5.623207772888707,1.999999999999998 5.831119463706466,2.9781476007338075 6.237856106782267,3.8916930583764073 6.82564135907474,4.700710052751354 7.568786184552134,5.369840659110212 8.434811588336574,5.8698406591102135 9.385868104631724,6.17885765348516 10.38039,6.283386116752814 11.37491189536827,6.178857653485161 12.325968411663428,5.869840659110213 13.191993815447866,5.3698406591102135 13.935138640925262,4.700710052751354 14.522923893217733,3.891693058376409 14.929660536293534,2.978147600733807 15.137572227111292,1.9999999999999998 15.137572227111294,1.0000000000000024 14.929660536293534,0.02185239926619542 14.522923893217737,-0.8916930583764033 13.93513864092526,-1.7007100527513557 13.191993815447871,-2.3698406591102095 12.325968411663428,-2.8698406591102126 11.374911895368273,-3.178857653485161 10.380390000000002,-3.2833861167528138 9.385868104631722,-3.178857653485159 8.434811588336572,-2.8698406591102126 7.568786184552135,-2.369840659110214 6.8256413590747425,-1.700710052751358 6.2378561067822655,-0.891693058376406 5.831119463706467,0.021852399266192313 5.6232077728887075,0.9999999999999953"/>
<polygon class="face_stroke" points="6.237856463594443,3.891693515994151 5.8311198205186425,4.805238973636752 6.825641715886916,4.700710510369098"/>
<polygon class="face_stroke" points="6.237856179481358,3.8916930263632485 5.243334284113084,3.996221489630902 5.8311195364055575,4.80523848400585"/>
<polygon class="face_stroke" points="6.237855715886916,3.891693510369098 5.650070463594442,3.0826765159941507 5.243333820518642,3.9962219736367515"/>
<polygon class="face_stroke" points="5.650071179481358,3.0826760263632487 4.655549284113085,3.187204489630902 5.243334536405558,3.9962214840058494"/>
<polygon class="face_stroke" points="5.6500707158869155,3.082676510369098 5.062285463594442,2.2736595159941504 4.655548820518642,3.187204973636751"/>
<polygon class="face_stroke" points="5.062285179481358,2.273659026363249 4.067763284113084,2.378187489630902 4.655548536405558,3.1872044840058495"/>
<text class="face_text" text-anchor="middle" dominant-baseline="middle" transform="matrix(0.02434689891371238 0 0 0.02434689891371238 0.0 0.0)">60</text>
<text class="face_text" text-anchor="middle" dominant-baseline="middle" transform="matrix(0.02434689891371238 0 0 0.02434689891371238 5.045857 0.0)">0</text>
<text class="face_text" text-anchor="middle" dominant-baseline="middle" transform="matrix(0.02434689891371238 0 0 0.02434689891371238 5.334532 0.5)">1</text>
<text class="face_text" text-anchor="middle" dominant-baseline="middle" transform="matrix(0.02434689891371238 0 0 0.02434689891371238 5.045857 1.0)">2</text>
<text class="face_text" text-anchor="middle" dominant-baseline="middle" transform="matrix(0.02434689891371238 0 0 0.02434689891371238 5.334532 1.5)">3</text>
<text class="face_text" text-anchor="middle" dominant-baseline="middle" transform="matrix(0.02434689891371238 0 0 0.02434689891371238 10.38039 1.5)">61</text>
<text class="face_text" text-anchor="middle" dominant-baseline="middle" transform="matrix(0.02434689891371238 0 0 0.02434689891371238 6.298206 4.465881)">9</text>
<text class="face_text" text-anchor="middle" dominant-baseline="middle" transform="matrix(0.02434689891371238 0 0 0.02434689891371238 5.77077 4.231051)">8</text>
<text class="face_text" text-anchor="middle" dominant-baseline="middle" transform="matrix(0.02434689891371238 0 0 0.02434689891371238 5.71042 3.656864)">7</text>
<text class="face_text" text-anchor="middle" dominant-baseline="middle" transform="matrix(0.02434689891371238 0 0 0.02434689891371238 5.182985 3.422034)">6</text>
<text class="face_text" text-anchor="middle" dominant-baseline="middle" transform="matrix(0.02434689891371238 0 0 0.02434689891371238 5.122635 2.847847)">5</text>
<text class="face_text" text-anchor="middle" dominant-baseline="middle" transform="matrix(0.02434689891371238 0 0 0.02434689891371238 4.595199 2.613017)">4</text>
<rect class="edge_bg" x="4.5137128762680625" y="-0.24346898913712384" width="0.4869379782742476" height="0.4869379782742476"/>
<text class="edge_text" text-anchor="middle" dominant-baseline="middle" transform="matrix(0.02434689891371238 0 0 0.02434689891371238 4.757181865405187 -3.535250795749691e-17)">1</text>
<rect class="edge_bg" x="4.9467254435654695" y="0.00653101086287608" width="0.4869379782742476" height="0.4869379782742476"/>
<text class="edge_text" text-anchor="middle" dominant-baseline="middle" transform="matrix(0.02434689891371238 0 0 0.02434689891371238 5.190194432702594 0.2499999999999999)">4</text>
<rect class="edge_bg" x="4.946725578160282" y="0.5065310108628762" width="0.4869379782742476" height="0.4869379782742476"/>
<text class="edge_text" text-anchor="middle" dominant-baseline="middle" transform="matrix(0.02434689891371238 0 0 0.02434689891371238 5.190194567297406 0.75)">7</text>
<rect class="edge_bg" x="4.9467254435654695" y="1.0065310108628762" width="0.4869379782742476" height="0.4869379782742476"/>
<text class="edge_text" text-anchor="middle" dominant-baseline="middle" transform="matrix(0.02434689891371238 0 0 0.02434689891371238 5.190194432702594 1.25)">9</text>
<rect class="edge_bg" x="5.379738783751583" y="1.2565310108628756" width="0.4869379782742476" height="0.4869379782742476"/>
<text class="edge_text" text-anchor="middle" dominant-baseline="middle" transform="matrix(0.02434689891371238 0 0 0.02434689891371238 5.6232077728887075 1.4999999999999993)">10</text>
<rect class="edge_bg" x="6.288280100603555" y="4.0527330240445005" width="0.4869379782742476" height="0.4869379782742476"/>
<text class="edge_text" text-anchor="middle" dominant-baseline="middle" transform="matrix(0.02434689891371238 0 0 0.02434689891371238 6.531749089740679 4.296202013181625)">22</text>
<rect class="edge_bg" x="5.791018868806333" y="4.1049967660474245" width="0.4869379782742476" height="0.4869379782742476"/>
<text class="edge_text" text-anchor="middle" dominant-baseline="middle" transform="matrix(0.02434689891371238 0 0 0.02434689891371238 6.034487857943457 4.348465755184549)">21</text>
<rect class="edge_bg" x="5.497125779065654" y="3.7004887528658013" width="0.4869379782742476" height="0.4869379782742476"/>
<text class="edge_text" text-anchor="middle" dominant-baseline="middle" transform="matrix(0.02434689891371238 0 0 0.02434689891371238 5.7405947682027785 3.943957742002925)">19</text>
<rect class="edge_bg" x="5.203233868806334" y="3.295979766047425" width="0.4869379782742476" height="0.4869379782742476"/>
<text class="edge_text" text-anchor="middle" dominant-baseline="middle" transform="matrix(0.02434689891371238 0 0 0.02434689891371238 5.446702857943459 3.539448755184549)">17</text>
<rect class="edge_bg" x="4.909340779065654" y="2.891471752865801" width="0.4869379782742476" height="0.4869379782742476"/>
<text class="edge_text" text-anchor="middle" dominant-baseline="middle" transform="matrix(0.02434689891371238 0 0 0.02434689891371238 5.152809768202778 3.1349407420029247)">15</text>
<rect class="edge_bg" x="4.615447868806333" y="2.486962766047425" width="0.4869379782742476" height="0.4869379782742476"/>
<text class="edge_text" text-anchor="middle" dominant-baseline="middle" transform="matrix(0.02434689891371238 0 0 0.02434689891371238 4.858916857943457 2.730431755184549)">13</text>
</svg>
