<?xml version="1.0" encoding="utf-8"?>
<svg version="1.1" xmlns="http://www.w3.org/2000/svg" viewBox="-5.7519199498224225 -5.336724728428095 21.884229899644847 12.17344945685619" style="enable-background:new -5.7519199498224225 -5.336724728428095 21.884229899644847 12.17344945685619;">
<style type="text/css">
  .face_stroke {fill:none; stroke:#000000; stroke-width:0.02; stroke-miterlimit:10;}
  .face_text {fill:#000000; font-family:monospace;}
  .edge_text {fill:#ff0000; font-family:monospace;}
  .edge_bg {fill:#f3f3f3; stroke:#606060; stroke-width:0.01;}
</style>
<polygon class="face_stroke" points="4.757182227111293,-0.5 4.549270536293534,-1.4781476007338057 4.142533893217734,-2.3916930583764064 3.5547486409252604,-3.2007100527513543 2.811603815447866,-3.869840659110213 1.9455784116634272,-4.369840659110213 0.9945218953682741,-4.67885765348516 2.9289792484836103e-16,-4.783386116752814 -0.9945218953682724,-4.678857653485161 -1.9455784116634265,-4.3698406591102135 -2.8116038154478655,-3.869840659110213 -3.554748640925259,-3.2007100527513557 -4.142533893217734,-2.3916930583764064 -4.549270536293534,-1.4781476007338064 -4.757182227111293,-0.5000000000000013 -4.757182227111294,0.49999999999999806 -4.549270536293534,1.4781476007338072 -4.142533893217733,2.3916930583764073 -3.5547486409252604,3.2007100527513543 -2.8116038154478664,3.869840659110212 -1.9455784116634267,4.3698406591102135 -0.9945218953682756,4.67885765348516 -8.78693774545083e-16,4.783386116752814 0.9945218953682698,4.678857653485161 1.9455784116634287,4.369840659110213 2.811603815447865,3.8698406591102135 3.554748640925261,3.200710052751354 4.142533893217732,2.391693058376409 4.549270536293534,1.478147600733807 4.757182227111293,0.49999999999999983"/>
<polygon class="face_stroke" points="4.757181865405187,0.4999999999999999 5.623207269189626,1.414100318299876e-16 4.757181865405188,-0.5000000000000003"/>
<polygon class="face_stroke" points="4.757181730810374,0.49999999999999994 5.623207134594813,1.0 5.623207134594813,-1.1102230246251565e-16"/>
<polygon class="face_stroke" points="4.757181865405187,0.4999999999999999 4.757181865405187,1.5 5.623207269189626,1.0000000000000002"/>
<polygon class="face_stroke" points="4.757181730810374,1.5 5.623207134594813,2.0 5.623207134594813,0.9999999999999999"/>
<polygon class="face_stroke" points="5.623207772888707,1.999999999999998 5.831119463706466,2.9781476007338075 6.237856106782267,3.8916930583764073 6.82564135907474,4.700710052751354 7.568786184552134,5.369840659110212 8.434811588336574,5.8698406591102135 9.385868104631724,6.17885765348516 10.38039,6.283386116752814 11.37491189536827,6.178857653485161 12.325968411663428,5.869840659110213 13.191993815447866,5.3698406591102135 13.935138640925262,4.700710052751354 14.522923893217733,3.891693058376409 14.929660536293534,2.978147600733807 15.137572227111292,1.9999999999999998 15.137572227111294,1.0000000000000024 14.929660536293534,0.02185239926619542 14.522923893217737,-0.8916930583764033 13.93513864092526,-1.7007100527513557 13.191993815447871,-2.3698406591102095 12.325968411663428,-2.8698406591102126 11.374911895368273,-3.178857653485161 10.380390000000002,-3.2833861167528138 9.385868104631722,-3.178857653485159 8.434811588336572,-2.8698406591102126 7.568786184552135,-2.369840659110214 6.8256413590747425,-1.700710052751358 6.2378561067822655,-0.891693058376406 5.831119463706467,0.021852399266192313 5.6232077728887075,0.9999999999999953"/>
<polygon class="face_stroke" points="6.825640955113455,4.700710264302446 6.617729264295695,5.678857865036251 7.568785780590849,5.369840870661304"/>
<polygon class="face_stroke" points="6.8256407357043045,4.700710134963749 5.874584219409151,5.009727129338696 6.617729044886545,5.678857735697554"/>
<polygon class="face_stroke" points="6.825640780590849,4.700709870661304 6.082495955113455,4.0315792643024455 5.874584264295695,5.009726865036251"/>
<polygon class="face_stroke" points="6.0824967357043045,4.031579134963748 5.131440219409151,4.340596129338696 5.874585044886545,5.009726735697554"/>
<polygon class="face_stroke" points="6.08249678059085,4.031579870661304 5.339351955113456,3.362449264302445 5.131440264295696,4.340596865036251"/>
<polygon class="face_stroke" points="5.339351735704304,3.3624491349637493 4.388295219409151,3.6714661293386968 5.131440044886545,4.340596735697555"/>
<polygon class="face_stroke" points="5.3393517805908495,3.3624488706613036 4.5962069551134555,2.6933182643024454 4.388295264295696,3.671465865036251"/>
<polygon class="face_stroke" points="4.596206735704304,2.693318134963749 3.6451502194091505,3.0023351293386966 4.3882950448865445,3.671465735697555"/>
<text class="face_text" text-anchor="middle" dominant-baseline="middle" transform="matrix(0.02434689891371238 0 0 0.02434689891371238 0.0 0.0)">60</text>
<text class="face_text" text-anchor="middle" dominant-baseline="middle" transform="matrix(0.02434689891371238 0 0 0.02434689891371238 5.045857 0.0)">0</text>
<text class="face_text" text-anchor="middle" dominant-baseline="middle" transform="matrix(0.02434689891371238 0 0 0.02434689891371238 5.334532 0.5)">1</text>
<text class="face_text" text-anchor="middle" dominant-baseline="middle" transform="matrix(0.02434689891371238 0 0 0.02434689891371238 5.045857 1.0)">2</text>
<text class="face_text" text-anchor="middle" dominant-baseline="middle" transform="matrix(0.02434689891371238 0 0 0.02434689891371238 5.334532 1.5)">3</text>
<text class="face_text" text-anchor="middle" dominant-baseline="middle" transform="matrix(0.02434689891371238 0 0 0.02434689891371238 10.38039 1.5)">61</text>
<text class="face_text" text-anchor="middle" dominant-baseline="middle" transform="matrix(0.02434689891371238 0 0 0.02434689891371238 7.004052 5.249803)">11</text>
<text class="face_text" text-anchor="middle" dominant-baseline="middle" transform="matrix(0.02434689891371238 0 0 0.02434689891371238 6.439318 5.129765)">10</text>
<text class="face_text" text-anchor="middle" dominant-baseline="middle" transform="matrix(0.02434689891371238 0 0 0.02434689891371238 6.260907 4.580672)">9</text>
<text class="face_text" text-anchor="middle" dominant-baseline="middle" transform="matrix(0.02434689891371238 0 0 0.02434689891371238 5.696174 4.460634)">8</text>
<text class="face_text" text-anchor="middle" dominant-baseline="middle" transform="matrix(0.02434689891371238 0 0 0.02434689891371238 5.517763 3.911542)">7</text>
<text class="face_text" text-anchor="middle" dominant-baseline="middle" transform="matrix(0.02434689891371238 0 0 0.02434689891371238 4.953029 3.791504)">6</text>
<text class="face_text" text-anchor="middle" dominant-baseline="middle" transform="matrix(0.02434689891371238 0 0 0.02434689891371238 4.774618 3.242411)">5</text>
<text class="face_text" text-anchor="middle" dominant-baseline="middle" transform="matrix(0.02434689891371238 0 0 0.02434689891371238 4.209884 3.122373)">4</text>
<rect class="edge_bg" x="4.5137128762680625" y="-0.24346898913712384" width="0.4869379782742476" height="0.4869379782742476"/>
<text class="edge_text" text-anchor="middle" dominant-baseline="middle" transform="matrix(0.02434689891371238 0 0 0.02434689891371238 4.757181865405187 -3.535250795749691e-17)">1</text>
<rect class="edge_bg" x="4.9467254435654695" y="0.00653101086287608" width="0.4869379782742476" height="0.4869379782742476"/>
<text class="edge_text" text-anchor="middle" dominant-baseline="middle" transform="matrix(0.02434689891371238 0 0 0.02434689891371238 5.190194432702594 0.2499999999999999)">4</text>
<rect class="edge_bg" x="4.946725578160282" y="0.5065310108628762" width="0.4869379782742476" height="0.4869379782742476"/>
<text class="edge_text" text-anchor="middle" dominant-baseline="middle" transform="matrix(0.02434689891371238 0 0 0.02434689891371238 5.190194567297406 0.75)">7</text>
<rect class="edge_bg" x="4.9467254435654695" y="1.0065310108628762" width="0.4869379782742476" height="0.4869379782742476"/>
<text class="edge_text" text-anchor="middle" dominant-baseline="middle" transform="matrix(0.02434689891371238 0 0 0.02434689891371238 5.190194432702594 1.25)">9</text>
<rect class="edge_bg" x="5.379738783751583" y="1.2565310108628756" width="0.4869379782742476" height="0.4869379782742476"/>
<text class="edge_text" text-anchor="middle" dominant-baseline="middle" transform="matrix(0.02434689891371238 0 0 0.02434689891371238 5.6232077728887075 1.4999999999999993)">10</text>
<rect class="edge_bg" x="6.953744378715028" y="4.79180657834475" width="0.4869379782742476" height="0.4869379782742476"/>
<text class="edge_text" text-anchor="middle" dominant-baseline="middle" transform="matrix(0.02434689891371238 0 0 0.02434689891371238 7.197213367852152 5.035275567481874)">26</text>
<rect class="edge_bg" x="6.4782159011583005" y="4.946314946193527" width="0.4869379782742476" height="0.4869379782742476"/>
<text class="edge_text" text-anchor="middle" dominant-baseline="middle" transform="matrix(0.02434689891371238 0 0 0.02434689891371238 6.721684890295425 5.189783935330651)">25</text>
<rect class="edge_bg" x="6.106643533306148" y="4.611749378711653" width="0.4869379782742476" height="0.4869379782742476"/>
<text class="edge_text" text-anchor="middle" dominant-baseline="middle" transform="matrix(0.02434689891371238 0 0 0.02434689891371238 6.350112522443272 4.855218367848777)">23</text>
<rect class="edge_bg" x="5.7350719011583005" y="4.277183946193527" width="0.4869379782742476" height="0.4869379782742476"/>
<text class="edge_text" text-anchor="middle" dominant-baseline="middle" transform="matrix(0.02434689891371238 0 0 0.02434689891371238 5.978540890295425 4.520652935330651)">21</text>
<rect class="edge_bg" x="5.363499533306149" y="3.9426193787116532" width="0.4869379782742476" height="0.4869379782742476"/>
<text class="edge_text" text-anchor="middle" dominant-baseline="middle" transform="matrix(0.02434689891371238 0 0 0.02434689891371238 5.606968522443273 4.186088367848777)">19</text>
<rect class="edge_bg" x="4.9919269011583" y="3.6080539461935284" width="0.4869379782742476" height="0.4869379782742476"/>
<text class="edge_text" text-anchor="middle" dominant-baseline="middle" transform="matrix(0.02434689891371238 0 0 0.02434689891371238 5.2353958902954245 3.851522935330652)">17</text>
<rect class="edge_bg" x="4.620354533306148" y="3.273488378711654" width="0.4869379782742476" height="0.4869379782742476"/>
<text class="edge_text" text-anchor="middle" dominant-baseline="middle" transform="matrix(0.02434689891371238 0 0 0.02434689891371238 4.863823522443273 3.5169573678487778)">15</text>
<rect class="edge_bg" x="4.2487819011583" y="2.9389229461935282" width="0.4869379782742476" height="0.4869379782742476"/>
<text class="edge_text" text-anchor="middle" dominant-baseline="middle" transform="matrix(0.02434689891371238 0 0 0.02434689891371238 4.492250890295424 3.182391935330652)">13</text>
</svg>
