<?xml version="1.0" encoding="utf-8"?>
<svg version="1.1" xmlns="http://www.w3.org/2000/svg" viewBox="-5.7519199498224225 -5.286724728428095 21.884229899644847 11.07344945685619" style="enable-background:new -5.7519199498224225 -5.286724728428095 21.884229899644847 11.07344945685619;">
<style type="text/css">
  .face_stroke {fill:none; stroke:#000000; stroke-width:0.02; stroke-miterlimit:10;}
  .face_text {fill:#000000; font-family:monospace;}
  .edge_text {fill:#ff0000; font-family:monospace;}
  .edge_bg {fill:#f3f3f3; stroke:#606060; stroke-width:0.01;}
</style>
<polygon class="face_stroke" points="4.757182227111293,-0.5 4.549270536293534,-1.4781476007338057 4.142533893217734,-2.3916930583764064 3.5547486409252604,-3.2007100527513543 2.811603815447866,-3.869840659110213 1.9455784116634272,-4.369840659110213 0.9945218953682741,-4.67885765348516 2.9289792484836103e-16,-4.783386116752814 -0.9945218953682724,-4.678857653485161 -1.9455784116634265,-4.3698406591102135 -2.8116038154478655,-3.869840659110213 -3.554748640925259,-3.2007100527513557 -4.142533893217734,-2.3916930583764064 -4.549270536293534,-1.4781476007338064 -4.757182227111293,-0.5000000000000013 -4.757182227111294,0.49999999999999806 -4.549270536293534,1.4781476007338072 -4.142533893217733,2.3916930583764073 -3.5547486409252604,3.2007100527513543 -2.8116038154478664,3.869840659110212 -1.9455784116634267,4.3698406591102135 -0.9945218953682756,4.67885765348516 -8.78693774545083e-16,4.783386116752814 0.9945218953682698,4.678857653485161 1.9455784116634287,4.369840659110213 2.811603815447865,3.8698406591102135 3.554748640925261,3.200710052751354 4.142533893217732,2.391693058376409 4.549270536293534,1.478147600733807 4.757182227111293,0.49999999999999983"/>
<polygon class="face_stroke" points="4.757181865405187,0.4999999999999999 5.623207269189626,1.414100318299876e-16 4.757181865405188,-0.5000000000000003"/>
<polygon class="face_stroke" points="4.757181730810374,0.49999999999999994 5.623207134594813,1.0 5.623207134594813,-1.1102230246251565e-16"/>
<polygon class="face_stroke" points="5.623207772888707,0.999999999999998 5.831119463706466,1.9781476007338072 6.237856106782267,2.8916930583764073 6.82564135907474,3.7007100527513543 7.568786184552134,4.369840659110212 8.434811588336574,4.8698406591102135 9.385868104631724,5.17885765348516 10.38039,5.283386116752814 11.37491189536827,5.178857653485161 12.325968411663428,4.869840659110213 13.191993815447866,4.3698406591102135 13.935138640925262,3.700710052751354 14.522923893217733,2.891693058376409 14.929660536293534,1.978147600733807 15.137572227111292,0.9999999999999998 15.137572227111294,2.4980018054066022e-15 14.929660536293534,-0.9781476007338046 14.522923893217737,-1.8916930583764033 13.93513864092526,-2.7007100527513557 13.191993815447871,-3.3698406591102095 12.325968411663428,-3.8698406591102126 11.374911895368273,-4.178857653485161 10.380390000000002,-4.283386116752814 9.385868104631722,-4.178857653485159 8.434811588336572,-3.8698406591102126 7.568786184552135,-3.369840659110214 6.8256413590747425,-2.700710052751358 6.2378561067822655,-1.891693058376406 5.831119463706467,-0.9781476007338077 5.6232077728887075,-4.6629367034256575e-15"/>
<polygon class="face_stroke" points="6.237856463594443,2.8916935159941506 5.8311198205186425,3.8052389736367513 6.825641715886916,3.700710510369098"/>
<polygon class="face_stroke" points="6.237856179481358,2.8916930263632485 5.243334284113084,2.996221489630902 5.8311195364055575,3.8052384840058493"/>
<polygon class="face_stroke" points="6.237855715886916,2.891693510369098 5.650070463594442,2.0826765159941507 5.243333820518642,2.9962219736367515"/>
<polygon class="face_stroke" points="5.650071179481358,2.0826760263632487 4.655549284113085,2.187204489630902 5.243334536405558,2.9962214840058494"/>
<polygon class="face_stroke" points="5.6500707158869155,2.082676510369098 5.062285463594442,1.2736595159941504 4.655548820518642,2.1872049736367516"/>
<polygon class="face_stroke" points="5.062285179481358,1.2736590263632483 4.067763284113084,1.3781874896309019 4.655548536405558,2.1872044840058495"/>
<text class="face_text" text-anchor="middle" dominant-baseline="middle" transform="matrix(0.02214689891371238 0 0 0.02214689891371238 0.0 0.0)">60</text>
<text class="face_text" text-anchor="middle" dominant-baseline="middle" transform="matrix(0.02214689891371238 0 0 0.02214689891371238 5.045857 0.0)">0</text>
<text class="face_text" text-anchor="middle" dominant-baseline="middle" transform="matrix(0.02214689891371238 0 0 0.02214689891371238 5.334532 0.5)">1</text>
<text class="face_text" text-anchor="middle" dominant-baseline="middle" transform="matrix(0.02214689891371238 0 0 0.02214689891371238 10.38039 0.5)">61</text>
<text class="face_text" text-anchor="middle" dominant-baseline="middle" transform="matrix(0.02214689891371238 0 0 0.02214689891371238 6.298206 3.465881)">7</text>
<text class="face_text" text-anchor="middle" dominant-baseline="middle" transform="matrix(0.02214689891371238 0 0 0.02214689891371238 5.77077 3.231051)">6</text>
<text class="face_text" text-anchor="middle" dominant-baseline="middle" transform="matrix(0.02214689891371238 0 0 0.02214689891371238 5.71042 2.656864)">5</text>
<text class="face_text" text-anchor="middle" dominant-baseline="middle" transform="matrix(0.02214689891371238 0 0 0.02214689891371238 5.182985 2.422034)">4</text>
<text class="face_text" text-anchor="middle" dominant-baseline="middle" transform="matrix(0.02214689891371238 0 0 0.02214689891371238 5.122635 1.847847)">3</text>
<text class="face_text" text-anchor="middle" dominant-baseline="middle" transform="matrix(0.02214689891371238 0 0 0.02214689891371238 4.595199 1.613017)">2</text>
<rect class="edge_bg" x="4.535712876268063" y="-0.22146898913712385" width="0.44293797827424763" height="0.44293797827424763"/>
<text class="edge_text" text-anchor="middle" dominant-baseline="middle" transform="matrix(0.02214689891371238 0 0 0.02214689891371238 4.757181865405187 -3.535250795749691e-17)">1</text>
<rect class="edge_bg" x="4.96872544356547" y="0.02853101086287607" width="0.44293797827424763" height="0.44293797827424763"/>
<text class="edge_text" text-anchor="middle" dominant-baseline="middle" transform="matrix(0.02214689891371238 0 0 0.02214689891371238 5.190194432702594 0.2499999999999999)">4</text>
<rect class="edge_bg" x="5.401738783751584" y="0.2785310108628756" width="0.44293797827424763" height="0.44293797827424763"/>
<text class="edge_text" text-anchor="middle" dominant-baseline="middle" transform="matrix(0.02214689891371238 0 0 0.02214689891371238 5.6232077728887075 0.49999999999999944)">5</text>
<rect class="edge_bg" x="6.310280100603555" y="3.0747330240445003" width="0.44293797827424763" height="0.44293797827424763"/>
<text class="edge_text" text-anchor="middle" dominant-baseline="middle" transform="matrix(0.02214689891371238 0 0 0.02214689891371238 6.531749089740679 3.2962020131816243)">18</text>
<rect class="edge_bg" x="5.813018868806333" y="3.1269967660474247" width="0.44293797827424763" height="0.44293797827424763"/>
<text class="edge_text" text-anchor="middle" dominant-baseline="middle" transform="matrix(0.02214689891371238 0 0 0.02214689891371238 6.034487857943457 3.3484657551845487)">17</text>
<rect class="edge_bg" x="5.5191257790656545" y="2.722488752865801" width="0.44293797827424763" height="0.44293797827424763"/>
<text class="edge_text" text-anchor="middle" dominant-baseline="middle" transform="matrix(0.02214689891371238 0 0 0.02214689891371238 5.7405947682027785 2.943957742002925)">15</text>
<rect class="edge_bg" x="5.225233868806335" y="2.317979766047425" width="0.44293797827424763" height="0.44293797827424763"/>
<text class="edge_text" text-anchor="middle" dominant-baseline="middle" transform="matrix(0.02214689891371238 0 0 0.02214689891371238 5.446702857943459 2.539448755184549)">13</text>
<rect class="edge_bg" x="4.931340779065654" y="1.913471752865801" width="0.44293797827424763" height="0.44293797827424763"/>
<text class="edge_text" text-anchor="middle" dominant-baseline="middle" transform="matrix(0.02214689891371238 0 0 0.02214689891371238 5.152809768202778 2.1349407420029247)">11</text>
<rect class="edge_bg" x="4.637447868806333" y="1.5089627660474252" width="0.44293797827424763" height="0.44293797827424763"/>
<text class="edge_text" text-anchor="middle" dominant-baseline="middle" transform="matrix(0.02214689891371238 0 0 0.02214689891371238 4.858916857943457 1.730431755184549)">9</text>
</svg>
