<?xml version="1.0" encoding="utf-8"?>
<svg version="1.1" xmlns="http://www.w3.org/2000/svg" viewBox="-5.7519199498224225 -5.286724728428095 21.884229899644847 11.07344945685619" style="enable-background:new -5.7519199498224225 -5.286724728428095 21.884229899644847 11.07344945685619;">
<style type="text/css">
  .face_stroke {fill:none; stroke:#000000; stroke-width:0.02; stroke-miterlimit:10;}
  .face_text {fill:#000000; font-family:monospace;}
  .edge_text {fill:#ff0000; font-family:monospace;}
  .edge_bg {fill:#f3f3f3; stroke:#606060; stroke-width:0.01;}
</style>
<polygon class="face_stroke" points="4.757182227111293,-0.5 4.549270536293534,-1.4781476007338057 4.142533893217734,-2.3916930583764064 3.5547486409252604,-3.2007100527513543 2.811603815447866,-3.869840659110213 1.9455784116634272,-4.369840659110213 0.9945218953682741,-4.67885765348516 2.9289792484836103e-16,-4.783386116752814 -0.9945218953682724,-4.678857653485161 -1.9455784116634265,-4.3698406591102135 -2.8116038154478655,-3.869840659110213 -3.554748640925259,-3.2007100527513557 -4.142533893217734,-2.3916930583764064 -4.549270536293534,-1.4781476007338064 -4.757182227111293,-0.5000000000000013 -4.757182227111294,0.49999999999999806 -4.549270536293534,1.4781476007338072 -4.142533893217733,2.3916930583764073 -3.5547486409252604,3.2007100527513543 -2.8116038154478664,3.869840659110212 -1.9455784116634267,4.3698406591102135 -0.9945218953682756,4.67885765348516 -8.78693774545083e-16,4.783386116752814 0.9945218953682698,4.678857653485161 1.9455784116634287,4.369840659110213 2.811603815447865,3.8698406591102135 3.554748640925261,3.200710052751354 4.142533893217732,2.391693058376409 4.549270536293534,1.478147600733807 4.757182227111293,0.49999999999999983"/>
<polygon class="face_stroke" points="4.757181865405187,0.4999999999999999 5.623207269189626,1.414100318299876e-16 4.757181865405188,-0.5000000000000003"/>
<polygon class="face_stroke" points="4.757181730810374,0.49999999999999994 5.623207134594813,1.0 5.623207134594813,-1.1102230246251565e-16"/>
<polygon class="face_stroke" points="5.623207772888707,0.999999999999998 5.831119463706466,1.9781476007338072 6.237856106782267,2.8916930583764073 6.82564135907474,3.7007100527513543 7.568786184552134,4.369840659110212 8.434811588336574,4.8698406591102135 9.385868104631724,5.17885765348516 10.38039,5.283386116752814 11.37491189536827,5.178857653485161 12.325968411663428,4.869840659110213 13.191993815447866,4.3698406591102135 13.935138640925262,3.700710052751354 14.522923893217733,2.891693058376409 14.929660536293534,1.978147600733807 15.137572227111292,0.9999999999999998 15.137572227111294,2.4980018054066022e-15 14.929660536293534,-0.9781476007338046 14.522923893217737,-1.8916930583764033 13.93513864092526,-2.7007100527513557 13.191993815447871,-3.3698406591102095 12.325968411663428,-3.8698406591102126 11.374911895368273,-4.178857653485161 10.380390000000002,-4.283386116752814 9.385868104631722,-4.178857653485159 8.434811588336572,-3.8698406591102126 7.568786184552135,-3.369840659110214 6.8256413590747425,-2.700710052751358 6.2378561067822655,-1.891693058376406 5.831119463706467,-0.9781476007338077 5.6232077728887075,-4.6629367034256575e-15"/>
<polygon class="face_stroke" points="6.825640955113455,3.700710264302445 6.617729264295695,4.678857865036251 7.568785780590849,4.369840870661304"/>
<polygon class="face_stroke" points="6.8256407357043045,3.700710134963749 5.874584219409151,4.009727129338696 6.617729044886545,4.678857735697554"/>
<polygon class="face_stroke" points="6.825640780590849,3.7007098706613033 6.082495955113455,3.031579264302445 5.874584264295695,4.009726865036251"/>
<polygon class="face_stroke" points="6.0824967357043045,3.0315791349637493 5.131440219409151,3.3405961293386968 5.874585044886545,4.009726735697555"/>
<polygon class="face_stroke" points="6.08249678059085,3.0315798706613033 5.339351955113456,2.362449264302445 5.131440264295696,3.3405968650362508"/>
<polygon class="face_stroke" points="5.339351735704304,2.3624491349637493 4.388295219409151,2.6714661293386968 5.131440044886545,3.340596735697555"/>
<polygon class="face_stroke" points="5.3393517805908495,2.3624488706613036 4.5962069551134555,1.6933182643024454 4.388295264295696,2.671465865036251"/>
<polygon class="face_stroke" points="4.596206735704304,1.693318134963749 3.6451502194091505,2.0023351293386966 4.3882950448865445,2.671465735697555"/>
<text class="face_text" text-anchor="middle" dominant-baseline="middle" transform="matrix(0.02214689891371238 0 0 0.02214689891371238 0.0 0.0)">60</text>
<text class="face_text" text-anchor="middle" dominant-baseline="middle" transform="matrix(0.02214689891371238 0 0 0.02214689891371238 5.045857 0.0)">0</text>
<text class="face_text" text-anchor="middle" dominant-baseline="middle" transform="matrix(0.02214689891371238 0 0 0.02214689891371238 5.334532 0.5)">1</text>
<text class="face_text" text-anchor="middle" dominant-baseline="middle" transform="matrix(0.02214689891371238 0 0 0.02214689891371238 10.38039 0.5)">61</text>
<text class="face_text" text-anchor="middle" dominant-baseline="middle" transform="matrix(0.02214689891371238 0 0 0.02214689891371238 7.004052 4.249803)">9</text>
<text class="face_text" text-anchor="middle" dominant-baseline="middle" transform="matrix(0.02214689891371238 0 0 0.02214689891371238 6.439318 4.129765)">8</text>
<text class="face_text" text-anchor="middle" dominant-baseline="middle" transform="matrix(0.02214689891371238 0 0 0.02214689891371238 6.260907 3.580672)">7</text>
<text class="face_text" text-anchor="middle" dominant-baseline="middle" transform="matrix(0.02214689891371238 0 0 0.02214689891371238 5.696174 3.460634)">6</text>
<text class="face_text" text-anchor="middle" dominant-baseline="middle" transform="matrix(0.02214689891371238 0 0 0.02214689891371238 5.517763 2.911542)">5</text>
<text class="face_text" text-anchor="middle" dominant-baseline="middle" transform="matrix(0.02214689891371238 0 0 0.02214689891371238 4.953029 2.791504)">4</text>
<text class="face_text" text-anchor="middle" dominant-baseline="middle" transform="matrix(0.02214689891371238 0 0 0.02214689891371238 4.774618 2.242411)">3</text>
<text class="face_text" text-anchor="middle" dominant-baseline="middle" transform="matrix(0.02214689891371238 0 0 0.02214689891371238 4.209884 2.122373)">2</text>
<rect class="edge_bg" x="4.535712876268063" y="-0.22146898913712385" width="0.44293797827424763" height="0.44293797827424763"/>
<text class="edge_text" text-anchor="middle" dominant-baseline="middle" transform="matrix(0.02214689891371238 0 0 0.02214689891371238 4.757181865405187 -3.535250795749691e-17)">1</text>
<rect class="edge_bg" x="4.96872544356547" y="0.02853101086287607" width="0.44293797827424763" height="0.44293797827424763"/>
<text class="edge_text" text-anchor="middle" dominant-baseline="middle" transform="matrix(0.02214689891371238 0 0 0.02214689891371238 5.190194432702594 0.2499999999999999)">4</text>
<rect class="edge_bg" x="5.401738783751584" y="0.2785310108628756" width="0.44293797827424763" height="0.44293797827424763"/>
<text class="edge_text" text-anchor="middle" dominant-baseline="middle" transform="matrix(0.02214689891371238 0 0 0.02214689891371238 5.6232077728887075 0.49999999999999944)">5</text>
<rect class="edge_bg" x="6.975744378715028" y="3.8138065783447503" width="0.44293797827424763" height="0.44293797827424763"/>
<text class="edge_text" text-anchor="middle" dominant-baseline="middle" transform="matrix(0.02214689891371238 0 0 0.02214689891371238 7.197213367852152 4.035275567481874)">22</text>
<rect class="edge_bg" x="6.500215901158301" y="3.9683149461935274" width="0.44293797827424763" height="0.44293797827424763"/>
<text class="edge_text" text-anchor="middle" dominant-baseline="middle" transform="matrix(0.02214689891371238 0 0 0.02214689891371238 6.721684890295425 4.189783935330651)">21</text>
<rect class="edge_bg" x="6.128643533306148" y="3.633749378711653" width="0.44293797827424763" height="0.44293797827424763"/>
<text class="edge_text" text-anchor="middle" dominant-baseline="middle" transform="matrix(0.02214689891371238 0 0 0.02214689891371238 6.350112522443272 3.855218367848777)">19</text>
<rect class="edge_bg" x="5.757071901158301" y="3.299183946193528" width="0.44293797827424763" height="0.44293797827424763"/>
<text class="edge_text" text-anchor="middle" dominant-baseline="middle" transform="matrix(0.02214689891371238 0 0 0.02214689891371238 5.978540890295425 3.520652935330652)">17</text>
<rect class="edge_bg" x="5.385499533306149" y="2.964619378711653" width="0.44293797827424763" height="0.44293797827424763"/>
<text class="edge_text" text-anchor="middle" dominant-baseline="middle" transform="matrix(0.02214689891371238 0 0 0.02214689891371238 5.606968522443273 3.186088367848777)">15</text>
<rect class="edge_bg" x="5.0139269011583005" y="2.630053946193528" width="0.44293797827424763" height="0.44293797827424763"/>
<text class="edge_text" text-anchor="middle" dominant-baseline="middle" transform="matrix(0.02214689891371238 0 0 0.02214689891371238 5.2353958902954245 2.851522935330652)">13</text>
<rect class="edge_bg" x="4.642354533306149" y="2.295488378711654" width="0.44293797827424763" height="0.44293797827424763"/>
<text class="edge_text" text-anchor="middle" dominant-baseline="middle" transform="matrix(0.02214689891371238 0 0 0.02214689891371238 4.863823522443273 2.5169573678487778)">11</text>
<rect class="edge_bg" x="4.2707819011583" y="1.9609229461935282" width="0.44293797827424763" height="0.44293797827424763"/>
<text class="edge_text" text-anchor="middle" dominant-baseline="middle" transform="matrix(0.02214689891371238 0 0 0.02214689891371238 4.492250890295424 2.182391935330652)">9</text>
</svg>
