<?xml version="1.0" encoding="utf-8"?>
<svg version="1.1" xmlns="http://www.w3.org/2000/svg" viewBox="-5.7519199498224225 -5.354557478320073 21.884229899644847 11.144512337695407" style="enable-background:new -5.7519199498224225 -5.354557478320073 21.884229899644847 11.144512337695407;">
<style type="text/css">
  .face_stroke {fill:none; stroke:#000000; stroke-width:0.02; stroke-miterlimit:10;}
  .face_text {fill:#000000; font-family:monospace;}
  .edge_text {fill:#ff0000; font-family:monospace;}
  .edge_bg {fill:#f3f3f3; stroke:#606060; stroke-width:0.01;}
</style>
<polygon class="face_stroke" points="4.757182227111293,-0.5 4.549270536293534,-1.4781476007338057 4.142533893217734,-2.3916930583764064 3.5547486409252604,-3.2007100527513543 2.811603815447866,-3.869840659110213 1.9455784116634272,-4.369840659110213 0.9945218953682741,-4.67885765348516 2.9289792484836103e-16,-4.783386116752814 -0.9945218953682724,-4.678857653485161 -1.9455784116634265,-4.3698406591102135 -2.8116038154478655,-3.869840659110213 -3.554748640925259,-3.2007100527513557 -4.142533893217734,-2.3916930583764064 -4.549270536293534,-1.4781476007338064 -4.757182227111293,-0.5000000000000013 -4.757182227111294,0.49999999999999806 -4.549270536293534,1.4781476007338072 -4.142533893217733,2.3916930583764073 -3.5547486409252604,3.2007100527513543 -2.8116038154478664,3.869840659110212 -1.9455784116634267,4.3698406591102135 -0.9945218953682756,4.67885765348516 -8.78693774545083e-16,4.783386116752814 0.9945218953682698,4.678857653485161 1.9455784116634287,4.369840659110213 2.811603815447865,3.8698406591102135 3.554748640925261,3.200710052751354 4.142533893217732,2.391693058376409 4.549270536293534,1.478147600733807 4.757182227111293,0.49999999999999983"/>
<polygon class="face_stroke" points="4.757181865405187,0.4999999999999999 5.623207269189626,1.414100318299876e-16 4.757181865405188,-0.5000000000000003"/>
<polygon class="face_stroke" points="4.757181730810374,0.49999999999999994 5.623207134594813,1.0 5.623207134594813,-1.1102230246251565e-16"/>
<polygon class="face_stroke" points="5.623207772888707,0.999999999999998 5.831119463706466,1.9781476007338072 6.237856106782267,2.8916930583764073 6.82564135907474,3.7007100527513543 7.568786184552134,4.369840659110212 8.434811588336574,4.8698406591102135 9.385868104631724,5.17885765348516 10.38039,5.283386116752814 11.37491189536827,5.178857653485161 12.325968411663428,4.869840659110213 13.191993815447866,4.3698406591102135 13.935138640925262,3.700710052751354 14.522923893217733,2.891693058376409 14.929660536293534,1.978147600733807 15.137572227111292,0.9999999999999998 15.137572227111294,2.4980018054066022e-15 14.929660536293534,-0.9781476007338046 14.522923893217737,-1.8916930583764033 13.93513864092526,-2.7007100527513557 13.191993815447871,-3.3698406591102095 12.325968411663428,-3.8698406591102126 11.374911895368273,-4.178857653485161 10.380390000000002,-4.283386116752814 9.385868104631722,-4.178857653485159 8.434811588336572,-3.8698406591102126 7.568786184552135,-3.369840659110214 6.8256413590747425,-2.700710052751358 6.2378561067822655,-1.891693058376406 5.831119463706467,-0.9781476007338077 5.6232077728887075,-4.6629367034256575e-15"/>
<polygon class="face_stroke" points="9.38586778059085,-4.178858129338696 8.642722955113456,-4.847988735697554 8.434811264295696,-3.869841134963749"/>
<polygon class="face_stroke" points="8.642722735704304,-4.847987865036251 7.69166621940915,-4.538970870661304 8.434811044886544,-3.869840264302445"/>
<polygon class="face_stroke" points="7.6916669551134556,-4.5389717356975545 7.483755264295696,-3.5608241349637493 8.43481178059085,-3.8698411293386963"/>
<polygon class="face_stroke" points="7.691666735704304,-4.5389708650362515 6.740610219409151,-4.229953870661304 7.483755044886545,-3.5608232643024453"/>
<polygon class="face_stroke" points="6.740609955113455,-4.229954735697555 6.5326982642956954,-3.251807134963749 7.483754780590849,-3.560824129338696"/>
<polygon class="face_stroke" points="6.740609735704305,-4.229953865036251 5.789553219409151,-3.9209368706613033 6.532698044886545,-3.251806264302445"/>
<polygon class="face_stroke" points="5.789553955113456,-3.9209377356975548 5.581642264295696,-2.942790134963749 6.53269878059085,-3.251807129338696"/>
<polygon class="face_stroke" points="5.789553735704304,-3.920936865036251 4.838497219409151,-3.6119198706613034 5.581642044886545,-2.942789264302445"/>
<polygon class="face_stroke" points="4.838496955113455,-3.611920735697555 4.6305852642956955,-2.633773134963749 5.581641780590849,-2.942790129338696"/>
<polygon class="face_stroke" points="4.838496735704305,-3.611919865036251 3.887440219409151,-3.3029028706613035 4.630585044886545,-2.6337722643024453"/>
<polygon class="face_stroke" points="3.8874409551134548,-3.3029037356975546 3.679529264295695,-2.324756134963749 4.630585780590849,-2.633773129338696"/>
<text class="face_text" text-anchor="middle" dominant-baseline="middle" transform="matrix(0.022289024675390814 0 0 0.022289024675390814 0.0 0.0)">60</text>
<text class="face_text" text-anchor="middle" dominant-baseline="middle" transform="matrix(0.022289024675390814 0 0 0.022289024675390814 5.045857 0.0)">0</text>
<text class="face_text" text-anchor="middle" dominant-baseline="middle" transform="matrix(0.022289024675390814 0 0 0.022289024675390814 5.334532 0.5)">1</text>
<text class="face_text" text-anchor="middle" dominant-baseline="middle" transform="matrix(0.022289024675390814 0 0 0.022289024675390814 10.38039 0.5)">61</text>
<text class="face_text" text-anchor="middle" dominant-baseline="middle" transform="matrix(0.022289024675390814 0 0 0.022289024675390814 8.821134 -4.298896)">49</text>
<text class="face_text" text-anchor="middle" dominant-baseline="middle" transform="matrix(0.022289024675390814 0 0 0.022289024675390814 8.2564 -4.418933)">50</text>
<text class="face_text" text-anchor="middle" dominant-baseline="middle" transform="matrix(0.022289024675390814 0 0 0.022289024675390814 7.870078 -3.989879)">51</text>
<text class="face_text" text-anchor="middle" dominant-baseline="middle" transform="matrix(0.022289024675390814 0 0 0.022289024675390814 7.305344 -4.109916)">52</text>
<text class="face_text" text-anchor="middle" dominant-baseline="middle" transform="matrix(0.022289024675390814 0 0 0.022289024675390814 6.919021 -3.680862)">53</text>
<text class="face_text" text-anchor="middle" dominant-baseline="middle" transform="matrix(0.022289024675390814 0 0 0.022289024675390814 6.354287 -3.800899)">54</text>
<text class="face_text" text-anchor="middle" dominant-baseline="middle" transform="matrix(0.022289024675390814 0 0 0.022289024675390814 5.967965 -3.371845)">55</text>
<text class="face_text" text-anchor="middle" dominant-baseline="middle" transform="matrix(0.022289024675390814 0 0 0.022289024675390814 5.403231 -3.491882)">56</text>
<text class="face_text" text-anchor="middle" dominant-baseline="middle" transform="matrix(0.022289024675390814 0 0 0.022289024675390814 5.016908 -3.062828)">57</text>
<text class="face_text" text-anchor="middle" dominant-baseline="middle" transform="matrix(0.022289024675390814 0 0 0.022289024675390814 4.452174 -3.182865)">58</text>
<text class="face_text" text-anchor="middle" dominant-baseline="middle" transform="matrix(0.022289024675390814 0 0 0.022289024675390814 4.065852 -2.753811)">59</text>
<rect class="edge_bg" x="4.534291618651278" y="-0.22289024675390817" width="0.4457804935078163" height="0.4457804935078163"/>
<text class="edge_text" text-anchor="middle" dominant-baseline="middle" transform="matrix(0.022289024675390814 0 0 0.022289024675390814 4.757181865405187 -3.535250795749691e-17)">1</text>
<rect class="edge_bg" x="4.967304185948685" y="0.027109753246091745" width="0.4457804935078163" height="0.4457804935078163"/>
<text class="edge_text" text-anchor="middle" dominant-baseline="middle" transform="matrix(0.022289024675390814 0 0 0.022289024675390814 5.190194432702594 0.2499999999999999)">4</text>
<rect class="edge_bg" x="5.400317526134799" y="0.27710975324609133" width="0.4457804935078163" height="0.4457804935078163"/>
<text class="edge_text" text-anchor="middle" dominant-baseline="middle" transform="matrix(0.022289024675390814 0 0 0.022289024675390814 5.6232077728887075 0.49999999999999944)">5</text>
<rect class="edge_bg" x="8.687449275689366" y="-4.247239878905131" width="0.4457804935078163" height="0.4457804935078163"/>
<text class="edge_text" text-anchor="middle" dominant-baseline="middle" transform="matrix(0.022289024675390814 0 0 0.022289024675390814 8.910339522443273 -4.024349632151223)">102</text>
<rect class="edge_bg" x="8.315876643541516" y="-4.581804311423257" width="0.4457804935078163" height="0.4457804935078163"/>
<text class="edge_text" text-anchor="middle" dominant-baseline="middle" transform="matrix(0.022289024675390814 0 0 0.022289024675390814 8.538766890295424 -4.3589140646693485)">103</text>
<rect class="edge_bg" x="7.840349121098243" y="-4.427296679272034" width="0.4457804935078163" height="0.4457804935078163"/>
<text class="edge_text" text-anchor="middle" dominant-baseline="middle" transform="matrix(0.022289024675390814 0 0 0.022289024675390814 8.063239367852152 -4.204406432518126)">105</text>
<rect class="edge_bg" x="7.364820643541516" y="-4.272787311423257" width="0.4457804935078163" height="0.4457804935078163"/>
<text class="edge_text" text-anchor="middle" dominant-baseline="middle" transform="matrix(0.022289024675390814 0 0 0.022289024675390814 7.5877108902954244 -4.049897064669349)">107</text>
<rect class="edge_bg" x="6.889292121098244" y="-4.1182796792720335" width="0.4457804935078163" height="0.4457804935078163"/>
<text class="edge_text" text-anchor="middle" dominant-baseline="middle" transform="matrix(0.022289024675390814 0 0 0.022289024675390814 7.112182367852152 -3.8953894325181255)">109</text>
<rect class="edge_bg" x="6.413763643541516" y="-3.963770311423256" width="0.4457804935078163" height="0.4457804935078163"/>
<text class="edge_text" text-anchor="middle" dominant-baseline="middle" transform="matrix(0.022289024675390814 0 0 0.022289024675390814 6.636653890295425 -3.740880064669348)">111</text>
<rect class="edge_bg" x="5.938236121098244" y="-3.8092626792720337" width="0.4457804935078163" height="0.4457804935078163"/>
<text class="edge_text" text-anchor="middle" dominant-baseline="middle" transform="matrix(0.022289024675390814 0 0 0.022289024675390814 6.161126367852153 -3.5863724325181257)">113</text>
<rect class="edge_bg" x="5.462707643541516" y="-3.654753311423256" width="0.4457804935078163" height="0.4457804935078163"/>
<text class="edge_text" text-anchor="middle" dominant-baseline="middle" transform="matrix(0.022289024675390814 0 0 0.022289024675390814 5.6855978902954245 -3.431863064669348)">115</text>
<rect class="edge_bg" x="4.987179121098244" y="-3.500245679272034" width="0.4457804935078163" height="0.4457804935078163"/>
<text class="edge_text" text-anchor="middle" dominant-baseline="middle" transform="matrix(0.022289024675390814 0 0 0.022289024675390814 5.210069367852152 -3.2773554325181258)">117</text>
<rect class="edge_bg" x="4.5116506435415165" y="-3.345736311423256" width="0.4457804935078163" height="0.4457804935078163"/>
<text class="edge_text" text-anchor="middle" dominant-baseline="middle" transform="matrix(0.022289024675390814 0 0 0.022289024675390814 4.734540890295425 -3.122846064669348)">119</text>
<rect class="edge_bg" x="4.036123121098243" y="-3.1912286792720335" width="0.4457804935078163" height="0.4457804935078163"/>
<text class="edge_text" text-anchor="middle" dominant-baseline="middle" transform="matrix(0.022289024675390814 0 0 0.022289024675390814 4.259013367852152 -2.9683384325181255)">3</text>
</svg>
