<?xml version="1.0" encoding="utf-8"?>
<svg version="1.1" xmlns="http://www.w3.org/2000/svg" viewBox="-5.7519199498224225 -5.286724728428095 21.884229899644847 11.07344945685619" style="enable-background:new -5.7519199498224225 -5.286724728428095 21.884229899644847 11.07344945685619;">
<style type="text/css">
  .face_stroke {fill:none; stroke:#000000; stroke-width:0.02; stroke-miterlimit:10;}
  .face_text {fill:#000000; font-family:monospace;}
  .edge_text {fill:#ff0000; font-family:monospace;}
  .edge_bg {fill:#f3f3f3; stroke:#606060; stroke-width:0.01;}
</style>
<polygon class="face_stroke" points="4.757182227111293,-0.5 4.549270536293534,-1.4781476007338057 4.142533893217734,-2.3916930583764064 3.5547486409252604,-3.2007100527513543 2.811603815447866,-3.869840659110213 1.9455784116634272,-4.369840659110213 0.9945218953682741,-4.67885765348516 2.9289792484836103e-16,-4.783386116752814 -0.9945218953682724,-4.678857653485161 -1.9455784116634265,-4.3698406591102135 -2.8116038154478655,-3.869840659110213 -3.554748640925259,-3.2007100527513557 -4.142533893217734,-2.3916930583764064 -4.549270536293534,-1.4781476007338064 -4.757182227111293,-0.5000000000000013 -4.757182227111294,0.49999999999999806 -4.549270536293534,1.4781476007338072 -4.142533893217733,2.3916930583764073 -3.5547486409252604,3.2007100527513543 -2.8116038154478664,3.869840659110212 -1.9455784116634267,4.3698406591102135 -0.9945218953682756,4.67885765348516 -8.78693774545083e-16,4.783386116752814 0.9945218953682698,4.678857653485161 1.9455784116634287,4.369840659110213 2.811603815447865,3.8698406591102135 3.554748640925261,3.200710052751354 4.142533893217732,2.391693058376409 4.549270536293534,1.478147600733807 4.757182227111293,0.49999999999999983"/>
<polygon class="face_stroke" points="4.757181865405187,0.4999999999999999 5.623207269189626,1.414100318299876e-16 4.757181865405188,-0.5000000000000003"/>
<polygon class="face_stroke" points="4.757181730810374,0.49999999999999994 5.623207134594813,1.0 5.623207134594813,-1.1102230246251565e-16"/>
<polygon class="face_stroke" points="5.623207772888707,0.999999999999998 5.831119463706466,1.9781476007338072 6.237856106782267,2.8916930583764073 6.82564135907474,3.7007100527513543 7.568786184552134,4.369840659110212 8.434811588336574,4.8698406591102135 9.385868104631724,5.17885765348516 10.38039,5.283386116752814 11.37491189536827,5.178857653485161 12.325968411663428,4.869840659110213 13.191993815447866,4.3698406591102135 13.935138640925262,3.700710052751354 14.522923893217733,2.891693058376409 14.929660536293534,1.978147600733807 15.137572227111292,0.9999999999999998 15.137572227111294,2.4980018054066022e-15 14.929660536293534,-0.9781476007338046 14.522923893217737,-1.8916930583764033 13.93513864092526,-2.7007100527513557 13.191993815447871,-3.3698406591102095 12.325968411663428,-3.8698406591102126 11.374911895368273,-4.178857653485161 10.380390000000002,-4.283386116752814 9.385868104631722,-4.178857653485159 8.434811588336572,-3.8698406591102126 7.568786184552135,-3.369840659110214 6.8256413590747425,-2.700710052751358 6.2378561067822655,-1.891693058376406 5.831119463706467,-0.9781476007338077 5.6232077728887075,-4.6629367034256575e-15"/>
<polygon class="face_stroke" points="8.434811269189625,-3.869841 7.568785865405187,-4.369841 7.568785865405187,-3.369841"/>
<polygon class="face_stroke" points="7.568786134594813,-4.369841 6.702760730810374,-3.869841 7.568786134594813,-3.369841"/>
<polygon class="face_stroke" points="6.702760865405187,-3.869841 6.702760865405187,-2.869841 7.568786269189626,-3.369841"/>
<polygon class="face_stroke" points="6.702761134594813,-3.869841 5.836735730810374,-3.369841 6.702761134594813,-2.869841"/>
<polygon class="face_stroke" points="5.8367348654051865,-3.369841 5.8367348654051865,-2.369841 6.702760269189626,-2.869841"/>
<polygon class="face_stroke" points="5.8367351345948135,-3.369841 4.970709730810374,-2.869841 5.8367351345948135,-2.369841"/>
<polygon class="face_stroke" points="4.970709865405187,-2.869841 4.970709865405187,-1.869841 5.836735269189626,-2.369841"/>
<polygon class="face_stroke" points="4.970710134594813,-2.869841 4.104684730810374,-2.369841 4.970710134594813,-1.869841"/>
<text class="face_text" text-anchor="middle" dominant-baseline="middle" transform="matrix(0.02214689891371238 0 0 0.02214689891371238 0.0 0.0)">60</text>
<text class="face_text" text-anchor="middle" dominant-baseline="middle" transform="matrix(0.02214689891371238 0 0 0.02214689891371238 5.045857 0.0)">0</text>
<text class="face_text" text-anchor="middle" dominant-baseline="middle" transform="matrix(0.02214689891371238 0 0 0.02214689891371238 5.334532 0.5)">1</text>
<text class="face_text" text-anchor="middle" dominant-baseline="middle" transform="matrix(0.02214689891371238 0 0 0.02214689891371238 10.38039 0.5)">61</text>
<text class="face_text" text-anchor="middle" dominant-baseline="middle" transform="matrix(0.02214689891371238 0 0 0.02214689891371238 7.857461 -3.869841)">51</text>
<text class="face_text" text-anchor="middle" dominant-baseline="middle" transform="matrix(0.02214689891371238 0 0 0.02214689891371238 7.280111 -3.869841)">52</text>
<text class="face_text" text-anchor="middle" dominant-baseline="middle" transform="matrix(0.02214689891371238 0 0 0.02214689891371238 6.991436 -3.369841)">53</text>
<text class="face_text" text-anchor="middle" dominant-baseline="middle" transform="matrix(0.02214689891371238 0 0 0.02214689891371238 6.414086 -3.369841)">54</text>
<text class="face_text" text-anchor="middle" dominant-baseline="middle" transform="matrix(0.02214689891371238 0 0 0.02214689891371238 6.12541 -2.869841)">55</text>
<text class="face_text" text-anchor="middle" dominant-baseline="middle" transform="matrix(0.02214689891371238 0 0 0.02214689891371238 5.54806 -2.869841)">56</text>
<text class="face_text" text-anchor="middle" dominant-baseline="middle" transform="matrix(0.02214689891371238 0 0 0.02214689891371238 5.259385 -2.369841)">57</text>
<text class="face_text" text-anchor="middle" dominant-baseline="middle" transform="matrix(0.02214689891371238 0 0 0.02214689891371238 4.682035 -2.369841)">58</text>
<rect class="edge_bg" x="4.535712876268063" y="-0.22146898913712385" width="0.44293797827424763" height="0.44293797827424763"/>
<text class="edge_text" text-anchor="middle" dominant-baseline="middle" transform="matrix(0.02214689891371238 0 0 0.02214689891371238 4.757181865405187 -3.535250795749691e-17)">1</text>
<rect class="edge_bg" x="4.96872544356547" y="0.02853101086287607" width="0.44293797827424763" height="0.44293797827424763"/>
<text class="edge_text" text-anchor="middle" dominant-baseline="middle" transform="matrix(0.02214689891371238 0 0 0.02214689891371238 5.190194432702594 0.2499999999999999)">4</text>
<rect class="edge_bg" x="5.401738783751584" y="0.2785310108628756" width="0.44293797827424763" height="0.44293797827424763"/>
<text class="edge_text" text-anchor="middle" dominant-baseline="middle" transform="matrix(0.02214689891371238 0 0 0.02214689891371238 5.6232077728887075 0.49999999999999944)">5</text>
<rect class="edge_bg" x="7.780329578160282" y="-3.841309989137124" width="0.44293797827424763" height="0.44293797827424763"/>
<text class="edge_text" text-anchor="middle" dominant-baseline="middle" transform="matrix(0.02214689891371238 0 0 0.02214689891371238 8.001798567297406 -3.619841)">106</text>
<rect class="edge_bg" x="7.347317145457689" y="-4.091309989137124" width="0.44293797827424763" height="0.44293797827424763"/>
<text class="edge_text" text-anchor="middle" dominant-baseline="middle" transform="matrix(0.02214689891371238 0 0 0.02214689891371238 7.568786134594813 -3.869841)">107</text>
<rect class="edge_bg" x="6.914304578160283" y="-3.841309989137124" width="0.44293797827424763" height="0.44293797827424763"/>
<text class="edge_text" text-anchor="middle" dominant-baseline="middle" transform="matrix(0.02214689891371238 0 0 0.02214689891371238 7.135773567297407 -3.619841)">109</text>
<rect class="edge_bg" x="6.481292145457689" y="-3.591309989137124" width="0.44293797827424763" height="0.44293797827424763"/>
<text class="edge_text" text-anchor="middle" dominant-baseline="middle" transform="matrix(0.02214689891371238 0 0 0.02214689891371238 6.702761134594813 -3.369841)">111</text>
<rect class="edge_bg" x="6.048278578160282" y="-3.341309989137124" width="0.44293797827424763" height="0.44293797827424763"/>
<text class="edge_text" text-anchor="middle" dominant-baseline="middle" transform="matrix(0.02214689891371238 0 0 0.02214689891371238 6.269747567297406 -3.119841)">113</text>
<rect class="edge_bg" x="5.6152661454576895" y="-3.091309989137124" width="0.44293797827424763" height="0.44293797827424763"/>
<text class="edge_text" text-anchor="middle" dominant-baseline="middle" transform="matrix(0.02214689891371238 0 0 0.02214689891371238 5.8367351345948135 -2.869841)">115</text>
<rect class="edge_bg" x="5.1822535781602825" y="-2.841309989137124" width="0.44293797827424763" height="0.44293797827424763"/>
<text class="edge_text" text-anchor="middle" dominant-baseline="middle" transform="matrix(0.02214689891371238 0 0 0.02214689891371238 5.4037225672974065 -2.619841)">117</text>
<rect class="edge_bg" x="4.749241145457689" y="-2.591309989137124" width="0.44293797827424763" height="0.44293797827424763"/>
<text class="edge_text" text-anchor="middle" dominant-baseline="middle" transform="matrix(0.02214689891371238 0 0 0.02214689891371238 4.970710134594813 -2.369841)">119</text>
</svg>
