<?xml version="1.0" encoding="utf-8"?>
<svg version="1.1" xmlns="http://www.w3.org/2000/svg" viewBox="-9.346355765160355 -8.050578915160356 16.535596526580722 18.255625826580722" style="enable-background:new -9.346355765160355 -8.050578915160356 16.535596526580722 18.255625826580722;">
<style type="text/css">
  .face_stroke {fill:none; stroke:#000000; stroke-width:0.02; stroke-miterlimit:10;}
  .face_text {fill:#000000; font-family:monospace;}
  .edge_text {fill:#ff0000; font-family:monospace;}
  .edge_bg {fill:#f3f3f3; stroke:#606060; stroke-width:0.01;}
</style>
<polygon class="face_stroke" points="0.5000000000000001,-0.5 -0.5,-0.5000000000000001 -0.5000000000000001,0.5 0.4999999999999999,0.5000000000000001"/>
<polygon class="face_stroke" points="0.4999999999999999,0.5 1.5,0.5000000000000001 1.5000000000000007,-0.49999999999999944 0.49999999999999967,-0.4999999999999998"/>
<polygon class="face_stroke" points="1.5,0.5 2.5,0.5000000000000001 2.500000000000001,-0.49999999999999944 1.4999999999999996,-0.4999999999999998"/>
<polygon class="face_stroke" points="1.5000000000000002,0.5000002625151216 0.5250720878181769,0.722521196471436 -0.3758967800842443,1.1564049355889954 -1.157728262552272,1.7798947374477279 -1.7812180644110058,2.5617262199157573 -2.2151018035285643,3.462695087818176 -2.4376227374848787,4.437622999999999 -2.4376227374848787,5.437622999999999 -2.2151018035285635,6.412550912181825 -1.781218064411005,7.313519780084244 -1.1577282625522716,8.095351262552274 -0.37589678008423943,8.718841064411007 0.5250720878181794,9.152724803528566 1.500000000000003,9.375245737484878 2.499999999999999,9.375245737484878 3.4749279121818226,9.152724803528564 4.375896780084242,8.718841064411006 5.1577282625522685,8.095351262552276 5.781218064411002,7.313519780084251 6.215101803528561,6.412550912181832 6.437622737484878,5.437623000000009 6.43762273748488,4.437623000000014 6.215101803528569,3.4626950878181892 5.7812180644110125,2.5617262199157684 5.157728262552287,1.779894737447743 4.37589678008426,1.1564049355890056 3.4749279121818435,0.7225211964714431 2.500000000000029,0.5000002625151252"/>
<polygon class="face_stroke" points="-0.3758963572444217,1.1564048350487588 -0.9993861649512409,0.37457335724442187 -1.7812176427555784,0.9980631649512414 -1.1577278350487594,1.7798946427555782"/>
<polygon class="face_stroke" points="-0.9993867138279753,0.37457323893252026 -0.3758969178173279,-0.40725824819920264 0.057986814560998745,-1.3082271193470643 0.2805077412248691,-2.2831550331933403 0.28050773374488625,-3.2831550331933403 0.057986792496128814,-4.258082943710711 -0.3758969533606611,-5.159051808367687 -0.9993867610674805,-5.940883286172025 -1.7812182481992038,-6.564373082182673 -2.6821871193470654,-6.998256814561 -3.657115033193342,-7.220777741224869 -4.6571150331933415,-7.220777733744886 -5.632042943710713,-6.998256792496128 -6.53301180836769,-6.5643730466393375 -7.314843286172025,-5.9408832389325195 -7.938333082182673,-5.159051751800794 -8.372216814561,-4.258082880652933 -8.594737741224868,-3.283154966806656 -8.594737733744886,-2.2831549668066566 -8.372216792496127,-1.3082270562892842 -7.938333046639337,-0.40725819163230836 -7.314843238932516,0.3745732861720281 -6.533011751800793,0.9980630821826746 -5.632042880652931,1.4319468145610008 -4.657114966806655,1.6544677412248703 -3.657114966806655,1.6544677337448865 -2.6821870562892887,1.431946792496129 -1.7812181916323122,0.9980630466393392"/>
<text class="face_text" text-anchor="middle" dominant-baseline="middle" transform="matrix(0.033071193053161446 0 0 0.033071193053161446 0.0 0.0)">0</text>
<text class="face_text" text-anchor="middle" dominant-baseline="middle" transform="matrix(0.033071193053161446 0 0 0.033071193053161446 1.0 0.0)">27</text>
<text class="face_text" text-anchor="middle" dominant-baseline="middle" transform="matrix(0.033071193053161446 0 0 0.033071193053161446 2.0 0.0)">26</text>
<text class="face_text" text-anchor="middle" dominant-baseline="middle" transform="matrix(0.033071193053161446 0 0 0.033071193053161446 2.0 4.937623)">29</text>
<text class="face_text" text-anchor="middle" dominant-baseline="middle" transform="matrix(0.033071193053161446 0 0 0.033071193053161446 -1.078557 1.077234)">1</text>
<text class="face_text" text-anchor="middle" dominant-baseline="middle" transform="matrix(0.033071193053161446 0 0 0.033071193053161446 -4.157115 -2.783155)">28</text>
<rect class="edge_bg" x="0.16928806946838543" y="-0.3307119305316145" width="0.6614238610632289" height="0.6614238610632289"/>
<text class="edge_text" text-anchor="middle" dominant-baseline="middle" transform="matrix(0.033071193053161446 0 0 0.033071193053161446 0.4999999999999999 -6.123233995736767e-17)">0</text>
<rect class="edge_bg" x="1.1692880694683856" y="-0.3307119305316145" width="0.6614238610632289" height="0.6614238610632289"/>
<text class="edge_text" text-anchor="middle" dominant-baseline="middle" transform="matrix(0.033071193053161446 0 0 0.033071193053161446 1.5 -6.123233995736767e-17)">83</text>
<rect class="edge_bg" x="1.669288069468386" y="0.16928833198350718" width="0.6614238610632289" height="0.6614238610632289"/>
<text class="edge_text" text-anchor="middle" dominant-baseline="middle" transform="matrix(0.033071193053161446 0 0 0.033071193053161446 2.0000000000000004 0.5000002625151216)">82</text>
<rect class="edge_bg" x="-1.0975240266782047" y="1.1374378083705543" width="0.6614238610632289" height="0.6614238610632289"/>
<text class="edge_text" text-anchor="middle" dominant-baseline="middle" transform="matrix(0.033071193053161446 0 0 0.033071193053161446 -0.7668120961465903 1.4681497389021687)">7</text>
<rect class="edge_bg" x="-1.7210143832617582" y="0.3556062122543157" width="0.6614238610632289" height="0.6614238610632289"/>
<text class="edge_text" text-anchor="middle" dominant-baseline="middle" transform="matrix(0.033071193053161446 0 0 0.033071193053161446 -1.3903024527301437 0.6863181427859302)">6</text>
</svg>
