<?xml version="1.0" encoding="utf-8"?>
<svg version="1.1" xmlns="http://www.w3.org/2000/svg" viewBox="-9.988201915160358 -6.408732765160357 18.255625826580726 16.535596526580722" style="enable-background:new -9.988201915160358 -6.408732765160357 18.255625826580726 16.535596526580722;">
<style type="text/css">
  .face_stroke {fill:none; stroke:#000000; stroke-width:0.02; stroke-miterlimit:10;}
  .face_text {fill:#000000; font-family:monospace;}
  .edge_text {fill:#ff0000; font-family:monospace;}
  .edge_bg {fill:#f3f3f3; stroke:#606060; stroke-width:0.01;}
</style>
<polygon class="face_stroke" points="0.5000000000000001,-0.5 -0.5,-0.5000000000000001 -0.5000000000000001,0.5 0.4999999999999999,0.5000000000000001"/>
<polygon class="face_stroke" points="0.4999999999999999,0.5 1.5,0.5000000000000001 1.5000000000000007,-0.49999999999999944 0.49999999999999967,-0.4999999999999998"/>
<polygon class="face_stroke" points="1.5,0.5 2.5,0.5000000000000001 2.500000000000001,-0.49999999999999944 1.4999999999999996,-0.4999999999999998"/>
<polygon class="face_stroke" points="2.5,0.5 3.5,0.5000000000000001 3.500000000000001,-0.49999999999999944 2.4999999999999996,-0.4999999999999998"/>
<polygon class="face_stroke" points="2.5000000000000004,0.5000002625151216 1.525072087818177,0.722521196471436 0.6241032199157557,1.1564049355889954 -0.157728262552272,1.7798947374477279 -0.7812180644110058,2.5617262199157573 -1.2151018035285643,3.462695087818176 -1.4376227374848787,4.437622999999999 -1.4376227374848787,5.437622999999999 -1.2151018035285635,6.412550912181825 -0.7812180644110049,7.313519780084244 -0.15772826255227157,8.095351262552274 0.6241032199157606,8.718841064411007 1.5250720878181794,9.152724803528566 2.500000000000003,9.375245737484878 3.499999999999999,9.375245737484878 4.474927912181823,9.152724803528564 5.375896780084242,8.718841064411006 6.1577282625522685,8.095351262552276 6.781218064411002,7.313519780084251 7.215101803528561,6.412550912181832 7.437622737484878,5.437623000000009 7.43762273748488,4.437623000000014 7.215101803528569,3.4626950878181892 6.7812180644110125,2.5617262199157684 6.157728262552287,1.779894737447743 5.37589678008426,1.1564049355890056 4.474927912181844,0.7225211964714431 3.500000000000029,0.5000002625151252"/>
<polygon class="face_stroke" points="-0.1577283572444217,1.7798941649512412 -0.9395598350487588,1.1564043572444218 -1.5630496427555782,1.9382358350487587 -0.7812181649512409,2.561725642755578"/>
<polygon class="face_stroke" points="-0.9395599533606611,1.1564048083676874 -0.5056762075038712,0.255435943710711 -0.2831552662551138,-0.7194919668066597 -0.2831552587751309,-1.7194919668066597 -0.5056761854390013,-2.694419880652936 -0.939559917817328,-3.5953887518007974 -1.5630497138279753,-4.37722023893252 -2.344881191632313,-5.000710046639339 -3.24585005628929,-5.434593792496129 -4.220777966806661,-5.657114733744887 -5.2207779668066605,-5.657114741224869 -6.195705880652937,-5.434593814560998 -7.0966747518007995,-5.000710082182671 -7.878506238932521,-4.377220286172024 -8.501996046639341,-3.5953888083676864 -8.93587979249613,-2.6944199437107095 -9.158400733744887,-1.7194920331933385 -9.15840074122487,-0.7194920331933387 -8.935879814560998,0.2554358806529373 -8.501996082182671,1.1564047518007994 -7.878506286172023,1.9382362389325214 -7.096674808367682,2.5617260466393423 -6.195705943710706,2.995609792496131 -5.220778033193335,3.2181307337448883 -4.220778033193339,3.2181307412248694 -3.245850119347063,2.995609814560998 -2.3448812481992043,2.5617260821826733 -1.5630497610674845,1.9382362861720293"/>
<text class="face_text" text-anchor="middle" dominant-baseline="middle" transform="matrix(0.033071193053161446 0 0 0.033071193053161446 0.0 0.0)">0</text>
<text class="face_text" text-anchor="middle" dominant-baseline="middle" transform="matrix(0.033071193053161446 0 0 0.033071193053161446 1.0 0.0)">27</text>
<text class="face_text" text-anchor="middle" dominant-baseline="middle" transform="matrix(0.033071193053161446 0 0 0.033071193053161446 2.0 0.0)">26</text>
<text class="face_text" text-anchor="middle" dominant-baseline="middle" transform="matrix(0.033071193053161446 0 0 0.033071193053161446 3.0 0.0)">25</text>
<text class="face_text" text-anchor="middle" dominant-baseline="middle" transform="matrix(0.033071193053161446 0 0 0.033071193053161446 3.0 4.937623)">29</text>
<text class="face_text" text-anchor="middle" dominant-baseline="middle" transform="matrix(0.033071193053161446 0 0 0.033071193053161446 -0.860389 1.859065)">1</text>
<text class="face_text" text-anchor="middle" dominant-baseline="middle" transform="matrix(0.033071193053161446 0 0 0.033071193053161446 -4.720778 -1.219492)">28</text>
<rect class="edge_bg" x="0.16928806946838543" y="-0.3307119305316145" width="0.6614238610632289" height="0.6614238610632289"/>
<text class="edge_text" text-anchor="middle" dominant-baseline="middle" transform="matrix(0.033071193053161446 0 0 0.033071193053161446 0.4999999999999999 -6.123233995736767e-17)">0</text>
<rect class="edge_bg" x="1.1692880694683856" y="-0.3307119305316145" width="0.6614238610632289" height="0.6614238610632289"/>
<text class="edge_text" text-anchor="middle" dominant-baseline="middle" transform="matrix(0.033071193053161446 0 0 0.033071193053161446 1.5 -6.123233995736767e-17)">83</text>
<rect class="edge_bg" x="2.1692880694683856" y="-0.3307119305316145" width="0.6614238610632289" height="0.6614238610632289"/>
<text class="edge_text" text-anchor="middle" dominant-baseline="middle" transform="matrix(0.033071193053161446 0 0 0.033071193053161446 2.5 -6.123233995736767e-17)">80</text>
<rect class="edge_bg" x="2.669288069468386" y="0.16928833198350718" width="0.6614238610632289" height="0.6614238610632289"/>
<text class="edge_text" text-anchor="middle" dominant-baseline="middle" transform="matrix(0.033071193053161446 0 0 0.033071193053161446 3.0000000000000004 0.5000002625151216)">79</text>
<rect class="edge_bg" x="-0.8001851916294458" y="1.8400979733217953" width="0.6614238610632289" height="0.6614238610632289"/>
<text class="edge_text" text-anchor="middle" dominant-baseline="middle" transform="matrix(0.033071193053161446 0 0 0.033071193053161446 -0.4694732610978314 2.1708099038534097)">7</text>
<rect class="edge_bg" x="-1.5820167877456845" y="1.216608616738242" width="0.6614238610632289" height="0.6614238610632289"/>
<text class="edge_text" text-anchor="middle" dominant-baseline="middle" transform="matrix(0.033071193053161446 0 0 0.033071193053161446 -1.2513048572140701 1.5473205472698564)">6</text>
</svg>
