<?xml version="1.0" encoding="utf-8"?>
<svg version="1.1" xmlns="http://www.w3.org/2000/svg" viewBox="-10.22353846385136 -4.44270646385136 19.549787925209394 14.475949925209393" style="enable-background:new -10.22353846385136 -4.44270646385136 19.549787925209394 14.475949925209393;">
<style type="text/css">
  .face_stroke {fill:none; stroke:#000000; stroke-width:0.02; stroke-miterlimit:10;}
  .face_text {fill:#000000; font-family:monospace;}
  .edge_text {fill:#ff0000; font-family:monospace;}
  .edge_bg {fill:#f3f3f3; stroke:#606060; stroke-width:0.01;}
</style>
<polygon class="face_stroke" points="0.5000000000000001,-0.5 -0.5,-0.5000000000000001 -0.5000000000000001,0.5 0.4999999999999999,0.5000000000000001"/>
<polygon class="face_stroke" points="0.4999999999999999,0.5 1.5,0.5000000000000001 1.5000000000000007,-0.49999999999999944 0.49999999999999967,-0.4999999999999998"/>
<polygon class="face_stroke" points="1.5,0.5 2.5,0.5000000000000001 2.500000000000001,-0.49999999999999944 1.4999999999999996,-0.4999999999999998"/>
<polygon class="face_stroke" points="2.5,0.5 3.5,0.5000000000000001 3.500000000000001,-0.49999999999999944 2.4999999999999996,-0.4999999999999998"/>
<polygon class="face_stroke" points="3.5,0.5 4.5,0.5000000000000001 4.500000000000001,-0.49999999999999944 3.4999999999999996,-0.4999999999999998"/>
<polygon class="face_stroke" points="3.5000000000000004,0.5000002625151216 2.525072087818177,0.722521196471436 1.6241032199157557,1.1564049355889954 0.842271737447728,1.7798947374477279 0.21878193558899417,2.5617262199157573 -0.21510180352856434,3.462695087818176 -0.4376227374848787,4.437622999999999 -0.4376227374848787,5.437622999999999 -0.21510180352856345,6.412550912181825 0.21878193558899506,7.313519780084244 0.8422717374477284,8.095351262552274 1.6241032199157606,8.718841064411007 2.525072087818179,9.152724803528566 3.500000000000003,9.375245737484878 4.499999999999999,9.375245737484878 5.474927912181823,9.152724803528564 6.375896780084242,8.718841064411006 7.1577282625522685,8.095351262552276 7.781218064411002,7.313519780084251 8.215101803528562,6.412550912181832 8.437622737484878,5.437623000000009 8.43762273748488,4.437623000000014 8.215101803528569,3.4626950878181892 7.7812180644110125,2.5617262199157684 7.157728262552287,1.779894737447743 6.37589678008426,1.1564049355890056 5.474927912181844,0.7225211964714431 4.500000000000028,0.5000002625151252"/>
<polygon class="face_stroke" points="0.21878230467458487,2.561726438935794 -0.6821865610642058,2.127842695325415 -1.1160703046745848,3.0288115610642055 -0.2151014389357947,3.4626953046745848"/>
<polygon class="face_stroke" points="-0.682187203826393,2.127841933201082 -0.4596662650084493,1.1529140221288934 -0.4596662600217938,0.15291402212889355 -0.6821871891164797,-0.822013891162565 -1.1160709237412165,-1.7229827612286126 -1.7395607217012263,-2.5048142468057715 -2.5213922010601277,-3.1283040525632284 -3.422361066798918,-3.562187796173607 -4.397288977871107,-3.7847087349915514 -5.397288977871107,-3.784708739978206 -6.372216891162566,-3.56218781088352 -7.273185761228616,-3.128304076258782 -8.055017246805772,-2.504814278298773 -8.678507052563228,-1.7229827989398716 -9.112390796173607,-0.822013933201081 -9.33491173499155,0.1529139778711075 -9.334911739978207,1.1529139778711075 -9.11239081088352,2.127841891162566 -8.678507076258782,3.028810761228615 -8.05501727829877,3.810642246805773 -7.273185798939868,4.434132052563231 -6.372216933201077,4.868015796173609 -5.397289022128889,5.090536734991551 -4.397289022128893,5.090536739978206 -3.422361108837438,4.868015810883522 -2.52139223877139,4.434132076258786 -1.739560753194234,3.810642278298779 -1.1160709474367754,3.0288107989398787"/>
<text class="face_text" text-anchor="middle" dominant-baseline="middle" transform="matrix(0.028951899850418787 0 0 0.028951899850418787 0.0 0.0)">0</text>
<text class="face_text" text-anchor="middle" dominant-baseline="middle" transform="matrix(0.028951899850418787 0 0 0.028951899850418787 1.0 0.0)">27</text>
<text class="face_text" text-anchor="middle" dominant-baseline="middle" transform="matrix(0.028951899850418787 0 0 0.028951899850418787 2.0 0.0)">26</text>
<text class="face_text" text-anchor="middle" dominant-baseline="middle" transform="matrix(0.028951899850418787 0 0 0.028951899850418787 3.0 0.0)">25</text>
<text class="face_text" text-anchor="middle" dominant-baseline="middle" transform="matrix(0.028951899850418787 0 0 0.028951899850418787 4.0 0.0)">24</text>
<text class="face_text" text-anchor="middle" dominant-baseline="middle" transform="matrix(0.028951899850418787 0 0 0.028951899850418787 4.0 4.937623)">29</text>
<text class="face_text" text-anchor="middle" dominant-baseline="middle" transform="matrix(0.028951899850418787 0 0 0.028951899850418787 -0.448644 2.795269)">1</text>
<text class="face_text" text-anchor="middle" dominant-baseline="middle" transform="matrix(0.028951899850418787 0 0 0.028951899850418787 -4.897289 0.652914)">28</text>
<rect class="edge_bg" x="0.210481001495812" y="-0.28951899850418794" width="0.5790379970083758" height="0.5790379970083758"/>
<text class="edge_text" text-anchor="middle" dominant-baseline="middle" transform="matrix(0.028951899850418787 0 0 0.028951899850418787 0.4999999999999999 -6.123233995736767e-17)">0</text>
<rect class="edge_bg" x="1.210481001495812" y="-0.28951899850418794" width="0.5790379970083758" height="0.5790379970083758"/>
<text class="edge_text" text-anchor="middle" dominant-baseline="middle" transform="matrix(0.028951899850418787 0 0 0.028951899850418787 1.5 -6.123233995736767e-17)">83</text>
<rect class="edge_bg" x="2.210481001495812" y="-0.28951899850418794" width="0.5790379970083758" height="0.5790379970083758"/>
<text class="edge_text" text-anchor="middle" dominant-baseline="middle" transform="matrix(0.028951899850418787 0 0 0.028951899850418787 2.5 -6.123233995736767e-17)">80</text>
<rect class="edge_bg" x="3.210481001495812" y="-0.28951899850418794" width="0.5790379970083758" height="0.5790379970083758"/>
<text class="edge_text" text-anchor="middle" dominant-baseline="middle" transform="matrix(0.028951899850418787 0 0 0.028951899850418787 3.5 -6.123233995736767e-17)">77</text>
<rect class="edge_bg" x="3.710481001495812" y="0.21048126401093376" width="0.5790379970083758" height="0.5790379970083758"/>
<text class="edge_text" text-anchor="middle" dominant-baseline="middle" transform="matrix(0.028951899850418787 0 0 0.028951899850418787 4.0 0.5000002625151216)">76</text>
<rect class="edge_bg" x="-0.28767856563479244" y="2.7226918733010015" width="0.5790379970083758" height="0.5790379970083758"/>
<text class="edge_text" text-anchor="middle" dominant-baseline="middle" transform="matrix(0.028951899850418787 0 0 0.028951899850418787 0.0018404328693954475 3.0122108718051894)">7</text>
<rect class="edge_bg" x="-1.1886480741357697" y="2.2888073675662897" width="0.5790379970083758" height="0.5790379970083758"/>
<text class="edge_text" text-anchor="middle" dominant-baseline="middle" transform="matrix(0.028951899850418787 0 0 0.028951899850418787 -0.8991290756315817 2.5783263660704776)">6</text>
</svg>
