<?xml version="1.0" encoding="utf-8"?>
<svg version="1.1" xmlns="http://www.w3.org/2000/svg" viewBox="-1.0513527011322328 -1.1823639300366906 4.4154416411642465 4.012006460807187" style="enable-background:new -1.0513527011322328 -1.1823639300366906 4.4154416411642465 4.012006460807187;">
<style type="text/css">
  .face_stroke {fill:none; stroke:#000000; stroke-width:0.02; stroke-miterlimit:10;}
  .face_text {fill:#000000; font-family:monospace;}
  .edge_text {fill:#ff0000; font-family:monospace;}
  .edge_bg {fill:#f3f3f3; stroke:#606060; stroke-width:0.01;}
</style>
<polygon class="face_stroke" points="0.6881909602355868,-0.5 -0.26286555605956674,-0.8090169943749475 -0.8506508083520399,-1.0417467896404342e-16 -0.2628655560595669,0.8090169943749473 0.6881909602355867,0.5000000000000001"/>
<polygon class="face_stroke" points="0.6881905962155612,0.5000000000000002 1.5542159999999998,1.0000000000000002 2.4202414037844386,0.5000000000000006 2.4202414037844395,-0.4999999999999994 1.5542160000000003,-1.0000000000000002 0.688190596215561,-0.4999999999999999"/>
<polygon class="face_stroke" points="1.5542168179899876,1.0000001457811751 1.7621285088077465,1.9781477465149808 2.7566504041760203,2.082676209782634 3.1633870472518204,1.1691307521400343 2.420242221774426,0.5000001457811755"/>
<polygon class="face_stroke" points="1.5542168254773943,1.0000003936411415 0.6031603091822408,0.690983399266194 -0.13998451629515374,1.3601140056250522 0.06792717452260566,2.3382616063588584 1.0189836908177585,2.647278600733806 1.7621285162951539,1.9781479943749476"/>
<text class="face_text" text-anchor="middle" dominant-baseline="middle" transform="matrix(0.008024012921614374 0 0 0.008024012921614374 0.0 0.0)">0</text>
<text class="face_text" text-anchor="middle" dominant-baseline="middle" transform="matrix(0.008024012921614374 0 0 0.008024012921614374 1.554216 0.0)">1</text>
<text class="face_text" text-anchor="middle" dominant-baseline="middle" transform="matrix(0.008024012921614374 0 0 0.008024012921614374 2.331325 1.345991)">8</text>
<text class="face_text" text-anchor="middle" dominant-baseline="middle" transform="matrix(0.008024012921614374 0 0 0.008024012921614374 0.811072 1.669131)">7</text>
<rect class="edge_bg" x="0.6079504669994175" y="-0.08024012921614385" width="0.16048025843228747" height="0.16048025843228747"/>
<text class="edge_text" text-anchor="middle" dominant-baseline="middle" transform="matrix(0.008024012921614374 0 0 0.008024012921614374 0.6881905962155612 -1.0605752387249072e-16)">2</text>
<rect class="edge_bg" x="1.906989390666063" y="0.6697600165650315" width="0.16048025843228747" height="0.16048025843228747"/>
<text class="edge_text" text-anchor="middle" dominant-baseline="middle" transform="matrix(0.008024012921614374 0 0 0.008024012921614374 1.9872295198822068 0.7500001457811752)">14</text>
<rect class="edge_bg" x="1.5779325416701304" y="1.4088340647919009" width="0.16048025843228747" height="0.16048025843228747"/>
<text class="edge_text" text-anchor="middle" dominant-baseline="middle" transform="matrix(0.008024012921614374 0 0 0.008024012921614374 1.658172670886274 1.4890741940080445)">15</text>
</svg>
