<?xml version="1.0" encoding="utf-8"?>
<svg version="1.1" xmlns="http://www.w3.org/2000/svg" viewBox="-3.3009815944725025 -2.1278835108071865 6.772195719901672 5.379812021614374" style="enable-background:new -3.3009815944725025 -2.1278835108071865 6.772195719901672 5.379812021614374;">
<style type="text/css">
  .face_stroke {fill:none; stroke:#000000; stroke-width:0.02; stroke-miterlimit:10;}
  .face_text {fill:#000000; font-family:monospace;}
  .edge_text {fill:#ff0000; font-family:monospace;}
  .edge_bg {fill:#f3f3f3; stroke:#606060; stroke-width:0.01;}
</style>
<polygon class="face_stroke" points="0.6881909602355868,-0.5 -0.26286555605956674,-0.8090169943749475 -0.8506508083520399,-1.0417467896404342e-16 -0.2628655560595669,0.8090169943749473 0.6881909602355867,0.5000000000000001"/>
<polygon class="face_stroke" points="0.6881905962155612,0.5000000000000002 1.5542159999999998,1.0000000000000002 2.4202414037844386,0.5000000000000006 2.4202414037844395,-0.4999999999999994 1.5542160000000003,-1.0000000000000002 0.688190596215561,-0.4999999999999999"/>
<polygon class="face_stroke" points="1.5542168179899876,1.0000001457811751 1.7621285088077465,1.9781477465149808 2.7566504041760203,2.082676209782634 3.1633870472518204,1.1691307521400343 2.420242221774426,0.5000001457811755"/>
<polygon class="face_stroke" points="1.5542168254773943,1.0000003936411415 0.6031603091822408,0.690983399266194 -0.13998451629515374,1.3601140056250522 0.06792717452260566,2.3382616063588584 1.0189836908177585,2.647278600733806 1.7621285162951539,1.9781479943749476"/>
<polygon class="face_stroke" points="-0.13998517452260562,1.3601133936411416 -1.0910416908177591,1.051096399266194 -1.8341865162951536,1.7202270056250524 -1.6262748254773944,2.698374606358858 -0.6752183091822413,3.007391600733806 0.06792651629515378,2.3382609943749477"/>
<polygon class="face_stroke" points="-1.0910414837048465,1.0510969943749475 -1.2989531745226057,0.07294939364114161 -2.2500096908177594,-0.23606760073380595 -2.993154516295154,0.4330630056250524 -2.7852428254773947,1.4112106063588583 -1.8341863091822415,1.720227600733806"/>
<polygon class="face_stroke" points="-1.2989533091822403,0.07294860073380582 -0.5558084837048461,-0.5961820056250525 -0.7637201745226055,-1.5743296063588583 -1.714776690817759,-1.8833466007338058 -2.4579215162951535,-1.2142159943749475 -2.2500098254773944,-0.23606839364114163"/>
<text class="face_text" text-anchor="middle" dominant-baseline="middle" transform="matrix(0.010759624043228748 0 0 0.010759624043228748 0.0 0.0)">0</text>
<text class="face_text" text-anchor="middle" dominant-baseline="middle" transform="matrix(0.010759624043228748 0 0 0.010759624043228748 1.554216 0.0)">1</text>
<text class="face_text" text-anchor="middle" dominant-baseline="middle" transform="matrix(0.010759624043228748 0 0 0.010759624043228748 2.331325 1.345991)">8</text>
<text class="face_text" text-anchor="middle" dominant-baseline="middle" transform="matrix(0.010759624043228748 0 0 0.010759624043228748 0.811072 1.669131)">7</text>
<text class="face_text" text-anchor="middle" dominant-baseline="middle" transform="matrix(0.010759624043228748 0 0 0.010759624043228748 -0.88313 2.029244)">15</text>
<text class="face_text" text-anchor="middle" dominant-baseline="middle" transform="matrix(0.010759624043228748 0 0 0.010759624043228748 -2.042098 0.74208)">6</text>
<text class="face_text" text-anchor="middle" dominant-baseline="middle" transform="matrix(0.010759624043228748 0 0 0.010759624043228748 -1.506865 -0.905199)">2</text>
<rect class="edge_bg" x="0.5805943557832738" y="-0.10759624043228759" width="0.21519248086457496" height="0.21519248086457496"/>
<text class="edge_text" text-anchor="middle" dominant-baseline="middle" transform="matrix(0.010759624043228748 0 0 0.010759624043228748 0.6881905962155612 -1.0605752387249072e-16)">2</text>
<rect class="edge_bg" x="1.8796332794499193" y="0.6424039053488878" width="0.21519248086457496" height="0.21519248086457496"/>
<text class="edge_text" text-anchor="middle" dominant-baseline="middle" transform="matrix(0.010759624043228748 0 0 0.010759624043228748 1.9872295198822068 0.7500001457811752)">14</text>
<rect class="edge_bg" x="1.5505764304539866" y="1.381477953575757" width="0.21519248086457496" height="0.21519248086457496"/>
<text class="edge_text" text-anchor="middle" dominant-baseline="middle" transform="matrix(0.010759624043228748 0 0 0.010759624043228748 1.658172670886274 1.4890741940080445)">15</text>
<rect class="edge_bg" x="-0.1436255695460133" y="1.741590953575757" width="0.21519248086457496" height="0.21519248086457496"/>
<text class="edge_text" text-anchor="middle" dominant-baseline="middle" transform="matrix(0.010759624043228748 0 0 0.010759624043228748 -0.036029329113725805 1.8491871940080444)">35</text>
<rect class="edge_bg" x="-1.570210136875831" y="1.2780660571220892" width="0.21519248086457496" height="0.21519248086457496"/>
<text class="edge_text" text-anchor="middle" dominant-baseline="middle" transform="matrix(0.010759624043228748 0 0 0.010759624043228748 -1.4626138964435436 1.3856622975543766)">32</text>
<rect class="edge_bg" x="-1.8820778077621048" y="-0.18915613688595528" width="0.21519248086457496" height="0.21519248086457496"/>
<text class="edge_text" text-anchor="middle" dominant-baseline="middle" transform="matrix(0.010759624043228748 0 0 0.010759624043228748 -1.7744815673298173 -0.08155989645366779)">9</text>
</svg>
