<?xml version="1.0" encoding="utf-8"?>
<svg version="1.1" xmlns="http://www.w3.org/2000/svg" viewBox="-2.7127750511322324 -1.3434920500000003 6.155979341164246 7.5568251" style="enable-background:new -2.7127750511322324 -1.3434920500000003 6.155979341164246 7.5568251;">
<style type="text/css">
  .face_stroke {fill:none; stroke:#000000; stroke-width:0.02; stroke-miterlimit:10;}
  .face_text {fill:#000000; font-family:monospace;}
  .edge_text {fill:#ff0000; font-family:monospace;}
  .edge_bg {fill:#f3f3f3; stroke:#606060; stroke-width:0.01;}
</style>
<polygon class="face_stroke" points="0.6881909602355868,-0.5 -0.26286555605956674,-0.8090169943749475 -0.8506508083520399,-1.0417467896404342e-16 -0.2628655560595669,0.8090169943749473 0.6881909602355867,0.5000000000000001"/>
<polygon class="face_stroke" points="0.6881905962155612,0.5000000000000002 1.5542159999999998,1.0000000000000002 2.4202414037844386,0.5000000000000006 2.4202414037844395,-0.4999999999999994 1.5542160000000003,-1.0000000000000002 0.688190596215561,-0.4999999999999999"/>
<polygon class="face_stroke" points="1.5542168179899876,1.0000001457811751 1.7621285088077465,1.9781477465149808 2.7566504041760203,2.082676209782634 3.1633870472518204,1.1691307521400343 2.420242221774426,0.5000001457811755"/>
<polygon class="face_stroke" points="1.7621283569241997,1.9781475423573989 1.1743431046317263,2.7871645367323463 1.5810797477075265,3.7007099943749475 2.5756016430758004,3.8052384576426013 3.1633868953682733,2.9962214632676534 2.756650252292474,2.082676005625053"/>
<polygon class="face_stroke" points="1.17434240417602,2.7871647902173655 0.1798205088077467,2.891693253485019 -0.028091182010012816,3.869840854218824 0.8379342217744256,4.3698408542188245 1.5810790472518201,3.7007102478599667"/>
<polygon class="face_stroke" points="-0.02809099999999994,3.869841 -0.8941164037844389,4.369841 -0.8941164037844388,5.369841 -0.028091000000000185,5.869841 0.8379344037844386,5.369841000000001 0.8379344037844393,4.369841000000001"/>
<polygon class="face_stroke" points="-0.8941160397644131,4.369841 -1.8451725560595666,4.060824005625053 -2.4329578083520396,4.869841 -1.8451725560595669,5.6788579943749475 -0.8941160397644132,5.369841"/>
<polygon class="face_stroke" points="-0.8941163091822405,4.369840600733806 -0.15097148370484625,3.7007099943749475 -0.35888317452260565,2.722562393641142 -1.3099396908177592,2.4135453992661944 -2.053084516295154,3.0826760056250526 -1.8451728254773943,4.060823606358858"/>
<polygon class="face_stroke" points="-0.35888330918224054,2.7225626007338057 0.3842615162951537,2.0534319943749475 0.1763498254773943,1.0752843936411418 -0.7747066908177592,0.7662673992661941 -1.5178515162951538,1.4353980056250526 -1.3099398254773944,2.4135456063588583"/>
<text class="face_text" text-anchor="middle" dominant-baseline="middle" transform="matrix(0.012311958682328492 0 0 0.012311958682328492 0.0 0.0)">0</text>
<text class="face_text" text-anchor="middle" dominant-baseline="middle" transform="matrix(0.012311958682328492 0 0 0.012311958682328492 1.554216 0.0)">1</text>
<text class="face_text" text-anchor="middle" dominant-baseline="middle" transform="matrix(0.012311958682328492 0 0 0.012311958682328492 2.331325 1.345991)">8</text>
<text class="face_text" text-anchor="middle" dominant-baseline="middle" transform="matrix(0.012311958682328492 0 0 0.012311958682328492 2.168865 2.891693)">16</text>
<text class="face_text" text-anchor="middle" dominant-baseline="middle" transform="matrix(0.012311958682328492 0 0 0.012311958682328492 0.749017 3.52385)">24</text>
<text class="face_text" text-anchor="middle" dominant-baseline="middle" transform="matrix(0.012311958682328492 0 0 0.012311958682328492 -0.028091 4.869841)">23</text>
<text class="face_text" text-anchor="middle" dominant-baseline="middle" transform="matrix(0.012311958682328492 0 0 0.012311958682328492 -1.582307 4.869841)">14</text>
<text class="face_text" text-anchor="middle" dominant-baseline="middle" transform="matrix(0.012311958682328492 0 0 0.012311958682328492 -1.102028 3.391693)">15</text>
<text class="face_text" text-anchor="middle" dominant-baseline="middle" transform="matrix(0.012311958682328492 0 0 0.012311958682328492 -0.566795 1.744415)">7</text>
<rect class="edge_bg" x="0.5650710093922763" y="-0.12311958682328503" width="0.24623917364656983" height="0.24623917364656983"/>
<text class="edge_text" text-anchor="middle" dominant-baseline="middle" transform="matrix(0.012311958682328492 0 0 0.012311958682328492 0.6881905962155612 -1.0605752387249072e-16)">2</text>
<rect class="edge_bg" x="1.864109933058922" y="0.6268805589578903" width="0.24623917364656983" height="0.24623917364656983"/>
<text class="edge_text" text-anchor="middle" dominant-baseline="middle" transform="matrix(0.012311958682328492 0 0 0.012311958682328492 1.9872295198822068 0.7500001457811752)">14</text>
<rect class="edge_bg" x="2.1362697177850514" y="1.907292187167941" width="0.24623917364656983" height="0.24623917364656983"/>
<text class="edge_text" text-anchor="middle" dominant-baseline="middle" transform="matrix(0.012311958682328492 0 0 0.012311958682328492 2.2593893046083364 2.0304117739912257)">36</text>
<rect class="edge_bg" x="1.2545911388906352" y="3.120817932215381" width="0.24623917364656983" height="0.24623917364656983"/>
<text class="edge_text" text-anchor="middle" dominant-baseline="middle" transform="matrix(0.012311958682328492 0 0 0.012311958682328492 1.37771072571392 3.243937519038666)">62</text>
<rect class="edge_bg" x="0.2818021150689346" y="3.996721413176715" width="0.24623917364656983" height="0.24623917364656983"/>
<text class="edge_text" text-anchor="middle" dominant-baseline="middle" transform="matrix(0.012311958682328492 0 0 0.012311958682328492 0.40492170189221954 4.119841)">60</text>
<rect class="edge_bg" x="-1.017235626587698" y="4.746721413176715" width="0.24623917364656983" height="0.24623917364656983"/>
<text class="edge_text" text-anchor="middle" dominant-baseline="middle" transform="matrix(0.012311958682328492 0 0 0.012311958682328492 -0.8941160397644131 4.869841)">56</text>
<rect class="edge_bg" x="-1.4927641541531023" y="4.092212516723047" width="0.24623917364656983" height="0.24623917364656983"/>
<text class="edge_text" text-anchor="middle" dominant-baseline="middle" transform="matrix(0.012311958682328492 0 0 0.012311958682328492 -1.3696445673298174 4.2153321035463325)">33</text>
<rect class="edge_bg" x="-0.9575311541531024" y="2.4449345167230474" width="0.24623917364656983" height="0.24623917364656983"/>
<text class="edge_text" text-anchor="middle" dominant-baseline="middle" transform="matrix(0.012311958682328492 0 0 0.012311958682328492 -0.8344115673298175 2.5680541035463325)">35</text>
</svg>
