<?xml version="1.0" encoding="utf-8"?>
<svg version="1.1" xmlns="http://www.w3.org/2000/svg" viewBox="-2.867897865951445 -4.443079741013864 7.53264535282977 6.836506234167759" style="enable-background:new -2.867897865951445 -4.443079741013864 7.53264535282977 6.836506234167759;">
<style type="text/css">
  .face_stroke {fill:none; stroke:#000000; stroke-width:0.02; stroke-miterlimit:10;}
  .face_text {fill:#000000; font-family:monospace;}
  .edge_text {fill:#ff0000; font-family:monospace;}
  .edge_bg {fill:#f3f3f3; stroke:#606060; stroke-width:0.01;}
</style>
<polygon class="face_stroke" points="0.6881909602355868,-0.5 -0.26286555605956674,-0.8090169943749475 -0.8506508083520399,-1.0417467896404342e-16 -0.2628655560595669,0.8090169943749473 0.6881909602355867,0.5000000000000001"/>
<polygon class="face_stroke" points="0.6881905962155612,0.5000000000000002 1.5542159999999998,1.0000000000000002 2.4202414037844386,0.5000000000000006 2.4202414037844395,-0.4999999999999994 1.5542160000000003,-1.0000000000000002 0.688190596215561,-0.4999999999999999"/>
<polygon class="face_stroke" points="1.5542168179899876,1.0000001457811751 1.7621285088077465,1.9781477465149808 2.7566504041760203,2.082676209782634 3.1633870472518204,1.1691307521400343 2.420242221774426,0.5000001457811755"/>
<polygon class="face_stroke" points="3.1633863091822407,1.1691306007338058 4.114442825477394,0.8601136063588584 4.322354516295154,-0.11803399437494744 3.5792096908177595,-0.7871646007338058 2.628153174522606,-0.47814760635885856 2.4202414837048463,0.4999999943749478"/>
<polygon class="face_stroke" points="3.5792099602355867,-0.7871649999999999 3.5792099602355867,-1.787165 2.628153443940433,-2.0961819943749473 2.04036819164796,-1.287165 2.628153443940433,-0.47814800562505255"/>
<polygon class="face_stroke" points="2.6281538953682735,-2.0961815367323466 2.2214172522924733,-3.0097269943749474 1.2268953569241998,-3.114255457642601 0.6391101046317265,-2.3052384632676537 1.0458467477075266,-1.3916930056250525 2.0403686430758006,-1.287164542357399"/>
<polygon class="face_stroke" points="1.2268948953682735,-3.1142555367323466 0.8201582522924733,-4.027800994374948 -0.17436364307580016,-4.1323294576426015 -0.7621488953682736,-3.3233124632676536 -0.35541225229247336,-2.4097670056250524 0.6391096430758006,-2.305238542357399"/>
<polygon class="face_stroke" points="-0.7621487477075267,-3.323311994374948 -1.7566706430758001,-3.4278404576426014 -2.3444558953682737,-2.618823463267654 -1.9377192522924733,-1.7052780056250527 -0.9431973569241994,-1.6007495423573992 -0.35541210463172646,-2.409766536732347"/>
<polygon class="face_stroke" points="-1.9377196430758001,-1.7052784576426012 -2.5255048953682735,-0.8962614632676538 -2.1187682522924733,0.017283994374947542 -1.1242463569241994,0.12181245764260096 -0.5364611046317265,-0.6872045367323466 -0.9431977477075258,-1.600749994374947"/>
<text class="face_text" text-anchor="middle" dominant-baseline="middle" transform="matrix(0.013673012468335518 0 0 0.013673012468335518 0.0 0.0)">0</text>
<text class="face_text" text-anchor="middle" dominant-baseline="middle" transform="matrix(0.013673012468335518 0 0 0.013673012468335518 1.554216 0.0)">1</text>
<text class="face_text" text-anchor="middle" dominant-baseline="middle" transform="matrix(0.013673012468335518 0 0 0.013673012468335518 2.331325 1.345991)">8</text>
<text class="face_text" text-anchor="middle" dominant-baseline="middle" transform="matrix(0.013673012468335518 0 0 0.013673012468335518 3.371298 0.190983)">9</text>
<text class="face_text" text-anchor="middle" dominant-baseline="middle" transform="matrix(0.013673012468335518 0 0 0.013673012468335518 2.891019 -1.287165)">3</text>
<text class="face_text" text-anchor="middle" dominant-baseline="middle" transform="matrix(0.013673012468335518 0 0 0.013673012468335518 1.633632 -2.20071)">2</text>
<text class="face_text" text-anchor="middle" dominant-baseline="middle" transform="matrix(0.013673012468335518 0 0 0.013673012468335518 0.232373 -3.218784)">6</text>
<text class="face_text" text-anchor="middle" dominant-baseline="middle" transform="matrix(0.013673012468335518 0 0 0.013673012468335518 -1.349934 -2.514295)">15</text>
<text class="face_text" text-anchor="middle" dominant-baseline="middle" transform="matrix(0.013673012468335518 0 0 0.013673012468335518 -1.530983 -0.791733)">7</text>
<rect class="edge_bg" x="0.551460471532206" y="-0.1367301246833553" width="0.2734602493667104" height="0.2734602493667104"/>
<text class="edge_text" text-anchor="middle" dominant-baseline="middle" transform="matrix(0.013673012468335518 0 0 0.013673012468335518 0.6881905962155612 -1.0605752387249072e-16)">2</text>
<rect class="edge_bg" x="1.8504993951988515" y="0.61327002109782" width="0.2734602493667104" height="0.2734602493667104"/>
<text class="edge_text" text-anchor="middle" dominant-baseline="middle" transform="matrix(0.013673012468335518 0 0 0.013673012468335518 1.9872295198822068 0.7500001457811752)">14</text>
<rect class="edge_bg" x="2.655083771760188" y="0.6978351728710215" width="0.2734602493667104" height="0.2734602493667104"/>
<text class="edge_text" text-anchor="middle" dominant-baseline="middle" transform="matrix(0.013673012468335518 0 0 0.013673012468335518 2.7918138964435433 0.8345652975543767)">17</text>
<rect class="edge_bg" x="2.9669515774046546" y="-0.7693866274958814" width="0.2734602493667104" height="0.2734602493667104"/>
<text class="edge_text" text-anchor="middle" dominant-baseline="middle" transform="matrix(0.013673012468335518 0 0 0.013673012468335518 3.10368170208801 -0.6326565028125262)">18</text>
<rect class="edge_bg" x="2.1975311445386816" y="-1.828403164228228" width="0.2734602493667104" height="0.2734602493667104"/>
<text class="edge_text" text-anchor="middle" dominant-baseline="middle" transform="matrix(0.013673012468335518 0 0 0.013673012468335518 2.334261269222037 -1.6916730395448727)">3</text>
<rect class="edge_bg" x="0.7962721445386818" y="-2.8464771642282276" width="0.2734602493667104" height="0.2734602493667104"/>
<text class="edge_text" text-anchor="middle" dominant-baseline="middle" transform="matrix(0.013673012468335518 0 0 0.013673012468335518 0.933002269222037 -2.7097470395448724)">9</text>
<rect class="edge_bg" x="-0.6955105508529819" y="-3.0032693902370022" width="0.2734602493667104" height="0.2734602493667104"/>
<text class="edge_text" text-anchor="middle" dominant-baseline="middle" transform="matrix(0.013673012468335518 0 0 0.013673012468335518 -0.5587804261696266 -2.866539265553647)">32</text>
<rect class="edge_bg" x="-1.5771888200750188" y="-1.7897443506921296" width="0.2734602493667104" height="0.2734602493667104"/>
<text class="edge_text" text-anchor="middle" dominant-baseline="middle" transform="matrix(0.013673012468335518 0 0 0.013673012468335518 -1.4404586953916636 -1.6530142260087743)">35</text>
</svg>
