<?xml version="1.0" encoding="utf-8"?>
<svg version="1.1" xmlns="http://www.w3.org/2000/svg" viewBox="-5.581735662299133 -3.699993503652626 10.197553212087552 7.643611864214047" style="enable-background:new -5.581735662299133 -3.699993503652626 10.197553212087552 7.643611864214047;">
<style type="text/css">
  .face_stroke {fill:none; stroke:#000000; stroke-width:0.02; stroke-miterlimit:10;}
  .face_text {fill:#000000; font-family:monospace;}
  .edge_text {fill:#ff0000; font-family:monospace;}
  .edge_bg {fill:#f3f3f3; stroke:#606060; stroke-width:0.01;}
</style>
<polygon class="face_stroke" points="0.6881909602355868,-0.5 -0.26286555605956674,-0.8090169943749475 -0.8506508083520399,-1.0417467896404342e-16 -0.2628655560595669,0.8090169943749473 0.6881909602355867,0.5000000000000001"/>
<polygon class="face_stroke" points="0.6881905962155612,0.5000000000000002 1.5542159999999998,1.0000000000000002 2.4202414037844386,0.5000000000000006 2.4202414037844395,-0.4999999999999994 1.5542160000000003,-1.0000000000000002 0.688190596215561,-0.4999999999999999"/>
<polygon class="face_stroke" points="2.4202415962155612,0.5000000000000002 3.286267,1.0000000000000002 4.152292403784439,0.5000000000000006 4.15229240378444,-0.4999999999999994 3.2862670000000005,-1.0000000000000002 2.4202415962155612,-0.4999999999999999"/>
<polygon class="face_stroke" points="2.420241778225574,0.5000001457811754 1.6770969527481796,1.1691307521400336 2.0838335958239798,2.082676209782634 3.078355491192253,1.9781477465149813 3.286267182010013,1.0000001457811758"/>
<polygon class="face_stroke" points="1.6770972522924734,1.1691310056250523 0.6825753569241999,1.0646025423573988 0.09479010463172655,1.8736195367323463 0.5015267477075267,2.7871649943749475 1.4960486430758007,2.891693457642601 2.0838338953682736,2.0826764632676533"/>
<polygon class="face_stroke" points="0.09479025229247323,1.8736190056250523 -0.8997316430758002,1.7690905423573988 -1.4875168953682736,2.5781075367323463 -1.0807802522924734,3.4916529943749475 -0.08625835692419936,3.5961814576426008 0.5015268953682734,2.7871644632676533"/>
<polygon class="face_stroke" points="-0.8997321046317266,1.7690904632676536 -1.3064687477075267,0.8555450056250524 -2.3009906430758003,0.7510165423573989 -2.8887758953682736,1.5600335367323463 -2.4820392522924735,2.4735789943749475 -1.4875173569241995,2.5781074576426013"/>
<polygon class="face_stroke" points="-2.3009901916479603,0.751017 -2.888775443940433,-0.057999994374947295 -3.839831960235587,0.25101699999999993 -3.839831960235587,1.251017 -2.8887754439404336,1.5600339943749475"/>
<polygon class="face_stroke" points="-2.8887761745226057,-0.05800039364114162 -2.6808644837048465,-1.0361479943749474 -3.4240093091822406,-1.7052786007338057 -4.375065825477394,-1.3962616063588587 -4.582977516295154,-0.4181140056250522 -3.83983269081776,0.25101660073380583"/>
<polygon class="face_stroke" points="-3.4240091745226056,-1.7052783936411418 -3.2160974837048464,-2.6834259943749474 -3.9592423091822404,-3.3525566007338057 -4.910298825477394,-3.0435396063588587 -5.118210516295154,-2.065392005625052 -4.37506569081776,-1.3962613992661943"/>
<polygon class="face_stroke" points="-3.424009182010013,-1.7052781457811759 -2.5579837782255748,-1.2052781457811754 -1.81483895274818,-1.8744087521400332 -2.2215755958239805,-2.787954209782635 -3.2160974911922535,-2.6834257465149807"/>
<polygon class="face_stroke" points="-2.557983516295154,-1.2052779943749474 -2.3500718254773942,-0.22713039364114163 -1.3990153091822415,0.08188660073380605 -0.6558704837048462,-0.5872440056250523 -0.8637821745226059,-1.5653916063588587 -1.8148386908177603,-1.8744086007338057"/>
<text class="face_text" text-anchor="middle" dominant-baseline="middle" transform="matrix(0.015287223728428095 0 0 0.015287223728428095 0.0 0.0)">0</text>
<text class="face_text" text-anchor="middle" dominant-baseline="middle" transform="matrix(0.015287223728428095 0 0 0.015287223728428095 1.554216 0.0)">1</text>
<text class="face_text" text-anchor="middle" dominant-baseline="middle" transform="matrix(0.015287223728428095 0 0 0.015287223728428095 3.286267 0.0)">9</text>
<text class="face_text" text-anchor="middle" dominant-baseline="middle" transform="matrix(0.015287223728428095 0 0 0.015287223728428095 2.509159 1.345991)">8</text>
<text class="face_text" text-anchor="middle" dominant-baseline="middle" transform="matrix(0.015287223728428095 0 0 0.015287223728428095 1.089312 1.978148)">7</text>
<text class="face_text" text-anchor="middle" dominant-baseline="middle" transform="matrix(0.015287223728428095 0 0 0.015287223728428095 -0.492995 2.682636)">15</text>
<text class="face_text" text-anchor="middle" dominant-baseline="middle" transform="matrix(0.015287223728428095 0 0 0.015287223728428095 -1.894254 1.664562)">6</text>
<text class="face_text" text-anchor="middle" dominant-baseline="middle" transform="matrix(0.015287223728428095 0 0 0.015287223728428095 -3.151641 0.751017)">5</text>
<text class="face_text" text-anchor="middle" dominant-baseline="middle" transform="matrix(0.015287223728428095 0 0 0.015287223728428095 -3.631921 -0.727131)">4</text>
<text class="face_text" text-anchor="middle" dominant-baseline="middle" transform="matrix(0.015287223728428095 0 0 0.015287223728428095 -4.167154 -2.374409)">10</text>
<text class="face_text" text-anchor="middle" dominant-baseline="middle" transform="matrix(0.015287223728428095 0 0 0.015287223728428095 -2.646901 -2.051269)">3</text>
<text class="face_text" text-anchor="middle" dominant-baseline="middle" transform="matrix(0.015287223728428095 0 0 0.015287223728428095 -1.606927 -0.896261)">2</text>
<rect class="edge_bg" x="0.5353183589312802" y="-0.15287223728428107" width="0.3057444745685619" height="0.3057444745685619"/>
<text class="edge_text" text-anchor="middle" dominant-baseline="middle" transform="matrix(0.015287223728428095 0 0 0.015287223728428095 0.6881905962155612 -1.0605752387249072e-16)">2</text>
<rect class="edge_bg" x="2.26736935893128" y="-0.15287223728428107" width="0.3057444745685619" height="0.3057444745685619"/>
<text class="edge_text" text-anchor="middle" dominant-baseline="middle" transform="matrix(0.015287223728428095 0 0 0.015287223728428095 2.4202415962155612 -1.0605752387249072e-16)">16</text>
<rect class="edge_bg" x="2.7003822428335122" y="0.5971279084968943" width="0.3057444745685619" height="0.3057444745685619"/>
<text class="edge_text" text-anchor="middle" dominant-baseline="middle" transform="matrix(0.015287223728428095 0 0 0.015287223728428095 2.8532544801177933 0.7500001457811754)">17</text>
<rect class="edge_bg" x="1.7275933365460925" y="1.473031497162072" width="0.3057444745685619" height="0.3057444745685619"/>
<text class="edge_text" text-anchor="middle" dominant-baseline="middle" transform="matrix(0.015287223728428095 0 0 0.015287223728428095 1.8804655738303735 1.625903734446353)">15</text>
<rect class="edge_bg" x="0.14528633654609235" y="2.177519497162072" width="0.3057444745685619" height="0.3057444745685619"/>
<text class="edge_text" text-anchor="middle" dominant-baseline="middle" transform="matrix(0.015287223728428095 0 0 0.015287223728428095 0.2981585738303733 2.330391734446353)">35</text>
<rect class="edge_bg" x="-1.3464969680622443" y="2.020726723170846" width="0.3057444745685619" height="0.3057444745685619"/>
<text class="edge_text" text-anchor="middle" dominant-baseline="middle" transform="matrix(0.015287223728428095 0 0 0.015287223728428095 -1.1936247307779633 2.173598960455127)">32</text>
<rect class="edge_bg" x="-2.747755055078478" y="1.0026532599031928" width="0.3057444745685619" height="0.3057444745685619"/>
<text class="edge_text" text-anchor="middle" dominant-baseline="middle" transform="matrix(0.015287223728428095 0 0 0.015287223728428095 -2.594882817794197 1.1555254971874738)">10</text>
<rect class="edge_bg" x="-3.5171766699544635" y="-0.05636413373794885" width="0.3057444745685619" height="0.3057444745685619"/>
<text class="edge_text" text-anchor="middle" dominant-baseline="middle" transform="matrix(0.015287223728428095 0 0 0.015287223728428095 -3.3643044326701825 0.0965081035463321)">8</text>
<rect class="edge_bg" x="-4.052409669954463" y="-1.703642133737949" width="0.3057444745685619" height="0.3057444745685619"/>
<text class="edge_text" text-anchor="middle" dominant-baseline="middle" transform="matrix(0.015287223728428095 0 0 0.015287223728428095 -3.8995374326701824 -1.550769896453668)">21</text>
<rect class="edge_bg" x="-3.4729255738854143" y="-2.3472241834323593" width="0.3057444745685619" height="0.3057444745685619"/>
<text class="edge_text" text-anchor="middle" dominant-baseline="middle" transform="matrix(0.015287223728428095 0 0 0.015287223728428095 -3.3200533366011333 -2.1943519461480783)">19</text>
<rect class="edge_bg" x="-2.3392833408407374" y="-1.6927155348386576" width="0.3057444745685619" height="0.3057444745685619"/>
<text class="edge_text" text-anchor="middle" dominant-baseline="middle" transform="matrix(0.015287223728428095 0 0 0.015287223728428095 -2.1864111035564564 -1.5398432975543765)">3</text>
</svg>
