<?xml version="1.0" encoding="utf-8"?>
<svg version="1.1" xmlns="http://www.w3.org/2000/svg" viewBox="-1.029570014391263 -1.1728147800366906 3.5979814333501268 3.801925160807187" style="enable-background:new -1.029570014391263 -1.1728147800366906 3.5979814333501268 3.801925160807187;">
<style type="text/css">
  .face_stroke {fill:none; stroke:#000000; stroke-width:0.02; stroke-miterlimit:10;}
  .face_text {fill:#000000; font-family:monospace;}
  .edge_text {fill:#ff0000; font-family:monospace;}
  .edge_bg {fill:#f3f3f3; stroke:#606060; stroke-width:0.01;}
</style>
<polygon class="face_stroke" points="0.8660254037844389,-0.5 6.123233995736767e-17,-1.0000000000000002 -0.8660254037844389,-0.5 -0.8660254037844388,0.5000000000000002 -1.8369701987210302e-16,1.0000000000000002 0.8660254037844386,0.5000000000000006"/>
<polygon class="face_stroke" points="0.8660250397644133,0.4999999999999999 1.8170815560595668,0.8090169943749475 2.4048668083520397,2.0834935792808685e-16 1.817081556059567,-0.8090169943749473 0.8660250397644135,-0.5000000000000001"/>
<polygon class="face_stroke" points="0.8660253091822407,0.5000003992661941 0.12288048370484617,1.1691310056250526 0.33079217452260556,2.1472786063588583 1.2818486908177587,2.456295600733806 2.0249935162951536,1.7871649943749477 1.817081825477394,0.8090173936411414"/>
<text class="face_text" text-anchor="middle" dominant-baseline="middle" transform="matrix(0.007195962866700253 0 0 0.007195962866700253 0.0 0.0)">1</text>
<text class="face_text" text-anchor="middle" dominant-baseline="middle" transform="matrix(0.007195962866700253 0 0 0.007195962866700253 1.554216 0.0)">0</text>
<text class="face_text" text-anchor="middle" dominant-baseline="middle" transform="matrix(0.007195962866700253 0 0 0.007195962866700253 1.073937 1.478148)">2</text>
<rect class="edge_bg" x="0.7940654110974107" y="-0.07195962866700262" width="0.14391925733400507" height="0.14391925733400507"/>
<text class="edge_text" text-anchor="middle" dominant-baseline="middle" transform="matrix(0.007195962866700253 0 0 0.007195962866700253 0.8660250397644133 -8.427908566546547e-17)">2</text>
<rect class="edge_bg" x="1.269593938662815" y="0.5825492677866654" width="0.14391925733400507" height="0.14391925733400507"/>
<text class="edge_text" text-anchor="middle" dominant-baseline="middle" transform="matrix(0.007195962866700253 0 0 0.007195962866700253 1.3415535673298176 0.6545088964536679)">1</text>
</svg>
