<?xml version="1.0" encoding="utf-8"?>
<svg version="1.1" xmlns="http://www.w3.org/2000/svg" viewBox="-3.3841267935380555 -2.2625702734814377 7.532645674092345 5.6139308004478945" style="enable-background:new -3.3841267935380555 -2.2625702734814377 7.532645674092345 5.6139308004478945;">
<style type="text/css">
  .face_stroke {fill:none; stroke:#000000; stroke-width:0.02; stroke-miterlimit:10;}
  .face_text {fill:#000000; font-family:monospace;}
  .edge_text {fill:#ff0000; font-family:monospace;}
  .edge_bg {fill:#f3f3f3; stroke:#606060; stroke-width:0.01;}
</style>
<polygon class="face_stroke" points="0.8660254037844389,-0.5 6.123233995736767e-17,-1.0000000000000002 -0.8660254037844389,-0.5 -0.8660254037844388,0.5000000000000002 -1.8369701987210302e-16,1.0000000000000002 0.8660254037844386,0.5000000000000006"/>
<polygon class="face_stroke" points="0.8660250397644133,0.4999999999999999 1.8170815560595668,0.8090169943749475 2.4048668083520397,2.0834935792808685e-16 1.817081556059567,-0.8090169943749473 0.8660250397644135,-0.5000000000000001"/>
<polygon class="face_stroke" points="1.8170821046317265,0.8090165367323463 2.2238187477075266,1.7225619943749475 3.2183406430758006,1.827090457642601 3.8061258953682735,1.0180734632676536 3.3993892522924742,0.10452800562505304 2.4048673569241994,-4.5764260092617803e-07"/>
<polygon class="face_stroke" points="1.8170822522924732,0.8090170056250523 0.8225603569241999,0.7044885423573988 0.23477510463172657,1.5135055367323462 0.6415117477075267,2.4270509943749476 1.6360336430758007,2.531579457642601 2.2238188953682734,1.7225624632676535"/>
<polygon class="face_stroke" points="0.23477440417602005,1.5135057902173656 -0.7597474911922534,1.618034253485019 -0.9676591820100129,2.596181854218824 -0.10163377822557448,3.0961818542188246 0.6415110472518201,2.427051247859967"/>
<polygon class="face_stroke" points="-0.7597474837048462,1.6180340056250526 -1.5028923091822404,0.9489033992661943 -2.453948825477394,1.2579203936411414 -2.6618605162951536,2.236067994374948 -1.9187156908177598,2.9051986007338058 -0.9676591745226055,2.5961816063588583"/>
<polygon class="face_stroke" points="-1.5028920397644132,0.948903 -1.5028920397644132,-0.051097000000000004 -2.453948556059567,-0.36011399437494745 -3.0417338083520398,0.4489029999999999 -2.453948556059567,1.2579199943749473"/>
<polygon class="face_stroke" points="-1.5028923091822404,-0.05109639926619425 -0.7597474837048462,-0.7202270056250526 -0.9676591745226056,-1.6983746063588585 -1.9187156908177592,-2.007391600733806 -2.6618605162951536,-1.3382609943749477 -2.4539488254773945,-0.3601133936411417"/>
<text class="face_text" text-anchor="middle" dominant-baseline="middle" transform="matrix(0.011227861600895788 0 0 0.011227861600895788 0.0 0.0)">1</text>
<text class="face_text" text-anchor="middle" dominant-baseline="middle" transform="matrix(0.011227861600895788 0 0 0.011227861600895788 1.554216 0.0)">0</text>
<text class="face_text" text-anchor="middle" dominant-baseline="middle" transform="matrix(0.011227861600895788 0 0 0.011227861600895788 2.811604 0.913545)">6</text>
<text class="face_text" text-anchor="middle" dominant-baseline="middle" transform="matrix(0.011227861600895788 0 0 0.011227861600895788 1.229297 1.618034)">2</text>
<text class="face_text" text-anchor="middle" dominant-baseline="middle" transform="matrix(0.011227861600895788 0 0 0.011227861600895788 -0.190551 2.250191)">3</text>
<text class="face_text" text-anchor="middle" dominant-baseline="middle" transform="matrix(0.011227861600895788 0 0 0.011227861600895788 -1.710804 1.927051)">9</text>
<text class="face_text" text-anchor="middle" dominant-baseline="middle" transform="matrix(0.011227861600895788 0 0 0.011227861600895788 -2.191083 0.448903)">8</text>
<text class="face_text" text-anchor="middle" dominant-baseline="middle" transform="matrix(0.011227861600895788 0 0 0.011227861600895788 -1.710804 -1.029244)">7</text>
<rect class="edge_bg" x="0.7537464237554554" y="-0.11227861600895797" width="0.22455723201791578" height="0.22455723201791578"/>
<text class="edge_text" text-anchor="middle" dominant-baseline="middle" transform="matrix(0.011227861600895788 0 0 0.011227861600895788 0.8660250397644133 -8.427908566546547e-17)">2</text>
<rect class="edge_bg" x="1.9986961147690052" y="0.2922294235359148" width="0.22455723201791578" height="0.22455723201791578"/>
<text class="edge_text" text-anchor="middle" dominant-baseline="middle" transform="matrix(0.011227861600895788 0 0 0.011227861600895788 2.110974730777963 0.4045080395448727)">11</text>
<rect class="edge_bg" x="1.9081719578214154" y="1.153511118437395" width="0.22455723201791578" height="0.22455723201791578"/>
<text class="edge_text" text-anchor="middle" dominant-baseline="middle" transform="matrix(0.011227861600895788 0 0 0.011227861600895788 2.0204505738303733 1.265789734446353)">9</text>
<rect class="edge_bg" x="0.3258641097049621" y="1.857999903029708" width="0.22455723201791578" height="0.22455723201791578"/>
<text class="edge_text" text-anchor="middle" dominant-baseline="middle" transform="matrix(0.011227861600895788 0 0 0.011227861600895788 0.43814272571392 1.970278519038666)">3</text>
<rect class="edge_bg" x="-0.9759819451226837" y="1.9948291899829975" width="0.22455723201791578" height="0.22455723201791578"/>
<text class="edge_text" text-anchor="middle" dominant-baseline="middle" transform="matrix(0.011227861600895788 0 0 0.011227861600895788 -0.8637033291137258 2.1071078059919555)">18</text>
<rect class="edge_bg" x="-2.0906989139209475" y="0.9911328811785158" width="0.22455723201791578" height="0.22455723201791578"/>
<text class="edge_text" text-anchor="middle" dominant-baseline="middle" transform="matrix(0.011227861600895788 0 0 0.011227861600895788 -1.9784202979119898 1.1034114971874738)">17</text>
<rect class="edge_bg" x="-2.090699183338775" y="-0.31788351246262575" width="0.22455723201791578" height="0.22455723201791578"/>
<text class="edge_text" text-anchor="middle" dominant-baseline="middle" transform="matrix(0.011227861600895788 0 0 0.011227861600895788 -1.9784205673298174 -0.20560489645366786)">15</text>
</svg>
