<?xml version="1.0" encoding="utf-8"?>
<svg version="1.1" xmlns="http://www.w3.org/2000/svg" viewBox="-2.495114586878325 -1.3439783800366905 6.60129955282977 7.567524360807186" style="enable-background:new -2.495114586878325 -1.3439783800366905 6.60129955282977 7.567524360807186;">
<style type="text/css">
  .face_stroke {fill:none; stroke:#000000; stroke-width:0.02; stroke-miterlimit:10;}
  .face_text {fill:#000000; font-family:monospace;}
  .edge_text {fill:#ff0000; font-family:monospace;}
  .edge_bg {fill:#f3f3f3; stroke:#606060; stroke-width:0.01;}
</style>
<polygon class="face_stroke" points="0.8660254037844389,-0.5 6.123233995736767e-17,-1.0000000000000002 -0.8660254037844389,-0.5 -0.8660254037844388,0.5000000000000002 -1.8369701987210302e-16,1.0000000000000002 0.8660254037844386,0.5000000000000006"/>
<polygon class="face_stroke" points="0.8660250397644133,0.4999999999999999 1.8170815560595668,0.8090169943749475 2.4048668083520397,2.0834935792808685e-16 1.817081556059567,-0.8090169943749473 0.8660250397644135,-0.5000000000000001"/>
<polygon class="face_stroke" points="1.8170821046317265,0.8090165367323463 2.2238187477075266,1.7225619943749475 3.2183406430758006,1.827090457642601 3.8061258953682735,1.0180734632676536 3.3993892522924742,0.10452800562505304 2.4048673569241994,-4.5764260092617803e-07"/>
<polygon class="face_stroke" points="2.2238185958239804,1.7225627902173657 1.8170819527481799,2.6361082478599664 2.5602267782255743,3.3052388542188247 3.4262521820100127,2.8052388542188247 3.218340491192254,1.8270912534850194"/>
<polygon class="face_stroke" points="1.8170816908177594,2.6361083992661944 0.8660251745226059,2.9451253936411415 0.6581134837048462,3.923272994374948 1.4012583091822401,4.592403600733806 2.3523148254773947,4.283386606358858 2.560226516295154,3.3052390056250527"/>
<polygon class="face_stroke" points="0.6581136908177595,3.923272399266194 -0.29294282547739414,4.232289393641142 -0.5008545162951538,5.210436994374947 0.24229030918224015,5.879567600733806 1.1933468254773945,5.570550606358858 1.4012585162951539,4.592403005625052"/>
<polygon class="face_stroke" points="-0.2929424837048463,4.232289005625052 -1.0360873091822405,3.563158399266194 -1.987143825477394,3.872175393641141 -2.1950555162951537,4.850322994374947 -1.45191069081776,5.519453600733805 -0.5008541745226056,5.210436606358858"/>
<polygon class="face_stroke" points="-0.29294322177442583,4.232289854218825 0.5730821820100126,3.7322898542188248 0.3651704911922533,2.754142253485019 -0.6293514041760198,2.6496137902173658 -1.0360880472518201,3.563159247859966"/>
<polygon class="face_stroke" points="0.3651706430758003,2.754141457642601 0.9529558953682735,1.9451244632676534 0.5462192522924733,1.0315790056250522 -0.44830264307580014,0.9270505423573987 -1.0360878953682735,1.7360675367323462 -0.6293512522924734,2.6496129943749476"/>
<text class="face_text" text-anchor="middle" dominant-baseline="middle" transform="matrix(0.01320259910565954 0 0 0.01320259910565954 0.0 0.0)">1</text>
<text class="face_text" text-anchor="middle" dominant-baseline="middle" transform="matrix(0.01320259910565954 0 0 0.01320259910565954 1.554216 0.0)">0</text>
<text class="face_text" text-anchor="middle" dominant-baseline="middle" transform="matrix(0.01320259910565954 0 0 0.01320259910565954 2.811604 0.913545)">6</text>
<text class="face_text" text-anchor="middle" dominant-baseline="middle" transform="matrix(0.01320259910565954 0 0 0.01320259910565954 2.649144 2.459248)">5</text>
<text class="face_text" text-anchor="middle" dominant-baseline="middle" transform="matrix(0.01320259910565954 0 0 0.01320259910565954 1.60917 3.614256)">4</text>
<text class="face_text" text-anchor="middle" dominant-baseline="middle" transform="matrix(0.01320259910565954 0 0 0.01320259910565954 0.450202 4.90142)">10</text>
<text class="face_text" text-anchor="middle" dominant-baseline="middle" transform="matrix(0.01320259910565954 0 0 0.01320259910565954 -1.243999 4.541306)">9</text>
<text class="face_text" text-anchor="middle" dominant-baseline="middle" transform="matrix(0.01320259910565954 0 0 0.01320259910565954 -0.204026 3.386299)">3</text>
<text class="face_text" text-anchor="middle" dominant-baseline="middle" transform="matrix(0.01320259910565954 0 0 0.01320259910565954 -0.041566 1.840596)">2</text>
<rect class="edge_bg" x="0.7339990487078178" y="-0.1320259910565955" width="0.2640519821131908" height="0.2640519821131908"/>
<text class="edge_text" text-anchor="middle" dominant-baseline="middle" transform="matrix(0.01320259910565954 0 0 0.01320259910565954 0.8660250397644133 -8.427908566546547e-17)">2</text>
<rect class="edge_bg" x="1.9789487397213676" y="0.2724820484882773" width="0.2640519821131908" height="0.2640519821131908"/>
<text class="edge_text" text-anchor="middle" dominant-baseline="middle" transform="matrix(0.01320259910565954 0 0 0.01320259910565954 2.110974730777963 0.4045080395448727)">11</text>
<rect class="edge_bg" x="2.5890535524515212" y="1.642801030794597" width="0.2640519821131908" height="0.2640519821131908"/>
<text class="edge_text" text-anchor="middle" dominant-baseline="middle" transform="matrix(0.01320259910565954 0 0 0.01320259910565954 2.7210795435081168 1.7748270218511923)">10</text>
<rect class="edge_bg" x="2.056628112499861" y="2.838647711389028" width="0.2640519821131908" height="0.2640519821131908"/>
<text class="edge_text" text-anchor="middle" dominant-baseline="middle" transform="matrix(0.01320259910565954 0 0 0.01320259910565954 2.1886541035564564 2.9706737024456236)">8</text>
<rect class="edge_bg" x="0.8976601124998612" y="4.125811711389027" width="0.2640519821131908" height="0.2640519821131908"/>
<text class="edge_text" text-anchor="middle" dominant-baseline="middle" transform="matrix(0.01320259910565954 0 0 0.01320259910565954 1.0296861035564566 4.257837702445623)">21</text>
<rect class="edge_bg" x="-0.5289243201703213" y="4.5893368149353595" width="0.2640519821131908" height="0.2640519821131908"/>
<text class="edge_text" text-anchor="middle" dominant-baseline="middle" transform="matrix(0.01320259910565954 0 0 0.01320259910565954 -0.3968983291137259 4.721362805991955)">20</text>
<rect class="edge_bg" x="-0.7965416255697185" y="3.7656985599828" width="0.2640519821131908" height="0.2640519821131908"/>
<text class="edge_text" text-anchor="middle" dominant-baseline="middle" transform="matrix(0.01320259910565954 0 0 0.01320259910565954 -0.6645156345131231 3.8977245510393956)">18</text>
<rect class="edge_bg" x="-0.2641162956649318" y="2.569851234952179" width="0.2640519821131908" height="0.2640519821131908"/>
<text class="edge_text" text-anchor="middle" dominant-baseline="middle" transform="matrix(0.01320259910565954 0 0 0.01320259910565954 -0.13209030460833635 2.7018772260087744)">3</text>
</svg>
