<?xml version="1.0" encoding="utf-8"?>
<svg version="1.1" xmlns="http://www.w3.org/2000/svg" viewBox="-2.5348569687420746 -1.389655660489132 6.642934429067983 8.572424530760898" style="enable-background:new -2.5348569687420746 -1.389655660489132 6.642934429067983 8.572424530760898;">
<style type="text/css">
  .face_stroke {fill:none; stroke:#000000; stroke-width:0.02; stroke-miterlimit:10;}
  .face_text {fill:#000000; font-family:monospace;}
  .edge_text {fill:#ff0000; font-family:monospace;}
  .edge_bg {fill:#f3f3f3; stroke:#606060; stroke-width:0.01;}
</style>
<polygon class="face_stroke" points="0.8660254037844389,-0.5 6.123233995736767e-17,-1.0000000000000002 -0.8660254037844389,-0.5 -0.8660254037844388,0.5000000000000002 -1.8369701987210302e-16,1.0000000000000002 0.8660254037844386,0.5000000000000006"/>
<polygon class="face_stroke" points="0.8660250397644133,0.4999999999999999 1.8170815560595668,0.8090169943749475 2.4048668083520397,2.0834935792808685e-16 1.817081556059567,-0.8090169943749473 0.8660250397644135,-0.5000000000000001"/>
<polygon class="face_stroke" points="1.8170821046317265,0.8090165367323463 2.2238187477075266,1.7225619943749475 3.2183406430758006,1.827090457642601 3.8061258953682735,1.0180734632676536 3.3993892522924742,0.10452800562505304 2.4048673569241994,-4.5764260092617803e-07"/>
<polygon class="face_stroke" points="2.2238185958239804,1.7225627902173657 1.8170819527481799,2.6361082478599664 2.5602267782255743,3.3052388542188247 3.4262521820100127,2.8052388542188247 3.218340491192254,1.8270912534850194"/>
<polygon class="face_stroke" points="1.8170816908177594,2.6361083992661944 0.8660251745226059,2.9451253936411415 0.6581134837048462,3.923272994374948 1.4012583091822401,4.592403600733806 2.3523148254773947,4.283386606358858 2.560226516295154,3.3052390056250527"/>
<polygon class="face_stroke" points="0.6581136908177595,3.923272399266194 -0.29294282547739414,4.232289393641142 -0.5008545162951538,5.210436994374947 0.24229030918224015,5.879567600733806 1.1933468254773945,5.570550606358858 1.4012585162951539,4.592403005625052"/>
<polygon class="face_stroke" points="-0.500854778225574,5.210437145781176 -1.3668801820100125,5.710437145781175 -1.1589684911922535,6.688584746514981 -0.1644465958239799,6.793113209782635 0.24229004725182035,5.8795677521400345"/>
<polygon class="face_stroke" points="-0.5008545962155612,5.210437 -0.5008545962155612,4.210437 -1.36688,3.7104369999999998 -2.232905403784439,4.210437 -2.232905403784439,5.210437 -1.3668800000000003,5.710437"/>
<polygon class="face_stroke" points="-0.500854778225574,4.210436854218824 0.24229004725182024,3.5413062478599664 -0.1644465958239799,2.6277607902173656 -1.1589684911922533,2.732289253485019 -1.366880182010013,3.710436854218824"/>
<polygon class="face_stroke" points="-0.16444674770752676,2.6277609943749476 0.2422898953682735,1.7142155367323464 -0.3454953569241997,0.9051985423573988 -1.3400172522924731,1.0097270056250522 -1.7467538953682737,1.923272463267653 -1.1589686430758002,2.732289457642601"/>
<text class="face_text" text-anchor="middle" dominant-baseline="middle" transform="matrix(0.013285868858135966 0 0 0.013285868858135966 0.0 0.0)">1</text>
<text class="face_text" text-anchor="middle" dominant-baseline="middle" transform="matrix(0.013285868858135966 0 0 0.013285868858135966 1.554216 0.0)">0</text>
<text class="face_text" text-anchor="middle" dominant-baseline="middle" transform="matrix(0.013285868858135966 0 0 0.013285868858135966 2.811604 0.913545)">6</text>
<text class="face_text" text-anchor="middle" dominant-baseline="middle" transform="matrix(0.013285868858135966 0 0 0.013285868858135966 2.649144 2.459248)">5</text>
<text class="face_text" text-anchor="middle" dominant-baseline="middle" transform="matrix(0.013285868858135966 0 0 0.013285868858135966 1.60917 3.614256)">4</text>
<text class="face_text" text-anchor="middle" dominant-baseline="middle" transform="matrix(0.013285868858135966 0 0 0.013285868858135966 0.450202 4.90142)">10</text>
<text class="face_text" text-anchor="middle" dominant-baseline="middle" transform="matrix(0.013285868858135966 0 0 0.013285868858135966 -0.589772 6.056428)">18</text>
<text class="face_text" text-anchor="middle" dominant-baseline="middle" transform="matrix(0.013285868858135966 0 0 0.013285868858135966 -1.36688 4.710437)">9</text>
<text class="face_text" text-anchor="middle" dominant-baseline="middle" transform="matrix(0.013285868858135966 0 0 0.013285868858135966 -0.589772 3.364446)">3</text>
<text class="face_text" text-anchor="middle" dominant-baseline="middle" transform="matrix(0.013285868858135966 0 0 0.013285868858135966 -0.752232 1.818744)">2</text>
<rect class="edge_bg" x="0.7331663511830536" y="-0.13285868858135974" width="0.2657173771627193" height="0.2657173771627193"/>
<text class="edge_text" text-anchor="middle" dominant-baseline="middle" transform="matrix(0.013285868858135966 0 0 0.013285868858135966 0.8660250397644133 -8.427908566546547e-17)">2</text>
<rect class="edge_bg" x="1.9781160421966035" y="0.27164935096351306" width="0.2657173771627193" height="0.2657173771627193"/>
<text class="edge_text" text-anchor="middle" dominant-baseline="middle" transform="matrix(0.013285868858135966 0 0 0.013285868858135966 2.110974730777963 0.4045080395448727)">11</text>
<rect class="edge_bg" x="2.588220854926757" y="1.6419683332698327" width="0.2657173771627193" height="0.2657173771627193"/>
<text class="edge_text" text-anchor="middle" dominant-baseline="middle" transform="matrix(0.013285868858135966 0 0 0.013285868858135966 2.7210795435081168 1.7748270218511923)">10</text>
<rect class="edge_bg" x="2.0557954149750968" y="2.837815013864264" width="0.2657173771627193" height="0.2657173771627193"/>
<text class="edge_text" text-anchor="middle" dominant-baseline="middle" transform="matrix(0.013285868858135966 0 0 0.013285868858135966 2.1886541035564564 2.9706737024456236)">8</text>
<rect class="edge_bg" x="0.896827414975097" y="4.124979013864263" width="0.2657173771627193" height="0.2657173771627193"/>
<text class="edge_text" text-anchor="middle" dominant-baseline="middle" transform="matrix(0.013285868858135966 0 0 0.013285868858135966 1.0296861035564566 4.257837702445623)">21</text>
<rect class="edge_bg" x="-0.2621410540682365" y="5.412143760379245" width="0.2657173771627193" height="0.2657173771627193"/>
<text class="edge_text" text-anchor="middle" dominant-baseline="middle" transform="matrix(0.013285868858135966 0 0 0.013285868858135966 -0.12928236548687688 5.545002448960605)">43</text>
<rect class="edge_bg" x="-1.0667259866891403" y="5.32757831141864" width="0.2657173771627193" height="0.2657173771627193"/>
<text class="edge_text" text-anchor="middle" dominant-baseline="middle" transform="matrix(0.013285868858135966 0 0 0.013285868858135966 -0.9338672981077806 5.460437)">41</text>
<rect class="edge_bg" x="-1.066726168699153" y="3.827578165637465" width="0.2657173771627193" height="0.2657173771627193"/>
<text class="edge_text" text-anchor="middle" dominant-baseline="middle" transform="matrix(0.013285868858135966 0 0 0.013285868858135966 -0.9338674801177933 3.9604368542188246)">18</text>
<rect class="edge_bg" x="-0.7945663839730231" y="2.5471665374274144" width="0.2657173771627193" height="0.2657173771627193"/>
<text class="edge_text" text-anchor="middle" dominant-baseline="middle" transform="matrix(0.013285868858135966 0 0 0.013285868858135966 -0.6617076953916635 2.680025226008774)">3</text>
</svg>
