<?xml version="1.0" encoding="utf-8"?>
<svg version="1.1" id="layer_1" xmlns="http://www.w3.org/2000/svg" xmlns:xlink="http://www.w3.org/1999/xlink" x="0px" y="0px" viewBox="-0.916025403784439 -1.2571067811865484 4.246262184970987 4.246262184970987" style="enable-background:new -0.916025403784439 -1.2571067811865484 4.246262184970987 4.246262184970987;" xml:space="preserve">
<style type="text/css">
  .no_fill_black_stroke {fill:none; stroke:#000000; stroke-width:0.02; stroke-miterlimit:10;}
  .face_text {fill:#000000; font-family:monospace;}
  .edge_text {fill:#ff0000; font-family:monospace;}
  .edge_bg {fill:#f3f3f3; stroke:#606060; stroke-width:0.02;}
</style>
<polygon class="no_fill_black_stroke" points="0.8660254037844389, -0.5 6.123233995736767e-17, -1.0000000000000002 -0.8660254037844389, -0.5 -0.8660254037844388, 0.5000000000000002 -1.8369701987210302e-16, 1.0000000000000002 0.8660254037844386, 0.5000000000000006"/>
<polygon class="no_fill_black_stroke" points="0.866023218813452, 0.49999999999999933 1.5731300000000004, 1.2071067811865477 2.5731300000000004, 1.2071067811865475 3.280236781186548, 0.4999999999999997 3.280236781186548, -0.49999999999999917 2.57313, -1.2071067811865477 1.573130000000002, -1.2071067811865483 0.8660232188134529, -0.500000000000001"/>
<polygon class="no_fill_black_stroke" points="1.57313, 1.207104596215561 1.0731299999999997, 2.07313 1.5731299999999995, 2.9391554037844383 2.57313, 2.9391554037844387 3.07313, 2.0731300000000004 2.57313, 1.2071045962155609"/>
<polygon class="no_fill_black_stroke" points="1.5731317018922195, 1.2071072981077806 0.7071062981077806, 0.7071072981077806 0.20710629810778047, 1.573132701892219 1.0731317018922195, 2.073132701892219"/>
<text class="face_text" text-anchor="middle" dominant-baseline="middle" transform="matrix(0.008492524369941974 0 0 0.008492524369941974 0.0 0.0)">0</text>
<text class="face_text" text-anchor="middle" dominant-baseline="middle" transform="matrix(0.008492524369941974 0 0 0.008492524369941974 2.07313 0.0)">2</text>
<text class="face_text" text-anchor="middle" dominant-baseline="middle" transform="matrix(0.008492524369941974 0 0 0.008492524369941974 2.07313 2.07313)">8</text>
<text class="face_text" text-anchor="middle" dominant-baseline="middle" transform="matrix(0.008492524369941974 0 0 0.008492524369941974 0.890119 1.39012)">1</text>
<rect class="edge_bg" x="0.7810979751140327" y="-0.0849252436994199" width="0.16985048739883948" height="0.16985048739883948"/>
<text class="edge_text" text-anchor="middle" dominant-baseline="middle" transform="matrix(0.008492524369941974 0 0 0.008492524369941974 0.8660232188134525 -1.4782794558091698e-16)">0</text>
<rect class="edge_bg" x="1.9882047563005802" y="1.1221793525161414" width="0.16985048739883948" height="0.16985048739883948"/>
<text class="edge_text" text-anchor="middle" dominant-baseline="middle" transform="matrix(0.008492524369941974 0 0 0.008492524369941974 2.07313 1.207104596215561)">13</text>
<rect class="edge_bg" x="1.2382064581927998" y="1.5551947563005803" width="0.16985048739883948" height="0.16985048739883948"/>
<text class="edge_text" text-anchor="middle" dominant-baseline="middle" transform="matrix(0.008492524369941974 0 0 0.008492524369941974 1.3231317018922195 1.64012)">15</text>
</svg>
