<?xml version="1.0" encoding="utf-8"?>
<svg version="1.1" id="layer_1" xmlns="http://www.w3.org/2000/svg" xmlns:xlink="http://www.w3.org/1999/xlink" x="0px" y="0px" viewBox="-0.916025403784439 -1.0500000000000003 3.539162184970987 4.014216781186548" style="enable-background:new -0.916025403784439 -1.0500000000000003 3.539162184970987 4.014216781186548;" xml:space="preserve">
<style type="text/css">
  .no_fill_black_stroke {fill:none; stroke:#000000; stroke-width:0.02; stroke-miterlimit:10;}
  .face_text {fill:#000000; font-family:monospace;}
  .edge_text {fill:#ff0000; font-family:monospace;}
  .edge_bg {fill:#f3f3f3; stroke:#606060; stroke-width:0.02;}
</style>
<polygon class="no_fill_black_stroke" points="0.8660254037844389, -0.5 6.123233995736767e-17, -1.0000000000000002 -0.8660254037844389, -0.5 -0.8660254037844388, 0.5000000000000002 -1.8369701987210302e-16, 1.0000000000000002 0.8660254037844386, 0.5000000000000006"/>
<polygon class="no_fill_black_stroke" points="0.86603, 0.5 1.8660299999999999, 0.5000000000000001 1.8660300000000007, -0.49999999999999944 0.8660299999999997, -0.4999999999999998"/>
<polygon class="no_fill_black_stroke" points="0.8660300000000001, 0.5000032188134524 0.15892321881345262, 1.2071099999999997 0.15892321881345217, 2.2071099999999992 0.8660300000000004, 2.9142167811865476 1.8660300000000003, 2.914216781186547 2.5731367811865478, 2.2071099999999997 2.573136781186548, 1.2071100000000008 1.8660299999999999, 0.5000032188134522"/>
<text class="face_text" text-anchor="middle" dominant-baseline="middle" transform="matrix(0.007078324369941974 0 0 0.007078324369941974 0.0 0.0)">0</text>
<text class="face_text" text-anchor="middle" dominant-baseline="middle" transform="matrix(0.007078324369941974 0 0 0.007078324369941974 1.36603 0.0)">1</text>
<text class="face_text" text-anchor="middle" dominant-baseline="middle" transform="matrix(0.007078324369941974 0 0 0.007078324369941974 1.36603 1.70711)">9</text>
<rect class="edge_bg" x="0.7952467563005803" y="-0.0707832436994198" width="0.14156648739883948" height="0.14156648739883948"/>
<text class="edge_text" text-anchor="middle" dominant-baseline="middle" transform="matrix(0.007078324369941974 0 0 0.007078324369941974 0.86603 -6.123233995736767e-17)">2</text>
<rect class="edge_bg" x="1.2952467563005803" y="0.4292199751140327" width="0.14156648739883948" height="0.14156648739883948"/>
<text class="edge_text" text-anchor="middle" dominant-baseline="middle" transform="matrix(0.007078324369941974 0 0 0.007078324369941974 1.36603 0.5000032188134524)">16</text>
</svg>
