<?xml version="1.0" encoding="utf-8"?>
<svg version="1.1" id="layer_1" xmlns="http://www.w3.org/2000/svg" xmlns:xlink="http://www.w3.org/1999/xlink" x="0px" y="0px" viewBox="-1.015926137588014 -1.0500000000000003 3.2979815413724536 4.190775137588014" style="enable-background:new -1.015926137588014 -1.0500000000000003 3.2979815413724536 4.190775137588014;" xml:space="preserve">
<style type="text/css">
  .no_fill_black_stroke {fill:none; stroke:#000000; stroke-width:0.02; stroke-miterlimit:10;}
  .face_text {fill:#000000; font-family:monospace;}
  .edge_text {fill:#ff0000; font-family:monospace;}
  .edge_bg {fill:#f3f3f3; stroke:#606060; stroke-width:0.02;}
</style>
<polygon class="no_fill_black_stroke" points="0.5000000000000001, -0.5 -0.5, -0.5000000000000001 -0.5000000000000001, 0.5 0.4999999999999999, 0.5000000000000001"/>
<polygon class="no_fill_black_stroke" points="0.5000045962155613, 0.5000000000000002 1.3660299999999999, 1.0000000000000002 2.2320554037844387, 0.5000000000000006 2.2320554037844396, -0.4999999999999994 1.3660300000000003, -1.0000000000000002 0.500004596215561, -0.4999999999999999"/>
<polygon class="no_fill_black_stroke" points="0.4999996887010546, 0.5000048624119862 -0.4659261375880139, 0.7588239075145069 -0.9659261375880139, 1.6248493112989455 -0.7071070924854932, 2.5907751375880137 0.1589183112989455, 3.0907751375880137 1.1248441375880138, 2.831956092485493 1.6248441375880138, 1.9659306887010546 1.366025092485494, 1.0000048624119873"/>
<text class="face_text" text-anchor="middle" dominant-baseline="middle" transform="matrix(0.006595963082744907 0 0 0.006595963082744907 0.0 0.0)">1</text>
<text class="face_text" text-anchor="middle" dominant-baseline="middle" transform="matrix(0.006595963082744907 0 0 0.006595963082744907 1.36603 0.0)">0</text>
<text class="face_text" text-anchor="middle" dominant-baseline="middle" transform="matrix(0.006595963082744907 0 0 0.006595963082744907 0.329459 1.79539)">2</text>
<rect class="edge_bg" x="0.4340449653881122" y="-0.06595963082744918" width="0.13191926165489815" height="0.13191926165489815"/>
<text class="edge_text" text-anchor="middle" dominant-baseline="middle" transform="matrix(0.006595963082744907 0 0 0.006595963082744907 0.5000045962155613 -1.0605752387249072e-16)">2</text>
<rect class="edge_bg" x="0.8670527597658249" y="0.6840452315845373" width="0.13191926165489815" height="0.13191926165489815"/>
<text class="edge_text" text-anchor="middle" dominant-baseline="middle" transform="matrix(0.006595963082744907 0 0 0.006595963082744907 0.9330123905932739 0.7500048624119864)">0</text>
</svg>
