<?xml version="1.0" encoding="utf-8"?>
<svg version="1.1" xmlns="http://www.w3.org/2000/svg" viewBox="-3.148279522081441 -1.0026282720814415 4.507884044162882 3.005256544162883" style="enable-background:new -3.148279522081441 -1.0026282720814415 4.507884044162882 3.005256544162883;">
<style type="text/css">
  .face_stroke {fill:none; stroke:#000000; stroke-width:0.02; stroke-miterlimit:10;}
  .face_text {fill:#000000; font-family:monospace;}
  .edge_text {fill:#ff0000; font-family:monospace;}
  .edge_bg {fill:#f3f3f3; stroke:#606060; stroke-width:0.01;}
</style>
<polygon class="face_stroke" points="0.288675134594813,-0.5 -0.5773502691896258,-7.07050159149938e-17 0.288675134594813,0.5"/>
<polygon class="face_stroke" points="0.28867486540518683,0.4999999999999999 1.1547002691896258,1.414100318299876e-16 0.28867486540518755,-0.5000000000000003"/>
<polygon class="face_stroke" points="0.2886747308103742,0.49999999999999994 1.1547001345948131,1.0 1.1547001345948127,-1.1102230246251565e-16"/>
<polygon class="face_stroke" points="0.2886752981077806,0.5000002981077807 -0.21132470189221952,1.366025701892219 0.6547007018922196,1.8660257018922195 1.1547007018922195,1.0000002981077811"/>
<polygon class="face_stroke" points="0.2886750000000001,0.49999986540518715 -0.7113250000000001,0.49999986540518715 -0.21132500000000012,1.3660252691896257"/>
<polygon class="face_stroke" points="-0.7113252981077807,0.5000002981077807 -1.5773507018922193,1.0000002981077807 -1.0773507018922193,1.8660257018922195 -0.21132529810778056,1.3660257018922193"/>
<polygon class="face_stroke" points="-0.7113247308103742,0.5 -1.5773501345948129,-1.1102230246251565e-16 -1.577350134594813,0.9999999999999999"/>
<polygon class="face_stroke" points="-1.577349865405187,0.0 -2.4433752691896258,0.49999999999999994 -1.577349865405187,1.0"/>
<polygon class="face_stroke" points="-1.5773502981077805,-2.981077806829546e-07 -2.0773502981077807,-0.8660257018922194 -2.943375701892219,-0.3660257018922195 -2.443375701892219,0.49999970189221943"/>
<polygon class="face_stroke" points="-1.57735,2.691896258122384e-07 -1.07735,-0.8660251345948129 -2.07735,-0.8660251345948129"/>
<polygon class="face_stroke" points="-1.57735,1.3459481296163034e-07 -0.5773500000000001,1.3459481318367494e-07 -1.0773499999999998,-0.8660252691896259"/>
</svg>
