<?xml version="1.0" encoding="utf-8"?>
<svg version="1.1" id="layer_1" xmlns="http://www.w3.org/2000/svg" xmlns:xlink="http://www.w3.org/1999/xlink" x="0px" y="0px" viewBox="-0.5500000000000002 -0.5500000000000004 2.4660227018922196 2.4660227018922196" style="enable-background:new -0.5500000000000002 -0.5500000000000004 2.4660227018922196 2.4660227018922196;" xml:space="preserve">
<style type="text/css">
  .no_fill_black_stroke {fill:none; stroke:#000000; stroke-width:0.02; stroke-miterlimit:10;}
  .face_text {fill:#000000; font-family:monospace;}
  .edge_text {fill:#ff0000; font-family:monospace;}
  .edge_bg {fill:#f3f3f3; stroke:#606060; stroke-width:0.02;}
</style>
<polygon class="no_fill_black_stroke" points="0.5000000000000001, -0.5 -0.5, -0.5000000000000001 -0.5000000000000001, 0.5 0.4999999999999999, 0.5000000000000001"/>
<polygon class="no_fill_black_stroke" points="0.4999998654051868, 0.4999999999999999 1.3660252691896257, 1.414100318299876e-16 0.49999986540518754, -0.5000000000000003"/>
<polygon class="no_fill_black_stroke" points="0.4999972981077806, 0.5000002981077805 0.9999972981077807, 1.3660257018922195 1.8660227018922193, 0.8660257018922193 1.3660227018922193, 2.981077805719323e-07"/>
<polygon class="no_fill_black_stroke" points="0.4999997018922193, 0.4999972981077805 -0.3660257018922193, 0.9999972981077804 0.13397429810778078, 1.8660227018922193 0.9999997018922194, 1.366022701892219"/>
<text class="face_text" text-anchor="middle" dominant-baseline="middle" transform="matrix(0.004932045403784439 0 0 0.004932045403784439 0.0 0.0)">0</text>
<text class="face_text" text-anchor="middle" dominant-baseline="middle" transform="matrix(0.004932045403784439 0 0 0.004932045403784439 0.788675 0.0)">3</text>
<text class="face_text" text-anchor="middle" dominant-baseline="middle" transform="matrix(0.004932045403784439 0 0 0.004932045403784439 1.18301 0.683013)">2</text>
<text class="face_text" text-anchor="middle" dominant-baseline="middle" transform="matrix(0.004932045403784439 0 0 0.004932045403784439 0.316987 1.18301)">1</text>
<rect class="edge_bg" x="0.45067941136734263" y="-0.04932045403784443" width="0.09864090807568879" height="0.09864090807568879"/>
<text class="edge_text" text-anchor="middle" dominant-baseline="middle" transform="matrix(0.004932045403784439 0 0 0.004932045403784439 0.49999986540518704 -3.535250795749691e-17)">0</text>
<rect class="edge_bg" x="0.8836895459621555" y="0.2006798440699361" width="0.09864090807568879" height="0.09864090807568879"/>
<text class="edge_text" text-anchor="middle" dominant-baseline="middle" transform="matrix(0.004932045403784439 0 0 0.004932045403784439 0.9330099999999999 0.2500002981077805)">3</text>
<rect class="edge_bg" x="0.7006792478543752" y="0.8836895459621555" width="0.09864090807568879" height="0.09864090807568879"/>
<text class="edge_text" text-anchor="middle" dominant-baseline="middle" transform="matrix(0.004932045403784439 0 0 0.004932045403784439 0.7499997018922195 0.9330099999999999)">1</text>
</svg>
