<?xml version="1.0" encoding="utf-8"?>
<svg version="1.1" id="layer_1" xmlns="http://www.w3.org/2000/svg" xmlns:xlink="http://www.w3.org/1999/xlink" x="0px" y="0px" viewBox="-0.6273502691896259 -0.55 1.9660252691896267 2.1" style="enable-background:new -0.6273502691896259 -0.55 1.9660252691896267 2.1;" xml:space="preserve">
<style type="text/css">
  .no_fill_black_stroke {fill:none; stroke:#000000; stroke-width:0.02; stroke-miterlimit:10;}
  .face_text {fill:#000000; font-family:monospace;}
  .edge_text {fill:#ff0000; font-family:monospace;}
  .edge_bg {fill:#f3f3f3; stroke:#606060; stroke-width:0.02;}
</style>
<polygon class="no_fill_black_stroke" points="0.288675134594813, -0.5 -0.5773502691896258, -7.07050159149938e-17 0.288675134594813, 0.5"/>
<polygon class="no_fill_black_stroke" points="0.2886749999999999, 0.5 1.288675, 0.5000000000000001 1.2886750000000007, -0.49999999999999944 0.2886749999999997, -0.4999999999999998"/>
<polygon class="no_fill_black_stroke" points="0.288675, 0.4999999999999999 0.2886749999999999, 1.5 1.288675, 1.5 1.2886750000000007, 0.5000000000000006"/>
<text class="face_text" text-anchor="middle" dominant-baseline="middle" transform="matrix(0.003932050538379254 0 0 0.003932050538379254 0.0 0.0)">3</text>
<text class="face_text" text-anchor="middle" dominant-baseline="middle" transform="matrix(0.003932050538379254 0 0 0.003932050538379254 0.788675 0.0)">0</text>
<text class="face_text" text-anchor="middle" dominant-baseline="middle" transform="matrix(0.003932050538379254 0 0 0.003932050538379254 0.788675 1.0)">4</text>
<rect class="edge_bg" x="0.24935449461620737" y="-0.0393205053837926" width="0.07864101076758508" height="0.07864101076758508"/>
<text class="edge_text" text-anchor="middle" dominant-baseline="middle" transform="matrix(0.003932050538379254 0 0 0.003932050538379254 0.2886749999999999 -6.123233995736767e-17)">0</text>
<rect class="edge_bg" x="0.7493544946162075" y="0.46067949461620733" width="0.07864101076758508" height="0.07864101076758508"/>
<text class="edge_text" text-anchor="middle" dominant-baseline="middle" transform="matrix(0.003932050538379254 0 0 0.003932050538379254 0.788675 0.4999999999999999)">5</text>
</svg>
