<?xml version="1.0" encoding="utf-8"?>
<svg version="1.1" id="layer_1" xmlns="http://www.w3.org/2000/svg" xmlns:xlink="http://www.w3.org/1999/xlink" x="0px" y="0px" viewBox="-2.127352701892219 -1.4160257018922195 3.46602770189222 1.9660257018922196" style="enable-background:new -2.127352701892219 -1.4160257018922195 3.46602770189222 1.9660257018922196;" xml:space="preserve">
<style type="text/css">
  .no_fill_black_stroke {fill:none; stroke:#000000; stroke-width:0.02; stroke-miterlimit:10;}
  .face_text {fill:#000000; font-family:monospace;}
  .edge_text {fill:#ff0000; font-family:monospace;}
  .edge_bg {fill:#f3f3f3; stroke:#606060; stroke-width:0.02;}
</style>
<polygon class="no_fill_black_stroke" points="0.288675134594813, -0.5 -0.5773502691896258, -7.07050159149938e-17 0.288675134594813, 0.5"/>
<polygon class="no_fill_black_stroke" points="0.2886749999999999, 0.5 1.288675, 0.5000000000000001 1.2886750000000007, -0.49999999999999944 0.2886749999999997, -0.4999999999999998"/>
<polygon class="no_fill_black_stroke" points="1.288675, -0.49999986540518715 0.788675, -1.3660252691896257 0.288675, -0.49999986540518704"/>
<polygon class="no_fill_black_stroke" points="0.7886750000000001, -1.366025134594813 -0.2113250000000001, -1.366025134594813 0.2886749999999999, -0.4999997308103742"/>
<polygon class="no_fill_black_stroke" points="-0.21132499999999999, -1.3660252691896257 -0.711325, -0.49999986540518704 0.2886749999999999, -0.4999998654051868"/>
<polygon class="no_fill_black_stroke" points="-0.21132499999999987, -1.366025134594813 -1.211325, -1.366025134594813 -0.7113250000000001, -0.4999997308103742"/>
<polygon class="no_fill_black_stroke" points="-1.2113272981077805, -1.3660257018922195 -2.0773527018922193, -0.8660257018922195 -1.577352701892219, -2.981077805719323e-07 -0.7113272981077805, -0.5000002981077807"/>
<polygon class="no_fill_black_stroke" points="-1.5773502691896257, -1.83998159149938e-17 -0.711324865405187, 0.5 -0.7113248654051872, -0.5000000000000001"/>
<text class="face_text" text-anchor="middle" dominant-baseline="middle" transform="matrix(0.00393205140378444 0 0 0.00393205140378444 0.0 0.0)">0</text>
<text class="face_text" text-anchor="middle" dominant-baseline="middle" transform="matrix(0.00393205140378444 0 0 0.00393205140378444 0.788675 0.0)">4</text>
<text class="face_text" text-anchor="middle" dominant-baseline="middle" transform="matrix(0.00393205140378444 0 0 0.00393205140378444 0.788675 -0.788675)">5</text>
<text class="face_text" text-anchor="middle" dominant-baseline="middle" transform="matrix(0.00393205140378444 0 0 0.00393205140378444 0.288675 -1.07735)">6</text>
<text class="face_text" text-anchor="middle" dominant-baseline="middle" transform="matrix(0.00393205140378444 0 0 0.00393205140378444 -0.211325 -0.788675)">7</text>
<text class="face_text" text-anchor="middle" dominant-baseline="middle" transform="matrix(0.00393205140378444 0 0 0.00393205140378444 -0.711325 -1.07735)">16</text>
<text class="face_text" text-anchor="middle" dominant-baseline="middle" transform="matrix(0.00393205140378444 0 0 0.00393205140378444 -1.39434 -0.683013)">13</text>
<text class="face_text" text-anchor="middle" dominant-baseline="middle" transform="matrix(0.00393205140378444 0 0 0.00393205140378444 -1.0 5.23052e-17)">1</text>
<rect class="edge_bg" x="0.2493544859621555" y="-0.03932051403784446" width="0.07864102807568879" height="0.07864102807568879"/>
<text class="edge_text" text-anchor="middle" dominant-baseline="middle" transform="matrix(0.00393205140378444 0 0 0.00393205140378444 0.2886749999999999 -6.123233995736767e-17)">0</text>
<rect class="edge_bg" x="0.7493544859621556" y="-0.5393203794430315" width="0.07864102807568879" height="0.07864102807568879"/>
<text class="edge_text" text-anchor="middle" dominant-baseline="middle" transform="matrix(0.00393205140378444 0 0 0.00393205140378444 0.788675 -0.49999986540518704)">5</text>
<rect class="edge_bg" x="0.4993544859621557" y="-0.972332946740438" width="0.07864102807568879" height="0.07864102807568879"/>
<text class="edge_text" text-anchor="middle" dominant-baseline="middle" transform="matrix(0.00393205140378444 0 0 0.00393205140378444 0.5386750000000001 -0.9330124327025936)">8</text>
<rect class="edge_bg" x="-0.000645514037844297" y="-0.9723330813352509" width="0.07864102807568879" height="0.07864102807568879"/>
<text class="edge_text" text-anchor="middle" dominant-baseline="middle" transform="matrix(0.00393205140378444 0 0 0.00393205140378444 0.0386750000000001 -0.9330125672974064)">7</text>
<rect class="edge_bg" x="-0.5006455140378443" y="-0.972332946740438" width="0.07864102807568879" height="0.07864102807568879"/>
<text class="edge_text" text-anchor="middle" dominant-baseline="middle" transform="matrix(0.00393205140378444 0 0 0.00393205140378444 -0.4613249999999999 -0.9330124327025936)">20</text>
<rect class="edge_bg" x="-1.0006478121456248" y="-0.9723335140378444" width="0.07864102807568879" height="0.07864102807568879"/>
<text class="edge_text" text-anchor="middle" dominant-baseline="middle" transform="matrix(0.00393205140378444 0 0 0.00393205140378444 -0.9613272981077805 -0.933013)">21</text>
<rect class="edge_bg" x="-1.1836580813352509" y="-0.2893205140378444" width="0.07864102807568879" height="0.07864102807568879"/>
<text class="edge_text" text-anchor="middle" dominant-baseline="middle" transform="matrix(0.00393205140378444 0 0 0.00393205140378444 -1.1443375672974065 -0.25000000000000006)">16</text>
</svg>
