<?xml version="1.0" encoding="utf-8"?>
<svg version="1.1" id="layer_1" xmlns="http://www.w3.org/2000/svg" xmlns:xlink="http://www.w3.org/1999/xlink" x="0px" y="0px" viewBox="-0.7613250000000001 -0.5500000000000004 2.4660257018922196 1.96602570189222" style="enable-background:new -0.7613250000000001 -0.5500000000000004 2.4660257018922196 1.96602570189222;" xml:space="preserve">
<style type="text/css">
  .no_fill_black_stroke {fill:none; stroke:#000000; stroke-width:0.02; stroke-miterlimit:10;}
  .face_text {fill:#000000; font-family:monospace;}
  .edge_text {fill:#ff0000; font-family:monospace;}
  .edge_bg {fill:#f3f3f3; stroke:#606060; stroke-width:0.02;}
</style>
<polygon class="no_fill_black_stroke" points="0.288675134594813, -0.5 -0.5773502691896258, -7.07050159149938e-17 0.288675134594813, 0.5"/>
<polygon class="no_fill_black_stroke" points="0.28867486540518683, 0.4999999999999999 1.1547002691896258, 1.414100318299876e-16 0.28867486540518755, -0.5000000000000003"/>
<polygon class="no_fill_black_stroke" points="0.2886752981077807, 0.5000002981077805 0.7886752981077807, 1.3660257018922195 1.6547007018922195, 0.8660257018922193 1.1547007018922193, 2.981077805719323e-07"/>
<polygon class="no_fill_black_stroke" points="0.28867500000000007, 0.4999997308103742 -0.21132499999999999, 1.3660251345948131 0.7886749999999999, 1.3660251345948131"/>
<polygon class="no_fill_black_stroke" points="0.2886750000000001, 0.49999986540518715 -0.7113250000000001, 0.49999986540518715 -0.21132500000000012, 1.3660252691896257"/>
<text class="face_text" text-anchor="middle" dominant-baseline="middle" transform="matrix(0.0039320514037844406 0 0 0.0039320514037844406 0.0 0.0)">0</text>
<text class="face_text" text-anchor="middle" dominant-baseline="middle" transform="matrix(0.0039320514037844406 0 0 0.0039320514037844406 0.57735 0.0)">1</text>
<text class="face_text" text-anchor="middle" dominant-baseline="middle" transform="matrix(0.0039320514037844406 0 0 0.0039320514037844406 0.971688 0.683013)">13</text>
<text class="face_text" text-anchor="middle" dominant-baseline="middle" transform="matrix(0.0039320514037844406 0 0 0.0039320514037844406 0.288675 1.07735)">16</text>
<text class="face_text" text-anchor="middle" dominant-baseline="middle" transform="matrix(0.0039320514037844406 0 0 0.0039320514037844406 -0.211325 0.788675)">7</text>
<rect class="edge_bg" x="0.24935435136734266" y="-0.03932051403784444" width="0.0786410280756888" height="0.0786410280756888"/>
<text class="edge_text" text-anchor="middle" dominant-baseline="middle" transform="matrix(0.0039320514037844406 0 0 0.0039320514037844406 0.28867486540518705 -3.535250795749691e-17)">3</text>
<rect class="edge_bg" x="0.6823674859621556" y="0.21067978406993612" width="0.0786410280756888" height="0.0786410280756888"/>
<text class="edge_text" text-anchor="middle" dominant-baseline="middle" transform="matrix(0.0039320514037844406 0 0 0.0039320514037844406 0.721688 0.2500002981077805)">16</text>
<rect class="edge_bg" x="0.4993544859621557" y="0.8936919186647492" width="0.0786410280756888" height="0.0786410280756888"/>
<text class="edge_text" text-anchor="middle" dominant-baseline="middle" transform="matrix(0.0039320514037844406 0 0 0.0039320514037844406 0.5386750000000001 0.9330124327025936)">21</text>
<rect class="edge_bg" x="-0.0006455140378443039" y="0.893692053259562" width="0.0786410280756888" height="0.0786410280756888"/>
<text class="edge_text" text-anchor="middle" dominant-baseline="middle" transform="matrix(0.0039320514037844406 0 0 0.0039320514037844406 0.0386750000000001 0.9330125672974064)">20</text>
</svg>
