<?xml version="1.0" encoding="utf-8"?>
<svg version="1.1" id="layer_1" xmlns="http://www.w3.org/2000/svg" xmlns:xlink="http://www.w3.org/1999/xlink" x="0px" y="0px" viewBox="-1.1273507018922193 -0.5500000000000004 2.8320514037844386 3.3320527018922195" style="enable-background:new -1.1273507018922193 -0.5500000000000004 2.8320514037844386 3.3320527018922195;" xml:space="preserve">
<style type="text/css">
  .no_fill_black_stroke {fill:none; stroke:#000000; stroke-width:0.02; stroke-miterlimit:10;}
  .face_text {fill:#000000; font-family:monospace;}
  .edge_text {fill:#ff0000; font-family:monospace;}
  .edge_bg {fill:#f3f3f3; stroke:#606060; stroke-width:0.02;}
</style>
<polygon class="no_fill_black_stroke" points="0.288675134594813, -0.5 -0.5773502691896258, -7.07050159149938e-17 0.288675134594813, 0.5"/>
<polygon class="no_fill_black_stroke" points="0.28867486540518683, 0.4999999999999999 1.1547002691896258, 1.414100318299876e-16 0.28867486540518755, -0.5000000000000003"/>
<polygon class="no_fill_black_stroke" points="0.2886752981077807, 0.5000002981077805 0.7886752981077807, 1.3660257018922195 1.6547007018922195, 0.8660257018922193 1.1547007018922193, 2.981077805719323e-07"/>
<polygon class="no_fill_black_stroke" points="0.28867500000000007, 0.4999997308103742 -0.21132499999999999, 1.3660251345948131 0.7886749999999999, 1.3660251345948131"/>
<polygon class="no_fill_black_stroke" points="-0.2113250000000001, 1.3660248654051872 0.2886749999999999, 2.232050269189626 0.7886750000000003, 1.3660248654051876"/>
<polygon class="no_fill_black_stroke" points="-0.2113252981077807, 1.3660272981077808 -1.0773507018922193, 1.8660272981077806 -0.5773507018922193, 2.7320527018922194 0.2886747018922194, 2.2320527018922194"/>
<polygon class="no_fill_black_stroke" points="-0.21132473081037417, 1.36603 -1.0773501345948129, 0.86603 -1.077350134594813, 1.8660299999999999"/>
<polygon class="no_fill_black_stroke" points="-0.21132486540518702, 1.366025 -0.21132486540518702, 0.36602500000000004 -1.0773502691896257, 0.8660249999999999"/>
<text class="face_text" text-anchor="middle" dominant-baseline="middle" transform="matrix(0.005664102807568877 0 0 0.005664102807568877 0.0 0.0)">1</text>
<text class="face_text" text-anchor="middle" dominant-baseline="middle" transform="matrix(0.005664102807568877 0 0 0.005664102807568877 0.57735 0.0)">0</text>
<text class="face_text" text-anchor="middle" dominant-baseline="middle" transform="matrix(0.005664102807568877 0 0 0.005664102807568877 0.971688 0.683013)">4</text>
<text class="face_text" text-anchor="middle" dominant-baseline="middle" transform="matrix(0.005664102807568877 0 0 0.005664102807568877 0.288675 1.07735)">3</text>
<text class="face_text" text-anchor="middle" dominant-baseline="middle" transform="matrix(0.005664102807568877 0 0 0.005664102807568877 0.288675 1.6547)">11</text>
<text class="face_text" text-anchor="middle" dominant-baseline="middle" transform="matrix(0.005664102807568877 0 0 0.005664102807568877 -0.394338 2.04904)">23</text>
<text class="face_text" text-anchor="middle" dominant-baseline="middle" transform="matrix(0.005664102807568877 0 0 0.005664102807568877 -0.788675 1.36603)">15</text>
<text class="face_text" text-anchor="middle" dominant-baseline="middle" transform="matrix(0.005664102807568877 0 0 0.005664102807568877 -0.5 0.866025)">2</text>
<rect class="edge_bg" x="0.23203383732949828" y="-0.056641028075688805" width="0.11328205615137754" height="0.11328205615137754"/>
<text class="edge_text" text-anchor="middle" dominant-baseline="middle" transform="matrix(0.005664102807568877 0 0 0.005664102807568877 0.28867486540518705 -3.535250795749691e-17)">3</text>
<rect class="edge_bg" x="0.6650469719243113" y="0.19335927003209175" width="0.11328205615137754" height="0.11328205615137754"/>
<text class="edge_text" text-anchor="middle" dominant-baseline="middle" transform="matrix(0.005664102807568877 0 0 0.005664102807568877 0.721688 0.2500002981077805)">0</text>
<rect class="edge_bg" x="0.48203397192431136" y="0.8763714046269049" width="0.11328205615137754" height="0.11328205615137754"/>
<text class="edge_text" text-anchor="middle" dominant-baseline="middle" transform="matrix(0.005664102807568877 0 0 0.005664102807568877 0.5386750000000001 0.9330124327025936)">1</text>
<rect class="edge_bg" x="0.23203397192431124" y="1.3093838373294981" width="0.11328205615137754" height="0.11328205615137754"/>
<text class="edge_text" text-anchor="middle" dominant-baseline="middle" transform="matrix(0.005664102807568877 0 0 0.005664102807568877 0.288675 1.366024865405187)">15</text>
<rect class="edge_bg" x="-0.017966326183469328" y="1.7423989719243114" width="0.11328205615137754" height="0.11328205615137754"/>
<text class="edge_text" text-anchor="middle" dominant-baseline="middle" transform="matrix(0.005664102807568877 0 0 0.005664102807568877 0.03867470189221944 1.7990400000000002)">32</text>
<rect class="edge_bg" x="-0.7009784607782823" y="1.5593889719243113" width="0.11328205615137754" height="0.11328205615137754"/>
<text class="edge_text" text-anchor="middle" dominant-baseline="middle" transform="matrix(0.005664102807568877 0 0 0.005664102807568877 -0.6443374327025935 1.61603)">35</text>
<rect class="edge_bg" x="-0.7009785953730951" y="1.0593839719243112" width="0.11328205615137754" height="0.11328205615137754"/>
<text class="edge_text" text-anchor="middle" dominant-baseline="middle" transform="matrix(0.005664102807568877 0 0 0.005664102807568877 -0.6443375672974064 1.116025)">17</text>
</svg>
