<?xml version="1.0" encoding="utf-8"?>
<svg version="1.1" id="layer_1" xmlns="http://www.w3.org/2000/svg" xmlns:xlink="http://www.w3.org/1999/xlink" x="0px" y="0px" viewBox="-1.6273551345948134 -1.55 2.832055403784439 2.1" style="enable-background:new -1.6273551345948134 -1.55 2.832055403784439 2.1;" xml:space="preserve">
<style type="text/css">
  .no_fill_black_stroke {fill:none; stroke:#000000; stroke-width:0.02; stroke-miterlimit:10;}
  .face_text {fill:#000000; font-family:monospace;}
  .edge_text {fill:#ff0000; font-family:monospace;}
  .edge_bg {fill:#f3f3f3; stroke:#606060; stroke-width:0.02;}
</style>
<polygon class="no_fill_black_stroke" points="0.288675134594813, -0.5 -0.5773502691896258, -7.07050159149938e-17 0.288675134594813, 0.5"/>
<polygon class="no_fill_black_stroke" points="0.28867486540518683, 0.4999999999999999 1.1547002691896258, 1.414100318299876e-16 0.28867486540518755, -0.5000000000000003"/>
<polygon class="no_fill_black_stroke" points="1.1547001345948131, 0.0 1.1547001345948131, -1.0 0.2886747308103742, -0.5000000000000001"/>
<polygon class="no_fill_black_stroke" points="1.1547002691896258, -1.0 0.2886748654051872, -1.5 0.28867486540518683, -0.5000000000000001"/>
<polygon class="no_fill_black_stroke" points="0.2886750000000001, -1.5 -0.711325, -1.5 -0.7113250000000001, -0.5 0.2886749999999999, -0.4999999999999999"/>
<polygon class="no_fill_black_stroke" points="-0.711324865405187, -1.5 -1.5773502691896257, -1.0 -0.711324865405187, -0.5"/>
<polygon class="no_fill_black_stroke" points="-1.577355134594813, -1.0 -1.5773551345948134, -1.1102230246251565e-16 -0.7113297308103742, -0.49999999999999983"/>
<polygon class="no_fill_black_stroke" points="-1.5773502691896257, 6.365398408500621e-17 -0.711324865405187, 0.5000000000000001 -0.7113248654051872, -0.5"/>
<text class="face_text" text-anchor="middle" dominant-baseline="middle" transform="matrix(0.004200000000000001 0 0 0.004200000000000001 0.0 0.0)">1</text>
<text class="face_text" text-anchor="middle" dominant-baseline="middle" transform="matrix(0.004200000000000001 0 0 0.004200000000000001 0.57735 0.0)">0</text>
<text class="face_text" text-anchor="middle" dominant-baseline="middle" transform="matrix(0.004200000000000001 0 0 0.004200000000000001 0.866025 -0.5)">7</text>
<text class="face_text" text-anchor="middle" dominant-baseline="middle" transform="matrix(0.004200000000000001 0 0 0.004200000000000001 0.57735 -1.0)">16</text>
<text class="face_text" text-anchor="middle" dominant-baseline="middle" transform="matrix(0.004200000000000001 0 0 0.004200000000000001 -0.211325 -1.0)">13</text>
<text class="face_text" text-anchor="middle" dominant-baseline="middle" transform="matrix(0.004200000000000001 0 0 0.004200000000000001 -1.0 -1.0)">14</text>
<text class="face_text" text-anchor="middle" dominant-baseline="middle" transform="matrix(0.004200000000000001 0 0 0.004200000000000001 -1.28868 -0.5)">15</text>
<text class="face_text" text-anchor="middle" dominant-baseline="middle" transform="matrix(0.004200000000000001 0 0 0.004200000000000001 -1.0 1.34359e-16)">2</text>
<rect class="edge_bg" x="0.24667486540518704" y="-0.04200000000000004" width="0.084" height="0.084"/>
<text class="edge_text" text-anchor="middle" dominant-baseline="middle" transform="matrix(0.004200000000000001 0 0 0.004200000000000001 0.28867486540518705 -3.535250795749691e-17)">3</text>
<rect class="edge_bg" x="0.6796874327025936" y="-0.29199999999999987" width="0.084" height="0.084"/>
<text class="edge_text" text-anchor="middle" dominant-baseline="middle" transform="matrix(0.004200000000000001 0 0 0.004200000000000001 0.7216874327025936 -0.2499999999999999)">6</text>
<rect class="edge_bg" x="0.6796875672974065" y="-0.792" width="0.084" height="0.084"/>
<text class="edge_text" text-anchor="middle" dominant-baseline="middle" transform="matrix(0.004200000000000001 0 0 0.004200000000000001 0.7216875672974066 -0.75)">20</text>
<rect class="edge_bg" x="0.24667500000000012" y="-1.042" width="0.084" height="0.084"/>
<text class="edge_text" text-anchor="middle" dominant-baseline="middle" transform="matrix(0.004200000000000001 0 0 0.004200000000000001 0.2886750000000001 -1.0)">21</text>
<rect class="edge_bg" x="-0.7533248654051871" y="-1.042" width="0.084" height="0.084"/>
<text class="edge_text" text-anchor="middle" dominant-baseline="middle" transform="matrix(0.004200000000000001 0 0 0.004200000000000001 -0.711324865405187 -1.0)">18</text>
<rect class="edge_bg" x="-1.1863424327025935" y="-0.792" width="0.084" height="0.084"/>
<text class="edge_text" text-anchor="middle" dominant-baseline="middle" transform="matrix(0.004200000000000001 0 0 0.004200000000000001 -1.1443424327025935 -0.75)">19</text>
<rect class="edge_bg" x="-1.1863375672974066" y="-0.292" width="0.084" height="0.084"/>
<text class="edge_text" text-anchor="middle" dominant-baseline="middle" transform="matrix(0.004200000000000001 0 0 0.004200000000000001 -1.1443375672974065 -0.24999999999999997)">17</text>
</svg>
