<?xml version="1.0" encoding="utf-8"?>
<svg version="1.1" id="layer_1" xmlns="http://www.w3.org/2000/svg" xmlns:xlink="http://www.w3.org/1999/xlink" x="0px" y="0px" viewBox="-0.6273502691896259 -0.5500000000000004 1.8320505383792516 2.1000000000000005" style="enable-background:new -0.6273502691896259 -0.5500000000000004 1.8320505383792516 2.1000000000000005;" xml:space="preserve">
<style type="text/css">
  .no_fill_black_stroke {fill:none; stroke:#000000; stroke-width:0.02; stroke-miterlimit:10;}
  .face_text {fill:#000000; font-family:monospace;}
  .edge_text {fill:#ff0000; font-family:monospace;}
  .edge_bg {fill:#f3f3f3; stroke:#606060; stroke-width:0.02;}
</style>
<polygon class="no_fill_black_stroke" points="0.288675134594813, -0.5 -0.5773502691896258, -7.07050159149938e-17 0.288675134594813, 0.5"/>
<polygon class="no_fill_black_stroke" points="0.28867486540518683, 0.4999999999999999 1.1547002691896258, 1.414100318299876e-16 0.28867486540518755, -0.5000000000000003"/>
<polygon class="no_fill_black_stroke" points="0.2886747308103742, 0.49999999999999994 1.1547001345948131, 1.0 1.1547001345948127, -1.1102230246251565e-16"/>
<polygon class="no_fill_black_stroke" points="0.2886748654051872, 0.4999999999999999 0.28867486540518683, 1.5 1.1547002691896258, 1.0000000000000002"/>
<text class="face_text" text-anchor="middle" dominant-baseline="middle" transform="matrix(0.003664101076758503 0 0 0.003664101076758503 0.0 0.0)">1</text>
<text class="face_text" text-anchor="middle" dominant-baseline="middle" transform="matrix(0.003664101076758503 0 0 0.003664101076758503 0.57735 0.0)">2</text>
<text class="face_text" text-anchor="middle" dominant-baseline="middle" transform="matrix(0.003664101076758503 0 0 0.003664101076758503 0.866025 0.5)">15</text>
<text class="face_text" text-anchor="middle" dominant-baseline="middle" transform="matrix(0.003664101076758503 0 0 0.003664101076758503 0.57735 1.0)">14</text>
<rect class="edge_bg" x="0.25203385463760203" y="-0.03664101076758507" width="0.07328202153517006" height="0.07328202153517006"/>
<text class="edge_text" text-anchor="middle" dominant-baseline="middle" transform="matrix(0.003664101076758503 0 0 0.003664101076758503 0.28867486540518705 -3.535250795749691e-17)">2</text>
<rect class="edge_bg" x="0.6850464219350085" y="0.21335898923241486" width="0.07328202153517006" height="0.07328202153517006"/>
<text class="edge_text" text-anchor="middle" dominant-baseline="middle" transform="matrix(0.003664101076758503 0 0 0.003664101076758503 0.7216874327025936 0.2499999999999999)">17</text>
<rect class="edge_bg" x="0.6850465565298215" y="0.7133589892324149" width="0.07328202153517006" height="0.07328202153517006"/>
<text class="edge_text" text-anchor="middle" dominant-baseline="middle" transform="matrix(0.003664101076758503 0 0 0.003664101076758503 0.7216875672974066 0.75)">19</text>
</svg>
