<?xml version="1.0" encoding="utf-8"?>
<svg version="1.1" id="layer_1" xmlns="http://www.w3.org/2000/svg" xmlns:xlink="http://www.w3.org/1999/xlink" x="0px" y="0px" viewBox="-0.761325 -1.9160227018922193 1.9660257018922196 2.4660227018922196" style="enable-background:new -0.761325 -1.9160227018922193 1.9660257018922196 2.4660227018922196;" xml:space="preserve">
<style type="text/css">
  .no_fill_black_stroke {fill:none; stroke:#000000; stroke-width:0.02; stroke-miterlimit:10;}
  .face_text {fill:#000000; font-family:monospace;}
  .edge_text {fill:#ff0000; font-family:monospace;}
  .edge_bg {fill:#f3f3f3; stroke:#606060; stroke-width:0.02;}
</style>
<polygon class="no_fill_black_stroke" points="0.288675134594813, -0.5 -0.5773502691896258, -7.07050159149938e-17 0.288675134594813, 0.5"/>
<polygon class="no_fill_black_stroke" points="0.28867486540518683, 0.4999999999999999 1.1547002691896258, 1.414100318299876e-16 0.28867486540518755, -0.5000000000000003"/>
<polygon class="no_fill_black_stroke" points="1.1547001345948131, 0.0 1.1547001345948131, -1.0 0.2886747308103742, -0.5000000000000001"/>
<polygon class="no_fill_black_stroke" points="1.1547007018922195, -0.9999972981077806 0.6547007018922193, -1.8660227018922193 -0.2113247018922193, -1.3660227018922195 0.28867529810778075, -0.4999972981077805"/>
<polygon class="no_fill_black_stroke" points="-0.21132499999999999, -1.3660252691896257 -0.711325, -0.49999986540518704 0.2886749999999999, -0.4999998654051868"/>
<text class="face_text" text-anchor="middle" dominant-baseline="middle" transform="matrix(0.00393205140378444 0 0 0.00393205140378444 0.0 0.0)">1</text>
<text class="face_text" text-anchor="middle" dominant-baseline="middle" transform="matrix(0.00393205140378444 0 0 0.00393205140378444 0.57735 0.0)">2</text>
<text class="face_text" text-anchor="middle" dominant-baseline="middle" transform="matrix(0.00393205140378444 0 0 0.00393205140378444 0.866025 -0.5)">3</text>
<text class="face_text" text-anchor="middle" dominant-baseline="middle" transform="matrix(0.00393205140378444 0 0 0.00393205140378444 0.471688 -1.18301)">4</text>
<text class="face_text" text-anchor="middle" dominant-baseline="middle" transform="matrix(0.00393205140378444 0 0 0.00393205140378444 -0.211325 -0.788675)">0</text>
<rect class="edge_bg" x="0.24935435136734266" y="-0.03932051403784443" width="0.07864102807568879" height="0.07864102807568879"/>
<text class="edge_text" text-anchor="middle" dominant-baseline="middle" transform="matrix(0.00393205140378444 0 0 0.00393205140378444 0.28867486540518705 -3.535250795749691e-17)">2</text>
<rect class="edge_bg" x="0.6823669186647492" y="-0.2893205140378443" width="0.07864102807568879" height="0.07864102807568879"/>
<text class="edge_text" text-anchor="middle" dominant-baseline="middle" transform="matrix(0.00393205140378444 0 0 0.00393205140378444 0.7216874327025936 -0.2499999999999999)">4</text>
<rect class="edge_bg" x="0.6823674859621557" y="-0.7893178121456249" width="0.07864102807568879" height="0.07864102807568879"/>
<text class="edge_text" text-anchor="middle" dominant-baseline="middle" transform="matrix(0.00393205140378444 0 0 0.00393205140378444 0.7216880000000001 -0.7499972981077805)">1</text>
<rect class="edge_bg" x="-0.000645514037844297" y="-0.9723330813352509" width="0.07864102807568879" height="0.07864102807568879"/>
<text class="edge_text" text-anchor="middle" dominant-baseline="middle" transform="matrix(0.00393205140378444 0 0 0.00393205140378444 0.0386750000000001 -0.9330125672974064)">0</text>
</svg>
