<?xml version="1.0" encoding="utf-8"?>
<svg version="1.1" id="layer_1" xmlns="http://www.w3.org/2000/svg" xmlns:xlink="http://www.w3.org/1999/xlink" x="0px" y="0px" viewBox="-2.62735 -0.9160252691896259 3.8320507018922196 2.832047971081845" style="enable-background:new -2.62735 -0.9160252691896259 3.8320507018922196 2.832047971081845;" xml:space="preserve">
<style type="text/css">
  .no_fill_black_stroke {fill:none; stroke:#000000; stroke-width:0.02; stroke-miterlimit:10;}
  .face_text {fill:#000000; font-family:monospace;}
  .edge_text {fill:#ff0000; font-family:monospace;}
  .edge_bg {fill:#f3f3f3; stroke:#606060; stroke-width:0.02;}
</style>
<polygon class="no_fill_black_stroke" points="0.288675134594813, -0.5 -0.5773502691896258, -7.07050159149938e-17 0.288675134594813, 0.5"/>
<polygon class="no_fill_black_stroke" points="0.28867486540518683, 0.4999999999999999 1.1547002691896258, 1.414100318299876e-16 0.28867486540518755, -0.5000000000000003"/>
<polygon class="no_fill_black_stroke" points="0.2886747308103742, 0.49999999999999994 1.1547001345948131, 1.0 1.1547001345948127, -1.1102230246251565e-16"/>
<polygon class="no_fill_black_stroke" points="0.2886752981077806, 0.4999972981077805 -0.21132470189221952, 1.3660227018922189 0.6547007018922196, 1.866022701892219 1.1547007018922195, 0.9999972981077809"/>
<polygon class="no_fill_black_stroke" points="0.2886750000000001, 0.49999986540518715 -0.7113250000000001, 0.49999986540518715 -0.21132500000000012, 1.3660252691896257"/>
<polygon class="no_fill_black_stroke" points="-0.711325, 0.4999997308103742 -1.211325, 1.3660251345948131 -0.2113250000000001, 1.3660251345948131"/>
<polygon class="no_fill_black_stroke" points="-0.7113272981077805, 0.5000002981077807 -1.5773527018922193, 2.981077805719323e-07 -2.0773527018922193, 0.8660257018922191 -1.2113272981077803, 1.3660257018922193"/>
<polygon class="no_fill_black_stroke" points="-1.57735, -1.3459481285060804e-07 -2.57735, -1.3459481285060804e-07 -2.07735, 0.8660252691896259"/>
<polygon class="no_fill_black_stroke" points="-1.57735, 1.3459481285060804e-07 -2.07735, -0.8660252691896259 -2.57735, 1.3459481296163034e-07"/>
<polygon class="no_fill_black_stroke" points="-1.57735, 2.691896258122384e-07 -1.07735, -0.8660251345948129 -2.07735, -0.8660251345948129"/>
<polygon class="no_fill_black_stroke" points="-1.57735, 1.3459481296163034e-07 -0.5773500000000001, 1.3459481318367494e-07 -1.0773499999999998, -0.8660252691896259"/>
<text class="face_text" text-anchor="middle" dominant-baseline="middle" transform="matrix(0.00566409594216369 0 0 0.00566409594216369 0.0 0.0)">2</text>
<text class="face_text" text-anchor="middle" dominant-baseline="middle" transform="matrix(0.00566409594216369 0 0 0.00566409594216369 0.57735 0.0)">1</text>
<text class="face_text" text-anchor="middle" dominant-baseline="middle" transform="matrix(0.00566409594216369 0 0 0.00566409594216369 0.866025 0.5)">0</text>
<text class="face_text" text-anchor="middle" dominant-baseline="middle" transform="matrix(0.00566409594216369 0 0 0.00566409594216369 0.471688 1.18301)">4</text>
<text class="face_text" text-anchor="middle" dominant-baseline="middle" transform="matrix(0.00566409594216369 0 0 0.00566409594216369 -0.211325 0.788675)">3</text>
<text class="face_text" text-anchor="middle" dominant-baseline="middle" transform="matrix(0.00566409594216369 0 0 0.00566409594216369 -0.711325 1.07735)">11</text>
<text class="face_text" text-anchor="middle" dominant-baseline="middle" transform="matrix(0.00566409594216369 0 0 0.00566409594216369 -1.39434 0.683013)">23</text>
<text class="face_text" text-anchor="middle" dominant-baseline="middle" transform="matrix(0.00566409594216369 0 0 0.00566409594216369 -2.07735 0.288675)">35</text>
<text class="face_text" text-anchor="middle" dominant-baseline="middle" transform="matrix(0.00566409594216369 0 0 0.00566409594216369 -2.07735 -0.288675)">27</text>
<text class="face_text" text-anchor="middle" dominant-baseline="middle" transform="matrix(0.00566409594216369 0 0 0.00566409594216369 -1.57735 -0.57735)">14</text>
<text class="face_text" text-anchor="middle" dominant-baseline="middle" transform="matrix(0.00566409594216369 0 0 0.00566409594216369 -1.07735 -0.288675)">15</text>
<rect class="edge_bg" x="0.23203390598355017" y="-0.05664095942163693" width="0.1132819188432738" height="0.1132819188432738"/>
<text class="edge_text" text-anchor="middle" dominant-baseline="middle" transform="matrix(0.00566409594216369 0 0 0.00566409594216369 0.28867486540518705 -3.535250795749691e-17)">2</text>
<rect class="edge_bg" x="0.6650464732809567" y="0.193359040578363" width="0.1132819188432738" height="0.1132819188432738"/>
<text class="edge_text" text-anchor="middle" dominant-baseline="middle" transform="matrix(0.00566409594216369 0 0 0.00566409594216369 0.7216874327025936 0.2499999999999999)">3</text>
<rect class="edge_bg" x="0.6650470405783632" y="0.6933563386861435" width="0.1132819188432738" height="0.1132819188432738"/>
<text class="edge_text" text-anchor="middle" dominant-baseline="middle" transform="matrix(0.00566409594216369 0 0 0.00566409594216369 0.7216880000000001 0.7499972981077805)">0</text>
<rect class="edge_bg" x="-0.0179659594216368" y="0.8763716078757695" width="0.1132819188432738" height="0.1132819188432738"/>
<text class="edge_text" text-anchor="middle" dominant-baseline="middle" transform="matrix(0.00566409594216369 0 0 0.00566409594216369 0.0386750000000001 0.9330125672974064)">1</text>
<rect class="edge_bg" x="-0.5179659594216368" y="0.8763714732809567" width="0.1132819188432738" height="0.1132819188432738"/>
<text class="edge_text" text-anchor="middle" dominant-baseline="middle" transform="matrix(0.00566409594216369 0 0 0.00566409594216369 -0.4613249999999999 0.9330124327025936)">15</text>
<rect class="edge_bg" x="-1.0179682575294173" y="0.876372040578363" width="0.1132819188432738" height="0.1132819188432738"/>
<text class="edge_text" text-anchor="middle" dominant-baseline="middle" transform="matrix(0.00566409594216369 0 0 0.00566409594216369 -0.9613272981077805 0.933013)">32</text>
<rect class="edge_bg" x="-1.8839909594216369" y="0.37637160787576956" width="0.1132819188432738" height="0.1132819188432738"/>
<text class="edge_text" text-anchor="middle" dominant-baseline="middle" transform="matrix(0.00566409594216369 0 0 0.00566409594216369 -1.82735 0.43301256729740645)">52</text>
<rect class="edge_bg" x="-2.133990959421637" y="-0.056640824826823935" width="0.1132819188432738" height="0.1132819188432738"/>
<text class="edge_text" text-anchor="middle" dominant-baseline="middle" transform="matrix(0.00566409594216369 0 0 0.00566409594216369 -2.07735 1.3459481296163034e-07)">55</text>
<rect class="edge_bg" x="-1.8839909594216369" y="-0.4896533921242305" width="0.1132819188432738" height="0.1132819188432738"/>
<text class="edge_text" text-anchor="middle" dominant-baseline="middle" transform="matrix(0.00566409594216369 0 0 0.00566409594216369 -1.82735 -0.4330124327025936)">37</text>
<rect class="edge_bg" x="-1.3839909594216369" y="-0.48965352671904333" width="0.1132819188432738" height="0.1132819188432738"/>
<text class="edge_text" text-anchor="middle" dominant-baseline="middle" transform="matrix(0.00566409594216369 0 0 0.00566409594216369 -1.32735 -0.43301256729740645)">19</text>
</svg>
