<?xml version="1.0" encoding="utf-8"?>
<svg version="1.1" id="layer_1" xmlns="http://www.w3.org/2000/svg" xmlns:xlink="http://www.w3.org/1999/xlink" x="0px" y="0px" viewBox="-1.1273502691896258 -0.5500000000000004 2.3320509710818453 2.9660300000000004" style="enable-background:new -1.1273502691896258 -0.5500000000000004 2.3320509710818453 2.9660300000000004;" xml:space="preserve">
<style type="text/css">
  .no_fill_black_stroke {fill:none; stroke:#000000; stroke-width:0.02; stroke-miterlimit:10;}
  .face_text {fill:#000000; font-family:monospace;}
  .edge_text {fill:#ff0000; font-family:monospace;}
  .edge_bg {fill:#f3f3f3; stroke:#606060; stroke-width:0.02;}
</style>
<polygon class="no_fill_black_stroke" points="0.288675134594813, -0.5 -0.5773502691896258, -7.07050159149938e-17 0.288675134594813, 0.5"/>
<polygon class="no_fill_black_stroke" points="0.28867486540518683, 0.4999999999999999 1.1547002691896258, 1.414100318299876e-16 0.28867486540518755, -0.5000000000000003"/>
<polygon class="no_fill_black_stroke" points="0.2886747308103742, 0.49999999999999994 1.1547001345948131, 1.0 1.1547001345948127, -1.1102230246251565e-16"/>
<polygon class="no_fill_black_stroke" points="0.2886752981077806, 0.4999972981077805 -0.21132470189221952, 1.3660227018922189 0.6547007018922196, 1.866022701892219 1.1547007018922195, 0.9999972981077809"/>
<polygon class="no_fill_black_stroke" points="-0.21132483459481283, 1.3660299999999999 -0.21132483459481322, 2.36603 0.6547005691896258, 1.8660300000000003"/>
<polygon class="no_fill_black_stroke" points="-0.21132486540518702, 1.36603 -1.0773502691896257, 1.86603 -0.21132486540518702, 2.3660300000000003"/>
<polygon class="no_fill_black_stroke" points="-0.21132473081037417, 1.36603 -1.0773501345948129, 0.86603 -1.077350134594813, 1.8660299999999999"/>
<polygon class="no_fill_black_stroke" points="-0.21132486540518702, 1.366025 -0.21132486540518702, 0.36602500000000004 -1.0773502691896257, 0.8660249999999999"/>
<text class="face_text" text-anchor="middle" dominant-baseline="middle" transform="matrix(0.004664101942163691 0 0 0.004664101942163691 0.0 0.0)">2</text>
<text class="face_text" text-anchor="middle" dominant-baseline="middle" transform="matrix(0.004664101942163691 0 0 0.004664101942163691 0.57735 0.0)">3</text>
<text class="face_text" text-anchor="middle" dominant-baseline="middle" transform="matrix(0.004664101942163691 0 0 0.004664101942163691 0.866025 0.5)">11</text>
<text class="face_text" text-anchor="middle" dominant-baseline="middle" transform="matrix(0.004664101942163691 0 0 0.004664101942163691 0.471688 1.18301)">23</text>
<text class="face_text" text-anchor="middle" dominant-baseline="middle" transform="matrix(0.004664101942163691 0 0 0.004664101942163691 0.0773503 1.86603)">35</text>
<text class="face_text" text-anchor="middle" dominant-baseline="middle" transform="matrix(0.004664101942163691 0 0 0.004664101942163691 -0.5 1.86603)">27</text>
<text class="face_text" text-anchor="middle" dominant-baseline="middle" transform="matrix(0.004664101942163691 0 0 0.004664101942163691 -0.788675 1.36603)">14</text>
<text class="face_text" text-anchor="middle" dominant-baseline="middle" transform="matrix(0.004664101942163691 0 0 0.004664101942163691 -0.5 0.866025)">15</text>
<rect class="edge_bg" x="0.24203384598355016" y="-0.04664101942163694" width="0.09328203884327381" height="0.09328203884327381"/>
<text class="edge_text" text-anchor="middle" dominant-baseline="middle" transform="matrix(0.004664101942163691 0 0 0.004664101942163691 0.28867486540518705 -3.535250795749691e-17)">4</text>
<rect class="edge_bg" x="0.6750464132809567" y="0.203358980578363" width="0.09328203884327381" height="0.09328203884327381"/>
<text class="edge_text" text-anchor="middle" dominant-baseline="middle" transform="matrix(0.004664101942163691 0 0 0.004664101942163691 0.7216874327025936 0.2499999999999999)">15</text>
<rect class="edge_bg" x="0.6750469805783632" y="0.7033562786861436" width="0.09328203884327381" height="0.09328203884327381"/>
<text class="edge_text" text-anchor="middle" dominant-baseline="middle" transform="matrix(0.004664101942163691 0 0 0.004664101942163691 0.7216880000000001 0.7499972981077805)">32</text>
<rect class="edge_bg" x="0.17504684787576963" y="1.5693889805783632" width="0.09328203884327381" height="0.09328203884327381"/>
<text class="edge_text" text-anchor="middle" dominant-baseline="middle" transform="matrix(0.004664101942163691 0 0 0.004664101942163691 0.22168786729740653 1.61603)">52</text>
<rect class="edge_bg" x="-0.2579658848268239" y="1.8193889805783632" width="0.09328203884327381" height="0.09328203884327381"/>
<text class="edge_text" text-anchor="middle" dominant-baseline="middle" transform="matrix(0.004664101942163691 0 0 0.004664101942163691 -0.21132486540518702 1.86603)">55</text>
<rect class="edge_bg" x="-0.6909784521242304" y="1.5693889805783632" width="0.09328203884327381" height="0.09328203884327381"/>
<text class="edge_text" text-anchor="middle" dominant-baseline="middle" transform="matrix(0.004664101942163691 0 0 0.004664101942163691 -0.6443374327025935 1.61603)">37</text>
<rect class="edge_bg" x="-0.6909785867190433" y="1.0693839805783631" width="0.09328203884327381" height="0.09328203884327381"/>
<text class="edge_text" text-anchor="middle" dominant-baseline="middle" transform="matrix(0.004664101942163691 0 0 0.004664101942163691 -0.6443375672974064 1.116025)">19</text>
</svg>
