<?xml version="1.0" encoding="utf-8"?>
<svg version="1.1" id="layer_1" xmlns="http://www.w3.org/2000/svg" xmlns:xlink="http://www.w3.org/1999/xlink" x="0px" y="0px" viewBox="-1.6273507018922193 -2.282055134594813 3.3320514037844386 2.832055134594813" style="enable-background:new -1.6273507018922193 -2.282055134594813 3.3320514037844386 2.832055134594813;" xml:space="preserve">
<style type="text/css">
  .no_fill_black_stroke {fill:none; stroke:#000000; stroke-width:0.02; stroke-miterlimit:10;}
  .face_text {fill:#000000; font-family:monospace;}
  .edge_text {fill:#ff0000; font-family:monospace;}
  .edge_bg {fill:#f3f3f3; stroke:#606060; stroke-width:0.02;}
</style>
<polygon class="no_fill_black_stroke" points="0.288675134594813, -0.5 -0.5773502691896258, -7.07050159149938e-17 0.288675134594813, 0.5"/>
<polygon class="no_fill_black_stroke" points="0.28867486540518683, 0.4999999999999999 1.1547002691896258, 1.414100318299876e-16 0.28867486540518755, -0.5000000000000003"/>
<polygon class="no_fill_black_stroke" points="1.1547007018922193, -2.981077805719323e-07 1.6547007018922195, -0.8660257018922193 0.7886752981077806, -1.3660257018922195 0.2886752981077805, -0.5000002981077809"/>
<polygon class="no_fill_black_stroke" points="0.7886750000000001, -1.366025134594813 -0.2113250000000001, -1.366025134594813 0.2886749999999999, -0.4999997308103742"/>
<polygon class="no_fill_black_stroke" points="0.7886750000000001, -1.3660248654051872 0.28867500000000007, -2.232050269189626 -0.21132499999999999, -1.366024865405187"/>
<polygon class="no_fill_black_stroke" points="0.2886750000000001, -2.232055134594813 -0.7113250000000001, -2.232055134594813 -0.21132500000000012, -1.3660297308103742"/>
<polygon class="no_fill_black_stroke" points="-0.7113252981077807, -2.2320527018922194 -1.5773507018922193, -1.7320527018922194 -1.0773507018922193, -0.8660272981077806 -0.21132529810778056, -1.3660272981077808"/>
<polygon class="no_fill_black_stroke" points="-1.0773502691896257, -0.8660250000000002 -0.21132486540518702, -0.36602500000000004 -0.21132486540518725, -1.366025"/>
<text class="face_text" text-anchor="middle" dominant-baseline="middle" transform="matrix(0.005664110269189626 0 0 0.005664110269189626 0.0 0.0)">2</text>
<text class="face_text" text-anchor="middle" dominant-baseline="middle" transform="matrix(0.005664110269189626 0 0 0.005664110269189626 0.57735 0.0)">3</text>
<text class="face_text" text-anchor="middle" dominant-baseline="middle" transform="matrix(0.005664110269189626 0 0 0.005664110269189626 0.971688 -0.683013)">4</text>
<text class="face_text" text-anchor="middle" dominant-baseline="middle" transform="matrix(0.005664110269189626 0 0 0.005664110269189626 0.288675 -1.07735)">0</text>
<text class="face_text" text-anchor="middle" dominant-baseline="middle" transform="matrix(0.005664110269189626 0 0 0.005664110269189626 0.288675 -1.6547)">7</text>
<text class="face_text" text-anchor="middle" dominant-baseline="middle" transform="matrix(0.005664110269189626 0 0 0.005664110269189626 -0.211325 -1.94338)">16</text>
<text class="face_text" text-anchor="middle" dominant-baseline="middle" transform="matrix(0.005664110269189626 0 0 0.005664110269189626 -0.894338 -1.54904)">13</text>
<text class="face_text" text-anchor="middle" dominant-baseline="middle" transform="matrix(0.005664110269189626 0 0 0.005664110269189626 -0.5 -0.866025)">1</text>
<rect class="edge_bg" x="0.2320337627132908" y="-0.056641102691896296" width="0.11328220538379252" height="0.11328220538379252"/>
<text class="edge_text" text-anchor="middle" dominant-baseline="middle" transform="matrix(0.005664110269189626 0 0 0.005664110269189626 0.28867486540518705 -3.535250795749691e-17)">4</text>
<rect class="edge_bg" x="0.6650468973081037" y="-0.3066414007996768" width="0.11328220538379252" height="0.11328220538379252"/>
<text class="edge_text" text-anchor="middle" dominant-baseline="middle" transform="matrix(0.005664110269189626 0 0 0.005664110269189626 0.721688 -0.2500002981077805)">1</text>
<rect class="edge_bg" x="0.48203389730810386" y="-0.9896535353944899" width="0.11328220538379252" height="0.11328220538379252"/>
<text class="edge_text" text-anchor="middle" dominant-baseline="middle" transform="matrix(0.005664110269189626 0 0 0.005664110269189626 0.5386750000000001 -0.9330124327025936)">0</text>
<rect class="edge_bg" x="0.23203389730810375" y="-1.4226659680970832" width="0.11328220538379252" height="0.11328220538379252"/>
<text class="edge_text" text-anchor="middle" dominant-baseline="middle" transform="matrix(0.005664110269189626 0 0 0.005664110269189626 0.288675 -1.366024865405187)">6</text>
<rect class="edge_bg" x="-0.017966102691896163" y="-1.8556835353944898" width="0.11328220538379252" height="0.11328220538379252"/>
<text class="edge_text" text-anchor="middle" dominant-baseline="middle" transform="matrix(0.005664110269189626 0 0 0.005664110269189626 0.0386750000000001 -1.7990424327025936)">20</text>
<rect class="edge_bg" x="-0.5179664007996767" y="-1.8556811026918962" width="0.11328220538379252" height="0.11328220538379252"/>
<text class="edge_text" text-anchor="middle" dominant-baseline="middle" transform="matrix(0.005664110269189626 0 0 0.005664110269189626 -0.4613252981077805 -1.79904)">21</text>
<rect class="edge_bg" x="-0.7009786699893027" y="-1.1726661026918963" width="0.11328220538379252" height="0.11328220538379252"/>
<text class="edge_text" text-anchor="middle" dominant-baseline="middle" transform="matrix(0.005664110269189626 0 0 0.005664110269189626 -0.6443375672974064 -1.116025)">16</text>
</svg>
