<?xml version="1.0" encoding="utf-8"?>
<svg version="1.1" id="layer_1" xmlns="http://www.w3.org/2000/svg" xmlns:xlink="http://www.w3.org/1999/xlink" x="0px" y="0px" viewBox="-2.493380269189626 -1.9160227018922193 4.198080971081845 3.332048403784439" style="enable-background:new -2.493380269189626 -1.9160227018922193 4.198080971081845 3.332048403784439;" xml:space="preserve">
<style type="text/css">
  .no_fill_black_stroke {fill:none; stroke:#000000; stroke-width:0.02; stroke-miterlimit:10;}
  .face_text {fill:#000000; font-family:monospace;}
  .edge_text {fill:#ff0000; font-family:monospace;}
  .edge_bg {fill:#f3f3f3; stroke:#606060; stroke-width:0.02;}
</style>
<polygon class="no_fill_black_stroke" points="0.288675134594813, -0.5 -0.5773502691896258, -7.07050159149938e-17 0.288675134594813, 0.5"/>
<polygon class="no_fill_black_stroke" points="0.28867486540518683, 0.4999999999999999 1.1547002691896258, 1.414100318299876e-16 0.28867486540518755, -0.5000000000000003"/>
<polygon class="no_fill_black_stroke" points="1.1547007018922193, -2.981077805719323e-07 1.6547007018922195, -0.8660257018922193 0.7886752981077806, -1.3660257018922195 0.2886752981077805, -0.5000002981077809"/>
<polygon class="no_fill_black_stroke" points="0.7886750000000001, -1.366025134594813 -0.2113250000000001, -1.366025134594813 0.2886749999999999, -0.4999997308103742"/>
<polygon class="no_fill_black_stroke" points="-0.21132499999999999, -1.3660252691896257 -0.711325, -0.49999986540518704 0.2886749999999999, -0.4999998654051868"/>
<polygon class="no_fill_black_stroke" points="-0.21132529810778056, -1.3660227018922193 -1.0773507018922195, -1.8660227018922193 -1.5773507018922195, -0.9999972981077808 -0.7113252981077803, -0.4999972981077806"/>
<polygon class="no_fill_black_stroke" points="-1.577355134594813, -1.0 -1.5773551345948134, -1.1102230246251565e-16 -0.7113297308103742, -0.49999999999999983"/>
<polygon class="no_fill_black_stroke" points="-1.5773548654051872, -1.0 -2.443380269189626, -0.5000000000000001 -1.5773548654051872, 0.0"/>
<polygon class="no_fill_black_stroke" points="-2.4433751345948127, -0.4999999999999998 -2.443375134594813, 0.5000000000000002 -1.5773497308103743, 4.508900318299876e-16"/>
<polygon class="no_fill_black_stroke" points="-2.443372701892219, 0.5000002981077805 -1.9433727018922191, 1.3660257018922195 -1.0773472981077805, 0.8660257018922193 -1.5773472981077805, 2.981077805719323e-07"/>
<polygon class="no_fill_black_stroke" points="-1.07735, 0.8660252691896259 -0.5773499999999999, -1.3459481285060804e-07 -1.57735, -1.3459481285060804e-07"/>
<text class="face_text" text-anchor="middle" dominant-baseline="middle" transform="matrix(0.0066640968075688785 0 0 0.0066640968075688785 0.0 0.0)">2</text>
<text class="face_text" text-anchor="middle" dominant-baseline="middle" transform="matrix(0.0066640968075688785 0 0 0.0066640968075688785 0.57735 0.0)">3</text>
<text class="face_text" text-anchor="middle" dominant-baseline="middle" transform="matrix(0.0066640968075688785 0 0 0.0066640968075688785 0.971688 -0.683013)">4</text>
<text class="face_text" text-anchor="middle" dominant-baseline="middle" transform="matrix(0.0066640968075688785 0 0 0.0066640968075688785 0.288675 -1.07735)">0</text>
<text class="face_text" text-anchor="middle" dominant-baseline="middle" transform="matrix(0.0066640968075688785 0 0 0.0066640968075688785 -0.211325 -0.788675)">1</text>
<text class="face_text" text-anchor="middle" dominant-baseline="middle" transform="matrix(0.0066640968075688785 0 0 0.0066640968075688785 -0.894338 -1.18301)">13</text>
<text class="face_text" text-anchor="middle" dominant-baseline="middle" transform="matrix(0.0066640968075688785 0 0 0.0066640968075688785 -1.28868 -0.5)">14</text>
<text class="face_text" text-anchor="middle" dominant-baseline="middle" transform="matrix(0.0066640968075688785 0 0 0.0066640968075688785 -1.86603 -0.5)">27</text>
<text class="face_text" text-anchor="middle" dominant-baseline="middle" transform="matrix(0.0066640968075688785 0 0 0.0066640968075688785 -2.1547 3.0948e-16)">35</text>
<text class="face_text" text-anchor="middle" dominant-baseline="middle" transform="matrix(0.0066640968075688785 0 0 0.0066640968075688785 -1.76036 0.683013)">23</text>
<text class="face_text" text-anchor="middle" dominant-baseline="middle" transform="matrix(0.0066640968075688785 0 0 0.0066640968075688785 -1.07735 0.288675)">15</text>
<rect class="edge_bg" x="0.22203389732949827" y="-0.06664096807568883" width="0.13328193615137757" height="0.13328193615137757"/>
<text class="edge_text" text-anchor="middle" dominant-baseline="middle" transform="matrix(0.0066640968075688785 0 0 0.0066640968075688785 0.28867486540518705 -3.535250795749691e-17)">4</text>
<rect class="edge_bg" x="0.6550470319243112" y="-0.3166412661834693" width="0.13328193615137757" height="0.13328193615137757"/>
<text class="edge_text" text-anchor="middle" dominant-baseline="middle" transform="matrix(0.0066640968075688785 0 0 0.0066640968075688785 0.721688 -0.2500002981077805)">1</text>
<rect class="edge_bg" x="0.47203403192431137" y="-0.9996534007782824" width="0.13328193615137757" height="0.13328193615137757"/>
<text class="edge_text" text-anchor="middle" dominant-baseline="middle" transform="matrix(0.0066640968075688785 0 0 0.0066640968075688785 0.5386750000000001 -0.9330124327025936)">0</text>
<rect class="edge_bg" x="-0.027965968075688685" y="-0.9996535353730952" width="0.13328193615137757" height="0.13328193615137757"/>
<text class="edge_text" text-anchor="middle" dominant-baseline="middle" transform="matrix(0.0066640968075688785 0 0 0.0066640968075688785 0.0386750000000001 -0.9330125672974064)">3</text>
<rect class="edge_bg" x="-0.5279662661834693" y="-0.9996509680756887" width="0.13328193615137757" height="0.13328193615137757"/>
<text class="edge_text" text-anchor="middle" dominant-baseline="middle" transform="matrix(0.0066640968075688785 0 0 0.0066640968075688785 -0.4613252981077805 -0.9330099999999999)">16</text>
<rect class="edge_bg" x="-1.2109834007782823" y="-0.8166409680756888" width="0.13328193615137757" height="0.13328193615137757"/>
<text class="edge_text" text-anchor="middle" dominant-baseline="middle" transform="matrix(0.0066640968075688785 0 0 0.0066640968075688785 -1.1443424327025935 -0.75)">18</text>
<rect class="edge_bg" x="-1.643995833480876" y="-0.5666409680756888" width="0.13328193615137757" height="0.13328193615137757"/>
<text class="edge_text" text-anchor="middle" dominant-baseline="middle" transform="matrix(0.0066640968075688785 0 0 0.0066640968075688785 -1.5773548654051872 -0.5)">37</text>
<rect class="edge_bg" x="-2.0770034007782825" y="-0.31664096807568853" width="0.13328193615137757" height="0.13328193615137757"/>
<text class="edge_text" text-anchor="middle" dominant-baseline="middle" transform="matrix(0.0066640968075688785 0 0 0.0066640968075688785 -2.0103624327025935 -0.24999999999999975)">55</text>
<rect class="edge_bg" x="-2.077000968075689" y="0.18335933003209173" width="0.13328193615137757" height="0.13328193615137757"/>
<text class="edge_text" text-anchor="middle" dominant-baseline="middle" transform="matrix(0.0066640968075688785 0 0 0.0066640968075688785 -2.01036 0.2500002981077805)">52</text>
<rect class="edge_bg" x="-1.3939909680756888" y="0.3663715992217177" width="0.13328193615137757" height="0.13328193615137757"/>
<text class="edge_text" text-anchor="middle" dominant-baseline="middle" transform="matrix(0.0066640968075688785 0 0 0.0066640968075688785 -1.32735 0.43301256729740645)">35</text>
</svg>
