<?xml version="1.0" encoding="utf-8"?>
<svg version="1.1" id="layer_1" xmlns="http://www.w3.org/2000/svg" xmlns:xlink="http://www.w3.org/1999/xlink" x="0px" y="0px" viewBox="-1.6273551345948134 -1.9160227018922193 3.332055836487033 2.4660227018922196" style="enable-background:new -1.6273551345948134 -1.9160227018922193 3.332055836487033 2.4660227018922196;" xml:space="preserve">
<style type="text/css">
  .no_fill_black_stroke {fill:none; stroke:#000000; stroke-width:0.02; stroke-miterlimit:10;}
  .face_text {fill:#000000; font-family:monospace;}
  .edge_text {fill:#ff0000; font-family:monospace;}
  .edge_bg {fill:#f3f3f3; stroke:#606060; stroke-width:0.02;}
</style>
<polygon class="no_fill_black_stroke" points="0.288675134594813, -0.5 -0.5773502691896258, -7.07050159149938e-17 0.288675134594813, 0.5"/>
<polygon class="no_fill_black_stroke" points="0.28867486540518683, 0.4999999999999999 1.1547002691896258, 1.414100318299876e-16 0.28867486540518755, -0.5000000000000003"/>
<polygon class="no_fill_black_stroke" points="1.1547007018922193, -2.981077805719323e-07 1.6547007018922195, -0.8660257018922193 0.7886752981077806, -1.3660257018922195 0.2886752981077805, -0.5000002981077809"/>
<polygon class="no_fill_black_stroke" points="0.7886750000000001, -1.366025134594813 -0.2113250000000001, -1.366025134594813 0.2886749999999999, -0.4999997308103742"/>
<polygon class="no_fill_black_stroke" points="-0.21132499999999999, -1.3660252691896257 -0.711325, -0.49999986540518704 0.2886749999999999, -0.4999998654051868"/>
<polygon class="no_fill_black_stroke" points="-0.21132529810778056, -1.3660227018922193 -1.0773507018922195, -1.8660227018922193 -1.5773507018922195, -0.9999972981077808 -0.7113252981077803, -0.4999972981077806"/>
<polygon class="no_fill_black_stroke" points="-1.577355134594813, -1.0 -1.5773551345948134, -1.1102230246251565e-16 -0.7113297308103742, -0.49999999999999983"/>
<polygon class="no_fill_black_stroke" points="-1.5773502691896257, 2.301869840850062e-16 -0.711324865405187, 0.5000000000000003 -0.7113248654051872, -0.49999999999999983"/>
<text class="face_text" text-anchor="middle" dominant-baseline="middle" transform="matrix(0.004932045403784439 0 0 0.004932045403784439 0.0 0.0)">2</text>
<text class="face_text" text-anchor="middle" dominant-baseline="middle" transform="matrix(0.004932045403784439 0 0 0.004932045403784439 0.57735 0.0)">3</text>
<text class="face_text" text-anchor="middle" dominant-baseline="middle" transform="matrix(0.004932045403784439 0 0 0.004932045403784439 0.971688 -0.683013)">4</text>
<text class="face_text" text-anchor="middle" dominant-baseline="middle" transform="matrix(0.004932045403784439 0 0 0.004932045403784439 0.288675 -1.07735)">0</text>
<text class="face_text" text-anchor="middle" dominant-baseline="middle" transform="matrix(0.004932045403784439 0 0 0.004932045403784439 -0.211325 -0.788675)">1</text>
<text class="face_text" text-anchor="middle" dominant-baseline="middle" transform="matrix(0.004932045403784439 0 0 0.004932045403784439 -0.894338 -1.18301)">13</text>
<text class="face_text" text-anchor="middle" dominant-baseline="middle" transform="matrix(0.004932045403784439 0 0 0.004932045403784439 -1.28868 -0.5)">14</text>
<text class="face_text" text-anchor="middle" dominant-baseline="middle" transform="matrix(0.004932045403784439 0 0 0.004932045403784439 -1.0 3.00892e-16)">15</text>
<rect class="edge_bg" x="0.23935441136734265" y="-0.04932045403784443" width="0.09864090807568879" height="0.09864090807568879"/>
<text class="edge_text" text-anchor="middle" dominant-baseline="middle" transform="matrix(0.004932045403784439 0 0 0.004932045403784439 0.28867486540518705 -3.535250795749691e-17)">4</text>
<rect class="edge_bg" x="0.6723675459621556" y="-0.2993207521456249" width="0.09864090807568879" height="0.09864090807568879"/>
<text class="edge_text" text-anchor="middle" dominant-baseline="middle" transform="matrix(0.004932045403784439 0 0 0.004932045403784439 0.721688 -0.2500002981077805)">1</text>
<rect class="edge_bg" x="0.4893545459621557" y="-0.982332886740438" width="0.09864090807568879" height="0.09864090807568879"/>
<text class="edge_text" text-anchor="middle" dominant-baseline="middle" transform="matrix(0.004932045403784439 0 0 0.004932045403784439 0.5386750000000001 -0.9330124327025936)">0</text>
<rect class="edge_bg" x="-0.010645454037844296" y="-0.9823330213352508" width="0.09864090807568879" height="0.09864090807568879"/>
<text class="edge_text" text-anchor="middle" dominant-baseline="middle" transform="matrix(0.004932045403784439 0 0 0.004932045403784439 0.0386750000000001 -0.9330125672974064)">3</text>
<rect class="edge_bg" x="-0.5106457521456249" y="-0.9823304540378442" width="0.09864090807568879" height="0.09864090807568879"/>
<text class="edge_text" text-anchor="middle" dominant-baseline="middle" transform="matrix(0.004932045403784439 0 0 0.004932045403784439 -0.4613252981077805 -0.9330099999999999)">16</text>
<rect class="edge_bg" x="-1.193662886740438" y="-0.7993204540378444" width="0.09864090807568879" height="0.09864090807568879"/>
<text class="edge_text" text-anchor="middle" dominant-baseline="middle" transform="matrix(0.004932045403784439 0 0 0.004932045403784439 -1.1443424327025935 -0.75)">18</text>
<rect class="edge_bg" x="-1.193658021335251" y="-0.2993204540378442" width="0.09864090807568879" height="0.09864090807568879"/>
<text class="edge_text" text-anchor="middle" dominant-baseline="middle" transform="matrix(0.004932045403784439 0 0 0.004932045403784439 -1.1443375672974065 -0.2499999999999998)">19</text>
</svg>
