<?xml version="1.0" encoding="utf-8"?>
<svg version="1.1" id="layer_1" xmlns="http://www.w3.org/2000/svg" xmlns:xlink="http://www.w3.org/1999/xlink" x="0px" y="0px" viewBox="-1.6273551345948134 -0.5500000000000004 2.832055403784439 2.1000000000000005" style="enable-background:new -1.6273551345948134 -0.5500000000000004 2.832055403784439 2.1000000000000005;" xml:space="preserve">
<style type="text/css">
  .no_fill_black_stroke {fill:none; stroke:#000000; stroke-width:0.02; stroke-miterlimit:10;}
  .face_text {fill:#000000; font-family:monospace;}
  .edge_text {fill:#ff0000; font-family:monospace;}
  .edge_bg {fill:#f3f3f3; stroke:#606060; stroke-width:0.02;}
</style>
<polygon class="no_fill_black_stroke" points="0.288675134594813, -0.5 -0.5773502691896258, -7.07050159149938e-17 0.288675134594813, 0.5"/>
<polygon class="no_fill_black_stroke" points="0.28867486540518683, 0.4999999999999999 1.1547002691896258, 1.414100318299876e-16 0.28867486540518755, -0.5000000000000003"/>
<polygon class="no_fill_black_stroke" points="0.2886747308103742, 0.49999999999999994 1.1547001345948131, 1.0 1.1547001345948127, -1.1102230246251565e-16"/>
<polygon class="no_fill_black_stroke" points="0.2886748654051872, 0.4999999999999999 0.28867486540518683, 1.5 1.1547002691896258, 1.0000000000000002"/>
<polygon class="no_fill_black_stroke" points="0.2886750000000001, 0.5 -0.711325, 0.4999999999999999 -0.7113250000000001, 1.5 0.2886749999999999, 1.5"/>
<polygon class="no_fill_black_stroke" points="-0.711324865405187, 0.5 -1.5773502691896257, 0.9999999999999999 -0.711324865405187, 1.5"/>
<polygon class="no_fill_black_stroke" points="-0.7113297308103742, 0.5 -1.577355134594813, -1.1102230246251565e-16 -1.5773551345948134, 0.9999999999999999"/>
<polygon class="no_fill_black_stroke" points="-0.711324865405187, 0.4999999999999999 -0.711324865405187, -0.5000000000000001 -1.5773502691896257, -2.0506401591499381e-16"/>
<text class="face_text" text-anchor="middle" dominant-baseline="middle" transform="matrix(0.0042000000000000015 0 0 0.0042000000000000015 0.0 0.0)">3</text>
<text class="face_text" text-anchor="middle" dominant-baseline="middle" transform="matrix(0.0042000000000000015 0 0 0.0042000000000000015 0.57735 0.0)">2</text>
<text class="face_text" text-anchor="middle" dominant-baseline="middle" transform="matrix(0.0042000000000000015 0 0 0.0042000000000000015 0.866025 0.5)">1</text>
<text class="face_text" text-anchor="middle" dominant-baseline="middle" transform="matrix(0.0042000000000000015 0 0 0.0042000000000000015 0.57735 1.0)">0</text>
<text class="face_text" text-anchor="middle" dominant-baseline="middle" transform="matrix(0.0042000000000000015 0 0 0.0042000000000000015 -0.211325 1.0)">4</text>
<text class="face_text" text-anchor="middle" dominant-baseline="middle" transform="matrix(0.0042000000000000015 0 0 0.0042000000000000015 -1.0 1.0)">8</text>
<text class="face_text" text-anchor="middle" dominant-baseline="middle" transform="matrix(0.0042000000000000015 0 0 0.0042000000000000015 -1.28868 0.5)">12</text>
<text class="face_text" text-anchor="middle" dominant-baseline="middle" transform="matrix(0.0042000000000000015 0 0 0.0042000000000000015 -1.0 -1.34359e-16)">11</text>
<rect class="edge_bg" x="0.24667486540518704" y="-0.042000000000000044" width="0.08400000000000002" height="0.08400000000000002"/>
<text class="edge_text" text-anchor="middle" dominant-baseline="middle" transform="matrix(0.0042000000000000015 0 0 0.0042000000000000015 0.28867486540518705 -3.535250795749691e-17)">4</text>
<rect class="edge_bg" x="0.6796874327025936" y="0.20799999999999988" width="0.08400000000000002" height="0.08400000000000002"/>
<text class="edge_text" text-anchor="middle" dominant-baseline="middle" transform="matrix(0.0042000000000000015 0 0 0.0042000000000000015 0.7216874327025936 0.2499999999999999)">2</text>
<rect class="edge_bg" x="0.6796875672974065" y="0.708" width="0.08400000000000002" height="0.08400000000000002"/>
<text class="edge_text" text-anchor="middle" dominant-baseline="middle" transform="matrix(0.0042000000000000015 0 0 0.0042000000000000015 0.7216875672974066 0.75)">3</text>
<rect class="edge_bg" x="0.24667500000000012" y="0.958" width="0.08400000000000002" height="0.08400000000000002"/>
<text class="edge_text" text-anchor="middle" dominant-baseline="middle" transform="matrix(0.0042000000000000015 0 0 0.0042000000000000015 0.2886750000000001 1.0)">0</text>
<rect class="edge_bg" x="-0.7533248654051871" y="0.958" width="0.08400000000000002" height="0.08400000000000002"/>
<text class="edge_text" text-anchor="middle" dominant-baseline="middle" transform="matrix(0.0042000000000000015 0 0 0.0042000000000000015 -0.711324865405187 1.0)">9</text>
<rect class="edge_bg" x="-1.1863424327025935" y="0.708" width="0.08400000000000002" height="0.08400000000000002"/>
<text class="edge_text" text-anchor="middle" dominant-baseline="middle" transform="matrix(0.0042000000000000015 0 0 0.0042000000000000015 -1.1443424327025935 0.75)">13</text>
<rect class="edge_bg" x="-1.1863375672974066" y="0.20799999999999996" width="0.08400000000000002" height="0.08400000000000002"/>
<text class="edge_text" text-anchor="middle" dominant-baseline="middle" transform="matrix(0.0042000000000000015 0 0 0.0042000000000000015 -1.1443375672974065 0.24999999999999997)">14</text>
</svg>
