<?xml version="1.0" encoding="utf-8"?>
<svg version="1.1" id="layer_1" xmlns="http://www.w3.org/2000/svg" xmlns:xlink="http://www.w3.org/1999/xlink" x="0px" y="0px" viewBox="-2.493380269189626 -1.4160257018922195 3.6980805383792514 2.9660257018922196" style="enable-background:new -2.493380269189626 -1.4160257018922195 3.6980805383792514 2.9660257018922196;" xml:space="preserve">
<style type="text/css">
  .no_fill_black_stroke {fill:none; stroke:#000000; stroke-width:0.02; stroke-miterlimit:10;}
  .face_text {fill:#000000; font-family:monospace;}
  .edge_text {fill:#ff0000; font-family:monospace;}
  .edge_bg {fill:#f3f3f3; stroke:#606060; stroke-width:0.02;}
</style>
<polygon class="no_fill_black_stroke" points="0.288675134594813, -0.5 -0.5773502691896258, -7.07050159149938e-17 0.288675134594813, 0.5"/>
<polygon class="no_fill_black_stroke" points="0.28867486540518683, 0.4999999999999999 1.1547002691896258, 1.414100318299876e-16 0.28867486540518755, -0.5000000000000003"/>
<polygon class="no_fill_black_stroke" points="0.2886747308103742, 0.49999999999999994 1.1547001345948131, 1.0 1.1547001345948127, -1.1102230246251565e-16"/>
<polygon class="no_fill_black_stroke" points="0.2886748654051872, 0.4999999999999999 0.28867486540518683, 1.5 1.1547002691896258, 1.0000000000000002"/>
<polygon class="no_fill_black_stroke" points="0.2886750000000001, 0.5 -0.711325, 0.4999999999999999 -0.7113250000000001, 1.5 0.2886749999999999, 1.5"/>
<polygon class="no_fill_black_stroke" points="-0.711324865405187, 0.5 -1.5773502691896257, 0.9999999999999999 -0.711324865405187, 1.5"/>
<polygon class="no_fill_black_stroke" points="-0.7113297308103742, 0.5 -1.577355134594813, -1.1102230246251565e-16 -1.5773551345948134, 0.9999999999999999"/>
<polygon class="no_fill_black_stroke" points="-1.5773548654051872, 0.0 -2.443380269189626, 0.49999999999999994 -1.5773548654051872, 1.0"/>
<polygon class="no_fill_black_stroke" points="-1.5773497308103743, -2.53969e-16 -2.4433751345948127, -0.5000000000000003 -2.443375134594813, 0.4999999999999996"/>
<polygon class="no_fill_black_stroke" points="-1.5773472981077805, -2.981077805719323e-07 -1.0773472981077805, -0.8660257018922193 -1.9433727018922193, -1.3660257018922195 -2.4433727018922196, -0.5000002981077809"/>
<polygon class="no_fill_black_stroke" points="-1.57735, 1.3459481296163034e-07 -0.5773500000000001, 1.3459481318367494e-07 -1.0773499999999998, -0.8660252691896259"/>
<text class="face_text" text-anchor="middle" dominant-baseline="middle" transform="matrix(0.00593205140378444 0 0 0.00593205140378444 0.0 0.0)">3</text>
<text class="face_text" text-anchor="middle" dominant-baseline="middle" transform="matrix(0.00593205140378444 0 0 0.00593205140378444 0.57735 0.0)">2</text>
<text class="face_text" text-anchor="middle" dominant-baseline="middle" transform="matrix(0.00593205140378444 0 0 0.00593205140378444 0.866025 0.5)">1</text>
<text class="face_text" text-anchor="middle" dominant-baseline="middle" transform="matrix(0.00593205140378444 0 0 0.00593205140378444 0.57735 1.0)">0</text>
<text class="face_text" text-anchor="middle" dominant-baseline="middle" transform="matrix(0.00593205140378444 0 0 0.00593205140378444 -0.211325 1.0)">4</text>
<text class="face_text" text-anchor="middle" dominant-baseline="middle" transform="matrix(0.00593205140378444 0 0 0.00593205140378444 -1.0 1.0)">8</text>
<text class="face_text" text-anchor="middle" dominant-baseline="middle" transform="matrix(0.00593205140378444 0 0 0.00593205140378444 -1.28868 0.5)">12</text>
<text class="face_text" text-anchor="middle" dominant-baseline="middle" transform="matrix(0.00593205140378444 0 0 0.00593205140378444 -1.86603 0.5)">22</text>
<text class="face_text" text-anchor="middle" dominant-baseline="middle" transform="matrix(0.00593205140378444 0 0 0.00593205140378444 -2.1547 -2.53969e-16)">24</text>
<text class="face_text" text-anchor="middle" dominant-baseline="middle" transform="matrix(0.00593205140378444 0 0 0.00593205140378444 -1.76036 -0.683013)">23</text>
<text class="face_text" text-anchor="middle" dominant-baseline="middle" transform="matrix(0.00593205140378444 0 0 0.00593205140378444 -1.07735 -0.288675)">11</text>
<rect class="edge_bg" x="0.22935435136734267" y="-0.05932051403784443" width="0.11864102807568878" height="0.11864102807568878"/>
<text class="edge_text" text-anchor="middle" dominant-baseline="middle" transform="matrix(0.00593205140378444 0 0 0.00593205140378444 0.28867486540518705 -3.535250795749691e-17)">4</text>
<rect class="edge_bg" x="0.6623669186647492" y="0.1906794859621555" width="0.11864102807568878" height="0.11864102807568878"/>
<text class="edge_text" text-anchor="middle" dominant-baseline="middle" transform="matrix(0.00593205140378444 0 0 0.00593205140378444 0.7216874327025936 0.2499999999999999)">2</text>
<rect class="edge_bg" x="0.6623670532595621" y="0.6906794859621556" width="0.11864102807568878" height="0.11864102807568878"/>
<text class="edge_text" text-anchor="middle" dominant-baseline="middle" transform="matrix(0.00593205140378444 0 0 0.00593205140378444 0.7216875672974066 0.75)">3</text>
<rect class="edge_bg" x="0.22935448596215574" y="0.9406794859621556" width="0.11864102807568878" height="0.11864102807568878"/>
<text class="edge_text" text-anchor="middle" dominant-baseline="middle" transform="matrix(0.00593205140378444 0 0 0.00593205140378444 0.2886750000000001 1.0)">0</text>
<rect class="edge_bg" x="-0.7706453794430315" y="0.9406794859621556" width="0.11864102807568878" height="0.11864102807568878"/>
<text class="edge_text" text-anchor="middle" dominant-baseline="middle" transform="matrix(0.00593205140378444 0 0 0.00593205140378444 -0.711324865405187 1.0)">9</text>
<rect class="edge_bg" x="-1.2036629467404378" y="0.6906794859621556" width="0.11864102807568878" height="0.11864102807568878"/>
<text class="edge_text" text-anchor="middle" dominant-baseline="middle" transform="matrix(0.00593205140378444 0 0 0.00593205140378444 -1.1443424327025935 0.75)">13</text>
<rect class="edge_bg" x="-1.6366753794430315" y="0.4406794859621556" width="0.11864102807568878" height="0.11864102807568878"/>
<text class="edge_text" text-anchor="middle" dominant-baseline="middle" transform="matrix(0.00593205140378444 0 0 0.00593205140378444 -1.5773548654051872 0.5)">30</text>
<rect class="edge_bg" x="-2.069682946740438" y="0.19067948596215542" width="0.11864102807568878" height="0.11864102807568878"/>
<text class="edge_text" text-anchor="middle" dominant-baseline="middle" transform="matrix(0.00593205140378444 0 0 0.00593205140378444 -2.0103624327025935 0.2499999999999998)">33</text>
<rect class="edge_bg" x="-2.0696805140378443" y="-0.3093208121456249" width="0.11864102807568878" height="0.11864102807568878"/>
<text class="edge_text" text-anchor="middle" dominant-baseline="middle" transform="matrix(0.00593205140378444 0 0 0.00593205140378444 -2.01036 -0.2500002981077805)">34</text>
<rect class="edge_bg" x="-1.3866705140378444" y="-0.49233308133525083" width="0.11864102807568878" height="0.11864102807568878"/>
<text class="edge_text" text-anchor="middle" dominant-baseline="middle" transform="matrix(0.00593205140378444 0 0 0.00593205140378444 -1.32735 -0.43301256729740645)">32</text>
</svg>
