<?xml version="1.0" encoding="utf-8"?>
<svg version="1.1" id="layer_1" xmlns="http://www.w3.org/2000/svg" xmlns:xlink="http://www.w3.org/1999/xlink" x="0px" y="0px" viewBox="-1.1273502691896258 -2.41603 2.3320509710818453 2.96603" style="enable-background:new -1.1273502691896258 -2.41603 2.3320509710818453 2.96603;" xml:space="preserve">
<style type="text/css">
  .no_fill_black_stroke {fill:none; stroke:#000000; stroke-width:0.02; stroke-miterlimit:10;}
  .face_text {fill:#000000; font-family:monospace;}
  .edge_text {fill:#ff0000; font-family:monospace;}
  .edge_bg {fill:#f3f3f3; stroke:#606060; stroke-width:0.02;}
</style>
<polygon class="no_fill_black_stroke" points="0.288675134594813, -0.5 -0.5773502691896258, -7.07050159149938e-17 0.288675134594813, 0.5"/>
<polygon class="no_fill_black_stroke" points="0.28867486540518683, 0.4999999999999999 1.1547002691896258, 1.414100318299876e-16 0.28867486540518755, -0.5000000000000003"/>
<polygon class="no_fill_black_stroke" points="1.1547001345948131, 0.0 1.1547001345948131, -1.0 0.2886747308103742, -0.5000000000000001"/>
<polygon class="no_fill_black_stroke" points="1.1547007018922195, -0.9999972981077806 0.6547007018922193, -1.8660227018922193 -0.2113247018922193, -1.3660227018922195 0.28867529810778075, -0.4999972981077805"/>
<polygon class="no_fill_black_stroke" points="0.6547005691896258, -1.86603 -0.21132483459481283, -2.3660300000000003 -0.21132483459481322, -1.3660300000000003"/>
<polygon class="no_fill_black_stroke" points="-0.21132486540518702, -2.3660300000000003 -1.0773502691896257, -1.86603 -0.21132486540518702, -1.36603"/>
<polygon class="no_fill_black_stroke" points="-1.0773501345948129, -1.8660300000000003 -1.077350134594813, -0.8660300000000002 -0.21132473081037417, -1.3660299999999999"/>
<polygon class="no_fill_black_stroke" points="-1.0773502691896257, -0.8660250000000002 -0.21132486540518702, -0.36602500000000004 -0.21132486540518725, -1.366025"/>
<text class="face_text" text-anchor="middle" dominant-baseline="middle" transform="matrix(0.004664101942163691 0 0 0.004664101942163691 0.0 0.0)">3</text>
<text class="face_text" text-anchor="middle" dominant-baseline="middle" transform="matrix(0.004664101942163691 0 0 0.004664101942163691 0.57735 0.0)">2</text>
<text class="face_text" text-anchor="middle" dominant-baseline="middle" transform="matrix(0.004664101942163691 0 0 0.004664101942163691 0.866025 -0.5)">15</text>
<text class="face_text" text-anchor="middle" dominant-baseline="middle" transform="matrix(0.004664101942163691 0 0 0.004664101942163691 0.471688 -1.18301)">23</text>
<text class="face_text" text-anchor="middle" dominant-baseline="middle" transform="matrix(0.004664101942163691 0 0 0.004664101942163691 0.0773503 -1.86603)">24</text>
<text class="face_text" text-anchor="middle" dominant-baseline="middle" transform="matrix(0.004664101942163691 0 0 0.004664101942163691 -0.5 -1.86603)">22</text>
<text class="face_text" text-anchor="middle" dominant-baseline="middle" transform="matrix(0.004664101942163691 0 0 0.004664101942163691 -0.788675 -1.36603)">12</text>
<text class="face_text" text-anchor="middle" dominant-baseline="middle" transform="matrix(0.004664101942163691 0 0 0.004664101942163691 -0.5 -0.866025)">11</text>
<rect class="edge_bg" x="0.24203384598355016" y="-0.04664101942163694" width="0.09328203884327381" height="0.09328203884327381"/>
<text class="edge_text" text-anchor="middle" dominant-baseline="middle" transform="matrix(0.004664101942163691 0 0 0.004664101942163691 0.28867486540518705 -3.535250795749691e-17)">4</text>
<rect class="edge_bg" x="0.6750464132809567" y="-0.2966410194216368" width="0.09328203884327381" height="0.09328203884327381"/>
<text class="edge_text" text-anchor="middle" dominant-baseline="middle" transform="matrix(0.004664101942163691 0 0 0.004664101942163691 0.7216874327025936 -0.2499999999999999)">17</text>
<rect class="edge_bg" x="0.6750469805783632" y="-0.7966383175294174" width="0.09328203884327381" height="0.09328203884327381"/>
<text class="edge_text" text-anchor="middle" dominant-baseline="middle" transform="matrix(0.004664101942163691 0 0 0.004664101942163691 0.7216880000000001 -0.7499972981077805)">35</text>
<rect class="edge_bg" x="0.17504684787576963" y="-1.662671019421637" width="0.09328203884327381" height="0.09328203884327381"/>
<text class="edge_text" text-anchor="middle" dominant-baseline="middle" transform="matrix(0.004664101942163691 0 0 0.004664101942163691 0.22168786729740653 -1.61603)">34</text>
<rect class="edge_bg" x="-0.2579658848268239" y="-1.912671019421637" width="0.09328203884327381" height="0.09328203884327381"/>
<text class="edge_text" text-anchor="middle" dominant-baseline="middle" transform="matrix(0.004664101942163691 0 0 0.004664101942163691 -0.21132486540518702 -1.86603)">33</text>
<rect class="edge_bg" x="-0.6909784521242304" y="-1.662671019421637" width="0.09328203884327381" height="0.09328203884327381"/>
<text class="edge_text" text-anchor="middle" dominant-baseline="middle" transform="matrix(0.004664101942163691 0 0 0.004664101942163691 -0.6443374327025935 -1.61603)">30</text>
<rect class="edge_bg" x="-0.6909785867190433" y="-1.162666019421637" width="0.09328203884327381" height="0.09328203884327381"/>
<text class="edge_text" text-anchor="middle" dominant-baseline="middle" transform="matrix(0.004664101942163691 0 0 0.004664101942163691 -0.6443375672974064 -1.116025)">14</text>
</svg>
