<?xml version="1.0" encoding="utf-8"?>
<svg version="1.1" id="layer_1" xmlns="http://www.w3.org/2000/svg" xmlns:xlink="http://www.w3.org/1999/xlink" x="0px" y="0px" viewBox="-1.7613200000000002 -1.9160227018922193 2.96602070189222 2.4660227018922196" style="enable-background:new -1.7613200000000002 -1.9160227018922193 2.96602070189222 2.4660227018922196;" xml:space="preserve">
<style type="text/css">
  .no_fill_black_stroke {fill:none; stroke:#000000; stroke-width:0.02; stroke-miterlimit:10;}
  .face_text {fill:#000000; font-family:monospace;}
  .edge_text {fill:#ff0000; font-family:monospace;}
  .edge_bg {fill:#f3f3f3; stroke:#606060; stroke-width:0.02;}
</style>
<polygon class="no_fill_black_stroke" points="0.288675134594813, -0.5 -0.5773502691896258, -7.07050159149938e-17 0.288675134594813, 0.5"/>
<polygon class="no_fill_black_stroke" points="0.28867486540518683, 0.4999999999999999 1.1547002691896258, 1.414100318299876e-16 0.28867486540518755, -0.5000000000000003"/>
<polygon class="no_fill_black_stroke" points="1.1547001345948131, 0.0 1.1547001345948131, -1.0 0.2886747308103742, -0.5000000000000001"/>
<polygon class="no_fill_black_stroke" points="1.1547007018922195, -0.9999972981077806 0.6547007018922193, -1.8660227018922193 -0.2113247018922193, -1.3660227018922195 0.28867529810778075, -0.4999972981077805"/>
<polygon class="no_fill_black_stroke" points="-0.21132499999999999, -1.3660252691896257 -0.711325, -0.49999986540518704 0.2886749999999999, -0.4999998654051868"/>
<polygon class="no_fill_black_stroke" points="-0.21132499999999987, -1.366025134594813 -1.211325, -1.366025134594813 -0.7113250000000001, -0.4999997308103742"/>
<polygon class="no_fill_black_stroke" points="-1.21132, -1.3660252691896257 -1.71132, -0.49999986540518704 -0.7113200000000001, -0.4999998654051868"/>
<polygon class="no_fill_black_stroke" points="-1.71132, -0.5 -1.7113200000000002, 0.5000000000000001 -0.7113200000000001, 0.5000000000000002 -0.7113199999999993, -0.49999999999999933"/>
<text class="face_text" text-anchor="middle" dominant-baseline="middle" transform="matrix(0.004932045403784439 0 0 0.004932045403784439 0.0 0.0)">3</text>
<text class="face_text" text-anchor="middle" dominant-baseline="middle" transform="matrix(0.004932045403784439 0 0 0.004932045403784439 0.57735 0.0)">2</text>
<text class="face_text" text-anchor="middle" dominant-baseline="middle" transform="matrix(0.004932045403784439 0 0 0.004932045403784439 0.866025 -0.5)">15</text>
<text class="face_text" text-anchor="middle" dominant-baseline="middle" transform="matrix(0.004932045403784439 0 0 0.004932045403784439 0.471688 -1.18301)">23</text>
<text class="face_text" text-anchor="middle" dominant-baseline="middle" transform="matrix(0.004932045403784439 0 0 0.004932045403784439 -0.211325 -0.788675)">11</text>
<text class="face_text" text-anchor="middle" dominant-baseline="middle" transform="matrix(0.004932045403784439 0 0 0.004932045403784439 -0.711325 -1.07735)">12</text>
<text class="face_text" text-anchor="middle" dominant-baseline="middle" transform="matrix(0.004932045403784439 0 0 0.004932045403784439 -1.21132 -0.788675)">8</text>
<text class="face_text" text-anchor="middle" dominant-baseline="middle" transform="matrix(0.004932045403784439 0 0 0.004932045403784439 -1.21132 1.11022e-16)">4</text>
<rect class="edge_bg" x="0.23935441136734265" y="-0.04932045403784443" width="0.09864090807568879" height="0.09864090807568879"/>
<text class="edge_text" text-anchor="middle" dominant-baseline="middle" transform="matrix(0.004932045403784439 0 0 0.004932045403784439 0.28867486540518705 -3.535250795749691e-17)">4</text>
<rect class="edge_bg" x="0.6723669786647493" y="-0.2993204540378443" width="0.09864090807568879" height="0.09864090807568879"/>
<text class="edge_text" text-anchor="middle" dominant-baseline="middle" transform="matrix(0.004932045403784439 0 0 0.004932045403784439 0.7216874327025936 -0.2499999999999999)">17</text>
<rect class="edge_bg" x="0.6723675459621558" y="-0.7993177521456248" width="0.09864090807568879" height="0.09864090807568879"/>
<text class="edge_text" text-anchor="middle" dominant-baseline="middle" transform="matrix(0.004932045403784439 0 0 0.004932045403784439 0.7216880000000001 -0.7499972981077805)">35</text>
<rect class="edge_bg" x="-0.010645454037844296" y="-0.9823330213352508" width="0.09864090807568879" height="0.09864090807568879"/>
<text class="edge_text" text-anchor="middle" dominant-baseline="middle" transform="matrix(0.004932045403784439 0 0 0.004932045403784439 0.0386750000000001 -0.9330125672974064)">32</text>
<rect class="edge_bg" x="-0.5106454540378442" y="-0.982332886740438" width="0.09864090807568879" height="0.09864090807568879"/>
<text class="edge_text" text-anchor="middle" dominant-baseline="middle" transform="matrix(0.004932045403784439 0 0 0.004932045403784439 -0.4613249999999999 -0.9330124327025936)">14</text>
<rect class="edge_bg" x="-1.0106404540378442" y="-0.9823330213352508" width="0.09864090807568879" height="0.09864090807568879"/>
<text class="edge_text" text-anchor="middle" dominant-baseline="middle" transform="matrix(0.004932045403784439 0 0 0.004932045403784439 -0.9613199999999998 -0.9330125672974064)">13</text>
<rect class="edge_bg" x="-1.2606404540378444" y="-0.5493204540378444" width="0.09864090807568879" height="0.09864090807568879"/>
<text class="edge_text" text-anchor="middle" dominant-baseline="middle" transform="matrix(0.004932045403784439 0 0 0.004932045403784439 -1.21132 -0.5)">9</text>
</svg>
