<?xml version="1.0" encoding="utf-8"?>
<svg version="1.1" id="layer_1" xmlns="http://www.w3.org/2000/svg" xmlns:xlink="http://www.w3.org/1999/xlink" x="0px" y="0px" viewBox="-0.761325 -1.4160252691896258 2.1000000000000005 1.9660252691896258" style="enable-background:new -0.761325 -1.4160252691896258 2.1000000000000005 1.9660252691896258;" xml:space="preserve">
<style type="text/css">
  .no_fill_black_stroke {fill:none; stroke:#000000; stroke-width:0.02; stroke-miterlimit:10;}
  .face_text {fill:#000000; font-family:monospace;}
  .edge_text {fill:#ff0000; font-family:monospace;}
  .edge_bg {fill:#f3f3f3; stroke:#606060; stroke-width:0.02;}
</style>
<polygon class="no_fill_black_stroke" points="0.288675134594813, -0.5 -0.5773502691896258, -7.07050159149938e-17 0.288675134594813, 0.5"/>
<polygon class="no_fill_black_stroke" points="0.2886749999999999, 0.5 1.288675, 0.5000000000000001 1.2886750000000007, -0.49999999999999944 0.2886749999999997, -0.4999999999999998"/>
<polygon class="no_fill_black_stroke" points="1.288675, -0.49999986540518715 0.788675, -1.3660252691896257 0.288675, -0.49999986540518704"/>
<polygon class="no_fill_black_stroke" points="0.7886750000000001, -1.366025134594813 -0.2113250000000001, -1.366025134594813 0.2886749999999999, -0.4999997308103742"/>
<polygon class="no_fill_black_stroke" points="-0.21132499999999999, -1.3660252691896257 -0.711325, -0.49999986540518704 0.2886749999999999, -0.4999998654051868"/>
<text class="face_text" text-anchor="middle" dominant-baseline="middle" transform="matrix(0.003932050538379252 0 0 0.003932050538379252 0.0 0.0)">3</text>
<text class="face_text" text-anchor="middle" dominant-baseline="middle" transform="matrix(0.003932050538379252 0 0 0.003932050538379252 0.788675 0.0)">4</text>
<text class="face_text" text-anchor="middle" dominant-baseline="middle" transform="matrix(0.003932050538379252 0 0 0.003932050538379252 0.788675 -0.788675)">0</text>
<text class="face_text" text-anchor="middle" dominant-baseline="middle" transform="matrix(0.003932050538379252 0 0 0.003932050538379252 0.288675 -1.07735)">1</text>
<text class="face_text" text-anchor="middle" dominant-baseline="middle" transform="matrix(0.003932050538379252 0 0 0.003932050538379252 -0.211325 -0.788675)">2</text>
<rect class="edge_bg" x="0.2493544946162074" y="-0.03932050538379258" width="0.07864101076758503" height="0.07864101076758503"/>
<text class="edge_text" text-anchor="middle" dominant-baseline="middle" transform="matrix(0.003932050538379252 0 0 0.003932050538379252 0.2886749999999999 -6.123233995736767e-17)">1</text>
<rect class="edge_bg" x="0.7493544946162075" y="-0.5393203707889795" width="0.07864101076758503" height="0.07864101076758503"/>
<text class="edge_text" text-anchor="middle" dominant-baseline="middle" transform="matrix(0.003932050538379252 0 0 0.003932050538379252 0.788675 -0.49999986540518704)">0</text>
<rect class="edge_bg" x="0.4993544946162076" y="-0.9723329380863861" width="0.07864101076758503" height="0.07864101076758503"/>
<text class="edge_text" text-anchor="middle" dominant-baseline="middle" transform="matrix(0.003932050538379252 0 0 0.003932050538379252 0.5386750000000001 -0.9330124327025936)">3</text>
<rect class="edge_bg" x="-0.0006455053837924191" y="-0.972333072681199" width="0.07864101076758503" height="0.07864101076758503"/>
<text class="edge_text" text-anchor="middle" dominant-baseline="middle" transform="matrix(0.003932050538379252 0 0 0.003932050538379252 0.0386750000000001 -0.9330125672974064)">2</text>
</svg>
