<?xml version="1.0" encoding="utf-8"?>
<svg version="1.1" id="layer_1" xmlns="http://www.w3.org/2000/svg" xmlns:xlink="http://www.w3.org/1999/xlink" x="0px" y="0px" viewBox="-0.5500000000000002 -2.916022701892219 1.9660257018922196 3.466022701892219" style="enable-background:new -0.5500000000000002 -2.916022701892219 1.9660257018922196 3.466022701892219;" xml:space="preserve">
<style type="text/css">
  .no_fill_black_stroke {fill:none; stroke:#000000; stroke-width:0.02; stroke-miterlimit:10;}
  .face_text {fill:#000000; font-family:monospace;}
  .edge_text {fill:#ff0000; font-family:monospace;}
  .edge_bg {fill:#f3f3f3; stroke:#606060; stroke-width:0.02;}
</style>
<polygon class="no_fill_black_stroke" points="0.5000000000000001, -0.5 -0.5, -0.5000000000000001 -0.5000000000000001, 0.5 0.4999999999999999, 0.5000000000000001"/>
<polygon class="no_fill_black_stroke" points="0.4999998654051868, 0.4999999999999999 1.3660252691896257, 1.414100318299876e-16 0.49999986540518754, -0.5000000000000003"/>
<polygon class="no_fill_black_stroke" points="1.3660251345948131, 0.0 1.3660251345948131, -1.0 0.4999997308103742, -0.5000000000000001"/>
<polygon class="no_fill_black_stroke" points="1.3660252691896257, -1.0 0.4999998654051872, -1.5 0.4999998654051868, -0.5000000000000001"/>
<polygon class="no_fill_black_stroke" points="1.3660251345948131, -1.0 1.3660251345948131, -2.0 0.4999997308103742, -1.5"/>
<polygon class="no_fill_black_stroke" points="1.3660257018922195, -1.9999972981077805 0.8660257018922193, -2.866022701892219 2.981077806829546e-07, -2.3660227018922195 0.5000002981077807, -1.4999972981077805"/>
<polygon class="no_fill_black_stroke" points="4.50598507957497e-16, -2.366030269189626 -0.4999999999999996, -1.5000048654051872 0.5000000000000003, -1.5000048654051867"/>
<polygon class="no_fill_black_stroke" points="-0.5000000000000001, -1.4999951345948128 -7.07050238724907e-17, -0.6339697308103741 0.5000000000000003, -1.4999951345948124"/>
<text class="face_text" text-anchor="middle" dominant-baseline="middle" transform="matrix(0.00393205140378444 0 0 0.00393205140378444 0.0 0.0)">4</text>
<text class="face_text" text-anchor="middle" dominant-baseline="middle" transform="matrix(0.00393205140378444 0 0 0.00393205140378444 0.788675 0.0)">3</text>
<text class="face_text" text-anchor="middle" dominant-baseline="middle" transform="matrix(0.00393205140378444 0 0 0.00393205140378444 1.07735 -0.5)">11</text>
<text class="face_text" text-anchor="middle" dominant-baseline="middle" transform="matrix(0.00393205140378444 0 0 0.00393205140378444 0.788675 -1.0)">12</text>
<text class="face_text" text-anchor="middle" dominant-baseline="middle" transform="matrix(0.00393205140378444 0 0 0.00393205140378444 1.07735 -1.5)">22</text>
<text class="face_text" text-anchor="middle" dominant-baseline="middle" transform="matrix(0.00393205140378444 0 0 0.00393205140378444 0.683013 -2.18301)">21</text>
<text class="face_text" text-anchor="middle" dominant-baseline="middle" transform="matrix(0.00393205140378444 0 0 0.00393205140378444 4.15246e-16 -1.78868)">9</text>
<text class="face_text" text-anchor="middle" dominant-baseline="middle" transform="matrix(0.00393205140378444 0 0 0.00393205140378444 3.53525e-17 -1.21132)">8</text>
<rect class="edge_bg" x="0.4606793513673426" y="-0.03932051403784443" width="0.07864102807568879" height="0.07864102807568879"/>
<text class="edge_text" text-anchor="middle" dominant-baseline="middle" transform="matrix(0.00393205140378444 0 0 0.00393205140378444 0.49999986540518704 -3.535250795749691e-17)">1</text>
<rect class="edge_bg" x="0.8936919186647492" y="-0.2893205140378443" width="0.07864102807568879" height="0.07864102807568879"/>
<text class="edge_text" text-anchor="middle" dominant-baseline="middle" transform="matrix(0.00393205140378444 0 0 0.00393205140378444 0.9330124327025936 -0.2499999999999999)">15</text>
<rect class="edge_bg" x="0.8936920532595621" y="-0.7893205140378444" width="0.07864102807568879" height="0.07864102807568879"/>
<text class="edge_text" text-anchor="middle" dominant-baseline="middle" transform="matrix(0.00393205140378444 0 0 0.00393205140378444 0.9330125672974066 -0.75)">14</text>
<rect class="edge_bg" x="0.8936919186647492" y="-1.2893205140378443" width="0.07864102807568879" height="0.07864102807568879"/>
<text class="edge_text" text-anchor="middle" dominant-baseline="middle" transform="matrix(0.00393205140378444 0 0 0.00393205140378444 0.9330124327025936 -1.25)">30</text>
<rect class="edge_bg" x="0.8936924859621557" y="-1.7893178121456248" width="0.07864102807568879" height="0.07864102807568879"/>
<text class="edge_text" text-anchor="middle" dominant-baseline="middle" transform="matrix(0.00393205140378444 0 0 0.00393205140378444 0.9330130000000001 -1.7499972981077805)">31</text>
<rect class="edge_bg" x="0.2106794859621561" y="-1.972338081335251" width="0.07864102807568879" height="0.07864102807568879"/>
<text class="edge_text" text-anchor="middle" dominant-baseline="middle" transform="matrix(0.00393205140378444 0 0 0.00393205140378444 0.2500000000000005 -1.9330175672974066)">27</text>
<rect class="edge_bg" x="-0.03932051403784434" y="-1.5393156486326571" width="0.07864102807568879" height="0.07864102807568879"/>
<text class="edge_text" text-anchor="middle" dominant-baseline="middle" transform="matrix(0.00393205140378444 0 0 0.00393205140378444 5.302875397874845e-17 -1.4999951345948128)">12</text>
</svg>
