<?xml version="1.0" encoding="utf-8"?>
<svg version="1.1" id="layer_1" xmlns="http://www.w3.org/2000/svg" xmlns:xlink="http://www.w3.org/1999/xlink" x="0px" y="0px" viewBox="-0.5500000000000002 -0.5500000000000004 2.4660227018922196 2.966030269189626" style="enable-background:new -0.5500000000000002 -0.5500000000000004 2.4660227018922196 2.966030269189626;" xml:space="preserve">
<style type="text/css">
  .no_fill_black_stroke {fill:none; stroke:#000000; stroke-width:0.02; stroke-miterlimit:10;}
  .face_text {fill:#000000; font-family:monospace;}
  .edge_text {fill:#ff0000; font-family:monospace;}
  .edge_bg {fill:#f3f3f3; stroke:#606060; stroke-width:0.02;}
</style>
<polygon class="no_fill_black_stroke" points="0.5000000000000001, -0.5 -0.5, -0.5000000000000001 -0.5000000000000001, 0.5 0.4999999999999999, 0.5000000000000001"/>
<polygon class="no_fill_black_stroke" points="0.4999998654051868, 0.4999999999999999 1.3660252691896257, 1.414100318299876e-16 0.49999986540518754, -0.5000000000000003"/>
<polygon class="no_fill_black_stroke" points="0.4999997308103742, 0.49999999999999994 1.3660251345948131, 1.0 1.3660251345948127, -1.1102230246251565e-16"/>
<polygon class="no_fill_black_stroke" points="0.4999998654051872, 0.4999999999999999 0.4999998654051868, 1.5 1.3660252691896257, 1.0000000000000002"/>
<polygon class="no_fill_black_stroke" points="0.4999972981077806, 1.4999972981077803 0.9999972981077807, 2.366022701892219 1.8660227018922193, 1.866022701892219 1.3660227018922193, 0.9999972981077805"/>
<polygon class="no_fill_black_stroke" points="0.5, 1.4999997308103743 0.0, 2.366025134594813 0.9999999999999999, 2.366025134594813"/>
<polygon class="no_fill_black_stroke" points="0.5000000000000002, 1.5000048654051872 -0.5, 1.5000048654051872 2.85514761275093e-17, 2.366030269189626"/>
<polygon class="no_fill_black_stroke" points="0.5000000000000001, 1.4999951345948128 7.07050079574969e-17, 0.6339697308103741 -0.49999999999999994, 1.4999951345948128"/>
<text class="face_text" text-anchor="middle" dominant-baseline="middle" transform="matrix(0.004932045403784439 0 0 0.004932045403784439 0.0 0.0)">4</text>
<text class="face_text" text-anchor="middle" dominant-baseline="middle" transform="matrix(0.004932045403784439 0 0 0.004932045403784439 0.788675 0.0)">0</text>
<text class="face_text" text-anchor="middle" dominant-baseline="middle" transform="matrix(0.004932045403784439 0 0 0.004932045403784439 1.07735 0.5)">7</text>
<text class="face_text" text-anchor="middle" dominant-baseline="middle" transform="matrix(0.004932045403784439 0 0 0.004932045403784439 0.788675 1.0)">6</text>
<text class="face_text" text-anchor="middle" dominant-baseline="middle" transform="matrix(0.004932045403784439 0 0 0.004932045403784439 1.18301 1.68301)">17</text>
<text class="face_text" text-anchor="middle" dominant-baseline="middle" transform="matrix(0.004932045403784439 0 0 0.004932045403784439 0.5 2.07735)">19</text>
<text class="face_text" text-anchor="middle" dominant-baseline="middle" transform="matrix(0.004932045403784439 0 0 0.004932045403784439 1.34609e-16 1.78868)">10</text>
<text class="face_text" text-anchor="middle" dominant-baseline="middle" transform="matrix(0.004932045403784439 0 0 0.004932045403784439 3.53525e-17 1.21132)">5</text>
<rect class="edge_bg" x="0.45067941136734263" y="-0.04932045403784443" width="0.09864090807568879" height="0.09864090807568879"/>
<text class="edge_text" text-anchor="middle" dominant-baseline="middle" transform="matrix(0.004932045403784439 0 0 0.004932045403784439 0.49999986540518704 -3.535250795749691e-17)">0</text>
<rect class="edge_bg" x="0.8836919786647492" y="0.20067954596215548" width="0.09864090807568879" height="0.09864090807568879"/>
<text class="edge_text" text-anchor="middle" dominant-baseline="middle" transform="matrix(0.004932045403784439 0 0 0.004932045403784439 0.9330124327025936 0.2499999999999999)">6</text>
<rect class="edge_bg" x="0.8836921132595622" y="0.7006795459621556" width="0.09864090807568879" height="0.09864090807568879"/>
<text class="edge_text" text-anchor="middle" dominant-baseline="middle" transform="matrix(0.004932045403784439 0 0 0.004932045403784439 0.9330125672974066 0.75)">7</text>
<rect class="edge_bg" x="0.8836895459621555" y="1.200676844069936" width="0.09864090807568879" height="0.09864090807568879"/>
<text class="edge_text" text-anchor="middle" dominant-baseline="middle" transform="matrix(0.004932045403784439 0 0 0.004932045403784439 0.9330099999999999 1.2499972981077805)">22</text>
<rect class="edge_bg" x="0.7006795459621558" y="1.883691978664749" width="0.09864090807568879" height="0.09864090807568879"/>
<text class="edge_text" text-anchor="middle" dominant-baseline="middle" transform="matrix(0.004932045403784439 0 0 0.004932045403784439 0.7500000000000001 1.9330124327025935)">26</text>
<rect class="edge_bg" x="0.20067954596215581" y="1.8836971132595621" width="0.09864090807568879" height="0.09864090807568879"/>
<text class="edge_text" text-anchor="middle" dominant-baseline="middle" transform="matrix(0.004932045403784439 0 0 0.004932045403784439 0.2500000000000002 1.9330175672974066)">25</text>
<rect class="edge_bg" x="-0.04932045403784434" y="1.4506746805569684" width="0.09864090807568879" height="0.09864090807568879"/>
<text class="edge_text" text-anchor="middle" dominant-baseline="middle" transform="matrix(0.004932045403784439 0 0 0.004932045403784439 5.302875397874845e-17 1.4999951345948128)">10</text>
</svg>
