<?xml version="1.0" encoding="utf-8"?>
<svg version="1.1" id="layer_1" xmlns="http://www.w3.org/2000/svg" xmlns:xlink="http://www.w3.org/1999/xlink" x="0px" y="0px" viewBox="-0.5500000000000002 -1.05 1.9660252691896258 1.6" style="enable-background:new -0.5500000000000002 -1.05 1.9660252691896258 1.6;" xml:space="preserve">
<style type="text/css">
  .no_fill_black_stroke {fill:none; stroke:#000000; stroke-width:0.02; stroke-miterlimit:10;}
  .face_text {fill:#000000; font-family:monospace;}
  .edge_text {fill:#ff0000; font-family:monospace;}
  .edge_bg {fill:#f3f3f3; stroke:#606060; stroke-width:0.02;}
</style>
<polygon class="no_fill_black_stroke" points="0.5000000000000001, -0.5 -0.5, -0.5000000000000001 -0.5000000000000001, 0.5 0.4999999999999999, 0.5000000000000001"/>
<polygon class="no_fill_black_stroke" points="0.4999998654051868, 0.4999999999999999 1.3660252691896257, 1.414100318299876e-16 0.49999986540518754, -0.5000000000000003"/>
<polygon class="no_fill_black_stroke" points="1.3660251345948131, 0.0 1.3660251345948131, -1.0 0.4999997308103742, -0.5000000000000001"/>
<text class="face_text" text-anchor="middle" dominant-baseline="middle" transform="matrix(0.0032 0 0 0.0032 0.0 0.0)">4</text>
<text class="face_text" text-anchor="middle" dominant-baseline="middle" transform="matrix(0.0032 0 0 0.0032 0.788675 0.0)">0</text>
<text class="face_text" text-anchor="middle" dominant-baseline="middle" transform="matrix(0.0032 0 0 0.0032 1.07735 -0.5)">1</text>
<rect class="edge_bg" x="0.467999865405187" y="-0.032000000000000035" width="0.064" height="0.064"/>
<text class="edge_text" text-anchor="middle" dominant-baseline="middle" transform="matrix(0.0032 0 0 0.0032 0.49999986540518704 -3.535250795749691e-17)">0</text>
<rect class="edge_bg" x="0.9010124327025936" y="-0.2819999999999999" width="0.064" height="0.064"/>
<text class="edge_text" text-anchor="middle" dominant-baseline="middle" transform="matrix(0.0032 0 0 0.0032 0.9330124327025936 -0.2499999999999999)">3</text>
</svg>
