<?xml version="1.0" encoding="utf-8"?>
<svg version="1.1" id="layer_1" xmlns="http://www.w3.org/2000/svg" xmlns:xlink="http://www.w3.org/1999/xlink" x="0px" y="0px" viewBox="-0.5500000000000002 -1.55 1.9660252691896258 2.1" style="enable-background:new -0.5500000000000002 -1.55 1.9660252691896258 2.1;" xml:space="preserve">
<style type="text/css">
  .no_fill_black_stroke {fill:none; stroke:#000000; stroke-width:0.02; stroke-miterlimit:10;}
  .face_text {fill:#000000; font-family:monospace;}
  .edge_text {fill:#ff0000; font-family:monospace;}
  .edge_bg {fill:#f3f3f3; stroke:#606060; stroke-width:0.02;}
</style>
<polygon class="no_fill_black_stroke" points="0.5000000000000001, -0.5 -0.5, -0.5000000000000001 -0.5000000000000001, 0.5 0.4999999999999999, 0.5000000000000001"/>
<polygon class="no_fill_black_stroke" points="0.4999998654051868, 0.4999999999999999 1.3660252691896257, 1.414100318299876e-16 0.49999986540518754, -0.5000000000000003"/>
<polygon class="no_fill_black_stroke" points="1.3660251345948131, 0.0 1.3660251345948131, -1.0 0.4999997308103742, -0.5000000000000001"/>
<polygon class="no_fill_black_stroke" points="1.3660252691896257, -1.0 0.4999998654051872, -1.5 0.4999998654051868, -0.5000000000000001"/>
<polygon class="no_fill_black_stroke" points="0.500000134594813, -1.5 -0.36602526918962586, -1.0 0.500000134594813, -0.5"/>
<text class="face_text" text-anchor="middle" dominant-baseline="middle" transform="matrix(0.003932050538379252 0 0 0.003932050538379252 0.0 0.0)">4</text>
<text class="face_text" text-anchor="middle" dominant-baseline="middle" transform="matrix(0.003932050538379252 0 0 0.003932050538379252 0.788675 0.0)">0</text>
<text class="face_text" text-anchor="middle" dominant-baseline="middle" transform="matrix(0.003932050538379252 0 0 0.003932050538379252 1.07735 -0.5)">1</text>
<text class="face_text" text-anchor="middle" dominant-baseline="middle" transform="matrix(0.003932050538379252 0 0 0.003932050538379252 0.788675 -1.0)">2</text>
<text class="face_text" text-anchor="middle" dominant-baseline="middle" transform="matrix(0.003932050538379252 0 0 0.003932050538379252 0.211325 -1.0)">3</text>
<rect class="edge_bg" x="0.46067936002139453" y="-0.03932050538379255" width="0.07864101076758503" height="0.07864101076758503"/>
<text class="edge_text" text-anchor="middle" dominant-baseline="middle" transform="matrix(0.003932050538379252 0 0 0.003932050538379252 0.49999986540518704 -3.535250795749691e-17)">0</text>
<rect class="edge_bg" x="0.8936919273188011" y="-0.2893205053837924" width="0.07864101076758503" height="0.07864101076758503"/>
<text class="edge_text" text-anchor="middle" dominant-baseline="middle" transform="matrix(0.003932050538379252 0 0 0.003932050538379252 0.9330124327025936 -0.2499999999999999)">3</text>
<rect class="edge_bg" x="0.893692061913614" y="-0.7893205053837925" width="0.07864101076758503" height="0.07864101076758503"/>
<text class="edge_text" text-anchor="middle" dominant-baseline="middle" transform="matrix(0.003932050538379252 0 0 0.003932050538379252 0.9330125672974066 -0.75)">2</text>
<rect class="edge_bg" x="0.46067962921102046" y="-1.0393205053837926" width="0.07864101076758503" height="0.07864101076758503"/>
<text class="edge_text" text-anchor="middle" dominant-baseline="middle" transform="matrix(0.003932050538379252 0 0 0.003932050538379252 0.500000134594813 -1.0)">4</text>
</svg>
