<?xml version="1.0" encoding="utf-8"?>
<svg version="1.1" xmlns="http://www.w3.org/2000/svg" viewBox="-1.0681731102327334 -1.057735447293768 4.78549064137526 5.471805964214047" style="enable-background:new -1.0681731102327334 -1.057735447293768 4.78549064137526 5.471805964214047;">
<style type="text/css">
  .face_stroke {fill:none; stroke:#000000; stroke-width:0.02; stroke-miterlimit:10;}
  .face_text {fill:#000000; font-family:monospace;}
  .edge_text {fill:#ff0000; font-family:monospace;}
  .edge_bg {fill:#f3f3f3; stroke:#606060; stroke-width:0.01;}
</style>
<polygon class="face_stroke" points="0.6881909602355868,-0.5 -0.26286555605956674,-0.8090169943749475 -0.8506508083520399,-1.0417467896404342e-16 -0.2628655560595669,0.8090169943749473 0.6881909602355867,0.5000000000000001"/>
<polygon class="face_stroke" points="0.6881908654051868,0.4999999999999999 1.554216269189626,1.414100318299876e-16 0.6881908654051876,-0.5000000000000003"/>
<polygon class="face_stroke" points="0.6881907308103742,0.49999999999999994 1.554216134594813,1.0 1.554216134594813,-1.1102230246251565e-16"/>
<polygon class="face_stroke" points="0.6881908654051871,0.4999999999999999 0.6881908654051868,1.5 1.554216269189626,1.0000000000000002"/>
<polygon class="face_stroke" points="0.6881914138139675,1.4999999359985408 0.28145477073816716,2.4135453936411415 0.48936646155592656,3.3916929943749476 1.2325112870333208,4.060823600733806 2.227033182401593,4.16535206400146 3.093058586186033,3.665352064001459 3.499795229261833,2.7518066063588584 3.2918835384440746,1.773659005625054 2.548738712966679,1.1045283992661945 1.5542168175984046,0.9999999359985412"/>
<polygon class="face_stroke" points="0.688191179481358,1.5000000263632485 -0.3063307158869155,1.604528489630902 0.28145453640555734,2.4135454840058497"/>
<polygon class="face_stroke" points="0.6881907158869155,1.499999510369098 0.10040546359444244,0.6909825159941504 -0.3063311794813579,1.6045279736367513"/>
<text class="face_text" text-anchor="middle" dominant-baseline="middle" transform="matrix(0.00957098128275052 0 0 0.00957098128275052 0.0 0.0)">0</text>
<text class="face_text" text-anchor="middle" dominant-baseline="middle" transform="matrix(0.00957098128275052 0 0 0.00957098128275052 0.976866 0.0)">5</text>
<text class="face_text" text-anchor="middle" dominant-baseline="middle" transform="matrix(0.00957098128275052 0 0 0.00957098128275052 1.265541 0.5)">7</text>
<text class="face_text" text-anchor="middle" dominant-baseline="middle" transform="matrix(0.00957098128275052 0 0 0.00957098128275052 0.976866 1.0)">6</text>
<text class="face_text" text-anchor="middle" dominant-baseline="middle" transform="matrix(0.00957098128275052 0 0 0.00957098128275052 1.890625 2.582676)">36</text>
<text class="face_text" text-anchor="middle" dominant-baseline="middle" transform="matrix(0.00957098128275052 0 0 0.00957098128275052 0.221105 1.839358)">3</text>
<text class="face_text" text-anchor="middle" dominant-baseline="middle" transform="matrix(0.00957098128275052 0 0 0.00957098128275052 0.160755 1.26517)">4</text>
<rect class="edge_bg" x="0.5924810525776818" y="-0.09570981282750524" width="0.1914196256550104" height="0.1914196256550104"/>
<text class="edge_text" text-anchor="middle" dominant-baseline="middle" transform="matrix(0.00957098128275052 0 0 0.00957098128275052 0.688190865405187 -3.535250795749691e-17)">6</text>
<rect class="edge_bg" x="1.0254936198750886" y="0.1542901871724947" width="0.1914196256550104" height="0.1914196256550104"/>
<text class="edge_text" text-anchor="middle" dominant-baseline="middle" transform="matrix(0.00957098128275052 0 0 0.00957098128275052 1.1212034327025937 0.2499999999999999)">5</text>
<rect class="edge_bg" x="1.0254937544699014" y="0.6542901871724948" width="0.1914196256550104" height="0.1914196256550104"/>
<text class="edge_text" text-anchor="middle" dominant-baseline="middle" transform="matrix(0.00957098128275052 0 0 0.00957098128275052 1.1212035672974066 0.75)">8</text>
<rect class="edge_bg" x="1.0254943028786816" y="1.1542901231710356" width="0.1914196256550104" height="0.1914196256550104"/>
<text class="edge_text" text-anchor="middle" dominant-baseline="middle" transform="matrix(0.00957098128275052 0 0 0.00957098128275052 1.1212041157061867 1.2499999359985408)">56</text>
<rect class="edge_bg" x="0.3891130451159526" y="1.861062942357044" width="0.1914196256550104" height="0.1914196256550104"/>
<text class="edge_text" text-anchor="middle" dominant-baseline="middle" transform="matrix(0.00957098128275052 0 0 0.00957098128275052 0.4848228579434578 1.956772755184549)">55</text>
<rect class="edge_bg" x="0.09521995537527365" y="1.4565539291754197" width="0.1914196256550104" height="0.1914196256550104"/>
<text class="edge_text" text-anchor="middle" dominant-baseline="middle" transform="matrix(0.00957098128275052 0 0 0.00957098128275052 0.19092976820277885 1.5522637420029248)">3</text>
</svg>
