<?xml version="1.0" encoding="utf-8"?>
<svg version="1.1" xmlns="http://www.w3.org/2000/svg" viewBox="-1.0080514011322328 -0.9690525182939873 3.462813041164246 3.520781526218877" style="enable-background:new -1.0080514011322328 -0.9690525182939873 3.462813041164246 3.520781526218877;">
<style type="text/css">
  .face_stroke {fill:none; stroke:#000000; stroke-width:0.02; stroke-miterlimit:10;}
  .face_text {fill:#000000; font-family:monospace;}
  .edge_text {fill:#ff0000; font-family:monospace;}
  .edge_bg {fill:#f3f3f3; stroke:#606060; stroke-width:0.01;}
</style>
<polygon class="face_stroke" points="0.6881909602355868,-0.5 -0.26286555605956674,-0.8090169943749475 -0.8506508083520399,-1.0417467896404342e-16 -0.2628655560595669,0.8090169943749473 0.6881909602355867,0.5000000000000001"/>
<polygon class="face_stroke" points="0.6881908654051868,0.4999999999999999 1.554216269189626,1.414100318299876e-16 0.6881908654051876,-0.5000000000000003"/>
<polygon class="face_stroke" points="0.6881908179899874,0.5000001457811754 0.8961025088077463,1.4781477465149808 1.89062440417602,1.5826762097826346 2.29736104725182,0.6691307521400344 1.5542162217744258,1.457811755756211e-07"/>
<polygon class="face_stroke" points="0.8961028205186421,1.4781480263632485 1.3028394635944425,2.3916934840058497 1.8906247158869156,1.5826764896309022"/>
<polygon class="face_stroke" points="0.8961025364055576,1.4781475159941504 0.30831728411308434,2.2871645103690974 1.3028391794813579,2.3916929736367516"/>
<polygon class="face_stroke" points="0.8961027158869155,1.478147489630902 -0.09841917948135787,1.3736190263632484 0.30831746359444245,2.2871644840058494"/>
<polygon class="face_stroke" points="0.896102179481358,1.4781479736367515 0.48936553640555763,0.5646025159941505 -0.09841971588691562,1.3736195103690978"/>
<text class="face_text" text-anchor="middle" dominant-baseline="middle" transform="matrix(0.006925626082328492 0 0 0.006925626082328492 0.0 0.0)">0</text>
<text class="face_text" text-anchor="middle" dominant-baseline="middle" transform="matrix(0.006925626082328492 0 0 0.006925626082328492 0.976866 0.0)">31</text>
<text class="face_text" text-anchor="middle" dominant-baseline="middle" transform="matrix(0.006925626082328492 0 0 0.006925626082328492 1.465299 0.845991)">8</text>
<text class="face_text" text-anchor="middle" dominant-baseline="middle" transform="matrix(0.006925626082328492 0 0 0.006925626082328492 1.363189 1.817506)">10</text>
<text class="face_text" text-anchor="middle" dominant-baseline="middle" transform="matrix(0.006925626082328492 0 0 0.006925626082328492 0.835753 2.052335)">9</text>
<text class="face_text" text-anchor="middle" dominant-baseline="middle" transform="matrix(0.006925626082328492 0 0 0.006925626082328492 0.368667 1.712977)">7</text>
<text class="face_text" text-anchor="middle" dominant-baseline="middle" transform="matrix(0.006925626082328492 0 0 0.006925626082328492 0.429016 1.13879)">5</text>
<rect class="edge_bg" x="0.6189346045819021" y="-0.06925626082328497" width="0.13851252164656985" height="0.13851252164656985"/>
<text class="edge_text" text-anchor="middle" dominant-baseline="middle" transform="matrix(0.006925626082328492 0 0 0.006925626082328492 0.688190865405187 -3.535250795749691e-17)">42</text>
<rect class="edge_bg" x="1.0519472590589216" y="0.18074388495789043" width="0.13851252164656985" height="0.13851252164656985"/>
<text class="edge_text" text-anchor="middle" dominant-baseline="middle" transform="matrix(0.006925626082328492 0 0 0.006925626082328492 1.1212035198822066 0.25000014578117535)">43</text>
<rect class="edge_bg" x="1.324107507379494" y="1.4611559971737904" width="0.13851252164656985" height="0.13851252164656985"/>
<text class="edge_text" text-anchor="middle" dominant-baseline="middle" transform="matrix(0.006925626082328492 0 0 0.006925626082328492 1.3933637682027789 1.5304122579970754)">9</text>
<rect class="edge_bg" x="1.0302145971201728" y="1.8656639839921658" width="0.13851252164656985" height="0.13851252164656985"/>
<text class="edge_text" text-anchor="middle" dominant-baseline="middle" transform="matrix(0.006925626082328492 0 0 0.006925626082328492 1.0994708579434578 1.9349202448154508)">11</text>
<rect class="edge_bg" x="0.5329538289173941" y="1.8133997259950907" width="0.13851252164656985" height="0.13851252164656985"/>
<text class="edge_text" text-anchor="middle" dominant-baseline="middle" transform="matrix(0.006925626082328492 0 0 0.006925626082328492 0.602210089740679 1.8826559868183756)">12</text>
<rect class="edge_bg" x="0.32958497097393624" y="1.3566274811796397" width="0.13851252164656985" height="0.13851252164656985"/>
<text class="edge_text" text-anchor="middle" dominant-baseline="middle" transform="matrix(0.006925626082328492 0 0 0.006925626082328492 0.3988412317972212 1.4258837420029247)">5</text>
</svg>
