<?xml version="1.0" encoding="utf-8"?>
<svg version="1.1" xmlns="http://www.w3.org/2000/svg" viewBox="-2.888635989122293 -1.7988418444720589 5.6507617564701595 4.755643963167333" style="enable-background:new -2.888635989122293 -1.7988418444720589 5.6507617564701595 4.755643963167333;">
<style type="text/css">
  .face_stroke {fill:none; stroke:#000000; stroke-width:0.02; stroke-miterlimit:10;}
  .face_text {fill:#000000; font-family:monospace;}
  .edge_text {fill:#ff0000; font-family:monospace;}
  .edge_bg {fill:#f3f3f3; stroke:#606060; stroke-width:0.01;}
</style>
<polygon class="face_stroke" points="0.6881909602355868,-0.5 -0.26286555605956674,-0.8090169943749475 -0.8506508083520399,-1.0417467896404342e-16 -0.2628655560595669,0.8090169943749473 0.6881909602355867,0.5000000000000001"/>
<polygon class="face_stroke" points="0.6881908654051868,0.4999999999999999 1.554216269189626,1.414100318299876e-16 0.6881908654051876,-0.5000000000000003"/>
<polygon class="face_stroke" points="1.5542162217744258,-1.457811755756211e-07 2.29736104725182,-0.6691307521400337 1.89062440417602,-1.5826762097826346 0.8961025088077466,-1.478147746514981 0.688190817989987,-0.5000001457811758"/>
<polygon class="face_stroke" points="1.5542162194091507,-1.2933869654452312e-07 2.505272735704304,0.30901686503625125 2.297361044886545,-0.6691307356975547"/>
<polygon class="face_stroke" points="1.5542164439404333,5.625052534874442e-09 0.9664311916479602,0.8090169999999999 1.5542164439404331,1.6180339943749473 2.5052729602355868,1.309017 2.5052729602355863,0.30901699999999965"/>
<polygon class="face_stroke" points="0.9664314635944424,0.8090165159941506 0.5596948205186421,1.7225619736367515 1.5542167158869153,1.6180335103690981"/>
<polygon class="face_stroke" points="0.5596942841130844,1.722562489630902 1.1474795364055572,2.5315794840058494 1.5542161794813576,1.6180340263632482"/>
<polygon class="face_stroke" points="0.5596944635944425,1.7225625159941504 0.1529578205186421,2.636107973636751 1.1474797158869157,2.531579510369098"/>
<polygon class="face_stroke" points="0.5596941794813579,1.7225620263632486 -0.4348277158869155,1.8270904896309021 0.15295753640555737,2.6361074840058496"/>
<polygon class="face_stroke" points="-0.43482753640555755,1.8270905159941506 -0.841564179481358,2.7406359736367514 0.15295771588691554,2.636107510369098"/>
<polygon class="face_stroke" points="-0.43482782051864205,1.8270910263632485 -1.4293497158869155,1.931619489630902 -0.8415644635944426,2.7406364840058495"/>
<polygon class="face_stroke" points="-0.43482728411308447,1.827090510369098 -1.0226125364055576,1.0180735159941503 -1.429349179481358,1.9316189736367515"/>
<polygon class="face_stroke" points="-1.02261295274818,1.0180737521400336 -1.7657577782255742,0.34894314578117547 -2.631783182010013,0.8489431457811751 -2.4238714911922536,1.8270907465149806 -1.4293495958239801,1.9316192097826343"/>
<polygon class="face_stroke" points="-1.022612955113455,1.0180737356975547 -0.8147012642956957,0.039926134963748916 -1.7657577805908495,0.34894312933869637"/>
<text class="face_text" text-anchor="middle" dominant-baseline="middle" transform="matrix(0.009511287926334665 0 0 0.009511287926334665 0.0 0.0)">0</text>
<text class="face_text" text-anchor="middle" dominant-baseline="middle" transform="matrix(0.009511287926334665 0 0 0.009511287926334665 0.976866 0.0)">31</text>
<text class="face_text" text-anchor="middle" dominant-baseline="middle" transform="matrix(0.009511287926334665 0 0 0.009511287926334665 1.465299 -0.845991)">35</text>
<text class="face_text" text-anchor="middle" dominant-baseline="middle" transform="matrix(0.009511287926334665 0 0 0.009511287926334665 2.11895 -0.120038)">32</text>
<text class="face_text" text-anchor="middle" dominant-baseline="middle" transform="matrix(0.009511287926334665 0 0 0.009511287926334665 1.817082 0.809017)">8</text>
<text class="face_text" text-anchor="middle" dominant-baseline="middle" transform="matrix(0.009511287926334665 0 0 0.009511287926334665 1.026781 1.383204)">5</text>
<text class="face_text" text-anchor="middle" dominant-baseline="middle" transform="matrix(0.009511287926334665 0 0 0.009511287926334665 1.08713 1.957392)">7</text>
<text class="face_text" text-anchor="middle" dominant-baseline="middle" transform="matrix(0.009511287926334665 0 0 0.009511287926334665 0.620044 2.29675)">6</text>
<text class="face_text" text-anchor="middle" dominant-baseline="middle" transform="matrix(0.009511287926334665 0 0 0.009511287926334665 0.092608 2.06192)">4</text>
<text class="face_text" text-anchor="middle" dominant-baseline="middle" transform="matrix(0.009511287926334665 0 0 0.009511287926334665 -0.374478 2.401278)">3</text>
<text class="face_text" text-anchor="middle" dominant-baseline="middle" transform="matrix(0.009511287926334665 0 0 0.009511287926334665 -0.901914 2.166449)">2</text>
<text class="face_text" text-anchor="middle" dominant-baseline="middle" transform="matrix(0.009511287926334665 0 0 0.009511287926334665 -0.962263 1.592261)">1</text>
<text class="face_text" text-anchor="middle" dominant-baseline="middle" transform="matrix(0.009511287926334665 0 0 0.009511287926334665 -1.854675 1.194934)">26</text>
<text class="face_text" text-anchor="middle" dominant-baseline="middle" transform="matrix(0.009511287926334665 0 0 0.009511287926334665 -1.201024 0.468981)">30</text>
<rect class="edge_bg" x="0.5930779861418404" y="-0.0951128792633467" width="0.19022575852669332" height="0.19022575852669332"/>
<text class="edge_text" text-anchor="middle" dominant-baseline="middle" transform="matrix(0.009511287926334665 0 0 0.009511287926334665 0.688190865405187 -3.535250795749691e-17)">42</text>
<rect class="edge_bg" x="1.02609064061886" y="-0.345113025044522" width="0.19022575852669332" height="0.19022575852669332"/>
<text class="edge_text" text-anchor="middle" dominant-baseline="middle" transform="matrix(0.009511287926334665 0 0 0.009511287926334665 1.1212035198822066 -0.25000014578117535)">50</text>
<rect class="edge_bg" x="1.830675752884501" y="-0.42967831178147226" width="0.19022575852669332" height="0.19022575852669332"/>
<text class="edge_text" text-anchor="middle" dominant-baseline="middle" transform="matrix(0.009511287926334665 0 0 0.009511287926334665 1.9257886321478477 -0.3345654325181256)">52</text>
<rect class="edge_bg" x="1.9346318228246633" y="0.0593956235491796" width="0.19022575852669332" height="0.19022575852669332"/>
<text class="edge_text" text-anchor="middle" dominant-baseline="middle" transform="matrix(0.009511287926334665 0 0 0.009511287926334665 2.02974470208801 0.15450850281252626)">44</text>
<rect class="edge_bg" x="1.1652112104773322" y="1.1184121339182778" width="0.19022575852669332" height="0.19022575852669332"/>
<text class="edge_text" text-anchor="middle" dominant-baseline="middle" transform="matrix(0.009511287926334665 0 0 0.009511287926334665 1.2603240897406789 1.2135250131816244)">10</text>
<rect class="edge_bg" x="0.9618423525338744" y="1.5751853787337284" width="0.19022575852669332" height="0.19022575852669332"/>
<text class="edge_text" text-anchor="middle" dominant-baseline="middle" transform="matrix(0.009511287926334665 0 0 0.009511287926334665 1.056955231797221 1.670298257997075)">5</text>
<rect class="edge_bg" x="0.7584742104773323" y="2.0319581339182777" width="0.19022575852669332" height="0.19022575852669332"/>
<text class="edge_text" text-anchor="middle" dominant-baseline="middle" transform="matrix(0.009511287926334665 0 0 0.009511287926334665 0.853587089740679 2.127071013181624)">8</text>
<rect class="edge_bg" x="0.2612129786801112" y="2.0842218759212026" width="0.19022575852669332" height="0.19022575852669332"/>
<text class="edge_text" text-anchor="middle" dominant-baseline="middle" transform="matrix(0.009511287926334665 0 0 0.009511287926334665 0.35632585794345784 2.179334755184549)">7</text>
<rect class="edge_bg" x="-0.23604778952266764" y="2.136486133918278" width="0.19022575852669332" height="0.19022575852669332"/>
<text class="edge_text" text-anchor="middle" dominant-baseline="middle" transform="matrix(0.009511287926334665 0 0 0.009511287926334665 -0.14093491025932098 2.2315990131816243)">3</text>
<rect class="edge_bg" x="-0.7333090213198888" y="2.188750875921202" width="0.19022575852669332" height="0.19022575852669332"/>
<text class="edge_text" text-anchor="middle" dominant-baseline="middle" transform="matrix(0.009511287926334665 0 0 0.009511287926334665 -0.6381961420565422 2.283863755184549)">4</text>
<rect class="edge_bg" x="-1.0272011110605677" y="1.784241862739578" width="0.19022575852669332" height="0.19022575852669332"/>
<text class="edge_text" text-anchor="middle" dominant-baseline="middle" transform="matrix(0.009511287926334665 0 0 0.009511287926334665 -0.9320882317972211 1.8793547420029246)">1</text>
<rect class="edge_bg" x="-1.3210941535494267" y="1.3797336016979873" width="0.19022575852669332" height="0.19022575852669332"/>
<text class="edge_text" text-anchor="middle" dominant-baseline="middle" transform="matrix(0.009511287926334665 0 0 0.009511287926334665 -1.22598127428608 1.474846480961334)">37</text>
<rect class="edge_bg" x="-1.489298247115499" y="0.5883955532547789" width="0.19022575852669332" height="0.19022575852669332"/>
<text class="edge_text" text-anchor="middle" dominant-baseline="middle" transform="matrix(0.009511287926334665 0 0 0.009511287926334665 -1.3941853678521523 0.6835084325181255)">41</text>
</svg>
