<?xml version="1.0" encoding="utf-8"?>
<svg version="1.1" xmlns="http://www.w3.org/2000/svg" viewBox="-3.5422861540438526 -3.129909586804636 6.11772563945261 7.54038103345315" style="enable-background:new -3.5422861540438526 -3.129909586804636 6.11772563945261 7.54038103345315;">
<style type="text/css">
  .face_stroke {fill:none; stroke:#000000; stroke-width:0.02; stroke-miterlimit:10;}
  .face_text {fill:#000000; font-family:monospace;}
  .edge_text {fill:#ff0000; font-family:monospace;}
  .edge_bg {fill:#f3f3f3; stroke:#606060; stroke-width:0.01;}
</style>
<polygon class="face_stroke" points="0.6881909602355868,-0.5 -0.26286555605956674,-0.8090169943749475 -0.8506508083520399,-1.0417467896404342e-16 -0.2628655560595669,0.8090169943749473 0.6881909602355867,0.5000000000000001"/>
<polygon class="face_stroke" points="0.6881908654051868,0.4999999999999999 1.554216269189626,1.414100318299876e-16 0.6881908654051876,-0.5000000000000003"/>
<polygon class="face_stroke" points="1.5542162217744258,-1.457811755756211e-07 2.29736104725182,-0.6691307521400337 1.89062440417602,-1.5826762097826346 0.8961025088077466,-1.478147746514981 0.688190817989987,-0.5000001457811758"/>
<polygon class="face_stroke" points="0.8961027357043043,-1.4781478650362512 -0.05495378059084932,-1.1691308706613037 0.6881910448865449,-0.5000002643024454"/>
<polygon class="face_stroke" points="0.8961029602355868,-1.478148 0.8961029602355868,-2.478148 -0.05495355605956673,-2.7871649943749475 -0.6427388083520399,-1.978148 -0.054953556059566894,-1.1691310056250526"/>
<polygon class="face_stroke" points="-0.6427395364055575,-1.9781474840058495 -1.0494761794813579,-1.0646020263632487 -0.05495428411308445,-1.169130489630902"/>
<polygon class="face_stroke" points="-0.6427388205186422,-1.9781479736367515 -1.6372607158869155,-1.873619510369098 -1.0494754635944428,-1.0646025159941503"/>
<polygon class="face_stroke" points="-1.6372605364055575,-1.8736194840058493 -2.043997179481358,-0.9600740263632485 -1.0494752841130843,-1.0646024896309019"/>
<polygon class="face_stroke" points="-2.0439977158869156,-0.9600735103690982 -1.4562124635944427,-0.1510565159941505 -1.0494758205186423,-1.0646019736367518"/>
<polygon class="face_stroke" points="-2.043997536405558,-0.9600734840058496 -2.450734179481358,-0.04652802636324854 -1.4562122841130845,-0.151056489630902"/>
<polygon class="face_stroke" points="-2.4507347158869157,-0.046528510369098136 -1.8629494635944428,0.7624884840058495 -1.4562128205186424,-0.15105697363675175"/>
<polygon class="face_stroke" points="-2.450734536405558,-0.046528484005849524 -2.857471179481358,0.8670169736367515 -1.8629492841130846,0.7624885103690979"/>
<polygon class="face_stroke" points="-2.8574707158869157,0.8670174896309019 -2.269685463594443,1.6760344840058496 -1.8629488205186424,0.7624890263632482"/>
<polygon class="face_stroke" points="-2.857470536405558,0.8670175159941506 -3.264207179481358,1.7805629736367514 -2.2696852841130846,1.6760345103690981"/>
<polygon class="face_stroke" points="-3.264207715886916,1.7805624896309018 -2.676422463594443,2.5895794840058493 -2.2696858205186423,1.676034026363248"/>
<polygon class="face_stroke" points="-2.676422179481358,2.5895799736367513 -1.6819002841130843,2.485051510369098 -2.2696855364055573,1.6760345159941505"/>
<polygon class="face_stroke" points="-2.676422491192253,2.589579253485019 -2.884334182010013,3.567726854218824 -2.0183087782255744,4.067726854218824 -1.2751639527481797,3.3985962478599667 -1.68190059582398,2.4850507902173655"/>
<polygon class="face_stroke" points="-1.2751635364055576,3.3985964840058496 -0.6873782841130845,2.589579489630902 -1.681900179481358,2.485051026363249"/>
<polygon class="face_stroke" points="-0.6873785958239799,2.5895792097826345 -0.2806419527481797,1.6760337521400337 -1.023786778225574,1.0069031457811755 -1.8898121820100124,1.5069031457811752 -1.6819004911922535,2.4850507465149807"/>
<polygon class="face_stroke" points="-0.280641955113455,1.6760337356975548 -0.07273026429569562,0.6978861349637488 -1.0237867805908494,1.0069031293386963"/>
<text class="face_text" text-anchor="middle" dominant-baseline="middle" transform="matrix(0.01223545127890522 0 0 0.01223545127890522 0.0 0.0)">0</text>
<text class="face_text" text-anchor="middle" dominant-baseline="middle" transform="matrix(0.01223545127890522 0 0 0.01223545127890522 0.976866 0.0)">31</text>
<text class="face_text" text-anchor="middle" dominant-baseline="middle" transform="matrix(0.01223545127890522 0 0 0.01223545127890522 1.465299 -0.845991)">35</text>
<text class="face_text" text-anchor="middle" dominant-baseline="middle" transform="matrix(0.01223545127890522 0 0 0.01223545127890522 0.50978 -1.049093)">30</text>
<text class="face_text" text-anchor="middle" dominant-baseline="middle" transform="matrix(0.01223545127890522 0 0 0.01223545127890522 0.207912 -1.978148)">26</text>
<text class="face_text" text-anchor="middle" dominant-baseline="middle" transform="matrix(0.01223545127890522 0 0 0.01223545127890522 -0.58239 -1.40396)">1</text>
<text class="face_text" text-anchor="middle" dominant-baseline="middle" transform="matrix(0.01223545127890522 0 0 0.01223545127890522 -1.109825 -1.63879)">2</text>
<text class="face_text" text-anchor="middle" dominant-baseline="middle" transform="matrix(0.01223545127890522 0 0 0.01223545127890522 -1.576911 -1.299432)">3</text>
<text class="face_text" text-anchor="middle" dominant-baseline="middle" transform="matrix(0.01223545127890522 0 0 0.01223545127890522 -1.516562 -0.725244)">4</text>
<text class="face_text" text-anchor="middle" dominant-baseline="middle" transform="matrix(0.01223545127890522 0 0 0.01223545127890522 -1.983648 -0.385886)">6</text>
<text class="face_text" text-anchor="middle" dominant-baseline="middle" transform="matrix(0.01223545127890522 0 0 0.01223545127890522 -1.923299 0.188301)">7</text>
<text class="face_text" text-anchor="middle" dominant-baseline="middle" transform="matrix(0.01223545127890522 0 0 0.01223545127890522 -2.390385 0.527659)">9</text>
<text class="face_text" text-anchor="middle" dominant-baseline="middle" transform="matrix(0.01223545127890522 0 0 0.01223545127890522 -2.330035 1.101847)">10</text>
<text class="face_text" text-anchor="middle" dominant-baseline="middle" transform="matrix(0.01223545127890522 0 0 0.01223545127890522 -2.797121 1.441205)">12</text>
<text class="face_text" text-anchor="middle" dominant-baseline="middle" transform="matrix(0.01223545127890522 0 0 0.01223545127890522 -2.736772 2.015392)">13</text>
<text class="face_text" text-anchor="middle" dominant-baseline="middle" transform="matrix(0.01223545127890522 0 0 0.01223545127890522 -2.209336 2.250222)">11</text>
<text class="face_text" text-anchor="middle" dominant-baseline="middle" transform="matrix(0.01223545127890522 0 0 0.01223545127890522 -2.107226 3.221736)">14</text>
<text class="face_text" text-anchor="middle" dominant-baseline="middle" transform="matrix(0.01223545127890522 0 0 0.01223545127890522 -1.214814 2.824409)">32</text>
<text class="face_text" text-anchor="middle" dominant-baseline="middle" transform="matrix(0.01223545127890522 0 0 0.01223545127890522 -1.112704 1.852894)">8</text>
<text class="face_text" text-anchor="middle" dominant-baseline="middle" transform="matrix(0.01223545127890522 0 0 0.01223545127890522 -0.459053 1.126941)">5</text>
<rect class="edge_bg" x="0.5658363526161349" y="-0.12235451278905224" width="0.2447090255781044" height="0.2447090255781044"/>
<text class="edge_text" text-anchor="middle" dominant-baseline="middle" transform="matrix(0.01223545127890522 0 0 0.01223545127890522 0.688190865405187 -3.535250795749691e-17)">42</text>
<rect class="edge_bg" x="0.9988490070931544" y="-0.37235465857022754" width="0.2447090255781044" height="0.2447090255781044"/>
<text class="edge_text" text-anchor="middle" dominant-baseline="middle" transform="matrix(0.01223545127890522 0 0 0.01223545127890522 1.1212035198822066 -0.25000014578117535)">50</text>
<rect class="edge_bg" x="0.6697923775063725" y="-1.1114285774584005" width="0.2447090255781044" height="0.2447090255781044"/>
<text class="edge_text" text-anchor="middle" dominant-baseline="middle" transform="matrix(0.01223545127890522 0 0 0.01223545127890522 0.7921468902954247 -0.9890740646693482)">51</text>
<rect class="edge_bg" x="0.2982201892989578" y="-1.4459940156015785" width="0.2447090255781044" height="0.2447090255781044"/>
<text class="edge_text" text-anchor="middle" dominant-baseline="middle" transform="matrix(0.01223545127890522 0 0 0.01223545127890522 0.42057470208801 -1.3236395028125263)">41</text>
<rect class="edge_bg" x="-0.47120142304837315" y="-1.695993499607428" width="0.2447090255781044" height="0.2447090255781044"/>
<text class="edge_text" text-anchor="middle" dominant-baseline="middle" transform="matrix(0.01223545127890522 0 0 0.01223545127890522 -0.34884691025932096 -1.5736389868183758)">37</text>
<rect class="edge_bg" x="-0.9684616548455944" y="-1.6437297576045031" width="0.2447090255781044" height="0.2447090255781044"/>
<text class="edge_text" text-anchor="middle" dominant-baseline="middle" transform="matrix(0.01223545127890522 0 0 0.01223545127890522 -0.8461071420565422 -1.521375244815451)">1</text>
<rect class="edge_bg" x="-1.4657224230483732" y="-1.5914654996074278" width="0.2447090255781044" height="0.2447090255781044"/>
<text class="edge_text" text-anchor="middle" dominant-baseline="middle" transform="matrix(0.01223545127890522 0 0 0.01223545127890522 -1.343367910259321 -1.4691109868183756)">4</text>
<rect class="edge_bg" x="-1.669091280991831" y="-1.134692254791977" width="0.2447090255781044" height="0.2447090255781044"/>
<text class="edge_text" text-anchor="middle" dominant-baseline="middle" transform="matrix(0.01223545127890522 0 0 0.01223545127890522 -1.5467367682027788 -1.012337742002925)">3</text>
<rect class="edge_bg" x="-1.8724594230483733" y="-0.677919499607428" width="0.2447090255781044" height="0.2447090255781044"/>
<text class="edge_text" text-anchor="middle" dominant-baseline="middle" transform="matrix(0.01223545127890522 0 0 0.01223545127890522 -1.7501049102593211 -0.5555649868183758)">7</text>
<rect class="edge_bg" x="-2.075828280991831" y="-0.221147254791977" width="0.2447090255781044" height="0.2447090255781044"/>
<text class="edge_text" text-anchor="middle" dominant-baseline="middle" transform="matrix(0.01223545127890522 0 0 0.01223545127890522 -1.953473768202779 -0.09879274200292482)">8</text>
<rect class="edge_bg" x="-2.2791964230483734" y="0.23562550039257202" width="0.2447090255781044" height="0.2447090255781044"/>
<text class="edge_text" text-anchor="middle" dominant-baseline="middle" transform="matrix(0.01223545127890522 0 0 0.01223545127890522 -2.1568419102593213 0.3579800131816242)">12</text>
<rect class="edge_bg" x="-2.482564280991831" y="0.692398745208023" width="0.2447090255781044" height="0.2447090255781044"/>
<text class="edge_text" text-anchor="middle" dominant-baseline="middle" transform="matrix(0.01223545127890522 0 0 0.01223545127890522 -2.360209768202779 0.8147532579970752)">11</text>
<rect class="edge_bg" x="-2.6859324230483734" y="1.1491715003925722" width="0.2447090255781044" height="0.2447090255781044"/>
<text class="edge_text" text-anchor="middle" dominant-baseline="middle" transform="matrix(0.01223545127890522 0 0 0.01223545127890522 -2.5635779102593212 1.2715260131816244)">16</text>
<rect class="edge_bg" x="-2.8893012809918313" y="1.6059437452080227" width="0.2447090255781044" height="0.2447090255781044"/>
<text class="edge_text" text-anchor="middle" dominant-baseline="middle" transform="matrix(0.01223545127890522 0 0 0.01223545127890522 -2.766946768202779 1.728298257997075)">15</text>
<rect class="edge_bg" x="-2.59540837073251" y="2.0104527320263985" width="0.2447090255781044" height="0.2447090255781044"/>
<text class="edge_text" text-anchor="middle" dominant-baseline="middle" transform="matrix(0.01223545127890522 0 0 0.01223545127890522 -2.473053857943458 2.1328072448154507)">13</text>
<rect class="edge_bg" x="-2.3015160562971686" y="2.4149605090621398" width="0.2447090255781044" height="0.2447090255781044"/>
<text class="edge_text" text-anchor="middle" dominant-baseline="middle" transform="matrix(0.01223545127890522 0 0 0.01223545127890522 -2.1791615435081164 2.537315021851192)">18</text>
<rect class="edge_bg" x="-1.60088637073251" y="2.8194692423954972" width="0.2447090255781044" height="0.2447090255781044"/>
<text class="edge_text" text-anchor="middle" dominant-baseline="middle" transform="matrix(0.01223545127890522 0 0 0.01223545127890522 -1.4785318579434579 2.9418237551845494)">45</text>
<rect class="edge_bg" x="-1.3069940562971687" y="2.414960465359756" width="0.2447090255781044" height="0.2447090255781044"/>
<text class="edge_text" text-anchor="middle" dominant-baseline="middle" transform="matrix(0.01223545127890522 0 0 0.01223545127890522 -1.1846395435081165 2.537314978148808)">44</text>
<rect class="edge_bg" x="-0.7745688806412043" y="1.2191139197290735" width="0.2447090255781044" height="0.2447090255781044"/>
<text class="edge_text" text-anchor="middle" dominant-baseline="middle" transform="matrix(0.01223545127890522 0 0 0.01223545127890522 -0.6522143678521521 1.3414684325181256)">10</text>
</svg>
