<?xml version="1.0" encoding="utf-8"?>
<svg version="1.1" xmlns="http://www.w3.org/2000/svg" viewBox="-2.18435319743461 -1.0697277935311895 4.202911434633633 5.735637581437326" style="enable-background:new -2.18435319743461 -1.0697277935311895 4.202911434633633 5.735637581437326;">
<style type="text/css">
  .face_stroke {fill:none; stroke:#000000; stroke-width:0.02; stroke-miterlimit:10;}
  .face_text {fill:#000000; font-family:monospace;}
  .edge_text {fill:#ff0000; font-family:monospace;}
  .edge_bg {fill:#f3f3f3; stroke:#606060; stroke-width:0.01;}
</style>
<polygon class="face_stroke" points="0.288675134594813,-0.5 -0.5773502691896258,-7.07050159149938e-17 0.288675134594813,0.5"/>
<polygon class="face_stroke" points="0.2886750397644132,0.4999999999999999 1.2397315560595668,0.8090169943749475 1.82751680835204,2.0834935792808685e-16 1.239731556059567,-0.8090169943749473 0.28867503976441344,-0.5000000000000001"/>
<polygon class="face_stroke" points="0.2886752642956956,0.5000001349637488 0.4965869551134549,1.4781477356975548 1.2397317805908494,0.8090171293386968"/>
<polygon class="face_stroke" points="0.288675044886545,0.5000002643024454 -0.4544697805908493,1.1691308706613035 0.4965867357043041,1.4781478650362514"/>
<polygon class="face_stroke" points="-0.4544699999999999,1.169131011250105 -1.4055265162951533,1.4781480056250524 -1.9933117685876267,2.287165 -1.9933117685876267,3.2871650000000003 -1.4055265162951538,4.096181994374947 -0.45447000000000026,4.405198988749895 0.4965865162951533,4.096181994374947 1.0843717685876268,3.2871650000000003 1.0843717685876268,2.2871650000000003 0.4965865162951551,1.4781480056250536"/>
<polygon class="face_stroke" points="-0.45446921940915075,1.1691308706613037 -1.197614044886545,0.5000002643024454 -1.4055257357043045,1.478147865036251"/>
<polygon class="face_stroke" points="-0.454469955113455,1.1691307356975547 -0.24655826429569566,0.1909831349637489 -1.1976147805908495,0.5000001293386964"/>
<text class="face_text" text-anchor="middle" dominant-baseline="middle" transform="matrix(0.008405822869267266 0 0 0.008405822869267266 0.0 0.0)">1</text>
<text class="face_text" text-anchor="middle" dominant-baseline="middle" transform="matrix(0.008405822869267266 0 0 0.008405822869267266 0.976866 0.0)">0</text>
<text class="face_text" text-anchor="middle" dominant-baseline="middle" transform="matrix(0.008405822869267266 0 0 0.008405822869267266 0.674998 0.929055)">4</text>
<text class="face_text" text-anchor="middle" dominant-baseline="middle" transform="matrix(0.008405822869267266 0 0 0.008405822869267266 0.110264 1.049093)">3</text>
<text class="face_text" text-anchor="middle" dominant-baseline="middle" transform="matrix(0.008405822869267266 0 0 0.008405822869267266 -0.45447 2.787165)">36</text>
<text class="face_text" text-anchor="middle" dominant-baseline="middle" transform="matrix(0.008405822869267266 0 0 0.008405822869267266 -1.019203 1.049093)">29</text>
<text class="face_text" text-anchor="middle" dominant-baseline="middle" transform="matrix(0.008405822869267266 0 0 0.008405822869267266 -0.632881 0.620038)">2</text>
<rect class="edge_bg" x="0.20461681107174057" y="-0.08405822869267275" width="0.16811645738534534" height="0.16811645738534534"/>
<text class="edge_text" text-anchor="middle" dominant-baseline="middle" transform="matrix(0.008405822869267266 0 0 0.008405822869267266 0.2886750397644132 -8.427908566546547e-17)">2</text>
<rect class="edge_bg" x="0.6801452937505998" y="0.5704504034585499" width="0.16811645738534534" height="0.16811645738534534"/>
<text class="edge_text" text-anchor="middle" dominant-baseline="middle" transform="matrix(0.008405822869267266 0 0 0.008405822869267266 0.7642035224432725 0.6545086321512226)">0</text>
<rect class="edge_bg" x="0.3085726616027521" y="0.9050158359766756" width="0.16811645738534534" height="0.16811645738534534"/>
<text class="edge_text" text-anchor="middle" dominant-baseline="middle" transform="matrix(0.008405822869267266 0 0 0.008405822869267266 0.39263089029542475 0.9890740646693482)">3</text>
<rect class="edge_bg" x="-0.06299997054509572" y="1.2395812797449057" width="0.16811645738534534" height="0.16811645738534534"/>
<text class="edge_text" text-anchor="middle" dominant-baseline="middle" transform="matrix(0.008405822869267266 0 0 0.008405822869267266 0.021058258147576947 1.3236395084375785)">55</text>
<rect class="edge_bg" x="-1.0140557062494002" y="1.2395811391561047" width="0.16811645738534534" height="0.16811645738534534"/>
<text class="edge_text" text-anchor="middle" dominant-baseline="middle" transform="matrix(0.008405822869267266 0 0 0.008405822869267266 -0.9299974775567276 1.3236393678487774)">57</text>
<rect class="edge_bg" x="-0.9101005965448249" y="0.7505072038254529" width="0.16811645738534534" height="0.16811645738534534"/>
<text class="edge_text" text-anchor="middle" dominant-baseline="middle" transform="matrix(0.008405822869267266 0 0 0.008405822869267266 -0.8260423678521522 0.8345654325181255)">38</text>
</svg>
