<?xml version="1.0" encoding="utf-8"?>
<svg version="1.1" xmlns="http://www.w3.org/2000/svg" viewBox="-2.4299339587149116 -0.9565016682939872 6.145984052188016 3.244662826218877" style="enable-background:new -2.4299339587149116 -0.9565016682939872 6.145984052188016 3.244662826218877;">
<style type="text/css">
  .face_stroke {fill:none; stroke:#000000; stroke-width:0.02; stroke-miterlimit:10;}
  .face_text {fill:#000000; font-family:monospace;}
  .edge_text {fill:#ff0000; font-family:monospace;}
  .edge_bg {fill:#f3f3f3; stroke:#606060; stroke-width:0.01;}
</style>
<polygon class="face_stroke" points="0.288675134594813,-0.5 -0.5773502691896258,-7.07050159149938e-17 0.288675134594813,0.5"/>
<polygon class="face_stroke" points="0.2886750397644132,0.4999999999999999 1.2397315560595668,0.8090169943749475 1.82751680835204,2.0834935792808685e-16 1.239731556059567,-0.8090169943749473 0.28867503976441344,-0.5000000000000001"/>
<polygon class="face_stroke" points="1.2397312841130843,0.8090165103690978 2.2342531794813576,0.9135449736367516 1.8275165364055577,-4.840058495103605e-07"/>
<polygon class="face_stroke" points="2.23425359582398,0.9135452097826345 3.2287754911922533,0.809016746514981 3.4366871820100124,-0.16913085421882454 2.570661778225574,-0.6691308542188246 1.8275169527481796,-2.4785996635690033e-07"/>
<polygon class="face_stroke" points="2.2342532841130844,0.9135454896309018 2.8220385364055574,1.7225624840058495 3.2287751794813575,0.8090170263632481"/>
<polygon class="face_stroke" points="2.234253463594442,0.9135455159941505 1.827516820518642,1.8270909736367513 2.8220387158869156,1.722562510369098"/>
<polygon class="face_stroke" points="2.234253179481358,0.9135450263632485 1.2397312841130845,1.018073489630902 1.8275165364055572,1.8270904840058497"/>
<polygon class="face_stroke" points="1.2397314635944425,1.0180735159941503 0.8329948205186422,1.9316189736367515 1.8275167158869157,1.827090510369098"/>
<polygon class="face_stroke" points="1.239731179481358,1.0180740263632484 0.2452092841130845,1.122602489630902 0.8329945364055574,1.9316194840058496"/>
<polygon class="face_stroke" points="0.24520946359444246,1.1226025159941506 -0.16152717948135792,2.0361479736367514 0.8329947158869155,1.931619510369098"/>
<polygon class="face_stroke" points="0.24521017948135795,1.1226020263632484 -0.7493117158869155,1.2271304896309019 -0.16152646359444262,2.0361474840058493"/>
<polygon class="face_stroke" points="-0.7493125364055575,1.2271305159941504 -1.1560491794813579,2.1406759736367516 -0.16152728411308448,2.036147510369098"/>
<polygon class="face_stroke" points="-0.7493118205186422,1.2271310263632484 -1.7438337158869155,1.331659489630902 -1.1560484635944428,2.1406764840058496"/>
<polygon class="face_stroke" points="-0.7493125088077466,1.227130746514981 -0.5414008179899873,0.24898314578117547 -1.4074262217744258,-0.2510168542188246 -2.15057104725182,0.41811375214003366 -1.7438344041760203,1.331659209782634"/>
<polygon class="face_stroke" points="-0.5414008654051871,0.248983 -0.5414008654051871,-0.751017 -1.4074262691896258,-0.25101700000000005"/>
<text class="face_text" text-anchor="middle" dominant-baseline="middle" transform="matrix(0.006489325652437754 0 0 0.006489325652437754 0.0 0.0)">1</text>
<text class="face_text" text-anchor="middle" dominant-baseline="middle" transform="matrix(0.006489325652437754 0 0 0.006489325652437754 0.976866 0.0)">0</text>
<text class="face_text" text-anchor="middle" dominant-baseline="middle" transform="matrix(0.006489325652437754 0 0 0.006489325652437754 1.767167 0.574187)">5</text>
<text class="face_text" text-anchor="middle" dominant-baseline="middle" transform="matrix(0.006489325652437754 0 0 0.006489325652437754 2.659579 0.17686)">8</text>
<text class="face_text" text-anchor="middle" dominant-baseline="middle" transform="matrix(0.006489325652437754 0 0 0.006489325652437754 2.761689 1.148375)">10</text>
<text class="face_text" text-anchor="middle" dominant-baseline="middle" transform="matrix(0.006489325652437754 0 0 0.006489325652437754 2.294603 1.487733)">9</text>
<text class="face_text" text-anchor="middle" dominant-baseline="middle" transform="matrix(0.006489325652437754 0 0 0.006489325652437754 1.767167 1.252903)">7</text>
<text class="face_text" text-anchor="middle" dominant-baseline="middle" transform="matrix(0.006489325652437754 0 0 0.006489325652437754 1.300081 1.592261)">6</text>
<text class="face_text" text-anchor="middle" dominant-baseline="middle" transform="matrix(0.006489325652437754 0 0 0.006489325652437754 0.772645 1.357432)">4</text>
<text class="face_text" text-anchor="middle" dominant-baseline="middle" transform="matrix(0.006489325652437754 0 0 0.006489325652437754 0.305559 1.69679)">3</text>
<text class="face_text" text-anchor="middle" dominant-baseline="middle" transform="matrix(0.006489325652437754 0 0 0.006489325652437754 -0.221876 1.46196)">2</text>
<text class="face_text" text-anchor="middle" dominant-baseline="middle" transform="matrix(0.006489325652437754 0 0 0.006489325652437754 -0.688963 1.801318)">29</text>
<text class="face_text" text-anchor="middle" dominant-baseline="middle" transform="matrix(0.006489325652437754 0 0 0.006489325652437754 -1.216398 1.566489)">28</text>
<text class="face_text" text-anchor="middle" dominant-baseline="middle" transform="matrix(0.006489325652437754 0 0 0.006489325652437754 -1.318509 0.594974)">26</text>
<text class="face_text" text-anchor="middle" dominant-baseline="middle" transform="matrix(0.006489325652437754 0 0 0.006489325652437754 -0.830076 -0.251017)">30</text>
<rect class="edge_bg" x="0.22378178324003567" y="-0.06489325652437762" width="0.12978651304875508" height="0.12978651304875508"/>
<text class="edge_text" text-anchor="middle" dominant-baseline="middle" transform="matrix(0.006489325652437754 0 0 0.006489325652437754 0.2886750397644132 -8.427908566546547e-17)">2</text>
<rect class="edge_bg" x="1.4687306537349434" y="0.33961475665724666" width="0.12978651304875508" height="0.12978651304875508"/>
<text class="edge_text" text-anchor="middle" dominant-baseline="middle" transform="matrix(0.006489325652437754 0 0 0.006489325652437754 1.533623910259321 0.4045080131816242)">6</text>
<rect class="edge_bg" x="1.965992017761702" y="0.3918792244369567" width="0.12978651304875508" height="0.12978651304875508"/>
<text class="edge_text" text-anchor="middle" dominant-baseline="middle" transform="matrix(0.006489325652437754 0 0 0.006489325652437754 2.0308852742860797 0.45677248096133427)">10</text>
<rect class="edge_bg" x="2.666620975272844" y="0.7963880014726976" width="0.12978651304875508" height="0.12978651304875508"/>
<text class="edge_text" text-anchor="middle" dominant-baseline="middle" transform="matrix(0.006489325652437754 0 0 0.006489325652437754 2.731514231797221 0.8612812579970751)">9</text>
<rect class="edge_bg" x="2.4632528332163015" y="1.2531607566572467" width="0.12978651304875508" height="0.12978651304875508"/>
<text class="edge_text" text-anchor="middle" dominant-baseline="middle" transform="matrix(0.006489325652437754 0 0 0.006489325652437754 2.528146089740679 1.3180540131816243)">11</text>
<rect class="edge_bg" x="1.9659916014190804" y="1.3054244986601715" width="0.12978651304875508" height="0.12978651304875508"/>
<text class="edge_text" text-anchor="middle" dominant-baseline="middle" transform="matrix(0.006489325652437754 0 0 0.006489325652437754 2.030884857943458 1.3703177551845491)">12</text>
<rect class="edge_bg" x="1.4687308332163014" y="1.3576887566572464" width="0.12978651304875508" height="0.12978651304875508"/>
<text class="edge_text" text-anchor="middle" dominant-baseline="middle" transform="matrix(0.006489325652437754 0 0 0.006489325652437754 1.533624089740679 1.422582013181624)">8</text>
<rect class="edge_bg" x="0.9714696014190803" y="1.4099534986601714" width="0.12978651304875508" height="0.12978651304875508"/>
<text class="edge_text" text-anchor="middle" dominant-baseline="middle" transform="matrix(0.006489325652437754 0 0 0.006489325652437754 1.0363628579434578 1.474846755184549)">7</text>
<rect class="edge_bg" x="0.47420883321630153" y="1.4622177566572467" width="0.12978651304875508" height="0.12978651304875508"/>
<text class="edge_text" text-anchor="middle" dominant-baseline="middle" transform="matrix(0.006489325652437754 0 0 0.006489325652437754 0.5391020897406791 1.5271110131816243)">3</text>
<rect class="edge_bg" x="-0.023051398580919716" y="1.5144814986601713" width="0.12978651304875508" height="0.12978651304875508"/>
<text class="edge_text" text-anchor="middle" dominant-baseline="middle" transform="matrix(0.006489325652437754 0 0 0.006489325652437754 0.04184185794345782 1.579374755184549)">4</text>
<rect class="edge_bg" x="-0.5203131667836985" y="1.5667457566572465" width="0.12978651304875508" height="0.12978651304875508"/>
<text class="edge_text" text-anchor="middle" dominant-baseline="middle" transform="matrix(0.006489325652437754 0 0 0.006489325652437754 -0.455419910259321 1.631639013181624)">38</text>
<rect class="edge_bg" x="-1.0175733985809199" y="1.6190104986601714" width="0.12978651304875508" height="0.12978651304875508"/>
<text class="edge_text" text-anchor="middle" dominant-baseline="middle" transform="matrix(0.006489325652437754 0 0 0.006489325652437754 -0.9526801420565423 1.683903755184549)">39</text>
<rect class="edge_bg" x="-1.311466713016261" y="1.21450172162443" width="0.12978651304875508" height="0.12978651304875508"/>
<text class="edge_text" text-anchor="middle" dominant-baseline="middle" transform="matrix(0.006489325652437754 0 0 0.006489325652437754 -1.2465734564918833 1.2793949781488076)">33</text>
<rect class="edge_bg" x="-1.039306823821784" y="-0.06591025652437742" width="0.12978651304875508" height="0.12978651304875508"/>
<text class="edge_text" text-anchor="middle" dominant-baseline="middle" transform="matrix(0.006489325652437754 0 0 0.006489325652437754 -0.9744135672974065 -0.0010169999999998791)">41</text>
</svg>
