<?xml version="1.0" encoding="utf-8"?>
<svg version="1.1" xmlns="http://www.w3.org/2000/svg" viewBox="-2.0842516578701424 -1.0879389135235793 5.783840689398257 3.8366614823007748" style="enable-background:new -2.0842516578701424 -1.0879389135235793 5.783840689398257 3.8366614823007748;">
<style type="text/css">
  .face_stroke {fill:none; stroke:#000000; stroke-width:0.02; stroke-miterlimit:10;}
  .face_text {fill:#000000; font-family:monospace;}
  .edge_text {fill:#ff0000; font-family:monospace;}
  .edge_bg {fill:#f3f3f3; stroke:#606060; stroke-width:0.01;}
</style>
<polygon class="face_stroke" points="0.288675134594813,-0.5 -0.5773502691896258,-7.07050159149938e-17 0.288675134594813,0.5"/>
<polygon class="face_stroke" points="0.2886750397644132,0.4999999999999999 1.2397315560595668,0.8090169943749475 1.82751680835204,2.0834935792808685e-16 1.239731556059567,-0.8090169943749473 0.28867503976441344,-0.5000000000000001"/>
<polygon class="face_stroke" points="1.8275165364055577,4.840058495103605e-07 2.234253179481358,-0.9135449736367516 1.2397312841130845,-0.8090165103690982"/>
<polygon class="face_stroke" points="1.8275169527481796,2.478599661348557e-07 2.570661778225574,0.6691308542188246 3.4366871820100124,0.16913085421882454 3.2287754911922537,-0.8090167465149806 2.2342535958239806,-0.9135452097826349"/>
<polygon class="face_stroke" points="1.827516955113455,2.643024453741205e-07 1.6196052642956955,0.978147865036251 2.570661780590849,0.669130870661304"/>
<polygon class="face_stroke" points="1.6196052194091508,0.9781471293386964 2.362750044886545,1.6472777356975548 2.570661735704305,0.6691301349637492"/>
<polygon class="face_stroke" points="1.619604955113455,0.9781472643024453 1.4116932642956956,1.9562948650362508 2.3627497805908493,1.6472778706613038"/>
<polygon class="face_stroke" points="1.6196047357043044,0.9781471349637489 0.6685482194091507,1.2871641293386964 1.4116930448865448,1.9562947356975546"/>
<polygon class="face_stroke" points="0.6685489551134551,1.2871642643024455 0.46063726429569557,2.265311865036251 1.4116937805908494,1.956294870661304"/>
<polygon class="face_stroke" points="0.6685487357043043,1.2871641349637488 -0.28250778059084936,1.5961811293386963 0.4606370448865449,2.2653117356975545"/>
<polygon class="face_stroke" points="-0.2825080448865449,1.5961812643024453 -0.49041973570430447,2.574328865036251 0.46063678059084934,2.265311870661304"/>
<polygon class="face_stroke" points="-0.2825082642956956,1.596181134963749 -1.2335647805908492,1.9051981293386964 -0.49041995511345504,2.574328735697555"/>
<polygon class="face_stroke" points="-0.2825080397644132,1.596182 -0.2825080397644132,0.596182 -1.2335645560595667,0.28716500562505254 -1.8213498083520399,1.096182 -1.233564556059567,1.9051989943749472"/>
<polygon class="face_stroke" points="-0.2825082642956956,0.596181865036251 -0.49041995511345493,-0.38196573569755465 -1.2335647805908492,0.2871648706613035"/>
<text class="face_text" text-anchor="middle" dominant-baseline="middle" transform="matrix(0.0076733229646015495 0 0 0.0076733229646015495 0.0 0.0)">1</text>
<text class="face_text" text-anchor="middle" dominant-baseline="middle" transform="matrix(0.0076733229646015495 0 0 0.0076733229646015495 0.976866 0.0)">0</text>
<text class="face_text" text-anchor="middle" dominant-baseline="middle" transform="matrix(0.0076733229646015495 0 0 0.0076733229646015495 1.767167 -0.574187)">31</text>
<text class="face_text" text-anchor="middle" dominant-baseline="middle" transform="matrix(0.0076733229646015495 0 0 0.0076733229646015495 2.659579 -0.17686)">8</text>
<text class="face_text" text-anchor="middle" dominant-baseline="middle" transform="matrix(0.0076733229646015495 0 0 0.0076733229646015495 2.005928 0.549093)">5</text>
<text class="face_text" text-anchor="middle" dominant-baseline="middle" transform="matrix(0.0076733229646015495 0 0 0.0076733229646015495 2.184339 1.098185)">7</text>
<text class="face_text" text-anchor="middle" dominant-baseline="middle" transform="matrix(0.0076733229646015495 0 0 0.0076733229646015495 1.798016 1.52724)">6</text>
<text class="face_text" text-anchor="middle" dominant-baseline="middle" transform="matrix(0.0076733229646015495 0 0 0.0076733229646015495 1.233282 1.407202)">4</text>
<text class="face_text" text-anchor="middle" dominant-baseline="middle" transform="matrix(0.0076733229646015495 0 0 0.0076733229646015495 0.84696 1.836257)">3</text>
<text class="face_text" text-anchor="middle" dominant-baseline="middle" transform="matrix(0.0076733229646015495 0 0 0.0076733229646015495 0.282226 1.716219)">2</text>
<text class="face_text" text-anchor="middle" dominant-baseline="middle" transform="matrix(0.0076733229646015495 0 0 0.0076733229646015495 -0.104097 2.145274)">29</text>
<text class="face_text" text-anchor="middle" dominant-baseline="middle" transform="matrix(0.0076733229646015495 0 0 0.0076733229646015495 -0.668831 2.025236)">28</text>
<text class="face_text" text-anchor="middle" dominant-baseline="middle" transform="matrix(0.0076733229646015495 0 0 0.0076733229646015495 -0.970699 1.096182)">26</text>
<text class="face_text" text-anchor="middle" dominant-baseline="middle" transform="matrix(0.0076733229646015495 0 0 0.0076733229646015495 -0.668831 0.167127)">30</text>
<rect class="edge_bg" x="0.21194181011839774" y="-0.07673322964601557" width="0.15346645929203098" height="0.15346645929203098"/>
<text class="edge_text" text-anchor="middle" dominant-baseline="middle" transform="matrix(0.0076733229646015495 0 0 0.0076733229646015495 0.2886750397644132 -8.427908566546547e-17)">2</text>
<rect class="edge_bg" x="1.4568906806133055" y="-0.4812412428276397" width="0.15346645929203098" height="0.15346645929203098"/>
<text class="edge_text" text-anchor="middle" dominant-baseline="middle" transform="matrix(0.0076733229646015495 0 0 0.0076733229646015495 1.533623910259321 -0.4045080131816242)">42</text>
<rect class="edge_bg" x="1.9541520446400642" y="-0.5335057106073497" width="0.15346645929203098" height="0.15346645929203098"/>
<text class="edge_text" text-anchor="middle" dominant-baseline="middle" transform="matrix(0.0076733229646015495 0 0 0.0076733229646015495 2.0308852742860797 -0.45677248096133427)">43</text>
<rect class="edge_bg" x="2.1223561382061367" y="0.257832337835859" width="0.15346645929203098" height="0.15346645929203098"/>
<text class="edge_text" text-anchor="middle" dominant-baseline="middle" transform="matrix(0.0076733229646015495 0 0 0.0076733229646015495 2.199089367852152 0.3345655674818745)">10</text>
<rect class="edge_bg" x="2.018400247910712" y="0.7469054025052071" width="0.15346645929203098" height="0.15346645929203098"/>
<text class="edge_text" text-anchor="middle" dominant-baseline="middle" transform="matrix(0.0076733229646015495 0 0 0.0076733229646015495 2.0951334775567276 0.8236386321512226)">5</text>
<rect class="edge_bg" x="1.9144441382061368" y="1.2359793378358588" width="0.15346645929203098" height="0.15346645929203098"/>
<text class="edge_text" text-anchor="middle" dominant-baseline="middle" transform="matrix(0.0076733229646015495 0 0 0.0076733229646015495 1.9911773678521523 1.3127125674818743)">8</text>
<rect class="edge_bg" x="1.4389156606494091" y="1.3904877056846363" width="0.15346645929203098" height="0.15346645929203098"/>
<text class="edge_text" text-anchor="middle" dominant-baseline="middle" transform="matrix(0.0076733229646015495 0 0 0.0076733229646015495 1.5156488902954246 1.4672209353306518)">7</text>
<rect class="edge_bg" x="0.9633881382061369" y="1.5449963378358589" width="0.15346645929203098" height="0.15346645929203098"/>
<text class="edge_text" text-anchor="middle" dominant-baseline="middle" transform="matrix(0.0076733229646015495 0 0 0.0076733229646015495 1.0401213678521524 1.6217295674818744)">3</text>
<rect class="edge_bg" x="0.4878596606494092" y="1.6995047056846362" width="0.15346645929203098" height="0.15346645929203098"/>
<text class="edge_text" text-anchor="middle" dominant-baseline="middle" transform="matrix(0.0076733229646015495 0 0 0.0076733229646015495 0.5645928902954247 1.7762379353306517)">4</text>
<rect class="edge_bg" x="0.012331138206136724" y="1.854013337835859" width="0.15346645929203098" height="0.15346645929203098"/>
<text class="edge_text" text-anchor="middle" dominant-baseline="middle" transform="matrix(0.0076733229646015495 0 0 0.0076733229646015495 0.08906436785215222 1.9307465674818745)">38</text>
<rect class="edge_bg" x="-0.4631973393505907" y="2.0085217056846365" width="0.15346645929203098" height="0.15346645929203098"/>
<text class="edge_text" text-anchor="middle" dominant-baseline="middle" transform="matrix(0.0076733229646015495 0 0 0.0076733229646015495 -0.38646410970457523 2.085254935330652)">39</text>
<rect class="edge_bg" x="-0.8347695275580055" y="1.6739572675414582" width="0.15346645929203098" height="0.15346645929203098"/>
<text class="edge_text" text-anchor="middle" dominant-baseline="middle" transform="matrix(0.0076733229646015495 0 0 0.0076733229646015495 -0.75803629791199 1.7506904971874737)">33</text>
<rect class="edge_bg" x="-0.8347697520892879" y="0.36494013820276194" width="0.15346645929203098" height="0.15346645929203098"/>
<text class="edge_text" text-anchor="middle" dominant-baseline="middle" transform="matrix(0.0076733229646015495 0 0 0.0076733229646015495 -0.7580365224432725 0.4416733678487774)">41</text>
</svg>
