<?xml version="1.0" encoding="utf-8"?>
<svg version="1.1" xmlns="http://www.w3.org/2000/svg" viewBox="-4.828946681142527 -2.1853228501298387 6.97343794137526 4.557849910042312" style="enable-background:new -4.828946681142527 -2.1853228501298387 6.97343794137526 4.557849910042312;">
<style type="text/css">
  .face_stroke {fill:none; stroke:#000000; stroke-width:0.02; stroke-miterlimit:10;}
  .face_text {fill:#000000; font-family:monospace;}
  .edge_text {fill:#ff0000; font-family:monospace;}
  .edge_bg {fill:#f3f3f3; stroke:#606060; stroke-width:0.01;}
</style>
<polygon class="face_stroke" points="0.288675134594813,-0.5 -0.5773502691896258,-7.07050159149938e-17 0.288675134594813,0.5"/>
<polygon class="face_stroke" points="0.2886750397644132,0.4999999999999999 1.2397315560595668,0.8090169943749475 1.82751680835204,2.0834935792808685e-16 1.239731556059567,-0.8090169943749473 0.28867503976441344,-0.5000000000000001"/>
<polygon class="face_stroke" points="1.2397317805908492,-0.8090171293386964 0.4965869551134551,-1.4781477356975548 0.2886752642956955,-0.5000001349637491"/>
<polygon class="face_stroke" points="0.4965871820100126,-1.4781478542188247 -0.36943822177442587,-1.9781478542188247 -1.1125830472518201,-1.3090172478599664 -0.7058464041760204,-0.3954717902173659 0.288675491192253,-0.5000002534850188"/>
<polygon class="face_stroke" points="-1.1125834635944423,-1.3090174840058495 -1.7003687158869156,-0.5000004896309022 -0.7058468205186421,-0.39547202636324835"/>
<polygon class="face_stroke" points="-1.7003681794813579,-0.4999999736367516 -1.2936315364055575,0.4135454840058495 -0.7058462841130844,-0.3954715103690977"/>
<polygon class="face_stroke" points="-1.7003684138139672,-0.5000000640014592 -2.5663938175984056,-1.000000064001459 -3.560915712966679,-0.8954716007338059 -4.304060538444073,-0.22634099437494737 -4.511972229261833,0.7518066063588575 -4.105235586186033,1.6653520640014592 -3.2392101824015946,2.1653520640014587 -2.24468828703332,2.0608236007338054 -1.5015434615559267,1.391692994374948 -1.2936317707381668,0.4135453936411426"/>
<polygon class="face_stroke" points="-1.5015437357043044,1.391692865036251 -0.5504872194091507,1.082675870661304 -1.2936320448865448,0.4135452643024453"/>
<polygon class="face_stroke" points="-0.550486955113455,1.0826757356975547 -0.3425752642956957,0.10452813496374896 -1.2936317805908493,0.4135451293386964"/>
<text class="face_text" text-anchor="middle" dominant-baseline="middle" transform="matrix(0.009115699820084623 0 0 0.009115699820084623 0.0 0.0)">1</text>
<text class="face_text" text-anchor="middle" dominant-baseline="middle" transform="matrix(0.009115699820084623 0 0 0.009115699820084623 0.976866 0.0)">0</text>
<text class="face_text" text-anchor="middle" dominant-baseline="middle" transform="matrix(0.009115699820084623 0 0 0.009115699820084623 0.674998 -0.929055)">30</text>
<text class="face_text" text-anchor="middle" dominant-baseline="middle" transform="matrix(0.009115699820084623 0 0 0.009115699820084623 -0.280521 -1.132157)">26</text>
<text class="face_text" text-anchor="middle" dominant-baseline="middle" transform="matrix(0.009115699820084623 0 0 0.009115699820084623 -1.172933 -0.73483)">28</text>
<text class="face_text" text-anchor="middle" dominant-baseline="middle" transform="matrix(0.009115699820084623 0 0 0.009115699820084623 -1.233282 -0.160642)">29</text>
<text class="face_text" text-anchor="middle" dominant-baseline="middle" transform="matrix(0.009115699820084623 0 0 0.009115699820084623 -2.902802 0.582676)">36</text>
<text class="face_text" text-anchor="middle" dominant-baseline="middle" transform="matrix(0.009115699820084623 0 0 0.009115699820084623 -1.115221 0.962638)">3</text>
<text class="face_text" text-anchor="middle" dominant-baseline="middle" transform="matrix(0.009115699820084623 0 0 0.009115699820084623 -0.728898 0.533583)">2</text>
<rect class="edge_bg" x="0.197518041563567" y="-0.09115699820084631" width="0.18231399640169246" height="0.18231399640169246"/>
<text class="edge_text" text-anchor="middle" dominant-baseline="middle" transform="matrix(0.009115699820084623 0 0 0.009115699820084623 0.2886750397644132 -8.427908566546547e-17)">2</text>
<rect class="edge_bg" x="0.6730465242424263" y="-0.7456656303520688" width="0.18231399640169246" height="0.18231399640169246"/>
<text class="edge_text" text-anchor="middle" dominant-baseline="middle" transform="matrix(0.009115699820084623 0 0 0.009115699820084623 0.7642035224432725 -0.6545086321512226)">40</text>
<rect class="edge_bg" x="0.3014743384002868" y="-1.080231052052768" width="0.18231399640169246" height="0.18231399640169246"/>
<text class="edge_text" text-anchor="middle" dominant-baseline="middle" transform="matrix(0.009115699820084623 0 0 0.009115699820084623 0.39263133660113303 -0.9890740538519218)">41</text>
<rect class="edge_bg" x="-1.0003721402573884" y="-0.9434017533853952" width="0.18231399640169246" height="0.18231399640169246"/>
<text class="edge_text" text-anchor="middle" dominant-baseline="middle" transform="matrix(0.009115699820084623 0 0 0.009115699820084623 -0.9092151420565422 -0.852244755184549)">33</text>
<rect class="edge_bg" x="-1.2942642299980673" y="-0.5388927402037711" width="0.18231399640169246" height="0.18231399640169246"/>
<text class="edge_text" text-anchor="middle" dominant-baseline="middle" transform="matrix(0.009115699820084623 0 0 0.009115699820084623 -1.2031072317972211 -0.4477357420029248)">39</text>
<rect class="edge_bg" x="-1.5881570904769131" y="-0.13438433338100497" width="0.18231399640169246" height="0.18231399640169246"/>
<text class="edge_text" text-anchor="middle" dominant-baseline="middle" transform="matrix(0.009115699820084623 0 0 0.009115699820084623 -1.497000092276067 -0.043227335180158755)">57</text>
<rect class="edge_bg" x="-1.4887448884962708" y="0.8114620664685019" width="0.18231399640169246" height="0.18231399640169246"/>
<text class="edge_text" text-anchor="middle" dominant-baseline="middle" transform="matrix(0.009115699820084623 0 0 0.009115699820084623 -1.3975878902954246 0.9026190646693482)">55</text>
<rect class="edge_bg" x="-1.0132163660529985" y="0.6569534343172794" width="0.18231399640169246" height="0.18231399640169246"/>
<text class="edge_text" text-anchor="middle" dominant-baseline="middle" transform="matrix(0.009115699820084623 0 0 0.009115699820084623 -0.9220593678521523 0.7481104325181256)">4</text>
</svg>
