<?xml version="1.0" encoding="utf-8"?>
<svg version="1.1" xmlns="http://www.w3.org/2000/svg" viewBox="-1.8767629920988633 -2.1175060966485133 3.880674076662851 3.0658813334531496" style="enable-background:new -1.8767629920988633 -2.1175060966485133 3.880674076662851 3.0658813334531496;">
<style type="text/css">
  .face_stroke {fill:none; stroke:#000000; stroke-width:0.02; stroke-miterlimit:10;}
  .face_text {fill:#000000; font-family:monospace;}
  .edge_text {fill:#ff0000; font-family:monospace;}
  .edge_bg {fill:#f3f3f3; stroke:#606060; stroke-width:0.01;}
</style>
<polygon class="face_stroke" points="0.288675134594813,-0.5 -0.5773502691896258,-7.07050159149938e-17 0.288675134594813,0.5"/>
<polygon class="face_stroke" points="0.2886750397644132,0.4999999999999999 1.2397315560595668,0.8090169943749475 1.82751680835204,2.0834935792808685e-16 1.239731556059567,-0.8090169943749473 0.28867503976441344,-0.5000000000000001"/>
<polygon class="face_stroke" points="1.2397317805908492,-0.8090171293386964 0.4965869551134551,-1.4781477356975548 0.2886752642956955,-0.5000001349637491"/>
<polygon class="face_stroke" points="0.4965871820100126,-1.4781478542188247 -0.36943822177442587,-1.9781478542188247 -1.1125830472518201,-1.3090172478599664 -0.7058464041760204,-0.3954717902173659 0.288675491192253,-0.5000002534850188"/>
<polygon class="face_stroke" points="-1.1125834635944423,-1.3090174840058495 -1.7003687158869156,-0.5000004896309022 -0.7058468205186421,-0.39547202636324835"/>
<polygon class="face_stroke" points="-1.7003681794813579,-0.4999999736367516 -1.2936315364055575,0.4135454840058495 -0.7058462841130844,-0.3954715103690977"/>
<polygon class="face_stroke" points="-1.2936317158869155,0.4135455103690978 -0.2991098205186421,0.5180739736367517 -0.7058464635944424,-0.3954714840058495"/>
<text class="face_text" text-anchor="middle" dominant-baseline="middle" transform="matrix(0.006131762666906299 0 0 0.006131762666906299 0.0 0.0)">1</text>
<text class="face_text" text-anchor="middle" dominant-baseline="middle" transform="matrix(0.006131762666906299 0 0 0.006131762666906299 0.976866 0.0)">0</text>
<text class="face_text" text-anchor="middle" dominant-baseline="middle" transform="matrix(0.006131762666906299 0 0 0.006131762666906299 0.674998 -0.929055)">30</text>
<text class="face_text" text-anchor="middle" dominant-baseline="middle" transform="matrix(0.006131762666906299 0 0 0.006131762666906299 -0.280521 -1.132157)">26</text>
<text class="face_text" text-anchor="middle" dominant-baseline="middle" transform="matrix(0.006131762666906299 0 0 0.006131762666906299 -1.172933 -0.73483)">28</text>
<text class="face_text" text-anchor="middle" dominant-baseline="middle" transform="matrix(0.006131762666906299 0 0 0.006131762666906299 -1.233282 -0.160642)">29</text>
<text class="face_text" text-anchor="middle" dominant-baseline="middle" transform="matrix(0.006131762666906299 0 0 0.006131762666906299 -0.766196 0.178716)">2</text>
<rect class="edge_bg" x="0.22735741309535024" y="-0.061317626669063076" width="0.12263525333812599" height="0.12263525333812599"/>
<text class="edge_text" text-anchor="middle" dominant-baseline="middle" transform="matrix(0.006131762666906299 0 0 0.006131762666906299 0.2886750397644132 -8.427908566546547e-17)">2</text>
<rect class="edge_bg" x="0.7028858957742095" y="-0.7158262588202856" width="0.12263525333812599" height="0.12263525333812599"/>
<text class="edge_text" text-anchor="middle" dominant-baseline="middle" transform="matrix(0.006131762666906299 0 0 0.006131762666906299 0.7642035224432725 -0.6545086321512226)">40</text>
<rect class="edge_bg" x="0.33131370993207004" y="-1.0503916805209847" width="0.12263525333812599" height="0.12263525333812599"/>
<text class="edge_text" text-anchor="middle" dominant-baseline="middle" transform="matrix(0.006131762666906299 0 0 0.006131762666906299 0.39263133660113303 -0.9890740538519218)">41</text>
<rect class="edge_bg" x="-0.9705327687256052" y="-0.913562381853612" width="0.12263525333812599" height="0.12263525333812599"/>
<text class="edge_text" text-anchor="middle" dominant-baseline="middle" transform="matrix(0.006131762666906299 0 0 0.006131762666906299 -0.9092151420565422 -0.852244755184549)">33</text>
<rect class="edge_bg" x="-1.264424858466284" y="-0.5090533686719878" width="0.12263525333812599" height="0.12263525333812599"/>
<text class="edge_text" text-anchor="middle" dominant-baseline="middle" transform="matrix(0.006131762666906299 0 0 0.006131762666906299 -1.2031072317972211 -0.4477357420029248)">39</text>
<rect class="edge_bg" x="-1.061056716409742" y="-0.052280613487438794" width="0.12263525333812599" height="0.12263525333812599"/>
<text class="edge_text" text-anchor="middle" dominant-baseline="middle" transform="matrix(0.006131762666906299 0 0 0.006131762666906299 -0.9997390897406789 0.009037013181624198)">38</text>
</svg>
