<?xml version="1.0" encoding="utf-8"?>
<svg version="1.1" xmlns="http://www.w3.org/2000/svg" viewBox="-2.1144953880437924 -2.7640596435311897 6.649111497423392 5.114574281437327" style="enable-background:new -2.1144953880437924 -2.7640596435311897 6.649111497423392 5.114574281437327;">
<style type="text/css">
  .face_stroke {fill:none; stroke:#000000; stroke-width:0.02; stroke-miterlimit:10;}
  .face_text {fill:#000000; font-family:monospace;}
  .edge_text {fill:#ff0000; font-family:monospace;}
  .edge_bg {fill:#f3f3f3; stroke:#606060; stroke-width:0.01;}
</style>
<polygon class="face_stroke" points="0.288675134594813,-0.5 -0.5773502691896258,-7.07050159149938e-17 0.288675134594813,0.5"/>
<polygon class="face_stroke" points="0.28867486540518683,0.4999999999999999 1.1547002691896258,1.414100318299876e-16 0.28867486540518755,-0.5000000000000003"/>
<polygon class="face_stroke" points="0.2886747308103742,0.49999999999999994 1.1547001345948131,1.0 1.1547001345948127,-1.1102230246251565e-16"/>
<polygon class="face_stroke" points="1.154700231412373,1.0000000000000004 1.7424854837048462,1.8090169943749472 2.6935419999999994,2.118033988749895 3.644598516295153,1.8090169943749477 4.232383768587627,1.0000000000000004 4.232383768587627,3.885780586188048e-16 3.644598516295155,-0.8090169943749463 2.6935420000000003,-1.118033988749895 1.7424854837048467,-0.8090169943749479 1.1547002314123733,-5.551115123125783e-16"/>
<polygon class="face_stroke" points="1.7424857158869154,-0.809016510369098 0.7479638205186421,-0.9135449736367516 1.1547004635944424,4.840058495103605e-07"/>
<polygon class="face_stroke" points="1.742486179481358,-0.8090170263632483 1.3357495364055578,-1.7225624840058495 0.7479642841130845,-0.9135454896309021"/>
<polygon class="face_stroke" points="1.33574880835204,-1.722562 0.7479635560595668,-2.5315789943749474 -0.2030929602355867,-2.222562 -0.20309296023558682,-1.222562 0.7479635560595665,-0.9135450056250525"/>
<polygon class="face_stroke" points="-0.203092865405187,-2.222562 -1.0691182691896257,-1.722562 -0.203092865405187,-1.222562"/>
<polygon class="face_stroke" points="-1.0691182217744257,-1.7225628542188245 -1.8122630472518202,-1.0534322478599663 -1.4055264041760203,-0.13988679021736583 -0.41100450880774697,-0.2444152534850187 -0.20309281798998713,-1.222562854218824"/>
<polygon class="face_stroke" points="-1.4055257158869154,-0.13988651036909813 -0.8177404635944426,0.6691304840058495 -0.41100382051864237,-0.24441497363675174"/>
<text class="face_text" text-anchor="middle" dominant-baseline="middle" transform="matrix(0.010229148562874654 0 0 0.010229148562874654 0.0 0.0)">1</text>
<text class="face_text" text-anchor="middle" dominant-baseline="middle" transform="matrix(0.010229148562874654 0 0 0.010229148562874654 0.57735 0.0)">2</text>
<text class="face_text" text-anchor="middle" dominant-baseline="middle" transform="matrix(0.010229148562874654 0 0 0.010229148562874654 0.866025 0.5)">29</text>
<text class="face_text" text-anchor="middle" dominant-baseline="middle" transform="matrix(0.010229148562874654 0 0 0.010229148562874654 2.693542 0.5)">36</text>
<text class="face_text" text-anchor="middle" dominant-baseline="middle" transform="matrix(0.010229148562874654 0 0 0.010229148562874654 1.21505 -0.574187)">3</text>
<text class="face_text" text-anchor="middle" dominant-baseline="middle" transform="matrix(0.010229148562874654 0 0 0.010229148562874654 1.2754 -1.148375)">4</text>
<text class="face_text" text-anchor="middle" dominant-baseline="middle" transform="matrix(0.010229148562874654 0 0 0.010229148562874654 0.485098 -1.722562)">0</text>
<text class="face_text" text-anchor="middle" dominant-baseline="middle" transform="matrix(0.010229148562874654 0 0 0.010229148562874654 -0.491768 -1.722562)">30</text>
<text class="face_text" text-anchor="middle" dominant-baseline="middle" transform="matrix(0.010229148562874654 0 0 0.010229148562874654 -0.980201 -0.876572)">26</text>
<text class="face_text" text-anchor="middle" dominant-baseline="middle" transform="matrix(0.010229148562874654 0 0 0.010229148562874654 -0.87809 0.094943)">28</text>
<rect class="edge_bg" x="0.1863833797764405" y="-0.10229148562874658" width="0.20458297125749308" height="0.20458297125749308"/>
<text class="edge_text" text-anchor="middle" dominant-baseline="middle" transform="matrix(0.010229148562874654 0 0 0.010229148562874654 0.28867486540518705 -3.535250795749691e-17)">1</text>
<rect class="edge_bg" x="0.619395947073847" y="0.14770851437125335" width="0.20458297125749308" height="0.20458297125749308"/>
<text class="edge_text" text-anchor="middle" dominant-baseline="middle" transform="matrix(0.010229148562874654 0 0 0.010229148562874654 0.7216874327025936 0.2499999999999999)">38</text>
<rect class="edge_bg" x="1.0524087457836264" y="0.3977085143712533" width="0.20458297125749308" height="0.20458297125749308"/>
<text class="edge_text" text-anchor="middle" dominant-baseline="middle" transform="matrix(0.010229148562874654 0 0 0.010229148562874654 1.1547002314123729 0.49999999999999983)">57</text>
<rect class="edge_bg" x="1.3463016041119324" y="-0.5067994988103708" width="0.20458297125749308" height="0.20458297125749308"/>
<text class="edge_text" text-anchor="middle" dominant-baseline="middle" transform="matrix(0.010229148562874654 0 0 0.010229148562874654 1.448593089740679 -0.4045080131816242)">55</text>
<rect class="edge_bg" x="1.1429337461684748" y="-0.9635727436258217" width="0.20458297125749308" height="0.20458297125749308"/>
<text class="edge_text" text-anchor="middle" dominant-baseline="middle" transform="matrix(0.010229148562874654 0 0 0.010229148562874654 1.2452252317972212 -0.8612812579970751)">3</text>
<rect class="edge_bg" x="0.9395646965770569" y="-1.4203449884412727" width="0.20458297125749308" height="0.20458297125749308"/>
<text class="edge_text" text-anchor="middle" dominant-baseline="middle" transform="matrix(0.010229148562874654 0 0 0.010229148562874654 1.0418561822058034 -1.3180535028125262)">0</text>
<rect class="edge_bg" x="-0.3053843510339336" y="-1.8248534856287464" width="0.20458297125749308" height="0.20458297125749308"/>
<text class="edge_text" text-anchor="middle" dominant-baseline="middle" transform="matrix(0.010229148562874654 0 0 0.010229148562874654 -0.203092865405187 -1.722562)">40</text>
<rect class="edge_bg" x="-0.7383970055109531" y="-1.574854339847571" width="0.20458297125749308" height="0.20458297125749308"/>
<text class="edge_text" text-anchor="middle" dominant-baseline="middle" transform="matrix(0.010229148562874654 0 0 0.010229148562874654 -0.6361055198822065 -1.4725628542188245)">41</text>
<rect class="edge_bg" x="-1.0105562538315254" y="-0.2944422276316714" width="0.20458297125749308" height="0.20458297125749308"/>
<text class="edge_text" text-anchor="middle" dominant-baseline="middle" transform="matrix(0.010229148562874654 0 0 0.010229148562874654 -0.9082647682027788 -0.1921507420029248)">33</text>
</svg>
