<?xml version="1.0" encoding="utf-8"?>
<svg version="1.1" xmlns="http://www.w3.org/2000/svg" viewBox="-3.7330353930875155 -0.7030412032000734 5.899017604165018 4.4669064704016055" style="enable-background:new -3.7330353930875155 -0.7030412032000734 5.899017604165018 4.4669064704016055;">
<style type="text/css">
  .face_stroke {fill:none; stroke:#000000; stroke-width:0.02; stroke-miterlimit:10;}
  .face_text {fill:#000000; font-family:monospace;}
  .edge_text {fill:#ff0000; font-family:monospace;}
  .edge_bg {fill:#f3f3f3; stroke:#606060; stroke-width:0.01;}
</style>
<polygon class="face_stroke" points="0.288675134594813,-0.5 -0.5773502691896258,-7.07050159149938e-17 0.288675134594813,0.5"/>
<polygon class="face_stroke" points="0.28867486540518683,0.4999999999999999 1.1547002691896258,1.414100318299876e-16 0.28867486540518755,-0.5000000000000003"/>
<polygon class="face_stroke" points="0.2886748179899874,0.5000001457811754 0.49658650880774635,1.4781477465149808 1.4911084041760199,1.5826762097826346 1.8978450472518202,0.6691307521400344 1.1547002217744258,1.457811755756211e-07"/>
<polygon class="face_stroke" points="0.288675044886545,0.5000002643024454 -0.4544697805908493,1.1691308706613035 0.4965867357043041,1.4781478650362514"/>
<polygon class="face_stroke" points="-0.4544697357043044,1.1691301349637488 -0.2465580448865451,2.1472777356975548 0.49658678059084943,1.4781471293386967"/>
<polygon class="face_stroke" points="-0.4544694615559264,1.1691310056250526 -1.1976142870333208,0.5000003992661943 -2.192136182401594,0.3954719359985408 -3.0581615861860323,0.8954719359985406 -3.464898229261833,1.8090173936411413 -3.2569865384440737,2.7871649943749475 -2.5138417129666792,3.4562956007338057 -1.5193198175984073,3.5608240640014595 -0.6532944138139671,3.060824064001459 -0.2465577707381672,2.1472786063588583"/>
<polygon class="face_stroke" points="-0.454469955113455,1.1691307356975547 -0.24655826429569566,0.1909831349637489 -1.1976147805908495,0.5000001293386964"/>
<text class="face_text" text-anchor="middle" dominant-baseline="middle" transform="matrix(0.00893381294080321 0 0 0.00893381294080321 0.0 0.0)">2</text>
<text class="face_text" text-anchor="middle" dominant-baseline="middle" transform="matrix(0.00893381294080321 0 0 0.00893381294080321 0.57735 0.0)">1</text>
<text class="face_text" text-anchor="middle" dominant-baseline="middle" transform="matrix(0.00893381294080321 0 0 0.00893381294080321 1.065783 0.845991)">0</text>
<text class="face_text" text-anchor="middle" dominant-baseline="middle" transform="matrix(0.00893381294080321 0 0 0.00893381294080321 0.110264 1.049093)">4</text>
<text class="face_text" text-anchor="middle" dominant-baseline="middle" transform="matrix(0.00893381294080321 0 0 0.00893381294080321 -0.068147 1.598185)">6</text>
<text class="face_text" text-anchor="middle" dominant-baseline="middle" transform="matrix(0.00893381294080321 0 0 0.00893381294080321 -1.855728 1.978148)">36</text>
<text class="face_text" text-anchor="middle" dominant-baseline="middle" transform="matrix(0.00893381294080321 0 0 0.00893381294080321 -0.632881 0.620038)">3</text>
<rect class="edge_bg" x="0.19933673599715496" y="-0.08933812940803215" width="0.17867625881606422" height="0.17867625881606422"/>
<text class="edge_text" text-anchor="middle" dominant-baseline="middle" transform="matrix(0.00893381294080321 0 0 0.00893381294080321 0.28867486540518705 -3.535250795749691e-17)">1</text>
<rect class="edge_bg" x="0.6323493904741745" y="0.16066201637314326" width="0.17867625881606422" height="0.17867625881606422"/>
<text class="edge_text" text-anchor="middle" dominant-baseline="middle" transform="matrix(0.00893381294080321 0 0 0.00893381294080321 0.7216875198822066 0.25000014578117535)">2</text>
<rect class="edge_bg" x="0.30329276088739265" y="0.8997359352613161" width="0.17867625881606422" height="0.17867625881606422"/>
<text class="edge_text" text-anchor="middle" dominant-baseline="middle" transform="matrix(0.00893381294080321 0 0 0.00893381294080321 0.39263089029542475 0.9890740646693482)">0</text>
<rect class="edge_bg" x="-0.06827960696475958" y="1.2343005027431904" width="0.17867625881606422" height="0.17867625881606422"/>
<text class="edge_text" text-anchor="middle" dominant-baseline="middle" transform="matrix(0.00893381294080321 0 0 0.00893381294080321 0.021058522443272526 1.3236386321512226)">7</text>
<rect class="edge_bg" x="-0.43985174555507867" y="1.5688666765839232" width="0.17867625881606422" height="0.17867625881606422"/>
<text class="edge_text" text-anchor="middle" dominant-baseline="middle" transform="matrix(0.00893381294080321 0 0 0.00893381294080321 -0.35051361614704657 1.6582048059919554)">56</text>
<rect class="edge_bg" x="-0.9153804972601843" y="0.7452273031100934" width="0.17867625881606422" height="0.17867625881606422"/>
<text class="edge_text" text-anchor="middle" dominant-baseline="middle" transform="matrix(0.00893381294080321 0 0 0.00893381294080321 -0.8260423678521522 0.8345654325181255)">55</text>
</svg>
