<?xml version="1.0" encoding="utf-8"?>
<svg version="1.1" xmlns="http://www.w3.org/2000/svg" viewBox="-2.2245570630738927 -0.8628244186952737 3.540174348085591 3.085762563167332" style="enable-background:new -2.2245570630738927 -0.8628244186952737 3.540174348085591 3.085762563167332;">
<style type="text/css">
  .face_stroke {fill:none; stroke:#000000; stroke-width:0.02; stroke-miterlimit:10;}
  .face_text {fill:#000000; font-family:monospace;}
  .edge_text {fill:#ff0000; font-family:monospace;}
  .edge_bg {fill:#f3f3f3; stroke:#606060; stroke-width:0.01;}
</style>
<polygon class="face_stroke" points="0.288675134594813,-0.5 -0.5773502691896258,-7.07050159149938e-17 0.288675134594813,0.5"/>
<polygon class="face_stroke" points="0.28867486540518683,0.4999999999999999 1.1547002691896258,1.414100318299876e-16 0.28867486540518755,-0.5000000000000003"/>
<polygon class="face_stroke" points="0.2886747308103742,0.49999999999999994 1.1547001345948131,1.0 1.1547001345948127,-1.1102230246251565e-16"/>
<polygon class="face_stroke" points="0.2886747782255742,0.5000001457811754 -0.4544700472518202,1.1691307521400336 -0.047733404176020344,2.082676209782634 0.9467884911922531,1.9781477465149813 1.154700182010013,1.0000001457811758"/>
<polygon class="face_stroke" points="0.28867478059084933,0.5000001293386964 -0.6623817357043044,0.1909831349637489 -0.4544700448865451,1.1691307356975547"/>
<polygon class="face_stroke" points="-0.6623815088077467,0.190983253485019 -1.6569034041760198,0.08645479021736546 -2.06364004725182,1.000000247859966 -1.320495221774426,1.6691308542188246 -0.4544698179899874,1.1691308542188246"/>
<polygon class="face_stroke" points="-0.662381820518642,0.1909829736367515 -1.0691184635944422,-0.7225624840058495 -1.6569037158869155,0.08645451036909779"/>
<polygon class="face_stroke" points="-0.6623815364055576,0.19098348400584952 -0.0745962841130845,-0.6180335103690979 -1.0691181794813578,-0.7225619736367516"/>
<text class="face_text" text-anchor="middle" dominant-baseline="middle" transform="matrix(0.006171525126334665 0 0 0.006171525126334665 0.0 0.0)">2</text>
<text class="face_text" text-anchor="middle" dominant-baseline="middle" transform="matrix(0.006171525126334665 0 0 0.006171525126334665 0.57735 0.0)">29</text>
<text class="face_text" text-anchor="middle" dominant-baseline="middle" transform="matrix(0.006171525126334665 0 0 0.006171525126334665 0.866025 0.5)">28</text>
<text class="face_text" text-anchor="middle" dominant-baseline="middle" transform="matrix(0.006171525126334665 0 0 0.006171525126334665 0.377592 1.345991)">26</text>
<text class="face_text" text-anchor="middle" dominant-baseline="middle" transform="matrix(0.006171525126334665 0 0 0.006171525126334665 -0.276059 0.620038)">1</text>
<text class="face_text" text-anchor="middle" dominant-baseline="middle" transform="matrix(0.006171525126334665 0 0 0.006171525126334665 -1.231578 0.82314)">0</text>
<text class="face_text" text-anchor="middle" dominant-baseline="middle" transform="matrix(0.006171525126334665 0 0 0.006171525126334665 -1.129468 -0.148375)">4</text>
<text class="face_text" text-anchor="middle" dominant-baseline="middle" transform="matrix(0.006171525126334665 0 0 0.006171525126334665 -0.602032 -0.383204)">3</text>
<rect class="edge_bg" x="0.2269596141418404" y="-0.061715251263346683" width="0.1234305025266933" height="0.1234305025266933"/>
<text class="edge_text" text-anchor="middle" dominant-baseline="middle" transform="matrix(0.006171525126334665 0 0 0.006171525126334665 0.28867486540518705 -3.535250795749691e-17)">38</text>
<rect class="edge_bg" x="0.659972181439247" y="0.18828474873665324" width="0.1234305025266933" height="0.1234305025266933"/>
<text class="edge_text" text-anchor="middle" dominant-baseline="middle" transform="matrix(0.006171525126334665 0 0 0.006171525126334665 0.7216874327025936 0.2499999999999999)">39</text>
<rect class="edge_bg" x="0.6599722288544468" y="0.6882848945178287" width="0.1234305025266933" height="0.1234305025266933"/>
<text class="edge_text" text-anchor="middle" dominant-baseline="middle" transform="matrix(0.006171525126334665 0 0 0.006171525126334665 0.7216874801177935 0.7500001457811754)">33</text>
<rect class="edge_bg" x="-0.14461288341119444" y="0.7728501812547789" width="0.1234305025266933" height="0.1234305025266933"/>
<text class="edge_text" text-anchor="middle" dominant-baseline="middle" transform="matrix(0.006171525126334665 0 0 0.006171525126334665 -0.08289763214784779 0.8345654325181255)">37</text>
<rect class="edge_bg" x="-0.6201409146622137" y="0.6183418025885751" width="0.1234305025266933" height="0.1234305025266933"/>
<text class="edge_text" text-anchor="middle" dominant-baseline="middle" transform="matrix(0.006171525126334665 0 0 0.006171525126334665 -0.558425663398867 0.6800570538519217)">2</text>
<rect class="edge_bg" x="-1.2213580194661255" y="0.07700349073957816" width="0.1234305025266933" height="0.1234305025266933"/>
<text class="edge_text" text-anchor="middle" dominant-baseline="middle" transform="matrix(0.006171525126334665 0 0 0.006171525126334665 -1.1596427682027788 0.1387187420029248)">0</text>
<rect class="edge_bg" x="-0.9274651092068045" y="-0.32750449607879756" width="0.1234305025266933" height="0.1234305025266933"/>
<text class="edge_text" text-anchor="middle" dominant-baseline="middle" transform="matrix(0.006171525126334665 0 0 0.006171525126334665 -0.8657498579434578 -0.2657892448154509)">3</text>
</svg>
