<?xml version="1.0" encoding="utf-8"?>
<svg version="1.1" xmlns="http://www.w3.org/2000/svg" viewBox="-2.1940130545699947 -0.6404508497187478 4.415441196319603 3.0899186938124426" style="enable-background:new -2.1940130545699947 -0.6404508497187478 4.415441196319603 3.0899186938124426;">
<style type="text/css">
  .face_stroke {fill:none; stroke:#000000; stroke-width:0.02; stroke-miterlimit:10;}
  .face_text {fill:#000000; font-family:monospace;}
  .edge_text {fill:#ff0000; font-family:monospace;}
  .edge_bg {fill:#f3f3f3; stroke:#606060; stroke-width:0.01;}
</style>
<polygon class="face_stroke" points="0.288675134594813,-0.5 -0.5773502691896258,-7.07050159149938e-17 0.288675134594813,0.5"/>
<polygon class="face_stroke" points="0.28867486540518683,0.4999999999999999 1.1547002691896258,1.414100318299876e-16 0.28867486540518755,-0.5000000000000003"/>
<polygon class="face_stroke" points="0.2886747308103742,0.49999999999999994 1.1547001345948131,1.0 1.1547001345948127,-1.1102230246251565e-16"/>
<polygon class="face_stroke" points="1.1547008654051867,0.9999999999999999 2.020726269189626,0.5000000000000001 1.1547008654051876,-3.3306690738754696e-16"/>
<polygon class="face_stroke" points="1.154700730810374,0.9999999999999999 2.020726134594813,1.5 2.020726134594813,0.4999999999999999"/>
<polygon class="face_stroke" points="1.1547008654051871,0.9999999999999999 1.1547008654051867,2.0 2.020726269189626,1.5000000000000002"/>
<polygon class="face_stroke" points="1.1547009602355867,1.0 0.20364444394043324,0.6909830056250525 -0.3841408083520399,1.5 0.20364444394043307,2.3090169943749475 1.1547009602355867,2.0"/>
<polygon class="face_stroke" points="0.2036437158869155,0.690983489630902 -0.790878179481358,0.5864550263632484 -0.3841415364055576,1.5000004840058496"/>
<polygon class="face_stroke" points="-0.7908775958239799,0.5864547902173656 -1.7853994911922533,0.690983253485019 -1.9933111820100127,1.6691308542188241 -1.1272857782255743,2.1691308542188246 -0.38414095274817983,1.5000002478599668"/>
<polygon class="face_stroke" points="-0.7908782841130845,0.586454510369098 -1.3786635364055575,-0.2225624840058495 -1.7854001794813579,0.6909829736367514"/>
<polygon class="face_stroke" points="-0.7908774635944423,0.5864544840058495 -0.384140820518642,-0.32709097363675155 -1.3786627158869154,-0.22256251036909813"/>
<text class="face_text" text-anchor="middle" dominant-baseline="middle" transform="matrix(0.006179837387624885 0 0 0.006179837387624885 0.0 0.0)">2</text>
<text class="face_text" text-anchor="middle" dominant-baseline="middle" transform="matrix(0.006179837387624885 0 0 0.006179837387624885 0.57735 0.0)">29</text>
<text class="face_text" text-anchor="middle" dominant-baseline="middle" transform="matrix(0.006179837387624885 0 0 0.006179837387624885 0.866025 0.5)">28</text>
<text class="face_text" text-anchor="middle" dominant-baseline="middle" transform="matrix(0.006179837387624885 0 0 0.006179837387624885 1.443376 0.5)">27</text>
<text class="face_text" text-anchor="middle" dominant-baseline="middle" transform="matrix(0.006179837387624885 0 0 0.006179837387624885 1.732051 1.0)">25</text>
<text class="face_text" text-anchor="middle" dominant-baseline="middle" transform="matrix(0.006179837387624885 0 0 0.006179837387624885 1.443376 1.5)">23</text>
<text class="face_text" text-anchor="middle" dominant-baseline="middle" transform="matrix(0.006179837387624885 0 0 0.006179837387624885 0.46651 1.5)">26</text>
<text class="face_text" text-anchor="middle" dominant-baseline="middle" transform="matrix(0.006179837387624885 0 0 0.006179837387624885 -0.323792 0.925813)">1</text>
<text class="face_text" text-anchor="middle" dominant-baseline="middle" transform="matrix(0.006179837387624885 0 0 0.006179837387624885 -1.216203 1.32314)">0</text>
<text class="face_text" text-anchor="middle" dominant-baseline="middle" transform="matrix(0.006179837387624885 0 0 0.006179837387624885 -1.318314 0.351625)">4</text>
<text class="face_text" text-anchor="middle" dominant-baseline="middle" transform="matrix(0.006179837387624885 0 0 0.006179837387624885 -0.851227 0.012267)">3</text>
<rect class="edge_bg" x="0.22687649152893818" y="-0.06179837387624889" width="0.12359674775249771" height="0.12359674775249771"/>
<text class="edge_text" text-anchor="middle" dominant-baseline="middle" transform="matrix(0.006179837387624885 0 0 0.006179837387624885 0.28867486540518705 -3.535250795749691e-17)">38</text>
<rect class="edge_bg" x="0.6598890588263447" y="0.18820162612375102" width="0.12359674775249771" height="0.12359674775249771"/>
<text class="edge_text" text-anchor="middle" dominant-baseline="middle" transform="matrix(0.006179837387624885 0 0 0.006179837387624885 0.7216874327025936 0.2499999999999999)">39</text>
<rect class="edge_bg" x="1.0929024915289383" y="0.4382016261237511" width="0.12359674775249771" height="0.12359674775249771"/>
<text class="edge_text" text-anchor="middle" dominant-baseline="middle" transform="matrix(0.006179837387624885 0 0 0.006179837387624885 1.1547008654051871 0.49999999999999994)">35</text>
<rect class="edge_bg" x="1.5259150588263448" y="0.688201626123751" width="0.12359674775249771" height="0.12359674775249771"/>
<text class="edge_text" text-anchor="middle" dominant-baseline="middle" transform="matrix(0.006179837387624885 0 0 0.006179837387624885 1.5877134327025937 0.7499999999999999)">36</text>
<rect class="edge_bg" x="1.5259151934211577" y="1.1882016261237511" width="0.12359674775249771" height="0.12359674775249771"/>
<text class="edge_text" text-anchor="middle" dominant-baseline="middle" transform="matrix(0.006179837387624885 0 0 0.006179837387624885 1.5877135672974065 1.25)">29</text>
<rect class="edge_bg" x="1.0929025863593378" y="1.4382016261237511" width="0.12359674775249771" height="0.12359674775249771"/>
<text class="edge_text" text-anchor="middle" dominant-baseline="middle" transform="matrix(0.006179837387624885 0 0 0.006179837387624885 1.1547009602355867 1.5)">34</text>
<rect class="edge_bg" x="-0.1520472841355699" y="1.033693612942127" width="0.12359674775249771" height="0.12359674775249771"/>
<text class="edge_text" text-anchor="middle" dominant-baseline="middle" transform="matrix(0.006179837387624885 0 0 0.006179837387624885 -0.09024891025932102 1.095491986818376)">37</text>
<rect class="edge_bg" x="-0.6493076481623288" y="0.9814291451624171" width="0.12359674775249771" height="0.12359674775249771"/>
<text class="edge_text" text-anchor="middle" dominant-baseline="middle" transform="matrix(0.006179837387624885 0 0 0.006179837387624885 -0.5875092742860799 1.043227519038666)">2</text>
<rect class="edge_bg" x="-1.34993760567347" y="0.5769203681266759" width="0.12359674775249771" height="0.12359674775249771"/>
<text class="edge_text" text-anchor="middle" dominant-baseline="middle" transform="matrix(0.006179837387624885 0 0 0.006179837387624885 -1.2881392317972211 0.6387187420029248)">0</text>
<rect class="edge_bg" x="-1.1465684636169278" y="0.12014761294212696" width="0.12359674775249771" height="0.12359674775249771"/>
<text class="edge_text" text-anchor="middle" dominant-baseline="middle" transform="matrix(0.006179837387624885 0 0 0.006179837387624885 -1.084770089740679 0.18194598681837582)">3</text>
</svg>
