<?xml version="1.0" encoding="utf-8"?>
<svg version="1.1" xmlns="http://www.w3.org/2000/svg" viewBox="-3.929280904184406 -3.563006216920279 6.233340848296605 6.151643364214047" style="enable-background:new -3.929280904184406 -3.563006216920279 6.233340848296605 6.151643364214047;">
<style type="text/css">
  .face_stroke {fill:none; stroke:#000000; stroke-width:0.02; stroke-miterlimit:10;}
  .face_text {fill:#000000; font-family:monospace;}
  .edge_text {fill:#ff0000; font-family:monospace;}
  .edge_bg {fill:#f3f3f3; stroke:#606060; stroke-width:0.01;}
</style>
<polygon class="face_stroke" points="0.288675134594813,-0.5 -0.5773502691896258,-7.07050159149938e-17 0.288675134594813,0.5"/>
<polygon class="face_stroke" points="0.28867486540518683,0.4999999999999999 1.1547002691896258,1.414100318299876e-16 0.28867486540518755,-0.5000000000000003"/>
<polygon class="face_stroke" points="0.2886747308103742,0.49999999999999994 1.1547001345948131,1.0 1.1547001345948127,-1.1102230246251565e-16"/>
<polygon class="face_stroke" points="1.1547008654051867,0.9999999999999999 2.020726269189626,0.5000000000000001 1.1547008654051876,-3.3306690738754696e-16"/>
<polygon class="face_stroke" points="1.154700730810374,0.9999999999999999 2.020726134594813,1.5 2.020726134594813,0.4999999999999999"/>
<polygon class="face_stroke" points="1.1547008654051871,0.9999999999999999 1.1547008654051867,2.0 2.020726269189626,1.5000000000000002"/>
<polygon class="face_stroke" points="1.1547009602355867,1.0 0.20364444394043324,0.6909830056250525 -0.3841408083520399,1.5 0.20364444394043307,2.3090169943749475 1.1547009602355867,2.0"/>
<polygon class="face_stroke" points="0.2036437158869155,0.690983489630902 -0.790878179481358,0.5864550263632484 -0.3841415364055576,1.5000004840058496"/>
<polygon class="face_stroke" points="-0.7908775958239799,0.5864547902173656 -1.7853994911922533,0.690983253485019 -1.9933111820100127,1.6691308542188241 -1.1272857782255743,2.1691308542188246 -0.38414095274817983,1.5000002478599668"/>
<polygon class="face_stroke" points="-0.7908782841130845,0.586454510369098 -1.3786635364055575,-0.2225624840058495 -1.7854001794813579,0.6909829736367514"/>
<polygon class="face_stroke" points="-1.3786628205186422,-0.2225619736367515 -2.3731847158869157,-0.11803351036909814 -1.7853994635944428,0.6909834840058495"/>
<polygon class="face_stroke" points="-1.3786632870333206,-0.22256239926619426 -0.6355184615559262,-0.8916930056250526 -0.427606770738167,-1.8698406063588582 -0.8343434138139671,-2.7833860640014594 -1.7003688175984055,-3.283386064001459 -2.694890712966679,-3.1788576007338056 -3.4380355384440735,-2.5097269943749474 -3.645947229261833,-1.5315793936411424 -3.2392105861860325,-0.6180339359985407 -2.3731851824015946,-0.11803393599854095"/>
<polygon class="face_stroke" points="-1.3786627805908493,-0.22256212933869657 -0.4276062642956959,0.08645486503625127 -0.6355179551134549,-0.8916927356975547"/>
<text class="face_text" text-anchor="middle" dominant-baseline="middle" transform="matrix(0.012303286728428096 0 0 0.012303286728428096 0.0 0.0)">2</text>
<text class="face_text" text-anchor="middle" dominant-baseline="middle" transform="matrix(0.012303286728428096 0 0 0.012303286728428096 0.57735 0.0)">29</text>
<text class="face_text" text-anchor="middle" dominant-baseline="middle" transform="matrix(0.012303286728428096 0 0 0.012303286728428096 0.866025 0.5)">28</text>
<text class="face_text" text-anchor="middle" dominant-baseline="middle" transform="matrix(0.012303286728428096 0 0 0.012303286728428096 1.443376 0.5)">27</text>
<text class="face_text" text-anchor="middle" dominant-baseline="middle" transform="matrix(0.012303286728428096 0 0 0.012303286728428096 1.732051 1.0)">25</text>
<text class="face_text" text-anchor="middle" dominant-baseline="middle" transform="matrix(0.012303286728428096 0 0 0.012303286728428096 1.443376 1.5)">23</text>
<text class="face_text" text-anchor="middle" dominant-baseline="middle" transform="matrix(0.012303286728428096 0 0 0.012303286728428096 0.46651 1.5)">26</text>
<text class="face_text" text-anchor="middle" dominant-baseline="middle" transform="matrix(0.012303286728428096 0 0 0.012303286728428096 -0.323792 0.925813)">1</text>
<text class="face_text" text-anchor="middle" dominant-baseline="middle" transform="matrix(0.012303286728428096 0 0 0.012303286728428096 -1.216203 1.32314)">0</text>
<text class="face_text" text-anchor="middle" dominant-baseline="middle" transform="matrix(0.012303286728428096 0 0 0.012303286728428096 -1.318314 0.351625)">4</text>
<text class="face_text" text-anchor="middle" dominant-baseline="middle" transform="matrix(0.012303286728428096 0 0 0.012303286728428096 -1.845749 0.116796)">6</text>
<text class="face_text" text-anchor="middle" dominant-baseline="middle" transform="matrix(0.012303286728428096 0 0 0.012303286728428096 -2.036777 -1.70071)">36</text>
<text class="face_text" text-anchor="middle" dominant-baseline="middle" transform="matrix(0.012303286728428096 0 0 0.012303286728428096 -0.813929 -0.3426)">3</text>
<rect class="edge_bg" x="0.1656419981209061" y="-0.12303286728428099" width="0.2460657345685619" height="0.2460657345685619"/>
<text class="edge_text" text-anchor="middle" dominant-baseline="middle" transform="matrix(0.012303286728428096 0 0 0.012303286728428096 0.28867486540518705 -3.535250795749691e-17)">38</text>
<rect class="edge_bg" x="0.5986545654183126" y="0.12696713271571894" width="0.2460657345685619" height="0.2460657345685619"/>
<text class="edge_text" text-anchor="middle" dominant-baseline="middle" transform="matrix(0.012303286728428096 0 0 0.012303286728428096 0.7216874327025936 0.2499999999999999)">39</text>
<rect class="edge_bg" x="1.0316679981209063" y="0.376967132715719" width="0.2460657345685619" height="0.2460657345685619"/>
<text class="edge_text" text-anchor="middle" dominant-baseline="middle" transform="matrix(0.012303286728428096 0 0 0.012303286728428096 1.1547008654051871 0.49999999999999994)">35</text>
<rect class="edge_bg" x="1.4646805654183128" y="0.6269671327157189" width="0.2460657345685619" height="0.2460657345685619"/>
<text class="edge_text" text-anchor="middle" dominant-baseline="middle" transform="matrix(0.012303286728428096 0 0 0.012303286728428096 1.5877134327025937 0.7499999999999999)">36</text>
<rect class="edge_bg" x="1.4646807000131257" y="1.1269671327157191" width="0.2460657345685619" height="0.2460657345685619"/>
<text class="edge_text" text-anchor="middle" dominant-baseline="middle" transform="matrix(0.012303286728428096 0 0 0.012303286728428096 1.5877135672974065 1.25)">29</text>
<rect class="edge_bg" x="1.0316680929513058" y="1.3769671327157191" width="0.2460657345685619" height="0.2460657345685619"/>
<text class="edge_text" text-anchor="middle" dominant-baseline="middle" transform="matrix(0.012303286728428096 0 0 0.012303286728428096 1.1547009602355867 1.5)">34</text>
<rect class="edge_bg" x="-0.21328177754360197" y="0.9724591195340949" width="0.2460657345685619" height="0.2460657345685619"/>
<text class="edge_text" text-anchor="middle" dominant-baseline="middle" transform="matrix(0.012303286728428096 0 0 0.012303286728428096 -0.09024891025932102 1.095491986818376)">37</text>
<rect class="edge_bg" x="-0.7105421415703609" y="0.920194651754385" width="0.2460657345685619" height="0.2460657345685619"/>
<text class="edge_text" text-anchor="middle" dominant-baseline="middle" transform="matrix(0.012303286728428096 0 0 0.012303286728428096 -0.5875092742860799 1.043227519038666)">2</text>
<rect class="edge_bg" x="-1.411172099081502" y="0.5156858747186438" width="0.2460657345685619" height="0.2460657345685619"/>
<text class="edge_text" text-anchor="middle" dominant-baseline="middle" transform="matrix(0.012303286728428096 0 0 0.012303286728428096 -1.2881392317972211 0.6387187420029248)">0</text>
<rect class="edge_bg" x="-1.7050640093408231" y="0.11117788790026806" width="0.2460657345685619" height="0.2460657345685619"/>
<text class="edge_text" text-anchor="middle" dominant-baseline="middle" transform="matrix(0.012303286728428096 0 0 0.012303286728428096 -1.5820311420565423 0.234210755184549)">7</text>
<rect class="edge_bg" x="-1.998957102001738" y="-0.29333103491664836" width="0.2460657345685619" height="0.2460657345685619"/>
<text class="edge_text" text-anchor="middle" dominant-baseline="middle" transform="matrix(0.012303286728428096 0 0 0.012303286728428096 -1.8759242347174572 -0.17029816763236738)">56</text>
<rect class="edge_bg" x="-1.130123235136433" y="-0.6801602998024066" width="0.2460657345685619" height="0.2460657345685619"/>
<text class="edge_text" text-anchor="middle" dominant-baseline="middle" transform="matrix(0.012303286728428096 0 0 0.012303286728428096 -1.0070903678521521 -0.5571274325181256)">55</text>
</svg>
