<?xml version="1.0" encoding="utf-8"?>
<svg version="1.1" xmlns="http://www.w3.org/2000/svg" viewBox="-3.5057663704764894 -3.004060598676521 6.696923241554978 6.376581418385782" style="enable-background:new -3.5057663704764894 -3.004060598676521 6.696923241554978 6.376581418385782;">
<style type="text/css">
  .face_stroke {fill:none; stroke:#000000; stroke-width:0.02; stroke-miterlimit:10;}
  .face_text {fill:#000000; font-family:monospace;}
  .edge_text {fill:#ff0000; font-family:monospace;}
  .edge_bg {fill:#f3f3f3; stroke:#606060; stroke-width:0.01;}
</style>
<polygon class="face_stroke" points="0.288675134594813,-0.5 -0.5773502691896258,-7.07050159149938e-17 0.288675134594813,0.5"/>
<polygon class="face_stroke" points="0.28867486540518683,0.4999999999999999 1.1547002691896258,1.414100318299876e-16 0.28867486540518755,-0.5000000000000003"/>
<polygon class="face_stroke" points="0.2886747308103742,0.49999999999999994 1.1547001345948131,1.0 1.1547001345948127,-1.1102230246251565e-16"/>
<polygon class="face_stroke" points="1.1547008654051867,0.9999999999999999 2.020726269189626,0.5000000000000001 1.1547008654051876,-3.3306690738754696e-16"/>
<polygon class="face_stroke" points="1.154700730810374,0.9999999999999999 2.020726134594813,1.5 2.020726134594813,0.4999999999999999"/>
<polygon class="face_stroke" points="2.0207258654051867,1.5 2.8867512691896255,1.0000000000000002 2.020725865405187,0.49999999999999967"/>
<polygon class="face_stroke" points="2.020725730810374,1.5 2.886751134594813,2.0 2.8867511345948125,0.9999999999999999"/>
<polygon class="face_stroke" points="2.0207257782255743,1.5000001457811756 1.2775809527481798,2.169130752140034 1.6843175958239798,3.082676209782634 2.678839491192253,2.9781477465149813 2.886751182010013,2.000000145781176"/>
<polygon class="face_stroke" points="2.0207257805908494,1.5000001293386964 1.0696692642956955,1.190983134963749 1.277580955113455,2.169130735697555"/>
<polygon class="face_stroke" points="1.0696694911922533,1.1909832534850189 0.07514759582398017,1.0864547902173656 -0.33158904725182026,2.0000002478599663 0.4115557782255741,2.6691308542188246 1.2775811820100125,2.1691308542188246"/>
<polygon class="face_stroke" points="0.07514717948135796,1.0864550263632484 -0.9193747158869154,1.190983489630902 -0.33158946359444263,2.0000004840058496"/>
<polygon class="face_stroke" points="-0.9193744439404332,1.1909830056250525 -1.8704309602355866,1.5 -1.8704309602355869,2.5 -0.9193744439404333,2.8090169943749475 -0.3315891916479601,2.0"/>
<polygon class="face_stroke" points="-0.9193742194091507,1.1909828706613037 -1.662519044886545,0.5218522643024454 -1.8704307357043044,1.499999865036251"/>
<polygon class="face_stroke" points="-0.919373955113455,1.1909827356975546 -0.7114622642956956,0.2128351349637489 -1.6625187805908492,0.5218521293386964"/>
<polygon class="face_stroke" points="-0.7114624837048464,0.21283499437494746 -0.1236772314123733,-0.596182 -0.1236772314123733,-1.596182 -0.7114624837048464,-2.405198994374947 -1.662519,-2.7142159887498947 -2.6135755162951533,-2.405198994374947 -3.2013607685876266,-1.5961820000000002 -3.2013607685876266,-0.5961819999999994 -2.6135755162951537,0.21283499437494724 -1.6625190000000003,0.5218519887498949"/>
<text class="face_text" text-anchor="middle" dominant-baseline="middle" transform="matrix(0.012753162836771564 0 0 0.012753162836771564 0.0 0.0)">2</text>
<text class="face_text" text-anchor="middle" dominant-baseline="middle" transform="matrix(0.012753162836771564 0 0 0.012753162836771564 0.57735 0.0)">29</text>
<text class="face_text" text-anchor="middle" dominant-baseline="middle" transform="matrix(0.012753162836771564 0 0 0.012753162836771564 0.866025 0.5)">28</text>
<text class="face_text" text-anchor="middle" dominant-baseline="middle" transform="matrix(0.012753162836771564 0 0 0.012753162836771564 1.443376 0.5)">27</text>
<text class="face_text" text-anchor="middle" dominant-baseline="middle" transform="matrix(0.012753162836771564 0 0 0.012753162836771564 1.732051 1.0)">25</text>
<text class="face_text" text-anchor="middle" dominant-baseline="middle" transform="matrix(0.012753162836771564 0 0 0.012753162836771564 2.309401 1.0)">24</text>
<text class="face_text" text-anchor="middle" dominant-baseline="middle" transform="matrix(0.012753162836771564 0 0 0.012753162836771564 2.598076 1.5)">22</text>
<text class="face_text" text-anchor="middle" dominant-baseline="middle" transform="matrix(0.012753162836771564 0 0 0.012753162836771564 2.109643 2.345991)">20</text>
<text class="face_text" text-anchor="middle" dominant-baseline="middle" transform="matrix(0.012753162836771564 0 0 0.012753162836771564 1.455992 1.620038)">23</text>
<text class="face_text" text-anchor="middle" dominant-baseline="middle" transform="matrix(0.012753162836771564 0 0 0.012753162836771564 0.500473 1.82314)">26</text>
<text class="face_text" text-anchor="middle" dominant-baseline="middle" transform="matrix(0.012753162836771564 0 0 0.012753162836771564 -0.391939 1.425813)">1</text>
<text class="face_text" text-anchor="middle" dominant-baseline="middle" transform="matrix(0.012753162836771564 0 0 0.012753162836771564 -1.18224 2.0)">0</text>
<text class="face_text" text-anchor="middle" dominant-baseline="middle" transform="matrix(0.012753162836771564 0 0 0.012753162836771564 -1.484108 1.070945)">4</text>
<text class="face_text" text-anchor="middle" dominant-baseline="middle" transform="matrix(0.012753162836771564 0 0 0.012753162836771564 -1.097785 0.64189)">3</text>
<text class="face_text" text-anchor="middle" dominant-baseline="middle" transform="matrix(0.012753162836771564 0 0 0.012753162836771564 -1.662519 -1.096182)">36</text>
<rect class="edge_bg" x="0.1611432370374714" y="-0.12753162836771567" width="0.2550632567354313" height="0.2550632567354313"/>
<text class="edge_text" text-anchor="middle" dominant-baseline="middle" transform="matrix(0.012753162836771564 0 0 0.012753162836771564 0.28867486540518705 -3.535250795749691e-17)">38</text>
<rect class="edge_bg" x="0.594155804334878" y="0.12246837163228425" width="0.2550632567354313" height="0.2550632567354313"/>
<text class="edge_text" text-anchor="middle" dominant-baseline="middle" transform="matrix(0.012753162836771564 0 0 0.012753162836771564 0.7216874327025936 0.2499999999999999)">39</text>
<rect class="edge_bg" x="1.0271692370374714" y="0.3724683716322843" width="0.2550632567354313" height="0.2550632567354313"/>
<text class="edge_text" text-anchor="middle" dominant-baseline="middle" transform="matrix(0.012753162836771564 0 0 0.012753162836771564 1.1547008654051871 0.49999999999999994)">35</text>
<rect class="edge_bg" x="1.460181804334878" y="0.6224683716322843" width="0.2550632567354313" height="0.2550632567354313"/>
<text class="edge_text" text-anchor="middle" dominant-baseline="middle" transform="matrix(0.012753162836771564 0 0 0.012753162836771564 1.5877134327025937 0.7499999999999999)">36</text>
<rect class="edge_bg" x="1.893194237037471" y="0.8724683716322843" width="0.2550632567354313" height="0.2550632567354313"/>
<text class="edge_text" text-anchor="middle" dominant-baseline="middle" transform="matrix(0.012753162836771564 0 0 0.012753162836771564 2.0207258654051867 1.0)">31</text>
<rect class="edge_bg" x="2.326206804334878" y="1.1224683716322843" width="0.2550632567354313" height="0.2550632567354313"/>
<text class="edge_text" text-anchor="middle" dominant-baseline="middle" transform="matrix(0.012753162836771564 0 0 0.012753162836771564 2.4537384327025933 1.25)">32</text>
<rect class="edge_bg" x="2.326206851750078" y="1.6224685174134599" width="0.2550632567354313" height="0.2550632567354313"/>
<text class="edge_text" text-anchor="middle" dominant-baseline="middle" transform="matrix(0.012753162836771564 0 0 0.012753162836771564 2.4537384801177935 1.7500001457811756)">25</text>
<rect class="edge_bg" x="1.5216217394844365" y="1.70703380415041" width="0.2550632567354313" height="0.2550632567354313"/>
<text class="edge_text" text-anchor="middle" dominant-baseline="middle" transform="matrix(0.012753162836771564 0 0 0.012753162836771564 1.6491533678521522 1.8345654325181258)">30</text>
<rect class="edge_bg" x="1.0460937082334174" y="1.552525425484206" width="0.2550632567354313" height="0.2550632567354313"/>
<text class="edge_text" text-anchor="middle" dominant-baseline="middle" transform="matrix(0.012753162836771564 0 0 0.012753162836771564 1.173625336601133 1.6800570538519217)">34</text>
<rect class="edge_bg" x="-0.2557527704242578" y="1.4156961268168333" width="0.2550632567354313" height="0.2550632567354313"/>
<text class="edge_text" text-anchor="middle" dominant-baseline="middle" transform="matrix(0.012753162836771564 0 0 0.012753162836771564 -0.12822114205654217 1.543227755184549)">37</text>
<rect class="edge_bg" x="-0.7530134461619122" y="1.4679598744448106" width="0.2550632567354313" height="0.2550632567354313"/>
<text class="edge_text" text-anchor="middle" dominant-baseline="middle" transform="matrix(0.012753162836771564 0 0 0.012753162836771564 -0.6254818177941965 1.5954915028125263)">2</text>
<rect class="edge_bg" x="-1.522434105924443" y="1.2179597394810617" width="0.2550632567354313" height="0.2550632567354313"/>
<text class="edge_text" text-anchor="middle" dominant-baseline="middle" transform="matrix(0.012753162836771564 0 0 0.012753162836771564 -1.3949024775567274 1.3454913678487774)">0</text>
<rect class="edge_bg" x="-1.418477996219868" y="0.7288858041504098" width="0.2550632567354313" height="0.2550632567354313"/>
<text class="edge_text" text-anchor="middle" dominant-baseline="middle" transform="matrix(0.012753162836771564 0 0 0.012753162836771564 -1.2909463678521522 0.8564174325181255)">3</text>
<rect class="edge_bg" x="-1.314522370220139" y="0.23981186319470577" width="0.2550632567354313" height="0.2550632567354313"/>
<text class="edge_text" text-anchor="middle" dominant-baseline="middle" transform="matrix(0.012753162836771564 0 0 0.012753162836771564 -1.1869907418524233 0.3673434915624214)">55</text>
</svg>
