<?xml version="1.0" encoding="utf-8"?>
<svg version="1.1" xmlns="http://www.w3.org/2000/svg" viewBox="-1.5791763151407427 -0.6291338104891321 2.8640611835841954 2.840943830760898" style="enable-background:new -1.5791763151407427 -0.6291338104891321 2.8640611835841954 2.840943830760898;">
<style type="text/css">
  .face_stroke {fill:none; stroke:#000000; stroke-width:0.02; stroke-miterlimit:10;}
  .face_text {fill:#000000; font-family:monospace;}
  .edge_text {fill:#ff0000; font-family:monospace;}
  .edge_bg {fill:#f3f3f3; stroke:#606060; stroke-width:0.01;}
</style>
<polygon class="face_stroke" points="0.288675134594813,-0.5 -0.5773502691896258,-7.07050159149938e-17 0.288675134594813,0.5"/>
<polygon class="face_stroke" points="0.28867486540518683,0.4999999999999999 1.1547002691896258,1.414100318299876e-16 0.28867486540518755,-0.5000000000000003"/>
<polygon class="face_stroke" points="0.2886747308103742,0.49999999999999994 1.1547001345948131,1.0 1.1547001345948127,-1.1102230246251565e-16"/>
<polygon class="face_stroke" points="0.2886747782255742,0.5000001457811754 -0.4544700472518202,1.1691307521400336 -0.047733404176020344,2.082676209782634 0.9467884911922531,1.9781477465149813 1.154700182010013,1.0000001457811758"/>
<polygon class="face_stroke" points="-0.4544694635944424,1.1691305159941505 -1.0422547158869158,1.9781475103690978 -0.04773282051864214,2.0826759736367517"/>
<polygon class="face_stroke" points="-0.4544692841130845,1.169130489630902 -1.448991179481358,1.0646020263632485 -1.0422545364055575,1.9781474840058495"/>
<polygon class="face_stroke" points="-0.4544698205186421,1.1691309736367514 -0.8612064635944424,0.25558551599415047 -1.4489917158869157,1.0646025103690977"/>
<polygon class="face_stroke" points="-0.4544695364055576,1.1691304840058496 0.1333157158869155,0.360113489630902 -0.8612061794813579,0.2555850263632484"/>
<text class="face_text" text-anchor="middle" dominant-baseline="middle" transform="matrix(0.005681887661521797 0 0 0.005681887661521797 0.0 0.0)">3</text>
<text class="face_text" text-anchor="middle" dominant-baseline="middle" transform="matrix(0.005681887661521797 0 0 0.005681887661521797 0.57735 0.0)">2</text>
<text class="face_text" text-anchor="middle" dominant-baseline="middle" transform="matrix(0.005681887661521797 0 0 0.005681887661521797 0.866025 0.5)">1</text>
<text class="face_text" text-anchor="middle" dominant-baseline="middle" transform="matrix(0.005681887661521797 0 0 0.005681887661521797 0.377592 1.345991)">0</text>
<text class="face_text" text-anchor="middle" dominant-baseline="middle" transform="matrix(0.005681887661521797 0 0 0.005681887661521797 -0.514819 1.743318)">5</text>
<text class="face_text" text-anchor="middle" dominant-baseline="middle" transform="matrix(0.005681887661521797 0 0 0.005681887661521797 -0.981905 1.40396)">7</text>
<text class="face_text" text-anchor="middle" dominant-baseline="middle" transform="matrix(0.005681887661521797 0 0 0.005681887661521797 -0.921556 0.829773)">6</text>
<text class="face_text" text-anchor="middle" dominant-baseline="middle" transform="matrix(0.005681887661521797 0 0 0.005681887661521797 -0.39412 0.594943)">4</text>
<rect class="edge_bg" x="0.2318559887899691" y="-0.056818876615218" width="0.11363775323043593" height="0.11363775323043593"/>
<text class="edge_text" text-anchor="middle" dominant-baseline="middle" transform="matrix(0.005681887661521797 0 0 0.005681887661521797 0.28867486540518705 -3.535250795749691e-17)">4</text>
<rect class="edge_bg" x="0.6648685560873756" y="0.19318112338478194" width="0.11363775323043593" height="0.11363775323043593"/>
<text class="edge_text" text-anchor="middle" dominant-baseline="middle" transform="matrix(0.005681887661521797 0 0 0.005681887661521797 0.7216874327025936 0.2499999999999999)">1</text>
<rect class="edge_bg" x="0.6648686035025755" y="0.6931812691659573" width="0.11363775323043593" height="0.11363775323043593"/>
<text class="edge_text" text-anchor="middle" dominant-baseline="middle" transform="matrix(0.005681887661521797 0 0 0.005681887661521797 0.7216874801177935 0.7500001457811754)">2</text>
<rect class="edge_bg" x="-0.30792001867176017" y="1.569084368200233" width="0.11363775323043593" height="0.11363775323043593"/>
<text class="edge_text" text-anchor="middle" dominant-baseline="middle" transform="matrix(0.005681887661521797 0 0 0.005681887661521797 -0.2511011420565422 1.625903244815451)">6</text>
<rect class="edge_bg" x="-0.8051807868745391" y="1.5168201102031578" width="0.11363775323043593" height="0.11363775323043593"/>
<text class="edge_text" text-anchor="middle" dominant-baseline="middle" transform="matrix(0.005681887661521797 0 0 0.005681887661521797 -0.7483619102593211 1.5736389868183758)">5</text>
<rect class="edge_bg" x="-1.0085496448179967" y="1.0600478653877068" width="0.11363775323043593" height="0.11363775323043593"/>
<text class="edge_text" text-anchor="middle" dominant-baseline="middle" transform="matrix(0.005681887661521797 0 0 0.005681887661521797 -0.9517307682027788 1.1168667420029248)">8</text>
<rect class="edge_bg" x="-0.7146567345586758" y="0.6555388785693311" width="0.11363775323043593" height="0.11363775323043593"/>
<text class="edge_text" text-anchor="middle" dominant-baseline="middle" transform="matrix(0.005681887661521797 0 0 0.005681887661521797 -0.6578378579434578 0.7123577551845491)">7</text>
</svg>
