<?xml version="1.0" encoding="utf-8"?>
<svg version="1.1" xmlns="http://www.w3.org/2000/svg" viewBox="-2.1963510519149074 -0.7030411927109416 3.5106251935380826 4.466906239640707" style="enable-background:new -2.1963510519149074 -0.7030411927109416 3.5106251935380826 4.466906239640707;">
<style type="text/css">
  .face_stroke {fill:none; stroke:#000000; stroke-width:0.02; stroke-miterlimit:10;}
  .face_text {fill:#000000; font-family:monospace;}
  .edge_text {fill:#ff0000; font-family:monospace;}
  .edge_bg {fill:#f3f3f3; stroke:#606060; stroke-width:0.01;}
</style>
<polygon class="face_stroke" points="0.288675134594813,-0.5 -0.5773502691896258,-7.07050159149938e-17 0.288675134594813,0.5"/>
<polygon class="face_stroke" points="0.28867486540518683,0.4999999999999999 1.1547002691896258,1.414100318299876e-16 0.28867486540518755,-0.5000000000000003"/>
<polygon class="face_stroke" points="0.2886747308103742,0.49999999999999994 1.1547001345948131,1.0 1.1547001345948127,-1.1102230246251565e-16"/>
<polygon class="face_stroke" points="0.2886747782255742,0.5000001457811754 -0.4544700472518202,1.1691307521400336 -0.047733404176020344,2.082676209782634 0.9467884911922531,1.9781477465149813 1.154700182010013,1.0000001457811758"/>
<polygon class="face_stroke" points="-0.4544694635944424,1.1691305159941505 -1.0422547158869158,1.9781475103690978 -0.04773282051864214,2.0826759736367517"/>
<polygon class="face_stroke" points="-1.0422554041760197,1.9781477902173656 -1.4489920472518203,2.8916932478599664 -0.7058472217744258,3.5608238542188246 0.16017818201001266,3.0608238542188246 -0.04773350880774607,2.0826762534850194"/>
<polygon class="face_stroke" points="-1.0422548205186422,1.9781480263632483 -2.0367767158869157,2.082676489630902 -1.4489914635944428,2.8916934840058492"/>
<polygon class="face_stroke" points="-1.0422552841130845,1.978147510369098 -1.6300405364055575,1.1691305159941505 -2.036777179481358,2.0826759736367513"/>
<polygon class="face_stroke" points="-1.0422544635944422,1.9781474840058495 -0.635517820518642,1.0646020263632485 -1.6300397158869155,1.169130489630902"/>
<polygon class="face_stroke" points="-0.6355182841130845,1.064602510369098 -1.2233035364055576,0.25558551599415047 -1.630040179481358,1.1691309736367514"/>
<polygon class="face_stroke" points="-0.6355184635944424,1.0646024840058494 -0.2287818205186421,0.15105702636324847 -1.2233037158869156,0.2555854896309019"/>
<text class="face_text" text-anchor="middle" dominant-baseline="middle" transform="matrix(0.007021250387076165 0 0 0.007021250387076165 0.0 0.0)">3</text>
<text class="face_text" text-anchor="middle" dominant-baseline="middle" transform="matrix(0.007021250387076165 0 0 0.007021250387076165 0.57735 0.0)">2</text>
<text class="face_text" text-anchor="middle" dominant-baseline="middle" transform="matrix(0.007021250387076165 0 0 0.007021250387076165 0.866025 0.5)">1</text>
<text class="face_text" text-anchor="middle" dominant-baseline="middle" transform="matrix(0.007021250387076165 0 0 0.007021250387076165 0.377592 1.345991)">0</text>
<text class="face_text" text-anchor="middle" dominant-baseline="middle" transform="matrix(0.007021250387076165 0 0 0.007021250387076165 -0.514819 1.743318)">5</text>
<text class="face_text" text-anchor="middle" dominant-baseline="middle" transform="matrix(0.007021250387076165 0 0 0.007021250387076165 -0.61693 2.714833)">8</text>
<text class="face_text" text-anchor="middle" dominant-baseline="middle" transform="matrix(0.007021250387076165 0 0 0.007021250387076165 -1.509341 2.317506)">10</text>
<text class="face_text" text-anchor="middle" dominant-baseline="middle" transform="matrix(0.007021250387076165 0 0 0.007021250387076165 -1.569691 1.743318)">9</text>
<text class="face_text" text-anchor="middle" dominant-baseline="middle" transform="matrix(0.007021250387076165 0 0 0.007021250387076165 -1.102604 1.40396)">7</text>
<text class="face_text" text-anchor="middle" dominant-baseline="middle" transform="matrix(0.007021250387076165 0 0 0.007021250387076165 -1.162954 0.829773)">6</text>
<text class="face_text" text-anchor="middle" dominant-baseline="middle" transform="matrix(0.007021250387076165 0 0 0.007021250387076165 -0.695868 0.490415)">4</text>
<rect class="edge_bg" x="0.2184623615344254" y="-0.0702125038707617" width="0.1404250077415233" height="0.1404250077415233"/>
<text class="edge_text" text-anchor="middle" dominant-baseline="middle" transform="matrix(0.007021250387076165 0 0 0.007021250387076165 0.28867486540518705 -3.535250795749691e-17)">4</text>
<rect class="edge_bg" x="0.651474928831832" y="0.17978749612923822" width="0.1404250077415233" height="0.1404250077415233"/>
<text class="edge_text" text-anchor="middle" dominant-baseline="middle" transform="matrix(0.007021250387076165 0 0 0.007021250387076165 0.7216874327025936 0.2499999999999999)">1</text>
<rect class="edge_bg" x="0.6514749762470319" y="0.6797876419104137" width="0.1404250077415233" height="0.1404250077415233"/>
<text class="edge_text" text-anchor="middle" dominant-baseline="middle" transform="matrix(0.007021250387076165 0 0 0.007021250387076165 0.7216874801177935 0.7500001457811754)">2</text>
<rect class="edge_bg" x="-0.3213136459273039" y="1.5556907409446892" width="0.1404250077415233" height="0.1404250077415233"/>
<text class="edge_text" text-anchor="middle" dominant-baseline="middle" transform="matrix(0.007021250387076165 0 0 0.007021250387076165 -0.2511011420565422 1.625903244815451)">6</text>
<rect class="edge_bg" x="-0.6152069603626449" y="1.9601995179804304" width="0.1404250077415233" height="0.1404250077415233"/>
<text class="edge_text" text-anchor="middle" dominant-baseline="middle" transform="matrix(0.007021250387076165 0 0 0.007021250387076165 -0.5449944564918833 2.030412021851192)">10</text>
<rect class="edge_bg" x="-1.315835645927304" y="2.364708251313787" width="0.1404250077415233" height="0.1404250077415233"/>
<text class="edge_text" text-anchor="middle" dominant-baseline="middle" transform="matrix(0.007021250387076165 0 0 0.007021250387076165 -1.2456231420565422 2.4349207551845486)">9</text>
<rect class="edge_bg" x="-1.6097287356679828" y="1.9601992381321631" width="0.1404250077415233" height="0.1404250077415233"/>
<text class="edge_text" text-anchor="middle" dominant-baseline="middle" transform="matrix(0.007021250387076165 0 0 0.007021250387076165 -1.539516231797221 2.030411742002925)">11</text>
<rect class="edge_bg" x="-1.4063595936114406" y="1.5034264829476143" width="0.1404250077415233" height="0.1404250077415233"/>
<text class="edge_text" text-anchor="middle" dominant-baseline="middle" transform="matrix(0.007021250387076165 0 0 0.007021250387076165 -1.3361470897406789 1.573638986818376)">12</text>
<rect class="edge_bg" x="-1.202991735667983" y="1.046654238132163" width="0.1404250077415233" height="0.1404250077415233"/>
<text class="edge_text" text-anchor="middle" dominant-baseline="middle" transform="matrix(0.007021250387076165 0 0 0.007021250387076165 -1.1327792317972212 1.1168667420029248)">8</text>
<rect class="edge_bg" x="-0.9996235936114406" y="0.5898814829476142" width="0.1404250077415233" height="0.1404250077415233"/>
<text class="edge_text" text-anchor="middle" dominant-baseline="middle" transform="matrix(0.007021250387076165 0 0 0.007021250387076165 -0.929411089740679 0.6600939868183758)">7</text>
</svg>
