<?xml version="1.0" encoding="utf-8"?>
<svg version="1.1" xmlns="http://www.w3.org/2000/svg" viewBox="-2.5990859795398946 -1.7798373876248843 6.249513545657404 3.5596747752497686" style="enable-background:new -2.5990859795398946 -1.7798373876248843 6.249513545657404 3.5596747752497686;">
<style type="text/css">
  .face_stroke {fill:none; stroke:#000000; stroke-width:0.02; stroke-miterlimit:10;}
  .face_text {fill:#000000; font-family:monospace;}
  .edge_text {fill:#ff0000; font-family:monospace;}
  .edge_bg {fill:#f3f3f3; stroke:#606060; stroke-width:0.01;}
</style>
<polygon class="face_stroke" points="0.288675134594813,-0.5 -0.5773502691896258,-7.07050159149938e-17 0.288675134594813,0.5"/>
<polygon class="face_stroke" points="0.2886752314123733,0.5000000000000006 0.8764604837048463,1.3090169943749472 1.8275169999999998,1.618033988749895 2.7785735162951535,1.3090169943749477 3.366358768587627,0.5000000000000004 3.366358768587627,-0.4999999999999996 2.7785735162951553,-1.3090169943749463 1.8275170000000005,-1.618033988749895 0.8764604837048467,-1.309016994374948 0.2886752314123735,-0.5000000000000006"/>
<polygon class="face_stroke" points="0.2886754635944424,0.4999995159941505 -0.11806117948135797,1.4135449736367516 0.8764607158869155,1.309016510369098"/>
<polygon class="face_stroke" points="0.28867517948135796,0.5000000263632485 -0.7058467158869155,0.6045284896309019 -0.11806146359444261,1.4135454840058497"/>
<polygon class="face_stroke" points="-0.7058465364055575,0.6045285159941506 -1.1125831794813579,1.5180739736367515 -0.11806128411308447,1.4135455103690981"/>
<polygon class="face_stroke" points="-0.7058469527481798,0.6045287521400337 -1.4489917782255741,-0.06460185421882447 -2.3150171820100125,0.43539814578117525 -2.1071054911922538,1.4135457465149808 -1.1125835958239798,1.5180742097826343"/>
<polygon class="face_stroke" points="-0.705846955113455,0.6045287356975547 -0.4979352642956956,-0.3736188650362511 -1.4489917805908492,-0.0646018706613036"/>
<text class="face_text" text-anchor="middle" dominant-baseline="middle" transform="matrix(0.007119349550499537 0 0 0.007119349550499537 0.0 0.0)">3</text>
<text class="face_text" text-anchor="middle" dominant-baseline="middle" transform="matrix(0.007119349550499537 0 0 0.007119349550499537 1.827517 0.0)">36</text>
<text class="face_text" text-anchor="middle" dominant-baseline="middle" transform="matrix(0.007119349550499537 0 0 0.007119349550499537 0.349025 1.074187)">29</text>
<text class="face_text" text-anchor="middle" dominant-baseline="middle" transform="matrix(0.007119349550499537 0 0 0.007119349550499537 -0.178411 0.839358)">2</text>
<text class="face_text" text-anchor="middle" dominant-baseline="middle" transform="matrix(0.007119349550499537 0 0 0.007119349550499537 -0.645497 1.178716)">1</text>
<text class="face_text" text-anchor="middle" dominant-baseline="middle" transform="matrix(0.007119349550499537 0 0 0.007119349550499537 -1.537909 0.781389)">0</text>
<text class="face_text" text-anchor="middle" dominant-baseline="middle" transform="matrix(0.007119349550499537 0 0 0.007119349550499537 -0.884258 0.055436)">4</text>
<rect class="edge_bg" x="0.21748173590737768" y="-0.07119349550499557" width="0.14238699100999075" height="0.14238699100999075"/>
<text class="edge_text" text-anchor="middle" dominant-baseline="middle" transform="matrix(0.007119349550499537 0 0 0.007119349550499537 0.28867523141237306 -1.8845376462950893e-16)">55</text>
<rect class="edge_bg" x="0.5113745942356835" y="0.8333145176766288" width="0.14238699100999075" height="0.14238699100999075"/>
<text class="edge_text" text-anchor="middle" dominant-baseline="middle" transform="matrix(0.007119349550499537 0 0 0.007119349550499537 0.582568089740679 0.9045080131816242)">57</text>
<rect class="edge_bg" x="0.014113362438462451" y="0.8855792596795538" width="0.14238699100999075" height="0.14238699100999075"/>
<text class="edge_text" text-anchor="middle" dominant-baseline="middle" transform="matrix(0.007119349550499537 0 0 0.007119349550499537 0.08530685794345783 0.9567727551845491)">38</text>
<rect class="edge_bg" x="-0.48314740576431636" y="0.9378435176766291" width="0.14238699100999075" height="0.14238699100999075"/>
<text class="edge_text" text-anchor="middle" dominant-baseline="middle" transform="matrix(0.007119349550499537 0 0 0.007119349550499537 -0.411953910259321 1.0090370131816244)">1</text>
<rect class="edge_bg" x="-0.9804087697910753" y="0.9901079854563388" width="0.14238699100999075" height="0.14238699100999075"/>
<text class="edge_text" text-anchor="middle" dominant-baseline="middle" transform="matrix(0.007119349550499537 0 0 0.007119349550499537 -0.90921527428608 1.0613014809613341)">2</text>
<rect class="edge_bg" x="-1.1486128633571475" y="0.19876993701313023" width="0.14238699100999075" height="0.14238699100999075"/>
<text class="edge_text" text-anchor="middle" dominant-baseline="middle" transform="matrix(0.007119349550499537 0 0 0.007119349550499537 -1.0774193678521522 0.2699634325181256)">0</text>
</svg>
