<?xml version="1.0" encoding="utf-8"?>
<svg version="1.1" xmlns="http://www.w3.org/2000/svg" viewBox="-4.214869687199023 -1.7798373876248843 7.9422393346336335 3.5596747752497686" style="enable-background:new -4.214869687199023 -1.7798373876248843 7.9422393346336335 3.5596747752497686;">
<style type="text/css">
  .face_stroke {fill:none; stroke:#000000; stroke-width:0.02; stroke-miterlimit:10;}
  .face_text {fill:#000000; font-family:monospace;}
  .edge_text {fill:#ff0000; font-family:monospace;}
  .edge_bg {fill:#f3f3f3; stroke:#606060; stroke-width:0.01;}
</style>
<polygon class="face_stroke" points="0.288675134594813,-0.5 -0.5773502691896258,-7.07050159149938e-17 0.288675134594813,0.5"/>
<polygon class="face_stroke" points="0.2886752314123733,0.5000000000000006 0.8764604837048463,1.3090169943749472 1.8275169999999998,1.618033988749895 2.7785735162951535,1.3090169943749477 3.366358768587627,0.5000000000000004 3.366358768587627,-0.4999999999999996 2.7785735162951553,-1.3090169943749463 1.8275170000000005,-1.618033988749895 0.8764604837048467,-1.309016994374948 0.2886752314123735,-0.5000000000000006"/>
<polygon class="face_stroke" points="0.2886754635944424,0.4999995159941505 -0.11806117948135797,1.4135449736367516 0.8764607158869155,1.309016510369098"/>
<polygon class="face_stroke" points="0.28867517948135796,0.5000000263632485 -0.7058467158869155,0.6045284896309019 -0.11806146359444261,1.4135454840058497"/>
<polygon class="face_stroke" points="-0.7058465364055575,0.6045285159941506 -1.1125831794813579,1.5180739736367515 -0.11806128411308447,1.4135455103690981"/>
<polygon class="face_stroke" points="-0.7058469527481798,0.6045287521400337 -1.4489917782255741,-0.06460185421882447 -2.3150171820100125,0.43539814578117525 -2.1071054911922538,1.4135457465149808 -1.1125835958239798,1.5180742097826343"/>
<polygon class="face_stroke" points="-1.4489917308103744,-0.064602 -2.3150171345948127,-0.5646020000000002 -2.315017134594813,0.4353979999999999"/>
<polygon class="face_stroke" points="-2.315017039764413,-0.564602 -3.266073556059567,-0.8736189943749475 -3.8538588083520398,-0.06460200000000012 -3.266073556059567,0.7444149943749473 -2.315017039764413,0.4353980000000001"/>
<polygon class="face_stroke" points="-2.3150172642956957,-0.5646021349637489 -2.5229289551134553,-1.5427497356975546 -3.2660737805908493,-0.8736191293386966"/>
<polygon class="face_stroke" points="-2.315017044886545,-0.5646022643024454 -1.5718722194091508,-1.2337328706613038 -2.5229287357043044,-1.5427498650362512"/>
<polygon class="face_stroke" points="-2.3150167805908493,-0.5646021293386966 -1.363960264295696,-0.25558513496374874 -1.5718719551134548,-1.2337327356975547"/>
<polygon class="face_stroke" points="-1.363960044886545,-0.2555852643024453 -0.6208152194091506,-0.9247158706613036 -1.5718717357043044,-1.2337328650362511"/>
<polygon class="face_stroke" points="-1.3639607805908494,-0.25558512933869654 -0.41290426429569593,0.0534318650362513 -0.6208159551134549,-0.9247157356975546"/>
<text class="face_text" text-anchor="middle" dominant-baseline="middle" transform="matrix(0.007119349550499537 0 0 0.007119349550499537 0.0 0.0)">3</text>
<text class="face_text" text-anchor="middle" dominant-baseline="middle" transform="matrix(0.007119349550499537 0 0 0.007119349550499537 1.827517 0.0)">36</text>
<text class="face_text" text-anchor="middle" dominant-baseline="middle" transform="matrix(0.007119349550499537 0 0 0.007119349550499537 0.349025 1.074187)">29</text>
<text class="face_text" text-anchor="middle" dominant-baseline="middle" transform="matrix(0.007119349550499537 0 0 0.007119349550499537 -0.178411 0.839358)">2</text>
<text class="face_text" text-anchor="middle" dominant-baseline="middle" transform="matrix(0.007119349550499537 0 0 0.007119349550499537 -0.645497 1.178716)">1</text>
<text class="face_text" text-anchor="middle" dominant-baseline="middle" transform="matrix(0.007119349550499537 0 0 0.007119349550499537 -1.537909 0.781389)">0</text>
<text class="face_text" text-anchor="middle" dominant-baseline="middle" transform="matrix(0.007119349550499537 0 0 0.007119349550499537 -2.026342 -0.064602)">5</text>
<text class="face_text" text-anchor="middle" dominant-baseline="middle" transform="matrix(0.007119349550499537 0 0 0.007119349550499537 -3.003208 -0.064602)">8</text>
<text class="face_text" text-anchor="middle" dominant-baseline="middle" transform="matrix(0.007119349550499537 0 0 0.007119349550499537 -2.70134 -0.993657)">10</text>
<text class="face_text" text-anchor="middle" dominant-baseline="middle" transform="matrix(0.007119349550499537 0 0 0.007119349550499537 -2.136606 -1.113695)">9</text>
<text class="face_text" text-anchor="middle" dominant-baseline="middle" transform="matrix(0.007119349550499537 0 0 0.007119349550499537 -1.750283 -0.68464)">7</text>
<text class="face_text" text-anchor="middle" dominant-baseline="middle" transform="matrix(0.007119349550499537 0 0 0.007119349550499537 -1.185549 -0.804678)">6</text>
<text class="face_text" text-anchor="middle" dominant-baseline="middle" transform="matrix(0.007119349550499537 0 0 0.007119349550499537 -0.799227 -0.375623)">4</text>
<rect class="edge_bg" x="0.21748173590737768" y="-0.07119349550499557" width="0.14238699100999075" height="0.14238699100999075"/>
<text class="edge_text" text-anchor="middle" dominant-baseline="middle" transform="matrix(0.007119349550499537 0 0 0.007119349550499537 0.28867523141237306 -1.8845376462950893e-16)">55</text>
<rect class="edge_bg" x="0.5113745942356835" y="0.8333145176766288" width="0.14238699100999075" height="0.14238699100999075"/>
<text class="edge_text" text-anchor="middle" dominant-baseline="middle" transform="matrix(0.007119349550499537 0 0 0.007119349550499537 0.582568089740679 0.9045080131816242)">57</text>
<rect class="edge_bg" x="0.014113362438462451" y="0.8855792596795538" width="0.14238699100999075" height="0.14238699100999075"/>
<text class="edge_text" text-anchor="middle" dominant-baseline="middle" transform="matrix(0.007119349550499537 0 0 0.007119349550499537 0.08530685794345783 0.9567727551845491)">38</text>
<rect class="edge_bg" x="-0.48314740576431636" y="0.9378435176766291" width="0.14238699100999075" height="0.14238699100999075"/>
<text class="edge_text" text-anchor="middle" dominant-baseline="middle" transform="matrix(0.007119349550499537 0 0 0.007119349550499537 -0.411953910259321 1.0090370131816244)">1</text>
<rect class="edge_bg" x="-0.9804087697910753" y="0.9901079854563388" width="0.14238699100999075" height="0.14238699100999075"/>
<text class="edge_text" text-anchor="middle" dominant-baseline="middle" transform="matrix(0.007119349550499537 0 0 0.007119349550499537 -0.90921527428608 1.0613014809613341)">2</text>
<rect class="edge_bg" x="-1.9531979282075889" y="0.11420450449500469" width="0.14238699100999075" height="0.14238699100999075"/>
<text class="edge_text" text-anchor="middle" dominant-baseline="middle" transform="matrix(0.007119349550499537 0 0 0.007119349550499537 -1.8820044327025935 0.18539800000000006)">6</text>
<rect class="edge_bg" x="-2.3862105352694085" y="-0.13579549550499537" width="0.14238699100999075" height="0.14238699100999075"/>
<text class="edge_text" text-anchor="middle" dominant-baseline="middle" transform="matrix(0.007119349550499537 0 0 0.007119349550499537 -2.315017039764413 -0.064602)">10</text>
<rect class="edge_bg" x="-2.861739017948268" y="-0.7903041276562179" width="0.14238699100999075" height="0.14238699100999075"/>
<text class="edge_text" text-anchor="middle" dominant-baseline="middle" transform="matrix(0.007119349550499537 0 0 0.007119349550499537 -2.7905455224432725 -0.7191106321512226)">9</text>
<rect class="edge_bg" x="-2.49016638580042" y="-1.1248695601743437" width="0.14238699100999075" height="0.14238699100999075"/>
<text class="edge_text" text-anchor="middle" dominant-baseline="middle" transform="matrix(0.007119349550499537 0 0 0.007119349550499537 -2.4189728902954246 -1.0536760646693484)">11</text>
<rect class="edge_bg" x="-2.0146378633571476" y="-0.9703609280231209" width="0.14238699100999075" height="0.14238699100999075"/>
<text class="edge_text" text-anchor="middle" dominant-baseline="middle" transform="matrix(0.007119349550499537 0 0 0.007119349550499537 -1.9434443678521522 -0.8991674325181256)">12</text>
<rect class="edge_bg" x="-1.53910938580042" y="-0.8158525601743436" width="0.14238699100999075" height="0.14238699100999075"/>
<text class="edge_text" text-anchor="middle" dominant-baseline="middle" transform="matrix(0.007119349550499537 0 0 0.007119349550499537 -1.4679158902954246 -0.7446590646693482)">8</text>
<rect class="edge_bg" x="-1.0635818633571477" y="-0.661343928023121" width="0.14238699100999075" height="0.14238699100999075"/>
<text class="edge_text" text-anchor="middle" dominant-baseline="middle" transform="matrix(0.007119349550499537 0 0 0.007119349550499537 -0.9923883678521522 -0.5901504325181256)">7</text>
</svg>
