<?xml version="1.0" encoding="utf-8"?>
<svg version="1.1" xmlns="http://www.w3.org/2000/svg" viewBox="-3.5057663704764894 -2.990377637906137 6.696923241554978 6.0755562814373265" style="enable-background:new -3.5057663704764894 -2.990377637906137 6.696923241554978 6.0755562814373265;">
<style type="text/css">
  .face_stroke {fill:none; stroke:#000000; stroke-width:0.02; stroke-miterlimit:10;}
  .face_text {fill:#000000; font-family:monospace;}
  .edge_text {fill:#ff0000; font-family:monospace;}
  .edge_bg {fill:#f3f3f3; stroke:#606060; stroke-width:0.01;}
</style>
<polygon class="face_stroke" points="0.288675134594813,-0.5 -0.5773502691896258,-7.07050159149938e-17 0.288675134594813,0.5"/>
<polygon class="face_stroke" points="0.28867486540518683,0.4999999999999999 1.1547002691896258,1.414100318299876e-16 0.28867486540518755,-0.5000000000000003"/>
<polygon class="face_stroke" points="0.2886747308103742,0.49999999999999994 1.1547001345948131,1.0 1.1547001345948127,-1.1102230246251565e-16"/>
<polygon class="face_stroke" points="1.1547008654051867,0.9999999999999999 2.020726269189626,0.5000000000000001 1.1547008654051876,-3.3306690738754696e-16"/>
<polygon class="face_stroke" points="1.154700730810374,0.9999999999999999 2.020726134594813,1.5 2.020726134594813,0.4999999999999999"/>
<polygon class="face_stroke" points="2.0207258654051867,1.5 2.8867512691896255,1.0000000000000002 2.020725865405187,0.49999999999999967"/>
<polygon class="face_stroke" points="2.020725730810374,1.5 2.886751134594813,2.0 2.8867511345948125,0.9999999999999999"/>
<polygon class="face_stroke" points="2.020725865405187,1.5 2.0207258654051867,2.5 2.8867512691896255,2.0"/>
<polygon class="face_stroke" points="2.0207259602355867,1.5 1.0696694439404333,1.1909830056250525 0.48188419164796015,2.0 1.069669443940433,2.8090169943749475 2.0207259602355867,2.5"/>
<polygon class="face_stroke" points="1.0696697158869155,1.190983489630902 0.0751478205186421,1.0864550263632484 0.4818844635944424,2.0000004840058496"/>
<polygon class="face_stroke" points="0.07514740417602006,1.0864547902173656 -0.9193744911922533,1.1909832534850189 -1.1272861820100128,2.169130854218824 -0.2612607782255745,2.6691308542188246 0.4818840472518201,2.0000002478599668"/>
<polygon class="face_stroke" points="-0.9193742642956957,1.190983134963749 -1.8704307805908496,1.5000001293386964 -1.1272859551134553,2.169130735697555"/>
<polygon class="face_stroke" points="-0.9193742194091507,1.1909828706613037 -1.662519044886545,0.5218522643024454 -1.8704307357043044,1.499999865036251"/>
<polygon class="face_stroke" points="-0.919373955113455,1.1909827356975546 -0.7114622642956956,0.2128351349637489 -1.6625187805908492,0.5218521293386964"/>
<polygon class="face_stroke" points="-0.7114624837048464,0.21283499437494746 -0.1236772314123733,-0.596182 -0.1236772314123733,-1.596182 -0.7114624837048464,-2.405198994374947 -1.662519,-2.7142159887498947 -2.6135755162951533,-2.405198994374947 -3.2013607685876266,-1.5961820000000002 -3.2013607685876266,-0.5961819999999994 -2.6135755162951537,0.21283499437494724 -1.6625190000000003,0.5218519887498949"/>
<text class="face_text" text-anchor="middle" dominant-baseline="middle" transform="matrix(0.012151112562874654 0 0 0.012151112562874654 0.0 0.0)">4</text>
<text class="face_text" text-anchor="middle" dominant-baseline="middle" transform="matrix(0.012151112562874654 0 0 0.012151112562874654 0.57735 0.0)">3</text>
<text class="face_text" text-anchor="middle" dominant-baseline="middle" transform="matrix(0.012151112562874654 0 0 0.012151112562874654 0.866025 0.5)">2</text>
<text class="face_text" text-anchor="middle" dominant-baseline="middle" transform="matrix(0.012151112562874654 0 0 0.012151112562874654 1.443376 0.5)">29</text>
<text class="face_text" text-anchor="middle" dominant-baseline="middle" transform="matrix(0.012151112562874654 0 0 0.012151112562874654 1.732051 1.0)">28</text>
<text class="face_text" text-anchor="middle" dominant-baseline="middle" transform="matrix(0.012151112562874654 0 0 0.012151112562874654 2.309401 1.0)">27</text>
<text class="face_text" text-anchor="middle" dominant-baseline="middle" transform="matrix(0.012151112562874654 0 0 0.012151112562874654 2.598076 1.5)">25</text>
<text class="face_text" text-anchor="middle" dominant-baseline="middle" transform="matrix(0.012151112562874654 0 0 0.012151112562874654 2.309401 2.0)">23</text>
<text class="face_text" text-anchor="middle" dominant-baseline="middle" transform="matrix(0.012151112562874654 0 0 0.012151112562874654 1.332535 2.0)">26</text>
<text class="face_text" text-anchor="middle" dominant-baseline="middle" transform="matrix(0.012151112562874654 0 0 0.012151112562874654 0.542234 1.425813)">1</text>
<text class="face_text" text-anchor="middle" dominant-baseline="middle" transform="matrix(0.012151112562874654 0 0 0.012151112562874654 -0.350178 1.82314)">0</text>
<text class="face_text" text-anchor="middle" dominant-baseline="middle" transform="matrix(0.012151112562874654 0 0 0.012151112562874654 -1.305697 1.620038)">5</text>
<text class="face_text" text-anchor="middle" dominant-baseline="middle" transform="matrix(0.012151112562874654 0 0 0.012151112562874654 -1.484108 1.070945)">7</text>
<text class="face_text" text-anchor="middle" dominant-baseline="middle" transform="matrix(0.012151112562874654 0 0 0.012151112562874654 -1.097785 0.64189)">6</text>
<text class="face_text" text-anchor="middle" dominant-baseline="middle" transform="matrix(0.012151112562874654 0 0 0.012151112562874654 -1.662519 -1.096182)">36</text>
<rect class="edge_bg" x="0.1671637397764405" y="-0.12151112562874658" width="0.24302225125749308" height="0.24302225125749308"/>
<text class="edge_text" text-anchor="middle" dominant-baseline="middle" transform="matrix(0.012151112562874654 0 0 0.012151112562874654 0.28867486540518705 -3.535250795749691e-17)">3</text>
<rect class="edge_bg" x="0.6001763070738471" y="0.12848887437125334" width="0.24302225125749308" height="0.24302225125749308"/>
<text class="edge_text" text-anchor="middle" dominant-baseline="middle" transform="matrix(0.012151112562874654 0 0 0.012151112562874654 0.7216874327025936 0.2499999999999999)">4</text>
<rect class="edge_bg" x="1.0331897397764407" y="0.3784888743712534" width="0.24302225125749308" height="0.24302225125749308"/>
<text class="edge_text" text-anchor="middle" dominant-baseline="middle" transform="matrix(0.012151112562874654 0 0 0.012151112562874654 1.1547008654051871 0.49999999999999994)">38</text>
<rect class="edge_bg" x="1.4662023070738472" y="0.6284888743712533" width="0.24302225125749308" height="0.24302225125749308"/>
<text class="edge_text" text-anchor="middle" dominant-baseline="middle" transform="matrix(0.012151112562874654 0 0 0.012151112562874654 1.5877134327025937 0.7499999999999999)">39</text>
<rect class="edge_bg" x="1.8992147397764403" y="0.8784888743712534" width="0.24302225125749308" height="0.24302225125749308"/>
<text class="edge_text" text-anchor="middle" dominant-baseline="middle" transform="matrix(0.012151112562874654 0 0 0.012151112562874654 2.0207258654051867 1.0)">35</text>
<rect class="edge_bg" x="2.332227307073847" y="1.1284888743712536" width="0.24302225125749308" height="0.24302225125749308"/>
<text class="edge_text" text-anchor="middle" dominant-baseline="middle" transform="matrix(0.012151112562874654 0 0 0.012151112562874654 2.4537384327025933 1.25)">36</text>
<rect class="edge_bg" x="2.33222744166866" y="1.6284888743712536" width="0.24302225125749308" height="0.24302225125749308"/>
<text class="edge_text" text-anchor="middle" dominant-baseline="middle" transform="matrix(0.012151112562874654 0 0 0.012151112562874654 2.4537385672974064 1.75)">29</text>
<rect class="edge_bg" x="1.8992148346068403" y="1.8784888743712536" width="0.24302225125749308" height="0.24302225125749308"/>
<text class="edge_text" text-anchor="middle" dominant-baseline="middle" transform="matrix(0.012151112562874654 0 0 0.012151112562874654 2.0207259602355867 2.0)">34</text>
<rect class="edge_bg" x="0.6542659641119325" y="1.4739808611896295" width="0.24302225125749308" height="0.24302225125749308"/>
<text class="edge_text" text-anchor="middle" dominant-baseline="middle" transform="matrix(0.012151112562874654 0 0 0.012151112562874654 0.775777089740679 1.595491986818376)">37</text>
<rect class="edge_bg" x="0.15700460008517347" y="1.4217163934099195" width="0.24302225125749308" height="0.24302225125749308"/>
<text class="edge_text" text-anchor="middle" dominant-baseline="middle" transform="matrix(0.012151112562874654 0 0 0.012151112562874654 0.27851572571392 1.543227519038666)">2</text>
<rect class="edge_bg" x="-1.1448412353333217" y="1.5585458097019054" width="0.24302225125749308" height="0.24302225125749308"/>
<text class="edge_text" text-anchor="middle" dominant-baseline="middle" transform="matrix(0.012151112562874654 0 0 0.012151112562874654 -1.0233301097045753 1.6800569353306518)">6</text>
<rect class="edge_bg" x="-1.5164136031854738" y="1.223980242220031" width="0.24302225125749308" height="0.24302225125749308"/>
<text class="edge_text" text-anchor="middle" dominant-baseline="middle" transform="matrix(0.012151112562874654 0 0 0.012151112562874654 -1.3949024775567274 1.3454913678487774)">5</text>
<rect class="edge_bg" x="-1.4124574934808987" y="0.734906306889379" width="0.24302225125749308" height="0.24302225125749308"/>
<text class="edge_text" text-anchor="middle" dominant-baseline="middle" transform="matrix(0.012151112562874654 0 0 0.012151112562874654 -1.2909463678521522 0.8564174325181255)">8</text>
<rect class="edge_bg" x="-1.3085018674811697" y="0.24583236593367486" width="0.24302225125749308" height="0.24302225125749308"/>
<text class="edge_text" text-anchor="middle" dominant-baseline="middle" transform="matrix(0.012151112562874654 0 0 0.012151112562874654 -1.1869907418524233 0.3673434915624214)">56</text>
</svg>
