<?xml version="1.0" encoding="utf-8"?>
<svg version="1.1" xmlns="http://www.w3.org/2000/svg" viewBox="-0.7072542441628829 -1.1750000000000003 2.857884488325766 3.85" style="enable-background:new -0.7072542441628829 -1.1750000000000003 2.857884488325766 3.85;">
<style type="text/css">
  .face_stroke {fill:none; stroke:#000000; stroke-width:0.02; stroke-miterlimit:10;}
  .face_text {fill:#000000; font-family:monospace;}
  .edge_text {fill:#ff0000; font-family:monospace;}
  .edge_bg {fill:#f3f3f3; stroke:#606060; stroke-width:0.01;}
</style>
<polygon class="face_stroke" points="0.288675134594813,-0.5 -0.5773502691896258,-7.07050159149938e-17 0.288675134594813,0.5"/>
<polygon class="face_stroke" points="0.28867559621556116,0.5000000000000002 1.1547009999999998,1.0000000000000002 2.0207264037844386,0.5000000000000006 2.0207264037844395,-0.4999999999999994 1.1547010000000002,-1.0000000000000002 0.28867559621556094,-0.4999999999999999"/>
<polygon class="face_stroke" points="0.28867500000000007,0.4999999999999998 -0.5773504037844389,1.0 -0.5773504037844388,2.0 0.28867499999999985,2.5 1.1547004037844386,2.0000000000000004 1.1547004037844393,1.0000000000000007"/>
<text class="face_text" text-anchor="middle" dominant-baseline="middle" transform="matrix(0.005715768976651532 0 0 0.005715768976651532 0.0 0.0)">0</text>
<text class="face_text" text-anchor="middle" dominant-baseline="middle" transform="matrix(0.005715768976651532 0 0 0.005715768976651532 1.154701 0.0)">2</text>
<text class="face_text" text-anchor="middle" dominant-baseline="middle" transform="matrix(0.005715768976651532 0 0 0.005715768976651532 0.288675 1.5)">1</text>
<rect class="edge_bg" x="0.23151790644904585" y="-0.057157689766515425" width="0.11431537953303064" height="0.11431537953303064"/>
<text class="edge_text" text-anchor="middle" dominant-baseline="middle" transform="matrix(0.005715768976651532 0 0 0.005715768976651532 0.28867559621556116 -1.0605752387249072e-16)">0</text>
<rect class="edge_bg" x="0.6645300121257042" y="0.6928423102334845" width="0.11431537953303064" height="0.11431537953303064"/>
<text class="edge_text" text-anchor="middle" dominant-baseline="middle" transform="matrix(0.005715768976651532 0 0 0.005715768976651532 0.7216877018922195 0.7499999999999999)">1</text>
</svg>
