<?xml version="1.0" encoding="utf-8"?>
<svg version="1.1" id="layer_1" xmlns="http://www.w3.org/2000/svg" xmlns:xlink="http://www.w3.org/1999/xlink" x="0px" y="0px" viewBox="-0.916025403784439 -1.0500000000000003 3.5641008075688783 3.1" style="enable-background:new -0.916025403784439 -1.0500000000000003 3.5641008075688783 3.1;" xml:space="preserve">
<style type="text/css">
  .no_fill_black_stroke {fill:none; stroke:#000000; stroke-width:0.02; stroke-miterlimit:10;}
  .face_text {fill:#000000; font-family:monospace;}
  .edge_text {fill:#ff0000; font-family:monospace;}
  .edge_bg {fill:#f3f3f3; stroke:#606060; stroke-width:0.02;}
</style>
<polygon class="no_fill_black_stroke" points="0.8660254037844389, -0.5 6.123233995736767e-17, -1.0000000000000002 -0.8660254037844389, -0.5 -0.8660254037844388, 0.5000000000000002 -1.8369701987210302e-16, 1.0000000000000002 0.8660254037844386, 0.5000000000000006"/>
<polygon class="no_fill_black_stroke" points="0.8660248654051869, 0.4999999999999999 1.7320502691896258, 1.414100318299876e-16 0.8660248654051876, -0.5000000000000003"/>
<polygon class="no_fill_black_stroke" points="0.8660245962155612, 0.5 0.8660245962155613, 1.5000000000000002 1.7320499999999999, 2.0 2.5980754037844385, 1.5000000000000004 2.5980754037844394, 0.5000000000000007 1.7320500000000003, -2.220446049250313e-16"/>
<text class="face_text" text-anchor="middle" dominant-baseline="middle" transform="matrix(0.006200000000000001 0 0 0.006200000000000001 0.0 0.0)">2</text>
<text class="face_text" text-anchor="middle" dominant-baseline="middle" transform="matrix(0.006200000000000001 0 0 0.006200000000000001 1.1547 0.0)">0</text>
<text class="face_text" text-anchor="middle" dominant-baseline="middle" transform="matrix(0.006200000000000001 0 0 0.006200000000000001 1.73205 1.0)">3</text>
<rect class="edge_bg" x="0.804024865405187" y="-0.06200000000000004" width="0.12400000000000001" height="0.12400000000000001"/>
<text class="edge_text" text-anchor="middle" dominant-baseline="middle" transform="matrix(0.006200000000000001 0 0 0.006200000000000001 0.8660248654051871 -3.535250795749691e-17)">0</text>
<rect class="edge_bg" x="1.2370372981077808" y="0.18799999999999978" width="0.12400000000000001" height="0.12400000000000001"/>
<text class="edge_text" text-anchor="middle" dominant-baseline="middle" transform="matrix(0.006200000000000001 0 0 0.006200000000000001 1.299037298107781 0.24999999999999978)">4</text>
</svg>
