<?xml version="1.0" encoding="utf-8"?>
<svg version="1.1" xmlns="http://www.w3.org/2000/svg" viewBox="-8.78810180522488 -6.754710865557712 15.472908610449759 15.925887731115424" style="enable-background:new -8.78810180522488 -6.754710865557712 15.472908610449759 15.925887731115424;">
<style type="text/css">
  .face_stroke {fill:none; stroke:#000000; stroke-width:0.02; stroke-miterlimit:10;}
  .face_text {fill:#000000; font-family:monospace;}
  .edge_text {fill:#ff0000; font-family:monospace;}
  .edge_bg {fill:#f3f3f3; stroke:#606060; stroke-width:0.01;}
</style>
<polygon class="face_stroke" points="0.5000000000000001,-0.5 -0.5,-0.5000000000000001 -0.5000000000000001,0.5 0.4999999999999999,0.5000000000000001"/>
<polygon class="face_stroke" points="0.4999999999999999,0.5 1.5,0.5000000000000001 1.5000000000000007,-0.49999999999999944 0.49999999999999967,-0.4999999999999998"/>
<polygon class="face_stroke" points="1.5,0.5 2.5,0.5000000000000001 2.500000000000001,-0.49999999999999944 1.4999999999999996,-0.4999999999999998"/>
<polygon class="face_stroke" points="1.4999999999999996,0.5000004558470872 0.531416838871368,0.7486903430119418 -0.3448898411724941,1.2304440171136566 -1.0738584685939054,1.9149911230423449 -1.6096852635729029,2.759319048544361 -1.9187022579478503,3.7103755648395156 -1.9814927774771633,4.708402293267785 -1.7941114628914385,5.690689543996475 -1.3683321713263656,6.5955165964624936 -0.730908181577675,7.366029839238284 0.078108812797274,7.953815091530757 1.0078852986855238,8.321939644215433 2.0000000000000027,8.447272877779739 2.9921147013144784,8.321939644215433 3.9218911872027276,7.953815091530757 4.730908181577674,7.366029839238285 5.368332171326365,6.595516596462495 5.794111462891437,5.690689543996478 5.981492777477163,4.708402293267792 5.918702257947851,3.7103755648395227 5.609685263572907,2.75931904854437 5.073858468593914,1.9149911230423555 4.344889841172504,1.2304440171136637 3.468583161128644,0.7486903430119467 2.500000000000016,0.500000455847089"/>
<polygon class="face_stroke" points="-0.3448901333249498,1.2304437607463612 -1.0294372392536384,0.5014751333249498 -1.7584058666750502,1.1860222392536386 -1.0738587607463614,1.91499086667505"/>
<polygon class="face_stroke" points="-1.0294365314060938,0.501474876957654 -0.49360973642709727,-0.3428530485443606 -0.18459274205215026,-1.2939095648395145 -0.12180222252283679,-2.291936293267786 -0.3091835371085616,-3.2742235439964746 -0.7349628286736345,-4.179050596462494 -1.3723868184223238,-4.949563839238283 -2.181403812797271,-5.537349091530755 -3.1111802986855226,-5.905473644215434 -4.103295000000002,-6.030806877779738 -5.095409701314479,-5.905473644215434 -6.0251861872027295,-5.537349091530755 -6.834203181577677,-4.949563839238282 -7.471627171326367,-4.179050596462492 -7.897406462891439,-3.274223543996473 -8.084787777477164,-2.2919362932677827 -8.021997257947849,-1.2939095648395118 -7.712980263572901,-0.3428530485443573 -7.177153468593904,0.5014748769576567 -6.448184841172493,1.186021982886345 -5.571878161128627,1.6677756569880597 -4.603294999999998,1.916465544152913 -3.603295,1.916465544152913 -2.634711838871368,1.6677756569880575 -1.7584051588275065,1.1860219828863436"/>
<text class="face_text" text-anchor="middle" dominant-baseline="middle" transform="matrix(0.030945817220899518 0 0 0.030945817220899518 0.0 0.0)">0</text>
<text class="face_text" text-anchor="middle" dominant-baseline="middle" transform="matrix(0.030945817220899518 0 0 0.030945817220899518 1.0 0.0)">24</text>
<text class="face_text" text-anchor="middle" dominant-baseline="middle" transform="matrix(0.030945817220899518 0 0 0.030945817220899518 2.0 0.0)">23</text>
<text class="face_text" text-anchor="middle" dominant-baseline="middle" transform="matrix(0.030945817220899518 0 0 0.030945817220899518 2.0 4.457908)">26</text>
<text class="face_text" text-anchor="middle" dominant-baseline="middle" transform="matrix(0.030945817220899518 0 0 0.030945817220899518 -1.051648 1.208233)">1</text>
<text class="face_text" text-anchor="middle" dominant-baseline="middle" transform="matrix(0.030945817220899518 0 0 0.030945817220899518 -4.103295 -2.041442)">25</text>
<rect class="edge_bg" x="0.1905418277910047" y="-0.30945817220899524" width="0.6189163444179904" height="0.6189163444179904"/>
<text class="edge_text" text-anchor="middle" dominant-baseline="middle" transform="matrix(0.030945817220899518 0 0 0.030945817220899518 0.4999999999999999 -6.123233995736767e-17)">0</text>
<rect class="edge_bg" x="1.1905418277910047" y="-0.30945817220899524" width="0.6189163444179904" height="0.6189163444179904"/>
<text class="edge_text" text-anchor="middle" dominant-baseline="middle" transform="matrix(0.030945817220899518 0 0 0.030945817220899518 1.5 -6.123233995736767e-17)">74</text>
<rect class="edge_bg" x="1.6905418277910051" y="0.19054228363809111" width="0.6189163444179904" height="0.6189163444179904"/>
<text class="edge_text" text-anchor="middle" dominant-baseline="middle" transform="matrix(0.030945817220899518 0 0 0.030945817220899518 2.0000000000000004 0.5000004558470863)">73</text>
<rect class="edge_bg" x="-1.0188326192446509" y="1.2632591415017105" width="0.6189163444179904" height="0.6189163444179904"/>
<text class="edge_text" text-anchor="middle" dominant-baseline="middle" transform="matrix(0.030945817220899518 0 0 0.030945817220899518 -0.7093744470356556 1.5727173137107058)">7</text>
<rect class="edge_bg" x="-1.7033790173257946" y="0.5342902577130034" width="0.6189163444179904" height="0.6189163444179904"/>
<text class="edge_text" text-anchor="middle" dominant-baseline="middle" transform="matrix(0.030945817220899518 0 0 0.030945817220899518 -1.3939208451167993 0.8437484299219986)">6</text>
</svg>
