<?xml version="1.0" encoding="utf-8"?>
<svg version="1.1" xmlns="http://www.w3.org/2000/svg" viewBox="-1.004534989187244 -0.9553695438124422 3.385451978374488 3.2197560876248845" style="enable-background:new -1.004534989187244 -0.9553695438124422 3.385451978374488 3.2197560876248845;">
<style type="text/css">
  .face_stroke {fill:none; stroke:#000000; stroke-width:0.02; stroke-miterlimit:10;}
  .face_text {fill:#000000; font-family:monospace;}
  .edge_text {fill:#ff0000; font-family:monospace;}
  .edge_bg {fill:#f3f3f3; stroke:#606060; stroke-width:0.01;}
</style>
<polygon class="face_stroke" points="0.6881909602355868,-0.5 -0.26286555605956674,-0.8090169943749475 -0.8506508083520399,-1.0417467896404342e-16 -0.2628655560595669,0.8090169943749473 0.6881909602355867,0.5000000000000001"/>
<polygon class="face_stroke" points="0.6881910397644132,0.4999999999999999 1.6392475560595665,0.8090169943749475 2.22703280835204,2.0834935792808685e-16 1.639247556059567,-0.8090169943749473 0.6881910397644134,-0.5000000000000001"/>
<polygon class="face_stroke" points="0.6881914439404333,0.5000000056250526 0.10040619164796016,1.309017 0.6881914439404331,2.1180339943749473 1.6392479602355867,1.8090170000000003 1.6392479602355863,0.8090169999999998"/>
<text class="face_text" text-anchor="middle" dominant-baseline="middle" transform="matrix(0.006439512175249769 0 0 0.006439512175249769 0.0 0.0)">0</text>
<text class="face_text" text-anchor="middle" dominant-baseline="middle" transform="matrix(0.006439512175249769 0 0 0.006439512175249769 1.376382 0.0)">2</text>
<text class="face_text" text-anchor="middle" dominant-baseline="middle" transform="matrix(0.006439512175249769 0 0 0.006439512175249769 0.951057 1.309017)">1</text>
<rect class="edge_bg" x="0.6237959180119155" y="-0.06439512175249777" width="0.12879024350499538" height="0.12879024350499538"/>
<text class="edge_text" text-anchor="middle" dominant-baseline="middle" transform="matrix(0.006439512175249769 0 0 0.006439512175249769 0.6881910397644132 -8.427908566546547e-17)">0</text>
<rect class="edge_bg" x="1.0993245803355125" y="0.5901133810600286" width="0.12879024350499538" height="0.12879024350499538"/>
<text class="edge_text" text-anchor="middle" dominant-baseline="middle" transform="matrix(0.006439512175249769 0 0 0.006439512175249769 1.1637197020880101 0.6545085028125264)">1</text>
</svg>
