<?xml version="1.0" encoding="utf-8"?>
<svg version="1.1" xmlns="http://www.w3.org/2000/svg" viewBox="-2.788952535094611 -2.0026282504463118 4.655255772081441 3.0052560681900298" style="enable-background:new -2.788952535094611 -2.0026282504463118 4.655255772081441 3.0052560681900298;">
<style type="text/css">
  .face_stroke {fill:none; stroke:#000000; stroke-width:0.02; stroke-miterlimit:10;}
  .face_text {fill:#000000; font-family:monospace;}
  .edge_text {fill:#ff0000; font-family:monospace;}
  .edge_bg {fill:#f3f3f3; stroke:#606060; stroke-width:0.01;}
</style>
<polygon class="face_stroke" points="0.288675134594813,-0.5 -0.5773502691896258,-7.07050159149938e-17 0.288675134594813,0.5"/>
<polygon class="face_stroke" points="0.28867486540518683,0.4999999999999999 1.1547002691896258,1.414100318299876e-16 0.28867486540518755,-0.5000000000000003"/>
<polygon class="face_stroke" points="1.1547007018922193,-2.981077805719323e-07 1.6547007018922195,-0.8660257018922193 0.7886752981077806,-1.3660257018922195 0.2886752981077805,-0.5000002981077809"/>
<polygon class="face_stroke" points="0.7886750000000001,-1.366025134594813 -0.2113250000000001,-1.366025134594813 0.2886749999999999,-0.4999997308103742"/>
<polygon class="face_stroke" points="-0.21132499999999999,-1.3660252691896257 -0.711325,-0.49999986540518704 0.2886749999999999,-0.4999998654051868"/>
<polygon class="face_stroke" points="-0.21132529810778056,-1.3660257018922195 -1.0773507018922195,-1.8660257018922195 -1.5773507018922195,-1.0000002981077811 -0.7113252981077803,-0.5000002981077808"/>
<polygon class="face_stroke" points="-1.5773501345948129,-1.0 -1.577350134594813,-1.1102230246251565e-16 -0.7113247308103742,-0.49999999999999983"/>
<polygon class="face_stroke" points="-1.57735,-1.0 -2.57735,-1.0 -2.57735,0.0 -1.57735,1.1102230246251565e-16"/>
<polygon class="face_stroke" points="-2.57735,-1.3459481285060804e-07 -2.07735,0.8660252691896259 -1.5773499999999996,-1.3459481246202998e-07"/>
<polygon class="face_stroke" points="-2.07735,0.866025134594813 -1.07735,0.8660251345948132 -1.5773499999999998,-2.691896258122384e-07"/>
<polygon class="face_stroke" points="-1.07735,0.8660252691896259 -0.5773499999999999,-1.3459481285060804e-07 -1.57735,-1.3459481285060804e-07"/>
</svg>
