<?xml version="1.0" encoding="utf-8"?>
<svg version="1.1" xmlns="http://www.w3.org/2000/svg" viewBox="-2.623279954784035 -1.5093269869868304 3.957884044162883 3.1526282720814414" style="enable-background:new -2.623279954784035 -1.5093269869868304 3.957884044162883 3.1526282720814414;">
<style type="text/css">
  .face_stroke {fill:none; stroke:#000000; stroke-width:0.02; stroke-miterlimit:10;}
  .face_text {fill:#000000; font-family:monospace;}
  .edge_text {fill:#ff0000; font-family:monospace;}
  .edge_bg {fill:#f3f3f3; stroke:#606060; stroke-width:0.01;}
</style>
<polygon class="face_stroke" points="0.288675134594813,-0.5 -0.5773502691896258,-7.07050159149938e-17 0.288675134594813,0.5"/>
<polygon class="face_stroke" points="0.28867486540518683,0.4999999999999999 1.1547002691896258,1.414100318299876e-16 0.28867486540518755,-0.5000000000000003"/>
<polygon class="face_stroke" points="0.2886747308103742,0.49999999999999994 1.1547001345948131,1.0 1.1547001345948127,-1.1102230246251565e-16"/>
<polygon class="face_stroke" points="0.2886748654051872,0.4999999999999999 0.28867486540518683,1.5 1.1547002691896258,1.0000000000000002"/>
<polygon class="face_stroke" points="0.2886750000000001,0.5 -0.711325,0.4999999999999999 -0.7113250000000001,1.5 0.2886749999999999,1.5"/>
<polygon class="face_stroke" points="-0.711324865405187,0.5 -1.5773502691896257,0.9999999999999999 -0.711324865405187,1.5"/>
<polygon class="face_stroke" points="-0.7113247308103742,0.5 -1.5773501345948129,-1.1102230246251565e-16 -1.577350134594813,0.9999999999999999"/>
<polygon class="face_stroke" points="-1.577349865405187,0.0 -2.4433752691896258,0.49999999999999994 -1.577349865405187,1.0"/>
<polygon class="face_stroke" points="-1.5773507308103745,0.0 -2.443376134594813,-0.5000000000000001 -2.4433761345948133,0.4999999999999999"/>
<polygon class="face_stroke" points="-1.5773502981077805,-2.981077805719323e-07 -1.0773502981077805,-0.8660257018922193 -1.9433757018922193,-1.3660257018922195 -2.4433757018922195,-0.5000002981077809"/>
<polygon class="face_stroke" points="-1.57735,1.3459481296163034e-07 -0.5773500000000001,1.3459481318367494e-07 -1.0773499999999998,-0.8660252691896259"/>
</svg>
