<?xml version="1.0" encoding="utf-8"?>
<svg version="1.1" xmlns="http://www.w3.org/2000/svg" viewBox="-4.219798020245875 -1.427580111866457 5.7707812593052035 4.4623660708570645" style="enable-background:new -4.219798020245875 -1.427580111866457 5.7707812593052035 4.4623660708570645;">
<style type="text/css">
  .face_stroke {fill:none; stroke:#000000; stroke-width:0.02; stroke-miterlimit:10;}
  .face_text {fill:#000000; font-family:monospace;}
  .edge_text {fill:#ff0000; font-family:monospace;}
  .edge_bg {fill:#f3f3f3; stroke:#606060; stroke-width:0.01;}
</style>
<polygon class="face_stroke" points="0.288675134594813,-0.5 -0.5773502691896258,-7.07050159149938e-17 0.288675134594813,0.5"/>
<polygon class="face_stroke" points="0.2886749999999999,0.5 1.288675,0.5000000000000001 1.2886750000000007,-0.49999999999999944 0.2886749999999997,-0.4999999999999998"/>
<polygon class="face_stroke" points="0.2886749999999999,0.49999986540518715 0.7886749999999999,1.3660252691896257 1.2886750000000005,0.49999986540518754"/>
<polygon class="face_stroke" points="0.2886751375880139,0.49999990751450696 -0.6772506887010541,0.241180862411986 -1.5432760924854934,0.7411808624119864 -1.802095137588014,1.7071066887010542 -1.3020951375880143,2.5731320924854932 -0.33616931129894484,2.831951137588014 0.5298560924854929,2.3319511375880144 0.7886751375880141,1.3660253112989462"/>
<polygon class="face_stroke" points="-0.6772507308103742,0.241181 -1.543276134594813,-0.25881900000000013 -1.5432761345948132,0.7411809999999999"/>
<polygon class="face_stroke" points="-1.5432762188134523,-0.258819 -2.250383,-0.9659257811865475 -3.250383,-0.9659257811865475 -3.9574897811865473,-0.25881900000000024 -3.9574897811865477,0.7411809999999993 -3.2503829999999994,1.4482877811865478 -2.2503829999999994,1.4482877811865476 -1.5432762188134521,0.7411809999999998"/>
<polygon class="face_stroke" points="-1.5432757546386577,-0.2588194641747946 -1.2844567095361368,-1.2247452904638632 -2.250382535825205,-0.9659262453613424"/>
<polygon class="face_stroke" points="-1.5432764356957946,-0.2588186094067262 -0.5773506094067261,4.3569579455393637e-07 -0.31853156430420515,-0.9659253905932733 -1.2844573905932732,-1.2247444356957948"/>
</svg>
