<?xml version="1.0" encoding="utf-8"?>
<svg version="1.1" xmlns="http://www.w3.org/2000/svg" viewBox="-4.354915851346815 -1.6435761093052024 8.35532970269363 5.045971218610405" style="enable-background:new -4.354915851346815 -1.6435761093052024 8.35532970269363 5.045971218610405;">
<style type="text/css">
  .face_stroke {fill:none; stroke:#000000; stroke-width:0.02; stroke-miterlimit:10;}
  .face_text {fill:#000000; font-family:monospace;}
  .edge_text {fill:#ff0000; font-family:monospace;}
  .edge_bg {fill:#f3f3f3; stroke:#606060; stroke-width:0.01;}
</style>
<polygon class="face_stroke" points="0.288675134594813,-0.5 -0.5773502691896258,-7.07050159149938e-17 0.288675134594813,0.5"/>
<polygon class="face_stroke" points="0.2886749999999999,0.5 1.288675,0.5000000000000001 1.2886750000000007,-0.49999999999999944 0.2886749999999997,-0.4999999999999998"/>
<polygon class="face_stroke" points="1.288674865405187,0.4999999999999999 2.1547002691896258,1.414100318299876e-16 1.2886748654051876,-0.5000000000000003"/>
<polygon class="face_stroke" points="1.2886749075145068,0.49999986241198635 1.029855862411986,1.465925688701054 1.5298558624119858,2.331951092485493 2.4957816887010553,2.590770137588014 3.361807092485493,2.0907701375880143 3.6206261375880144,1.1248443112989461 3.1206261375880135,0.2588189075145064 2.1547003112989462,-1.3758801409302635e-07"/>
<polygon class="face_stroke" points="1.288675290463863,0.49999970953613704 0.32274946417479466,0.7588187546386577 1.0298562453613425,1.4659255358252055"/>
<polygon class="face_stroke" points="0.3227490000000001,0.7588192188134526 -0.6772509999999999,0.7588192188134526 -1.3843577811865475,1.4659259999999998 -1.384357781186548,2.4659259999999996 -0.6772509999999996,3.1730327811865475 0.32274900000000034,3.1730327811865475 1.0298557811865476,2.4659259999999996 1.0298557811865479,1.465926000000001"/>
<polygon class="face_stroke" points="-0.6772504641747946,0.7588187546386578 -1.6431762904638632,0.499999709536137 -1.3843572453613422,1.4659255358252055"/>
<polygon class="face_stroke" points="-1.643176907514507,0.49999986241198613 -2.5092023112989454,-1.3758801387098174e-07 -3.475128137588014,0.25881890751450687 -3.975128137588014,1.1248443112989457 -3.7163090924854933,2.090770137588014 -2.8502836887010545,2.590770137588014 -1.8843578624119863,2.331951092485493 -1.3843578624119863,1.4659256887010546"/>
<polygon class="face_stroke" points="-2.5092014641747946,2.4536134224373285e-07 -3.2163082453613425,-0.7071065358252054 -3.4751272904638633,0.258819290463863"/>
<polygon class="face_stroke" points="-2.509202,-2.1881345246832495e-07 -1.8020952188134527,-0.707107 -2.509202,-1.4142137811865476 -3.2163087811865476,-0.7071070000000002"/>
<polygon class="face_stroke" points="-2.5092015358252056,2.4536134202168824e-07 -1.5432757095361371,0.2588192904638632 -1.8020947546386579,-0.7071065358252054"/>
<polygon class="face_stroke" points="-1.5432763905932738,0.2588194356957946 -0.5773505643042055,3.905932737247042e-07 -0.8361696094067262,-0.9659254356957946 -1.8020954356957946,-0.7071063905932737"/>
</svg>
