<?xml version="1.0" encoding="utf-8"?>
<svg version="1.1" xmlns="http://www.w3.org/2000/svg" viewBox="-1.6466652390593275 -1.6242208438662311 5.770781259305203 5.680293123428257" style="enable-background:new -1.6466652390593275 -1.6242208438662311 5.770781259305203 5.680293123428257;">
<style type="text/css">
  .face_stroke {fill:none; stroke:#000000; stroke-width:0.02; stroke-miterlimit:10;}
  .face_text {fill:#000000; font-family:monospace;}
  .edge_text {fill:#ff0000; font-family:monospace;}
  .edge_bg {fill:#f3f3f3; stroke:#606060; stroke-width:0.01;}
</style>
<polygon class="face_stroke" points="0.288675134594813,-0.5 -0.5773502691896258,-7.07050159149938e-17 0.288675134594813,0.5"/>
<polygon class="face_stroke" points="0.2886749999999999,0.5 1.288675,0.5000000000000001 1.2886750000000007,-0.49999999999999944 0.2886749999999997,-0.4999999999999998"/>
<polygon class="face_stroke" points="1.288674865405187,0.4999999999999999 2.1547002691896258,1.414100318299876e-16 1.2886748654051876,-0.5000000000000003"/>
<polygon class="face_stroke" points="2.1547007018922195,-2.981077805719323e-07 2.6547007018922195,-0.8660257018922193 1.7886752981077807,-1.3660257018922195 1.2886752981077807,-0.5000002981077809"/>
<polygon class="face_stroke" points="2.154701,1.3459481296163034e-07 3.154701,1.3459481318367494e-07 2.654701,-0.8660252691896259"/>
<polygon class="face_stroke" points="2.154701,2.1881345246832495e-07 1.4475942188134527,0.7071069999999997 1.4475942188134523,1.7071069999999993 2.1547010000000006,2.4142137811865476 3.1547010000000006,2.4142137811865476 3.861807781186548,1.7071069999999997 3.861807781186548,0.7071070000000008 3.154701,2.1881345224628035e-07"/>
<polygon class="face_stroke" points="1.4475941345948131,0.7071069999999999 0.5815687308103742,1.207107 1.4475941345948131,1.707107"/>
<polygon class="face_stroke" points="0.5815686887010546,1.2071068624119863 -0.3843571375880139,1.465925907514507 -0.8843571375880139,2.331951311298946 -0.6255380924854932,3.297877137588014 0.24048731129894552,3.797877137588014 1.2064131375880138,3.5390580924854933 1.7064131375880138,2.673032688701055 1.447594092485494,1.7071068624119872"/>
<polygon class="face_stroke" points="-0.38435699999999984,1.4659258654051872 -1.384357,1.4659258654051872 -0.8843570000000001,2.331951269189626"/>
<polygon class="face_stroke" points="-0.38435699999999984,1.465926 -0.38435699999999984,0.46592599999999995 -1.384357,0.46592599999999984 -1.384357,1.465926"/>
<polygon class="face_stroke" points="-0.38435699999999984,0.465926 -0.38435699999999984,-0.534074 -1.384357,-0.5340740000000002 -1.384357,0.465926"/>
</svg>
