<?xml version="1.0" encoding="utf-8"?>
<svg version="1.1" xmlns="http://www.w3.org/2000/svg" viewBox="-4.58930448698683 -1.9619545220814412 6.157883272081442 5.057884044162883" style="enable-background:new -4.58930448698683 -1.9619545220814412 6.157883272081442 5.057884044162883;">
<style type="text/css">
  .face_stroke {fill:none; stroke:#000000; stroke-width:0.02; stroke-miterlimit:10;}
  .face_text {fill:#000000; font-family:monospace;}
  .edge_text {fill:#ff0000; font-family:monospace;}
  .edge_bg {fill:#f3f3f3; stroke:#606060; stroke-width:0.01;}
</style>
<polygon class="face_stroke" points="0.288675134594813,-0.5 -0.5773502691896258,-7.07050159149938e-17 0.288675134594813,0.5"/>
<polygon class="face_stroke" points="0.2886749999999999,0.5 1.288675,0.5000000000000001 1.2886750000000007,-0.49999999999999944 0.2886749999999997,-0.4999999999999998"/>
<polygon class="face_stroke" points="0.288675,0.4999999999999999 0.2886749999999999,1.5 1.288675,1.5 1.2886750000000007,0.5000000000000006"/>
<polygon class="face_stroke" points="0.2886750000000001,0.5 -0.711325,0.4999999999999999 -0.7113250000000001,1.5 0.2886749999999999,1.5"/>
<polygon class="face_stroke" points="-0.7113250000000001,1.4999998654051871 -0.21132500000000012,2.3660252691896257 0.28867500000000035,1.4999998654051876"/>
<polygon class="face_stroke" points="-0.7113252981077807,1.5000002981077805 -1.5773507018922193,2.0000002981077802 -1.0773507018922193,2.8660257018922195 -0.21132529810778056,2.366025701892219"/>
<polygon class="face_stroke" points="-1.57735,1.9999997308103743 -2.07735,2.866025134594813 -1.07735,2.866025134594813"/>
<polygon class="face_stroke" points="-1.5773502981077805,2.0000002981077807 -2.4433757018922195,1.5000002981077805 -2.9433757018922195,2.366025701892219 -2.0773502981077803,2.866025701892219"/>
<polygon class="face_stroke" points="-2.443376,1.4999998654051871 -3.443376,1.4999998654051871 -2.943376,2.3660252691896257"/>
<polygon class="face_stroke" points="-2.443376,1.5 -2.443376,0.5 -3.443376,0.4999999999999999 -3.443376,1.5"/>
<polygon class="face_stroke" points="-2.443376,0.5000001345948129 -2.943376,-0.36602526918962586 -3.443376,0.500000134594813"/>
<polygon class="face_stroke" points="-2.9433752981077808,-0.36602570189221934 -3.809400701892219,-0.8660257018922194 -4.309400701892219,-2.981077809605104e-07 -3.4433752981077803,0.4999997018922193"/>
<polygon class="face_stroke" points="-2.9433752981077808,-0.3660252981077805 -2.4433752981077808,-1.2320507018922193 -3.309400701892219,-1.7320507018922193 -3.8094007018922196,-0.8660252981077808"/>
<polygon class="face_stroke" points="-2.9433757018922195,-0.36602529810778095 -2.0773502981077803,0.13397470189221927 -1.5773502981077803,-0.732050701892219 -2.4433757018922186,-1.2320507018922195"/>
<polygon class="face_stroke" points="-2.0773498542188245,0.13397422177442558 -1.4082192478599669,0.8771190472518201 -0.4946737902173659,0.47038240417602034 -0.5992022534850193,-0.5241394911922536 -1.577349854218825,-0.7320511820100125"/>
<text class="face_text" text-anchor="middle" dominant-baseline="middle" transform="matrix(0.010115768088325766 0 0 0.010115768088325766 0.0 0.0)">0</text>
<text class="face_text" text-anchor="middle" dominant-baseline="middle" transform="matrix(0.010115768088325766 0 0 0.010115768088325766 0.788675 0.0)">3</text>
<text class="face_text" text-anchor="middle" dominant-baseline="middle" transform="matrix(0.010115768088325766 0 0 0.010115768088325766 0.788675 1.0)">2</text>
<text class="face_text" text-anchor="middle" dominant-baseline="middle" transform="matrix(0.010115768088325766 0 0 0.010115768088325766 -0.211325 1.0)">1</text>
<text class="face_text" text-anchor="middle" dominant-baseline="middle" transform="matrix(0.010115768088325766 0 0 0.010115768088325766 -0.211325 1.788675)">18</text>
<text class="face_text" text-anchor="middle" dominant-baseline="middle" transform="matrix(0.010115768088325766 0 0 0.010115768088325766 -0.894338 2.183013)">16</text>
<text class="face_text" text-anchor="middle" dominant-baseline="middle" transform="matrix(0.010115768088325766 0 0 0.010115768088325766 -1.57735 2.57735)">14</text>
<text class="face_text" text-anchor="middle" dominant-baseline="middle" transform="matrix(0.010115768088325766 0 0 0.010115768088325766 -2.260363 2.183013)">12</text>
<text class="face_text" text-anchor="middle" dominant-baseline="middle" transform="matrix(0.010115768088325766 0 0 0.010115768088325766 -2.943376 1.788675)">10</text>
<text class="face_text" text-anchor="middle" dominant-baseline="middle" transform="matrix(0.010115768088325766 0 0 0.010115768088325766 -2.943376 1.0)">8</text>
<text class="face_text" text-anchor="middle" dominant-baseline="middle" transform="matrix(0.010115768088325766 0 0 0.010115768088325766 -2.943376 0.211325)">6</text>
<text class="face_text" text-anchor="middle" dominant-baseline="middle" transform="matrix(0.010115768088325766 0 0 0.010115768088325766 -3.626388 -0.183013)">7</text>
<text class="face_text" text-anchor="middle" dominant-baseline="middle" transform="matrix(0.010115768088325766 0 0 0.010115768088325766 -3.126388 -1.049038)">5</text>
<text class="face_text" text-anchor="middle" dominant-baseline="middle" transform="matrix(0.010115768088325766 0 0 0.010115768088325766 -2.260363 -0.549038)">4</text>
<text class="face_text" text-anchor="middle" dominant-baseline="middle" transform="matrix(0.010115768088325766 0 0 0.010115768088325766 -1.231359 0.045057)">20</text>
<rect class="edge_bg" x="0.18751731911674224" y="-0.10115768088325772" width="0.20231536176651532" height="0.20231536176651532"/>
<text class="edge_text" text-anchor="middle" dominant-baseline="middle" transform="matrix(0.010115768088325766 0 0 0.010115768088325766 0.2886749999999999 -6.123233995736767e-17)">0</text>
<rect class="edge_bg" x="0.6875173191167423" y="0.3988423191167422" width="0.20231536176651532" height="0.20231536176651532"/>
<text class="edge_text" text-anchor="middle" dominant-baseline="middle" transform="matrix(0.010115768088325766 0 0 0.010115768088325766 0.788675 0.4999999999999999)">3</text>
<rect class="edge_bg" x="0.18751731911674246" y="0.8988423191167423" width="0.20231536176651532" height="0.20231536176651532"/>
<text class="edge_text" text-anchor="middle" dominant-baseline="middle" transform="matrix(0.010115768088325766 0 0 0.010115768088325766 0.2886750000000001 1.0)">1</text>
<rect class="edge_bg" x="-0.31248268088325765" y="1.3988421845219292" width="0.20231536176651532" height="0.20231536176651532"/>
<text class="edge_text" text-anchor="middle" dominant-baseline="middle" transform="matrix(0.010115768088325766 0 0 0.010115768088325766 -0.21132499999999999 1.499999865405187)">28</text>
<rect class="edge_bg" x="-0.5624829789910382" y="1.8318553191167422" width="0.20231536176651532" height="0.20231536176651532"/>
<text class="edge_text" text-anchor="middle" dominant-baseline="middle" transform="matrix(0.010115768088325766 0 0 0.010115768088325766 -0.4613252981077805 1.9330129999999999)">26</text>
<rect class="edge_bg" x="-1.4285076808832577" y="2.331854751819336" width="0.20231536176651532" height="0.20231536176651532"/>
<text class="edge_text" text-anchor="middle" dominant-baseline="middle" transform="matrix(0.010115768088325766 0 0 0.010115768088325766 -1.32735 2.4330124327025935)">23</text>
<rect class="edge_bg" x="-1.9285079789910382" y="2.3318553191167424" width="0.20231536176651532" height="0.20231536176651532"/>
<text class="edge_text" text-anchor="middle" dominant-baseline="middle" transform="matrix(0.010115768088325766 0 0 0.010115768088325766 -1.8273502981077805 2.433013)">20</text>
<rect class="edge_bg" x="-2.7945336808832577" y="1.8318548864141488" width="0.20231536176651532" height="0.20231536176651532"/>
<text class="edge_text" text-anchor="middle" dominant-baseline="middle" transform="matrix(0.010115768088325766 0 0 0.010115768088325766 -2.693376 1.9330125672974066)">17</text>
<rect class="edge_bg" x="-3.0445336808832577" y="1.3988423191167423" width="0.20231536176651532" height="0.20231536176651532"/>
<text class="edge_text" text-anchor="middle" dominant-baseline="middle" transform="matrix(0.010115768088325766 0 0 0.010115768088325766 -2.943376 1.5)">14</text>
<rect class="edge_bg" x="-3.0445336808832577" y="0.3988424537115553" width="0.20231536176651532" height="0.20231536176651532"/>
<text class="edge_text" text-anchor="middle" dominant-baseline="middle" transform="matrix(0.010115768088325766 0 0 0.010115768088325766 -2.943376 0.500000134594813)">11</text>
<rect class="edge_bg" x="-3.294532978991038" y="-0.03417068088325767" width="0.20231536176651532" height="0.20231536176651532"/>
<text class="edge_text" text-anchor="middle" dominant-baseline="middle" transform="matrix(0.010115768088325766 0 0 0.010115768088325766 -3.1933752981077803 0.06698699999999999)">7</text>
<rect class="edge_bg" x="-3.4775456808832574" y="-0.7171829789910382" width="0.20231536176651532" height="0.20231536176651532"/>
<text class="edge_text" text-anchor="middle" dominant-baseline="middle" transform="matrix(0.010115768088325766 0 0 0.010115768088325766 -3.376388 -0.6160252981077805)">9</text>
<rect class="edge_bg" x="-2.794533382775477" y="-0.9001956808832576" width="0.20231536176651532" height="0.20231536176651532"/>
<text class="edge_text" text-anchor="middle" dominant-baseline="middle" transform="matrix(0.010115768088325766 0 0 0.010115768088325766 -2.6933757018922195 -0.799038)">4</text>
<rect class="edge_bg" x="-1.9285075351020826" y="-0.400196161001051" width="0.20231536176651532" height="0.20231536176651532"/>
<text class="edge_text" text-anchor="middle" dominant-baseline="middle" transform="matrix(0.010115768088325766 0 0 0.010115768088325766 -1.827349854218825 -0.2990384801177933)">30</text>
</svg>
