<?xml version="1.0" encoding="utf-8"?>
<svg version="1.1" xmlns="http://www.w3.org/2000/svg" viewBox="-2.0110490733784725 -3.066511237971772 4.9689616693312 4.643610127476562" style="enable-background:new -2.0110490733784725 -3.066511237971772 4.9689616693312 4.643610127476562;">
<style type="text/css">
  .face_stroke {fill:none; stroke:#000000; stroke-width:0.02; stroke-miterlimit:10;}
  .face_text {fill:#000000; font-family:monospace;}
  .edge_text {fill:#ff0000; font-family:monospace;}
  .edge_bg {fill:#f3f3f3; stroke:#606060; stroke-width:0.01;}
</style>
<polygon class="face_stroke" points="0.5000000000000001,-0.5 -0.5,-0.5000000000000001 -0.5000000000000001,0.5 0.4999999999999999,0.5000000000000001"/>
<polygon class="face_stroke" points="0.4999998654051868,0.4999999999999999 1.3660252691896257,1.414100318299876e-16 0.49999986540518754,-0.5000000000000003"/>
<polygon class="face_stroke" points="0.5000002981077808,0.5000002981077805 1.000000298107781,1.3660257018922195 1.8660257018922195,0.8660257018922193 1.3660257018922195,2.981077805719323e-07"/>
<polygon class="face_stroke" points="1.8660252981077805,0.8660257018922194 2.732050701892219,0.36602570189221934 2.232050701892219,-0.49999970189221943 1.3660252981077807,2.981077804886656e-07"/>
<polygon class="face_stroke" points="2.232050701892219,-0.5000002981077807 1.7320507018922193,-1.3660257018922195 0.8660252981077806,-0.8660257018922195 1.3660252981077807,-2.981077805719323e-07"/>
<polygon class="face_stroke" points="1.7320511820100126,-1.3660251457811754 1.5241394911922534,-2.344172746514981 0.5296175958239802,-2.4487012097826346 0.12288095274817978,-1.5351557521400339 0.8660257782255741,-0.8660251457811754"/>
<polygon class="face_stroke" points="0.5296170503592006,-2.4487014072834006 -0.3839284072834004,-2.8554380503592007 -0.7906650503592005,-1.9418925927165995 0.12288040728339986,-1.5351559496407994"/>
<polygon class="face_stroke" points="-0.7906649736367515,-1.941892179481358 -0.686136510369098,-0.9473702841130844 0.1228804840058495,-1.5351555364055574"/>
<polygon class="face_stroke" points="-0.79066528394969,-1.9418921793179633 -1.7851871793179632,-1.83736371605031 -1.6806587160503097,-0.8428418206820363 -0.6861368206820369,-0.9473702839496897"/>
<polygon class="face_stroke" points="-1.6806581793179634,-0.8428427160503101 -1.5761297160503096,0.15167917931796365 -0.5816078206820368,0.04715071605031024 -0.6861362839496902,-0.9473711793179636"/>
<text class="face_text" text-anchor="middle" dominant-baseline="middle" transform="matrix(0.009287220254953125 0 0 0.009287220254953125 0.0 0.0)">1</text>
<text class="face_text" text-anchor="middle" dominant-baseline="middle" transform="matrix(0.009287220254953125 0 0 0.009287220254953125 0.788675 0.0)">0</text>
<text class="face_text" text-anchor="middle" dominant-baseline="middle" transform="matrix(0.009287220254953125 0 0 0.009287220254953125 1.183013 0.683013)">3</text>
<text class="face_text" text-anchor="middle" dominant-baseline="middle" transform="matrix(0.009287220254953125 0 0 0.009287220254953125 2.049038 0.183013)">5</text>
<text class="face_text" text-anchor="middle" dominant-baseline="middle" transform="matrix(0.009287220254953125 0 0 0.009287220254953125 1.549038 -0.683013)">4</text>
<text class="face_text" text-anchor="middle" dominant-baseline="middle" transform="matrix(0.009287220254953125 0 0 0.009287220254953125 0.954943 -1.712016)">20</text>
<text class="face_text" text-anchor="middle" dominant-baseline="middle" transform="matrix(0.009287220254953125 0 0 0.009287220254953125 -0.130524 -2.195297)">16</text>
<text class="face_text" text-anchor="middle" dominant-baseline="middle" transform="matrix(0.009287220254953125 0 0 0.009287220254953125 -0.451307 -1.474806)">18</text>
<text class="face_text" text-anchor="middle" dominant-baseline="middle" transform="matrix(0.009287220254953125 0 0 0.009287220254953125 -1.235662 -1.392367)">19</text>
<text class="face_text" text-anchor="middle" dominant-baseline="middle" transform="matrix(0.009287220254953125 0 0 0.009287220254953125 -1.131133 -0.397846)">2</text>
<rect class="edge_bg" x="0.40712766285565577" y="-0.0928722025495313" width="0.1857444050990625" height="0.1857444050990625"/>
<text class="edge_text" text-anchor="middle" dominant-baseline="middle" transform="matrix(0.009287220254953125 0 0 0.009287220254953125 0.49999986540518704 -3.535250795749691e-17)">2</text>
<rect class="edge_bg" x="0.8401407974504689" y="0.15712809555824925" width="0.1857444050990625" height="0.1857444050990625"/>
<text class="edge_text" text-anchor="middle" dominant-baseline="middle" transform="matrix(0.009287220254953125 0 0 0.009287220254953125 0.9330130000000001 0.2500002981077805)">0</text>
<rect class="edge_bg" x="1.5231530955582493" y="0.3401407974504687" width="0.1857444050990625" height="0.1857444050990625"/>
<text class="edge_text" text-anchor="middle" dominant-baseline="middle" transform="matrix(0.009287220254953125 0 0 0.009287220254953125 1.6160252981077805 0.433013)">6</text>
<rect class="edge_bg" x="1.7061657974504687" y="-0.34287250065731184" width="0.1857444050990625" height="0.1857444050990625"/>
<text class="edge_text" text-anchor="middle" dominant-baseline="middle" transform="matrix(0.009287220254953125 0 0 0.009287220254953125 1.799038 -0.25000029810778057)">4</text>
<rect class="edge_bg" x="1.2061662775682622" y="-1.2088973483307066" width="0.1857444050990625" height="0.1857444050990625"/>
<text class="edge_text" text-anchor="middle" dominant-baseline="middle" transform="matrix(0.009287220254953125 0 0 0.009287220254953125 1.2990384801177934 -1.1160251457811754)">30</text>
<rect class="edge_bg" x="0.23337652627176925" y="-2.084800881011631" width="0.1857444050990625" height="0.1857444050990625"/>
<text class="edge_text" text-anchor="middle" dominant-baseline="middle" transform="matrix(0.009287220254953125 0 0 0.009287220254953125 0.3262487288213005 -1.9919286784621)">34</text>
<rect class="edge_bg" x="-0.42676444736498226" y="-1.831396060492989" width="0.1857444050990625" height="0.1857444050990625"/>
<text class="edge_text" text-anchor="middle" dominant-baseline="middle" transform="matrix(0.009287220254953125 0 0 0.009287220254953125 -0.333892244815451 -1.7385238579434579)">26</text>
<rect class="edge_bg" x="-0.8312732548653945" y="-1.5375034341833578" width="0.1857444050990625" height="0.1857444050990625"/>
<text class="edge_text" text-anchor="middle" dominant-baseline="middle" transform="matrix(0.009287220254953125 0 0 0.009287220254953125 -0.7384010523158633 -1.4446312316338266)">25</text>
<rect class="edge_bg" x="-1.2762694341833578" y="-0.987979150233668" width="0.1857444050990625" height="0.1857444050990625"/>
<text class="edge_text" text-anchor="middle" dominant-baseline="middle" transform="matrix(0.009287220254953125 0 0 0.009287220254953125 -1.1833972316338266 -0.8951069476841368)">29</text>
</svg>
