<?xml version="1.0" encoding="utf-8"?>
<svg version="1.1" xmlns="http://www.w3.org/2000/svg" viewBox="-2.961954522081441 -4.32798053698683 5.057884044162883 5.057884372081442" style="enable-background:new -2.961954522081441 -4.32798053698683 5.057884044162883 5.057884372081442;">
<style type="text/css">
  .face_stroke {fill:none; stroke:#000000; stroke-width:0.02; stroke-miterlimit:10;}
  .face_text {fill:#000000; font-family:monospace;}
  .edge_text {fill:#ff0000; font-family:monospace;}
  .edge_bg {fill:#f3f3f3; stroke:#606060; stroke-width:0.01;}
</style>
<polygon class="face_stroke" points="0.5000000000000001,-0.5 -0.5,-0.5000000000000001 -0.5000000000000001,0.5 0.4999999999999999,0.5000000000000001"/>
<polygon class="face_stroke" points="0.4999998654051868,0.4999999999999999 1.3660252691896257,1.414100318299876e-16 0.49999986540518754,-0.5000000000000003"/>
<polygon class="face_stroke" points="1.3660257018922195,-2.981077805719323e-07 1.8660257018922195,-0.8660257018922193 1.0000002981077807,-1.3660257018922195 0.5000002981077806,-0.5000002981077809"/>
<polygon class="face_stroke" points="1.8660251345948131,-0.866025 1.8660251345948131,-1.866025 0.9999997308103742,-1.366025"/>
<polygon class="face_stroke" points="1.8660257018922195,-1.8660252981077805 1.3660257018922195,-2.732050701892219 0.5000002981077808,-2.2320507018922195 1.000000298107781,-1.3660252981077805"/>
<polygon class="face_stroke" points="1.3660252691896257,-2.732051 0.4999998654051872,-3.232051 0.4999998654051868,-2.232051"/>
<polygon class="face_stroke" points="0.5000000000000001,-3.232051 -0.5,-3.232051 -0.5000000000000001,-2.232051 0.4999999999999999,-2.232051"/>
<polygon class="face_stroke" points="-0.49999986540518704,-3.232051 -1.3660252691896257,-2.732051 -0.49999986540518704,-2.232051"/>
<polygon class="face_stroke" points="-0.5000002981077807,-3.232051298107781 -1.0000002981077807,-4.09807670189222 -1.8660257018922195,-3.5980767018922197 -1.3660257018922193,-2.7320512981077805"/>
<polygon class="face_stroke" points="-1.8660252981077805,-3.5980767018922197 -2.732050701892219,-3.0980767018922197 -2.232050701892219,-2.2320512981077805 -1.3660252981077805,-2.732051298107781"/>
<polygon class="face_stroke" points="-2.232050701892219,-2.2320507018922195 -1.732050701892219,-1.3660252981077805 -0.8660252981077805,-1.8660252981077807 -1.3660252981077805,-2.732050701892219"/>
<polygon class="face_stroke" points="-1.7320511820100126,-1.3660258542188248 -1.5241394911922534,-0.38787825348501925 -0.5296175958239799,-0.2833497902173656 -0.12288095274817967,-1.1968952478599657 -0.866025778225574,-1.8660258542188246"/>
<text class="face_text" text-anchor="middle" dominant-baseline="middle" transform="matrix(0.010115768088325766 0 0 0.010115768088325766 0.0 0.0)">1</text>
<text class="face_text" text-anchor="middle" dominant-baseline="middle" transform="matrix(0.010115768088325766 0 0 0.010115768088325766 0.788675 0.0)">0</text>
<text class="face_text" text-anchor="middle" dominant-baseline="middle" transform="matrix(0.010115768088325766 0 0 0.010115768088325766 1.183013 -0.683013)">4</text>
<text class="face_text" text-anchor="middle" dominant-baseline="middle" transform="matrix(0.010115768088325766 0 0 0.010115768088325766 1.57735 -1.366025)">6</text>
<text class="face_text" text-anchor="middle" dominant-baseline="middle" transform="matrix(0.010115768088325766 0 0 0.010115768088325766 1.183013 -2.049038)">8</text>
<text class="face_text" text-anchor="middle" dominant-baseline="middle" transform="matrix(0.010115768088325766 0 0 0.010115768088325766 0.788675 -2.732051)">10</text>
<text class="face_text" text-anchor="middle" dominant-baseline="middle" transform="matrix(0.010115768088325766 0 0 0.010115768088325766 0.0 -2.732051)">12</text>
<text class="face_text" text-anchor="middle" dominant-baseline="middle" transform="matrix(0.010115768088325766 0 0 0.010115768088325766 -0.788675 -2.732051)">14</text>
<text class="face_text" text-anchor="middle" dominant-baseline="middle" transform="matrix(0.010115768088325766 0 0 0.010115768088325766 -1.183013 -3.415064)">15</text>
<text class="face_text" text-anchor="middle" dominant-baseline="middle" transform="matrix(0.010115768088325766 0 0 0.010115768088325766 -2.049038 -2.915064)">17</text>
<text class="face_text" text-anchor="middle" dominant-baseline="middle" transform="matrix(0.010115768088325766 0 0 0.010115768088325766 -1.549038 -2.049038)">16</text>
<text class="face_text" text-anchor="middle" dominant-baseline="middle" transform="matrix(0.010115768088325766 0 0 0.010115768088325766 -0.954943 -1.020035)">20</text>
<rect class="edge_bg" x="0.3988421845219294" y="-0.1011576808832577" width="0.20231536176651532" height="0.20231536176651532"/>
<text class="edge_text" text-anchor="middle" dominant-baseline="middle" transform="matrix(0.010115768088325766 0 0 0.010115768088325766 0.49999986540518704 -3.535250795749691e-17)">2</text>
<rect class="edge_bg" x="0.8318553191167424" y="-0.3511579789910382" width="0.20231536176651532" height="0.20231536176651532"/>
<text class="edge_text" text-anchor="middle" dominant-baseline="middle" transform="matrix(0.010115768088325766 0 0 0.010115768088325766 0.9330130000000001 -0.2500002981077805)">5</text>
<rect class="edge_bg" x="1.3318547518193358" y="-1.2171826808832578" width="0.20231536176651532" height="0.20231536176651532"/>
<text class="edge_text" text-anchor="middle" dominant-baseline="middle" transform="matrix(0.010115768088325766 0 0 0.010115768088325766 1.4330124327025935 -1.116025)">8</text>
<rect class="edge_bg" x="1.3318553191167426" y="-1.7171829789910382" width="0.20231536176651532" height="0.20231536176651532"/>
<text class="edge_text" text-anchor="middle" dominant-baseline="middle" transform="matrix(0.010115768088325766 0 0 0.010115768088325766 1.4330130000000003 -1.6160252981077805)">11</text>
<rect class="edge_bg" x="0.8318548864141488" y="-2.5832086808832573" width="0.20231536176651532" height="0.20231536176651532"/>
<text class="edge_text" text-anchor="middle" dominant-baseline="middle" transform="matrix(0.010115768088325766 0 0 0.010115768088325766 0.9330125672974066 -2.482051)">14</text>
<rect class="edge_bg" x="0.39884231911674245" y="-2.8332086808832573" width="0.20231536176651532" height="0.20231536176651532"/>
<text class="edge_text" text-anchor="middle" dominant-baseline="middle" transform="matrix(0.010115768088325766 0 0 0.010115768088325766 0.5000000000000001 -2.732051)">17</text>
<rect class="edge_bg" x="-0.6011575462884446" y="-2.8332086808832573" width="0.20231536176651532" height="0.20231536176651532"/>
<text class="edge_text" text-anchor="middle" dominant-baseline="middle" transform="matrix(0.010115768088325766 0 0 0.010115768088325766 -0.49999986540518704 -2.732051)">20</text>
<rect class="edge_bg" x="-1.0341706808832576" y="-3.083208978991038" width="0.20231536176651532" height="0.20231536176651532"/>
<text class="edge_text" text-anchor="middle" dominant-baseline="middle" transform="matrix(0.010115768088325766 0 0 0.010115768088325766 -0.933013 -2.9820512981077805)">19</text>
<rect class="edge_bg" x="-1.7171829789910382" y="-3.2662216808832576" width="0.20231536176651532" height="0.20231536176651532"/>
<text class="edge_text" text-anchor="middle" dominant-baseline="middle" transform="matrix(0.010115768088325766 0 0 0.010115768088325766 -1.6160252981077805 -3.165064)">24</text>
<rect class="edge_bg" x="-1.9001956808832576" y="-2.583208382775477" width="0.20231536176651532" height="0.20231536176651532"/>
<text class="edge_text" text-anchor="middle" dominant-baseline="middle" transform="matrix(0.010115768088325766 0 0 0.010115768088325766 -1.799038 -2.4820507018922195)">22</text>
<rect class="edge_bg" x="-1.400196161001051" y="-1.7171835351020823" width="0.20231536176651532" height="0.20231536176651532"/>
<text class="edge_text" text-anchor="middle" dominant-baseline="middle" transform="matrix(0.010115768088325766 0 0 0.010115768088325766 -1.2990384801177932 -1.6160258542188246)">34</text>
</svg>
