<?xml version="1.0" encoding="utf-8"?>
<svg version="1.1" xmlns="http://www.w3.org/2000/svg" viewBox="-0.705111305366377 -2.89365323698683 2.693572102842339 3.5552557720814413" style="enable-background:new -0.705111305366377 -2.89365323698683 2.693572102842339 3.5552557720814413;">
<style type="text/css">
  .face_stroke {fill:none; stroke:#000000; stroke-width:0.02; stroke-miterlimit:10;}
  .face_text {fill:#000000; font-family:monospace;}
  .edge_text {fill:#ff0000; font-family:monospace;}
  .edge_bg {fill:#f3f3f3; stroke:#606060; stroke-width:0.01;}
</style>
<polygon class="face_stroke" points="0.5000000000000001,-0.5 -0.5,-0.5000000000000001 -0.5000000000000001,0.5 0.4999999999999999,0.5000000000000001"/>
<polygon class="face_stroke" points="0.4999998654051868,0.4999999999999999 1.3660252691896257,1.414100318299876e-16 0.49999986540518754,-0.5000000000000003"/>
<polygon class="face_stroke" points="1.3660257018922195,-2.981077805719323e-07 1.8660257018922195,-0.8660257018922193 1.0000002981077807,-1.3660257018922195 0.5000002981077806,-0.5000002981077809"/>
<polygon class="face_stroke" points="1.8660251345948131,-0.866025 1.8660251345948131,-1.866025 0.9999997308103742,-1.366025"/>
<polygon class="face_stroke" points="1.8660257018922195,-1.8660252981077805 1.3660257018922195,-2.732050701892219 0.5000002981077808,-2.2320507018922195 1.000000298107781,-1.3660252981077805"/>
<polygon class="face_stroke" points="0.4999998542188246,-2.2320511820100126 -0.47814774651498076,-2.024139491192254 -0.5826762097826343,-1.02961759582398 0.33086924785996574,-0.6228809527481798 0.9999998542188244,-1.3660257782255742"/>
<text class="face_text" text-anchor="middle" dominant-baseline="middle" transform="matrix(0.0053871442056846785 0 0 0.0053871442056846785 0.0 0.0)">1</text>
<text class="face_text" text-anchor="middle" dominant-baseline="middle" transform="matrix(0.0053871442056846785 0 0 0.0053871442056846785 0.788675 0.0)">0</text>
<text class="face_text" text-anchor="middle" dominant-baseline="middle" transform="matrix(0.0053871442056846785 0 0 0.0053871442056846785 1.183013 -0.683013)">4</text>
<text class="face_text" text-anchor="middle" dominant-baseline="middle" transform="matrix(0.0053871442056846785 0 0 0.0053871442056846785 1.57735 -1.366025)">6</text>
<text class="face_text" text-anchor="middle" dominant-baseline="middle" transform="matrix(0.0053871442056846785 0 0 0.0053871442056846785 1.183013 -2.049038)">8</text>
<text class="face_text" text-anchor="middle" dominant-baseline="middle" transform="matrix(0.0053871442056846785 0 0 0.0053871442056846785 0.154009 -1.454943)">20</text>
<rect class="edge_bg" x="0.44612842334834024" y="-0.05387144205684682" width="0.10774288411369357" height="0.10774288411369357"/>
<text class="edge_text" text-anchor="middle" dominant-baseline="middle" transform="matrix(0.0053871442056846785 0 0 0.0053871442056846785 0.49999986540518704 -3.535250795749691e-17)">2</text>
<rect class="edge_bg" x="0.8791415579431533" y="-0.3038717401646273" width="0.10774288411369357" height="0.10774288411369357"/>
<text class="edge_text" text-anchor="middle" dominant-baseline="middle" transform="matrix(0.0053871442056846785 0 0 0.0053871442056846785 0.9330130000000001 -0.2500002981077805)">5</text>
<rect class="edge_bg" x="1.3791409906457468" y="-1.1698964420568467" width="0.10774288411369357" height="0.10774288411369357"/>
<text class="edge_text" text-anchor="middle" dominant-baseline="middle" transform="matrix(0.0053871442056846785 0 0 0.0053871442056846785 1.4330124327025935 -1.116025)">8</text>
<rect class="edge_bg" x="1.3791415579431536" y="-1.6698967401646272" width="0.10774288411369357" height="0.10774288411369357"/>
<text class="edge_text" text-anchor="middle" dominant-baseline="middle" transform="matrix(0.0053871442056846785 0 0 0.0053871442056846785 1.4330130000000003 -1.6160252981077805)">11</text>
<rect class="edge_bg" x="0.6961284121619778" y="-1.8529099221746401" width="0.10774288411369357" height="0.10774288411369357"/>
<text class="edge_text" text-anchor="middle" dominant-baseline="middle" transform="matrix(0.0053871442056846785 0 0 0.0053871442056846785 0.7499998542188246 -1.7990384801177934)">32</text>
</svg>
