<?xml version="1.0" encoding="utf-8"?>
<svg version="1.1" xmlns="http://www.w3.org/2000/svg" viewBox="-0.7051113053663773 -2.239628549614411 2.6935721028423396 2.870087051977002" style="enable-background:new -0.7051113053663773 -2.239628549614411 2.6935721028423396 2.870087051977002;">
<style type="text/css">
  .face_stroke {fill:none; stroke:#000000; stroke-width:0.02; stroke-miterlimit:10;}
  .face_text {fill:#000000; font-family:monospace;}
  .edge_text {fill:#ff0000; font-family:monospace;}
  .edge_bg {fill:#f3f3f3; stroke:#606060; stroke-width:0.01;}
</style>
<polygon class="face_stroke" points="0.5000000000000001,-0.5 -0.5,-0.5000000000000001 -0.5000000000000001,0.5 0.4999999999999999,0.5000000000000001"/>
<polygon class="face_stroke" points="0.4999998654051868,0.4999999999999999 1.3660252691896257,1.414100318299876e-16 0.49999986540518754,-0.5000000000000003"/>
<polygon class="face_stroke" points="1.3660257018922195,-2.981077805719323e-07 1.8660257018922195,-0.8660257018922193 1.0000002981077807,-1.3660257018922195 0.5000002981077806,-0.5000002981077809"/>
<polygon class="face_stroke" points="0.9999998542188244,-1.3660252217744258 0.33086924785996646,-2.10917004725182 -0.5826762097826346,-1.7024334041760198 -0.478147746514981,-0.7079115088077466 0.49999985421882487,-0.4999998179899874"/>
<text class="face_text" text-anchor="middle" dominant-baseline="middle" transform="matrix(0.005387144205684679 0 0 0.005387144205684679 0.0 0.0)">1</text>
<text class="face_text" text-anchor="middle" dominant-baseline="middle" transform="matrix(0.005387144205684679 0 0 0.005387144205684679 0.788675 0.0)">0</text>
<text class="face_text" text-anchor="middle" dominant-baseline="middle" transform="matrix(0.005387144205684679 0 0 0.005387144205684679 1.183013 -0.683013)">4</text>
<text class="face_text" text-anchor="middle" dominant-baseline="middle" transform="matrix(0.005387144205684679 0 0 0.005387144205684679 0.154009 -1.277108)">20</text>
<rect class="edge_bg" x="0.44612842334834024" y="-0.05387144205684683" width="0.1077428841136936" height="0.1077428841136936"/>
<text class="edge_text" text-anchor="middle" dominant-baseline="middle" transform="matrix(0.005387144205684679 0 0 0.005387144205684679 0.49999986540518704 -3.535250795749691e-17)">2</text>
<rect class="edge_bg" x="0.8791415579431533" y="-0.3038717401646273" width="0.1077428841136936" height="0.1077428841136936"/>
<text class="edge_text" text-anchor="middle" dominant-baseline="middle" transform="matrix(0.005387144205684679 0 0 0.005387144205684679 0.9330130000000001 -0.2500002981077805)">5</text>
<rect class="edge_bg" x="0.6961284121619778" y="-0.9868839619390534" width="0.1077428841136936" height="0.1077428841136936"/>
<text class="edge_text" text-anchor="middle" dominant-baseline="middle" transform="matrix(0.005387144205684679 0 0 0.005387144205684679 0.7499998542188246 -0.9330125198822066)">30</text>
</svg>
