<?xml version="1.0" encoding="utf-8"?>
<svg version="1.1" xmlns="http://www.w3.org/2000/svg" viewBox="-2.4890717145950068 -2.2947503557810967 4.562483007748522 4.082766787644084" style="enable-background:new -2.4890717145950068 -2.2947503557810967 4.562483007748522 4.082766787644084;">
<style type="text/css">
  .face_stroke {fill:none; stroke:#000000; stroke-width:0.02; stroke-miterlimit:10;}
  .face_text {fill:#000000; font-family:monospace;}
  .edge_text {fill:#ff0000; font-family:monospace;}
  .edge_bg {fill:#f3f3f3; stroke:#606060; stroke-width:0.01;}
</style>
<polygon class="face_stroke" points="0.5000000000000001,-0.5 -0.5,-0.5000000000000001 -0.5000000000000001,0.5 0.4999999999999999,0.5000000000000001"/>
<polygon class="face_stroke" points="0.4999998654051868,0.4999999999999999 1.3660252691896257,1.414100318299876e-16 0.49999986540518754,-0.5000000000000003"/>
<polygon class="face_stroke" points="1.3660257018922195,-2.981077805719323e-07 1.8660257018922195,-0.8660257018922193 1.0000002981077807,-1.3660257018922195 0.5000002981077806,-0.5000002981077809"/>
<polygon class="face_stroke" points="0.9999998542188244,-1.3660252217744258 0.33086924785996646,-2.10917004725182 -0.5826762097826346,-1.7024334041760198 -0.478147746514981,-0.7079115088077466 0.49999985421882487,-0.4999998179899874"/>
<polygon class="face_stroke" points="-0.5826762839496901,-1.7024331793179635 -1.5771981793179632,-1.5979047160503101 -1.4726697160503097,-0.6033828206820364 -0.4781478206820369,-0.7079112839496898"/>
<polygon class="face_stroke" points="-1.4726697158869155,-0.6033835103690981 -0.8848844635944426,0.20563348400584952 -0.47814782051864235,-0.7079119736367517"/>
<polygon class="face_stroke" points="-1.4726691289587628,-0.6033831233337104 -2.2816861233337105,-0.015597871041237235 -1.6939008710412373,0.7934191233337103 -0.8848838766662898,0.20563387104123734"/>
<polygon class="face_stroke" points="-1.6939011233337102,0.7934191289587628 -1.1061158710412373,1.6024361233337103 -0.29709887666628976,1.0146508710412374 -0.8848841289587627,0.20563387666628974"/>
<text class="face_text" text-anchor="middle" dominant-baseline="middle" transform="matrix(0.008165533575288167 0 0 0.008165533575288167 0.0 0.0)">1</text>
<text class="face_text" text-anchor="middle" dominant-baseline="middle" transform="matrix(0.008165533575288167 0 0 0.008165533575288167 0.788675 0.0)">0</text>
<text class="face_text" text-anchor="middle" dominant-baseline="middle" transform="matrix(0.008165533575288167 0 0 0.008165533575288167 1.183013 -0.683013)">4</text>
<text class="face_text" text-anchor="middle" dominant-baseline="middle" transform="matrix(0.008165533575288167 0 0 0.008165533575288167 0.154009 -1.277108)">20</text>
<text class="face_text" text-anchor="middle" dominant-baseline="middle" transform="matrix(0.008165533575288167 0 0 0.008165533575288167 -1.027673 -1.152908)">16</text>
<text class="face_text" text-anchor="middle" dominant-baseline="middle" transform="matrix(0.008165533575288167 0 0 0.008165533575288167 -0.945234 -0.368554)">18</text>
<text class="face_text" text-anchor="middle" dominant-baseline="middle" transform="matrix(0.008165533575288167 0 0 0.008165533575288167 -1.583285 0.095018)">19</text>
<text class="face_text" text-anchor="middle" dominant-baseline="middle" transform="matrix(0.008165533575288167 0 0 0.008165533575288167 -0.9955 0.904035)">2</text>
<rect class="edge_bg" x="0.4183445296523054" y="-0.08165533575288171" width="0.16331067150576334" height="0.16331067150576334"/>
<text class="edge_text" text-anchor="middle" dominant-baseline="middle" transform="matrix(0.008165533575288167 0 0 0.008165533575288167 0.49999986540518704 -3.535250795749691e-17)">2</text>
<rect class="edge_bg" x="0.8513576642471185" y="-0.3316556338606622" width="0.16331067150576334" height="0.16331067150576334"/>
<text class="edge_text" text-anchor="middle" dominant-baseline="middle" transform="matrix(0.008165533575288167 0 0 0.008165533575288167 0.9330130000000001 -0.2500002981077805)">5</text>
<rect class="edge_bg" x="0.668344518465943" y="-1.0146678556350883" width="0.16331067150576334" height="0.16331067150576334"/>
<text class="edge_text" text-anchor="middle" dominant-baseline="middle" transform="matrix(0.008165533575288167 0 0 0.008165533575288167 0.7499998542188246 -0.9330125198822066)">30</text>
<rect class="edge_bg" x="-0.6120673880687449" y="-1.2868275673867084" width="0.16331067150576334" height="0.16331067150576334"/>
<text class="edge_text" text-anchor="middle" dominant-baseline="middle" transform="matrix(0.008165533575288167 0 0 0.008165533575288167 -0.5304120523158633 -1.2051722316338267)">34</text>
<rect class="edge_bg" x="-1.0570641039556605" y="-0.7373030777558064" width="0.16331067150576334" height="0.16331067150576334"/>
<text class="edge_text" text-anchor="middle" dominant-baseline="middle" transform="matrix(0.008165533575288167 0 0 0.008165533575288167 -0.9754087682027788 -0.6556477420029247)">26</text>
<rect class="edge_bg" x="-1.260431838565408" y="-0.2805299618991183" width="0.16331067150576334" height="0.16331067150576334"/>
<text class="edge_text" text-anchor="middle" dominant-baseline="middle" transform="matrix(0.008165533575288167 0 0 0.008165533575288167 -1.1787765028125263 -0.19887462614623663)">25</text>
<rect class="edge_bg" x="-1.3710479618991183" y="0.41787116705964455" width="0.16331067150576334" height="0.16331067150576334"/>
<text class="edge_text" text-anchor="middle" dominant-baseline="middle" transform="matrix(0.008165533575288167 0 0 0.008165533575288167 -1.2893926261462365 0.4995265028125262)">29</text>
</svg>
