<?xml version="1.0" encoding="utf-8"?>
<svg version="1.1" xmlns="http://www.w3.org/2000/svg" viewBox="-0.6269420904176022 -0.9374715318604472 2.792725989187244 2.8259998246809976" style="enable-background:new -0.6269420904176022 -0.9374715318604472 2.792725989187244 2.8259998246809976;">
<style type="text/css">
  .face_stroke {fill:none; stroke:#000000; stroke-width:0.02; stroke-miterlimit:10;}
  .face_text {fill:#000000; font-family:monospace;}
  .edge_text {fill:#ff0000; font-family:monospace;}
  .edge_bg {fill:#f3f3f3; stroke:#606060; stroke-width:0.01;}
</style>
<polygon class="face_stroke" points="0.5000000000000001,-0.5 -0.5,-0.5000000000000001 -0.5000000000000001,0.5 0.4999999999999999,0.5000000000000001"/>
<polygon class="face_stroke" points="0.5000000397644132,0.4999999999999999 1.4510565560595667,0.8090169943749475 2.03884180835204,2.0834935792808685e-16 1.451056556059567,-0.8090169943749473 0.5000000397644134,-0.5000000000000001"/>
<polygon class="face_stroke" points="0.500000239039897,0.5000002446649494 0.1909832446649492,1.4510567609601026 1.142039760960103,1.7600737553350505 1.4510567553350504,0.8090172390398964"/>
<text class="face_text" text-anchor="middle" dominant-baseline="middle" transform="matrix(0.005585451978374488 0 0 0.005585451978374488 0.0 0.0)">1</text>
<text class="face_text" text-anchor="middle" dominant-baseline="middle" transform="matrix(0.005585451978374488 0 0 0.005585451978374488 1.188191 0.0)">20</text>
<text class="face_text" text-anchor="middle" dominant-baseline="middle" transform="matrix(0.005585451978374488 0 0 0.005585451978374488 0.82102 1.130037)">4</text>
<rect class="edge_bg" x="0.4441455199806683" y="-0.05585451978374496" width="0.11170903956748976" height="0.11170903956748976"/>
<text class="edge_text" text-anchor="middle" dominant-baseline="middle" transform="matrix(0.005585451978374488 0 0 0.005585451978374488 0.5000000397644132 -8.427908566546547e-17)">31</text>
<rect class="edge_bg" x="0.9196739774037288" y="0.5986542220686782" width="0.11170903956748976" height="0.11170903956748976"/>
<text class="edge_text" text-anchor="middle" dominant-baseline="middle" transform="matrix(0.005585451978374488 0 0 0.005585451978374488 0.9755284971874737 0.6545087418524231)">30</text>
</svg>
