<?xml version="1.0" encoding="utf-8"?>
<svg version="1.1" xmlns="http://www.w3.org/2000/svg" viewBox="-0.7038841884293815 -1.793775794354075 4.48545214544639 3.8663197232919657" style="enable-background:new -0.7038841884293815 -1.793775794354075 4.48545214544639 3.8663197232919657;">
<style type="text/css">
  .face_stroke {fill:none; stroke:#000000; stroke-width:0.02; stroke-miterlimit:10;}
  .face_text {fill:#000000; font-family:monospace;}
  .edge_text {fill:#ff0000; font-family:monospace;}
  .edge_bg {fill:#f3f3f3; stroke:#606060; stroke-width:0.01;}
</style>
<polygon class="face_stroke" points="0.5000000000000001,-0.5 -0.5,-0.5000000000000001 -0.5000000000000001,0.5 0.4999999999999999,0.5000000000000001"/>
<polygon class="face_stroke" points="0.500000231412373,0.5000000000000006 1.0877854837048462,1.3090169943749472 2.0388419999999994,1.618033988749895 2.989898516295153,1.3090169943749477 3.577683768587627,0.5000000000000004 3.577683768587627,-0.4999999999999996 2.989898516295155,-1.3090169943749463 2.0388420000000003,-1.618033988749895 1.0877854837048466,-1.309016994374948 0.5000002314123733,-0.5000000000000006"/>
<polygon class="face_stroke" points="0.4999998710412372,0.49999987666628964 -0.3090171233337103,1.0877851289587628 0.27876812895876274,1.8968021233337105 1.0877851233337104,1.3090168710412373"/>
<text class="face_text" text-anchor="middle" dominant-baseline="middle" transform="matrix(0.007732639446583932 0 0 0.007732639446583932 0.0 0.0)">2</text>
<text class="face_text" text-anchor="middle" dominant-baseline="middle" transform="matrix(0.007732639446583932 0 0 0.007732639446583932 2.038842 0.0)">21</text>
<text class="face_text" text-anchor="middle" dominant-baseline="middle" transform="matrix(0.007732639446583932 0 0 0.007732639446583932 0.389384 1.198401)">19</text>
<rect class="edge_bg" x="0.4226738369465335" y="-0.07732639446583951" width="0.15465278893167864" height="0.15465278893167864"/>
<text class="edge_text" text-anchor="middle" dominant-baseline="middle" transform="matrix(0.007732639446583932 0 0 0.007732639446583932 0.5000002314123728 -1.8845376462950893e-16)">35</text>
<rect class="edge_bg" x="0.7165661027216346" y="0.827181979387924" width="0.15465278893167864" height="0.15465278893167864"/>
<text class="edge_text" text-anchor="middle" dominant-baseline="middle" transform="matrix(0.007732639446583932 0 0 0.007732639446583932 0.7938924971874739 0.9045083738537634)">37</text>
</svg>
