<?xml version="1.0" encoding="utf-8"?>
<svg version="1.1" xmlns="http://www.w3.org/2000/svg" viewBox="-3.838952535094611 -1.0209291941628829 5.7552557720814415 3.4078833883257658" style="enable-background:new -3.838952535094611 -1.0209291941628829 5.7552557720814415 3.4078833883257658;">
<style type="text/css">
  .face_stroke {fill:none; stroke:#000000; stroke-width:0.02; stroke-miterlimit:10;}
  .face_text {fill:#000000; font-family:monospace;}
  .edge_text {fill:#ff0000; font-family:monospace;}
  .edge_bg {fill:#f3f3f3; stroke:#606060; stroke-width:0.01;}
</style>
<polygon class="face_stroke" points="0.288675134594813,-0.5 -0.5773502691896258,-7.07050159149938e-17 0.288675134594813,0.5"/>
<polygon class="face_stroke" points="0.28867486540518683,0.4999999999999999 1.1547002691896258,1.414100318299876e-16 0.28867486540518755,-0.5000000000000003"/>
<polygon class="face_stroke" points="0.2886752981077807,0.5000002981077805 0.7886752981077807,1.3660257018922195 1.6547007018922195,0.8660257018922193 1.1547007018922193,2.981077805719323e-07"/>
<polygon class="face_stroke" points="0.28867500000000024,0.4999995962155612 -0.711325,0.4999995962155611 -1.2113250000000002,1.3660249999999998 -0.7113250000000005,2.232050403784439 0.28867500000000024,2.232050403784439 0.7886750000000002,1.3660250000000003"/>
<polygon class="face_stroke" points="-0.7113252981077807,0.5000002981077807 -1.5773507018922195,2.981077805719323e-07 -2.0773507018922195,0.8660257018922191 -1.2113252981077804,1.3660257018922193"/>
<polygon class="face_stroke" points="-1.5773499999999998,0.0 -2.07735,-0.8660254037844388 -3.07735,-0.8660254037844389 -3.57735,-1.2246467991473535e-16 -3.0773500000000005,0.8660254037844386 -2.07735,0.8660254037844388"/>
<polygon class="face_stroke" points="-1.57735,2.691896258122384e-07 -1.07735,-0.8660251345948129 -2.07735,-0.8660251345948129"/>
<polygon class="face_stroke" points="-1.57735,1.3459481296163034e-07 -0.5773500000000001,1.3459481318367494e-07 -1.0773499999999998,-0.8660252691896259"/>
</svg>
