<?xml version="1.0" encoding="utf-8"?>
<svg version="1.1" xmlns="http://www.w3.org/2000/svg" viewBox="-9.31022487061489 -7.9565517206148915 17.50917474081345 17.298521440813452" style="enable-background:new -9.31022487061489 -7.9565517206148915 17.50917474081345 17.298521440813452;">
<style type="text/css">
  .face_stroke {fill:none; stroke:#000000; stroke-width:0.02; stroke-miterlimit:10;}
  .face_text {fill:#000000; font-family:monospace;}
  .edge_text {fill:#ff0000; font-family:monospace;}
  .edge_bg {fill:#f3f3f3; stroke:#606060; stroke-width:0.01;}
</style>
<polygon class="face_stroke" points="0.288675134594813,-0.5 -0.5773502691896258,-7.07050159149938e-17 0.288675134594813,0.5"/>
<polygon class="face_stroke" points="0.28867486540518683,0.4999999999999999 1.1547002691896258,1.414100318299876e-16 0.28867486540518755,-0.5000000000000003"/>
<polygon class="face_stroke" points="0.28867492936534056,0.49999997692665277 -0.4443769424644839,1.1801727146975702 -1.0076970005281063,2.006411489013565 -1.3730380248945018,2.937285237657769 -1.5220802910706768,3.9261160638829 -1.4473501974842513,4.92331986106408 -1.1525950230733475,5.87889266685022 -0.6525950230733475,6.744918070634659 0.027577714697572198,7.477969942464485 0.8538164890135671,8.041290000528107 1.7846902376577711,8.406631024894502 2.7735210638828995,8.555673291070676 3.7707248610640796,8.480943197484251 4.72629766685022,8.186188023073347 5.592323070634656,7.686188023073349 6.32537494246448,7.006015285302434 6.888695000528101,6.179776510986444 7.254036024894499,5.24890276234224 7.403078291070676,4.260071936117113 7.328348197484255,3.2628681389359357 7.0335930230733545,2.3072953331497943 6.533593023073357,1.4412699293653537 5.85342028530244,0.7082180575355252 5.027181510986455,0.14489799947190418 4.096307762342253,-0.22044302489449574 3.107476936117125,-0.3694852910706752 2.110273138935952,-0.2947551974842586 1.1547003331498094,-2.3073360999603665e-08"/>
<polygon class="face_stroke" points="0.28867489221833176,0.5000004774765634 -0.6668979143027304,0.20524530544821512 -0.4443769779156012,1.1801732170752213"/>
<polygon class="face_stroke" points="-0.6668980220843987,0.20524478292477866 -1.3999498922183318,0.8854175225234363 -0.4443770856972697,1.1801726945517848"/>
<polygon class="face_stroke" points="-0.6668980502726485,0.2052452768628239 -0.10357799426911063,-0.6209934988577124 0.2617630277763121,-1.5518672484128315 0.41080529148700684,-2.5406980750095713 0.33607519541422715,-3.537901872004425 0.041320018620766064,-4.493474677055644 -0.4586799835385187,-5.35950007959342 -1.1388527231371768,-6.092551949727351 -1.9650914988577135,-6.65587200573089 -2.895965248412832,-7.021213027776312 -3.884796075009572,-7.170255291487007 -4.8819998720044255,-7.095525195414226 -5.837572677055646,-6.800770018620766 -6.70359807959342,-6.300770016461481 -7.436649949727353,-5.6205972768628225 -7.999970005730891,-4.794358501142286 -8.365311027776311,-3.8634847515871673 -8.514353291487007,-2.8746539249904273 -8.439623195414226,-1.8774501279955742 -8.144868018620766,-0.9218773229443546 -7.644868016461481,-0.055851920406579936 -6.964695276862821,0.677199949727354 -6.138456501142285,1.2405200057308914 -5.207582751587165,1.605861027776312 -4.218751924990426,1.7549032914870066 -3.221548127995576,1.680173195414227 -2.2659753229443567,1.3854180186207667 -1.399949920406582,0.8854180164614815"/>
<text class="face_text" text-anchor="middle" dominant-baseline="middle" transform="matrix(0.034597042881626905 0 0 0.034597042881626905 0.0 0.0)">0</text>
<text class="face_text" text-anchor="middle" dominant-baseline="middle" transform="matrix(0.034597042881626905 0 0 0.034597042881626905 0.57735 0.0)">55</text>
<text class="face_text" text-anchor="middle" dominant-baseline="middle" transform="matrix(0.034597042881626905 0 0 0.034597042881626905 2.940499 4.093094)">57</text>
<text class="face_text" text-anchor="middle" dominant-baseline="middle" transform="matrix(0.034597042881626905 0 0 0.034597042881626905 -0.2742 0.628473)">1</text>
<text class="face_text" text-anchor="middle" dominant-baseline="middle" transform="matrix(0.034597042881626905 0 0 0.034597042881626905 -0.837075 0.756945)">2</text>
<text class="face_text" text-anchor="middle" dominant-baseline="middle" transform="matrix(0.034597042881626905 0 0 0.034597042881626905 -4.051774 -2.707676)">56</text>
<rect class="edge_bg" x="-0.057295563411081996" y="-0.3459704288162691" width="0.6919408576325381" height="0.6919408576325381"/>
<text class="edge_text" text-anchor="middle" dominant-baseline="middle" transform="matrix(0.034597042881626905 0 0 0.034597042881626905 0.28867486540518705 -3.535250795749691e-17)">0</text>
<rect class="edge_bg" x="0.3757172024412925" y="-0.09597045188961761" width="0.6919408576325381" height="0.6919408576325381"/>
<text class="edge_text" text-anchor="middle" dominant-baseline="middle" transform="matrix(0.034597042881626905 0 0 0.034597042881626905 0.7216876312575615 0.24999997692665143)">6</text>
<rect class="edge_bg" x="-0.4238214716649038" y="0.4941164184596234" width="0.6919408576325381" height="0.6919408576325381"/>
<text class="edge_text" text-anchor="middle" dominant-baseline="middle" transform="matrix(0.034597042881626905 0 0 0.034597042881626905 -0.07785104284863478 0.8400868472758924)">5</text>
<rect class="edge_bg" x="-0.9016079827071031" y="0.3467383099220127" width="0.6919408576325381" height="0.6919408576325381"/>
<text class="edge_text" text-anchor="middle" dominant-baseline="middle" transform="matrix(0.034597042881626905 0 0 0.034597042881626905 -0.555637553890834 0.6927087387382818)">7</text>
<rect class="edge_bg" x="-1.3793944141558838" y="0.19936121784588412" width="0.6919408576325381" height="0.6919408576325381"/>
<text class="edge_text" text-anchor="middle" dominant-baseline="middle" transform="matrix(0.034597042881626905 0 0 0.034597042881626905 -1.0334239853396148 0.5453316466621532)">8</text>
</svg>
