<?xml version="1.0" encoding="utf-8"?>
<svg version="1.1" xmlns="http://www.w3.org/2000/svg" viewBox="-1.9683382201777444 -0.9527836645535341 9.817674440355487 9.961240620177744" style="enable-background:new -1.9683382201777444 -0.9527836645535341 9.817674440355487 9.961240620177744;">
<style type="text/css">
  .face_stroke {fill:none; stroke:#000000; stroke-width:0.02; stroke-miterlimit:10;}
  .face_text {fill:#000000; font-family:monospace;}
  .edge_text {fill:#ff0000; font-family:monospace;}
  .edge_bg {fill:#f3f3f3; stroke:#606060; stroke-width:0.01;}
</style>
<polygon class="face_stroke" points="0.288675134594813,-0.5 -0.5773502691896258,-7.07050159149938e-17 0.288675134594813,0.5"/>
<polygon class="face_stroke" points="0.28867486540518683,0.4999999999999999 1.1547002691896258,1.414100318299876e-16 0.28867486540518755,-0.5000000000000003"/>
<polygon class="face_stroke" points="0.28867492936534056,0.49999997692665277 -0.4443769424644839,1.1801727146975702 -1.0076970005281063,2.006411489013565 -1.3730380248945018,2.937285237657769 -1.5220802910706768,3.9261160638829 -1.4473501974842513,4.92331986106408 -1.1525950230733475,5.87889266685022 -0.6525950230733475,6.744918070634659 0.027577714697572198,7.477969942464485 0.8538164890135671,8.041290000528107 1.7846902376577711,8.406631024894502 2.7735210638828995,8.555673291070676 3.7707248610640796,8.480943197484251 4.72629766685022,8.186188023073347 5.592323070634656,7.686188023073349 6.32537494246448,7.006015285302434 6.888695000528101,6.179776510986444 7.254036024894499,5.24890276234224 7.403078291070676,4.260071936117113 7.328348197484255,3.2628681389359357 7.0335930230733545,2.3072953331497943 6.533593023073357,1.4412699293653537 5.85342028530244,0.7082180575355252 5.027181510986455,0.14489799947190418 4.096307762342253,-0.22044302489449574 3.107476936117125,-0.3694852910706752 2.110273138935952,-0.2947551974842586 1.1547003331498094,-2.3073360999603665e-08"/>
<polygon class="face_stroke" points="-0.4443763828342374,1.180173103829545 -1.441580180388071,1.1054430152158323 -1.0076964367776917,2.006411880954623"/>
<polygon class="face_stroke" points="-0.4443768196119291,1.1801729847841678 -0.8782605632223082,0.27920411904537723 -1.4415806171657626,1.105442896170455"/>
<polygon class="face_stroke" points="-0.44437643677769184,1.1801728809546228 0.11894361716576274,0.3539341038295452 -0.8782601803880707,0.27920401521583177"/>
<text class="face_text" text-anchor="middle" dominant-baseline="middle" transform="matrix(0.019635348880710977 0 0 0.019635348880710977 0.0 0.0)">0</text>
<text class="face_text" text-anchor="middle" dominant-baseline="middle" transform="matrix(0.019635348880710977 0 0 0.019635348880710977 0.57735 0.0)">55</text>
<text class="face_text" text-anchor="middle" dominant-baseline="middle" transform="matrix(0.019635348880710977 0 0 0.019635348880710977 2.940499 4.093094)">57</text>
<text class="face_text" text-anchor="middle" dominant-baseline="middle" transform="matrix(0.019635348880710977 0 0 0.019635348880710977 -0.964551 1.430676)">3</text>
<text class="face_text" text-anchor="middle" dominant-baseline="middle" transform="matrix(0.019635348880710977 0 0 0.019635348880710977 -0.921406 0.85494)">2</text>
<text class="face_text" text-anchor="middle" dominant-baseline="middle" transform="matrix(0.019635348880710977 0 0 0.019635348880710977 -0.401231 0.604437)">1</text>
<rect class="edge_bg" x="0.09232137659807729" y="-0.1963534888071098" width="0.3927069776142195" height="0.3927069776142195"/>
<text class="edge_text" text-anchor="middle" dominant-baseline="middle" transform="matrix(0.019635348880710977 0 0 0.019635348880710977 0.28867486540518705 -3.535250795749691e-17)">0</text>
<rect class="edge_bg" x="0.5253341424504517" y="0.053646488119541674" width="0.3927069776142195" height="0.3927069776142195"/>
<text class="edge_text" text-anchor="middle" dominant-baseline="middle" transform="matrix(0.019635348880710977 0 0 0.019635348880710977 0.7216876312575615 0.24999997692665143)">6</text>
<rect class="edge_bg" x="-0.9223898986130744" y="1.3969390035849742" width="0.3927069776142195" height="0.3927069776142195"/>
<text class="edge_text" text-anchor="middle" dominant-baseline="middle" transform="matrix(0.019635348880710977 0 0 0.019635348880710977 -0.7260364098059646 1.593292492392084)">10</text>
<rect class="edge_bg" x="-1.1393322071959555" y="0.9464544516702017" width="0.3927069776142195" height="0.3927069776142195"/>
<text class="edge_text" text-anchor="middle" dominant-baseline="middle" transform="matrix(0.019635348880710977 0 0 0.019635348880710977 -0.9429787183888458 1.1428079404773115)">9</text>
<rect class="edge_bg" x="-0.8576717973899912" y="0.5333349592781177" width="0.3927069776142195" height="0.3927069776142195"/>
<text class="edge_text" text-anchor="middle" dominant-baseline="middle" transform="matrix(0.019635348880710977 0 0 0.019635348880710977 -0.6613183085828814 0.7296884480852275)">7</text>
</svg>
