<?xml version="1.0" encoding="utf-8"?>
<svg version="1.1" xmlns="http://www.w3.org/2000/svg" viewBox="-10.715128021052038 -6.143793921052039 18.980978041271413 15.399441841271415" style="enable-background:new -10.715128021052038 -6.143793921052039 18.980978041271413 15.399441841271415;">
<style type="text/css">
  .face_stroke {fill:none; stroke:#000000; stroke-width:0.02; stroke-miterlimit:10;}
  .face_text {fill:#000000; font-family:monospace;}
  .edge_text {fill:#ff0000; font-family:monospace;}
  .edge_bg {fill:#f3f3f3; stroke:#606060; stroke-width:0.01;}
</style>
<polygon class="face_stroke" points="0.288675134594813,-0.5 -0.5773502691896258,-7.07050159149938e-17 0.288675134594813,0.5"/>
<polygon class="face_stroke" points="0.28867486540518683,0.4999999999999999 1.1547002691896258,1.414100318299876e-16 0.28867486540518755,-0.5000000000000003"/>
<polygon class="face_stroke" points="0.28867492936534056,0.49999997692665277 -0.4443769424644839,1.1801727146975702 -1.0076970005281063,2.006411489013565 -1.3730380248945018,2.937285237657769 -1.5220802910706768,3.9261160638829 -1.4473501974842513,4.92331986106408 -1.1525950230733475,5.87889266685022 -0.6525950230733475,6.744918070634659 0.027577714697572198,7.477969942464485 0.8538164890135671,8.041290000528107 1.7846902376577711,8.406631024894502 2.7735210638828995,8.555673291070676 3.7707248610640796,8.480943197484251 4.72629766685022,8.186188023073347 5.592323070634656,7.686188023073349 6.32537494246448,7.006015285302434 6.888695000528101,6.179776510986444 7.254036024894499,5.24890276234224 7.403078291070676,4.260071936117113 7.328348197484255,3.2628681389359357 7.0335930230733545,2.3072953331497943 6.533593023073357,1.4412699293653537 5.85342028530244,0.7082180575355252 5.027181510986455,0.14489799947190418 4.096307762342253,-0.22044302489449574 3.107476936117125,-0.3694852910706752 2.110273138935952,-0.2947551974842586 1.1547003331498094,-2.3073360999603665e-08"/>
<polygon class="face_stroke" points="-0.4443763828342374,1.180173103829545 -1.441580180388071,1.1054430152158323 -1.0076964367776917,2.006411880954623"/>
<polygon class="face_stroke" points="-1.4415805632223082,1.1054431190453773 -2.0049006171657626,1.931681896170455 -1.0076968196119291,2.006411984784168"/>
<polygon class="face_stroke" points="-1.4415809890663271,1.1054424912981418 -1.076239969341878,0.17456874083210805 -0.9271977080966618,-0.8142620861362428 -1.0019278066557975,-1.8114658829447698 -1.296682985831814,-2.7670386872610684 -1.796682990150384,-3.633064088552179 -2.476855731576781,-4.366115956990219 -3.3030945087018577,-4.929436010933673 -4.233968259167892,-5.294777030658121 -5.222799086136243,-5.4438192919033375 -6.220002882944771,-5.369089193344201 -7.17557568726107,-5.074334014168184 -8.04160108855218,-4.574334009849614 -8.774652956990218,-3.8941612684232187 -9.337973010933673,-3.0679224912981398 -9.70331403065812,-2.1370487408321073 -9.852356291903337,-1.1482179138637565 -9.7776261933442,-0.1510141170552296 -9.482871014168182,0.8045586872610723 -8.982871009849614,1.670584088552181 -8.302698268423217,2.40363595699022 -7.476459491298139,2.9669560109336737 -6.545585740832105,3.3322970306581214 -5.556754913863754,3.4813392919033377 -4.559551117055231,3.406609193344202 -3.603978312738933,3.1118540141681863 -2.737952911447822,2.6118540098496164 -2.004901043009785,1.9316812684232239"/>
<polygon class="face_stroke" points="-1.441580614171257,1.10544300831652 -0.45274978906096197,0.9564007347439087 -1.0762395967677807,0.17456925693957126"/>
<polygon class="face_stroke" points="-0.45274940323221885,0.9564007430604287 -0.08740838582874305,0.025526991683479827 -1.0762392109390382,0.17456926525609134"/>
<text class="face_text" text-anchor="middle" dominant-baseline="middle" transform="matrix(0.03079888368254283 0 0 0.03079888368254283 0.0 0.0)">0</text>
<text class="face_text" text-anchor="middle" dominant-baseline="middle" transform="matrix(0.03079888368254283 0 0 0.03079888368254283 0.57735 0.0)">55</text>
<text class="face_text" text-anchor="middle" dominant-baseline="middle" transform="matrix(0.03079888368254283 0 0 0.03079888368254283 2.940499 4.093094)">57</text>
<text class="face_text" text-anchor="middle" dominant-baseline="middle" transform="matrix(0.03079888368254283 0 0 0.03079888368254283 -0.964551 1.430676)">3</text>
<text class="face_text" text-anchor="middle" dominant-baseline="middle" transform="matrix(0.03079888368254283 0 0 0.03079888368254283 -1.484726 1.681179)">4</text>
<text class="face_text" text-anchor="middle" dominant-baseline="middle" transform="matrix(0.03079888368254283 0 0 0.03079888368254283 -5.389777 -0.98124)">56</text>
<text class="face_text" text-anchor="middle" dominant-baseline="middle" transform="matrix(0.03079888368254283 0 0 0.03079888368254283 -0.99019 0.745471)">2</text>
<text class="face_text" text-anchor="middle" dominant-baseline="middle" transform="matrix(0.03079888368254283 0 0 0.03079888368254283 -0.538799 0.385499)">1</text>
<rect class="edge_bg" x="-0.01931397142024127" y="-0.3079888368254284" width="0.6159776736508566" height="0.6159776736508566"/>
<text class="edge_text" text-anchor="middle" dominant-baseline="middle" transform="matrix(0.03079888368254283 0 0 0.03079888368254283 0.28867486540518705 -3.535250795749691e-17)">0</text>
<rect class="edge_bg" x="0.4136987944321332" y="-0.05798885989877689" width="0.6159776736508566" height="0.6159776736508566"/>
<text class="edge_text" text-anchor="middle" dominant-baseline="middle" transform="matrix(0.03079888368254283 0 0 0.03079888368254283 0.7216876312575615 0.24999997692665143)">6</text>
<rect class="edge_bg" x="-1.0340252466313928" y="1.2853036555666555" width="0.6159776736508566" height="0.6159776736508566"/>
<text class="edge_text" text-anchor="middle" dominant-baseline="middle" transform="matrix(0.03079888368254283 0 0 0.03079888368254283 -0.7260364098059646 1.593292492392084)">10</text>
<rect class="edge_bg" x="-1.5326275282425468" y="1.2479387150893442" width="0.6159776736508566" height="0.6159776736508566"/>
<text class="edge_text" text-anchor="middle" dominant-baseline="middle" transform="matrix(0.03079888368254283 0 0 0.03079888368254283 -1.2246386914171186 1.5559275519147726)">11</text>
<rect class="edge_bg" x="-2.0312298528634822" y="1.2105730430352524" width="0.6159776736508566" height="0.6159776736508566"/>
<text class="edge_text" text-anchor="middle" dominant-baseline="middle" transform="matrix(0.03079888368254283 0 0 0.03079888368254283 -1.7232410160380538 1.5185618798606808)">12</text>
<rect class="edge_bg" x="-1.5668989422949475" y="0.3320172958026173" width="0.6159776736508566" height="0.6159776736508566"/>
<text class="edge_text" text-anchor="middle" dominant-baseline="middle" transform="matrix(0.03079888368254283 0 0 0.03079888368254283 -1.258910105469519 0.6400061326280456)">8</text>
<rect class="edge_bg" x="-1.072483143911057" y="0.25749616733283187" width="0.6159776736508566" height="0.6159776736508566"/>
<text class="edge_text" text-anchor="middle" dominant-baseline="middle" transform="matrix(0.03079888368254283 0 0 0.03079888368254283 -0.7644943070856285 0.5654850041582602)">7</text>
</svg>
