<?xml version="1.0" encoding="utf-8"?>
<svg version="1.1" xmlns="http://www.w3.org/2000/svg" viewBox="-2.4665079094333535 -0.9527836645535341 10.339566495766126 9.961240620177744" style="enable-background:new -2.4665079094333535 -0.9527836645535341 10.339566495766126 9.961240620177744;">
<style type="text/css">
  .face_stroke {fill:none; stroke:#000000; stroke-width:0.02; stroke-miterlimit:10;}
  .face_text {fill:#000000; font-family:monospace;}
  .edge_text {fill:#ff0000; font-family:monospace;}
  .edge_bg {fill:#f3f3f3; stroke:#606060; stroke-width:0.01;}
</style>
<polygon class="face_stroke" points="0.288675134594813,-0.5 -0.5773502691896258,-7.07050159149938e-17 0.288675134594813,0.5"/>
<polygon class="face_stroke" points="0.28867486540518683,0.4999999999999999 1.1547002691896258,1.414100318299876e-16 0.28867486540518755,-0.5000000000000003"/>
<polygon class="face_stroke" points="0.28867492936534056,0.49999997692665277 -0.4443769424644839,1.1801727146975702 -1.0076970005281063,2.006411489013565 -1.3730380248945018,2.937285237657769 -1.5220802910706768,3.9261160638829 -1.4473501974842513,4.92331986106408 -1.1525950230733475,5.87889266685022 -0.6525950230733475,6.744918070634659 0.027577714697572198,7.477969942464485 0.8538164890135671,8.041290000528107 1.7846902376577711,8.406631024894502 2.7735210638828995,8.555673291070676 3.7707248610640796,8.480943197484251 4.72629766685022,8.186188023073347 5.592323070634656,7.686188023073349 6.32537494246448,7.006015285302434 6.888695000528101,6.179776510986444 7.254036024894499,5.24890276234224 7.403078291070676,4.260071936117113 7.328348197484255,3.2628681389359357 7.0335930230733545,2.3072953331497943 6.533593023073357,1.4412699293653537 5.85342028530244,0.7082180575355252 5.027181510986455,0.14489799947190418 4.096307762342253,-0.22044302489449574 3.107476936117125,-0.3694852910706752 2.110273138935952,-0.2947551974842586 1.1547003331498094,-2.3073360999603665e-08"/>
<polygon class="face_stroke" points="-1.007696385828743,2.0064119916834797 -1.9965272109390382,2.1554542652560915 -1.3730374032322195,2.937285743060429"/>
<polygon class="face_stroke" points="-1.0076967890609618,2.0064117347439083 -1.631186596767781,1.2245802569395714 -1.996527614171257,2.15545400831652"/>
<polygon class="face_stroke" points="-1.0076964032322189,2.0064117430604287 -0.6423553858287432,1.07553799168348 -1.6311862109390383,1.2245802652560913"/>
<polygon class="face_stroke" points="-0.6423557890609619,1.0755377347439086 -1.265845596767781,0.2937062569395714 -1.631186614171257,1.2245800083165201"/>
<polygon class="face_stroke" points="-0.6423554032322188,1.0755377430604285 -0.277014385828743,0.14466399168347982 -1.2658452109390381,0.29370626525609134"/>
<text class="face_text" text-anchor="middle" dominant-baseline="middle" transform="matrix(0.019922481240355488 0 0 0.019922481240355488 0.0 0.0)">0</text>
<text class="face_text" text-anchor="middle" dominant-baseline="middle" transform="matrix(0.019922481240355488 0 0 0.019922481240355488 0.57735 0.0)">55</text>
<text class="face_text" text-anchor="middle" dominant-baseline="middle" transform="matrix(0.019922481240355488 0 0 0.019922481240355488 2.940499 4.093094)">57</text>
<text class="face_text" text-anchor="middle" dominant-baseline="middle" transform="matrix(0.019922481240355488 0 0 0.019922481240355488 -1.459087 2.366384)">5</text>
<text class="face_text" text-anchor="middle" dominant-baseline="middle" transform="matrix(0.019922481240355488 0 0 0.019922481240355488 -1.545137 1.795482)">4</text>
<text class="face_text" text-anchor="middle" dominant-baseline="middle" transform="matrix(0.019922481240355488 0 0 0.019922481240355488 -1.093746 1.43551)">3</text>
<text class="face_text" text-anchor="middle" dominant-baseline="middle" transform="matrix(0.019922481240355488 0 0 0.019922481240355488 -1.179796 0.864608)">2</text>
<text class="face_text" text-anchor="middle" dominant-baseline="middle" transform="matrix(0.019922481240355488 0 0 0.019922481240355488 -0.728405 0.504636)">1</text>
<rect class="edge_bg" x="0.08945005300163217" y="-0.1992248124035549" width="0.39844962480710977" height="0.39844962480710977"/>
<text class="edge_text" text-anchor="middle" dominant-baseline="middle" transform="matrix(0.019922481240355488 0 0 0.019922481240355488 0.28867486540518705 -3.535250795749691e-17)">0</text>
<rect class="edge_bg" x="0.5224628188540066" y="0.05077516452309655" width="0.39844962480710977" height="0.39844962480710977"/>
<text class="edge_text" text-anchor="middle" dominant-baseline="middle" transform="matrix(0.019922481240355488 0 0 0.019922481240355488 0.7216876312575615 0.24999997692665143)">6</text>
<rect class="edge_bg" x="-1.3895917069340358" y="2.2726240549683996" width="0.39844962480710977" height="0.39844962480710977"/>
<text class="edge_text" text-anchor="middle" dominant-baseline="middle" transform="matrix(0.019922481240355488 0 0 0.019922481240355488 -1.1903668945304808 2.4718488673719543)">14</text>
<rect class="edge_bg" x="-1.7013370140196644" y="1.8817080591266595" width="0.39844962480710977" height="0.39844962480710977"/>
<text class="edge_text" text-anchor="middle" dominant-baseline="middle" transform="matrix(0.019922481240355488 0 0 0.019922481240355488 -1.5021122016161095 2.0809328715302144)">13</text>
<rect class="edge_bg" x="-1.5186661194891835" y="1.4162711917547053" width="0.39844962480710977" height="0.39844962480710977"/>
<text class="edge_text" text-anchor="middle" dominant-baseline="middle" transform="matrix(0.019922481240355488 0 0 0.019922481240355488 -1.3194413070856286 1.6154960041582602)">11</text>
<rect class="edge_bg" x="-1.3359960140196645" y="0.9508340591266595" width="0.39844962480710977" height="0.39844962480710977"/>
<text class="edge_text" text-anchor="middle" dominant-baseline="middle" transform="matrix(0.019922481240355488 0 0 0.019922481240355488 -1.1367712016161096 1.1500588715302145)">9</text>
<rect class="edge_bg" x="-1.1533251194891834" y="0.48539719175470525" width="0.39844962480710977" height="0.39844962480710977"/>
<text class="edge_text" text-anchor="middle" dominant-baseline="middle" transform="matrix(0.019922481240355488 0 0 0.019922481240355488 -0.9541003070856284 0.6846220041582601)">7</text>
</svg>
