<?xml version="1.0" encoding="utf-8"?>
<svg version="1.1" xmlns="http://www.w3.org/2000/svg" viewBox="-11.297822371489184 -5.041282371489185 19.591419741729375 14.244429741729379" style="enable-background:new -11.297822371489184 -5.041282371489185 19.591419741729375 14.244429741729379;">
<style type="text/css">
  .face_stroke {fill:none; stroke:#000000; stroke-width:0.02; stroke-miterlimit:10;}
  .face_text {fill:#000000; font-family:monospace;}
  .edge_text {fill:#ff0000; font-family:monospace;}
  .edge_bg {fill:#f3f3f3; stroke:#606060; stroke-width:0.01;}
</style>
<polygon class="face_stroke" points="0.288675134594813,-0.5 -0.5773502691896258,-7.07050159149938e-17 0.288675134594813,0.5"/>
<polygon class="face_stroke" points="0.28867486540518683,0.4999999999999999 1.1547002691896258,1.414100318299876e-16 0.28867486540518755,-0.5000000000000003"/>
<polygon class="face_stroke" points="0.28867492936534056,0.49999997692665277 -0.4443769424644839,1.1801727146975702 -1.0076970005281063,2.006411489013565 -1.3730380248945018,2.937285237657769 -1.5220802910706768,3.9261160638829 -1.4473501974842513,4.92331986106408 -1.1525950230733475,5.87889266685022 -0.6525950230733475,6.744918070634659 0.027577714697572198,7.477969942464485 0.8538164890135671,8.041290000528107 1.7846902376577711,8.406631024894502 2.7735210638828995,8.555673291070676 3.7707248610640796,8.480943197484251 4.72629766685022,8.186188023073347 5.592323070634656,7.686188023073349 6.32537494246448,7.006015285302434 6.888695000528101,6.179776510986444 7.254036024894499,5.24890276234224 7.403078291070676,4.260071936117113 7.328348197484255,3.2628681389359357 7.0335930230733545,2.3072953331497943 6.533593023073357,1.4412699293653537 5.85342028530244,0.7082180575355252 5.027181510986455,0.14489799947190418 4.096307762342253,-0.22044302489449574 3.107476936117125,-0.3694852910706752 2.110273138935952,-0.2947551974842586 1.1547003331498094,-2.3073360999603665e-08"/>
<polygon class="face_stroke" points="-1.007696385828743,2.0064119916834797 -1.9965272109390382,2.1554542652560915 -1.3730374032322195,2.937285743060429"/>
<polygon class="face_stroke" points="-1.0076967890609618,2.0064117347439083 -1.631186596767781,1.2245802569395714 -1.996527614171257,2.15545400831652"/>
<polygon class="face_stroke" points="-1.6311869664600689,1.224579730077048 -1.482144707680332,0.2357489027370859 -1.5568748087258228,-0.7614548938851143 -1.851629990284395,-1.7170276974664918 -2.3516299967622496,-2.583053097510939 -3.0318027400163845,-3.316104964253085 -3.858041518546003,-3.879425016136455 -4.788915269922953,-4.244766033539931 -5.777746097262915,-4.393808292319668 -6.774949893885115,-4.319078191274177 -7.730522697466492,-4.024323009715604 -8.59654809751094,-3.5243230032377486 -9.329599964253086,-2.8441502599836137 -9.892920016136456,-2.0179114814539942 -10.258261033539931,-1.0870377300770435 -10.407303292319668,-0.09820690273708155 -10.332573191274175,0.8989968938851186 -10.037818009715604,1.8545696974664951 -9.53781800323775,2.72059509751094 -8.857645259983613,3.4536469642530863 -8.031406481453992,4.016967016136459 -7.100532730077042,4.382308033539933 -6.11170190273708,4.531350292319669 -5.114498106114883,4.456620191274176 -4.158925302533507,4.161865009715604 -3.2928999024890624,3.661865003237751 -2.559848035746919,2.98169225998362 -1.9965279838635475,2.155453481454002"/>
<polygon class="face_stroke" points="-1.6311870083165205,1.2245796141712568 -0.7003132569395712,0.8592385967677809 -1.4821447347439083,0.23574878906096186"/>
<polygon class="face_stroke" points="-0.7003132652560915,0.8592392109390381 -0.5512709916834799,-0.12959161417125697 -1.4821447430604286,0.23574940323221893"/>
<text class="face_text" text-anchor="middle" dominant-baseline="middle" transform="matrix(0.028488859483458757 0 0 0.028488859483458757 0.0 0.0)">0</text>
<text class="face_text" text-anchor="middle" dominant-baseline="middle" transform="matrix(0.028488859483458757 0 0 0.028488859483458757 0.57735 0.0)">55</text>
<text class="face_text" text-anchor="middle" dominant-baseline="middle" transform="matrix(0.028488859483458757 0 0 0.028488859483458757 2.940499 4.093094)">57</text>
<text class="face_text" text-anchor="middle" dominant-baseline="middle" transform="matrix(0.028488859483458757 0 0 0.028488859483458757 -1.459087 2.366384)">5</text>
<text class="face_text" text-anchor="middle" dominant-baseline="middle" transform="matrix(0.028488859483458757 0 0 0.028488859483458757 -1.545137 1.795482)">4</text>
<text class="face_text" text-anchor="middle" dominant-baseline="middle" transform="matrix(0.028488859483458757 0 0 0.028488859483458757 -5.944724 0.068771)">56</text>
<text class="face_text" text-anchor="middle" dominant-baseline="middle" transform="matrix(0.028488859483458757 0 0 0.028488859483458757 -1.271215 0.773189)">2</text>
<text class="face_text" text-anchor="middle" dominant-baseline="middle" transform="matrix(0.028488859483458757 0 0 0.028488859483458757 -0.911243 0.321799)">1</text>
<rect class="edge_bg" x="0.0037862705705994926" y="-0.2848885948345876" width="0.5697771896691751" height="0.5697771896691751"/>
<text class="edge_text" text-anchor="middle" dominant-baseline="middle" transform="matrix(0.028488859483458757 0 0 0.028488859483458757 0.28867486540518705 -3.535250795749691e-17)">0</text>
<rect class="edge_bg" x="0.43679903642297396" y="-0.034888617907936126" width="0.5697771896691751" height="0.5697771896691751"/>
<text class="edge_text" text-anchor="middle" dominant-baseline="middle" transform="matrix(0.028488859483458757 0 0 0.028488859483458757 0.7216876312575615 0.24999997692665143)">6</text>
<rect class="edge_bg" x="-1.4752554893650685" y="2.186960272537367" width="0.5697771896691751" height="0.5697771896691751"/>
<text class="edge_text" text-anchor="middle" dominant-baseline="middle" transform="matrix(0.028488859483458757 0 0 0.028488859483458757 -1.1903668945304808 2.4718488673719543)">14</text>
<rect class="edge_bg" x="-1.787000796450697" y="1.7960442766956268" width="0.5697771896691751" height="0.5697771896691751"/>
<text class="edge_text" text-anchor="middle" dominant-baseline="middle" transform="matrix(0.028488859483458757 0 0 0.028488859483458757 -1.5021122016161095 2.0809328715302144)">13</text>
<rect class="edge_bg" x="-2.098746069996394" y="1.4051280109309345" width="0.5697771896691751" height="0.5697771896691751"/>
<text class="edge_text" text-anchor="middle" dominant-baseline="middle" transform="matrix(0.028488859483458757 0 0 0.028488859483458757 -1.8138574751618064 1.6900166057655222)">12</text>
<rect class="edge_bg" x="-1.841554466364802" y="0.44527560678152195" width="0.5697771896691751" height="0.5697771896691751"/>
<text class="edge_text" text-anchor="middle" dominant-baseline="middle" transform="matrix(0.028488859483458757 0 0 0.028488859483458757 -1.5566658715302144 0.7301642016161095)">8</text>
<rect class="edge_bg" x="-1.3761175989928478" y="0.26260571225104107" width="0.5697771896691751" height="0.5697771896691751"/>
<text class="edge_text" text-anchor="middle" dominant-baseline="middle" transform="matrix(0.028488859483458757 0 0 0.028488859483458757 -1.0912290041582602 0.5474943070856286)">7</text>
</svg>
