<?xml version="1.0" encoding="utf-8"?>
<svg version="1.1" xmlns="http://www.w3.org/2000/svg" viewBox="-5.484868019740597 -10.434915019740597 13.501658039897524 19.894902039897524" style="enable-background:new -5.484868019740597 -10.434915019740597 13.501658039897524 19.894902039897524;">
<style type="text/css">
  .face_stroke {fill:none; stroke:#000000; stroke-width:0.02; stroke-miterlimit:10;}
  .face_text {fill:#000000; font-family:monospace;}
  .edge_text {fill:#ff0000; font-family:monospace;}
  .edge_bg {fill:#f3f3f3; stroke:#606060; stroke-width:0.01;}
</style>
<polygon class="face_stroke" points="0.288675134594813,-0.5 -0.5773502691896258,-7.07050159149938e-17 0.288675134594813,0.5"/>
<polygon class="face_stroke" points="0.28867486540518683,0.4999999999999999 1.1547002691896258,1.414100318299876e-16 0.28867486540518755,-0.5000000000000003"/>
<polygon class="face_stroke" points="0.28867492936534056,0.49999997692665277 -0.4443769424644839,1.1801727146975702 -1.0076970005281063,2.006411489013565 -1.3730380248945018,2.937285237657769 -1.5220802910706768,3.9261160638829 -1.4473501974842513,4.92331986106408 -1.1525950230733475,5.87889266685022 -0.6525950230733475,6.744918070634659 0.027577714697572198,7.477969942464485 0.8538164890135671,8.041290000528107 1.7846902376577711,8.406631024894502 2.7735210638828995,8.555673291070676 3.7707248610640796,8.480943197484251 4.72629766685022,8.186188023073347 5.592323070634656,7.686188023073349 6.32537494246448,7.006015285302434 6.888695000528101,6.179776510986444 7.254036024894499,5.24890276234224 7.403078291070676,4.260071936117113 7.328348197484255,3.2628681389359357 7.0335930230733545,2.3072953331497943 6.533593023073357,1.4412699293653537 5.85342028530244,0.7082180575355252 5.027181510986455,0.14489799947190418 4.096307762342253,-0.22044302489449574 3.107476936117125,-0.3694852910706752 2.110273138935952,-0.2947551974842586 1.1547003331498094,-2.3073360999603665e-08"/>
<polygon class="face_stroke" points="2.110272892218332,-0.2947554774765635 1.3772210220843988,-0.9749282170752214 1.1547000856972696,-3.054482152209381e-07"/>
<polygon class="face_stroke" points="1.3772219143027302,-0.9749276945517849 0.4216491077816683,-0.6801725225234367 1.1547009779156014,2.1707522135372415e-07"/>
<polygon class="face_stroke" points="1.3772216566447963,-0.9749279724740711 2.2432470616758993,-1.4749279703147873 2.9762989352016187,-2.1551007062579686 3.539618995325324,-2.9813394791694217 3.904960022012692,-3.9122132269027117 4.054002290654346,-4.9010440527562285 3.979272199554276,-5.898247850123735 3.684517027525928,-6.853820656644798 3.1845170296852126,-7.7198460616758995 2.5043442937420317,-8.45289793520162 1.6781055208305775,-9.016217995325325 0.7472317730972882,-9.381559022012691 -0.2415990527562293,-9.530601290654346 -1.238802850123736,-9.455871199554277 -2.1943756566447985,-9.161116027525928 -3.0604010616759,-8.661116029685212 -3.793452935201621,-7.98094329374203 -4.356772995325326,-7.154704520830576 -4.722114022012693,-6.223830773097284 -4.871156290654346,-5.234999947243769 -4.7964261995542765,-4.237796149876262 -4.501671027525927,-3.2822233433552013 -4.001671029685212,-2.4161979383240992 -3.321498293742029,-1.6831460647983785 -2.4952595208305746,-1.1198260046746737 -1.5643857730972845,-0.7544849779873068 -0.5755549472437713,-0.6054427093456543 0.42164885012373526,-0.6801728004457237"/>
<polygon class="face_stroke" points="-2.49526000831652,-1.119825614171257 -2.3462177347439086,-0.13099478906096196 -1.5643862569395712,-0.7544845967677807"/>
<polygon class="face_stroke" points="-2.3462177430604285,-0.1309954032322188 -1.41534399168348,0.23434561417125727 -1.5643862652560911,-0.7544852109390381"/>
<polygon class="face_stroke" points="-1.4153437347439084,0.23434621093903818 -0.6335122569395715,-0.38914359676778115 -1.5643860083165202,-0.754484614171257"/>
<polygon class="face_stroke" points="-1.4153437430604288,0.23434559676778122 -0.4844699916834802,0.5996866141712572 -0.6335122652560913,-0.38914421093903806"/>
<text class="face_text" text-anchor="middle" dominant-baseline="middle" transform="matrix(0.02700331607979505 0 0 0.02700331607979505 0.0 0.0)">0</text>
<text class="face_text" text-anchor="middle" dominant-baseline="middle" transform="matrix(0.02700331607979505 0 0 0.02700331607979505 0.57735 0.0)">55</text>
<text class="face_text" text-anchor="middle" dominant-baseline="middle" transform="matrix(0.02700331607979505 0 0 0.02700331607979505 2.940499 4.093094)">57</text>
<text class="face_text" text-anchor="middle" dominant-baseline="middle" transform="matrix(0.02700331607979505 0 0 0.02700331607979505 1.547398 -0.423228)">53</text>
<text class="face_text" text-anchor="middle" dominant-baseline="middle" transform="matrix(0.02700331607979505 0 0 0.02700331607979505 0.984524 -0.5517)">54</text>
<text class="face_text" text-anchor="middle" dominant-baseline="middle" transform="matrix(0.02700331607979505 0 0 0.02700331607979505 -0.408577 -5.068022)">56</text>
<text class="face_text" text-anchor="middle" dominant-baseline="middle" transform="matrix(0.02700331607979505 0 0 0.02700331607979505 -2.135288 -0.668435)">4</text>
<text class="face_text" text-anchor="middle" dominant-baseline="middle" transform="matrix(0.02700331607979505 0 0 0.02700331607979505 -1.775316 -0.217045)">3</text>
<text class="face_text" text-anchor="middle" dominant-baseline="middle" transform="matrix(0.02700331607979505 0 0 0.02700331607979505 -1.204414 -0.303094)">2</text>
<text class="face_text" text-anchor="middle" dominant-baseline="middle" transform="matrix(0.02700331607979505 0 0 0.02700331607979505 -0.844442 0.148296)">1</text>
<rect class="edge_bg" x="0.018641704607236576" y="-0.27003316079795053" width="0.540066321595901" height="0.540066321595901"/>
<text class="edge_text" text-anchor="middle" dominant-baseline="middle" transform="matrix(0.02700331607979505 0 0 0.02700331607979505 0.28867486540518705 -3.535250795749691e-17)">0</text>
<rect class="edge_bg" x="0.45165447045961105" y="-0.020033183871299043" width="0.540066321595901" height="0.540066321595901"/>
<text class="edge_text" text-anchor="middle" dominant-baseline="middle" transform="matrix(0.02700331607979505 0 0 0.02700331607979505 0.7216876312575615 0.24999997692665143)">6</text>
<rect class="edge_bg" x="1.3624533281598503" y="-0.41741105226033975" width="0.540066321595901" height="0.540066321595901"/>
<text class="edge_text" text-anchor="middle" dominant-baseline="middle" transform="matrix(0.02700331607979505 0 0 0.02700331607979505 1.6324864889578008 -0.14737789146238928)">110</text>
<rect class="edge_bg" x="0.9959282853112155" y="-0.7574968995362321" width="0.540066321595901" height="0.540066321595901"/>
<text class="edge_text" text-anchor="middle" dominant-baseline="middle" transform="matrix(0.02700331607979505 0 0 0.02700331607979505 1.265961446109166 -0.4874637387382817)">111</text>
<rect class="edge_bg" x="0.629402092586316" y="-1.097583547257848" width="0.540066321595901" height="0.540066321595901"/>
<text class="edge_text" text-anchor="middle" dominant-baseline="middle" transform="matrix(0.02700331607979505 0 0 0.02700331607979505 0.8994352533842664 -0.8275503864598974)">2</text>
<rect class="edge_bg" x="-2.2998562934259965" y="-1.2071882662674696" width="0.540066321595901" height="0.540066321595901"/>
<text class="edge_text" text-anchor="middle" dominant-baseline="middle" transform="matrix(0.02700331607979505 0 0 0.02700331607979505 -2.029823132628046 -0.9371551054695191)">12</text>
<rect class="edge_bg" x="-2.2253351649562108" y="-0.7127734678835791" width="0.540066321595901" height="0.540066321595901"/>
<text class="edge_text" text-anchor="middle" dominant-baseline="middle" transform="matrix(0.02700331607979505 0 0 0.02700331607979505 -1.95530200415826 -0.44274030708562856)">11</text>
<rect class="edge_bg" x="-1.759898032328165" y="-0.53010236241406" width="0.540066321595901" height="0.540066321595901"/>
<text class="edge_text" text-anchor="middle" dominant-baseline="middle" transform="matrix(0.02700331607979505 0 0 0.02700331607979505 -1.4898648715302145 -0.2600692016161094)">9</text>
<rect class="edge_bg" x="-1.2944611649562106" y="-0.34743246788357907" width="0.540066321595901" height="0.540066321595901"/>
<text class="edge_text" text-anchor="middle" dominant-baseline="middle" transform="matrix(0.02700331607979505 0 0 0.02700331607979505 -1.02442800415826 -0.07739930708562856)">7</text>
</svg>
