<?xml version="1.0" encoding="utf-8"?>
<svg version="1.1" xmlns="http://www.w3.org/2000/svg" viewBox="-10.243798862542363 -4.965393661295703 20.331896723838064 11.610960323838068" style="enable-background:new -10.243798862542363 -4.965393661295703 20.331896723838064 11.610960323838068;">
<style type="text/css">
  .face_stroke {fill:none; stroke:#000000; stroke-width:0.02; stroke-miterlimit:10;}
  .face_text {fill:#000000; font-family:monospace;}
  .edge_text {fill:#ff0000; font-family:monospace;}
  .edge_bg {fill:#f3f3f3; stroke:#606060; stroke-width:0.01;}
</style>
<polygon class="face_stroke" points="0.288675134594813,-0.5 -0.5773502691896258,-7.07050159149938e-17 0.288675134594813,0.5"/>
<polygon class="face_stroke" points="0.2886752625151212,0.4999999999999994 0.5111961964714355,1.4749279121818228 0.9450799355889936,2.375896780084242 1.568569737447727,3.157728262552272 2.350401219915757,3.781218064411006 3.2513700878181755,4.2151018035285635 4.226297999999999,4.437622737484879 5.2262979999999954,4.437622737484879 6.201225912181819,4.215101803528565 7.102194780084234,3.7812180644110107 7.884026262552263,3.1577282625522813 8.507516064411,2.3758967800842536 8.94139980352856,1.4749279121818357 9.163920737484876,0.5000000000000129 9.16392073748488,-0.49999999999997913 8.94139980352857,-1.4749279121818037 8.507516064411018,-2.375896780084225 7.884026262552287,-3.1577282625522574 7.102194780084264,-3.781218064410992 6.201225912181847,-4.2151018035285555 5.226298000000028,-4.437622737484875 4.226298000000033,-4.437622737484882 3.2513700878182115,-4.215101803528577 2.3504012199157884,-3.7812180644110254 1.5685697374477536,-3.1577282625522987 0.9450799355890136,-2.3758967800842745 0.511196196471448,-1.4749279121818588 0.28867526251512565,-0.5000000000000371"/>
<polygon class="face_stroke" points="0.28867497791560126,0.49999978292477876 -0.44437689221833176,1.1801725225234365 0.5111959143027304,1.474927694551785"/>
<polygon class="face_stroke" points="0.28867489221833176,0.5000004774765634 -0.6668979143027304,0.20524530544821512 -0.4443769779156012,1.1801732170752213"/>
<polygon class="face_stroke" points="-0.6668972001489148,0.20524507730854702 -1.1007809415128835,-0.6957237895120576 -1.7242707453209793,-1.4775552704255235 -2.5061022293435733,-2.1010450703348944 -3.407071098327807,-2.5349288072060423 -4.3819990110644484,-2.757449738731542 -5.381999011064449,-2.7574497362382147 -6.356926922691455,-2.5349287998510848 -7.257895789512059,-2.1010450584871165 -8.039727270425525,-1.4775552546790198 -8.663217070334897,-0.6957237706564254 -9.097100807206044,0.20524509832780824 -9.319621738731541,1.1801730110644493 -9.319621736238215,2.1801730110644515 -9.097100799851084,3.1551009226914566 -8.663217058487115,4.056069789512062 -8.039727254679018,4.837901270425526 -7.257895770656425,5.461391070334896 -6.3569269016721925,5.895274807206043 -5.381998988935547,6.117795738731543 -4.3819989889355515,6.1177957362382145 -3.407071077308549,5.895274799851086 -2.5061022104879447,5.461391058487118 -1.7242707295744784,4.837901254679023 -1.1007809296651088,4.056069770656432 -0.66689719279396,3.1551009016721996 -0.4443762612684594,2.180172988935559 -0.4443762637617841,1.180172988935567"/>
<polygon class="face_stroke" points="-1.7242712652560914,-1.4775557890609619 -1.5752289916834799,-2.466386614171257 -2.5061027430604286,-2.101045596767781"/>
<polygon class="face_stroke" points="-1.7242710083165202,-1.4775553858287434 -0.7933972569395712,-1.8428964032322193 -1.5752287347439085,-2.466386210939038"/>
<polygon class="face_stroke" points="-1.7242707430604287,-1.477555596767781 -0.9424392652560911,-0.8540657890609619 -0.7933969916834795,-1.8428966141712566"/>
<polygon class="face_stroke" points="-0.9424400083165204,-0.8540653858287433 -0.011566256939571251,-1.2194064032322192 -0.7933977347439084,-1.842896210939038"/>
<polygon class="face_stroke" points="-0.9424397430604285,-0.8540655967677812 -0.16060826525609104,-0.230575789060962 -0.011565991683479493,-1.2194066141712567"/>
<text class="face_text" text-anchor="middle" dominant-baseline="middle" transform="matrix(0.023221920647676135 0 0 0.023221920647676135 0.0 0.0)">0</text>
<text class="face_text" text-anchor="middle" dominant-baseline="middle" transform="matrix(0.023221920647676135 0 0 0.023221920647676135 4.726298 0.0)">56</text>
<text class="face_text" text-anchor="middle" dominant-baseline="middle" transform="matrix(0.023221920647676135 0 0 0.023221920647676135 0.118498 1.0517)">54</text>
<text class="face_text" text-anchor="middle" dominant-baseline="middle" transform="matrix(0.023221920647676135 0 0 0.023221920647676135 -0.2742 0.628473)">55</text>
<text class="face_text" text-anchor="middle" dominant-baseline="middle" transform="matrix(0.023221920647676135 0 0 0.023221920647676135 -4.881999 1.680173)">57</text>
<text class="face_text" text-anchor="middle" dominant-baseline="middle" transform="matrix(0.023221920647676135 0 0 0.023221920647676135 -1.935201 -2.014996)">5</text>
<text class="face_text" text-anchor="middle" dominant-baseline="middle" transform="matrix(0.023221920647676135 0 0 0.023221920647676135 -1.364299 -1.928946)">4</text>
<text class="face_text" text-anchor="middle" dominant-baseline="middle" transform="matrix(0.023221920647676135 0 0 0.023221920647676135 -1.153369 -1.391506)">3</text>
<text class="face_text" text-anchor="middle" dominant-baseline="middle" transform="matrix(0.023221920647676135 0 0 0.023221920647676135 -0.582468 -1.305456)">2</text>
<text class="face_text" text-anchor="middle" dominant-baseline="middle" transform="matrix(0.023221920647676135 0 0 0.023221920647676135 -0.371538 -0.768016)">1</text>
<rect class="edge_bg" x="0.05645605603835985" y="-0.23221920647676192" width="0.46443841295352273" height="0.46443841295352273"/>
<text class="edge_text" text-anchor="middle" dominant-baseline="middle" transform="matrix(0.023221920647676135 0 0 0.023221920647676135 0.2886752625151212 -5.434520481284372e-16)">1</text>
<rect class="edge_bg" x="0.16771623963240456" y="0.7552445322615204" width="0.46443841295352273" height="0.46443841295352273"/>
<text class="edge_text" text-anchor="middle" dominant-baseline="middle" transform="matrix(0.023221920647676135 0 0 0.023221920647676135 0.3999354461091659 0.9874637387382819)">2</text>
<rect class="edge_bg" x="-0.3100702493253962" y="0.607867640799131" width="0.46443841295352273" height="0.46443841295352273"/>
<text class="edge_text" text-anchor="middle" dominant-baseline="middle" transform="matrix(0.023221920647676135 0 0 0.023221920647676135 -0.07785104284863478 0.8400868472758924)">3</text>
<rect class="edge_bg" x="-0.7878559384321109" y="0.46048982664528876" width="0.46443841295352273" height="0.46443841295352273"/>
<text class="edge_text" text-anchor="middle" dominant-baseline="middle" transform="matrix(0.023221920647676135 0 0 0.023221920647676135 -0.5556367319553495 0.6927090331220501)">6</text>
<rect class="edge_bg" x="-2.3474062106350213" y="-2.0215198993911327" width="0.46443841295352273" height="0.46443841295352273"/>
<text class="edge_text" text-anchor="middle" dominant-baseline="middle" transform="matrix(0.023221920647676135 0 0 0.023221920647676135 -2.11518700415826 -1.7893006929143715)">14</text>
<rect class="edge_bg" x="-1.8819690780069758" y="-2.204190004860652" width="0.46443841295352273" height="0.46443841295352273"/>
<text class="edge_text" text-anchor="middle" dominant-baseline="middle" transform="matrix(0.023221920647676135 0 0 0.023221920647676135 -1.6497498715302144 -1.9719707983838906)">13</text>
<rect class="edge_bg" x="-1.4910530738487158" y="-1.8924453119462805" width="0.46443841295352273" height="0.46443841295352273"/>
<text class="edge_text" text-anchor="middle" dominant-baseline="middle" transform="matrix(0.023221920647676135 0 0 0.023221920647676135 -1.2588338673719544 -1.660226105469519)">11</text>
<rect class="edge_bg" x="-1.1001380780069758" y="-1.5807000048606519" width="0.46443841295352273" height="0.46443841295352273"/>
<text class="edge_text" text-anchor="middle" dominant-baseline="middle" transform="matrix(0.023221920647676135 0 0 0.023221920647676135 -0.8679188715302144 -1.3484807983838905)">9</text>
<rect class="edge_bg" x="-0.7092220738487156" y="-1.2689553119462806" width="0.46443841295352273" height="0.46443841295352273"/>
<text class="edge_text" text-anchor="middle" dominant-baseline="middle" transform="matrix(0.023221920647676135 0 0 0.023221920647676135 -0.4770028673719542 -1.0367361054695192)">7</text>
</svg>
