<?xml version="1.0" encoding="utf-8"?>
<svg version="1.1" xmlns="http://www.w3.org/2000/svg" viewBox="-5.368448561233366 -4.9063850112333665 20.478168122466734 10.312770022466733" style="enable-background:new -5.368448561233366 -4.9063850112333665 20.478168122466734 10.312770022466733;">
<style type="text/css">
  .face_stroke {fill:none; stroke:#000000; stroke-width:0.02; stroke-miterlimit:10;}
  .face_text {fill:#000000; font-family:monospace;}
  .edge_text {fill:#ff0000; font-family:monospace;}
  .edge_bg {fill:#f3f3f3; stroke:#606060; stroke-width:0.01;}
</style>
<polygon class="face_stroke" points="4.437622737484879,-0.49999999999999994 4.215101803528564,-1.4749279121818233 3.7812180644110063,-2.375896780084242 3.1577282625522725,-3.157728262552272 2.3758967800842417,-3.7812180644110063 1.4749279121818237,-4.215101803528564 0.5000000000000002,-4.437622737484879 -0.5000000000000017,-4.437622737484878 -1.4749279121818242,-4.2151018035285635 -2.3758967800842443,-3.781218064411005 -3.1577282625522733,-3.157728262552271 -3.7812180644110067,-2.375896780084241 -4.215101803528565,-1.4749279121818202 -4.437622737484879,-0.49999999999999656 -4.437622737484878,0.5000000000000033 -4.2151018035285635,1.4749279121818248 -3.781218064411005,2.3758967800842434 -3.1577282625522685,3.157728262552276 -2.3758967800842394,3.7812180644110076 -1.4749279121818206,4.215101803528565 -0.4999999999999968,4.437622737484879 0.49999999999999917,4.437622737484879 1.4749279121818226,4.215101803528564 2.3758967800842417,3.7812180644110063 3.157728262552269,3.157728262552276 3.7812180644110014,2.37589678008425 4.215101803528561,1.474927912181832 4.437622737484878,0.500000000000009"/>
<polygon class="face_stroke" points="4.437622865405187,0.4999999999999999 5.303648269189626,1.414100318299876e-16 4.437622865405188,-0.5000000000000003"/>
<polygon class="face_stroke" points="4.437622730810374,0.49999999999999994 5.303648134594813,1.0 5.303648134594813,-1.1102230246251565e-16"/>
<polygon class="face_stroke" points="5.303648262515121,0.9999999999999993 5.526169196471435,1.9749279121818228 5.960052935588993,2.875896780084242 6.5835427374477264,3.657728262552272 7.365374219915756,4.281218064411005 8.266343087818175,4.7151018035285635 9.241271,4.937622737484879 10.241270999999994,4.937622737484879 11.216198912181818,4.715101803528565 12.117167780084234,4.281218064411011 12.898999262552262,3.6577282625522813 13.522489064410998,2.8758967800842536 13.95637280352856,1.9749279121818357 14.178893737484877,1.0000000000000129 14.17889373748488,2.0872192862952943e-14 13.95637280352857,-0.9749279121818037 13.522489064411015,-1.8758967800842248 12.898999262552287,-2.6577282625522574 12.117167780084262,-3.281218064410992 11.216198912181847,-3.7151018035285555 10.241271000000028,-3.937622737484875 9.241271000000033,-3.9376227374848822 8.26634308781821,-3.7151018035285768 7.365374219915788,-3.2812180644110254 6.583542737447753,-2.6577282625522987 5.9600529355890135,-1.8758967800842745 5.526169196471447,-0.9749279121818588 5.303648262515125,-3.708144902248023e-14"/>
<polygon class="face_stroke" points="5.960052403232219,2.875897256939571 5.594711385828743,3.8067710083165203 6.583542210939038,3.6577287347439085"/>
<polygon class="face_stroke" points="5.960052614171257,2.87589699168348 4.971221789060962,3.0249392652560916 5.594711596767781,3.806770743060429"/>
<polygon class="face_stroke" points="5.960053210939038,2.8758967347439084 5.336563403232219,2.0940652569395715 4.971222385828743,3.0249390083165197"/>
<polygon class="face_stroke" points="5.336562614171257,2.0940649916834797 4.347731789060962,2.2431072652560915 4.971221596767781,3.024938743060429"/>
<polygon class="face_stroke" points="5.336563210939038,2.0940657347439084 4.713073403232219,1.3122342569395713 4.347732385828743,2.2431080083165202"/>
<polygon class="face_stroke" points="4.713073614171257,1.31223399168348 3.7242427890609617,1.4612762652560916 4.347732596767781,2.243107743060429"/>
<text class="face_text" text-anchor="middle" dominant-baseline="middle" transform="matrix(0.020625540044933468 0 0 0.020625540044933468 0.0 0.0)">56</text>
<text class="face_text" text-anchor="middle" dominant-baseline="middle" transform="matrix(0.020625540044933468 0 0 0.020625540044933468 4.726298 0.0)">0</text>
<text class="face_text" text-anchor="middle" dominant-baseline="middle" transform="matrix(0.020625540044933468 0 0 0.020625540044933468 5.014973 0.5)">1</text>
<text class="face_text" text-anchor="middle" dominant-baseline="middle" transform="matrix(0.020625540044933468 0 0 0.020625540044933468 9.741271 0.5)">57</text>
<text class="face_text" text-anchor="middle" dominant-baseline="middle" transform="matrix(0.020625540044933468 0 0 0.020625540044933468 6.046102 3.446799)">7</text>
<text class="face_text" text-anchor="middle" dominant-baseline="middle" transform="matrix(0.020625540044933468 0 0 0.020625540044933468 5.508662 3.235869)">6</text>
<text class="face_text" text-anchor="middle" dominant-baseline="middle" transform="matrix(0.020625540044933468 0 0 0.020625540044933468 5.422613 2.664967)">5</text>
<text class="face_text" text-anchor="middle" dominant-baseline="middle" transform="matrix(0.020625540044933468 0 0 0.020625540044933468 4.885172 2.454037)">4</text>
<text class="face_text" text-anchor="middle" dominant-baseline="middle" transform="matrix(0.020625540044933468 0 0 0.020625540044933468 4.799123 1.883136)">3</text>
<text class="face_text" text-anchor="middle" dominant-baseline="middle" transform="matrix(0.020625540044933468 0 0 0.020625540044933468 4.261683 1.672206)">2</text>
<rect class="edge_bg" x="4.231367464955852" y="-0.20625540044933469" width="0.4125108008986693" height="0.4125108008986693"/>
<text class="edge_text" text-anchor="middle" dominant-baseline="middle" transform="matrix(0.020625540044933468 0 0 0.020625540044933468 4.437622865405187 -3.535250795749691e-17)">1</text>
<rect class="edge_bg" x="4.664380032253259" y="0.04374459955066523" width="0.4125108008986693" height="0.4125108008986693"/>
<text class="edge_text" text-anchor="middle" dominant-baseline="middle" transform="matrix(0.020625540044933468 0 0 0.020625540044933468 4.870635432702594 0.2499999999999999)">4</text>
<rect class="edge_bg" x="5.097392862065786" y="0.2937445995506648" width="0.4125108008986693" height="0.4125108008986693"/>
<text class="edge_text" text-anchor="middle" dominant-baseline="middle" transform="matrix(0.020625540044933468 0 0 0.020625540044933468 5.303648262515121 0.49999999999999944)">5</text>
<rect class="edge_bg" x="6.0655419066362946" y="3.060557595392405" width="0.4125108008986693" height="0.4125108008986693"/>
<text class="edge_text" text-anchor="middle" dominant-baseline="middle" transform="matrix(0.020625540044933468 0 0 0.020625540044933468 6.271797307085629 3.2668129958417396)">18</text>
<rect class="edge_bg" x="5.571126705020185" y="3.1350784669226197" width="0.4125108008986693" height="0.4125108008986693"/>
<text class="edge_text" text-anchor="middle" dominant-baseline="middle" transform="matrix(0.020625540044933468 0 0 0.020625540044933468 5.77738210546952 3.3413338673719544)">17</text>
<rect class="edge_bg" x="5.259382397934556" y="2.7441624710808794" width="0.4125108008986693" height="0.4125108008986693"/>
<text class="edge_text" text-anchor="middle" dominant-baseline="middle" transform="matrix(0.020625540044933468 0 0 0.020625540044933468 5.465637798383891 2.950417871530214)">15</text>
<rect class="edge_bg" x="4.947636705020185" y="2.3532464669226196" width="0.4125108008986693" height="0.4125108008986693"/>
<text class="edge_text" text-anchor="middle" dominant-baseline="middle" transform="matrix(0.020625540044933468 0 0 0.020625540044933468 5.153892105469519 2.5595018673719543)">13</text>
<rect class="edge_bg" x="4.635892397934556" y="1.9623314710808795" width="0.4125108008986693" height="0.4125108008986693"/>
<text class="edge_text" text-anchor="middle" dominant-baseline="middle" transform="matrix(0.020625540044933468 0 0 0.020625540044933468 4.84214779838389 2.168586871530214)">11</text>
<rect class="edge_bg" x="4.324147705020184" y="1.5714154669226197" width="0.4125108008986693" height="0.4125108008986693"/>
<text class="edge_text" text-anchor="middle" dominant-baseline="middle" transform="matrix(0.020625540044933468 0 0 0.020625540044933468 4.530403105469519 1.7776708673719543)">9</text>
</svg>
