<?xml version="1.0" encoding="utf-8"?>
<svg version="1.1" xmlns="http://www.w3.org/2000/svg" viewBox="-5.368448561233366 -4.9063850112333665 20.478168122466734 10.312770022466733" style="enable-background:new -5.368448561233366 -4.9063850112333665 20.478168122466734 10.312770022466733;">
<style type="text/css">
  .face_stroke {fill:none; stroke:#000000; stroke-width:0.02; stroke-miterlimit:10;}
  .face_text {fill:#000000; font-family:monospace;}
  .edge_text {fill:#ff0000; font-family:monospace;}
  .edge_bg {fill:#f3f3f3; stroke:#606060; stroke-width:0.01;}
</style>
<polygon class="face_stroke" points="4.437622737484879,-0.49999999999999994 4.215101803528564,-1.4749279121818233 3.7812180644110063,-2.375896780084242 3.1577282625522725,-3.157728262552272 2.3758967800842417,-3.7812180644110063 1.4749279121818237,-4.215101803528564 0.5000000000000002,-4.437622737484879 -0.5000000000000017,-4.437622737484878 -1.4749279121818242,-4.2151018035285635 -2.3758967800842443,-3.781218064411005 -3.1577282625522733,-3.157728262552271 -3.7812180644110067,-2.375896780084241 -4.215101803528565,-1.4749279121818202 -4.437622737484879,-0.49999999999999656 -4.437622737484878,0.5000000000000033 -4.2151018035285635,1.4749279121818248 -3.781218064411005,2.3758967800842434 -3.1577282625522685,3.157728262552276 -2.3758967800842394,3.7812180644110076 -1.4749279121818206,4.215101803528565 -0.4999999999999968,4.437622737484879 0.49999999999999917,4.437622737484879 1.4749279121818226,4.215101803528564 2.3758967800842417,3.7812180644110063 3.157728262552269,3.157728262552276 3.7812180644110014,2.37589678008425 4.215101803528561,1.474927912181832 4.437622737484878,0.500000000000009"/>
<polygon class="face_stroke" points="4.437622865405187,0.4999999999999999 5.303648269189626,1.414100318299876e-16 4.437622865405188,-0.5000000000000003"/>
<polygon class="face_stroke" points="4.437622730810374,0.49999999999999994 5.303648134594813,1.0 5.303648134594813,-1.1102230246251565e-16"/>
<polygon class="face_stroke" points="5.303648262515121,0.9999999999999993 5.526169196471435,1.9749279121818228 5.960052935588993,2.875896780084242 6.5835427374477264,3.657728262552272 7.365374219915756,4.281218064411005 8.266343087818175,4.7151018035285635 9.241271,4.937622737484879 10.241270999999994,4.937622737484879 11.216198912181818,4.715101803528565 12.117167780084234,4.281218064411011 12.898999262552262,3.6577282625522813 13.522489064410998,2.8758967800842536 13.95637280352856,1.9749279121818357 14.178893737484877,1.0000000000000129 14.17889373748488,2.0872192862952943e-14 13.95637280352857,-0.9749279121818037 13.522489064411015,-1.8758967800842248 12.898999262552287,-2.6577282625522574 12.117167780084262,-3.281218064410992 11.216198912181847,-3.7151018035285555 10.241271000000028,-3.937622737484875 9.241271000000033,-3.9376227374848822 8.26634308781821,-3.7151018035285768 7.365374219915788,-3.2812180644110254 6.583542737447753,-2.6577282625522987 5.9600529355890135,-1.8758967800842745 5.526169196471447,-0.9749279121818588 5.303648262515125,-3.708144902248023e-14"/>
<polygon class="face_stroke" points="6.583542265256091,3.657727789060962 6.434499991683479,4.646558614171257 7.365373743060428,4.281217596767781"/>
<polygon class="face_stroke" points="6.58354300831652,3.657728385828743 5.652669256939571,4.023069403232219 6.434500734743908,4.646559210939038"/>
<polygon class="face_stroke" points="6.583542743060429,3.657728596767781 5.801711265256092,3.0342387890609617 5.65266899168348,4.0230696141712565"/>
<polygon class="face_stroke" points="5.80171100831652,3.034238385828743 4.870837256939572,3.399579403232219 5.652668734743909,4.023069210939038"/>
<polygon class="face_stroke" points="5.801710743060428,3.034238596767781 5.019879265256091,2.4107487890609622 4.870836991683479,3.399579614171257"/>
<polygon class="face_stroke" points="5.01988000831652,2.410748385828743 4.089006256939571,2.776089403232219 4.870837734743908,3.399579210939038"/>
<polygon class="face_stroke" points="5.019879743060429,2.410748596767781 4.238048265256092,1.7872587890609617 4.08900599168348,2.7760896141712568"/>
<polygon class="face_stroke" points="4.23804800831652,1.7872583858287432 3.3071742569395717,2.152599403232219 4.089005734743909,2.776089210939038"/>
<text class="face_text" text-anchor="middle" dominant-baseline="middle" transform="matrix(0.020625540044933468 0 0 0.020625540044933468 0.0 0.0)">56</text>
<text class="face_text" text-anchor="middle" dominant-baseline="middle" transform="matrix(0.020625540044933468 0 0 0.020625540044933468 4.726298 0.0)">0</text>
<text class="face_text" text-anchor="middle" dominant-baseline="middle" transform="matrix(0.020625540044933468 0 0 0.020625540044933468 5.014973 0.5)">1</text>
<text class="face_text" text-anchor="middle" dominant-baseline="middle" transform="matrix(0.020625540044933468 0 0 0.020625540044933468 9.741271 0.5)">57</text>
<text class="face_text" text-anchor="middle" dominant-baseline="middle" transform="matrix(0.020625540044933468 0 0 0.020625540044933468 6.794472 4.195168)">9</text>
<text class="face_text" text-anchor="middle" dominant-baseline="middle" transform="matrix(0.020625540044933468 0 0 0.020625540044933468 6.223571 4.109119)">8</text>
<text class="face_text" text-anchor="middle" dominant-baseline="middle" transform="matrix(0.020625540044933468 0 0 0.020625540044933468 6.012641 3.571679)">7</text>
<text class="face_text" text-anchor="middle" dominant-baseline="middle" transform="matrix(0.020625540044933468 0 0 0.020625540044933468 5.441739 3.485629)">6</text>
<text class="face_text" text-anchor="middle" dominant-baseline="middle" transform="matrix(0.020625540044933468 0 0 0.020625540044933468 5.230809 2.948189)">5</text>
<text class="face_text" text-anchor="middle" dominant-baseline="middle" transform="matrix(0.020625540044933468 0 0 0.020625540044933468 4.659908 2.862139)">4</text>
<text class="face_text" text-anchor="middle" dominant-baseline="middle" transform="matrix(0.020625540044933468 0 0 0.020625540044933468 4.448978 2.324699)">3</text>
<text class="face_text" text-anchor="middle" dominant-baseline="middle" transform="matrix(0.020625540044933468 0 0 0.020625540044933468 3.878076 2.238649)">2</text>
<rect class="edge_bg" x="4.231367464955852" y="-0.20625540044933469" width="0.4125108008986693" height="0.4125108008986693"/>
<text class="edge_text" text-anchor="middle" dominant-baseline="middle" transform="matrix(0.020625540044933468 0 0 0.020625540044933468 4.437622865405187 -3.535250795749691e-17)">1</text>
<rect class="edge_bg" x="4.664380032253259" y="0.04374459955066523" width="0.4125108008986693" height="0.4125108008986693"/>
<text class="edge_text" text-anchor="middle" dominant-baseline="middle" transform="matrix(0.020625540044933468 0 0 0.020625540044933468 4.870635432702594 0.2499999999999999)">4</text>
<rect class="edge_bg" x="5.097392862065786" y="0.2937445995506648" width="0.4125108008986693" height="0.4125108008986693"/>
<text class="edge_text" text-anchor="middle" dominant-baseline="middle" transform="matrix(0.020625540044933468 0 0 0.020625540044933468 5.303648262515121 0.49999999999999944)">5</text>
<rect class="edge_bg" x="6.768202603708925" y="3.7632172924650367" width="0.4125108008986693" height="0.4125108008986693"/>
<text class="edge_text" text-anchor="middle" dominant-baseline="middle" transform="matrix(0.020625540044933468 0 0 0.020625540044933468 6.97445800415826 3.9694726929143713)">22</text>
<rect class="edge_bg" x="6.302766471080879" y="3.9458883979345556" width="0.4125108008986693" height="0.4125108008986693"/>
<text class="edge_text" text-anchor="middle" dominant-baseline="middle" transform="matrix(0.020625540044933468 0 0 0.020625540044933468 6.509021871530214 4.15214379838389)">21</text>
<rect class="edge_bg" x="5.91185046692262" y="3.6341437050201844" width="0.4125108008986693" height="0.4125108008986693"/>
<text class="edge_text" text-anchor="middle" dominant-baseline="middle" transform="matrix(0.020625540044933468 0 0 0.020625540044933468 6.118105867371955 3.840399105469519)">19</text>
<rect class="edge_bg" x="5.52093447108088" y="3.3223983979345557" width="0.4125108008986693" height="0.4125108008986693"/>
<text class="edge_text" text-anchor="middle" dominant-baseline="middle" transform="matrix(0.020625540044933468 0 0 0.020625540044933468 5.727189871530214 3.5286537983838904)">17</text>
<rect class="edge_bg" x="5.130018466922619" y="3.0106537050201845" width="0.4125108008986693" height="0.4125108008986693"/>
<text class="edge_text" text-anchor="middle" dominant-baseline="middle" transform="matrix(0.020625540044933468 0 0 0.020625540044933468 5.336273867371954 3.216909105469519)">15</text>
<rect class="edge_bg" x="4.739103471080879" y="2.698908397934556" width="0.4125108008986693" height="0.4125108008986693"/>
<text class="edge_text" text-anchor="middle" dominant-baseline="middle" transform="matrix(0.020625540044933468 0 0 0.020625540044933468 4.945358871530214 2.9051637983838905)">13</text>
<rect class="edge_bg" x="4.34818746692262" y="2.387163705020184" width="0.4125108008986693" height="0.4125108008986693"/>
<text class="edge_text" text-anchor="middle" dominant-baseline="middle" transform="matrix(0.020625540044933468 0 0 0.020625540044933468 4.554442867371955 2.593419105469519)">11</text>
<rect class="edge_bg" x="3.9572714710808796" y="2.075418397934556" width="0.4125108008986693" height="0.4125108008986693"/>
<text class="edge_text" text-anchor="middle" dominant-baseline="middle" transform="matrix(0.020625540044933468 0 0 0.020625540044933468 4.163526871530214 2.2816737983838906)">9</text>
</svg>
