<?xml version="1.0" encoding="utf-8"?>
<svg version="1.1" xmlns="http://www.w3.org/2000/svg" viewBox="-5.368448561233366 -4.923424983378526 20.478168122466734 10.687649409660244" style="enable-background:new -5.368448561233366 -4.923424983378526 20.478168122466734 10.687649409660244;">
<style type="text/css">
  .face_stroke {fill:none; stroke:#000000; stroke-width:0.02; stroke-miterlimit:10;}
  .face_text {fill:#000000; font-family:monospace;}
  .edge_text {fill:#ff0000; font-family:monospace;}
  .edge_bg {fill:#f3f3f3; stroke:#606060; stroke-width:0.01;}
</style>
<polygon class="face_stroke" points="4.437622737484879,-0.49999999999999994 4.215101803528564,-1.4749279121818233 3.7812180644110063,-2.375896780084242 3.1577282625522725,-3.157728262552272 2.3758967800842417,-3.7812180644110063 1.4749279121818237,-4.215101803528564 0.5000000000000002,-4.437622737484879 -0.5000000000000017,-4.437622737484878 -1.4749279121818242,-4.2151018035285635 -2.3758967800842443,-3.781218064411005 -3.1577282625522733,-3.157728262552271 -3.7812180644110067,-2.375896780084241 -4.215101803528565,-1.4749279121818202 -4.437622737484879,-0.49999999999999656 -4.437622737484878,0.5000000000000033 -4.2151018035285635,1.4749279121818248 -3.781218064411005,2.3758967800842434 -3.1577282625522685,3.157728262552276 -2.3758967800842394,3.7812180644110076 -1.4749279121818206,4.215101803528565 -0.4999999999999968,4.437622737484879 0.49999999999999917,4.437622737484879 1.4749279121818226,4.215101803528564 2.3758967800842417,3.7812180644110063 3.157728262552269,3.157728262552276 3.7812180644110014,2.37589678008425 4.215101803528561,1.474927912181832 4.437622737484878,0.500000000000009"/>
<polygon class="face_stroke" points="4.437622865405187,0.4999999999999999 5.303648269189626,1.414100318299876e-16 4.437622865405188,-0.5000000000000003"/>
<polygon class="face_stroke" points="4.437622730810374,0.49999999999999994 5.303648134594813,1.0 5.303648134594813,-1.1102230246251565e-16"/>
<polygon class="face_stroke" points="5.303648262515121,0.9999999999999993 5.526169196471435,1.9749279121818228 5.960052935588993,2.875896780084242 6.5835427374477264,3.657728262552272 7.365374219915756,4.281218064411005 8.266343087818175,4.7151018035285635 9.241271,4.937622737484879 10.241270999999994,4.937622737484879 11.216198912181818,4.715101803528565 12.117167780084234,4.281218064411011 12.898999262552262,3.6577282625522813 13.522489064410998,2.8758967800842536 13.95637280352856,1.9749279121818357 14.178893737484877,1.0000000000000129 14.17889373748488,2.0872192862952943e-14 13.95637280352857,-0.9749279121818037 13.522489064411015,-1.8758967800842248 12.898999262552287,-2.6577282625522574 12.117167780084262,-3.281218064410992 11.216198912181847,-3.7151018035285555 10.241271000000028,-3.937622737484875 9.241271000000033,-3.9376227374848822 8.26634308781821,-3.7151018035285768 7.365374219915788,-3.2812180644110254 6.583542737447753,-2.6577282625522987 5.9600529355890135,-1.8758967800842745 5.526169196471447,-0.9749279121818588 5.303648262515125,-3.708144902248023e-14"/>
<polygon class="face_stroke" points="7.365374015215832,4.281217819611929 7.440104103829545,5.278421617165762 8.266342880954623,4.715101563222309"/>
<polygon class="face_stroke" points="7.365373896170455,4.281218382834237 6.539135119045377,4.844538436777691 7.440103984784168,5.278422180388071"/>
<polygon class="face_stroke" points="7.365373880954623,4.281218563222309 6.464405015215832,3.8473348196119295 6.539135103829545,4.844538617165762"/>
<polygon class="face_stroke" points="6.464404896170455,3.8473343828342372 5.638166119045377,4.410654436777691 6.539134984784168,4.844538180388071"/>
<polygon class="face_stroke" points="6.464404880954623,3.8473345632223084 5.563436015215832,3.4134508196119295 5.638166103829545,4.410654617165763"/>
<polygon class="face_stroke" points="5.563435896170455,3.4134503828342373 4.737197119045377,3.9767704367776915 5.638165984784168,4.410654180388071"/>
<polygon class="face_stroke" points="5.563435880954623,3.413450563222308 4.6624670152158325,2.9795668196119287 4.737197103829545,3.976770617165762"/>
<polygon class="face_stroke" points="4.6624678961704555,2.9795663828342374 3.8362291190453774,3.5428864367776916 4.737197984784168,3.9767701803880713"/>
<polygon class="face_stroke" points="4.6624678809546225,2.979566563222308 3.761499015215832,2.5456828196119288 3.8362291038295444,3.5428866171657623"/>
<polygon class="face_stroke" points="3.7614988961704547,2.5456833828342376 2.935260119045377,3.1090034367776913 3.8362289847841677,3.542887180388071"/>
<text class="face_text" text-anchor="middle" dominant-baseline="middle" transform="matrix(0.021375298819320487 0 0 0.021375298819320487 0.0 0.0)">56</text>
<text class="face_text" text-anchor="middle" dominant-baseline="middle" transform="matrix(0.021375298819320487 0 0 0.021375298819320487 4.726298 0.0)">0</text>
<text class="face_text" text-anchor="middle" dominant-baseline="middle" transform="matrix(0.021375298819320487 0 0 0.021375298819320487 5.014973 0.5)">1</text>
<text class="face_text" text-anchor="middle" dominant-baseline="middle" transform="matrix(0.021375298819320487 0 0 0.021375298819320487 9.741271 0.5)">57</text>
<text class="face_text" text-anchor="middle" dominant-baseline="middle" transform="matrix(0.021375298819320487 0 0 0.021375298819320487 7.690607 4.758247)">11</text>
<text class="face_text" text-anchor="middle" dominant-baseline="middle" transform="matrix(0.021375298819320487 0 0 0.021375298819320487 7.114871 4.801393)">10</text>
<text class="face_text" text-anchor="middle" dominant-baseline="middle" transform="matrix(0.021375298819320487 0 0 0.021375298819320487 6.789638 4.324364)">9</text>
<text class="face_text" text-anchor="middle" dominant-baseline="middle" transform="matrix(0.021375298819320487 0 0 0.021375298819320487 6.213902 4.367509)">8</text>
<text class="face_text" text-anchor="middle" dominant-baseline="middle" transform="matrix(0.021375298819320487 0 0 0.021375298819320487 5.888669 3.89048)">7</text>
<text class="face_text" text-anchor="middle" dominant-baseline="middle" transform="matrix(0.021375298819320487 0 0 0.021375298819320487 5.312933 3.933625)">6</text>
<text class="face_text" text-anchor="middle" dominant-baseline="middle" transform="matrix(0.021375298819320487 0 0 0.021375298819320487 4.9877 3.456596)">5</text>
<text class="face_text" text-anchor="middle" dominant-baseline="middle" transform="matrix(0.021375298819320487 0 0 0.021375298819320487 4.411965 3.499741)">4</text>
<text class="face_text" text-anchor="middle" dominant-baseline="middle" transform="matrix(0.021375298819320487 0 0 0.021375298819320487 4.086732 3.022712)">3</text>
<text class="face_text" text-anchor="middle" dominant-baseline="middle" transform="matrix(0.021375298819320487 0 0 0.021375298819320487 3.510996 3.065858)">2</text>
<rect class="edge_bg" x="4.223869877211982" y="-0.2137529881932049" width="0.42750597638640975" height="0.42750597638640975"/>
<text class="edge_text" text-anchor="middle" dominant-baseline="middle" transform="matrix(0.021375298819320487 0 0 0.021375298819320487 4.437622865405187 -3.535250795749691e-17)">1</text>
<rect class="edge_bg" x="4.656882444509389" y="0.036247011806795015" width="0.42750597638640975" height="0.42750597638640975"/>
<text class="edge_text" text-anchor="middle" dominant-baseline="middle" transform="matrix(0.021375298819320487 0 0 0.021375298819320487 4.870635432702594 0.2499999999999999)">4</text>
<rect class="edge_bg" x="5.089895274321916" y="0.28624701180679457" width="0.42750597638640975" height="0.42750597638640975"/>
<text class="edge_text" text-anchor="middle" dominant-baseline="middle" transform="matrix(0.021375298819320487 0 0 0.021375298819320487 5.303648262515121 0.49999999999999944)">5</text>
<rect class="edge_bg" x="7.602105459892022" y="4.2844067032239135" width="0.42750597638640975" height="0.42750597638640975"/>
<text class="edge_text" text-anchor="middle" dominant-baseline="middle" transform="matrix(0.021375298819320487 0 0 0.021375298819320487 7.815858448085227 4.4981596914171185)">26</text>
<rect class="edge_bg" x="7.188985952284106" y="4.566067293417949" width="0.42750597638640975" height="0.42750597638640975"/>
<text class="edge_text" text-anchor="middle" dominant-baseline="middle" transform="matrix(0.021375298819320487 0 0 0.021375298819320487 7.402738940477311 4.779820281611154)">25</text>
<rect class="edge_bg" x="6.738501504198879" y="4.34912560200083" width="0.42750597638640975" height="0.42750597638640975"/>
<text class="edge_text" text-anchor="middle" dominant-baseline="middle" transform="matrix(0.021375298819320487 0 0 0.021375298819320487 6.952254492392084 4.562878590194035)">23</text>
<rect class="edge_bg" x="6.2880169522841065" y="4.132183293417949" width="0.42750597638640975" height="0.42750597638640975"/>
<text class="edge_text" text-anchor="middle" dominant-baseline="middle" transform="matrix(0.021375298819320487 0 0 0.021375298819320487 6.5017699404773115 4.345936281611154)">21</text>
<rect class="edge_bg" x="5.8375325041988795" y="3.9152416020008305" width="0.42750597638640975" height="0.42750597638640975"/>
<text class="edge_text" text-anchor="middle" dominant-baseline="middle" transform="matrix(0.021375298819320487 0 0 0.021375298819320487 6.0512854923920845 4.1289945901940355)">19</text>
<rect class="edge_bg" x="5.387047952284107" y="3.6982992934179495" width="0.42750597638640975" height="0.42750597638640975"/>
<text class="edge_text" text-anchor="middle" dominant-baseline="middle" transform="matrix(0.021375298819320487 0 0 0.021375298819320487 5.600800940477312 3.9120522816111545)">17</text>
<rect class="edge_bg" x="4.93656350419888" y="3.48135760200083" width="0.42750597638640975" height="0.42750597638640975"/>
<text class="edge_text" text-anchor="middle" dominant-baseline="middle" transform="matrix(0.021375298819320487 0 0 0.021375298819320487 5.1503164923920846 3.695110590194035)">15</text>
<rect class="edge_bg" x="4.486079952284107" y="3.2644152934179496" width="0.42750597638640975" height="0.42750597638640975"/>
<text class="edge_text" text-anchor="middle" dominant-baseline="middle" transform="matrix(0.021375298819320487 0 0 0.021375298819320487 4.699832940477312 3.4781682816111545)">13</text>
<rect class="edge_bg" x="4.035595504198879" y="3.04747360200083" width="0.42750597638640975" height="0.42750597638640975"/>
<text class="edge_text" text-anchor="middle" dominant-baseline="middle" transform="matrix(0.021375298819320487 0 0 0.021375298819320487 4.249348492392084 3.261226590194035)">11</text>
<rect class="edge_bg" x="3.5851109522841065" y="2.8305322934179493" width="0.42750597638640975" height="0.42750597638640975"/>
<text class="edge_text" text-anchor="middle" dominant-baseline="middle" transform="matrix(0.021375298819320487 0 0 0.021375298819320487 3.7988639404773115 3.0442852816111543)">9</text>
</svg>
