<?xml version="1.0" encoding="utf-8"?>
<svg version="1.1" xmlns="http://www.w3.org/2000/svg" viewBox="-5.368448561233366 -5.151089796892111 20.478168122466734 10.56912741696637" style="enable-background:new -5.368448561233366 -5.151089796892111 20.478168122466734 10.56912741696637;">
<style type="text/css">
  .face_stroke {fill:none; stroke:#000000; stroke-width:0.02; stroke-miterlimit:10;}
  .face_text {fill:#000000; font-family:monospace;}
  .edge_text {fill:#ff0000; font-family:monospace;}
  .edge_bg {fill:#f3f3f3; stroke:#606060; stroke-width:0.01;}
</style>
<polygon class="face_stroke" points="4.437622737484879,-0.49999999999999994 4.215101803528564,-1.4749279121818233 3.7812180644110063,-2.375896780084242 3.1577282625522725,-3.157728262552272 2.3758967800842417,-3.7812180644110063 1.4749279121818237,-4.215101803528564 0.5000000000000002,-4.437622737484879 -0.5000000000000017,-4.437622737484878 -1.4749279121818242,-4.2151018035285635 -2.3758967800842443,-3.781218064411005 -3.1577282625522733,-3.157728262552271 -3.7812180644110067,-2.375896780084241 -4.215101803528565,-1.4749279121818202 -4.437622737484879,-0.49999999999999656 -4.437622737484878,0.5000000000000033 -4.2151018035285635,1.4749279121818248 -3.781218064411005,2.3758967800842434 -3.1577282625522685,3.157728262552276 -2.3758967800842394,3.7812180644110076 -1.4749279121818206,4.215101803528565 -0.4999999999999968,4.437622737484879 0.49999999999999917,4.437622737484879 1.4749279121818226,4.215101803528564 2.3758967800842417,3.7812180644110063 3.157728262552269,3.157728262552276 3.7812180644110014,2.37589678008425 4.215101803528561,1.474927912181832 4.437622737484878,0.500000000000009"/>
<polygon class="face_stroke" points="4.437622865405187,0.4999999999999999 5.303648269189626,1.414100318299876e-16 4.437622865405188,-0.5000000000000003"/>
<polygon class="face_stroke" points="4.437622730810374,0.49999999999999994 5.303648134594813,1.0 5.303648134594813,-1.1102230246251565e-16"/>
<polygon class="face_stroke" points="5.303648262515121,0.9999999999999993 5.526169196471435,1.9749279121818228 5.960052935588993,2.875896780084242 6.5835427374477264,3.657728262552272 7.365374219915756,4.281218064411005 8.266343087818175,4.7151018035285635 9.241271,4.937622737484879 10.241270999999994,4.937622737484879 11.216198912181818,4.715101803528565 12.117167780084234,4.281218064411011 12.898999262552262,3.6577282625522813 13.522489064410998,2.8758967800842536 13.95637280352856,1.9749279121818357 14.178893737484877,1.0000000000000129 14.17889373748488,2.0872192862952943e-14 13.95637280352857,-0.9749279121818037 13.522489064411015,-1.8758967800842248 12.898999262552287,-2.6577282625522574 12.117167780084262,-3.281218064410992 11.216198912181847,-3.7151018035285555 10.241271000000028,-3.937622737484875 9.241271000000033,-3.9376227374848822 8.26634308781821,-3.7151018035285768 7.365374219915788,-3.2812180644110254 6.583542737447753,-2.6577282625522987 5.9600529355890135,-1.8758967800842745 5.526169196471447,-0.9749279121818588 5.303648262515125,-3.708144902248023e-14"/>
<polygon class="face_stroke" points="9.241271217075223,-3.9376230220843986 8.561098477476564,-4.670674892218332 8.266343305448215,-3.7151020856972696"/>
<polygon class="face_stroke" points="8.561097694551785,-4.67067491430273 7.586169782924778,-4.448153977915601 8.266342522523436,-3.715102107781668"/>
<polygon class="face_stroke" points="7.586170477476563,-4.448153892218332 7.291415305448215,-3.4925810856972697 8.266343217075221,-3.715102022084398"/>
<polygon class="face_stroke" points="7.586170694551785,-4.448153914302731 6.611242782924779,-4.225632977915602 7.291415522523437,-3.4925811077816684"/>
<polygon class="face_stroke" points="6.611242477476564,-4.225632892218332 6.316487305448216,-3.2700600856972697 7.2914152170752216,-3.4925810220843982"/>
<polygon class="face_stroke" points="6.611242694551785,-4.2256329143027305 5.636314782924779,-4.0031119779156015 6.3164875225234365,-3.270060107781668"/>
<polygon class="face_stroke" points="5.636314477476564,-4.003111892218332 5.341559305448215,-3.0475390856972697 6.316487217075221,-3.2700600220843983"/>
<polygon class="face_stroke" points="5.636314694551785,-4.00311191430273 4.661386782924779,-3.7805909779156015 5.341559522523436,-3.0475391077816685"/>
<polygon class="face_stroke" points="4.661386477476563,-3.7805908922183313 4.366631305448215,-2.8250180856972693 5.341559217075221,-3.047539022084398"/>
<polygon class="face_stroke" points="4.661386694551784,-3.7805909143027305 3.6864587829247784,-3.5580699779156015 4.366631522523436,-2.825018107781668"/>
<polygon class="face_stroke" points="3.6864584774765636,-3.558069892218332 3.3917033054482153,-2.6024970856972693 4.366631217075222,-2.825018022084398"/>
<text class="face_text" text-anchor="middle" dominant-baseline="middle" transform="matrix(0.02113825483393274 0 0 0.02113825483393274 0.0 0.0)">56</text>
<text class="face_text" text-anchor="middle" dominant-baseline="middle" transform="matrix(0.02113825483393274 0 0 0.02113825483393274 4.726298 0.0)">0</text>
<text class="face_text" text-anchor="middle" dominant-baseline="middle" transform="matrix(0.02113825483393274 0 0 0.02113825483393274 5.014973 0.5)">1</text>
<text class="face_text" text-anchor="middle" dominant-baseline="middle" transform="matrix(0.02113825483393274 0 0 0.02113825483393274 9.741271 0.5)">57</text>
<text class="face_text" text-anchor="middle" dominant-baseline="middle" transform="matrix(0.02113825483393274 0 0 0.02113825483393274 8.689571 -4.1078)">45</text>
<text class="face_text" text-anchor="middle" dominant-baseline="middle" transform="matrix(0.02113825483393274 0 0 0.02113825483393274 8.13787 -4.277977)">46</text>
<text class="face_text" text-anchor="middle" dominant-baseline="middle" transform="matrix(0.02113825483393274 0 0 0.02113825483393274 7.714643 -3.885279)">47</text>
<text class="face_text" text-anchor="middle" dominant-baseline="middle" transform="matrix(0.02113825483393274 0 0 0.02113825483393274 7.162943 -4.055456)">48</text>
<text class="face_text" text-anchor="middle" dominant-baseline="middle" transform="matrix(0.02113825483393274 0 0 0.02113825483393274 6.739715 -3.662758)">49</text>
<text class="face_text" text-anchor="middle" dominant-baseline="middle" transform="matrix(0.02113825483393274 0 0 0.02113825483393274 6.188015 -3.832935)">50</text>
<text class="face_text" text-anchor="middle" dominant-baseline="middle" transform="matrix(0.02113825483393274 0 0 0.02113825483393274 5.764787 -3.440237)">51</text>
<text class="face_text" text-anchor="middle" dominant-baseline="middle" transform="matrix(0.02113825483393274 0 0 0.02113825483393274 5.213087 -3.610414)">52</text>
<text class="face_text" text-anchor="middle" dominant-baseline="middle" transform="matrix(0.02113825483393274 0 0 0.02113825483393274 4.789859 -3.217716)">53</text>
<text class="face_text" text-anchor="middle" dominant-baseline="middle" transform="matrix(0.02113825483393274 0 0 0.02113825483393274 4.238159 -3.387893)">54</text>
<text class="face_text" text-anchor="middle" dominant-baseline="middle" transform="matrix(0.02113825483393274 0 0 0.02113825483393274 3.814931 -2.995195)">55</text>
<rect class="edge_bg" x="4.22624031706586" y="-0.21138254833932746" width="0.42276509667865486" height="0.42276509667865486"/>
<text class="edge_text" text-anchor="middle" dominant-baseline="middle" transform="matrix(0.02113825483393274 0 0 0.02113825483393274 4.437622865405187 -3.535250795749691e-17)">1</text>
<rect class="edge_bg" x="4.659252884363267" y="0.03861745166067246" width="0.42276509667865486" height="0.42276509667865486"/>
<text class="edge_text" text-anchor="middle" dominant-baseline="middle" transform="matrix(0.02113825483393274 0 0 0.02113825483393274 4.870635432702594 0.2499999999999999)">4</text>
<rect class="edge_bg" x="5.092265714175793" y="0.288617451660672" width="0.42276509667865486" height="0.42276509667865486"/>
<text class="edge_text" text-anchor="middle" dominant-baseline="middle" transform="matrix(0.02113825483393274 0 0 0.02113825483393274 5.303648262515121 0.49999999999999944)">5</text>
<rect class="edge_bg" x="8.542424712922392" y="-4.037745102230161" width="0.42276509667865486" height="0.42276509667865486"/>
<text class="edge_text" text-anchor="middle" dominant-baseline="middle" transform="matrix(0.02113825483393274 0 0 0.02113825483393274 8.75380726126172 -3.826362553890834)">94</text>
<rect class="edge_bg" x="8.202337560198282" y="-4.404271059381527" width="0.42276509667865486" height="0.42276509667865486"/>
<text class="edge_text" text-anchor="middle" dominant-baseline="middle" transform="matrix(0.02113825483393274 0 0 0.02113825483393274 8.41372010853761 -4.1928885110422)">95</text>
<rect class="edge_bg" x="7.714874298936565" y="-4.293010505490693" width="0.42276509667865486" height="0.42276509667865486"/>
<text class="edge_text" text-anchor="middle" dominant-baseline="middle" transform="matrix(0.02113825483393274 0 0 0.02113825483393274 7.9262568472758925 -4.081627957151365)">97</text>
<rect class="edge_bg" x="7.227410560198284" y="-4.181750059381527" width="0.42276509667865486" height="0.42276509667865486"/>
<text class="edge_text" text-anchor="middle" dominant-baseline="middle" transform="matrix(0.02113825483393274 0 0 0.02113825483393274 7.438793108537611 -3.9703675110421996)">99</text>
<rect class="edge_bg" x="6.739946298936566" y="-4.070489505490693" width="0.42276509667865486" height="0.42276509667865486"/>
<text class="edge_text" text-anchor="middle" dominant-baseline="middle" transform="matrix(0.02113825483393274 0 0 0.02113825483393274 6.951328847275893 -3.8591069571513654)">101</text>
<rect class="edge_bg" x="6.252482560198284" y="-3.9592290593815265" width="0.42276509667865486" height="0.42276509667865486"/>
<text class="edge_text" text-anchor="middle" dominant-baseline="middle" transform="matrix(0.02113825483393274 0 0 0.02113825483393274 6.463865108537611 -3.7478465110421992)">103</text>
<rect class="edge_bg" x="5.765018298936566" y="-3.8479685054906927" width="0.42276509667865486" height="0.42276509667865486"/>
<text class="edge_text" text-anchor="middle" dominant-baseline="middle" transform="matrix(0.02113825483393274 0 0 0.02113825483393274 5.976400847275893 -3.6365859571513655)">105</text>
<rect class="edge_bg" x="5.277554560198284" y="-3.7367080593815265" width="0.42276509667865486" height="0.42276509667865486"/>
<text class="edge_text" text-anchor="middle" dominant-baseline="middle" transform="matrix(0.02113825483393274 0 0 0.02113825483393274 5.488937108537611 -3.5253255110421993)">107</text>
<rect class="edge_bg" x="4.7900902989365655" y="-3.6254475054906923" width="0.42276509667865486" height="0.42276509667865486"/>
<text class="edge_text" text-anchor="middle" dominant-baseline="middle" transform="matrix(0.02113825483393274 0 0 0.02113825483393274 5.001472847275893 -3.414064957151365)">109</text>
<rect class="edge_bg" x="4.302626560198283" y="-3.5141870593815265" width="0.42276509667865486" height="0.42276509667865486"/>
<text class="edge_text" text-anchor="middle" dominant-baseline="middle" transform="matrix(0.02113825483393274 0 0 0.02113825483393274 4.514009108537611 -3.3028045110421993)">111</text>
<rect class="edge_bg" x="3.815162298936565" y="-3.4029265054906923" width="0.42276509667865486" height="0.42276509667865486"/>
<text class="edge_text" text-anchor="middle" dominant-baseline="middle" transform="matrix(0.02113825483393274 0 0 0.02113825483393274 4.0265448472758925 -3.191543957151365)">3</text>
</svg>
