<?xml version="1.0" encoding="utf-8"?>
<svg version="1.1" xmlns="http://www.w3.org/2000/svg" viewBox="-5.368448561233366 -4.9063850112333665 20.478168122466734 10.312770022466733" style="enable-background:new -5.368448561233366 -4.9063850112333665 20.478168122466734 10.312770022466733;">
<style type="text/css">
  .face_stroke {fill:none; stroke:#000000; stroke-width:0.02; stroke-miterlimit:10;}
  .face_text {fill:#000000; font-family:monospace;}
  .edge_text {fill:#ff0000; font-family:monospace;}
  .edge_bg {fill:#f3f3f3; stroke:#606060; stroke-width:0.01;}
</style>
<polygon class="face_stroke" points="4.437622737484879,-0.49999999999999994 4.215101803528564,-1.4749279121818233 3.7812180644110063,-2.375896780084242 3.1577282625522725,-3.157728262552272 2.3758967800842417,-3.7812180644110063 1.4749279121818237,-4.215101803528564 0.5000000000000002,-4.437622737484879 -0.5000000000000017,-4.437622737484878 -1.4749279121818242,-4.2151018035285635 -2.3758967800842443,-3.781218064411005 -3.1577282625522733,-3.157728262552271 -3.7812180644110067,-2.375896780084241 -4.215101803528565,-1.4749279121818202 -4.437622737484879,-0.49999999999999656 -4.437622737484878,0.5000000000000033 -4.2151018035285635,1.4749279121818248 -3.781218064411005,2.3758967800842434 -3.1577282625522685,3.157728262552276 -2.3758967800842394,3.7812180644110076 -1.4749279121818206,4.215101803528565 -0.4999999999999968,4.437622737484879 0.49999999999999917,4.437622737484879 1.4749279121818226,4.215101803528564 2.3758967800842417,3.7812180644110063 3.157728262552269,3.157728262552276 3.7812180644110014,2.37589678008425 4.215101803528561,1.474927912181832 4.437622737484878,0.500000000000009"/>
<polygon class="face_stroke" points="4.437622865405187,0.4999999999999999 5.303648269189626,1.414100318299876e-16 4.437622865405188,-0.5000000000000003"/>
<polygon class="face_stroke" points="4.437622730810374,0.49999999999999994 5.303648134594813,1.0 5.303648134594813,-1.1102230246251565e-16"/>
<polygon class="face_stroke" points="5.303648262515121,0.9999999999999993 5.526169196471435,1.9749279121818228 5.960052935588993,2.875896780084242 6.5835427374477264,3.657728262552272 7.365374219915756,4.281218064411005 8.266343087818175,4.7151018035285635 9.241271,4.937622737484879 10.241270999999994,4.937622737484879 11.216198912181818,4.715101803528565 12.117167780084234,4.281218064411011 12.898999262552262,3.6577282625522813 13.522489064410998,2.8758967800842536 13.95637280352856,1.9749279121818357 14.178893737484877,1.0000000000000129 14.17889373748488,2.0872192862952943e-14 13.95637280352857,-0.9749279121818037 13.522489064411015,-1.8758967800842248 12.898999262552287,-2.6577282625522574 12.117167780084262,-3.281218064410992 11.216198912181847,-3.7151018035285555 10.241271000000028,-3.937622737484875 9.241271000000033,-3.9376227374848822 8.26634308781821,-3.7151018035285768 7.365374219915788,-3.2812180644110254 6.583542737447753,-2.6577282625522987 5.9600529355890135,-1.8758967800842745 5.526169196471447,-0.9749279121818588 5.303648262515125,-3.708144902248023e-14"/>
<polygon class="face_stroke" points="8.266342880954623,-3.715101563222308 7.440104103829545,-4.278421617165763 7.365374015215832,-3.2812178196119293"/>
<polygon class="face_stroke" points="7.440103984784168,-4.278422180388071 6.539135119045377,-3.844538436777692 7.365373896170455,-3.2812183828342376"/>
<polygon class="face_stroke" points="6.539135103829545,-3.844538617165763 6.464405015215832,-2.8473348196119295 7.365373880954623,-3.2812185632223083"/>
<polygon class="face_stroke" points="6.539134984784168,-3.8445381803880707 5.638166119045377,-3.410654436777692 6.464404896170455,-2.8473343828342377"/>
<polygon class="face_stroke" points="5.638166103829545,-3.410654617165763 5.563436015215832,-2.4134508196119295 6.464404880954623,-2.8473345632223084"/>
<polygon class="face_stroke" points="5.638165984784168,-3.4106541803880708 4.737197119045377,-2.976770436777692 5.563435896170455,-2.4134503828342377"/>
<polygon class="face_stroke" points="4.737197103829545,-2.976770617165762 4.6624670152158325,-1.979566819611929 5.563435880954623,-2.413450563222308"/>
<polygon class="face_stroke" points="4.737197984784168,-2.976770180388071 3.8362291190453774,-2.542886436777692 4.6624678961704555,-1.9795663828342378"/>
<polygon class="face_stroke" points="3.836229103829545,-2.5428866171657623 3.7614990152158314,-1.545682819611929 4.6624678809546225,-1.979566563222308"/>
<text class="face_text" text-anchor="middle" dominant-baseline="middle" transform="matrix(0.020625540044933468 0 0 0.020625540044933468 0.0 0.0)">56</text>
<text class="face_text" text-anchor="middle" dominant-baseline="middle" transform="matrix(0.020625540044933468 0 0 0.020625540044933468 4.726298 0.0)">0</text>
<text class="face_text" text-anchor="middle" dominant-baseline="middle" transform="matrix(0.020625540044933468 0 0 0.020625540044933468 5.014973 0.5)">1</text>
<text class="face_text" text-anchor="middle" dominant-baseline="middle" transform="matrix(0.020625540044933468 0 0 0.020625540044933468 9.741271 0.5)">57</text>
<text class="face_text" text-anchor="middle" dominant-baseline="middle" transform="matrix(0.020625540044933468 0 0 0.020625540044933468 7.690607 -3.758247)">47</text>
<text class="face_text" text-anchor="middle" dominant-baseline="middle" transform="matrix(0.020625540044933468 0 0 0.020625540044933468 7.114871 -3.801393)">48</text>
<text class="face_text" text-anchor="middle" dominant-baseline="middle" transform="matrix(0.020625540044933468 0 0 0.020625540044933468 6.789638 -3.324364)">49</text>
<text class="face_text" text-anchor="middle" dominant-baseline="middle" transform="matrix(0.020625540044933468 0 0 0.020625540044933468 6.213902 -3.367509)">50</text>
<text class="face_text" text-anchor="middle" dominant-baseline="middle" transform="matrix(0.020625540044933468 0 0 0.020625540044933468 5.888669 -2.89048)">51</text>
<text class="face_text" text-anchor="middle" dominant-baseline="middle" transform="matrix(0.020625540044933468 0 0 0.020625540044933468 5.312933 -2.933625)">52</text>
<text class="face_text" text-anchor="middle" dominant-baseline="middle" transform="matrix(0.020625540044933468 0 0 0.020625540044933468 4.9877 -2.456596)">53</text>
<text class="face_text" text-anchor="middle" dominant-baseline="middle" transform="matrix(0.020625540044933468 0 0 0.020625540044933468 4.411965 -2.499741)">54</text>
<text class="face_text" text-anchor="middle" dominant-baseline="middle" transform="matrix(0.020625540044933468 0 0 0.020625540044933468 4.086732 -2.022712)">55</text>
<rect class="edge_bg" x="4.231367464955852" y="-0.20625540044933469" width="0.4125108008986693" height="0.4125108008986693"/>
<text class="edge_text" text-anchor="middle" dominant-baseline="middle" transform="matrix(0.020625540044933468 0 0 0.020625540044933468 4.437622865405187 -3.535250795749691e-17)">1</text>
<rect class="edge_bg" x="4.664380032253259" y="0.04374459955066523" width="0.4125108008986693" height="0.4125108008986693"/>
<text class="edge_text" text-anchor="middle" dominant-baseline="middle" transform="matrix(0.020625540044933468 0 0 0.020625540044933468 4.870635432702594 0.2499999999999999)">4</text>
<rect class="edge_bg" x="5.097392862065786" y="0.2937445995506648" width="0.4125108008986693" height="0.4125108008986693"/>
<text class="edge_text" text-anchor="middle" dominant-baseline="middle" transform="matrix(0.020625540044933468 0 0 0.020625540044933468 5.303648262515121 0.49999999999999944)">5</text>
<rect class="edge_bg" x="7.6096030476358925" y="-3.704415091866453" width="0.4125108008986693" height="0.4125108008986693"/>
<text class="edge_text" text-anchor="middle" dominant-baseline="middle" transform="matrix(0.020625540044933468 0 0 0.020625540044933468 7.815858448085227 -3.4981596914171185)">98</text>
<rect class="edge_bg" x="7.196483540027977" y="-3.986075682060489" width="0.4125108008986693" height="0.4125108008986693"/>
<text class="edge_text" text-anchor="middle" dominant-baseline="middle" transform="matrix(0.020625540044933468 0 0 0.020625540044933468 7.402738940477311 -3.7798202816111544)">99</text>
<rect class="edge_bg" x="6.74599909194275" y="-3.76913399064337" width="0.4125108008986693" height="0.4125108008986693"/>
<text class="edge_text" text-anchor="middle" dominant-baseline="middle" transform="matrix(0.020625540044933468 0 0 0.020625540044933468 6.952254492392084 -3.5628785901940354)">101</text>
<rect class="edge_bg" x="6.295514540027977" y="-3.552191682060489" width="0.4125108008986693" height="0.4125108008986693"/>
<text class="edge_text" text-anchor="middle" dominant-baseline="middle" transform="matrix(0.020625540044933468 0 0 0.020625540044933468 6.5017699404773115 -3.3459362816111544)">103</text>
<rect class="edge_bg" x="5.84503009194275" y="-3.33524999064337" width="0.4125108008986693" height="0.4125108008986693"/>
<text class="edge_text" text-anchor="middle" dominant-baseline="middle" transform="matrix(0.020625540044933468 0 0 0.020625540044933468 6.0512854923920845 -3.1289945901940355)">105</text>
<rect class="edge_bg" x="5.394545540027977" y="-3.118307682060489" width="0.4125108008986693" height="0.4125108008986693"/>
<text class="edge_text" text-anchor="middle" dominant-baseline="middle" transform="matrix(0.020625540044933468 0 0 0.020625540044933468 5.600800940477312 -2.9120522816111545)">107</text>
<rect class="edge_bg" x="4.94406109194275" y="-2.9013659906433698" width="0.4125108008986693" height="0.4125108008986693"/>
<text class="edge_text" text-anchor="middle" dominant-baseline="middle" transform="matrix(0.020625540044933468 0 0 0.020625540044933468 5.1503164923920846 -2.695110590194035)">109</text>
<rect class="edge_bg" x="4.493577540027977" y="-2.684423682060489" width="0.4125108008986693" height="0.4125108008986693"/>
<text class="edge_text" text-anchor="middle" dominant-baseline="middle" transform="matrix(0.020625540044933468 0 0 0.020625540044933468 4.699832940477312 -2.4781682816111545)">111</text>
<rect class="edge_bg" x="4.043093091942749" y="-2.46748199064337" width="0.4125108008986693" height="0.4125108008986693"/>
<text class="edge_text" text-anchor="middle" dominant-baseline="middle" transform="matrix(0.020625540044933468 0 0 0.020625540044933468 4.249348492392084 -2.261226590194035)">3</text>
</svg>
