<?xml version="1.0" encoding="utf-8"?>
<svg version="1.1" id="layer_1" xmlns="http://www.w3.org/2000/svg" xmlns:xlink="http://www.w3.org/1999/xlink" x="0px" y="0px" viewBox="-0.916025403784439 -1.2571067811865484 4.246262184970987 3.221323562373096" style="enable-background:new -0.916025403784439 -1.2571067811865484 4.246262184970987 3.221323562373096;" xml:space="preserve">
<style type="text/css">
  .no_fill_black_stroke {fill:none; stroke:#000000; stroke-width:0.02; stroke-miterlimit:10;}
  .face_text {fill:#000000; font-family:monospace;}
  .edge_text {fill:#ff0000; font-family:monospace;}
  .edge_bg {fill:#f3f3f3; stroke:#606060; stroke-width:0.02;}
</style>
<polygon class="no_fill_black_stroke" points="0.8660254037844389, -0.5 6.123233995736767e-17, -1.0000000000000002 -0.8660254037844389, -0.5 -0.8660254037844388, 0.5000000000000002 -1.8369701987210302e-16, 1.0000000000000002 0.8660254037844386, 0.5000000000000006"/>
<polygon class="no_fill_black_stroke" points="0.866023218813452, 0.49999999999999933 1.5731300000000004, 1.2071067811865477 2.5731300000000004, 1.2071067811865475 3.280236781186548, 0.4999999999999997 3.280236781186548, -0.49999999999999917 2.57313, -1.2071067811865477 1.573130000000002, -1.2071067811865483 0.8660232188134529, -0.500000000000001"/>
<polygon class="no_fill_black_stroke" points="0.866025, 0.5000032188134523 0.15891821881345247, 1.20711 0.8660249999999999, 1.9142167811865476 1.5731317811865475, 1.2071100000000001"/>
<text class="face_text" text-anchor="middle" dominant-baseline="middle" transform="matrix(0.006442647124746192 0 0 0.006442647124746192 0.0 0.0)">0</text>
<text class="face_text" text-anchor="middle" dominant-baseline="middle" transform="matrix(0.006442647124746192 0 0 0.006442647124746192 2.07313 0.0)">2</text>
<text class="face_text" text-anchor="middle" dominant-baseline="middle" transform="matrix(0.006442647124746192 0 0 0.006442647124746192 0.866025 1.20711)">1</text>
<rect class="edge_bg" x="0.8015967475659905" y="-0.06442647124746208" width="0.12885294249492385" height="0.12885294249492385"/>
<text class="edge_text" text-anchor="middle" dominant-baseline="middle" transform="matrix(0.006442647124746192 0 0 0.006442647124746192 0.8660232188134525 -1.4782794558091698e-16)">0</text>
<rect class="edge_bg" x="1.155151919345812" y="0.7891301381592642" width="0.12885294249492385" height="0.12885294249492385"/>
<text class="edge_text" text-anchor="middle" dominant-baseline="middle" transform="matrix(0.006442647124746192 0 0 0.006442647124746192 1.219578390593274 0.8535566094067262)">1</text>
</svg>
