<?xml version="1.0" encoding="utf-8"?>
<svg version="1.1" id="layer_1" xmlns="http://www.w3.org/2000/svg" xmlns:xlink="http://www.w3.org/1999/xlink" x="0px" y="0px" viewBox="-1.0676381375880142 -1.2571067811865484 4.397874918774562 5.712191918774562" style="enable-background:new -1.0676381375880142 -1.2571067811865484 4.397874918774562 5.712191918774562;" xml:space="preserve">
<style type="text/css">
  .no_fill_black_stroke {fill:none; stroke:#000000; stroke-width:0.02; stroke-miterlimit:10;}
  .face_text {fill:#000000; font-family:monospace;}
  .edge_text {fill:#ff0000; font-family:monospace;}
  .edge_bg {fill:#f3f3f3; stroke:#606060; stroke-width:0.02;}
</style>
<polygon class="no_fill_black_stroke" points="0.8660254037844389, -0.5 6.123233995736767e-17, -1.0000000000000002 -0.8660254037844389, -0.5 -0.8660254037844388, 0.5000000000000002 -1.8369701987210302e-16, 1.0000000000000002 0.8660254037844386, 0.5000000000000006"/>
<polygon class="no_fill_black_stroke" points="0.866023218813452, 0.49999999999999933 1.5731300000000004, 1.2071067811865477 2.5731300000000004, 1.2071067811865475 3.280236781186548, 0.4999999999999997 3.280236781186548, -0.49999999999999917 2.57313, -1.2071067811865477 1.573130000000002, -1.2071067811865483 0.8660232188134529, -0.500000000000001"/>
<polygon class="no_fill_black_stroke" points="1.57313, 1.207104596215561 1.0731299999999997, 2.07313 1.5731299999999995, 2.9391554037844383 2.57313, 2.9391554037844387 3.07313, 2.0731300000000004 2.57313, 1.2071045962155609"/>
<polygon class="no_fill_black_stroke" points="1.0731321375880138, 2.073133907514507 0.10720631129894587, 1.814314862411986 -0.7588190924854934, 2.3143148624119867 -1.0176381375880141, 3.2802406887010545 -0.5176381375880141, 4.146266092485493 0.4482876887010552, 4.405085137588014 1.3143130924854929, 3.9050851375880145 1.573132137588014, 2.9391593112989463"/>
<polygon class="no_fill_black_stroke" points="1.073132390593274, 2.0731324356957948 1.3319514356957947, 1.1072066094067263 0.3660256094067263, 0.8483875643042055 0.10720656430420539, 1.814313390593274"/>
<text class="face_text" text-anchor="middle" dominant-baseline="middle" transform="matrix(0.008795749837549124 0 0 0.008795749837549124 0.0 0.0)">0</text>
<text class="face_text" text-anchor="middle" dominant-baseline="middle" transform="matrix(0.008795749837549124 0 0 0.008795749837549124 2.07313 0.0)">2</text>
<text class="face_text" text-anchor="middle" dominant-baseline="middle" transform="matrix(0.008795749837549124 0 0 0.008795749837549124 2.07313 2.07313)">8</text>
<text class="face_text" text-anchor="middle" dominant-baseline="middle" transform="matrix(0.008795749837549124 0 0 0.008795749837549124 0.277747 3.1097)">9</text>
<text class="face_text" text-anchor="middle" dominant-baseline="middle" transform="matrix(0.008795749837549124 0 0 0.008795749837549124 0.719579 1.46076)">1</text>
<rect class="edge_bg" x="0.7780657204379612" y="-0.0879574983754914" width="0.1759149967509825" height="0.1759149967509825"/>
<text class="edge_text" text-anchor="middle" dominant-baseline="middle" transform="matrix(0.008795749837549124 0 0 0.008795749837549124 0.8660232188134525 -1.4782794558091698e-16)">0</text>
<rect class="edge_bg" x="1.9851725016245088" y="1.11914709784007" width="0.1759149967509825" height="0.1759149967509825"/>
<text class="edge_text" text-anchor="middle" dominant-baseline="middle" transform="matrix(0.008795749837549124 0 0 0.008795749837549124 2.07313 1.207104596215561)">13</text>
<rect class="edge_bg" x="1.2351746392125227" y="2.4181891110312352" width="0.1759149967509825" height="0.1759149967509825"/>
<text class="edge_text" text-anchor="middle" dominant-baseline="middle" transform="matrix(0.008795749837549124 0 0 0.008795749837549124 1.3231321375880138 2.5061466094067266)">27</text>
<rect class="edge_bg" x="0.5022119790732482" y="1.8557654147690432" width="0.1759149967509825" height="0.1759149967509825"/>
<text class="edge_text" text-anchor="middle" dominant-baseline="middle" transform="matrix(0.008795749837549124 0 0 0.008795749837549124 0.5901694774487395 1.9437229131445344)">16</text>
</svg>
