<?xml version="1.0" encoding="utf-8"?>
<svg version="1.1" id="layer_1" xmlns="http://www.w3.org/2000/svg" xmlns:xlink="http://www.w3.org/1999/xlink" x="0px" y="0px" viewBox="-2.51593 -1.0500000000000003 4.797985403784439 4.190775137588014" style="enable-background:new -2.51593 -1.0500000000000003 4.797985403784439 4.190775137588014;" xml:space="preserve">
<style type="text/css">
  .no_fill_black_stroke {fill:none; stroke:#000000; stroke-width:0.02; stroke-miterlimit:10;}
  .face_text {fill:#000000; font-family:monospace;}
  .edge_text {fill:#ff0000; font-family:monospace;}
  .edge_bg {fill:#f3f3f3; stroke:#606060; stroke-width:0.02;}
</style>
<polygon class="no_fill_black_stroke" points="0.5000000000000001, -0.5 -0.5, -0.5000000000000001 -0.5000000000000001, 0.5 0.4999999999999999, 0.5000000000000001"/>
<polygon class="no_fill_black_stroke" points="0.5000045962155613, 0.5000000000000002 1.3660299999999999, 1.0000000000000002 2.2320554037844387, 0.5000000000000006 2.2320554037844396, -0.4999999999999994 1.3660300000000003, -1.0000000000000002 0.500004596215561, -0.4999999999999999"/>
<polygon class="no_fill_black_stroke" points="0.4999996887010546, 0.5000048624119862 -0.4659261375880139, 0.7588239075145069 -0.9659261375880139, 1.6248493112989455 -0.7071070924854932, 2.5907751375880137 0.1589183112989455, 3.0907751375880137 1.1248441375880138, 2.831956092485493 1.6248441375880138, 1.9659306887010546 1.366025092485494, 1.0000048624119873"/>
<polygon class="no_fill_black_stroke" points="-0.46592999999999973, 0.758819 -0.9659299999999997, -0.1072064037844388 -1.96593, -0.10720640378443891 -2.46593, 0.7588189999999999 -1.9659300000000006, 1.6248444037844387 -0.9659299999999997, 1.6248444037844387"/>
<text class="face_text" text-anchor="middle" dominant-baseline="middle" transform="matrix(0.00838155027517603 0 0 0.00838155027517603 0.0 0.0)">1</text>
<text class="face_text" text-anchor="middle" dominant-baseline="middle" transform="matrix(0.00838155027517603 0 0 0.00838155027517603 1.36603 0.0)">0</text>
<text class="face_text" text-anchor="middle" dominant-baseline="middle" transform="matrix(0.00838155027517603 0 0 0.00838155027517603 0.329459 1.79539)">2</text>
<text class="face_text" text-anchor="middle" dominant-baseline="middle" transform="matrix(0.00838155027517603 0 0 0.00838155027517603 -1.46593 0.758819)">8</text>
<rect class="edge_bg" x="0.41618909346380095" y="-0.0838155027517604" width="0.16763100550352059" height="0.16763100550352059"/>
<text class="edge_text" text-anchor="middle" dominant-baseline="middle" transform="matrix(0.00838155027517603 0 0 0.00838155027517603 0.5000045962155613 -1.0605752387249072e-16)">2</text>
<rect class="edge_bg" x="0.8491968878415136" y="0.6661893596602261" width="0.16763100550352059" height="0.16763100550352059"/>
<text class="edge_text" text-anchor="middle" dominant-baseline="middle" transform="matrix(0.00838155027517603 0 0 0.00838155027517603 0.9330123905932739 0.7500048624119864)">0</text>
<rect class="edge_bg" x="-0.79974550275176" y="1.1080161991404591" width="0.16763100550352059" height="0.16763100550352059"/>
<text class="edge_text" text-anchor="middle" dominant-baseline="middle" transform="matrix(0.00838155027517603 0 0 0.00838155027517603 -0.7159299999999997 1.1918317018922193)">13</text>
</svg>
