<?xml version="1.0" encoding="utf-8"?>
<svg version="1.1" id="layer_1" xmlns="http://www.w3.org/2000/svg" xmlns:xlink="http://www.w3.org/1999/xlink" x="0px" y="0px" viewBox="-0.7747448262890687 -1.2571067811865484 3.7389616074756167 3.7389626074756164" style="enable-background:new -0.7747448262890687 -1.2571067811865484 3.7389616074756167 3.7389626074756164;" xml:space="preserve">
<style type="text/css">
  .no_fill_black_stroke {fill:none; stroke:#000000; stroke-width:0.02; stroke-miterlimit:10;}
  .face_text {fill:#000000; font-family:monospace;}
  .edge_text {fill:#ff0000; font-family:monospace;}
  .edge_bg {fill:#f3f3f3; stroke:#606060; stroke-width:0.02;}
</style>
<polygon class="no_fill_black_stroke" points="0.5000000000000001, -0.5 -0.5, -0.5000000000000001 -0.5000000000000001, 0.5 0.4999999999999999, 0.5000000000000001"/>
<polygon class="no_fill_black_stroke" points="0.500003218813452, 0.49999999999999933 1.2071100000000001, 1.2071067811865477 2.20711, 1.2071067811865475 2.9142167811865476, 0.4999999999999997 2.914216781186548, -0.49999999999999917 2.2071099999999997, -1.2071067811865477 1.207110000000002, -1.2071067811865483 0.5000032188134529, -0.500000000000001"/>
<polygon class="no_fill_black_stroke" points="0.5000000451025208, 0.5000041737109314 -0.4659257811865476, 0.7588232188134523 -0.7247448262890687, 1.7247490451025205 -0.017638045102520677, 2.4318558262890684 0.9482877811865474, 2.1730367811865476 1.2071068262890687, 1.2071109548974797"/>
<text class="face_text" text-anchor="middle" dominant-baseline="middle" transform="matrix(0.007477923214951234 0 0 0.007477923214951234 0.0 0.0)">1</text>
<text class="face_text" text-anchor="middle" dominant-baseline="middle" transform="matrix(0.007477923214951234 0 0 0.007477923214951234 1.70711 0.0)">2</text>
<text class="face_text" text-anchor="middle" dominant-baseline="middle" transform="matrix(0.007477923214951234 0 0 0.007477923214951234 0.241181 1.46593)">8</text>
<rect class="edge_bg" x="0.4252239866639401" y="-0.07477923214951249" width="0.14955846429902467" height="0.14955846429902467"/>
<text class="edge_text" text-anchor="middle" dominant-baseline="middle" transform="matrix(0.007477923214951234 0 0 0.007477923214951234 0.5000032188134524 -1.4782794558091698e-16)">1</text>
<rect class="edge_bg" x="0.7787742035462824" y="0.778778332154693" width="0.14955846429902467" height="0.14955846429902467"/>
<text class="edge_text" text-anchor="middle" dominant-baseline="middle" transform="matrix(0.007477923214951234 0 0 0.007477923214951234 0.8535534356957947 0.8535575643042054)">13</text>
</svg>
