<?xml version="1.0" encoding="utf-8"?>
<svg version="1.1" id="layer_1" xmlns="http://www.w3.org/2000/svg" xmlns:xlink="http://www.w3.org/1999/xlink" x="0px" y="0px" viewBox="-3.106695137588014 -2.0890558262890684 6.070911918774562 4.570911652578136" style="enable-background:new -3.106695137588014 -2.0890558262890684 6.070911918774562 4.570911652578136;" xml:space="preserve">
<style type="text/css">
  .no_fill_black_stroke {fill:none; stroke:#000000; stroke-width:0.02; stroke-miterlimit:10;}
  .face_text {fill:#000000; font-family:monospace;}
  .edge_text {fill:#ff0000; font-family:monospace;}
  .edge_bg {fill:#f3f3f3; stroke:#606060; stroke-width:0.02;}
</style>
<polygon class="no_fill_black_stroke" points="0.5000000000000001, -0.5 -0.5, -0.5000000000000001 -0.5000000000000001, 0.5 0.4999999999999999, 0.5000000000000001"/>
<polygon class="no_fill_black_stroke" points="0.500003218813452, 0.49999999999999933 1.2071100000000001, 1.2071067811865477 2.20711, 1.2071067811865475 2.9142167811865476, 0.4999999999999997 2.914216781186548, -0.49999999999999917 2.2071099999999997, -1.2071067811865477 1.207110000000002, -1.2071067811865483 0.5000032188134529, -0.500000000000001"/>
<polygon class="no_fill_black_stroke" points="0.5000000451025208, 0.5000041737109314 -0.4659257811865476, 0.7588232188134523 -0.7247448262890687, 1.7247490451025205 -0.017638045102520677, 2.4318558262890684 0.9482877811865474, 2.1730367811865476 1.2071068262890687, 1.2071109548974797"/>
<polygon class="no_fill_black_stroke" points="-0.46592486241198605, 0.7588193112989455 -0.965924862411986, -0.10720609248549318 -1.931850688701054, -0.36602513758801414 -2.7978760924854935, 0.1339748624119863 -3.0566951375880143, 1.099900688701054 -2.5566951375880143, 1.9659260924854929 -1.5907693112989447, 2.224745137588014 -0.724743907514507, 1.7247451375880143"/>
<polygon class="no_fill_black_stroke" points="-0.9659209548974792, -0.10720417371093138 -0.2588141737109314, -0.8143109548974792 -0.5176332188134523, -1.7802367811865474 -1.483559045102521, -2.0390558262890686 -2.1906658262890684, -1.331949045102521 -1.9318467811865476, -0.36602321881345234"/>
<text class="face_text" text-anchor="middle" dominant-baseline="middle" transform="matrix(0.009141823305156272 0 0 0.009141823305156272 0.0 0.0)">1</text>
<text class="face_text" text-anchor="middle" dominant-baseline="middle" transform="matrix(0.009141823305156272 0 0 0.009141823305156272 1.70711 0.0)">2</text>
<text class="face_text" text-anchor="middle" dominant-baseline="middle" transform="matrix(0.009141823305156272 0 0 0.009141823305156272 0.241181 1.46593)">8</text>
<text class="face_text" text-anchor="middle" dominant-baseline="middle" transform="matrix(0.009141823305156272 0 0 0.009141823305156272 -1.76131 0.92936)">9</text>
<text class="face_text" text-anchor="middle" dominant-baseline="middle" transform="matrix(0.009141823305156272 0 0 0.009141823305156272 -1.22474 -1.07313)">0</text>
<rect class="edge_bg" x="0.40858498576188973" y="-0.09141823305156288" width="0.18283646610312546" height="0.18283646610312546"/>
<text class="edge_text" text-anchor="middle" dominant-baseline="middle" transform="matrix(0.009141823305156272 0 0 0.009141823305156272 0.5000032188134524 -1.4782794558091698e-16)">1</text>
<rect class="edge_bg" x="0.762135202644232" y="0.7621393312526427" width="0.18283646610312546" height="0.18283646610312546"/>
<text class="edge_text" text-anchor="middle" dominant-baseline="middle" transform="matrix(0.009141823305156272 0 0 0.009141823305156272 0.8535534356957947 0.8535575643042054)">13</text>
<rect class="edge_bg" x="-0.6867526180148091" y="1.1503639913919168" width="0.18283646610312546" height="0.18283646610312546"/>
<text class="edge_text" text-anchor="middle" dominant-baseline="middle" transform="matrix(0.009141823305156272 0 0 0.009141823305156272 -0.5953343849632464 1.2417822244434795)">27</text>
<rect class="edge_bg" x="-1.5403021010935762" y="-0.3280319293137546" width="0.18283646610312546" height="0.18283646610312546"/>
<text class="edge_text" text-anchor="middle" dominant-baseline="middle" transform="matrix(0.009141823305156272 0 0 0.009141823305156272 -1.4488838680420135 -0.23661369626219186)">17</text>
</svg>
