<?xml version="1.0" encoding="utf-8"?>
<svg version="1.1" id="layer_1" xmlns="http://www.w3.org/2000/svg" xmlns:xlink="http://www.w3.org/1999/xlink" x="0px" y="0px" viewBox="-1.257106781186548 -1.2571067811865475 4.246262184970987 3.1731294830787666" style="enable-background:new -1.257106781186548 -1.2571067811865475 4.246262184970987 3.1731294830787666;" xml:space="preserve">
<style type="text/css">
  .no_fill_black_stroke {fill:none; stroke:#000000; stroke-width:0.02; stroke-miterlimit:10;}
  .face_text {fill:#000000; font-family:monospace;}
  .edge_text {fill:#ff0000; font-family:monospace;}
  .edge_bg {fill:#f3f3f3; stroke:#606060; stroke-width:0.02;}
</style>
<polygon class="no_fill_black_stroke" points="1.2071067811865475, -0.5 0.5000000000000001, -1.2071067811865475 -0.49999999999999994, -1.2071067811865475 -1.2071067811865475, -0.5000000000000002 -1.207106781186548, 0.49999999999999933 -0.49999999999999967, 1.2071067811865477 0.5000000000000003, 1.2071067811865475 1.2071067811865477, 0.4999999999999997"/>
<polygon class="no_fill_black_stroke" points="1.207104596215561, 0.5000000000000002 2.07313, 1.0000000000000002 2.9391554037844383, 0.5000000000000006 2.939155403784439, -0.4999999999999994 2.0731300000000004, -1.0000000000000002 1.2071045962155609, -0.4999999999999999"/>
<polygon class="no_fill_black_stroke" points="1.2071072981077806, 0.4999972981077805 0.7071072981077805, 1.3660227018922189 1.5731327018922197, 1.866022701892219 2.0731327018922197, 0.9999972981077809"/>
<text class="face_text" text-anchor="middle" dominant-baseline="middle" transform="matrix(0.006346258966157534 0 0 0.006346258966157534 0.0 0.0)">2</text>
<text class="face_text" text-anchor="middle" dominant-baseline="middle" transform="matrix(0.006346258966157534 0 0 0.006346258966157534 2.07313 0.0)">0</text>
<text class="face_text" text-anchor="middle" dominant-baseline="middle" transform="matrix(0.006346258966157534 0 0 0.006346258966157534 1.39012 1.18301)">3</text>
<rect class="edge_bg" x="1.1436420065539858" y="-0.06346258966157545" width="0.12692517932315067" height="0.12692517932315067"/>
<text class="edge_text" text-anchor="middle" dominant-baseline="middle" transform="matrix(0.006346258966157534 0 0 0.006346258966157534 1.207104596215561 -1.0605752387249072e-16)">0</text>
<rect class="edge_bg" x="1.5766574103384248" y="0.6865347084462051" width="0.12692517932315067" height="0.12692517932315067"/>
<text class="edge_text" text-anchor="middle" dominant-baseline="middle" transform="matrix(0.006346258966157534 0 0 0.006346258966157534 1.64012 0.7499972981077805)">4</text>
</svg>
