<?xml version="1.0" encoding="utf-8"?>
<svg version="1.1" id="layer_1" xmlns="http://www.w3.org/2000/svg" xmlns:xlink="http://www.w3.org/1999/xlink" x="0px" y="0px" viewBox="-1.257106781186548 -1.2571067811865475 5.712191918774562 4.397881918774561" style="enable-background:new -1.257106781186548 -1.2571067811865475 5.712191918774562 4.397881918774561;" xml:space="preserve">
<style type="text/css">
  .no_fill_black_stroke {fill:none; stroke:#000000; stroke-width:0.02; stroke-miterlimit:10;}
  .face_text {fill:#000000; font-family:monospace;}
  .edge_text {fill:#ff0000; font-family:monospace;}
  .edge_bg {fill:#f3f3f3; stroke:#606060; stroke-width:0.02;}
</style>
<polygon class="no_fill_black_stroke" points="1.2071067811865475, -0.5 0.5000000000000001, -1.2071067811865475 -0.49999999999999994, -1.2071067811865475 -1.2071067811865475, -0.5000000000000002 -1.207106781186548, 0.49999999999999933 -0.49999999999999967, 1.2071067811865477 0.5000000000000003, 1.2071067811865475 1.2071067811865477, 0.4999999999999997"/>
<polygon class="no_fill_black_stroke" points="1.207104596215561, 0.5000000000000002 2.07313, 1.0000000000000002 2.9391554037844383, 0.5000000000000006 2.939155403784439, -0.4999999999999994 2.0731300000000004, -1.0000000000000002 1.2071045962155609, -0.4999999999999999"/>
<polygon class="no_fill_black_stroke" points="2.0731339075145065, 1.0000048624119864 1.814314862411986, 1.9659306887010541 2.314314862411986, 2.831956092485493 3.2802406887010553, 3.0907751375880137 4.146266092485493, 2.590775137588014 4.4050851375880145, 1.6248493112989462 3.9050851375880136, 0.7588239075145065 2.9391593112989463, 0.5000048624119859"/>
<polygon class="no_fill_black_stroke" points="2.0731324356957948, 0.9999966094067263 1.1072066094067263, 0.7411775643042054 0.8483875643042055, 1.7071033905932738 1.814313390593274, 1.9659224356957945"/>
<text class="face_text" text-anchor="middle" dominant-baseline="middle" transform="matrix(0.008795763837549122 0 0 0.008795763837549122 0.0 0.0)">2</text>
<text class="face_text" text-anchor="middle" dominant-baseline="middle" transform="matrix(0.008795763837549122 0 0 0.008795763837549122 2.07313 0.0)">0</text>
<text class="face_text" text-anchor="middle" dominant-baseline="middle" transform="matrix(0.008795763837549122 0 0 0.008795763837549122 3.1097 1.79539)">10</text>
<text class="face_text" text-anchor="middle" dominant-baseline="middle" transform="matrix(0.008795763837549122 0 0 0.008795763837549122 1.46076 1.35355)">3</text>
<rect class="edge_bg" x="1.11914695784007" y="-0.08795763837549134" width="0.17591527675098245" height="0.17591527675098245"/>
<text class="edge_text" text-anchor="middle" dominant-baseline="middle" transform="matrix(0.008795763837549122 0 0 0.008795763837549122 1.207104596215561 -1.0605752387249072e-16)">0</text>
<rect class="edge_bg" x="2.418188971031235" y="0.662047224036495" width="0.17591527675098245" height="0.17591527675098245"/>
<text class="edge_text" text-anchor="middle" dominant-baseline="middle" transform="matrix(0.008795763837549122 0 0 0.008795763837549122 2.5061466094067266 0.7500048624119862)">19</text>
<rect class="edge_bg" x="1.8557652747690432" y="1.3950018841757692" width="0.17591527675098245" height="0.17591527675098245"/>
<text class="edge_text" text-anchor="middle" dominant-baseline="middle" transform="matrix(0.008795763837549122 0 0 0.008795763837549122 1.9437229131445344 1.4829595225512604)">18</text>
</svg>
