<?xml version="1.0" encoding="utf-8"?>
<svg version="1.1" id="layer_1" xmlns="http://www.w3.org/2000/svg" xmlns:xlink="http://www.w3.org/1999/xlink" x="0px" y="0px" viewBox="-1.257106781186548 -1.2571067811865475 5.712191918774562 5.005082184970986" style="enable-background:new -1.257106781186548 -1.2571067811865475 5.712191918774562 5.005082184970986;" xml:space="preserve">
<style type="text/css">
  .no_fill_black_stroke {fill:none; stroke:#000000; stroke-width:0.02; stroke-miterlimit:10;}
  .face_text {fill:#000000; font-family:monospace;}
  .edge_text {fill:#ff0000; font-family:monospace;}
  .edge_bg {fill:#f3f3f3; stroke:#606060; stroke-width:0.02;}
</style>
<polygon class="no_fill_black_stroke" points="1.2071067811865475, -0.5 0.5000000000000001, -1.2071067811865475 -0.49999999999999994, -1.2071067811865475 -1.2071067811865475, -0.5000000000000002 -1.207106781186548, 0.49999999999999933 -0.49999999999999967, 1.2071067811865477 0.5000000000000003, 1.2071067811865475 1.2071067811865477, 0.4999999999999997"/>
<polygon class="no_fill_black_stroke" points="1.207104596215561, 0.5000000000000002 2.07313, 1.0000000000000002 2.9391554037844383, 0.5000000000000006 2.939155403784439, -0.4999999999999994 2.0731300000000004, -1.0000000000000002 1.2071045962155609, -0.4999999999999999"/>
<polygon class="no_fill_black_stroke" points="2.0731339075145065, 1.0000048624119864 1.814314862411986, 1.9659306887010541 2.314314862411986, 2.831956092485493 3.2802406887010553, 3.0907751375880137 4.146266092485493, 2.590775137588014 4.4050851375880145, 1.6248493112989462 3.9050851375880136, 0.7588239075145065 2.9391593112989463, 0.5000048624119859"/>
<polygon class="no_fill_black_stroke" points="1.8143100000000003, 1.9659245962155611 0.8143100000000001, 1.9659245962155611 0.31430999999999987, 2.83195 0.8143099999999995, 3.6979754037844383 1.8143100000000003, 3.697975403784439 2.3143100000000003, 2.8319500000000004"/>
<polygon class="no_fill_black_stroke" points="1.8143100000000003, 1.96593 1.8143100000000003, 0.96593 0.8143100000000001, 0.9659299999999998 0.81431, 1.96593"/>
<text class="face_text" text-anchor="middle" dominant-baseline="middle" transform="matrix(0.010010164369941971 0 0 0.010010164369941971 0.0 0.0)">2</text>
<text class="face_text" text-anchor="middle" dominant-baseline="middle" transform="matrix(0.010010164369941971 0 0 0.010010164369941971 2.07313 0.0)">0</text>
<text class="face_text" text-anchor="middle" dominant-baseline="middle" transform="matrix(0.010010164369941971 0 0 0.010010164369941971 3.1097 1.79539)">10</text>
<text class="face_text" text-anchor="middle" dominant-baseline="middle" transform="matrix(0.010010164369941971 0 0 0.010010164369941971 1.31431 2.83195)">4</text>
<text class="face_text" text-anchor="middle" dominant-baseline="middle" transform="matrix(0.010010164369941971 0 0 0.010010164369941971 1.31431 1.46593)">3</text>
<rect class="edge_bg" x="1.1070029525161413" y="-0.10010164369941983" width="0.20020328739883944" height="0.20020328739883944"/>
<text class="edge_text" text-anchor="middle" dominant-baseline="middle" transform="matrix(0.010010164369941971 0 0 0.010010164369941971 1.207104596215561 -1.0605752387249072e-16)">0</text>
<rect class="edge_bg" x="2.406044965707307" y="0.6499032187125664" width="0.20020328739883944" height="0.20020328739883944"/>
<text class="edge_text" text-anchor="middle" dominant-baseline="middle" transform="matrix(0.010010164369941971 0 0 0.010010164369941971 2.5061466094067266 0.7500048624119862)">19</text>
<rect class="edge_bg" x="1.9642083563005805" y="2.2988356544083612" width="0.20020328739883944" height="0.20020328739883944"/>
<text class="edge_text" text-anchor="middle" dominant-baseline="middle" transform="matrix(0.010010164369941971 0 0 0.010010164369941971 2.0643100000000003 2.398937298107781)">20</text>
<rect class="edge_bg" x="1.2142083563005803" y="1.8658283563005804" width="0.20020328739883944" height="0.20020328739883944"/>
<text class="edge_text" text-anchor="middle" dominant-baseline="middle" transform="matrix(0.010010164369941971 0 0 0.010010164369941971 1.31431 1.9659300000000002)">6</text>
</svg>
