<?xml version="1.0" encoding="utf-8"?>
<svg version="1.1" id="layer_1" xmlns="http://www.w3.org/2000/svg" xmlns:xlink="http://www.w3.org/1999/xlink" x="0px" y="0px" viewBox="-1.9598854037844389 -1.0500000000000003 4.430130807568878 3.6" style="enable-background:new -1.9598854037844389 -1.0500000000000003 4.430130807568878 3.6;" xml:space="preserve">
<style type="text/css">
  .no_fill_black_stroke {fill:none; stroke:#000000; stroke-width:0.02; stroke-miterlimit:10;}
  .face_text {fill:#000000; font-family:monospace;}
  .edge_text {fill:#ff0000; font-family:monospace;}
  .edge_bg {fill:#f3f3f3; stroke:#606060; stroke-width:0.02;}
</style>
<polygon class="no_fill_black_stroke" points="0.6881909602355868, -0.5 -0.26286555605956674, -0.8090169943749475 -0.8506508083520399, -1.0417467896404342e-16 -0.2628655560595669, 0.8090169943749473 0.6881909602355867, 0.5000000000000001"/>
<polygon class="no_fill_black_stroke" points="0.6881945962155611, 0.5000000000000002 1.5542199999999997, 1.0000000000000002 2.4202454037844383, 0.5000000000000006 2.420245403784439, -0.4999999999999994 1.5542200000000002, -1.0000000000000002 0.6881945962155609, -0.4999999999999999"/>
<polygon class="no_fill_black_stroke" points="0.6881910000000001, 0.4999999999999998 -0.17783440378443893, 1.0 -0.17783440378443882, 2.0 0.6881909999999998, 2.5 1.5542164037844386, 2.0000000000000004 1.5542164037844393, 1.0000000000000007"/>
<polygon class="no_fill_black_stroke" points="-0.17783459621556108, 1.0 -1.04386, 0.4999999999999998 -1.9098854037844388, 1.0 -1.9098854037844388, 2.0 -1.0438600000000002, 2.5 -0.1778345962155614, 2.0000000000000004"/>
<text class="face_text" text-anchor="middle" dominant-baseline="middle" transform="matrix(0.007200000000000001 0 0 0.007200000000000001 0.0 0.0)">0</text>
<text class="face_text" text-anchor="middle" dominant-baseline="middle" transform="matrix(0.007200000000000001 0 0 0.007200000000000001 1.55422 0.0)">1</text>
<text class="face_text" text-anchor="middle" dominant-baseline="middle" transform="matrix(0.007200000000000001 0 0 0.007200000000000001 0.688191 1.5)">7</text>
<text class="face_text" text-anchor="middle" dominant-baseline="middle" transform="matrix(0.007200000000000001 0 0 0.007200000000000001 -1.04386 1.5)">15</text>
<rect class="edge_bg" x="0.616194596215561" y="-0.07200000000000012" width="0.14400000000000002" height="0.14400000000000002"/>
<text class="edge_text" text-anchor="middle" dominant-baseline="middle" transform="matrix(0.007200000000000001 0 0 0.007200000000000001 0.6881945962155611 -1.0605752387249072e-16)">2</text>
<rect class="edge_bg" x="1.0492037018922193" y="0.6779999999999999" width="0.14400000000000002" height="0.14400000000000002"/>
<text class="edge_text" text-anchor="middle" dominant-baseline="middle" transform="matrix(0.007200000000000001 0 0 0.007200000000000001 1.1212037018922194 0.7499999999999999)">12</text>
<rect class="edge_bg" x="-0.2498345962155612" y="1.428" width="0.14400000000000002" height="0.14400000000000002"/>
<text class="edge_text" text-anchor="middle" dominant-baseline="middle" transform="matrix(0.007200000000000001 0 0 0.007200000000000001 -0.1778345962155612 1.5)">35</text>
</svg>
