<?xml version="1.0" encoding="utf-8"?>
<svg version="1.1" id="layer_1" xmlns="http://www.w3.org/2000/svg" xmlns:xlink="http://www.w3.org/1999/xlink" x="0px" y="0px" viewBox="-2.825915403784439 -2.55 5.296160807568878 5.1" style="enable-background:new -2.825915403784439 -2.55 5.296160807568878 5.1;" xml:space="preserve">
<style type="text/css">
  .no_fill_black_stroke {fill:none; stroke:#000000; stroke-width:0.02; stroke-miterlimit:10;}
  .face_text {fill:#000000; font-family:monospace;}
  .edge_text {fill:#ff0000; font-family:monospace;}
  .edge_bg {fill:#f3f3f3; stroke:#606060; stroke-width:0.02;}
</style>
<polygon class="no_fill_black_stroke" points="0.6881909602355868, -0.5 -0.26286555605956674, -0.8090169943749475 -0.8506508083520399, -1.0417467896404342e-16 -0.2628655560595669, 0.8090169943749473 0.6881909602355867, 0.5000000000000001"/>
<polygon class="no_fill_black_stroke" points="0.6881945962155611, 0.5000000000000002 1.5542199999999997, 1.0000000000000002 2.4202454037844383, 0.5000000000000006 2.420245403784439, -0.4999999999999994 1.5542200000000002, -1.0000000000000002 0.6881945962155609, -0.4999999999999999"/>
<polygon class="no_fill_black_stroke" points="0.6881910000000001, 0.4999999999999998 -0.17783440378443893, 1.0 -0.17783440378443882, 2.0 0.6881909999999998, 2.5 1.5542164037844386, 2.0000000000000004 1.5542164037844393, 1.0000000000000007"/>
<polygon class="no_fill_black_stroke" points="-0.17783459621556108, 1.0 -1.04386, 0.4999999999999998 -1.9098854037844388, 1.0 -1.9098854037844388, 2.0 -1.0438600000000002, 2.5 -0.1778345962155614, 2.0000000000000004"/>
<polygon class="no_fill_black_stroke" points="-1.043864596215561, 0.49999999999999983 -1.043864596215561, -0.5000000000000002 -1.90989, -1.0000000000000004 -2.775915403784439, -0.5000000000000002 -2.775915403784439, 0.5 -1.9098900000000003, 1.0"/>
<polygon class="no_fill_black_stroke" points="-1.04386, -0.4999999999999998 -0.17783459621556108, -1.0 -0.17783459621556108, -2.0 -1.04386, -2.5 -1.9098854037844388, -2.0 -1.9098854037844388, -0.9999999999999998"/>
<text class="face_text" text-anchor="middle" dominant-baseline="middle" transform="matrix(0.010199999999999999 0 0 0.010199999999999999 0.0 0.0)">0</text>
<text class="face_text" text-anchor="middle" dominant-baseline="middle" transform="matrix(0.010199999999999999 0 0 0.010199999999999999 1.55422 0.0)">1</text>
<text class="face_text" text-anchor="middle" dominant-baseline="middle" transform="matrix(0.010199999999999999 0 0 0.010199999999999999 0.688191 1.5)">7</text>
<text class="face_text" text-anchor="middle" dominant-baseline="middle" transform="matrix(0.010199999999999999 0 0 0.010199999999999999 -1.04386 1.5)">15</text>
<text class="face_text" text-anchor="middle" dominant-baseline="middle" transform="matrix(0.010199999999999999 0 0 0.010199999999999999 -1.90989 -1.81031e-16)">6</text>
<text class="face_text" text-anchor="middle" dominant-baseline="middle" transform="matrix(0.010199999999999999 0 0 0.010199999999999999 -1.04386 -1.5)">2</text>
<rect class="edge_bg" x="0.5861945962155611" y="-0.1020000000000001" width="0.204" height="0.204"/>
<text class="edge_text" text-anchor="middle" dominant-baseline="middle" transform="matrix(0.010199999999999999 0 0 0.010199999999999999 0.6881945962155611 -1.0605752387249072e-16)">2</text>
<rect class="edge_bg" x="1.0192037018922193" y="0.6479999999999999" width="0.204" height="0.204"/>
<text class="edge_text" text-anchor="middle" dominant-baseline="middle" transform="matrix(0.010199999999999999 0 0 0.010199999999999999 1.1212037018922194 0.7499999999999999)">12</text>
<rect class="edge_bg" x="-0.27983459621556117" y="1.398" width="0.204" height="0.204"/>
<text class="edge_text" text-anchor="middle" dominant-baseline="middle" transform="matrix(0.010199999999999999 0 0 0.010199999999999999 -0.1778345962155612 1.5)">35</text>
<rect class="edge_bg" x="-1.5788772981077808" y="0.6479999999999999" width="0.204" height="0.204"/>
<text class="edge_text" text-anchor="middle" dominant-baseline="middle" transform="matrix(0.010199999999999999 0 0 0.010199999999999999 -1.4768772981077807 0.7499999999999999)">32</text>
<rect class="edge_bg" x="-1.5788727018922193" y="-0.8519999999999998" width="0.204" height="0.204"/>
<text class="edge_text" text-anchor="middle" dominant-baseline="middle" transform="matrix(0.010199999999999999 0 0 0.010199999999999999 -1.4768727018922192 -0.7499999999999998)">9</text>
</svg>
