<?xml version="1.0" encoding="utf-8"?>
<svg version="1.1" id="layer_1" xmlns="http://www.w3.org/2000/svg" xmlns:xlink="http://www.w3.org/1999/xlink" x="0px" y="0px" viewBox="-2.48296080835204 -1.0500000000000003 5.696342855603859 6.96984" style="enable-background:new -2.48296080835204 -1.0500000000000003 5.696342855603859 6.96984;" xml:space="preserve">
<style type="text/css">
  .no_fill_black_stroke {fill:none; stroke:#000000; stroke-width:0.02; stroke-miterlimit:10;}
  .face_text {fill:#000000; font-family:monospace;}
  .edge_text {fill:#ff0000; font-family:monospace;}
  .edge_bg {fill:#f3f3f3; stroke:#606060; stroke-width:0.02;}
</style>
<polygon class="no_fill_black_stroke" points="0.6881909602355868, -0.5 -0.26286555605956674, -0.8090169943749475 -0.8506508083520399, -1.0417467896404342e-16 -0.2628655560595669, 0.8090169943749473 0.6881909602355867, 0.5000000000000001"/>
<polygon class="no_fill_black_stroke" points="0.6881945962155611, 0.5000000000000002 1.5542199999999997, 1.0000000000000002 2.4202454037844383, 0.5000000000000006 2.420245403784439, -0.4999999999999994 1.5542200000000002, -1.0000000000000002 0.6881945962155609, -0.4999999999999999"/>
<polygon class="no_fill_black_stroke" points="1.5542118179899873, 0.9999991457811752 1.7621235088077463, 1.9781467465149807 2.75664540417602, 2.0826752097826344 3.16338204725182, 1.1691297521400343 2.4202372217744257, 0.49999914578117555"/>
<polygon class="no_fill_black_stroke" points="1.7621233569241999, 1.978144542357399 1.1743381046317265, 2.7871615367323463 1.5810747477075267, 3.7007069943749475 2.5755966430758006, 3.805235457642601 3.1633818953682735, 2.9962184632676534 2.7566452522924743, 2.082673005625053"/>
<polygon class="no_fill_black_stroke" points="1.17434240417602, 2.7871647902173655 0.1798205088077467, 2.891693253485019 -0.028091182010012816, 3.869840854218824 0.8379342217744256, 4.3698408542188245 1.5810790472518201, 3.7007102478599667"/>
<polygon class="no_fill_black_stroke" points="-0.028090799999999937, 3.86984 -0.8941162037844389, 4.36984 -0.8941162037844388, 5.36984 -0.028090800000000183, 5.86984 0.8379346037844386, 5.369840000000001 0.8379346037844393, 4.369840000000001"/>
<polygon class="no_fill_black_stroke" points="-0.8941190397644133, 4.36984 -1.8451755560595668, 4.0608230056250525 -2.43296080835204, 4.86984 -1.845175556059567, 5.678856994374947 -0.8941190397644134, 5.36984"/>
<polygon class="no_fill_black_stroke" points="-0.8941183091822406, 4.369837600733806 -0.1509734837048463, 3.7007069943749475 -0.3588851745226057, 2.722559393641142 -1.3099416908177592, 2.413542399266194 -2.0530865162951537, 3.0826730056250526 -1.8451748254773945, 4.060820606358859"/>
<polygon class="no_fill_black_stroke" points="-0.35888330918224054, 2.722557600733806 0.3842615162951537, 2.0534269943749477 0.1763498254773943, 1.0752793936411416 -0.7747066908177592, 0.7662623992661941 -1.5178515162951538, 1.4353930056250523 -1.3099398254773944, 2.4135406063588585"/>
<text class="face_text" text-anchor="middle" dominant-baseline="middle" transform="matrix(0.011392685711207719 0 0 0.011392685711207719 0.0 0.0)">0</text>
<text class="face_text" text-anchor="middle" dominant-baseline="middle" transform="matrix(0.011392685711207719 0 0 0.011392685711207719 1.55422 0.0)">1</text>
<text class="face_text" text-anchor="middle" dominant-baseline="middle" transform="matrix(0.011392685711207719 0 0 0.011392685711207719 2.33132 1.34599)">8</text>
<text class="face_text" text-anchor="middle" dominant-baseline="middle" transform="matrix(0.011392685711207719 0 0 0.011392685711207719 2.16886 2.89169)">16</text>
<text class="face_text" text-anchor="middle" dominant-baseline="middle" transform="matrix(0.011392685711207719 0 0 0.011392685711207719 0.749017 3.52385)">24</text>
<text class="face_text" text-anchor="middle" dominant-baseline="middle" transform="matrix(0.011392685711207719 0 0 0.011392685711207719 -0.0280908 4.86984)">23</text>
<text class="face_text" text-anchor="middle" dominant-baseline="middle" transform="matrix(0.011392685711207719 0 0 0.011392685711207719 -1.58231 4.86984)">14</text>
<text class="face_text" text-anchor="middle" dominant-baseline="middle" transform="matrix(0.011392685711207719 0 0 0.011392685711207719 -1.10203 3.39169)">15</text>
<text class="face_text" text-anchor="middle" dominant-baseline="middle" transform="matrix(0.011392685711207719 0 0 0.011392685711207719 -0.566795 1.74441)">7</text>
<rect class="edge_bg" x="0.5742677391034839" y="-0.1139268571120773" width="0.22785371422415437" height="0.22785371422415437"/>
<text class="edge_text" text-anchor="middle" dominant-baseline="middle" transform="matrix(0.011392685711207719 0 0 0.011392685711207719 0.6881945962155611 -1.0605752387249072e-16)">2</text>
<rect class="edge_bg" x="1.8732976627701292" y="0.6360722886690982" width="0.22785371422415437" height="0.22785371422415437"/>
<text class="edge_text" text-anchor="middle" dominant-baseline="middle" transform="matrix(0.011392685711207719 0 0 0.011392685711207719 1.9872245198822065 0.7499991457811753)">14</text>
<rect class="edge_bg" x="2.1454574474962596" y="1.9164819168791485" width="0.22785371422415437" height="0.22785371422415437"/>
<text class="edge_text" text-anchor="middle" dominant-baseline="middle" transform="matrix(0.011392685711207719 0 0 0.011392685711207719 2.2593843046083366 2.0304087739912258)">36</text>
<rect class="edge_bg" x="1.2637838686018428" y="3.130010661926589" width="0.22785371422415437" height="0.22785371422415437"/>
<text class="edge_text" text-anchor="middle" dominant-baseline="middle" transform="matrix(0.011392685711207719 0 0 0.011392685711207719 1.37771072571392 3.243937519038666)">62</text>
<rect class="edge_bg" x="0.2909950447801424" y="4.005913142887922" width="0.22785371422415437" height="0.22785371422415437"/>
<text class="edge_text" text-anchor="middle" dominant-baseline="middle" transform="matrix(0.011392685711207719 0 0 0.011392685711207719 0.40492190189221955 4.11984)">60</text>
<rect class="edge_bg" x="-1.0080458968764905" y="4.755913142887922" width="0.22785371422415437" height="0.22785371422415437"/>
<text class="edge_text" text-anchor="middle" dominant-baseline="middle" transform="matrix(0.011392685711207719 0 0 0.011392685711207719 -0.8941190397644133 4.86984)">56</text>
<rect class="edge_bg" x="-1.4835734244418948" y="4.1014022464342546" width="0.22785371422415437" height="0.22785371422415437"/>
<text class="edge_text" text-anchor="middle" dominant-baseline="middle" transform="matrix(0.011392685711207719 0 0 0.011392685711207719 -1.3696465673298175 4.215329103546332)">33</text>
<rect class="edge_bg" x="-0.9483384244418946" y="2.454122246434255" width="0.22785371422415437" height="0.22785371422415437"/>
<text class="edge_text" text-anchor="middle" dominant-baseline="middle" transform="matrix(0.011392685711207719 0 0 0.011392685711207719 -0.8344115673298175 2.568049103546332)">35</text>
</svg>
