<?xml version="1.0" encoding="utf-8"?>
<svg version="1.1" id="layer_1" xmlns="http://www.w3.org/2000/svg" xmlns:xlink="http://www.w3.org/1999/xlink" x="0px" y="0px" viewBox="-5.168206516295154 -3.4025576007338056 9.370501920079594 7.048743058376407" style="enable-background:new -5.168206516295154 -3.4025576007338056 9.370501920079594 7.048743058376407;" xml:space="preserve">
<style type="text/css">
  .no_fill_black_stroke {fill:none; stroke:#000000; stroke-width:0.02; stroke-miterlimit:10;}
  .face_text {fill:#000000; font-family:monospace;}
  .edge_text {fill:#ff0000; font-family:monospace;}
  .edge_bg {fill:#f3f3f3; stroke:#606060; stroke-width:0.02;}
</style>
<polygon class="no_fill_black_stroke" points="0.6881909602355868, -0.5 -0.26286555605956674, -0.8090169943749475 -0.8506508083520399, -1.0417467896404342e-16 -0.2628655560595669, 0.8090169943749473 0.6881909602355867, 0.5000000000000001"/>
<polygon class="no_fill_black_stroke" points="0.6881945962155611, 0.5000000000000002 1.5542199999999997, 1.0000000000000002 2.4202454037844383, 0.5000000000000006 2.420245403784439, -0.4999999999999994 1.5542200000000002, -1.0000000000000002 0.6881945962155609, -0.4999999999999999"/>
<polygon class="no_fill_black_stroke" points="2.420244596215561, 0.5000000000000002 3.28627, 1.0000000000000002 4.152295403784438, 0.5000000000000006 4.152295403784439, -0.4999999999999994 3.2862700000000005, -1.0000000000000002 2.4202445962155608, -0.4999999999999999"/>
<polygon class="no_fill_black_stroke" points="2.420242778225574, 0.49999914578117544 1.6770979527481797, 1.1691297521400337 2.08383459582398, 2.082675209782634 3.078356491192253, 1.9781467465149813 3.286268182010013, 0.9999991457811759"/>
<polygon class="no_fill_black_stroke" points="1.6770952522924731, 1.1691330056250524 0.6825733569241998, 1.0646045423573989 0.09478810463172649, 1.8736215367323463 0.5015247477075266, 2.7871669943749477 1.4960466430758006, 2.891695457642601 2.0838318953682737, 2.0826784632676536"/>
<polygon class="no_fill_black_stroke" points="0.09479025229247323, 1.8736230056250525 -0.8997316430758002, 1.769094542357399 -1.4875168953682736, 2.5781115367323464 -1.0807802522924734, 3.4916569943749476 -0.08625835692419936, 3.5961854576426013 0.5015268953682734, 2.7871684632676534"/>
<polygon class="no_fill_black_stroke" points="-0.8997281046317265, 1.7690884632676536 -1.3064647477075266, 0.8555430056250524 -2.3009866430758, 0.7510145423573988 -2.8887718953682735, 1.5600315367323463 -2.4820352522924733, 2.4735769943749477 -1.4875133569241994, 2.578105457642601"/>
<polygon class="no_fill_black_stroke" points="-2.30098919164796, 0.751017 -2.888774443940433, -0.057999994374947295 -3.8398309602355867, 0.25101699999999993 -3.8398309602355867, 1.251017 -2.8887744439404335, 1.5600339943749475"/>
<polygon class="no_fill_black_stroke" points="-2.8887751745226056, -0.05800039364114162 -2.6808634837048464, -1.0361479943749474 -3.4240083091822404, -1.7052786007338057 -4.375064825477394, -1.3962616063588587 -4.582976516295154, -0.4181140056250522 -3.8398316908177597, 0.25101660073380583"/>
<polygon class="no_fill_black_stroke" points="-3.424005174522606, -1.705279393641142 -3.2160934837048467, -2.6834269943749476 -3.9592383091822407, -3.352557600733806 -4.910294825477394, -3.043540606358859 -5.118206516295154, -2.0653930056250522 -4.37506169081776, -1.3962623992661944"/>
<polygon class="no_fill_black_stroke" points="-3.424008182010013, -1.705279145781176 -2.5579827782255746, -1.2052791457811756 -1.81483795274818, -1.8744097521400334 -2.2215745958239803, -2.787955209782635 -3.2160964911922534, -2.683426746514981"/>
<polygon class="no_fill_black_stroke" points="-2.557986516295154, -1.2052779943749474 -2.350074825477394, -0.22713039364114163 -1.3990183091822415, 0.08188660073380605 -0.6558734837048462, -0.5872440056250523 -0.8637851745226058, -1.5653916063588587 -1.8148416908177603, -1.8744086007338057"/>
<text class="face_text" text-anchor="middle" dominant-baseline="middle" transform="matrix(0.014097486116752813 0 0 0.014097486116752813 0.0 0.0)">0</text>
<text class="face_text" text-anchor="middle" dominant-baseline="middle" transform="matrix(0.014097486116752813 0 0 0.014097486116752813 1.55422 0.0)">1</text>
<text class="face_text" text-anchor="middle" dominant-baseline="middle" transform="matrix(0.014097486116752813 0 0 0.014097486116752813 3.28627 0.0)">9</text>
<text class="face_text" text-anchor="middle" dominant-baseline="middle" transform="matrix(0.014097486116752813 0 0 0.014097486116752813 2.50916 1.34599)">8</text>
<text class="face_text" text-anchor="middle" dominant-baseline="middle" transform="matrix(0.014097486116752813 0 0 0.014097486116752813 1.08931 1.97815)">7</text>
<text class="face_text" text-anchor="middle" dominant-baseline="middle" transform="matrix(0.014097486116752813 0 0 0.014097486116752813 -0.492995 2.68264)">15</text>
<text class="face_text" text-anchor="middle" dominant-baseline="middle" transform="matrix(0.014097486116752813 0 0 0.014097486116752813 -1.89425 1.66456)">6</text>
<text class="face_text" text-anchor="middle" dominant-baseline="middle" transform="matrix(0.014097486116752813 0 0 0.014097486116752813 -3.15164 0.751017)">5</text>
<text class="face_text" text-anchor="middle" dominant-baseline="middle" transform="matrix(0.014097486116752813 0 0 0.014097486116752813 -3.63192 -0.727131)">4</text>
<text class="face_text" text-anchor="middle" dominant-baseline="middle" transform="matrix(0.014097486116752813 0 0 0.014097486116752813 -4.16715 -2.37441)">10</text>
<text class="face_text" text-anchor="middle" dominant-baseline="middle" transform="matrix(0.014097486116752813 0 0 0.014097486116752813 -2.6469 -2.05127)">3</text>
<text class="face_text" text-anchor="middle" dominant-baseline="middle" transform="matrix(0.014097486116752813 0 0 0.014097486116752813 -1.60693 -0.896261)">2</text>
<rect class="edge_bg" x="0.547219735048033" y="-0.14097486116752825" width="0.2819497223350563" height="0.2819497223350563"/>
<text class="edge_text" text-anchor="middle" dominant-baseline="middle" transform="matrix(0.014097486116752813 0 0 0.014097486116752813 0.6881945962155611 -1.0605752387249072e-16)">2</text>
<rect class="edge_bg" x="2.279269735048033" y="-0.14097486116752825" width="0.2819497223350563" height="0.2819497223350563"/>
<text class="edge_text" text-anchor="middle" dominant-baseline="middle" transform="matrix(0.014097486116752813 0 0 0.014097486116752813 2.420244596215561 -1.0605752387249072e-16)">16</text>
<rect class="edge_bg" x="2.712280618950265" y="0.6090242846136473" width="0.2819497223350563" height="0.2819497223350563"/>
<text class="edge_text" text-anchor="middle" dominant-baseline="middle" transform="matrix(0.014097486116752813 0 0 0.014097486116752813 2.8532554801177934 0.7499991457811754)">17</text>
<rect class="edge_bg" x="1.739488712662845" y="1.484930873278825" width="0.2819497223350563" height="0.2819497223350563"/>
<text class="edge_text" text-anchor="middle" dominant-baseline="middle" transform="matrix(0.014097486116752813 0 0 0.014097486116752813 1.8804635738303732 1.625905734446353)">15</text>
<rect class="edge_bg" x="0.15718371266284517" y="2.189420873278825" width="0.2819497223350563" height="0.2819497223350563"/>
<text class="edge_text" text-anchor="middle" dominant-baseline="middle" transform="matrix(0.014097486116752813 0 0 0.014097486116752813 0.2981585738303733 2.3303957344463533)">35</text>
<rect class="edge_bg" x="-1.3345955919454913" y="2.032622099287599" width="0.2819497223350563" height="0.2819497223350563"/>
<text class="edge_text" text-anchor="middle" dominant-baseline="middle" transform="matrix(0.014097486116752813 0 0 0.014097486116752813 -1.1936207307779632 2.1735969604551273)">32</text>
<rect class="edge_bg" x="-2.735856678961725" y="1.0145506360199457" width="0.2819497223350563" height="0.2819497223350563"/>
<text class="edge_text" text-anchor="middle" dominant-baseline="middle" transform="matrix(0.014097486116752813 0 0 0.014097486116752813 -2.594881817794197 1.1555254971874738)">10</text>
<rect class="edge_bg" x="-3.5052782938377107" y="-0.044466757621196035" width="0.2819497223350563" height="0.2819497223350563"/>
<text class="edge_text" text-anchor="middle" dominant-baseline="middle" transform="matrix(0.014097486116752813 0 0 0.014097486116752813 -3.3643034326701824 0.0965081035463321)">8</text>
<rect class="edge_bg" x="-4.040508293837711" y="-1.6917457576211963" width="0.2819497223350563" height="0.2819497223350563"/>
<text class="edge_text" text-anchor="middle" dominant-baseline="middle" transform="matrix(0.014097486116752813 0 0 0.014097486116752813 -3.8995334326701827 -1.5507708964536682)">21</text>
<rect class="edge_bg" x="-3.4610271977686615" y="-2.3353278073156067" width="0.2819497223350563" height="0.2819497223350563"/>
<text class="edge_text" text-anchor="middle" dominant-baseline="middle" transform="matrix(0.014097486116752813 0 0 0.014097486116752813 -3.320052336601133 -2.1943529461480784)">19</text>
<rect class="edge_bg" x="-2.327388964723985" y="-1.6808181587219047" width="0.2819497223350563" height="0.2819497223350563"/>
<text class="edge_text" text-anchor="middle" dominant-baseline="middle" transform="matrix(0.014097486116752813 0 0 0.014097486116752813 -2.186414103556457 -1.5398432975543765)">3</text>
</svg>
