<?xml version="1.0" encoding="utf-8"?>
<svg version="1.1" id="layer_1" xmlns="http://www.w3.org/2000/svg" xmlns:xlink="http://www.w3.org/1999/xlink" x="0px" y="0px" viewBox="-5.321170808352039 -4.064787600733806 9.177292703720312 7.21096845495263" style="enable-background:new -5.321170808352039 -4.064787600733806 9.177292703720312 7.21096845495263;" xml:space="preserve">
<style type="text/css">
  .no_fill_black_stroke {fill:none; stroke:#000000; stroke-width:0.02; stroke-miterlimit:10;}
  .face_text {fill:#000000; font-family:monospace;}
  .edge_text {fill:#ff0000; font-family:monospace;}
  .edge_bg {fill:#f3f3f3; stroke:#606060; stroke-width:0.02;}
</style>
<polygon class="no_fill_black_stroke" points="0.8660254037844389, -0.5 6.123233995736767e-17, -1.0000000000000002 -0.8660254037844389, -0.5 -0.8660254037844388, 0.5000000000000002 -1.8369701987210302e-16, 1.0000000000000002 0.8660254037844386, 0.5000000000000006"/>
<polygon class="no_fill_black_stroke" points="0.8660290397644131, 0.4999999999999999 1.8170855560595665, 0.8090169943749475 2.40487080835204, 2.0834935792808685e-16 1.817085556059567, -0.8090169943749473 0.8660290397644134, -0.5000000000000001"/>
<polygon class="no_fill_black_stroke" points="1.8170781046317264, 0.8090165367323463 2.2238147477075265, 1.7225619943749475 3.2183366430758005, 1.827090457642601 3.8061218953682734, 1.0180734632676536 3.399385252292474, 0.10452800562505304 2.4048633569241993, -4.5764260092617803e-07"/>
<polygon class="no_fill_black_stroke" points="1.8170852522924732, 0.8090130056250524 0.8225633569241999, 0.7044845423573989 0.23477810463172655, 1.5135015367323463 0.6415147477075267, 2.4270469943749475 1.6360366430758007, 2.5315754576426013 2.223821895368274, 1.7225584632676536"/>
<polygon class="no_fill_black_stroke" points="0.23477440417602005, 1.5135047902173655 -0.7597474911922534, 1.6180332534850188 -0.9676591820100129, 2.596180854218824 -0.10163377822557448, 3.0961808542188245 0.6415110472518201, 2.4270502478599667"/>
<polygon class="no_fill_black_stroke" points="-0.7597434837048463, 1.6180330056250525 -1.5028883091822407, 0.9489023992661941 -2.4539448254773943, 1.2579193936411412 -2.661856516295154, 2.236066994374948 -1.91871169081776, 2.9051976007338056 -0.9676551745226056, 2.596180606358858"/>
<polygon class="no_fill_black_stroke" points="-2.453943483704846, 1.2579230056250525 -3.19708830918224, 0.5887923992661942 -4.148144825477394, 0.8978093936411414 -4.356056516295154, 1.8759569943749477 -3.61291169081776, 2.545087600733806 -2.6618551745226053, 2.236070606358858"/>
<polygon class="no_fill_black_stroke" points="-3.1970951745226057, 0.5887898063588584 -2.9891834837048465, -0.38935779437494744 -3.7323283091822406, -1.0584884007338058 -4.683384825477394, -0.7494714063588586 -4.891296516295154, 0.2286761943749478 -4.14815169081776, 0.8978068007338058"/>
<polygon class="no_fill_black_stroke" points="-3.732329039764413, -1.05849 -3.732329039764413, -2.05849 -4.683385556059567, -2.3675069943749474 -5.271170808352039, -1.55849 -4.683385556059567, -0.7494730056250526"/>
<polygon class="no_fill_black_stroke" points="-3.7323283091822406, -2.058492399266194 -2.9891834837048465, -2.7276230056250523 -3.1970951745226057, -3.705770606358858 -4.148151690817759, -4.014787600733806 -4.891296516295154, -3.3456569943749472 -4.683384825477394, -2.3675093936411415"/>
<polygon class="no_fill_black_stroke" points="-3.7323265162951538, -2.0584869943749475 -3.5244148254773946, -1.0803393936411418 -2.5733583091822414, -0.7713223992661941 -1.8302134837048465, -1.4404530056250524 -2.038125174522606, -2.4186006063588588 -2.98918169081776, -2.7276176007338058"/>
<polygon class="no_fill_black_stroke" points="-2.57336204725182, -0.7713242478599663 -2.1666254041760205, 0.1422212097826342 -1.172103508807747, 0.037692746514981335 -0.9641918179899872, -0.9404548542188241 -1.8302172217744255, -1.4404548542188245"/>
<text class="face_text" text-anchor="middle" dominant-baseline="middle" transform="matrix(0.01442193690990526 0 0 0.01442193690990526 0.0 0.0)">1</text>
<text class="face_text" text-anchor="middle" dominant-baseline="middle" transform="matrix(0.01442193690990526 0 0 0.01442193690990526 1.55422 0.0)">0</text>
<text class="face_text" text-anchor="middle" dominant-baseline="middle" transform="matrix(0.01442193690990526 0 0 0.01442193690990526 2.8116 0.913545)">6</text>
<text class="face_text" text-anchor="middle" dominant-baseline="middle" transform="matrix(0.01442193690990526 0 0 0.01442193690990526 1.2293 1.61803)">2</text>
<text class="face_text" text-anchor="middle" dominant-baseline="middle" transform="matrix(0.01442193690990526 0 0 0.01442193690990526 -0.190551 2.25019)">3</text>
<text class="face_text" text-anchor="middle" dominant-baseline="middle" transform="matrix(0.01442193690990526 0 0 0.01442193690990526 -1.7108 1.92705)">9</text>
<text class="face_text" text-anchor="middle" dominant-baseline="middle" transform="matrix(0.01442193690990526 0 0 0.01442193690990526 -3.405 1.56694)">17</text>
<text class="face_text" text-anchor="middle" dominant-baseline="middle" transform="matrix(0.01442193690990526 0 0 0.01442193690990526 -3.94024 -0.0803408)">16</text>
<text class="face_text" text-anchor="middle" dominant-baseline="middle" transform="matrix(0.01442193690990526 0 0 0.01442193690990526 -4.42052 -1.55849)">24</text>
<text class="face_text" text-anchor="middle" dominant-baseline="middle" transform="matrix(0.01442193690990526 0 0 0.01442193690990526 -3.94024 -3.03664)">15</text>
<text class="face_text" text-anchor="middle" dominant-baseline="middle" transform="matrix(0.01442193690990526 0 0 0.01442193690990526 -2.78127 -1.74947)">7</text>
<text class="face_text" text-anchor="middle" dominant-baseline="middle" transform="matrix(0.01442193690990526 0 0 0.01442193690990526 -1.7413 -0.594464)">8</text>
<rect class="edge_bg" x="0.7218096706653605" y="-0.14421936909905267" width="0.28843873819810517" height="0.28843873819810517"/>
<text class="edge_text" text-anchor="middle" dominant-baseline="middle" transform="matrix(0.01442193690990526 0 0 0.01442193690990526 0.8660290397644131 -8.427908566546547e-17)">2</text>
<rect class="edge_bg" x="1.9667513616789105" y="0.2602886704458201" width="0.28843873819810517" height="0.28843873819810517"/>
<text class="edge_text" text-anchor="middle" dominant-baseline="middle" transform="matrix(0.01442193690990526 0 0 0.01442193690990526 2.110970730777963 0.4045080395448727)">11</text>
<rect class="edge_bg" x="1.8762342047313207" y="1.1215663653473005" width="0.28843873819810517" height="0.28843873819810517"/>
<text class="edge_text" text-anchor="middle" dominant-baseline="middle" transform="matrix(0.01442193690990526 0 0 0.01442193690990526 2.0204535738303733 1.265785734446353)">9</text>
<rect class="edge_bg" x="0.2939233566148674" y="1.8260581499396134" width="0.28843873819810517" height="0.28843873819810517"/>
<text class="edge_text" text-anchor="middle" dominant-baseline="middle" transform="matrix(0.01442193690990526 0 0 0.01442193690990526 0.43814272571392 1.9702775190386659)">3</text>
<rect class="edge_bg" x="-1.0079186982127786" y="1.9628874368929028" width="0.28843873819810517" height="0.28843873819810517"/>
<text class="edge_text" text-anchor="middle" dominant-baseline="middle" transform="matrix(0.01442193690990526 0 0 0.01442193690990526 -0.8636993291137259 2.1071068059919553)">18</text>
<rect class="edge_bg" x="-2.7021186982127783" y="1.6027774368929029" width="0.28843873819810517" height="0.28843873819810517"/>
<text class="edge_text" text-anchor="middle" dominant-baseline="middle" transform="matrix(0.01442193690990526 0 0 0.01442193690990526 -2.5578993291137255 1.7469968059919554)">40</text>
<rect class="edge_bg" x="-3.8168428017692353" y="0.5990789344472796" width="0.28843873819810517" height="0.28843873819810517"/>
<text class="edge_text" text-anchor="middle" dominant-baseline="middle" transform="matrix(0.01442193690990526 0 0 0.01442193690990526 -3.6726234326701825 0.7432983035463321)">39</text>
<rect class="edge_bg" x="-4.352076667011042" y="-1.0482008719115787" width="0.28843873819810517" height="0.28843873819810517"/>
<text class="edge_text" text-anchor="middle" dominant-baseline="middle" transform="matrix(0.01442193690990526 0 0 0.01442193690990526 -4.20785729791199 -0.9039815028125262)">62</text>
<rect class="edge_bg" x="-4.35207593642887" y="-2.3572202655527206" width="0.28843873819810517" height="0.28843873819810517"/>
<text class="edge_text" text-anchor="middle" dominant-baseline="middle" transform="matrix(0.01442193690990526 0 0 0.01442193690990526 -4.207856567329817 -2.213000896453668)">59</text>
<rect class="edge_bg" x="-3.5049734726555095" y="-2.5372716666534294" width="0.28843873819810517" height="0.28843873819810517"/>
<text class="edge_text" text-anchor="middle" dominant-baseline="middle" transform="matrix(0.01442193690990526 0 0 0.01442193690990526 -3.3607541035564568 -2.3930522975543767)">35</text>
<rect class="edge_bg" x="-2.346009003612176" y="-1.2501089201384479" width="0.28843873819810517" height="0.28843873819810517"/>
<text class="edge_text" text-anchor="middle" dominant-baseline="middle" transform="matrix(0.01442193690990526 0 0 0.01442193690990526 -2.201789634513123 -1.1058895510393953)">15</text>
</svg>
