<?xml version="1.0" encoding="utf-8"?>
<svg version="1.1" id="layer_1" xmlns="http://www.w3.org/2000/svg" xmlns:xlink="http://www.w3.org/1999/xlink" x="0px" y="0px" viewBox="-0.93072800835204 -1.0500000000000003 4.786849903720313 6.979567600733805" style="enable-background:new -0.93072800835204 -1.0500000000000003 4.786849903720313 6.979567600733805;" xml:space="preserve">
<style type="text/css">
  .no_fill_black_stroke {fill:none; stroke:#000000; stroke-width:0.02; stroke-miterlimit:10;}
  .face_text {fill:#000000; font-family:monospace;}
  .edge_text {fill:#ff0000; font-family:monospace;}
  .edge_bg {fill:#f3f3f3; stroke:#606060; stroke-width:0.02;}
</style>
<polygon class="no_fill_black_stroke" points="0.8660254037844389, -0.5 6.123233995736767e-17, -1.0000000000000002 -0.8660254037844389, -0.5 -0.8660254037844388, 0.5000000000000002 -1.8369701987210302e-16, 1.0000000000000002 0.8660254037844386, 0.5000000000000006"/>
<polygon class="no_fill_black_stroke" points="0.8660290397644131, 0.4999999999999999 1.8170855560595665, 0.8090169943749475 2.40487080835204, 2.0834935792808685e-16 1.817085556059567, -0.8090169943749473 0.8660290397644134, -0.5000000000000001"/>
<polygon class="no_fill_black_stroke" points="1.8170781046317264, 0.8090165367323463 2.2238147477075265, 1.7225619943749475 3.2183366430758005, 1.827090457642601 3.8061218953682734, 1.0180734632676536 3.399385252292474, 0.10452800562505304 2.4048633569241993, -4.5764260092617803e-07"/>
<polygon class="no_fill_black_stroke" points="2.2238145958239803, 1.7225647902173655 1.8170779527481797, 2.636110247859966 2.560222778225574, 3.3052408542188245 3.4262481820100126, 2.8052408542188245 3.218336491192254, 1.8270932534850193"/>
<polygon class="no_fill_black_stroke" points="1.8170816908177594, 2.636112399266194 0.8660251745226059, 2.945129393641141 0.6581134837048462, 3.9232769943749477 1.4012583091822401, 4.5924076007338055 2.3523148254773947, 4.283390606358858 2.560226516295154, 3.3052430056250524"/>
<polygon class="no_fill_black_stroke" points="0.6581136908177595, 3.923272399266194 -0.29294282547739414, 4.232289393641142 -0.5008545162951538, 5.210436994374947 0.24229030918224015, 5.879567600733806 1.1933468254773945, 5.570550606358858 1.4012585162951539, 4.592403005625052"/>
<polygon class="no_fill_black_stroke" points="0.6581137602355868, 3.92327 0.6581137602355868, 2.92327 -0.29294275605956677, 2.6142530056250526 -0.8807280083520399, 3.42327 -0.2929427560595669, 4.232286994374947"/>
<polygon class="no_fill_black_stroke" points="0.6581136908177595, 2.923267600733806 1.4012585162951536, 2.2541369943749476 1.1933468254773945, 1.2759893936411415 0.24229030918224082, 0.966972399266194 -0.5008545162951538, 1.6361030056250523 -0.29294282547739436, 2.6142506063588584"/>
<text class="face_text" text-anchor="middle" dominant-baseline="middle" transform="matrix(0.009573699807440626 0 0 0.009573699807440626 0.0 0.0)">1</text>
<text class="face_text" text-anchor="middle" dominant-baseline="middle" transform="matrix(0.009573699807440626 0 0 0.009573699807440626 1.55422 0.0)">0</text>
<text class="face_text" text-anchor="middle" dominant-baseline="middle" transform="matrix(0.009573699807440626 0 0 0.009573699807440626 2.8116 0.913545)">6</text>
<text class="face_text" text-anchor="middle" dominant-baseline="middle" transform="matrix(0.009573699807440626 0 0 0.009573699807440626 2.64914 2.45925)">5</text>
<text class="face_text" text-anchor="middle" dominant-baseline="middle" transform="matrix(0.009573699807440626 0 0 0.009573699807440626 1.60917 3.61426)">4</text>
<text class="face_text" text-anchor="middle" dominant-baseline="middle" transform="matrix(0.009573699807440626 0 0 0.009573699807440626 0.450202 4.90142)">10</text>
<text class="face_text" text-anchor="middle" dominant-baseline="middle" transform="matrix(0.009573699807440626 0 0 0.009573699807440626 -0.0300772 3.42327)">3</text>
<text class="face_text" text-anchor="middle" dominant-baseline="middle" transform="matrix(0.009573699807440626 0 0 0.009573699807440626 0.450202 1.94512)">2</text>
<rect class="edge_bg" x="0.7702920416900069" y="-0.09573699807440635" width="0.19147399614881253" height="0.19147399614881253"/>
<text class="edge_text" text-anchor="middle" dominant-baseline="middle" transform="matrix(0.009573699807440626 0 0 0.009573699807440626 0.8660290397644131 -8.427908566546547e-17)">2</text>
<rect class="edge_bg" x="2.0152337327035568" y="0.3087710414704664" width="0.19147399614881253" height="0.19147399614881253"/>
<text class="edge_text" text-anchor="middle" dominant-baseline="middle" transform="matrix(0.009573699807440626 0 0 0.009573699807440626 2.110970730777963 0.4045080395448727)">11</text>
<rect class="edge_bg" x="2.6253385454337104" y="1.679092023776786" width="0.19147399614881253" height="0.19147399614881253"/>
<text class="edge_text" text-anchor="middle" dominant-baseline="middle" transform="matrix(0.009573699807440626 0 0 0.009573699807440626 2.7210755435081166 1.7748290218511922)">10</text>
<rect class="edge_bg" x="2.09291710548205" y="2.874940704371217" width="0.19147399614881253" height="0.19147399614881253"/>
<text class="edge_text" text-anchor="middle" dominant-baseline="middle" transform="matrix(0.009573699807440626 0 0 0.009573699807440626 2.1886541035564564 2.9706777024456232)">8</text>
<rect class="edge_bg" x="0.9339491054820503" y="4.162100704371217" width="0.19147399614881253" height="0.19147399614881253"/>
<text class="edge_text" text-anchor="middle" dominant-baseline="middle" transform="matrix(0.009573699807440626 0 0 0.009573699807440626 1.0296861035564566 4.257837702445623)">21</text>
<rect class="edge_bg" x="0.08684850401360374" y="3.9820414991130675" width="0.19147399614881253" height="0.19147399614881253"/>
<text class="edge_text" text-anchor="middle" dominant-baseline="middle" transform="matrix(0.009573699807440626 0 0 0.009573699807440626 0.18258550208801 4.077778497187474)">19</text>
<rect class="edge_bg" x="0.0868484345957763" y="2.673022105471926" width="0.19147399614881253" height="0.19147399614881253"/>
<text class="edge_text" text-anchor="middle" dominant-baseline="middle" transform="matrix(0.009573699807440626 0 0 0.009573699807440626 0.18258543267018257 2.768759103546332)">3</text>
</svg>
