<?xml version="1.0" encoding="utf-8"?>
<svg version="1.1" id="layer_1" xmlns="http://www.w3.org/2000/svg" xmlns:xlink="http://www.w3.org/1999/xlink" x="0px" y="0px" viewBox="-2.2450565162951537 -1.0500000000000003 6.101178411663427 6.979567600733805" style="enable-background:new -2.2450565162951537 -1.0500000000000003 6.101178411663427 6.979567600733805;" xml:space="preserve">
<style type="text/css">
  .no_fill_black_stroke {fill:none; stroke:#000000; stroke-width:0.02; stroke-miterlimit:10;}
  .face_text {fill:#000000; font-family:monospace;}
  .edge_text {fill:#ff0000; font-family:monospace;}
  .edge_bg {fill:#f3f3f3; stroke:#606060; stroke-width:0.02;}
</style>
<polygon class="no_fill_black_stroke" points="0.8660254037844389, -0.5 6.123233995736767e-17, -1.0000000000000002 -0.8660254037844389, -0.5 -0.8660254037844388, 0.5000000000000002 -1.8369701987210302e-16, 1.0000000000000002 0.8660254037844386, 0.5000000000000006"/>
<polygon class="no_fill_black_stroke" points="0.8660290397644131, 0.4999999999999999 1.8170855560595665, 0.8090169943749475 2.40487080835204, 2.0834935792808685e-16 1.817085556059567, -0.8090169943749473 0.8660290397644134, -0.5000000000000001"/>
<polygon class="no_fill_black_stroke" points="1.8170781046317264, 0.8090165367323463 2.2238147477075265, 1.7225619943749475 3.2183366430758005, 1.827090457642601 3.8061218953682734, 1.0180734632676536 3.399385252292474, 0.10452800562505304 2.4048633569241993, -4.5764260092617803e-07"/>
<polygon class="no_fill_black_stroke" points="2.2238145958239803, 1.7225647902173655 1.8170779527481797, 2.636110247859966 2.560222778225574, 3.3052408542188245 3.4262481820100126, 2.8052408542188245 3.218336491192254, 1.8270932534850193"/>
<polygon class="no_fill_black_stroke" points="1.8170816908177594, 2.636112399266194 0.8660251745226059, 2.945129393641141 0.6581134837048462, 3.9232769943749477 1.4012583091822401, 4.5924076007338055 2.3523148254773947, 4.283390606358858 2.560226516295154, 3.3052430056250524"/>
<polygon class="no_fill_black_stroke" points="0.6581136908177595, 3.923272399266194 -0.29294282547739414, 4.232289393641142 -0.5008545162951538, 5.210436994374947 0.24229030918224015, 5.879567600733806 1.1933468254773945, 5.570550606358858 1.4012585162951539, 4.592403005625052"/>
<polygon class="no_fill_black_stroke" points="-0.29294348370484624, 4.232293005625053 -1.0360883091822406, 3.5631623992661945 -1.9871448254773942, 3.8721793936411415 -2.195056516295154, 4.850326994374948 -1.4519116908177598, 5.519457600733806 -0.5008551745226055, 5.210440606358858"/>
<polygon class="no_fill_black_stroke" points="-0.29294322177442583, 4.2322908542188244 0.5730821820100126, 3.7322908542188244 0.3651704911922533, 2.7541432534850188 -0.6293514041760198, 2.6496147902173655 -1.0360880472518201, 3.563160247859966"/>
<polygon class="no_fill_black_stroke" points="0.36517094307580034, 2.754145457642601 0.9529561953682735, 1.9451284632676535 0.5462195522924732, 1.0315830056250523 -0.44830234307580014, 0.9270545423573988 -1.0360875953682736, 1.7360715367323463 -0.6293509522924734, 2.6496169943749477"/>
<text class="face_text" text-anchor="middle" dominant-baseline="middle" transform="matrix(0.012202356823326854 0 0 0.012202356823326854 0.0 0.0)">1</text>
<text class="face_text" text-anchor="middle" dominant-baseline="middle" transform="matrix(0.012202356823326854 0 0 0.012202356823326854 1.55422 0.0)">0</text>
<text class="face_text" text-anchor="middle" dominant-baseline="middle" transform="matrix(0.012202356823326854 0 0 0.012202356823326854 2.8116 0.913545)">6</text>
<text class="face_text" text-anchor="middle" dominant-baseline="middle" transform="matrix(0.012202356823326854 0 0 0.012202356823326854 2.64914 2.45925)">5</text>
<text class="face_text" text-anchor="middle" dominant-baseline="middle" transform="matrix(0.012202356823326854 0 0 0.012202356823326854 1.60917 3.61426)">4</text>
<text class="face_text" text-anchor="middle" dominant-baseline="middle" transform="matrix(0.012202356823326854 0 0 0.012202356823326854 0.450202 4.90142)">10</text>
<text class="face_text" text-anchor="middle" dominant-baseline="middle" transform="matrix(0.012202356823326854 0 0 0.012202356823326854 -1.244 4.54131)">9</text>
<text class="face_text" text-anchor="middle" dominant-baseline="middle" transform="matrix(0.012202356823326854 0 0 0.012202356823326854 -0.204026 3.3863)">3</text>
<text class="face_text" text-anchor="middle" dominant-baseline="middle" transform="matrix(0.012202356823326854 0 0 0.012202356823326854 -0.0415657 1.8406)">2</text>
<rect class="edge_bg" x="0.7440054715311446" y="-0.12202356823326863" width="0.24404713646653708" height="0.24404713646653708"/>
<text class="edge_text" text-anchor="middle" dominant-baseline="middle" transform="matrix(0.012202356823326854 0 0 0.012202356823326854 0.8660290397644131 -8.427908566546547e-17)">2</text>
<rect class="edge_bg" x="1.9889471625446946" y="0.28248447131160415" width="0.24404713646653708" height="0.24404713646653708"/>
<text class="edge_text" text-anchor="middle" dominant-baseline="middle" transform="matrix(0.012202356823326854 0 0 0.012202356823326854 2.110970730777963 0.4045080395448727)">11</text>
<rect class="edge_bg" x="2.599051975274848" y="1.6528054536179235" width="0.24404713646653708" height="0.24404713646653708"/>
<text class="edge_text" text-anchor="middle" dominant-baseline="middle" transform="matrix(0.012202356823326854 0 0 0.012202356823326854 2.7210755435081166 1.7748290218511922)">10</text>
<rect class="edge_bg" x="2.066630535323188" y="2.848654134212355" width="0.24404713646653708" height="0.24404713646653708"/>
<text class="edge_text" text-anchor="middle" dominant-baseline="middle" transform="matrix(0.012202356823326854 0 0 0.012202356823326854 2.1886541035564564 2.9706777024456232)">8</text>
<rect class="edge_bg" x="0.9076625353231881" y="4.135814134212354" width="0.24404713646653708" height="0.24404713646653708"/>
<text class="edge_text" text-anchor="middle" dominant-baseline="middle" transform="matrix(0.012202356823326854 0 0 0.012202356823326854 1.0296861035564566 4.257837702445623)">21</text>
<rect class="edge_bg" x="-0.5189228973469944" y="4.599343237758687" width="0.24404713646653708" height="0.24404713646653708"/>
<text class="edge_text" text-anchor="middle" dominant-baseline="middle" transform="matrix(0.012202356823326854 0 0 0.012202356823326854 -0.39689932911372583 4.721366805991956)">20</text>
<rect class="edge_bg" x="-0.7865392027463917" y="3.775701982806127" width="0.24404713646653708" height="0.24404713646653708"/>
<text class="edge_text" text-anchor="middle" dominant-baseline="middle" transform="matrix(0.012202356823326854 0 0 0.012202356823326854 -0.6645156345131231 3.8977255510393953)">18</text>
<rect class="edge_bg" x="-0.2541135728416049" y="2.579857657775506" width="0.24404713646653708" height="0.24404713646653708"/>
<text class="edge_text" text-anchor="middle" dominant-baseline="middle" transform="matrix(0.012202356823326854 0 0 0.012202356823326854 -0.13209000460833636 2.7018812260087746)">3</text>
</svg>
