<?xml version="1.0" encoding="utf-8"?>
<svg version="1.1" id="layer_1" xmlns="http://www.w3.org/2000/svg" xmlns:xlink="http://www.w3.org/1999/xlink" x="0px" y="0px" viewBox="-2.7746718953682734 -4.667077600733806 7.8332300773782855 6.544168058376407" style="enable-background:new -2.7746718953682734 -4.667077600733806 7.8332300773782855 6.544168058376407;" xml:space="preserve">
<style type="text/css">
  .no_fill_black_stroke {fill:none; stroke:#000000; stroke-width:0.02; stroke-miterlimit:10;}
  .face_text {fill:#000000; font-family:monospace;}
  .edge_text {fill:#ff0000; font-family:monospace;}
  .edge_bg {fill:#f3f3f3; stroke:#606060; stroke-width:0.02;}
</style>
<polygon class="no_fill_black_stroke" points="0.8660254037844389, -0.5 6.123233995736767e-17, -1.0000000000000002 -0.8660254037844389, -0.5 -0.8660254037844388, 0.5000000000000002 -1.8369701987210302e-16, 1.0000000000000002 0.8660254037844386, 0.5000000000000006"/>
<polygon class="no_fill_black_stroke" points="0.8660290397644131, 0.4999999999999999 1.8170855560595665, 0.8090169943749475 2.40487080835204, 2.0834935792808685e-16 1.817085556059567, -0.8090169943749473 0.8660290397644134, -0.5000000000000001"/>
<polygon class="no_fill_black_stroke" points="1.8170781046317264, 0.8090165367323463 2.2238147477075265, 1.7225619943749475 3.2183366430758005, 1.827090457642601 3.8061218953682734, 1.0180734632676536 3.399385252292474, 0.10452800562505304 2.4048633569241993, -4.5764260092617803e-07"/>
<polygon class="no_fill_black_stroke" points="3.80612459582398, 1.0180742097826345 4.8006464911922535, 0.913545746514981 5.008558182010012, -0.06460185421882453 4.142532778225574, -0.5646018542188246 3.3993879527481794, 0.10452875214003365"/>
<polygon class="no_fill_black_stroke" points="4.142536516295154, -0.5646020056250526 3.9346248254773943, -1.5427496063588584 2.9835683091822407, -1.8517666007338058 2.2404234837048462, -1.1826359943749476 2.4483351745226054, -0.20448839364114169 3.3993916908177586, 0.10452860073380599"/>
<polygon class="no_fill_black_stroke" points="2.9835665162951535, -1.8517630056250525 2.7756548254773943, -2.829910606358858 1.8245983091822406, -3.1389276007338056 1.0814534837048462, -2.4697969943749474 1.2893651745226054, -1.4916493936411417 2.2404216908177585, -1.1826323992661938"/>
<polygon class="no_fill_black_stroke" points="1.82459704725182, -3.1389297521400334 1.4178604041760199, -4.052475209782634 0.4233385088077466, -3.947946746514981 0.21542681798998708, -2.9697991457811757 1.0814522217744256, -2.469799145781175"/>
<polygon class="no_fill_black_stroke" points="0.42333851629515373, -3.9479469943749477 -0.3198063091822405, -4.617077600733806 -1.2708628254773942, -4.3080606063588585 -1.4787745162951538, -3.3299130056250523 -0.7356296908177599, -2.6607823992661945 0.21542682547739445, -2.969799393641142"/>
<polygon class="no_fill_black_stroke" points="-1.4787727782255742, -3.3299108542188245 -2.3447981820100123, -2.8299108542188245 -2.1368864911922536, -1.8517632534850192 -1.14236459582398, -1.7472347902173655 -0.7356279527481797, -2.6607802478599654"/>
<polygon class="no_fill_black_stroke" points="-2.1368866430758002, -1.8517664576426012 -2.7246718953682736, -1.0427494632676537 -2.3179352522924734, -0.1292040056250524 -1.3234133569241995, -0.024675542357398994 -0.7356281046317266, -0.8336925367323466 -1.1423647477075258, -1.747237994374947"/>
<text class="face_text" text-anchor="middle" dominant-baseline="middle" transform="matrix(0.013088336116752813 0 0 0.013088336116752813 0.0 0.0)">1</text>
<text class="face_text" text-anchor="middle" dominant-baseline="middle" transform="matrix(0.013088336116752813 0 0 0.013088336116752813 1.55422 0.0)">0</text>
<text class="face_text" text-anchor="middle" dominant-baseline="middle" transform="matrix(0.013088336116752813 0 0 0.013088336116752813 2.8116 0.913545)">6</text>
<text class="face_text" text-anchor="middle" dominant-baseline="middle" transform="matrix(0.013088336116752813 0 0 0.013088336116752813 4.23145 0.281389)">14</text>
<text class="face_text" text-anchor="middle" dominant-baseline="middle" transform="matrix(0.013088336116752813 0 0 0.013088336116752813 3.19148 -0.873619)">15</text>
<text class="face_text" text-anchor="middle" dominant-baseline="middle" transform="matrix(0.013088336116752813 0 0 0.013088336116752813 2.03251 -2.16078)">7</text>
<text class="face_text" text-anchor="middle" dominant-baseline="middle" transform="matrix(0.013088336116752813 0 0 0.013088336116752813 0.992535 -3.31579)">8</text>
<text class="face_text" text-anchor="middle" dominant-baseline="middle" transform="matrix(0.013088336116752813 0 0 0.013088336116752813 -0.527718 -3.63893)">9</text>
<text class="face_text" text-anchor="middle" dominant-baseline="middle" transform="matrix(0.013088336116752813 0 0 0.013088336116752813 -1.56769 -2.48392)">3</text>
<text class="face_text" text-anchor="middle" dominant-baseline="middle" transform="matrix(0.013088336116752813 0 0 0.013088336116752813 -1.73015 -0.938221)">2</text>
<rect class="edge_bg" x="0.7351456785968851" y="-0.13088336116752822" width="0.26176672233505627" height="0.26176672233505627"/>
<text class="edge_text" text-anchor="middle" dominant-baseline="middle" transform="matrix(0.013088336116752813 0 0 0.013088336116752813 0.8660290397644131 -8.427908566546547e-17)">2</text>
<rect class="edge_bg" x="1.9800873696104349" y="0.27362467837734455" width="0.26176672233505627" height="0.26176672233505627"/>
<text class="edge_text" text-anchor="middle" dominant-baseline="middle" transform="matrix(0.013088336116752813 0 0 0.013088336116752813 2.110970730777963 0.4045080395448727)">11</text>
<rect class="edge_bg" x="3.4718729131185513" y="0.4304181197938061" width="0.26176672233505627" height="0.26176672233505627"/>
<text class="edge_text" text-anchor="middle" dominant-baseline="middle" transform="matrix(0.013088336116752813 0 0 0.013088336116752813 3.6027562742860795 0.5613014809613343)">30</text>
<rect class="edge_bg" x="3.6400807423889283" y="-0.3609200636131515" width="0.26176672233505627" height="0.26176672233505627"/>
<text class="edge_text" text-anchor="middle" dominant-baseline="middle" transform="matrix(0.013088336116752813 0 0 0.013088336116752813 3.7709641035564565 -0.23003670244562335)">33</text>
<rect class="edge_bg" x="2.4811107423889283" y="-1.6480810636131515" width="0.26176672233505627" height="0.26176672233505627"/>
<text class="edge_text" text-anchor="middle" dominant-baseline="middle" transform="matrix(0.013088336116752813 0 0 0.013088336116752813 2.6119941035564564 -1.5171977024456234)">35</text>
<rect class="edge_bg" x="1.3221412733455948" y="-2.9352478101281325" width="0.26176672233505627" height="0.26176672233505627"/>
<text class="edge_text" text-anchor="middle" dominant-baseline="middle" transform="matrix(0.013088336116752813 0 0 0.013088336116752813 1.453024634513123 -2.8043644489606043)">15</text>
<rect class="edge_bg" x="0.188499309718746" y="-3.589756555175573" width="0.26176672233505627" height="0.26176672233505627"/>
<text class="edge_text" text-anchor="middle" dominant-baseline="middle" transform="matrix(0.013088336116752813 0 0 0.013088336116752813 0.31938267088627414 -3.458873194008045)">17</text>
<rect class="edge_bg" x="-1.2380837266544051" y="-3.1262289122069236" width="0.26176672233505627" height="0.26176672233505627"/>
<text class="edge_text" text-anchor="middle" dominant-baseline="middle" transform="matrix(0.013088336116752813 0 0 0.013088336116752813 -1.107200365486877 -2.9953455510393954)">18</text>
<rect class="edge_bg" x="-1.7705090565591919" y="-1.9303855871763025" width="0.26176672233505627" height="0.26176672233505627"/>
<text class="edge_text" text-anchor="middle" dominant-baseline="middle" transform="matrix(0.013088336116752813 0 0 0.013088336116752813 -1.6396256953916637 -1.7995022260087743)">3</text>
</svg>
