<?xml version="1.0" encoding="utf-8"?>
<svg version="1.1" id="layer_1" xmlns="http://www.w3.org/2000/svg" xmlns:xlink="http://www.w3.org/1999/xlink" x="0px" y="0px" viewBox="-2.87938204725182 -3.79064 6.9165539426200935 5.667730457642601" style="enable-background:new -2.87938204725182 -3.79064 6.9165539426200935 5.667730457642601;" xml:space="preserve">
<style type="text/css">
  .no_fill_black_stroke {fill:none; stroke:#000000; stroke-width:0.02; stroke-miterlimit:10;}
  .face_text {fill:#000000; font-family:monospace;}
  .edge_text {fill:#ff0000; font-family:monospace;}
  .edge_bg {fill:#f3f3f3; stroke:#606060; stroke-width:0.02;}
</style>
<polygon class="no_fill_black_stroke" points="0.8660254037844389, -0.5 6.123233995736767e-17, -1.0000000000000002 -0.8660254037844389, -0.5 -0.8660254037844388, 0.5000000000000002 -1.8369701987210302e-16, 1.0000000000000002 0.8660254037844386, 0.5000000000000006"/>
<polygon class="no_fill_black_stroke" points="0.8660290397644131, 0.4999999999999999 1.8170855560595665, 0.8090169943749475 2.40487080835204, 2.0834935792808685e-16 1.817085556059567, -0.8090169943749473 0.8660290397644134, -0.5000000000000001"/>
<polygon class="no_fill_black_stroke" points="1.8170781046317264, 0.8090165367323463 2.2238147477075265, 1.7225619943749475 3.2183366430758005, 1.827090457642601 3.8061218953682734, 1.0180734632676536 3.399385252292474, 0.10452800562505304 2.4048633569241993, -4.5764260092617803e-07"/>
<polygon class="no_fill_black_stroke" points="3.3993866430758, 0.1045284576426011 3.9871718953682733, -0.7044885367323465 3.580435252292473, -1.6180339943749478 2.5859133569241997, -1.722562457642601 1.9981281046317263, -0.9135454632676537 2.4048647477075265, -5.625052423852139e-09"/>
<polygon class="no_fill_black_stroke" points="2.5859118953682736, -1.7225615367323466 2.1791752522924734, -2.6361069943749476 1.1846533569242, -2.7406354576426013 0.5968681046317266, -1.9316184632676539 1.0036047477075267, -1.0180730056250527 1.9981266430758007, -0.9135445423573991"/>
<polygon class="no_fill_black_stroke" points="1.18465680835204, -2.74064 0.5968715560595668, -3.5496569943749474 -0.35418496023558665, -3.24064 -0.35418496023558677, -2.24064 0.5968715560595667, -1.9316230056250525"/>
<polygon class="no_fill_black_stroke" points="-0.3541845962155611, -3.24064 -1.22021, -3.74064 -2.086235403784439, -3.24064 -2.086235403784439, -2.24064 -1.2202100000000002, -1.7406399999999997 -0.3541845962155614, -2.2406399999999995"/>
<polygon class="no_fill_black_stroke" points="-2.0862372217744256, -2.2406408542188245 -2.82938204725182, -1.5715102478599663 -2.4226454041760204, -0.6579647902173658 -1.4281235088077469, -0.7624932534850186 -1.2202118179899872, -1.740640854218824"/>
<polygon class="no_fill_black_stroke" points="-2.4226452522924733, -0.6579599943749477 -2.8293818953682734, 0.2555854632676531 -2.2415966430758, 1.0646024576426012 -1.247074747707527, 0.9600739943749478 -0.8403381046317263, 0.04652853673234704 -1.4281233569241996, -0.7624884576426011"/>
<text class="face_text" text-anchor="middle" dominant-baseline="middle" transform="matrix(0.011335460915285202 0 0 0.011335460915285202 0.0 0.0)">1</text>
<text class="face_text" text-anchor="middle" dominant-baseline="middle" transform="matrix(0.011335460915285202 0 0 0.011335460915285202 1.55422 0.0)">0</text>
<text class="face_text" text-anchor="middle" dominant-baseline="middle" transform="matrix(0.011335460915285202 0 0 0.011335460915285202 2.8116 0.913545)">6</text>
<text class="face_text" text-anchor="middle" dominant-baseline="middle" transform="matrix(0.011335460915285202 0 0 0.011335460915285202 2.99265 -0.809017)">15</text>
<text class="face_text" text-anchor="middle" dominant-baseline="middle" transform="matrix(0.011335460915285202 0 0 0.011335460915285202 1.59139 -1.82709)">7</text>
<text class="face_text" text-anchor="middle" dominant-baseline="middle" transform="matrix(0.011335460915285202 0 0 0.011335460915285202 0.334006 -2.74064)">8</text>
<text class="face_text" text-anchor="middle" dominant-baseline="middle" transform="matrix(0.011335460915285202 0 0 0.011335460915285202 -1.22021 -2.74064)">9</text>
<text class="face_text" text-anchor="middle" dominant-baseline="middle" transform="matrix(0.011335460915285202 0 0 0.011335460915285202 -1.99732 -1.39465)">3</text>
<text class="face_text" text-anchor="middle" dominant-baseline="middle" transform="matrix(0.011335460915285202 0 0 0.011335460915285202 -1.83486 0.151057)">2</text>
<rect class="edge_bg" x="0.7526744306115611" y="-0.1133546091528521" width="0.22670921830570404" height="0.22670921830570404"/>
<text class="edge_text" text-anchor="middle" dominant-baseline="middle" transform="matrix(0.011335460915285202 0 0 0.011335460915285202 0.8660290397644131 -8.427908566546547e-17)">2</text>
<rect class="edge_bg" x="1.997616121625111" y="0.2911534303920207" width="0.22670921830570404" height="0.22670921830570404"/>
<text class="edge_text" text-anchor="middle" dominant-baseline="middle" transform="matrix(0.011335460915285202 0 0 0.011335460915285202 2.110970730777963 0.4045080395448727)">11</text>
<rect class="edge_bg" x="2.7887710862388118" y="-0.06109038314407757" width="0.22670921830570404" height="0.22670921830570404"/>
<text class="edge_text" text-anchor="middle" dominant-baseline="middle" transform="matrix(0.011335460915285202 0 0 0.011335460915285202 2.9021256953916637 0.05226422600877445)">32</text>
<rect class="edge_bg" x="2.178664660069185" y="-1.431407648697725" width="0.22670921830570404" height="0.22670921830570404"/>
<text class="edge_text" text-anchor="middle" dominant-baseline="middle" transform="matrix(0.011335460915285202 0 0 0.011335460915285202 2.292019269222037 -1.3180530395448729)">35</text>
<rect class="edge_bg" x="0.7774095730529514" y="-2.449486111965378" width="0.22670921830570404" height="0.22670921830570404"/>
<text class="edge_text" text-anchor="middle" dominant-baseline="middle" transform="matrix(0.011335460915285202 0 0 0.011335460915285202 0.8907641822058034 -2.3361315028125262)">15</text>
<rect class="edge_bg" x="-0.4675392053684132" y="-2.853994609152852" width="0.22670921830570404" height="0.22670921830570404"/>
<text class="edge_text" text-anchor="middle" dominant-baseline="middle" transform="matrix(0.011335460915285202 0 0 0.011335460915285202 -0.3541845962155612 -2.74064)">17</text>
<rect class="edge_bg" x="-1.7665791290350585" y="-2.1039954633716764" width="0.22670921830570404" height="0.22670921830570404"/>
<text class="edge_text" text-anchor="middle" dominant-baseline="middle" transform="matrix(0.011335460915285202 0 0 0.011335460915285202 -1.6532245198822064 -1.9906408542188245)">18</text>
<rect class="edge_bg" x="-2.0387389137611884" y="-0.8235788351616264" width="0.22670921830570404" height="0.22670921830570404"/>
<text class="edge_text" text-anchor="middle" dominant-baseline="middle" transform="matrix(0.011335460915285202 0 0 0.011335460915285202 -1.9253843046083363 -0.7102242260087744)">3</text>
</svg>
