<?xml version="1.0" encoding="utf-8"?>
<svg version="1.1" id="layer_1" xmlns="http://www.w3.org/2000/svg" xmlns:xlink="http://www.w3.org/1999/xlink" x="0px" y="0px" viewBox="-0.916025403784439 -1.0500000000000003 3.5641008075688783 3.182675209782634" style="enable-background:new -0.916025403784439 -1.0500000000000003 3.5641008075688783 3.182675209782634;" xml:space="preserve">
<style type="text/css">
  .no_fill_black_stroke {fill:none; stroke:#000000; stroke-width:0.02; stroke-miterlimit:10;}
  .face_text {fill:#000000; font-family:monospace;}
  .edge_text {fill:#ff0000; font-family:monospace;}
  .edge_bg {fill:#f3f3f3; stroke:#606060; stroke-width:0.02;}
</style>
<polygon class="no_fill_black_stroke" points="0.8660254037844389, -0.5 6.123233995736767e-17, -1.0000000000000002 -0.8660254037844389, -0.5 -0.8660254037844388, 0.5000000000000002 -1.8369701987210302e-16, 1.0000000000000002 0.8660254037844386, 0.5000000000000006"/>
<polygon class="no_fill_black_stroke" points="0.8660245962155613, 0.5000000000000002 1.7320499999999999, 1.0000000000000002 2.5980754037844385, 0.5000000000000006 2.5980754037844394, -0.4999999999999994 1.7320500000000003, -1.0000000000000002 0.866024596215561, -0.4999999999999999"/>
<polygon class="no_fill_black_stroke" points="0.8660257782255741, 0.49999914578117544 0.12288095274817978, 1.1691297521400337 0.5296175958239797, 2.082675209782634 1.524139491192253, 1.9781467465149813 1.7320511820100128, 0.9999991457811759"/>
<text class="face_text" text-anchor="middle" dominant-baseline="middle" transform="matrix(0.0063653504195652685 0 0 0.0063653504195652685 0.0 0.0)">1</text>
<text class="face_text" text-anchor="middle" dominant-baseline="middle" transform="matrix(0.0063653504195652685 0 0 0.0063653504195652685 1.73205 0.0)">2</text>
<text class="face_text" text-anchor="middle" dominant-baseline="middle" transform="matrix(0.0063653504195652685 0 0 0.0063653504195652685 0.954943 1.34599)">3</text>
<rect class="edge_bg" x="0.8023710920199085" y="-0.0636535041956528" width="0.12730700839130538" height="0.12730700839130538"/>
<text class="edge_text" text-anchor="middle" dominant-baseline="middle" transform="matrix(0.0063653504195652685 0 0 0.0063653504195652685 0.8660245962155613 -1.0605752387249072e-16)">0</text>
<rect class="edge_bg" x="1.2353849759221407" y="0.6863456415855227" width="0.12730700839130538" height="0.12730700839130538"/>
<text class="edge_text" text-anchor="middle" dominant-baseline="middle" transform="matrix(0.0063653504195652685 0 0 0.0063653504195652685 1.2990384801177934 0.7499991457811754)">3</text>
</svg>
