<?xml version="1.0" encoding="utf-8"?>
<svg version="1.1" id="layer_1" xmlns="http://www.w3.org/2000/svg" xmlns:xlink="http://www.w3.org/1999/xlink" x="0px" y="0px" viewBox="-0.916025403784439 -1.0500000000000003 4.430130807568878 5.1" style="enable-background:new -0.916025403784439 -1.0500000000000003 4.430130807568878 5.1;" xml:space="preserve">
<style type="text/css">
  .no_fill_black_stroke {fill:none; stroke:#000000; stroke-width:0.02; stroke-miterlimit:10;}
  .face_text {fill:#000000; font-family:monospace;}
  .edge_text {fill:#ff0000; font-family:monospace;}
  .edge_bg {fill:#f3f3f3; stroke:#606060; stroke-width:0.02;}
</style>
<polygon class="no_fill_black_stroke" points="0.8660254037844389, -0.5 6.123233995736767e-17, -1.0000000000000002 -0.8660254037844389, -0.5 -0.8660254037844388, 0.5000000000000002 -1.8369701987210302e-16, 1.0000000000000002 0.8660254037844386, 0.5000000000000006"/>
<polygon class="no_fill_black_stroke" points="0.8660245962155613, 0.5000000000000002 1.7320499999999999, 1.0000000000000002 2.5980754037844385, 0.5000000000000006 2.5980754037844394, -0.4999999999999994 1.7320500000000003, -1.0000000000000002 0.866024596215561, -0.4999999999999999"/>
<polygon class="no_fill_black_stroke" points="1.7320545962155611, 1.0 1.7320545962155611, 2.0 2.59808, 2.5 3.4641054037844388, 2.0000000000000004 3.464105403784439, 1.0000000000000007 2.5980800000000004, 0.4999999999999998"/>
<polygon class="no_fill_black_stroke" points="1.73205, 1.9999999999999998 0.8660245962155612, 2.5 0.8660245962155613, 3.5 1.7320499999999999, 4.0 2.5980754037844385, 3.5000000000000004 2.5980754037844394, 2.5000000000000004"/>
<polygon class="no_fill_black_stroke" points="0.8660254037844392, 2.5 2.8327733995736766e-16, 1.9999999999999998 -0.8660254037844387, 2.5 -0.8660254037844386, 3.5 3.8347980127896974e-17, 4.0 0.8660254037844388, 3.5000000000000004"/>
<polygon class="no_fill_black_stroke" points="0.866025221774426, 2.5000008542188246 1.6091700472518202, 1.8308702478599663 1.20243340417602, 0.9173247902173656 0.20791150880774667, 1.0218532534850189 -1.8201001283912888e-07, 2.000000854218824"/>
<text class="face_text" text-anchor="middle" dominant-baseline="middle" transform="matrix(0.008860261615137756 0 0 0.008860261615137756 0.0 0.0)">1</text>
<text class="face_text" text-anchor="middle" dominant-baseline="middle" transform="matrix(0.008860261615137756 0 0 0.008860261615137756 1.73205 0.0)">2</text>
<text class="face_text" text-anchor="middle" dominant-baseline="middle" transform="matrix(0.008860261615137756 0 0 0.008860261615137756 2.59808 1.5)">4</text>
<text class="face_text" text-anchor="middle" dominant-baseline="middle" transform="matrix(0.008860261615137756 0 0 0.008860261615137756 1.73205 3.0)">10</text>
<text class="face_text" text-anchor="middle" dominant-baseline="middle" transform="matrix(0.008860261615137756 0 0 0.008860261615137756 2.22045e-16 3.0)">9</text>
<text class="face_text" text-anchor="middle" dominant-baseline="middle" transform="matrix(0.008860261615137756 0 0 0.008860261615137756 0.777108 1.65401)">3</text>
<rect class="edge_bg" x="0.7774219800641837" y="-0.08860261615137767" width="0.17720523230275512" height="0.17720523230275512"/>
<text class="edge_text" text-anchor="middle" dominant-baseline="middle" transform="matrix(0.008860261615137756 0 0 0.008860261615137756 0.8660245962155613 -1.0605752387249072e-16)">0</text>
<rect class="edge_bg" x="2.076464681956403" y="0.6613973838486222" width="0.17720523230275512" height="0.17720523230275512"/>
<text class="edge_text" text-anchor="middle" dominant-baseline="middle" transform="matrix(0.008860261615137756 0 0 0.008860261615137756 2.1650672981077808 0.7499999999999998)">5</text>
<rect class="edge_bg" x="2.076460085740842" y="2.1613973838486222" width="0.17720523230275512" height="0.17720523230275512"/>
<text class="edge_text" text-anchor="middle" dominant-baseline="middle" transform="matrix(0.008860261615137756 0 0 0.008860261615137756 2.1650627018922197 2.25)">21</text>
<rect class="edge_bg" x="0.7774227876330615" y="2.9113973838486222" width="0.17720523230275512" height="0.17720523230275512"/>
<text class="edge_text" text-anchor="middle" dominant-baseline="middle" transform="matrix(0.008860261615137756 0 0 0.008860261615137756 0.866025403784439 3.0)">20</text>
<rect class="edge_bg" x="0.3444099037308292" y="2.161398238067447" width="0.17720523230275512" height="0.17720523230275512"/>
<text class="edge_text" text-anchor="middle" dominant-baseline="middle" transform="matrix(0.008860261615137756 0 0 0.008860261615137756 0.43301251988220674 2.2500008542188246)">18</text>
</svg>
