<?xml version="1.0" encoding="utf-8"?>
<svg version="1.1" id="layer_1" xmlns="http://www.w3.org/2000/svg" xmlns:xlink="http://www.w3.org/1999/xlink" x="0px" y="0px" viewBox="-1.0860876162951538 -1.0500000000000003 4.600193020079593 6.182675209782634" style="enable-background:new -1.0860876162951538 -1.0500000000000003 4.600193020079593 6.182675209782634;" xml:space="preserve">
<style type="text/css">
  .no_fill_black_stroke {fill:none; stroke:#000000; stroke-width:0.02; stroke-miterlimit:10;}
  .face_text {fill:#000000; font-family:monospace;}
  .edge_text {fill:#ff0000; font-family:monospace;}
  .edge_bg {fill:#f3f3f3; stroke:#606060; stroke-width:0.02;}
</style>
<polygon class="no_fill_black_stroke" points="0.8660254037844389, -0.5 6.123233995736767e-17, -1.0000000000000002 -0.8660254037844389, -0.5 -0.8660254037844388, 0.5000000000000002 -1.8369701987210302e-16, 1.0000000000000002 0.8660254037844386, 0.5000000000000006"/>
<polygon class="no_fill_black_stroke" points="0.8660245962155613, 0.5000000000000002 1.7320499999999999, 1.0000000000000002 2.5980754037844385, 0.5000000000000006 2.5980754037844394, -0.4999999999999994 1.7320500000000003, -1.0000000000000002 0.866024596215561, -0.4999999999999999"/>
<polygon class="no_fill_black_stroke" points="1.7320545962155611, 1.0 1.7320545962155611, 2.0 2.59808, 2.5 3.4641054037844388, 2.0000000000000004 3.464105403784439, 1.0000000000000007 2.5980800000000004, 0.4999999999999998"/>
<polygon class="no_fill_black_stroke" points="1.73205, 1.9999999999999998 0.8660245962155612, 2.5 0.8660245962155613, 3.5 1.7320499999999999, 4.0 2.5980754037844385, 3.5000000000000004 2.5980754037844394, 2.5000000000000004"/>
<polygon class="no_fill_black_stroke" points="0.8660257782255741, 3.499999145781175 0.12288095274817978, 4.169129752140034 0.5296175958239797, 5.082675209782634 1.524139491192253, 4.978146746514981 1.7320511820100128, 3.9999991457811754"/>
<polygon class="no_fill_black_stroke" points="0.8660254162951537, 3.4999969943749476 0.6581137254773943, 2.521849393641142 -0.2929427908177592, 2.212832399266194 -1.0360876162951538, 2.8819630056250527 -0.8281759254773944, 3.8601106063588584 0.12288059081775862, 4.169127600733806"/>
<polygon class="no_fill_black_stroke" points="0.6581135560595668, 2.5218569943749474 1.24589880835204, 1.71284 0.6581135560595668, 0.9038230056250526 -0.2929429602355867, 1.21284 -0.2929429602355868, 2.21284"/>
<text class="face_text" text-anchor="middle" dominant-baseline="middle" transform="matrix(0.009200386040159186 0 0 0.009200386040159186 0.0 0.0)">1</text>
<text class="face_text" text-anchor="middle" dominant-baseline="middle" transform="matrix(0.009200386040159186 0 0 0.009200386040159186 1.73205 0.0)">2</text>
<text class="face_text" text-anchor="middle" dominant-baseline="middle" transform="matrix(0.009200386040159186 0 0 0.009200386040159186 2.59808 1.5)">4</text>
<text class="face_text" text-anchor="middle" dominant-baseline="middle" transform="matrix(0.009200386040159186 0 0 0.009200386040159186 1.73205 3.0)">10</text>
<text class="face_text" text-anchor="middle" dominant-baseline="middle" transform="matrix(0.009200386040159186 0 0 0.009200386040159186 0.954943 4.34599)">18</text>
<text class="face_text" text-anchor="middle" dominant-baseline="middle" transform="matrix(0.009200386040159186 0 0 0.009200386040159186 -0.0850311 3.19098)">9</text>
<text class="face_text" text-anchor="middle" dominant-baseline="middle" transform="matrix(0.009200386040159186 0 0 0.009200386040159186 0.395248 1.71284)">3</text>
<rect class="edge_bg" x="0.7740207358139695" y="-0.09200386040159197" width="0.18400772080318373" height="0.18400772080318373"/>
<text class="edge_text" text-anchor="middle" dominant-baseline="middle" transform="matrix(0.009200386040159186 0 0 0.009200386040159186 0.8660245962155613 -1.0605752387249072e-16)">0</text>
<rect class="edge_bg" x="2.073063437706189" y="0.657996139598408" width="0.18400772080318373" height="0.18400772080318373"/>
<text class="edge_text" text-anchor="middle" dominant-baseline="middle" transform="matrix(0.009200386040159186 0 0 0.009200386040159186 2.1650672981077808 0.7499999999999998)">5</text>
<rect class="edge_bg" x="2.073058841490628" y="2.157996139598408" width="0.18400772080318373" height="0.18400772080318373"/>
<text class="edge_text" text-anchor="middle" dominant-baseline="middle" transform="matrix(0.009200386040159186 0 0 0.009200386040159186 2.1650627018922197 2.25)">21</text>
<rect class="edge_bg" x="1.2070346197162016" y="3.657995285379583" width="0.18400772080318373" height="0.18400772080318373"/>
<text class="edge_text" text-anchor="middle" dominant-baseline="middle" transform="matrix(0.009200386040159186 0 0 0.009200386040159186 1.2990384801177934 3.749999145781175)">43</text>
<rect class="edge_bg" x="0.40244914315486474" y="3.742558437152785" width="0.18400772080318373" height="0.18400772080318373"/>
<text class="edge_text" text-anchor="middle" dominant-baseline="middle" transform="matrix(0.009200386040159186 0 0 0.009200386040159186 0.4944530035564566 3.8345622975543767)">41</text>
<rect class="edge_bg" x="0.09058143751039818" y="2.275344636785882" width="0.18400772080318373" height="0.18400772080318373"/>
<text class="edge_text" text-anchor="middle" dominant-baseline="middle" transform="matrix(0.009200386040159186 0 0 0.009200386040159186 0.18258529791199005 2.3673484971874736)">18</text>
</svg>
