<?xml version="1.0" encoding="utf-8"?>
<svg version="1.1" id="layer_1" xmlns="http://www.w3.org/2000/svg" xmlns:xlink="http://www.w3.org/1999/xlink" x="0px" y="0px" viewBox="-1.5094268953682735 -1.0500000000000003 5.023532299152713 6.991695457642601" style="enable-background:new -1.5094268953682735 -1.0500000000000003 5.023532299152713 6.991695457642601;" xml:space="preserve">
<style type="text/css">
  .no_fill_black_stroke {fill:none; stroke:#000000; stroke-width:0.02; stroke-miterlimit:10;}
  .face_text {fill:#000000; font-family:monospace;}
  .edge_text {fill:#ff0000; font-family:monospace;}
  .edge_bg {fill:#f3f3f3; stroke:#606060; stroke-width:0.02;}
</style>
<polygon class="no_fill_black_stroke" points="0.8660254037844389, -0.5 6.123233995736767e-17, -1.0000000000000002 -0.8660254037844389, -0.5 -0.8660254037844388, 0.5000000000000002 -1.8369701987210302e-16, 1.0000000000000002 0.8660254037844386, 0.5000000000000006"/>
<polygon class="no_fill_black_stroke" points="0.8660245962155613, 0.5000000000000002 1.7320499999999999, 1.0000000000000002 2.5980754037844385, 0.5000000000000006 2.5980754037844394, -0.4999999999999994 1.7320500000000003, -1.0000000000000002 0.866024596215561, -0.4999999999999999"/>
<polygon class="no_fill_black_stroke" points="1.7320545962155611, 1.0 1.7320545962155611, 2.0 2.59808, 2.5 3.4641054037844388, 2.0000000000000004 3.464105403784439, 1.0000000000000007 2.5980800000000004, 0.4999999999999998"/>
<polygon class="no_fill_black_stroke" points="1.73205, 1.9999999999999998 0.8660245962155612, 2.5 0.8660245962155613, 3.5 1.7320499999999999, 4.0 2.5980754037844385, 3.5000000000000004 2.5980754037844394, 2.5000000000000004"/>
<polygon class="no_fill_black_stroke" points="0.8660257782255741, 3.499999145781175 0.12288095274817978, 4.169129752140034 0.5296175958239797, 5.082675209782634 1.524139491192253, 4.978146746514981 1.7320511820100128, 3.9999991457811754"/>
<polygon class="no_fill_black_stroke" points="0.12288025229247324, 4.169133005625053 -0.8716416430758002, 4.064604542357399 -1.4594268953682734, 4.8736215367323465 -1.0526902522924733, 5.787166994374948 -0.05816835692419936, 5.8916954576426015 0.5296168953682735, 5.082678463267654"/>
<polygon class="no_fill_black_stroke" points="0.12288064307580032, 4.169135457642601 0.7106658953682735, 3.3601184632676535 0.30392925229247325, 2.4465730056250523 -0.6905926430758001, 2.342044542357399 -1.2783778953682736, 3.1510615367323465 -0.8716412522924734, 4.064606994374948"/>
<polygon class="no_fill_black_stroke" points="0.30392940417602005, 2.4465652097826345 0.7106660472518203, 1.5330197521400337 -0.03247877822557409, 0.8638891457811756 -0.8985041820100126, 1.3638891457811753 -0.6905924911922536, 2.3420367465149807"/>
<text class="face_text" text-anchor="middle" dominant-baseline="middle" transform="matrix(0.010047064598305426 0 0 0.010047064598305426 0.0 0.0)">1</text>
<text class="face_text" text-anchor="middle" dominant-baseline="middle" transform="matrix(0.010047064598305426 0 0 0.010047064598305426 1.73205 0.0)">2</text>
<text class="face_text" text-anchor="middle" dominant-baseline="middle" transform="matrix(0.010047064598305426 0 0 0.010047064598305426 2.59808 1.5)">4</text>
<text class="face_text" text-anchor="middle" dominant-baseline="middle" transform="matrix(0.010047064598305426 0 0 0.010047064598305426 1.73205 3.0)">10</text>
<text class="face_text" text-anchor="middle" dominant-baseline="middle" transform="matrix(0.010047064598305426 0 0 0.010047064598305426 0.954943 4.34599)">18</text>
<text class="face_text" text-anchor="middle" dominant-baseline="middle" transform="matrix(0.010047064598305426 0 0 0.010047064598305426 -0.464905 4.97815)">17</text>
<text class="face_text" text-anchor="middle" dominant-baseline="middle" transform="matrix(0.010047064598305426 0 0 0.010047064598305426 -0.283856 3.25559)">9</text>
<text class="face_text" text-anchor="middle" dominant-baseline="middle" transform="matrix(0.010047064598305426 0 0 0.010047064598305426 -0.121396 1.70988)">3</text>
<rect class="edge_bg" x="0.765553950232507" y="-0.10047064598305437" width="0.20094129196610852" height="0.20094129196610852"/>
<text class="edge_text" text-anchor="middle" dominant-baseline="middle" transform="matrix(0.010047064598305426 0 0 0.010047064598305426 0.8660245962155613 -1.0605752387249072e-16)">0</text>
<rect class="edge_bg" x="2.0645966521247265" y="0.6495293540169456" width="0.20094129196610852" height="0.20094129196610852"/>
<text class="edge_text" text-anchor="middle" dominant-baseline="middle" transform="matrix(0.010047064598305426 0 0 0.010047064598305426 2.1650672981077808 0.7499999999999998)">5</text>
<rect class="edge_bg" x="2.0645920559091655" y="2.149529354016946" width="0.20094129196610852" height="0.20094129196610852"/>
<text class="edge_text" text-anchor="middle" dominant-baseline="middle" transform="matrix(0.010047064598305426 0 0 0.010047064598305426 2.1650627018922197 2.25)">21</text>
<rect class="edge_bg" x="1.1985678341347392" y="3.6495284997981208" width="0.20094129196610852" height="0.20094129196610852"/>
<text class="edge_text" text-anchor="middle" dominant-baseline="middle" transform="matrix(0.010047064598305426 0 0 0.010047064598305426 1.2990384801177934 3.749999145781175)">43</text>
<rect class="edge_bg" x="0.22577792784731904" y="4.525435088463299" width="0.20094129196610852" height="0.20094129196610852"/>
<text class="edge_text" text-anchor="middle" dominant-baseline="middle" transform="matrix(0.010047064598305426 0 0 0.010047064598305426 0.3262485738303733 4.625905734446353)">42</text>
<rect class="edge_bg" x="-0.47485095059139065" y="4.016400580025721" width="0.20094129196610852" height="0.20094129196610852"/>
<text class="edge_text" text-anchor="middle" dominant-baseline="middle" transform="matrix(0.010047064598305426 0 0 0.010047064598305426 -0.3743803046083364 4.116871226008775)">40</text>
<rect class="edge_bg" x="-0.2938021894911709" y="2.293830332165754" width="0.20094129196610852" height="0.20094129196610852"/>
<text class="edge_text" text-anchor="middle" dominant-baseline="middle" transform="matrix(0.010047064598305426 0 0 0.010047064598305426 -0.1933315435081166 2.394300978148808)">18</text>
</svg>
