<?xml version="1.0" encoding="utf-8"?>
<svg version="1.1" id="layer_1" xmlns="http://www.w3.org/2000/svg" xmlns:xlink="http://www.w3.org/1999/xlink" x="0px" y="0px" viewBox="-2.4604809602355866 -1.0500000000000003 5.974586364020025 6.991695457642601" style="enable-background:new -2.4604809602355866 -1.0500000000000003 5.974586364020025 6.991695457642601;" xml:space="preserve">
<style type="text/css">
  .no_fill_black_stroke {fill:none; stroke:#000000; stroke-width:0.02; stroke-miterlimit:10;}
  .face_text {fill:#000000; font-family:monospace;}
  .edge_text {fill:#ff0000; font-family:monospace;}
  .edge_bg {fill:#f3f3f3; stroke:#606060; stroke-width:0.02;}
</style>
<polygon class="no_fill_black_stroke" points="0.8660254037844389, -0.5 6.123233995736767e-17, -1.0000000000000002 -0.8660254037844389, -0.5 -0.8660254037844388, 0.5000000000000002 -1.8369701987210302e-16, 1.0000000000000002 0.8660254037844386, 0.5000000000000006"/>
<polygon class="no_fill_black_stroke" points="0.8660245962155613, 0.5000000000000002 1.7320499999999999, 1.0000000000000002 2.5980754037844385, 0.5000000000000006 2.5980754037844394, -0.4999999999999994 1.7320500000000003, -1.0000000000000002 0.866024596215561, -0.4999999999999999"/>
<polygon class="no_fill_black_stroke" points="1.7320545962155611, 1.0 1.7320545962155611, 2.0 2.59808, 2.5 3.4641054037844388, 2.0000000000000004 3.464105403784439, 1.0000000000000007 2.5980800000000004, 0.4999999999999998"/>
<polygon class="no_fill_black_stroke" points="1.73205, 1.9999999999999998 0.8660245962155612, 2.5 0.8660245962155613, 3.5 1.7320499999999999, 4.0 2.5980754037844385, 3.5000000000000004 2.5980754037844394, 2.5000000000000004"/>
<polygon class="no_fill_black_stroke" points="0.8660257782255741, 3.499999145781175 0.12288095274817978, 4.169129752140034 0.5296175958239797, 5.082675209782634 1.524139491192253, 4.978146746514981 1.7320511820100128, 3.9999991457811754"/>
<polygon class="no_fill_black_stroke" points="0.12288025229247324, 4.169133005625053 -0.8716416430758002, 4.064604542357399 -1.4594268953682734, 4.8736215367323465 -1.0526902522924733, 5.787166994374948 -0.05816835692419936, 5.8916954576426015 0.5296168953682735, 5.082678463267654"/>
<polygon class="no_fill_black_stroke" points="-0.8716391916479602, 4.0646 -1.4594244439404334, 3.255583005625053 -2.410480960235587, 3.5646000000000004 -2.410480960235587, 4.5646 -1.4594244439404336, 4.873616994374948"/>
<polygon class="no_fill_black_stroke" points="-0.8716416430758002, 4.064605457642601 0.12288025229247324, 3.9600769943749476 0.5296168953682735, 3.046531536732347 -0.05816835692419969, 2.237514542357399 -1.0526902522924733, 2.3420430056250527 -1.4594268953682736, 3.255588463267653"/>
<polygon class="no_fill_black_stroke" points="-0.0581685088077466, 2.237506746514981 0.1497431820100127, 1.2593591457811755 -0.7162822217744258, 0.7593591457811755 -1.45942704725182, 1.4284897521400337 -1.0526904041760203, 2.342035209782634"/>
<text class="face_text" text-anchor="middle" dominant-baseline="middle" transform="matrix(0.011949172728040051 0 0 0.011949172728040051 0.0 0.0)">1</text>
<text class="face_text" text-anchor="middle" dominant-baseline="middle" transform="matrix(0.011949172728040051 0 0 0.011949172728040051 1.73205 0.0)">2</text>
<text class="face_text" text-anchor="middle" dominant-baseline="middle" transform="matrix(0.011949172728040051 0 0 0.011949172728040051 2.59808 1.5)">4</text>
<text class="face_text" text-anchor="middle" dominant-baseline="middle" transform="matrix(0.011949172728040051 0 0 0.011949172728040051 1.73205 3.0)">10</text>
<text class="face_text" text-anchor="middle" dominant-baseline="middle" transform="matrix(0.011949172728040051 0 0 0.011949172728040051 0.954943 4.34599)">18</text>
<text class="face_text" text-anchor="middle" dominant-baseline="middle" transform="matrix(0.011949172728040051 0 0 0.011949172728040051 -0.464905 4.97815)">17</text>
<text class="face_text" text-anchor="middle" dominant-baseline="middle" transform="matrix(0.011949172728040051 0 0 0.011949172728040051 -1.72229 4.0646)">8</text>
<text class="face_text" text-anchor="middle" dominant-baseline="middle" transform="matrix(0.011949172728040051 0 0 0.011949172728040051 -0.464905 3.15106)">9</text>
<text class="face_text" text-anchor="middle" dominant-baseline="middle" transform="matrix(0.011949172728040051 0 0 0.011949172728040051 -0.627365 1.60535)">3</text>
<rect class="edge_bg" x="0.7465328689351608" y="-0.11949172728040061" width="0.238983454560801" height="0.238983454560801"/>
<text class="edge_text" text-anchor="middle" dominant-baseline="middle" transform="matrix(0.011949172728040051 0 0 0.011949172728040051 0.8660245962155613 -1.0605752387249072e-16)">0</text>
<rect class="edge_bg" x="2.0455755708273804" y="0.6305082727195993" width="0.238983454560801" height="0.238983454560801"/>
<text class="edge_text" text-anchor="middle" dominant-baseline="middle" transform="matrix(0.011949172728040051 0 0 0.011949172728040051 2.1650672981077808 0.7499999999999998)">5</text>
<rect class="edge_bg" x="2.0455709746118194" y="2.1305082727195996" width="0.238983454560801" height="0.238983454560801"/>
<text class="edge_text" text-anchor="middle" dominant-baseline="middle" transform="matrix(0.011949172728040051 0 0 0.011949172728040051 2.1650627018922197 2.25)">21</text>
<rect class="edge_bg" x="1.1795467528373929" y="3.6305074185007746" width="0.238983454560801" height="0.238983454560801"/>
<text class="edge_text" text-anchor="middle" dominant-baseline="middle" transform="matrix(0.011949172728040051 0 0 0.011949172728040051 1.2990384801177934 3.749999145781175)">43</text>
<rect class="edge_bg" x="0.2067568465499728" y="4.506414007165953" width="0.238983454560801" height="0.238983454560801"/>
<text class="edge_text" text-anchor="middle" dominant-baseline="middle" transform="matrix(0.011949172728040051 0 0 0.011949172728040051 0.3262485738303733 4.625905734446353)">42</text>
<rect class="edge_bg" x="-1.2850235450745973" y="4.349616769907073" width="0.238983454560801" height="0.238983454560801"/>
<text class="edge_text" text-anchor="middle" dominant-baseline="middle" transform="matrix(0.011949172728040051 0 0 0.011949172728040051 -1.1655318177941967 4.469108497187474)">38</text>
<rect class="edge_bg" x="-1.2850259965024373" y="3.5406052331747273" width="0.238983454560801" height="0.238983454560801"/>
<text class="edge_text" text-anchor="middle" dominant-baseline="middle" transform="matrix(0.011949172728040051 0 0 0.011949172728040051 -1.1655342692220367 3.6600969604551277)">17</text>
<rect class="edge_bg" x="-0.6749211837722837" y="2.1702792508684077" width="0.238983454560801" height="0.238983454560801"/>
<text class="edge_text" text-anchor="middle" dominant-baseline="middle" transform="matrix(0.011949172728040051 0 0 0.011949172728040051 -0.5554294564918832 2.289770978148808)">18</text>
</svg>
