<?xml version="1.0" encoding="utf-8"?>
<svg version="1.1" id="layer_1" xmlns="http://www.w3.org/2000/svg" xmlns:xlink="http://www.w3.org/1999/xlink" x="0px" y="0px" viewBox="-3.3155265162951535 -1.0500000000000003 7.502447324647193 5.034447600733806" style="enable-background:new -3.3155265162951535 -1.0500000000000003 7.502447324647193 5.034447600733806;" xml:space="preserve">
<style type="text/css">
  .no_fill_black_stroke {fill:none; stroke:#000000; stroke-width:0.02; stroke-miterlimit:10;}
  .face_text {fill:#000000; font-family:monospace;}
  .edge_text {fill:#ff0000; font-family:monospace;}
  .edge_bg {fill:#f3f3f3; stroke:#606060; stroke-width:0.02;}
</style>
<polygon class="no_fill_black_stroke" points="0.8660254037844389, -0.5 6.123233995736767e-17, -1.0000000000000002 -0.8660254037844389, -0.5 -0.8660254037844388, 0.5000000000000002 -1.8369701987210302e-16, 1.0000000000000002 0.8660254037844386, 0.5000000000000006"/>
<polygon class="no_fill_black_stroke" points="0.8660245962155613, 0.5000000000000002 1.7320499999999999, 1.0000000000000002 2.5980754037844385, 0.5000000000000006 2.5980754037844394, -0.4999999999999994 1.7320500000000003, -1.0000000000000002 0.866024596215561, -0.4999999999999999"/>
<polygon class="no_fill_black_stroke" points="2.5980790397644133, 0.4999999999999999 3.5491355560595665, 0.8090169943749475 4.1369208083520395, 2.0834935792808685e-16 3.549135556059567, -0.8090169943749473 2.5980790397644133, -0.5000000000000001"/>
<polygon class="no_fill_black_stroke" points="2.598078309182241, 0.5000023992661942 1.8549334837048463, 1.1691330056250524 2.0628451745226055, 2.1472806063588585 3.0139016908177587, 2.456297600733806 3.7570465162951536, 1.7871669943749477 3.549134825477394, 0.8090193936411415"/>
<polygon class="no_fill_black_stroke" points="1.8549264911922534, 1.1691332534850192 0.8604045958239803, 1.0646047902173654 0.45366795274817984, 1.9781502478599662 1.1968127782255742, 2.647280854218825 2.0628381820100126, 2.1472808542188244"/>
<polygon class="no_fill_black_stroke" points="0.4536726908177595, 1.9781523992661945 -0.4973838254773941, 2.2871693936411415 -0.7052955162951537, 3.265316994374948 0.037849309182240165, 3.934447600733806 0.9889058254773945, 3.6254306063588584 1.196817516295154, 2.647283005625053"/>
<polygon class="no_fill_black_stroke" points="-0.49738181798998726, 2.2871691457811756 -1.3634072217744257, 1.7871691457811756 -2.10655204725182, 2.456299752140034 -1.6998154041760203, 3.3698452097826346 -0.7052935088077469, 3.2653167465149817"/>
<polygon class="no_fill_black_stroke" points="-1.3634134837048464, 1.7871669943749475 -1.5713251745226056, 0.8090193936411417 -2.522381690817759, 0.5000023992661942 -3.2655265162951537, 1.1691330056250524 -3.0576148254773945, 2.1472806063588585 -2.1065583091822413, 2.456297600733806"/>
<polygon class="no_fill_black_stroke" points="-1.5713244439404332, 0.8090169943749478 -0.9835391916479601, 4.8036e-16 -1.5713244439404332, -0.8090169943749469 -2.5223809602355867, -0.4999999999999996 -2.5223809602355867, 0.5000000000000003"/>
<text class="face_text" text-anchor="middle" dominant-baseline="middle" transform="matrix(0.010068895201467611 0 0 0.010068895201467611 0.0 0.0)">1</text>
<text class="face_text" text-anchor="middle" dominant-baseline="middle" transform="matrix(0.010068895201467611 0 0 0.010068895201467611 1.73205 0.0)">2</text>
<text class="face_text" text-anchor="middle" dominant-baseline="middle" transform="matrix(0.010068895201467611 0 0 0.010068895201467611 3.28627 0.0)">5</text>
<text class="face_text" text-anchor="middle" dominant-baseline="middle" transform="matrix(0.010068895201467611 0 0 0.010068895201467611 2.80599 1.47815)">4</text>
<text class="face_text" text-anchor="middle" dominant-baseline="middle" transform="matrix(0.010068895201467611 0 0 0.010068895201467611 1.28573 1.80129)">3</text>
<text class="face_text" text-anchor="middle" dominant-baseline="middle" transform="matrix(0.010068895201467611 0 0 0.010068895201467611 0.245761 2.9563)">9</text>
<text class="face_text" text-anchor="middle" dominant-baseline="middle" transform="matrix(0.010068895201467611 0 0 0.010068895201467611 -1.27449 2.63316)">8</text>
<text class="face_text" text-anchor="middle" dominant-baseline="middle" transform="matrix(0.010068895201467611 0 0 0.010068895201467611 -2.31447 1.47815)">7</text>
<text class="face_text" text-anchor="middle" dominant-baseline="middle" transform="matrix(0.010068895201467611 0 0 0.010068895201467611 -1.83419 4.8036e-16)">0</text>
<rect class="edge_bg" x="0.7653356442008852" y="-0.10068895201467623" width="0.20137790402935224" height="0.20137790402935224"/>
<text class="edge_text" text-anchor="middle" dominant-baseline="middle" transform="matrix(0.010068895201467611 0 0 0.010068895201467611 0.8660245962155613 -1.0605752387249072e-16)">0</text>
<rect class="edge_bg" x="2.497390087749737" y="-0.1006889520146762" width="0.20137790402935224" height="0.20137790402935224"/>
<text class="edge_text" text-anchor="middle" dominant-baseline="middle" transform="matrix(0.010068895201467611 0 0 0.010068895201467611 2.5980790397644133 -8.427908566546547e-17)">7</text>
<rect class="edge_bg" x="2.9729176153151413" y="0.5538219444389919" width="0.20137790402935224" height="0.20137790402935224"/>
<text class="edge_text" text-anchor="middle" dominant-baseline="middle" transform="matrix(0.010068895201467611 0 0 0.010068895201467611 3.0736065673298176 0.654510896453668)">8</text>
<rect class="edge_bg" x="1.858193384586457" y="1.5575181018372457" width="0.20137790402935224" height="0.20137790402935224"/>
<text class="edge_text" text-anchor="middle" dominant-baseline="middle" transform="matrix(0.010068895201467611 0 0 0.010068895201467611 1.9588823366011332 1.6582070538519218)">6</text>
<rect class="edge_bg" x="0.7245561515417805" y="2.2120287504309473" width="0.20137790402935224" height="0.20137790402935224"/>
<text class="edge_text" text-anchor="middle" dominant-baseline="middle" transform="matrix(0.010068895201467611 0 0 0.010068895201467611 0.8252451035564566 2.3127177024456236)">18</text>
<rect class="edge_bg" x="-0.7020266154135429" y="2.675553994133402" width="0.20137790402935224" height="0.20137790402935224"/>
<text class="edge_text" text-anchor="middle" dominant-baseline="middle" transform="matrix(0.010068895201467611 0 0 0.010068895201467611 -0.6013376633988669 2.7762429461480784)">17</text>
<rect class="edge_bg" x="-1.8356748484582195" y="2.0210433455397006" width="0.20137790402935224" height="0.20137790402935224"/>
<text class="edge_text" text-anchor="middle" dominant-baseline="middle" transform="matrix(0.010068895201467611 0 0 0.010068895201467611 -1.7349858964435434 2.121732297554377)">15</text>
<rect class="edge_bg" x="-2.147541654102686" y="0.5538195451727981" width="0.20137790402935224" height="0.20137790402935224"/>
<text class="edge_text" text-anchor="middle" dominant-baseline="middle" transform="matrix(0.010068895201467611 0 0 0.010068895201467611 -2.04685270208801 0.6545084971874742)">13</text>
</svg>
