<?xml version="1.0" encoding="utf-8"?>
<svg version="1.1" xmlns="http://www.w3.org/2000/svg" viewBox="-1.879626285094611 -0.5933012850946113 3.7026282720814416 2.0526282720814417" style="enable-background:new -1.879626285094611 -0.5933012850946113 3.7026282720814416 2.0526282720814417;">
<style type="text/css">
  .face_stroke {fill:none; stroke:#000000; stroke-width:0.02; stroke-miterlimit:10;}
  .face_text {fill:#000000; font-family:monospace;}
  .edge_text {fill:#ff0000; font-family:monospace;}
  .edge_bg {fill:#f3f3f3; stroke:#606060; stroke-width:0.01;}
</style>
<polygon class="face_stroke" points="0.288675134594813,-0.5 -0.5773502691896258,-7.07050159149938e-17 0.288675134594813,0.5"/>
<polygon class="face_stroke" points="0.28867486540518683,0.4999999999999999 1.1547002691896258,1.414100318299876e-16 0.28867486540518755,-0.5000000000000003"/>
<polygon class="face_stroke" points="0.2886752981077807,0.5000002981077805 0.7886752981077807,1.3660257018922195 1.6547007018922195,0.8660257018922193 1.1547007018922193,2.981077805719323e-07"/>
<polygon class="face_stroke" points="0.28867500000000007,0.4999997308103742 -0.21132499999999999,1.3660251345948131 0.7886749999999999,1.3660251345948131"/>
<polygon class="face_stroke" points="0.2886750000000001,0.49999986540518715 -0.7113250000000001,0.49999986540518715 -0.21132500000000012,1.3660252691896257"/>
<polygon class="face_stroke" points="-0.711325,0.4999997308103742 -1.211325,1.3660251345948131 -0.2113250000000001,1.3660251345948131"/>
<polygon class="face_stroke" points="-0.7113249999999999,0.49999986540518715 -1.711325,0.49999986540518715 -1.211325,1.3660252691896257"/>
<polygon class="face_stroke" points="-0.7113249999999999,0.5 -0.7113249999999999,-0.5 -1.711325,-0.5000000000000001 -1.711325,0.5"/>
<text class="face_text" text-anchor="middle" dominant-baseline="middle" transform="matrix(0.004105256544162884 0 0 0.004105256544162884 0.0 0.0)">0</text>
<text class="face_text" text-anchor="middle" dominant-baseline="middle" transform="matrix(0.004105256544162884 0 0 0.004105256544162884 0.57735 0.0)">1</text>
<text class="face_text" text-anchor="middle" dominant-baseline="middle" transform="matrix(0.004105256544162884 0 0 0.004105256544162884 0.971688 0.683013)">13</text>
<text class="face_text" text-anchor="middle" dominant-baseline="middle" transform="matrix(0.004105256544162884 0 0 0.004105256544162884 0.288675 1.07735)">16</text>
<text class="face_text" text-anchor="middle" dominant-baseline="middle" transform="matrix(0.004105256544162884 0 0 0.004105256544162884 -0.211325 0.788675)">7</text>
<text class="face_text" text-anchor="middle" dominant-baseline="middle" transform="matrix(0.004105256544162884 0 0 0.004105256544162884 -0.711325 1.07735)">6</text>
<text class="face_text" text-anchor="middle" dominant-baseline="middle" transform="matrix(0.004105256544162884 0 0 0.004105256544162884 -1.211325 0.788675)">5</text>
<text class="face_text" text-anchor="middle" dominant-baseline="middle" transform="matrix(0.004105256544162884 0 0 0.004105256544162884 -1.211325 -0.0)">4</text>
<rect class="edge_bg" x="0.24762229996355822" y="-0.04105256544162887" width="0.08210513088325767" height="0.08210513088325767"/>
<text class="edge_text" text-anchor="middle" dominant-baseline="middle" transform="matrix(0.004105256544162884 0 0 0.004105256544162884 0.28867486540518705 -3.535250795749691e-17)">3</text>
<rect class="edge_bg" x="0.6806354345583712" y="0.2089477326661517" width="0.08210513088325767" height="0.08210513088325767"/>
<text class="edge_text" text-anchor="middle" dominant-baseline="middle" transform="matrix(0.004105256544162884 0 0 0.004105256544162884 0.721688 0.2500002981077805)">16</text>
<rect class="edge_bg" x="0.4976224345583713" y="0.8919598672609648" width="0.08210513088325767" height="0.08210513088325767"/>
<text class="edge_text" text-anchor="middle" dominant-baseline="middle" transform="matrix(0.004105256544162884 0 0 0.004105256544162884 0.5386750000000001 0.9330124327025936)">21</text>
<rect class="edge_bg" x="-0.0023775654416287387" y="0.8919600018557776" width="0.08210513088325767" height="0.08210513088325767"/>
<text class="edge_text" text-anchor="middle" dominant-baseline="middle" transform="matrix(0.004105256544162884 0 0 0.004105256544162884 0.0386750000000001 0.9330125672974064)">20</text>
<rect class="edge_bg" x="-0.5023775654416287" y="0.8919598672609648" width="0.08210513088325767" height="0.08210513088325767"/>
<text class="edge_text" text-anchor="middle" dominant-baseline="middle" transform="matrix(0.004105256544162884 0 0 0.004105256544162884 -0.4613249999999999 0.9330124327025936)">7</text>
<rect class="edge_bg" x="-1.0023775654416287" y="0.8919600018557776" width="0.08210513088325767" height="0.08210513088325767"/>
<text class="edge_text" text-anchor="middle" dominant-baseline="middle" transform="matrix(0.004105256544162884 0 0 0.004105256544162884 -0.9613249999999999 0.9330125672974064)">8</text>
<rect class="edge_bg" x="-1.252377565441629" y="0.4589474345583713" width="0.08210513088325767" height="0.08210513088325767"/>
<text class="edge_text" text-anchor="middle" dominant-baseline="middle" transform="matrix(0.004105256544162884 0 0 0.004105256544162884 -1.211325 0.5000000000000001)">5</text>
</svg>
