<?xml version="1.0" encoding="utf-8"?>
<svg version="1.1" xmlns="http://www.w3.org/2000/svg" viewBox="-0.8046262634594814 -1.6 2.052627796108588 2.2" style="enable-background:new -0.8046262634594814 -1.6 2.052627796108588 2.2;">
<style type="text/css">
  .face_stroke {fill:none; stroke:#000000; stroke-width:0.02; stroke-miterlimit:10;}
  .face_text {fill:#000000; font-family:monospace;}
  .edge_text {fill:#ff0000; font-family:monospace;}
  .edge_bg {fill:#f3f3f3; stroke:#606060; stroke-width:0.01;}
</style>
<polygon class="face_stroke" points="0.288675134594813,-0.5 -0.5773502691896258,-7.07050159149938e-17 0.288675134594813,0.5"/>
<polygon class="face_stroke" points="0.28867486540518683,0.4999999999999999 1.1547002691896258,1.414100318299876e-16 0.28867486540518755,-0.5000000000000003"/>
<polygon class="face_stroke" points="1.1547001345948131,0.0 1.1547001345948131,-1.0 0.2886747308103742,-0.5000000000000001"/>
<polygon class="face_stroke" points="1.1547002691896258,-1.0 0.2886748654051872,-1.5 0.28867486540518683,-0.5000000000000001"/>
<polygon class="face_stroke" points="0.2886750000000001,-1.5 -0.711325,-1.5 -0.7113250000000001,-0.5 0.2886749999999999,-0.4999999999999999"/>
<text class="face_text" text-anchor="middle" dominant-baseline="middle" transform="matrix(0.004105255592217177 0 0 0.004105255592217177 0.0 0.0)">0</text>
<text class="face_text" text-anchor="middle" dominant-baseline="middle" transform="matrix(0.004105255592217177 0 0 0.004105255592217177 0.57735 0.0)">1</text>
<text class="face_text" text-anchor="middle" dominant-baseline="middle" transform="matrix(0.004105255592217177 0 0 0.004105255592217177 0.866025 -0.5)">2</text>
<text class="face_text" text-anchor="middle" dominant-baseline="middle" transform="matrix(0.004105255592217177 0 0 0.004105255592217177 0.57735 -1.0)">3</text>
<text class="face_text" text-anchor="middle" dominant-baseline="middle" transform="matrix(0.004105255592217177 0 0 0.004105255592217177 -0.211325 -1.0)">4</text>
<rect class="edge_bg" x="0.24762230948301528" y="-0.0410525559221718" width="0.08210511184434353" height="0.08210511184434353"/>
<text class="edge_text" text-anchor="middle" dominant-baseline="middle" transform="matrix(0.004105255592217177 0 0 0.004105255592217177 0.28867486540518705 -3.535250795749691e-17)">3</text>
<rect class="edge_bg" x="0.6806348767804219" y="-0.29105255592217166" width="0.08210511184434353" height="0.08210511184434353"/>
<text class="edge_text" text-anchor="middle" dominant-baseline="middle" transform="matrix(0.004105255592217177 0 0 0.004105255592217177 0.7216874327025936 -0.2499999999999999)">2</text>
<rect class="edge_bg" x="0.6806350113752349" y="-0.7910525559221717" width="0.08210511184434353" height="0.08210511184434353"/>
<text class="edge_text" text-anchor="middle" dominant-baseline="middle" transform="matrix(0.004105255592217177 0 0 0.004105255592217177 0.7216875672974066 -0.75)">4</text>
<rect class="edge_bg" x="0.24762244407782835" y="-1.0410525559221717" width="0.08210511184434353" height="0.08210511184434353"/>
<text class="edge_text" text-anchor="middle" dominant-baseline="middle" transform="matrix(0.004105255592217177 0 0 0.004105255592217177 0.2886750000000001 -1.0)">1</text>
</svg>
