<?xml version="1.0" encoding="utf-8"?>
<svg version="1.1" xmlns="http://www.w3.org/2000/svg" viewBox="-1.4485281593052026 -1.3407584347690689 5.311270318610405 2.940336378815452" style="enable-background:new -1.4485281593052026 -1.3407584347690689 5.311270318610405 2.940336378815452;">
<style type="text/css">
  .face_stroke {fill:none; stroke:#000000; stroke-width:0.02; stroke-miterlimit:10;}
  .face_text {fill:#000000; font-family:monospace;}
  .edge_text {fill:#ff0000; font-family:monospace;}
  .edge_bg {fill:#f3f3f3; stroke:#606060; stroke-width:0.01;}
</style>
<polygon class="face_stroke" points="1.2071067811865475,-0.5 0.5000000000000001,-1.2071067811865475 -0.49999999999999994,-1.2071067811865475 -1.2071067811865475,-0.5000000000000002 -1.207106781186548,0.49999999999999933 -0.49999999999999967,1.2071067811865477 0.5000000000000003,1.2071067811865475 1.2071067811865477,0.4999999999999997"/>
<polygon class="face_stroke" points="1.207107218813452,0.49999999999999933 1.9142140000000003,1.2071067811865477 2.9142140000000003,1.2071067811865475 3.6213207811865473,0.4999999999999997 3.6213207811865478,-0.49999999999999917 2.914214,-1.2071067811865477 1.9142140000000019,-1.2071067811865483 1.2071072188134528,-0.500000000000001"/>
<polygon class="face_stroke" points="1.2071067546386576,0.5000004641747945 0.9482877095361368,1.4659262904638628 1.9142135358252053,1.207107245361342"/>
<text class="face_text" text-anchor="middle" dominant-baseline="middle" transform="matrix(0.005880672757630904 0 0 0.005880672757630904 0.0 0.0)">0</text>
<text class="face_text" text-anchor="middle" dominant-baseline="middle" transform="matrix(0.005880672757630904 0 0 0.005880672757630904 2.414214 0.0)">2</text>
<text class="face_text" text-anchor="middle" dominant-baseline="middle" transform="matrix(0.005880672757630904 0 0 0.005880672757630904 1.356536 1.057678)">1</text>
<rect class="edge_bg" x="1.1483004912371433" y="-0.05880672757630919" width="0.11761345515261809" height="0.11761345515261809"/>
<text class="edge_text" text-anchor="middle" dominant-baseline="middle" transform="matrix(0.005880672757630904 0 0 0.005880672757630904 1.2071072188134524 -1.4782794558091698e-16)">0</text>
<rect class="edge_bg" x="1.5018534176556224" y="0.7947471271917593" width="0.11761345515261809" height="0.11761345515261809"/>
<text class="edge_text" text-anchor="middle" dominant-baseline="middle" transform="matrix(0.005880672757630904 0 0 0.005880672757630904 1.5606601452319315 0.8535538547680683)">1</text>
</svg>
