<?xml version="1.0" encoding="utf-8"?>
<svg version="1.1" xmlns="http://www.w3.org/2000/svg" viewBox="-1.444415027125276 -1.3970006271252755 5.220781410652018 4.177664610652018" style="enable-background:new -1.444415027125276 -1.3970006271252755 5.220781410652018 4.177664610652018;">
<style type="text/css">
  .face_stroke {fill:none; stroke:#000000; stroke-width:0.02; stroke-miterlimit:10;}
  .face_text {fill:#000000; font-family:monospace;}
  .edge_text {fill:#ff0000; font-family:monospace;}
  .edge_bg {fill:#f3f3f3; stroke:#606060; stroke-width:0.01;}
</style>
<polygon class="face_stroke" points="1.2071067811865475,-0.5 0.5000000000000001,-1.2071067811865475 -0.49999999999999994,-1.2071067811865475 -1.2071067811865475,-0.5000000000000002 -1.207106781186548,0.49999999999999933 -0.49999999999999967,1.2071067811865477 0.5000000000000003,1.2071067811865475 1.2071067811865477,0.4999999999999997"/>
<polygon class="face_stroke" points="1.2071068654051866,0.4999999999999999 2.073132269189626,1.414100318299876e-16 1.2071068654051875,-0.5000000000000003"/>
<polygon class="face_stroke" points="1.2071069075145064,0.49999986241198635 0.9482878624119857,1.465925688701054 1.4482878624119855,2.331951092485493 2.414213688701055,2.590770137588014 3.280239092485493,2.0907701375880143 3.5390581375880137,1.1248443112989461 3.0390581375880132,0.2588189075145064 2.073132311298946,-1.3758801409302635e-07"/>
<text class="face_text" text-anchor="middle" dominant-baseline="middle" transform="matrix(0.008355329221304036 0 0 0.008355329221304036 0.0 0.0)">0</text>
<text class="face_text" text-anchor="middle" dominant-baseline="middle" transform="matrix(0.008355329221304036 0 0 0.008355329221304036 1.495782 0.0)">1</text>
<text class="face_text" text-anchor="middle" dominant-baseline="middle" transform="matrix(0.008355329221304036 0 0 0.008355329221304036 2.243673 1.295385)">8</text>
<rect class="edge_bg" x="1.1235535731921467" y="-0.0835532922130404" width="0.16710658442608073" height="0.16710658442608073"/>
<text class="edge_text" text-anchor="middle" dominant-baseline="middle" transform="matrix(0.008355329221304036 0 0 0.008355329221304036 1.207106865405187 -3.535250795749691e-17)">2</text>
<rect class="edge_bg" x="1.5565663171936859" y="0.16644657019894576" width="0.16710658442608073" height="0.16710658442608073"/>
<text class="edge_text" text-anchor="middle" dominant-baseline="middle" transform="matrix(0.008355329221304036 0 0 0.008355329221304036 1.6401196094067263 0.24999986241198613)">15</text>
</svg>
