<?xml version="1.0" encoding="utf-8"?>
<svg version="1.1" xmlns="http://www.w3.org/2000/svg" viewBox="-3.041566633526742 -2.2686049589906077 6.0180009106520185 3.9123660708570642" style="enable-background:new -3.041566633526742 -2.2686049589906077 6.0180009106520185 3.9123660708570642;">
<style type="text/css">
  .face_stroke {fill:none; stroke:#000000; stroke-width:0.02; stroke-miterlimit:10;}
  .face_text {fill:#000000; font-family:monospace;}
  .edge_text {fill:#ff0000; font-family:monospace;}
  .edge_bg {fill:#f3f3f3; stroke:#606060; stroke-width:0.01;}
</style>
<polygon class="face_stroke" points="0.288675134594813,-0.5 -0.5773502691896258,-7.07050159149938e-17 0.288675134594813,0.5"/>
<polygon class="face_stroke" points="0.28867521881345204,0.49999999999999933 0.9957820000000003,1.2071067811865477 1.9957820000000002,1.2071067811865475 2.7028887811865476,0.4999999999999997 2.702888781186548,-0.49999999999999917 1.9957819999999997,-1.2071067811865477 0.9957820000000019,-1.2071067811865483 0.2886752188134529,-0.500000000000001"/>
<polygon class="face_stroke" points="0.28867475463865766,0.5000004641747945 0.02985570953613681,1.4659262904638628 0.9957815358252053,1.207107245361342"/>
<polygon class="face_stroke" points="0.28867543569579457,0.4999996094067263 -0.6772503905932736,0.24118056430420542 -0.9360694356957946,1.2071063905932737 0.02985639059327383,1.4659254356957945"/>
<polygon class="face_stroke" points="-0.6772507095361369,0.24118070953613702 -1.6431765358252053,0.49999975463865765 -0.9360697546386575,1.2071065358252053"/>
<polygon class="face_stroke" points="-0.6772508624119862,0.24118109248549313 -0.17725086241198618,-0.6248443112989456 -0.4360699075145069,-1.5907701375880139 -1.3020953112989455,-2.090770137588014 -2.268021137588014,-1.8319510924854931 -2.768021137588014,-0.9659256887010544 -2.509202092485493,1.3758801387098174e-07 -1.6431766887010546,0.5000001375880139"/>
</svg>
