<?xml version="1.0" encoding="utf-8"?>
<svg version="1.1" xmlns="http://www.w3.org/2000/svg" viewBox="-1.7532342390593274 -2.9149785271252764 6.320781259305203 7.520628410652018" style="enable-background:new -1.7532342390593274 -2.9149785271252764 6.320781259305203 7.520628410652018;">
<style type="text/css">
  .face_stroke {fill:none; stroke:#000000; stroke-width:0.02; stroke-miterlimit:10;}
  .face_text {fill:#000000; font-family:monospace;}
  .edge_text {fill:#ff0000; font-family:monospace;}
  .edge_bg {fill:#f3f3f3; stroke:#606060; stroke-width:0.01;}
</style>
<polygon class="face_stroke" points="0.5000000000000001,-0.5 -0.5,-0.5000000000000001 -0.5000000000000001,0.5 0.4999999999999999,0.5000000000000001"/>
<polygon class="face_stroke" points="0.4999998654051868,0.4999999999999999 1.3660252691896257,1.414100318299876e-16 0.49999986540518754,-0.5000000000000003"/>
<polygon class="face_stroke" points="1.3660257018922195,-2.981077805719323e-07 1.8660257018922195,-0.8660257018922193 1.0000002981077807,-1.3660257018922195 0.5000002981077806,-0.5000002981077809"/>
<polygon class="face_stroke" points="1.8660251345948131,-0.866025 1.8660251345948131,-1.866025 0.9999997308103742,-1.366025"/>
<polygon class="face_stroke" points="1.8660252188134523,-0.8660250000000007 2.5731320000000006,-0.15891821881345236 3.5731320000000006,-0.15891821881345258 4.280238781186548,-0.8660250000000003 4.280238781186548,-1.8660249999999992 3.573132,-2.5731317811865475 2.573132000000002,-2.5731317811865484 1.8660252188134532,-1.866025000000001"/>
<polygon class="face_stroke" points="1.8660257546386578,-0.8660255358252054 1.607206709536137,0.099900290463863 2.5731325358252057,-0.1589187546386578"/>
<polygon class="face_stroke" points="1.6072058624119863,0.09990090751450675 1.1072058624119863,0.9659263112989455 1.366024907514507,1.9318521375880138 2.232050311298946,2.431852137588014 3.197976137588014,2.1730330924854933 3.697976137588014,1.3070076887010544 3.439157092485494,0.341081862411987 2.573131688701055,-0.15891813758801399"/>
<polygon class="face_stroke" points="1.1072062453613423,0.9659254641747946 0.4000994641747946,1.673032245361342 1.366025290463863,1.9318512904638632"/>
<polygon class="face_stroke" points="0.4000993112989459,1.6730328624119857 -0.4659260924854933,2.1730328624119863 -0.7247451375880141,3.138958688701054 -0.22474513758801418,4.0049840924854925 0.7411806887010552,4.263803137588013 1.607206092485493,3.763803137588014 1.8660251375880141,2.797877311298946 1.3660251375880135,1.9318519075145062"/>
<polygon class="face_stroke" points="0.40009926918962585,1.673033 -0.4659261345948128,1.1730329999999998 -0.4659261345948132,2.1730329999999998"/>
<polygon class="face_stroke" points="-0.46592599999999984,1.173033 -1.465926,1.1730329999999998 -1.465926,2.173033 -0.46592600000000006,2.173033"/>
<polygon class="face_stroke" points="-0.46592599999999984,1.173033 -0.46592599999999984,0.173033 -1.465926,0.17303299999999988 -1.465926,1.173033"/>
</svg>
