<?xml version="1.0" encoding="utf-8"?>
<svg version="1.1" xmlns="http://www.w3.org/2000/svg" viewBox="-3.3059624019770024 -1.5230593629827074 5.451607803954005 3.667931370401605" style="enable-background:new -3.3059624019770024 -1.5230593629827074 5.451607803954005 3.667931370401605;">
<style type="text/css">
  .face_stroke {fill:none; stroke:#000000; stroke-width:0.02; stroke-miterlimit:10;}
  .face_text {fill:#000000; font-family:monospace;}
  .edge_text {fill:#ff0000; font-family:monospace;}
  .edge_bg {fill:#f3f3f3; stroke:#606060; stroke-width:0.01;}
</style>
<polygon class="face_stroke" points="0.288675134594813,-0.5 -0.5773502691896258,-7.07050159149938e-17 0.288675134594813,0.5"/>
<polygon class="face_stroke" points="0.28867486540518683,0.4999999999999999 1.1547002691896258,1.414100318299876e-16 0.28867486540518755,-0.5000000000000003"/>
<polygon class="face_stroke" points="0.2886748179899874,0.5000001457811754 0.49658650880774635,1.4781477465149808 1.4911084041760199,1.5826762097826346 1.8978450472518202,0.6691307521400344 1.1547002217744258,1.457811755756211e-07"/>
<polygon class="face_stroke" points="0.28867549119225333,0.5000002534850191 -0.7058464041760197,0.39547179021736556 -1.1125830472518201,1.3090172478599662 -0.36943822177442587,1.9781478542188247 0.4965871820100126,1.4781478542188247"/>
<polygon class="face_stroke" points="-0.7058469527481798,0.3954717521400336 -1.4489917782255741,-0.2736588542188245 -2.3150171820100125,0.2263411457811752 -2.1071054911922538,1.2044887465149807 -1.1125835958239798,1.3090172097826343"/>
<polygon class="face_stroke" points="-1.4489918179899877,-0.2736591457811755 -1.6569035088077468,-1.2518067465149811 -2.65142540417602,-1.3563352097826344 -3.0581620472518205,-0.4427897521400339 -2.315017221774426,0.22634085421882455"/>
<polygon class="face_stroke" points="-1.448992044886545,-0.27365926430244536 -0.7058472194091506,-0.9427898706613036 -1.6569037357043044,-1.251806865036251"/>
<polygon class="face_stroke" points="-1.4489917805908492,-0.27365912933869657 -0.4979352642956959,0.03535786503625127 -0.7058469551134549,-0.9427897356975548"/>
</svg>
