<?xml version="1.0" encoding="utf-8"?>
<svg version="1.1" id="layer_1" xmlns="http://www.w3.org/2000/svg" xmlns:xlink="http://www.w3.org/1999/xlink" x="0px" y="0px" viewBox="-0.6273507018922193 -0.55 1.96602570189222 2.4660227018922196" style="enable-background:new -0.6273507018922193 -0.55 1.96602570189222 2.4660227018922196;" xml:space="preserve">
<style type="text/css">
  .no_fill_black_stroke {fill:none; stroke:#000000; stroke-width:0.02; stroke-miterlimit:10;}
  .face_text {fill:#000000; font-family:monospace;}
  .edge_text {fill:#ff0000; font-family:monospace;}
  .edge_bg {fill:#f3f3f3; stroke:#606060; stroke-width:0.02;}
</style>
<polygon class="no_fill_black_stroke" points="0.288675134594813, -0.5 -0.5773502691896258, -7.07050159149938e-17 0.288675134594813, 0.5"/>
<polygon class="no_fill_black_stroke" points="0.2886749999999999, 0.5 1.288675, 0.5000000000000001 1.2886750000000007, -0.49999999999999944 0.2886749999999997, -0.4999999999999998"/>
<polygon class="no_fill_black_stroke" points="0.2886749999999999, 0.49999986540518715 0.7886749999999999, 1.3660252691896257 1.2886750000000005, 0.49999986540518754"/>
<polygon class="no_fill_black_stroke" points="0.28867470189221933, 0.4999972981077805 -0.5773507018922193, 0.9999972981077804 -0.07735070189221924, 1.8660227018922193 0.7886747018922194, 1.366022701892219"/>
<text class="face_text" text-anchor="middle" dominant-baseline="middle" transform="matrix(0.0039320514037844406 0 0 0.0039320514037844406 0.0 0.0)">0</text>
<text class="face_text" text-anchor="middle" dominant-baseline="middle" transform="matrix(0.0039320514037844406 0 0 0.0039320514037844406 0.788675 0.0)">3</text>
<text class="face_text" text-anchor="middle" dominant-baseline="middle" transform="matrix(0.0039320514037844406 0 0 0.0039320514037844406 0.788675 0.788675)">2</text>
<text class="face_text" text-anchor="middle" dominant-baseline="middle" transform="matrix(0.0039320514037844406 0 0 0.0039320514037844406 0.105662 1.18301)">1</text>
<rect class="edge_bg" x="0.2493544859621555" y="-0.039320514037844465" width="0.0786410280756888" height="0.0786410280756888"/>
<text class="edge_text" text-anchor="middle" dominant-baseline="middle" transform="matrix(0.0039320514037844406 0 0 0.0039320514037844406 0.2886749999999999 -6.123233995736767e-17)">0</text>
<rect class="edge_bg" x="0.7493544859621556" y="0.4606793513673426" width="0.0786410280756888" height="0.0786410280756888"/>
<text class="edge_text" text-anchor="middle" dominant-baseline="middle" transform="matrix(0.0039320514037844406 0 0 0.0039320514037844406 0.788675 0.49999986540518704)">3</text>
<rect class="edge_bg" x="0.499354187854375" y="0.8936894859621555" width="0.0786410280756888" height="0.0786410280756888"/>
<text class="edge_text" text-anchor="middle" dominant-baseline="middle" transform="matrix(0.0039320514037844406 0 0 0.0039320514037844406 0.5386747018922194 0.9330099999999999)">1</text>
</svg>
