<?xml version="1.0" encoding="utf-8"?>
<svg version="1.1" xmlns="http://www.w3.org/2000/svg" viewBox="-1.7206519869868302 -0.618301285094611 3.152628272081442 2.6026282720814415" style="enable-background:new -1.7206519869868302 -0.618301285094611 3.152628272081442 2.6026282720814415;">
<style type="text/css">
  .face_stroke {fill:none; stroke:#000000; stroke-width:0.02; stroke-miterlimit:10;}
  .face_text {fill:#000000; font-family:monospace;}
  .edge_text {fill:#ff0000; font-family:monospace;}
  .edge_bg {fill:#f3f3f3; stroke:#606060; stroke-width:0.01;}
</style>
<polygon class="face_stroke" points="0.288675134594813,-0.5 -0.5773502691896258,-7.07050159149938e-17 0.288675134594813,0.5"/>
<polygon class="face_stroke" points="0.2886749999999999,0.5 1.288675,0.5000000000000001 1.2886750000000007,-0.49999999999999944 0.2886749999999997,-0.4999999999999998"/>
<polygon class="face_stroke" points="0.2886749999999999,0.49999986540518715 0.7886749999999999,1.3660252691896257 1.2886750000000005,0.49999986540518754"/>
<polygon class="face_stroke" points="0.28867500000000007,0.4999997308103742 -0.21132499999999999,1.3660251345948131 0.7886749999999999,1.3660251345948131"/>
<polygon class="face_stroke" points="0.2886750000000001,0.49999986540518715 -0.7113250000000001,0.49999986540518715 -0.21132500000000012,1.3660252691896257"/>
<polygon class="face_stroke" points="-0.7113252981077807,0.5000002981077807 -1.5773507018922193,1.0000002981077807 -1.0773507018922193,1.8660257018922195 -0.21132529810778056,1.3660257018922193"/>
<polygon class="face_stroke" points="-0.7113247308103742,0.5 -1.5773501345948129,-1.1102230246251565e-16 -1.577350134594813,0.9999999999999999"/>
<polygon class="face_stroke" points="-0.711324865405187,0.5 -0.711324865405187,-0.5 -1.5773502691896257,-7.07050159149938e-17"/>
<text class="face_text" text-anchor="middle" dominant-baseline="middle" transform="matrix(0.005205256544162883 0 0 0.005205256544162883 0.0 0.0)">0</text>
<text class="face_text" text-anchor="middle" dominant-baseline="middle" transform="matrix(0.005205256544162883 0 0 0.005205256544162883 0.788675 0.0)">4</text>
<text class="face_text" text-anchor="middle" dominant-baseline="middle" transform="matrix(0.005205256544162883 0 0 0.005205256544162883 0.788675 0.788675)">3</text>
<text class="face_text" text-anchor="middle" dominant-baseline="middle" transform="matrix(0.005205256544162883 0 0 0.005205256544162883 0.288675 1.07735)">2</text>
<text class="face_text" text-anchor="middle" dominant-baseline="middle" transform="matrix(0.005205256544162883 0 0 0.005205256544162883 -0.211325 0.788675)">1</text>
<text class="face_text" text-anchor="middle" dominant-baseline="middle" transform="matrix(0.005205256544162883 0 0 0.005205256544162883 -0.894338 1.183013)">13</text>
<text class="face_text" text-anchor="middle" dominant-baseline="middle" transform="matrix(0.005205256544162883 0 0 0.005205256544162883 -1.288675 0.5)">16</text>
<text class="face_text" text-anchor="middle" dominant-baseline="middle" transform="matrix(0.005205256544162883 0 0 0.005205256544162883 -1.0 -0.0)">7</text>
<rect class="edge_bg" x="0.23662243455837106" y="-0.052052565441628895" width="0.10410513088325767" height="0.10410513088325767"/>
<text class="edge_text" text-anchor="middle" dominant-baseline="middle" transform="matrix(0.005205256544162883 0 0 0.005205256544162883 0.2886749999999999 -6.123233995736767e-17)">0</text>
<rect class="edge_bg" x="0.7366224345583712" y="0.4479472999635582" width="0.10410513088325767" height="0.10410513088325767"/>
<text class="edge_text" text-anchor="middle" dominant-baseline="middle" transform="matrix(0.005205256544162883 0 0 0.005205256544162883 0.788675 0.49999986540518704)">1</text>
<rect class="edge_bg" x="0.4866224345583713" y="0.8809598672609648" width="0.10410513088325767" height="0.10410513088325767"/>
<text class="edge_text" text-anchor="middle" dominant-baseline="middle" transform="matrix(0.005205256544162883 0 0 0.005205256544162883 0.5386750000000001 0.9330124327025936)">4</text>
<rect class="edge_bg" x="-0.013377565441628735" y="0.8809600018557776" width="0.10410513088325767" height="0.10410513088325767"/>
<text class="edge_text" text-anchor="middle" dominant-baseline="middle" transform="matrix(0.005205256544162883 0 0 0.005205256544162883 0.0386750000000001 0.9330125672974064)">2</text>
<rect class="edge_bg" x="-0.5133778635494093" y="0.8809604345583713" width="0.10410513088325767" height="0.10410513088325767"/>
<text class="edge_text" text-anchor="middle" dominant-baseline="middle" transform="matrix(0.005205256544162883 0 0 0.005205256544162883 -0.4613252981077805 0.9330130000000001)">16</text>
<rect class="edge_bg" x="-1.1963899981442223" y="0.6979474345583712" width="0.10410513088325767" height="0.10410513088325767"/>
<text class="edge_text" text-anchor="middle" dominant-baseline="middle" transform="matrix(0.005205256544162883 0 0 0.005205256544162883 -1.1443374327025935 0.75)">21</text>
<rect class="edge_bg" x="-1.1963901327390354" y="0.19794743455837127" width="0.10410513088325767" height="0.10410513088325767"/>
<text class="edge_text" text-anchor="middle" dominant-baseline="middle" transform="matrix(0.005205256544162883 0 0 0.005205256544162883 -1.1443375672974065 0.2500000000000001)">20</text>
</svg>
