<?xml version="1.0" encoding="utf-8"?>
<svg version="1.1" xmlns="http://www.w3.org/2000/svg" viewBox="-0.6889528177437181 -0.5933012850946113 2.45525606819003 2.0526282720814417" style="enable-background:new -0.6889528177437181 -0.5933012850946113 2.45525606819003 2.0526282720814417;">
<style type="text/css">
  .face_stroke {fill:none; stroke:#000000; stroke-width:0.02; stroke-miterlimit:10;}
  .face_text {fill:#000000; font-family:monospace;}
  .edge_text {fill:#ff0000; font-family:monospace;}
  .edge_bg {fill:#f3f3f3; stroke:#606060; stroke-width:0.01;}
</style>
<polygon class="face_stroke" points="0.288675134594813,-0.5 -0.5773502691896258,-7.07050159149938e-17 0.288675134594813,0.5"/>
<polygon class="face_stroke" points="0.28867486540518683,0.4999999999999999 1.1547002691896258,1.414100318299876e-16 0.28867486540518755,-0.5000000000000003"/>
<polygon class="face_stroke" points="0.2886752981077807,0.5000002981077805 0.7886752981077807,1.3660257018922195 1.6547007018922195,0.8660257018922193 1.1547007018922193,2.981077805719323e-07"/>
<text class="face_text" text-anchor="middle" dominant-baseline="middle" transform="matrix(0.004105256544162884 0 0 0.004105256544162884 0.0 0.0)">0</text>
<text class="face_text" text-anchor="middle" dominant-baseline="middle" transform="matrix(0.004105256544162884 0 0 0.004105256544162884 0.57735 0.0)">1</text>
<text class="face_text" text-anchor="middle" dominant-baseline="middle" transform="matrix(0.004105256544162884 0 0 0.004105256544162884 0.971688 0.683013)">13</text>
<rect class="edge_bg" x="0.24762229996355822" y="-0.04105256544162887" width="0.08210513088325767" height="0.08210513088325767"/>
<text class="edge_text" text-anchor="middle" dominant-baseline="middle" transform="matrix(0.004105256544162884 0 0 0.004105256544162884 0.28867486540518705 -3.535250795749691e-17)">3</text>
<rect class="edge_bg" x="0.6806354345583712" y="0.2089477326661517" width="0.08210513088325767" height="0.08210513088325767"/>
<text class="edge_text" text-anchor="middle" dominant-baseline="middle" transform="matrix(0.004105256544162884 0 0 0.004105256544162884 0.721688 0.2500002981077805)">16</text>
</svg>
