<?xml version="1.0" encoding="utf-8"?>
<svg version="1.1" xmlns="http://www.w3.org/2000/svg" viewBox="-1.7139527961085883 -1.6 3.0052555922171766 2.2" style="enable-background:new -1.7139527961085883 -1.6 3.0052555922171766 2.2;">
<style type="text/css">
  .face_stroke {fill:none; stroke:#000000; stroke-width:0.02; stroke-miterlimit:10;}
  .face_text {fill:#000000; font-family:monospace;}
  .edge_text {fill:#ff0000; font-family:monospace;}
  .edge_bg {fill:#f3f3f3; stroke:#606060; stroke-width:0.01;}
</style>
<polygon class="face_stroke" points="0.288675134594813,-0.5 -0.5773502691896258,-7.07050159149938e-17 0.288675134594813,0.5"/>
<polygon class="face_stroke" points="0.28867486540518683,0.4999999999999999 1.1547002691896258,1.414100318299876e-16 0.28867486540518755,-0.5000000000000003"/>
<polygon class="face_stroke" points="1.1547001345948131,0.0 1.1547001345948131,-1.0 0.2886747308103742,-0.5000000000000001"/>
<polygon class="face_stroke" points="1.1547002691896258,-1.0 0.2886748654051872,-1.5 0.28867486540518683,-0.5000000000000001"/>
<polygon class="face_stroke" points="0.2886750000000001,-1.5 -0.711325,-1.5 -0.7113250000000001,-0.5 0.2886749999999999,-0.4999999999999999"/>
<polygon class="face_stroke" points="-0.711324865405187,-1.5 -1.5773502691896257,-1.0 -0.711324865405187,-0.5"/>
<polygon class="face_stroke" points="-1.5773501345948129,-1.0 -1.577350134594813,-1.1102230246251565e-16 -0.7113247308103742,-0.49999999999999983"/>
<polygon class="face_stroke" points="-1.5773502691896257,-7.07050159149938e-17 -0.711324865405187,0.5 -0.7113248654051872,-0.5000000000000001"/>
<text class="face_text" text-anchor="middle" dominant-baseline="middle" transform="matrix(0.0044 0 0 0.0044 0.0 0.0)">0</text>
<text class="face_text" text-anchor="middle" dominant-baseline="middle" transform="matrix(0.0044 0 0 0.0044 0.57735 0.0)">1</text>
<text class="face_text" text-anchor="middle" dominant-baseline="middle" transform="matrix(0.0044 0 0 0.0044 0.866025 -0.5)">2</text>
<text class="face_text" text-anchor="middle" dominant-baseline="middle" transform="matrix(0.0044 0 0 0.0044 0.57735 -1.0)">3</text>
<text class="face_text" text-anchor="middle" dominant-baseline="middle" transform="matrix(0.0044 0 0 0.0044 -0.211325 -1.0)">4</text>
<text class="face_text" text-anchor="middle" dominant-baseline="middle" transform="matrix(0.0044 0 0 0.0044 -1.0 -1.0)">5</text>
<text class="face_text" text-anchor="middle" dominant-baseline="middle" transform="matrix(0.0044 0 0 0.0044 -1.288675 -0.5)">6</text>
<text class="face_text" text-anchor="middle" dominant-baseline="middle" transform="matrix(0.0044 0 0 0.0044 -1.0 0.0)">7</text>
<rect class="edge_bg" x="0.24467486540518704" y="-0.04400000000000004" width="0.08800000000000001" height="0.08800000000000001"/>
<text class="edge_text" text-anchor="middle" dominant-baseline="middle" transform="matrix(0.0044 0 0 0.0044 0.28867486540518705 -3.535250795749691e-17)">3</text>
<rect class="edge_bg" x="0.6776874327025936" y="-0.2939999999999999" width="0.08800000000000001" height="0.08800000000000001"/>
<text class="edge_text" text-anchor="middle" dominant-baseline="middle" transform="matrix(0.0044 0 0 0.0044 0.7216874327025936 -0.2499999999999999)">2</text>
<rect class="edge_bg" x="0.6776875672974065" y="-0.794" width="0.08800000000000001" height="0.08800000000000001"/>
<text class="edge_text" text-anchor="middle" dominant-baseline="middle" transform="matrix(0.0044 0 0 0.0044 0.7216875672974066 -0.75)">4</text>
<rect class="edge_bg" x="0.24467500000000011" y="-1.044" width="0.08800000000000001" height="0.08800000000000001"/>
<text class="edge_text" text-anchor="middle" dominant-baseline="middle" transform="matrix(0.0044 0 0 0.0044 0.2886750000000001 -1.0)">1</text>
<rect class="edge_bg" x="-0.7553248654051871" y="-1.044" width="0.08800000000000001" height="0.08800000000000001"/>
<text class="edge_text" text-anchor="middle" dominant-baseline="middle" transform="matrix(0.0044 0 0 0.0044 -0.711324865405187 -1.0)">5</text>
<rect class="edge_bg" x="-1.1883374327025935" y="-0.794" width="0.08800000000000001" height="0.08800000000000001"/>
<text class="edge_text" text-anchor="middle" dominant-baseline="middle" transform="matrix(0.0044 0 0 0.0044 -1.1443374327025935 -0.75)">8</text>
<rect class="edge_bg" x="-1.1883375672974066" y="-0.2940000000000001" width="0.08800000000000001" height="0.08800000000000001"/>
<text class="edge_text" text-anchor="middle" dominant-baseline="middle" transform="matrix(0.0044 0 0 0.0044 -1.1443375672974065 -0.2500000000000001)">7</text>
</svg>
