<?xml version="1.0" encoding="utf-8"?>
<svg version="1.1" xmlns="http://www.w3.org/2000/svg" viewBox="-0.6639528177437182 -1.9843269869868305 1.90525606819003 2.6026282720814415" style="enable-background:new -0.6639528177437182 -1.9843269869868305 1.90525606819003 2.6026282720814415;">
<style type="text/css">
  .face_stroke {fill:none; stroke:#000000; stroke-width:0.02; stroke-miterlimit:10;}
  .face_text {fill:#000000; font-family:monospace;}
  .edge_text {fill:#ff0000; font-family:monospace;}
  .edge_bg {fill:#f3f3f3; stroke:#606060; stroke-width:0.01;}
</style>
<polygon class="face_stroke" points="0.288675134594813,-0.5 -0.5773502691896258,-7.07050159149938e-17 0.288675134594813,0.5"/>
<polygon class="face_stroke" points="0.28867486540518683,0.4999999999999999 1.1547002691896258,1.414100318299876e-16 0.28867486540518755,-0.5000000000000003"/>
<polygon class="face_stroke" points="1.1547001345948131,0.0 1.1547001345948131,-1.0 0.2886747308103742,-0.5000000000000001"/>
<polygon class="face_stroke" points="1.1547007018922195,-1.0000002981077807 0.6547007018922193,-1.8660257018922195 -0.2113247018922193,-1.3660257018922195 0.28867529810778075,-0.5000002981077807"/>
<text class="face_text" text-anchor="middle" dominant-baseline="middle" transform="matrix(0.00381051213638006 0 0 0.00381051213638006 0.0 0.0)">1</text>
<text class="face_text" text-anchor="middle" dominant-baseline="middle" transform="matrix(0.00381051213638006 0 0 0.00381051213638006 0.57735 0.0)">2</text>
<text class="face_text" text-anchor="middle" dominant-baseline="middle" transform="matrix(0.00381051213638006 0 0 0.00381051213638006 0.866025 -0.5)">3</text>
<text class="face_text" text-anchor="middle" dominant-baseline="middle" transform="matrix(0.00381051213638006 0 0 0.00381051213638006 0.471688 -1.183013)">4</text>
<rect class="edge_bg" x="0.25056974404138643" y="-0.038105121363800634" width="0.0762102427276012" height="0.0762102427276012"/>
<text class="edge_text" text-anchor="middle" dominant-baseline="middle" transform="matrix(0.00381051213638006 0 0 0.00381051213638006 0.28867486540518705 -3.535250795749691e-17)">2</text>
<rect class="edge_bg" x="0.683582311338793" y="-0.2881051213638005" width="0.0762102427276012" height="0.0762102427276012"/>
<text class="edge_text" text-anchor="middle" dominant-baseline="middle" transform="matrix(0.00381051213638006 0 0 0.00381051213638006 0.7216874327025936 -0.2499999999999999)">4</text>
<rect class="edge_bg" x="0.6835828786361995" y="-0.7881054194715813" width="0.0762102427276012" height="0.0762102427276012"/>
<text class="edge_text" text-anchor="middle" dominant-baseline="middle" transform="matrix(0.00381051213638006 0 0 0.00381051213638006 0.7216880000000001 -0.7500002981077807)">1</text>
</svg>
