<?xml version="1.0" encoding="utf-8"?>
<svg version="1.1" xmlns="http://www.w3.org/2000/svg" viewBox="-1.854626285094611 -1.9843269869868305 3.1526282720814414 2.6026282720814415" style="enable-background:new -1.854626285094611 -1.9843269869868305 3.1526282720814414 2.6026282720814415;">
<style type="text/css">
  .face_stroke {fill:none; stroke:#000000; stroke-width:0.02; stroke-miterlimit:10;}
  .face_text {fill:#000000; font-family:monospace;}
  .edge_text {fill:#ff0000; font-family:monospace;}
  .edge_bg {fill:#f3f3f3; stroke:#606060; stroke-width:0.01;}
</style>
<polygon class="face_stroke" points="0.288675134594813,-0.5 -0.5773502691896258,-7.07050159149938e-17 0.288675134594813,0.5"/>
<polygon class="face_stroke" points="0.28867486540518683,0.4999999999999999 1.1547002691896258,1.414100318299876e-16 0.28867486540518755,-0.5000000000000003"/>
<polygon class="face_stroke" points="1.1547001345948131,0.0 1.1547001345948131,-1.0 0.2886747308103742,-0.5000000000000001"/>
<polygon class="face_stroke" points="1.1547007018922195,-1.0000002981077807 0.6547007018922193,-1.8660257018922195 -0.2113247018922193,-1.3660257018922195 0.28867529810778075,-0.5000002981077807"/>
<polygon class="face_stroke" points="-0.21132499999999999,-1.3660252691896257 -0.711325,-0.49999986540518704 0.2886749999999999,-0.4999998654051868"/>
<polygon class="face_stroke" points="-0.21132499999999987,-1.366025134594813 -1.211325,-1.366025134594813 -0.7113250000000001,-0.4999997308103742"/>
<polygon class="face_stroke" points="-1.211325,-1.3660252691896257 -1.711325,-0.49999986540518704 -0.7113250000000001,-0.4999998654051868"/>
<polygon class="face_stroke" points="-1.711325,-0.5000000000000001 -1.711325,0.5 -0.7113250000000001,0.5000000000000001 -0.7113249999999993,-0.49999999999999944"/>
<text class="face_text" text-anchor="middle" dominant-baseline="middle" transform="matrix(0.005205256544162883 0 0 0.005205256544162883 0.0 0.0)">1</text>
<text class="face_text" text-anchor="middle" dominant-baseline="middle" transform="matrix(0.005205256544162883 0 0 0.005205256544162883 0.57735 0.0)">2</text>
<text class="face_text" text-anchor="middle" dominant-baseline="middle" transform="matrix(0.005205256544162883 0 0 0.005205256544162883 0.866025 -0.5)">3</text>
<text class="face_text" text-anchor="middle" dominant-baseline="middle" transform="matrix(0.005205256544162883 0 0 0.005205256544162883 0.471688 -1.183013)">4</text>
<text class="face_text" text-anchor="middle" dominant-baseline="middle" transform="matrix(0.005205256544162883 0 0 0.005205256544162883 -0.211325 -0.788675)">0</text>
<text class="face_text" text-anchor="middle" dominant-baseline="middle" transform="matrix(0.005205256544162883 0 0 0.005205256544162883 -0.711325 -1.07735)">7</text>
<text class="face_text" text-anchor="middle" dominant-baseline="middle" transform="matrix(0.005205256544162883 0 0 0.005205256544162883 -1.211325 -0.788675)">16</text>
<text class="face_text" text-anchor="middle" dominant-baseline="middle" transform="matrix(0.005205256544162883 0 0 0.005205256544162883 -1.211325 0.0)">13</text>
<rect class="edge_bg" x="0.2366222999635582" y="-0.05205256544162887" width="0.10410513088325767" height="0.10410513088325767"/>
<text class="edge_text" text-anchor="middle" dominant-baseline="middle" transform="matrix(0.005205256544162883 0 0 0.005205256544162883 0.28867486540518705 -3.535250795749691e-17)">2</text>
<rect class="edge_bg" x="0.6696348672609648" y="-0.30205256544162873" width="0.10410513088325767" height="0.10410513088325767"/>
<text class="edge_text" text-anchor="middle" dominant-baseline="middle" transform="matrix(0.005205256544162883 0 0 0.005205256544162883 0.7216874327025936 -0.2499999999999999)">4</text>
<rect class="edge_bg" x="0.6696354345583713" y="-0.8020528635494095" width="0.10410513088325767" height="0.10410513088325767"/>
<text class="edge_text" text-anchor="middle" dominant-baseline="middle" transform="matrix(0.005205256544162883 0 0 0.005205256544162883 0.7216880000000001 -0.7500002981077807)">1</text>
<rect class="edge_bg" x="-0.013377565441628735" y="-0.9850651327390353" width="0.10410513088325767" height="0.10410513088325767"/>
<text class="edge_text" text-anchor="middle" dominant-baseline="middle" transform="matrix(0.005205256544162883 0 0 0.005205256544162883 0.0386750000000001 -0.9330125672974064)">0</text>
<rect class="edge_bg" x="-0.5133775654416287" y="-0.9850649981442224" width="0.10410513088325767" height="0.10410513088325767"/>
<text class="edge_text" text-anchor="middle" dominant-baseline="middle" transform="matrix(0.005205256544162883 0 0 0.005205256544162883 -0.4613249999999999 -0.9330124327025936)">6</text>
<rect class="edge_bg" x="-1.0133775654416286" y="-0.9850651327390353" width="0.10410513088325767" height="0.10410513088325767"/>
<text class="edge_text" text-anchor="middle" dominant-baseline="middle" transform="matrix(0.005205256544162883 0 0 0.005205256544162883 -0.9613249999999999 -0.9330125672974064)">20</text>
<rect class="edge_bg" x="-1.2633775654416288" y="-0.552052565441629" width="0.10410513088325767" height="0.10410513088325767"/>
<text class="edge_text" text-anchor="middle" dominant-baseline="middle" transform="matrix(0.005205256544162883 0 0 0.005205256544162883 -1.211325 -0.5000000000000001)">21</text>
</svg>
