<?xml version="1.0" encoding="utf-8"?>
<svg version="1.1" xmlns="http://www.w3.org/2000/svg" viewBox="-3.240829310325909 -1.2298090728821303 7.745175129067984 5.055799603406861" style="enable-background:new -3.240829310325909 -1.2298090728821303 7.745175129067984 5.055799603406861;">
<style type="text/css">
  .face_stroke {fill:none; stroke:#000000; stroke-width:0.02; stroke-miterlimit:10;}
  .face_text {fill:#000000; font-family:monospace;}
  .edge_text {fill:#ff0000; font-family:monospace;}
  .edge_bg {fill:#f3f3f3; stroke:#606060; stroke-width:0.01;}
</style>
<polygon class="face_stroke" points="0.6881909602355868,-0.5 -0.26286555605956674,-0.8090169943749475 -0.8506508083520399,-1.0417467896404342e-16 -0.2628655560595669,0.8090169943749473 0.6881909602355867,0.5000000000000001"/>
<polygon class="face_stroke" points="0.6881905962155612,0.5000000000000002 1.5542159999999998,1.0000000000000002 2.4202414037844386,0.5000000000000006 2.4202414037844395,-0.4999999999999994 1.5542160000000003,-1.0000000000000002 0.688190596215561,-0.4999999999999999"/>
<polygon class="face_stroke" points="2.4202415962155612,0.5000000000000002 3.286267,1.0000000000000002 4.152292403784439,0.5000000000000006 4.15229240378444,-0.4999999999999994 3.2862670000000005,-1.0000000000000002 2.4202415962155612,-0.4999999999999999"/>
<polygon class="face_stroke" points="2.420241778225574,0.5000001457811754 1.6770969527481796,1.1691307521400336 2.0838335958239798,2.082676209782634 3.078355491192253,1.9781477465149813 3.286267182010013,1.0000001457811758"/>
<polygon class="face_stroke" points="1.6770972522924734,1.1691310056250523 0.6825753569241999,1.0646025423573988 0.09479010463172655,1.8736195367323463 0.5015267477075267,2.7871649943749475 1.4960486430758007,2.891693457642601 2.0838338953682736,2.0826764632676533"/>
<polygon class="face_stroke" points="0.09479025229247323,1.8736190056250523 -0.8997316430758002,1.7690905423573988 -1.4875168953682736,2.5781075367323463 -1.0807802522924734,3.4916529943749475 -0.08625835692419936,3.5961814576426008 0.5015268953682734,2.7871644632676533"/>
<polygon class="face_stroke" points="-0.8997321046317266,1.7690904632676536 -1.3064687477075267,0.8555450056250524 -2.3009906430758003,0.7510165423573989 -2.8887758953682736,1.5600335367323463 -2.4820392522924735,2.4735789943749475 -1.4875173569241995,2.5781074576426013"/>
<polygon class="face_stroke" points="-1.3064683569241997,0.855545457642601 -0.7186831046317266,0.04652846326765348 -1.125419747707527,-0.8670169943749477 -2.1199416430758005,-0.9715454576426013 -2.707726895368274,-0.16252846326765377 -2.3009902522924737,0.7510169943749475"/>
</svg>
