<?xml version="1.0" encoding="utf-8"?>
<svg version="1.1" id="layer_1" xmlns="http://www.w3.org/2000/svg" xmlns:xlink="http://www.w3.org/1999/xlink" x="0px" y="0px" viewBox="-2.62735 -1.55 3.832050269189626 2.466025269189626" style="enable-background:new -2.62735 -1.55 3.832050269189626 2.466025269189626;" xml:space="preserve">
<style type="text/css">
  .no_fill_black_stroke {fill:none; stroke:#000000; stroke-width:0.02; stroke-miterlimit:10;}
  .face_text {fill:#000000; font-family:monospace;}
  .edge_text {fill:#ff0000; font-family:monospace;}
  .edge_bg {fill:#f3f3f3; stroke:#606060; stroke-width:0.02;}
</style>
<polygon class="no_fill_black_stroke" points="0.288675134594813, -0.5 -0.5773502691896258, -7.07050159149938e-17 0.288675134594813, 0.5"/>
<polygon class="no_fill_black_stroke" points="0.28867486540518683, 0.4999999999999999 1.1547002691896258, 1.414100318299876e-16 0.28867486540518755, -0.5000000000000003"/>
<polygon class="no_fill_black_stroke" points="1.1547001345948131, 0.0 1.1547001345948131, -1.0 0.2886747308103742, -0.5000000000000001"/>
<polygon class="no_fill_black_stroke" points="1.1547002691896258, -1.0 0.2886748654051872, -1.5 0.28867486540518683, -0.5000000000000001"/>
<polygon class="no_fill_black_stroke" points="0.2886750000000001, -1.5 -0.711325, -1.5 -0.7113250000000001, -0.5 0.2886749999999999, -0.4999999999999999"/>
<polygon class="no_fill_black_stroke" points="-0.711324865405187, -1.5 -1.5773502691896257, -1.0 -0.711324865405187, -0.5"/>
<polygon class="no_fill_black_stroke" points="-1.577355134594813, -1.0 -1.5773551345948134, -1.1102230246251565e-16 -0.7113297308103742, -0.49999999999999983"/>
<polygon class="no_fill_black_stroke" points="-1.57735, -1.0 -2.57735, -1.0 -2.57735, 0.0 -1.57735, 1.1102230246251565e-16"/>
<polygon class="no_fill_black_stroke" points="-2.57735, -1.3459481285060804e-07 -2.07735, 0.8660252691896259 -1.5773499999999996, -1.3459481246202998e-07"/>
<polygon class="no_fill_black_stroke" points="-2.07735, 0.866025134594813 -1.07735, 0.8660251345948132 -1.5773499999999998, -2.691896258122384e-07"/>
<polygon class="no_fill_black_stroke" points="-1.07735, 0.8660252691896259 -0.5773499999999999, -1.3459481285060804e-07 -1.57735, -1.3459481285060804e-07"/>
<text class="face_text" text-anchor="middle" dominant-baseline="middle" transform="matrix(0.004932050538379252 0 0 0.004932050538379252 0.0 0.0)">0</text>
<text class="face_text" text-anchor="middle" dominant-baseline="middle" transform="matrix(0.004932050538379252 0 0 0.004932050538379252 0.57735 0.0)">1</text>
<text class="face_text" text-anchor="middle" dominant-baseline="middle" transform="matrix(0.004932050538379252 0 0 0.004932050538379252 0.866025 -0.5)">2</text>
<text class="face_text" text-anchor="middle" dominant-baseline="middle" transform="matrix(0.004932050538379252 0 0 0.004932050538379252 0.57735 -1.0)">3</text>
<text class="face_text" text-anchor="middle" dominant-baseline="middle" transform="matrix(0.004932050538379252 0 0 0.004932050538379252 -0.211325 -1.0)">4</text>
<text class="face_text" text-anchor="middle" dominant-baseline="middle" transform="matrix(0.004932050538379252 0 0 0.004932050538379252 -1.0 -1.0)">5</text>
<text class="face_text" text-anchor="middle" dominant-baseline="middle" transform="matrix(0.004932050538379252 0 0 0.004932050538379252 -1.28868 -0.5)">6</text>
<text class="face_text" text-anchor="middle" dominant-baseline="middle" transform="matrix(0.004932050538379252 0 0 0.004932050538379252 -2.07735 -0.5)">17</text>
<text class="face_text" text-anchor="middle" dominant-baseline="middle" transform="matrix(0.004932050538379252 0 0 0.004932050538379252 -2.07735 0.288675)">18</text>
<text class="face_text" text-anchor="middle" dominant-baseline="middle" transform="matrix(0.004932050538379252 0 0 0.004932050538379252 -1.57735 0.57735)">16</text>
<text class="face_text" text-anchor="middle" dominant-baseline="middle" transform="matrix(0.004932050538379252 0 0 0.004932050538379252 -1.07735 0.288675)">7</text>
<rect class="edge_bg" x="0.23935436002139454" y="-0.049320505383792554" width="0.09864101076758504" height="0.09864101076758504"/>
<text class="edge_text" text-anchor="middle" dominant-baseline="middle" transform="matrix(0.004932050538379252 0 0 0.004932050538379252 0.28867486540518705 -3.535250795749691e-17)">3</text>
<rect class="edge_bg" x="0.6723669273188011" y="-0.2993205053837924" width="0.09864101076758504" height="0.09864101076758504"/>
<text class="edge_text" text-anchor="middle" dominant-baseline="middle" transform="matrix(0.004932050538379252 0 0 0.004932050538379252 0.7216874327025936 -0.2499999999999999)">2</text>
<rect class="edge_bg" x="0.6723670619136141" y="-0.7993205053837925" width="0.09864101076758504" height="0.09864101076758504"/>
<text class="edge_text" text-anchor="middle" dominant-baseline="middle" transform="matrix(0.004932050538379252 0 0 0.004932050538379252 0.7216875672974066 -0.75)">4</text>
<rect class="edge_bg" x="0.2393544946162076" y="-1.0493205053837926" width="0.09864101076758504" height="0.09864101076758504"/>
<text class="edge_text" text-anchor="middle" dominant-baseline="middle" transform="matrix(0.004932050538379252 0 0 0.004932050538379252 0.2886750000000001 -1.0)">1</text>
<rect class="edge_bg" x="-0.7606453707889795" y="-1.0493205053837926" width="0.09864101076758504" height="0.09864101076758504"/>
<text class="edge_text" text-anchor="middle" dominant-baseline="middle" transform="matrix(0.004932050538379252 0 0 0.004932050538379252 -0.711324865405187 -1.0)">5</text>
<rect class="edge_bg" x="-1.1936629380863861" y="-0.7993205053837925" width="0.09864101076758504" height="0.09864101076758504"/>
<text class="edge_text" text-anchor="middle" dominant-baseline="middle" transform="matrix(0.004932050538379252 0 0 0.004932050538379252 -1.1443424327025935 -0.75)">8</text>
<rect class="edge_bg" x="-1.6266705053837927" y="-0.5493205053837925" width="0.09864101076758504" height="0.09864101076758504"/>
<text class="edge_text" text-anchor="middle" dominant-baseline="middle" transform="matrix(0.004932050538379252 0 0 0.004932050538379252 -1.57735 -0.5)">22</text>
<rect class="edge_bg" x="-2.1266705053837924" y="-0.04932063997860548" width="0.09864101076758504" height="0.09864101076758504"/>
<text class="edge_text" text-anchor="middle" dominant-baseline="middle" transform="matrix(0.004932050538379252 0 0 0.004932050538379252 -2.07735 -1.3459481296163034e-07)">24</text>
<rect class="edge_bg" x="-1.8766705053837927" y="0.3836919273188011" width="0.09864101076758504" height="0.09864101076758504"/>
<text class="edge_text" text-anchor="middle" dominant-baseline="middle" transform="matrix(0.004932050538379252 0 0 0.004932050538379252 -1.82735 0.4330124327025936)">23</text>
<rect class="edge_bg" x="-1.3766705053837927" y="0.38369206191361394" width="0.09864101076758504" height="0.09864101076758504"/>
<text class="edge_text" text-anchor="middle" dominant-baseline="middle" transform="matrix(0.004932050538379252 0 0 0.004932050538379252 -1.32735 0.43301256729740645)">20</text>
</svg>
