<?xml version="1.0" encoding="utf-8"?>
<svg version="1.1" xmlns="http://www.w3.org/2000/svg" viewBox="-7.164593922589622 -5.181363722589621 13.259259845179242 11.897961445179241" style="enable-background:new -7.164593922589622 -5.181363722589621 13.259259845179242 11.897961445179241;">
<style type="text/css">
  .face_stroke {fill:none; stroke:#000000; stroke-width:0.02; stroke-miterlimit:10;}
  .face_text {fill:#000000; font-family:monospace;}
  .edge_text {fill:#ff0000; font-family:monospace;}
  .edge_bg {fill:#f3f3f3; stroke:#606060; stroke-width:0.01;}
</style>
<polygon class="face_stroke" points="0.288675134594813,-0.5 -0.5773502691896258,-7.07050159149938e-17 0.288675134594813,0.5"/>
<polygon class="face_stroke" points="0.28867486540518683,0.4999999999999999 1.1547002691896258,1.414100318299876e-16 0.28867486540518755,-0.5000000000000003"/>
<polygon class="face_stroke" points="0.2886754194390204,0.5000003975544667 -0.3804551869198387,1.2431452230318616 -0.7871918299956384,2.1566906806744615 -0.8917202932632917,3.1512125760427345 -0.6838086024455325,4.129360176776542 -0.18380860244553254,4.99538558056098 0.5593362230318619,5.664516186919839 1.4728816806744631,6.071252829995639 2.467403576042736,6.175781293263292 3.445551176776539,5.967869602445534 4.311576580560981,5.467869602445532 4.9807071869198385,4.724724776968138 5.3874438299956395,3.811179319325537 5.4919722932632915,2.8166574239572637 5.284060602445534,1.8385098232234607 4.7840606024455345,0.9724844194390214 4.040915776968139,0.3033538130801614 3.1273703193255376,-0.10338282999563919 2.1328484239572645,-0.20791129326329205 1.1547008232234586,3.9755446712419484e-07"/>
<polygon class="face_stroke" points="0.2886747356975547,0.499999955113455 -0.6894728650362509,0.2920882642956955 -0.3804558706613039,1.2431447805908493"/>
<polygon class="face_stroke" points="-0.6894721293386963,0.29208821940915064 -1.3586027356975547,1.0352330448865452 -0.38045513496374883,1.2431447357043042"/>
<polygon class="face_stroke" points="-0.6894728130801617,0.2920887769681384 -0.28273617000436113,-0.6214566806744625 -0.17820770673670827,-1.6159785760427359 -0.38611939755446745,-2.5941261767765416 -0.8861193975544674,-3.4601515805609804 -1.6292642230318617,-4.129282186919839 -2.5428096806744627,-4.536018829995639 -3.5373315760427353,-4.640547293263292 -4.515479176776542,-4.432635602445533 -5.38150458056098,-3.932635602445533 -6.050635186919839,-3.189490776968138 -6.457371829995639,-2.2759453193255386 -6.561900293263292,-1.281423423957265 -6.353988602445533,-0.30327582322345803 -5.853988602445533,0.5627495805609806 -5.110843776968139,1.2318801869198388 -4.1972983193255375,1.638616829995639 -3.202776423957264,1.7431452932632918 -2.224628823223461,1.535233602445534 -1.3586034194390195,1.0352336024455326"/>
<text class="face_text" text-anchor="middle" dominant-baseline="middle" transform="matrix(0.023795922890358482 0 0 0.023795922890358482 0.0 0.0)">0</text>
<text class="face_text" text-anchor="middle" dominant-baseline="middle" transform="matrix(0.023795922890358482 0 0 0.023795922890358482 0.57735 0.0)">39</text>
<text class="face_text" text-anchor="middle" dominant-baseline="middle" transform="matrix(0.023795922890358482 0 0 0.023795922890358482 2.300126 2.983935)">41</text>
<text class="face_text" text-anchor="middle" dominant-baseline="middle" transform="matrix(0.023795922890358482 0 0 0.023795922890358482 -0.260418 0.678411)">1</text>
<text class="face_text" text-anchor="middle" dominant-baseline="middle" transform="matrix(0.023795922890358482 0 0 0.023795922890358482 -0.80951 0.856822)">2</text>
<text class="face_text" text-anchor="middle" dominant-baseline="middle" transform="matrix(0.023795922890358482 0 0 0.023795922890358482 -3.370054 -1.448701)">40</text>
<rect class="edge_bg" x="0.05071563650160221" y="-0.23795922890358487" width="0.4759184578071697" height="0.4759184578071697"/>
<text class="edge_text" text-anchor="middle" dominant-baseline="middle" transform="matrix(0.023795922890358482 0 0 0.023795922890358482 0.28867486540518705 -3.535250795749691e-17)">0</text>
<rect class="edge_bg" x="0.48372889242765477" y="0.01204116865088184" width="0.4759184578071697" height="0.4759184578071697"/>
<text class="edge_text" text-anchor="middle" dominant-baseline="middle" transform="matrix(0.023795922890358482 0 0 0.023795922890358482 0.7216881213312396 0.2500003975544667)">6</text>
<rect class="edge_bg" x="-0.28384979638545926" y="0.6336131389485673" width="0.4759184578071697" height="0.4759184578071697"/>
<text class="edge_text" text-anchor="middle" dominant-baseline="middle" transform="matrix(0.023795922890358482 0 0 0.023795922890358482 -0.045890567481874395 0.8715723678521522)">5</text>
<rect class="edge_bg" x="-0.7729228610548073" y="0.5296572486531426" width="0.4759184578071697" height="0.4759184578071697"/>
<text class="edge_text" text-anchor="middle" dominant-baseline="middle" transform="matrix(0.023795922890358482 0 0 0.023795922890358482 -0.5349636321512226 0.7676164775567275)">7</text>
<rect class="edge_bg" x="-1.2619973451631752" y="0.4257019608032508" width="0.4759184578071697" height="0.4759184578071697"/>
<text class="edge_text" text-anchor="middle" dominant-baseline="middle" transform="matrix(0.023795922890358482 0 0 0.023795922890358482 -1.0240381162595904 0.6636611897068356)">8</text>
</svg>
