<?xml version="1.0" encoding="utf-8"?>
<svg version="1.1" xmlns="http://www.w3.org/2000/svg" viewBox="-1.7183252163444258 -0.8337890646631649 7.553645010065228 7.3433594225896215" style="enable-background:new -1.7183252163444258 -0.8337890646631649 7.553645010065228 7.3433594225896215;">
<style type="text/css">
  .face_stroke {fill:none; stroke:#000000; stroke-width:0.02; stroke-miterlimit:10;}
  .face_text {fill:#000000; font-family:monospace;}
  .edge_text {fill:#ff0000; font-family:monospace;}
  .edge_bg {fill:#f3f3f3; stroke:#606060; stroke-width:0.01;}
</style>
<polygon class="face_stroke" points="0.288675134594813,-0.5 -0.5773502691896258,-7.07050159149938e-17 0.288675134594813,0.5"/>
<polygon class="face_stroke" points="0.28867486540518683,0.4999999999999999 1.1547002691896258,1.414100318299876e-16 0.28867486540518755,-0.5000000000000003"/>
<polygon class="face_stroke" points="0.2886754194390204,0.5000003975544667 -0.3804551869198387,1.2431452230318616 -0.7871918299956384,2.1566906806744615 -0.8917202932632917,3.1512125760427345 -0.6838086024455325,4.129360176776542 -0.18380860244553254,4.99538558056098 0.5593362230318619,5.664516186919839 1.4728816806744631,6.071252829995639 2.467403576042736,6.175781293263292 3.445551176776539,5.967869602445534 4.311576580560981,5.467869602445532 4.9807071869198385,4.724724776968138 5.3874438299956395,3.811179319325537 5.4919722932632915,2.8166574239572637 5.284060602445534,1.8385098232234607 4.7840606024455345,0.9724844194390214 4.040915776968139,0.3033538130801614 3.1273703193255376,-0.10338282999563919 2.1328484239572645,-0.20791129326329205 1.1547008232234586,3.9755446712419484e-07"/>
<polygon class="face_stroke" points="-0.3804558205186421,1.2431450263632484 -1.3749777158869154,1.347673489630902 -0.7871924635944426,2.1566904840058494"/>
<polygon class="face_stroke" points="-0.3804552841130845,1.2431445103690981 -0.9682405364055575,0.43412751599415056 -1.374977179481358,1.3476729736367514"/>
<polygon class="face_stroke" points="-0.3804554635944424,1.2431444840058496 0.02628117948135794,0.3295990263632485 -0.9682407158869155,0.43412748963090186"/>
<text class="face_text" text-anchor="middle" dominant-baseline="middle" transform="matrix(0.014686718845179244 0 0 0.014686718845179244 0.0 0.0)">0</text>
<text class="face_text" text-anchor="middle" dominant-baseline="middle" transform="matrix(0.014686718845179244 0 0 0.014686718845179244 0.57735 0.0)">39</text>
<text class="face_text" text-anchor="middle" dominant-baseline="middle" transform="matrix(0.014686718845179244 0 0 0.014686718845179244 2.300126 2.983935)">41</text>
<text class="face_text" text-anchor="middle" dominant-baseline="middle" transform="matrix(0.014686718845179244 0 0 0.014686718845179244 -0.847542 1.582503)">3</text>
<text class="face_text" text-anchor="middle" dominant-baseline="middle" transform="matrix(0.014686718845179244 0 0 0.014686718845179244 -0.907891 1.008315)">2</text>
<text class="face_text" text-anchor="middle" dominant-baseline="middle" transform="matrix(0.014686718845179244 0 0 0.014686718845179244 -0.440805 0.668957)">1</text>
<rect class="edge_bg" x="0.1418076769533946" y="-0.14686718845179247" width="0.2937343769035849" height="0.2937343769035849"/>
<text class="edge_text" text-anchor="middle" dominant-baseline="middle" transform="matrix(0.014686718845179244 0 0 0.014686718845179244 0.28867486540518705 -3.535250795749691e-17)">0</text>
<rect class="edge_bg" x="0.5748209328794471" y="0.10313320910267423" width="0.2937343769035849" height="0.2937343769035849"/>
<text class="edge_text" text-anchor="middle" dominant-baseline="middle" transform="matrix(0.014686718845179244 0 0 0.014686718845179244 0.7216881213312396 0.2500003975544667)">6</text>
<rect class="edge_bg" x="-0.7306913305083347" y="1.5530505667327565" width="0.2937343769035849" height="0.2937343769035849"/>
<text class="edge_text" text-anchor="middle" dominant-baseline="middle" transform="matrix(0.014686718845179244 0 0 0.014686718845179244 -0.5838241420565422 1.699917755184549)">10</text>
<rect class="edge_bg" x="-1.0245834202490136" y="1.1485415535511325" width="0.2937343769035849" height="0.2937343769035849"/>
<text class="edge_text" text-anchor="middle" dominant-baseline="middle" transform="matrix(0.014686718845179244 0 0 0.014686718845179244 -0.8777162317972211 1.295408742002925)">9</text>
<rect class="edge_bg" x="-0.8212152781924714" y="0.6917687983665833" width="0.2937343769035849" height="0.2937343769035849"/>
<text class="edge_text" text-anchor="middle" dominant-baseline="middle" transform="matrix(0.014686718845179244 0 0 0.014686718845179244 -0.674348089740679 0.8386359868183758)">7</text>
</svg>
