<?xml version="1.0" encoding="utf-8"?>
<svg version="1.1" xmlns="http://www.w3.org/2000/svg" viewBox="-8.311446972589621 -3.113777222589621 14.460724945179242 9.731918445179243" style="enable-background:new -8.311446972589621 -3.113777222589621 14.460724945179242 9.731918445179243;">
<style type="text/css">
  .face_stroke {fill:none; stroke:#000000; stroke-width:0.02; stroke-miterlimit:10;}
  .face_text {fill:#000000; font-family:monospace;}
  .edge_text {fill:#ff0000; font-family:monospace;}
  .edge_bg {fill:#f3f3f3; stroke:#606060; stroke-width:0.01;}
</style>
<polygon class="face_stroke" points="0.288675134594813,-0.5 -0.5773502691896258,-7.07050159149938e-17 0.288675134594813,0.5"/>
<polygon class="face_stroke" points="0.28867486540518683,0.4999999999999999 1.1547002691896258,1.414100318299876e-16 0.28867486540518755,-0.5000000000000003"/>
<polygon class="face_stroke" points="0.2886754194390204,0.5000003975544667 -0.3804551869198387,1.2431452230318616 -0.7871918299956384,2.1566906806744615 -0.8917202932632917,3.1512125760427345 -0.6838086024455325,4.129360176776542 -0.18380860244553254,4.99538558056098 0.5593362230318619,5.664516186919839 1.4728816806744631,6.071252829995639 2.467403576042736,6.175781293263292 3.445551176776539,5.967869602445534 4.311576580560981,5.467869602445532 4.9807071869198385,4.724724776968138 5.3874438299956395,3.811179319325537 5.4919722932632915,2.8166574239572637 5.284060602445534,1.8385098232234607 4.7840606024455345,0.9724844194390214 4.040915776968139,0.3033538130801614 3.1273703193255376,-0.10338282999563919 2.1328484239572645,-0.20791129326329205 1.1547008232234586,3.9755446712419484e-07"/>
<polygon class="face_stroke" points="-0.3804558205186421,1.2431450263632484 -1.3749777158869154,1.347673489630902 -0.7871924635944426,2.1566904840058494"/>
<polygon class="face_stroke" points="-1.3749775364055574,1.3476735159941504 -1.7817141794813578,2.2612189736367516 -0.7871922841130844,2.156690510369098"/>
<polygon class="face_stroke" points="-1.3749771700043611,1.3476733193255375 -1.2704487067367083,0.35315142395726423 -1.4783603975544675,-0.6249961767765415 -1.9783603975544675,-1.49102158056098 -2.721505223031862,-2.1601521869198383 -3.6350506806744627,-2.566888829995639 -4.629572576042735,-2.671417293263292 -5.607720176776541,-2.4635056024455326 -6.47374558056098,-1.963505602445533 -7.142876186919839,-1.2203607769681382 -7.549612829995638,-0.3068153193255384 -7.654141293263292,0.687706576042735 -7.446229602445532,1.665854176776542 -6.946229602445532,2.5318795805609806 -6.203084776968138,3.201010186919839 -5.289539319325537,3.607746829995639 -4.295017423957264,3.712275293263292 -3.316869823223461,3.504363602445534 -2.4508444194390195,3.0043636024455327 -1.7817138130801617,2.2612187769681382"/>
<polygon class="face_stroke" points="-1.3749769736367516,1.347673179481358 -0.46143151599415055,0.9409365364055576 -1.2704485103690981,0.3531512841130845"/>
<polygon class="face_stroke" points="-0.46143148963090197,0.9409367158869155 -0.3569030263632485,-0.053585179481357936 -1.2704484840058496,0.3531514635944422"/>
<text class="face_text" text-anchor="middle" dominant-baseline="middle" transform="matrix(0.019463836890358487 0 0 0.019463836890358487 0.0 0.0)">0</text>
<text class="face_text" text-anchor="middle" dominant-baseline="middle" transform="matrix(0.019463836890358487 0 0 0.019463836890358487 0.57735 0.0)">39</text>
<text class="face_text" text-anchor="middle" dominant-baseline="middle" transform="matrix(0.019463836890358487 0 0 0.019463836890358487 2.300126 2.983935)">41</text>
<text class="face_text" text-anchor="middle" dominant-baseline="middle" transform="matrix(0.019463836890358487 0 0 0.019463836890358487 -0.847542 1.582503)">3</text>
<text class="face_text" text-anchor="middle" dominant-baseline="middle" transform="matrix(0.019463836890358487 0 0 0.019463836890358487 -1.314628 1.921861)">4</text>
<text class="face_text" text-anchor="middle" dominant-baseline="middle" transform="matrix(0.019463836890358487 0 0 0.019463836890358487 -4.462295 0.520429)">40</text>
<text class="face_text" text-anchor="middle" dominant-baseline="middle" transform="matrix(0.019463836890358487 0 0 0.019463836890358487 -1.035619 0.880587)">2</text>
<text class="face_text" text-anchor="middle" dominant-baseline="middle" transform="matrix(0.019463836890358487 0 0 0.019463836890358487 -0.696261 0.413501)">1</text>
<rect class="edge_bg" x="0.09403649650160217" y="-0.1946383689035849" width="0.38927673780716976" height="0.38927673780716976"/>
<text class="edge_text" text-anchor="middle" dominant-baseline="middle" transform="matrix(0.019463836890358487 0 0 0.019463836890358487 0.28867486540518705 -3.535250795749691e-17)">0</text>
<rect class="edge_bg" x="0.5270497524276547" y="0.0553620286508818" width="0.38927673780716976" height="0.38927673780716976"/>
<text class="edge_text" text-anchor="middle" dominant-baseline="middle" transform="matrix(0.019463836890358487 0 0 0.019463836890358487 0.7216881213312396 0.2500003975544667)">6</text>
<rect class="edge_bg" x="-0.7784625109601271" y="1.5052793862809641" width="0.38927673780716976" height="0.38927673780716976"/>
<text class="edge_text" text-anchor="middle" dominant-baseline="middle" transform="matrix(0.019463836890358487 0 0 0.019463836890358487 -0.5838241420565422 1.699917755184549)">10</text>
<rect class="edge_bg" x="-1.2757232791629058" y="1.5575436442780393" width="0.38927673780716976" height="0.38927673780716976"/>
<text class="edge_text" text-anchor="middle" dominant-baseline="middle" transform="matrix(0.019463836890358487 0 0 0.019463836890358487 -1.081084910259321 1.7521820131816241)">11</text>
<rect class="edge_bg" x="-1.7729838604458465" y="1.6098076792432532" width="0.38927673780716976" height="0.38927673780716976"/>
<text class="edge_text" text-anchor="middle" dominant-baseline="middle" transform="matrix(0.019463836890358487 0 0 0.019463836890358487 -1.5783454915422617 1.804446048146838)">12</text>
<rect class="edge_bg" x="-1.5173511109065099" y="0.6557738628936363" width="0.38927673780716976" height="0.38927673780716976"/>
<text class="edge_text" text-anchor="middle" dominant-baseline="middle" transform="matrix(0.019463836890358487 0 0 0.019463836890358487 -1.322712742002925 0.8504122317972211)">8</text>
<rect class="edge_bg" x="-1.0605783557219608" y="0.4524057208370942" width="0.38927673780716976" height="0.38927673780716976"/>
<text class="edge_text" text-anchor="middle" dominant-baseline="middle" transform="matrix(0.019463836890358487 0 0 0.019463836890358487 -0.8659399868183758 0.6470440897406791)">7</text>
</svg>
