<?xml version="1.0" encoding="utf-8"?>
<svg version="1.1" xmlns="http://www.w3.org/2000/svg" viewBox="-7.359038433071274 -3.5597205830712744 14.626296866142548 8.862586166142549" style="enable-background:new -7.359038433071274 -3.5597205830712744 14.626296866142548 8.862586166142549;">
<style type="text/css">
  .face_stroke {fill:none; stroke:#000000; stroke-width:0.02; stroke-miterlimit:10;}
  .face_text {fill:#000000; font-family:monospace;}
  .edge_text {fill:#ff0000; font-family:monospace;}
  .edge_bg {fill:#f3f3f3; stroke:#606060; stroke-width:0.01;}
</style>
<polygon class="face_stroke" points="0.288675134594813,-0.5 -0.5773502691896258,-7.07050159149938e-17 0.288675134594813,0.5"/>
<polygon class="face_stroke" points="0.2886752426624781,0.49999999999999956 0.5976922370374251,1.4510565162951519 1.1854774893298985,2.260073510670101 1.9944944837048457,2.847858762962574 2.9455509999999996,3.1568757573375215 3.9455509999999996,3.156875757337522 4.896607516295154,2.8478587629625745 5.7056245106701,2.2600735106701015 6.293409762962574,1.4510565162951543 6.602426757337522,0.5000000000000008 6.602426757337522,-0.4999999999999992 6.293409762962574,-1.4510565162951554 5.705624510670104,-2.2600735106700984 4.896607516295155,-2.847858762962574 3.945551000000001,-3.1568757573375215 2.9455510000000036,-3.1568757573375223 1.9944944837048448,-2.847858762962573 1.1854774893298976,-2.2600735106700998 0.5976922370374251,-1.451056516295152 0.288675242662479,-0.5000000000000039"/>
<polygon class="face_stroke" points="0.2886748706613037,0.5000002194091507 -0.38045573569755464,1.2431450448865453 0.5976918650362512,1.4510567357043045"/>
<polygon class="face_stroke" points="0.2886747356975547,0.499999955113455 -0.6894728650362509,0.2920882642956955 -0.3804558706613039,1.2431447805908493"/>
<polygon class="face_stroke" points="-0.6894722370374256,0.2920884837048463 -1.277257489329899,-0.5169285106701011 -2.0862744837048464,-1.1047137629625745 -3.037331,-1.413730757337522 -4.037331000000001,-1.4137307573375215 -4.988387516295154,-1.1047137629625745 -5.797404510670101,-0.5169285106701011 -6.385189762962574,0.2920884837048461 -6.694206757337522,1.2431449999999997 -6.694206757337522,2.2431449999999993 -6.385189762962575,3.194201516295152 -5.797404510670102,4.003218510670101 -4.9883875162951545,4.591003762962574 -4.037331000000001,4.900020757337521 -3.0373310000000004,4.900020757337522 -2.086274483704847,4.591003762962575 -1.2772574893298994,4.003218510670101 -0.689472237037426,3.1942015162951543 -0.38045524266247854,2.2431450000000006 -0.3804552426624781,1.2431450000000006"/>
<polygon class="face_stroke" points="-1.277257489630902,-0.5169282841130846 -1.1727290263632484,-1.511450179481358 -2.0862744840058496,-1.1047135364055578"/>
<polygon class="face_stroke" points="-1.2772579736367515,-0.5169288205186421 -0.36371251599415044,-0.9236654635944423 -1.172729510369098,-1.5114507158869155"/>
<polygon class="face_stroke" points="-1.2772574840058495,-0.5169285364055578 -0.46824048963090176,0.0708567158869155 -0.36371202636324795,-0.9236651794813575"/>
<text class="face_text" text-anchor="middle" dominant-baseline="middle" transform="matrix(0.0177251723322851 0 0 0.0177251723322851 0.0 0.0)">0</text>
<text class="face_text" text-anchor="middle" dominant-baseline="middle" transform="matrix(0.0177251723322851 0 0 0.0177251723322851 3.445551 0.0)">40</text>
<text class="face_text" text-anchor="middle" dominant-baseline="middle" transform="matrix(0.0177251723322851 0 0 0.0177251723322851 0.168637 1.064734)">38</text>
<text class="face_text" text-anchor="middle" dominant-baseline="middle" transform="matrix(0.0177251723322851 0 0 0.0177251723322851 -0.260418 0.678411)">39</text>
<text class="face_text" text-anchor="middle" dominant-baseline="middle" transform="matrix(0.0177251723322851 0 0 0.0177251723322851 -3.537331 1.743145)">41</text>
<text class="face_text" text-anchor="middle" dominant-baseline="middle" transform="matrix(0.0177251723322851 0 0 0.0177251723322851 -1.512087 -1.044364)">3</text>
<text class="face_text" text-anchor="middle" dominant-baseline="middle" transform="matrix(0.0177251723322851 0 0 0.0177251723322851 -0.9379 -0.984015)">2</text>
<text class="face_text" text-anchor="middle" dominant-baseline="middle" transform="matrix(0.0177251723322851 0 0 0.0177251723322851 -0.70307 -0.456579)">1</text>
<rect class="edge_bg" x="0.11142351933962716" y="-0.17725172332285136" width="0.35450344664570194" height="0.35450344664570194"/>
<text class="edge_text" text-anchor="middle" dominant-baseline="middle" transform="matrix(0.0177251723322851 0 0 0.0177251723322851 0.2886752426624781 -3.866057791529273e-16)">1</text>
<rect class="edge_bg" x="0.26593164452592644" y="0.7982767542338766" width="0.35450344664570194" height="0.35450344664570194"/>
<text class="edge_text" text-anchor="middle" dominant-baseline="middle" transform="matrix(0.0177251723322851 0 0 0.0177251723322851 0.44318336784877743 0.9755284775567276)">2</text>
<rect class="edge_bg" x="-0.22314229080472536" y="0.6943206445293012" width="0.35450344664570194" height="0.35450344664570194"/>
<text class="edge_text" text-anchor="middle" dominant-baseline="middle" transform="matrix(0.0177251723322851 0 0 0.0177251723322851 -0.045890567481874395 0.8715723678521522)">3</text>
<rect class="edge_bg" x="-0.7122154631728028" y="0.5903650185295721" width="0.35450344664570194" height="0.35450344664570194"/>
<text class="edge_text" text-anchor="middle" dominant-baseline="middle" transform="matrix(0.0177251723322851 0 0 0.0177251723322851 -0.5349637398499518 0.7676167418524231)">6</text>
<rect class="edge_bg" x="-1.8590177101412266" y="-0.9880726335821721" width="0.35450344664570194" height="0.35450344664570194"/>
<text class="edge_text" text-anchor="middle" dominant-baseline="middle" transform="matrix(0.0177251723322851 0 0 0.0177251723322851 -1.6817659868183756 -0.8108209102593211)">10</text>
<rect class="edge_bg" x="-1.4022454653257759" y="-1.19144149152563" width="0.35450344664570194" height="0.35450344664570194"/>
<text class="edge_text" text-anchor="middle" dominant-baseline="middle" transform="matrix(0.0177251723322851 0 0 0.0177251723322851 -1.2249937420029249 -1.014189768202779)">9</text>
<rect class="edge_bg" x="-0.9977364785074" y="-0.8975485812663089" width="0.35450344664570194" height="0.35450344664570194"/>
<text class="edge_text" text-anchor="middle" dominant-baseline="middle" transform="matrix(0.0177251723322851 0 0 0.0177251723322851 -0.820484755184549 -0.7202968579434579)">7</text>
</svg>
