<?xml version="1.0" encoding="utf-8"?>
<svg version="1.1" xmlns="http://www.w3.org/2000/svg" viewBox="-3.831552183071274 -3.497563333071274 14.842881366142548 7.495126666142548" style="enable-background:new -3.831552183071274 -3.497563333071274 14.842881366142548 7.495126666142548;">
<style type="text/css">
  .face_stroke {fill:none; stroke:#000000; stroke-width:0.02; stroke-miterlimit:10;}
  .face_text {fill:#000000; font-family:monospace;}
  .edge_text {fill:#ff0000; font-family:monospace;}
  .edge_bg {fill:#f3f3f3; stroke:#606060; stroke-width:0.01;}
</style>
<polygon class="face_stroke" points="3.156875757337522,-0.5 2.8478587629625745,-1.4510565162951536 2.260073510670101,-2.260073510670101 1.4510565162951539,-2.8478587629625745 0.5000000000000002,-3.156875757337522 -0.5000000000000006,-3.1568757573375215 -1.4510565162951534,-2.8478587629625745 -2.260073510670101,-2.260073510670101 -2.847858762962574,-1.4510565162951539 -3.1568757573375215,-0.5000000000000003 -3.156875757337522,0.49999999999999956 -2.847858762962575,1.4510565162951519 -2.2600735106701015,2.260073510670101 -1.4510565162951543,2.847858762962574 -0.5000000000000006,3.1568757573375215 0.4999999999999994,3.156875757337522 1.4510565162951532,2.8478587629625745 2.2600735106701006,2.2600735106701015 2.847858762962574,1.4510565162951543 3.1568757573375215,0.5000000000000008"/>
<polygon class="face_stroke" points="3.156875865405187,0.4999999999999999 4.022901269189626,1.414100318299876e-16 3.1568758654051874,-0.5000000000000003"/>
<polygon class="face_stroke" points="3.1568757308103743,0.49999999999999994 4.022901134594813,1.0 4.022901134594813,-1.1102230246251565e-16"/>
<polygon class="face_stroke" points="4.022901242662478,0.9999999999999996 4.331918237037424,1.9510565162951519 4.919703489329898,2.760073510670101 5.728720483704845,3.347858762962574 6.679776999999999,3.6568757573375215 7.679776999999999,3.656875757337522 8.630833516295153,3.3478587629625745 9.4398505106701,2.7600735106701015 10.027635762962573,1.9510565162951543 10.336652757337522,1.0000000000000009 10.336652757337522,7.771561172376096e-16 10.027635762962573,-0.9510565162951554 9.439850510670103,-1.7600735106700984 8.630833516295153,-2.347858762962574 7.6797770000000005,-2.6568757573375215 6.679777000000003,-2.6568757573375223 5.728720483704844,-2.347858762962573 4.919703489329898,-1.7600735106700998 4.331918237037424,-0.9510565162951521 4.022901242662479,-3.885780586188048e-15"/>
<polygon class="face_stroke" points="4.331918463594442,1.9510565159941504 3.9251818205186417,2.864601973636751 4.919703715886915,2.760073510369098"/>
<polygon class="face_stroke" points="4.331918179481358,1.9510560263632486 3.337396284113084,2.055584489630902 3.925181536405557,2.8646014840058496"/>
<polygon class="face_stroke" points="4.331917715886916,1.951056510369098 3.7441324635944424,1.1420395159941505 3.3373958205186423,2.0555849736367513"/>
<polygon class="face_stroke" points="3.744133179481358,1.1420390263632485 2.7496112841130844,1.246567489630902 3.3373965364055573,2.0555844840058497"/>
<text class="face_text" text-anchor="middle" dominant-baseline="middle" transform="matrix(0.014990253332285097 0 0 0.014990253332285097 0.0 0.0)">40</text>
<text class="face_text" text-anchor="middle" dominant-baseline="middle" transform="matrix(0.014990253332285097 0 0 0.014990253332285097 3.445551 0.0)">0</text>
<text class="face_text" text-anchor="middle" dominant-baseline="middle" transform="matrix(0.014990253332285097 0 0 0.014990253332285097 3.734226 0.5)">1</text>
<text class="face_text" text-anchor="middle" dominant-baseline="middle" transform="matrix(0.014990253332285097 0 0 0.014990253332285097 7.179777 0.5)">41</text>
<text class="face_text" text-anchor="middle" dominant-baseline="middle" transform="matrix(0.014990253332285097 0 0 0.014990253332285097 4.392268 2.525244)">5</text>
<text class="face_text" text-anchor="middle" dominant-baseline="middle" transform="matrix(0.014990253332285097 0 0 0.014990253332285097 3.864832 2.290414)">4</text>
<text class="face_text" text-anchor="middle" dominant-baseline="middle" transform="matrix(0.014990253332285097 0 0 0.014990253332285097 3.804482 1.716227)">3</text>
<text class="face_text" text-anchor="middle" dominant-baseline="middle" transform="matrix(0.014990253332285097 0 0 0.014990253332285097 3.277047 1.481397)">2</text>
<rect class="edge_bg" x="3.006973332082336" y="-0.149902533322851" width="0.29980506664570195" height="0.29980506664570195"/>
<text class="edge_text" text-anchor="middle" dominant-baseline="middle" transform="matrix(0.014990253332285097 0 0 0.014990253332285097 3.156875865405187 -3.535250795749691e-17)">1</text>
<rect class="edge_bg" x="3.4399858993797423" y="0.10009746667714892" width="0.29980506664570195" height="0.29980506664570195"/>
<text class="edge_text" text-anchor="middle" dominant-baseline="middle" transform="matrix(0.014990253332285097 0 0 0.014990253332285097 3.5898884327025935 0.2499999999999999)">4</text>
<rect class="edge_bg" x="3.872998709339627" y="0.35009746667714864" width="0.29980506664570195" height="0.29980506664570195"/>
<text class="edge_text" text-anchor="middle" dominant-baseline="middle" transform="matrix(0.014990253332285097 0 0 0.014990253332285097 4.022901242662478 0.4999999999999996)">5</text>
<rect class="edge_bg" x="4.475908556417828" y="2.2056624798587734" width="0.29980506664570195" height="0.29980506664570195"/>
<text class="edge_text" text-anchor="middle" dominant-baseline="middle" transform="matrix(0.014990253332285097 0 0 0.014990253332285097 4.625811089740679 2.355565013181624)">14</text>
<rect class="edge_bg" x="3.9786473246206073" y="2.2579262218616982" width="0.29980506664570195" height="0.29980506664570195"/>
<text class="edge_text" text-anchor="middle" dominant-baseline="middle" transform="matrix(0.014990253332285097 0 0 0.014990253332285097 4.128549857943458 2.407828755184549)">13</text>
<rect class="edge_bg" x="3.684754234879928" y="1.853418208680074" width="0.29980506664570195" height="0.29980506664570195"/>
<text class="edge_text" text-anchor="middle" dominant-baseline="middle" transform="matrix(0.014990253332285097 0 0 0.014990253332285097 3.834656768202779 2.003320742002925)">11</text>
<rect class="edge_bg" x="3.390862324620607" y="1.4489092218616981" width="0.29980506664570195" height="0.29980506664570195"/>
<text class="edge_text" text-anchor="middle" dominant-baseline="middle" transform="matrix(0.014990253332285097 0 0 0.014990253332285097 3.540764857943458 1.598811755184549)">9</text>
</svg>
