<?xml version="1.0" encoding="utf-8"?>
<svg version="1.1" xmlns="http://www.w3.org/2000/svg" viewBox="-3.831552183071274 -3.502449330998744 14.842881366142548 7.602618620546881" style="enable-background:new -3.831552183071274 -3.502449330998744 14.842881366142548 7.602618620546881;">
<style type="text/css">
  .face_stroke {fill:none; stroke:#000000; stroke-width:0.02; stroke-miterlimit:10;}
  .face_text {fill:#000000; font-family:monospace;}
  .edge_text {fill:#ff0000; font-family:monospace;}
  .edge_bg {fill:#f3f3f3; stroke:#606060; stroke-width:0.01;}
</style>
<polygon class="face_stroke" points="3.156875757337522,-0.5 2.8478587629625745,-1.4510565162951536 2.260073510670101,-2.260073510670101 1.4510565162951539,-2.8478587629625745 0.5000000000000002,-3.156875757337522 -0.5000000000000006,-3.1568757573375215 -1.4510565162951534,-2.8478587629625745 -2.260073510670101,-2.260073510670101 -2.847858762962574,-1.4510565162951539 -3.1568757573375215,-0.5000000000000003 -3.156875757337522,0.49999999999999956 -2.847858762962575,1.4510565162951519 -2.2600735106701015,2.260073510670101 -1.4510565162951543,2.847858762962574 -0.5000000000000006,3.1568757573375215 0.4999999999999994,3.156875757337522 1.4510565162951532,2.8478587629625745 2.2600735106701006,2.2600735106701015 2.847858762962574,1.4510565162951543 3.1568757573375215,0.5000000000000008"/>
<polygon class="face_stroke" points="3.156875865405187,0.4999999999999999 4.022901269189626,1.414100318299876e-16 3.1568758654051874,-0.5000000000000003"/>
<polygon class="face_stroke" points="3.1568757308103743,0.49999999999999994 4.022901134594813,1.0 4.022901134594813,-1.1102230246251565e-16"/>
<polygon class="face_stroke" points="4.022901242662478,0.9999999999999996 4.331918237037424,1.9510565162951519 4.919703489329898,2.760073510670101 5.728720483704845,3.347858762962574 6.679776999999999,3.6568757573375215 7.679776999999999,3.656875757337522 8.630833516295153,3.3478587629625745 9.4398505106701,2.7600735106701015 10.027635762962573,1.9510565162951543 10.336652757337522,1.0000000000000009 10.336652757337522,7.771561172376096e-16 10.027635762962573,-0.9510565162951554 9.439850510670103,-1.7600735106700984 8.630833516295153,-2.347858762962574 7.6797770000000005,-2.6568757573375215 6.679777000000003,-2.6568757573375223 5.728720483704844,-2.347858762962573 4.919703489329898,-1.7600735106700998 4.331918237037424,-0.9510565162951521 4.022901242662479,-3.885780586188048e-15"/>
<polygon class="face_stroke" points="4.919703489630902,2.7600732841130844 4.8151750263632485,3.754595179481358 5.72872048400585,3.3478585364055578"/>
<polygon class="face_stroke" points="4.919702973636752,2.760073820518642 4.0061575159941505,3.1668104635944423 4.815174510369099,3.7545957158869157"/>
<polygon class="face_stroke" points="4.91970348400585,2.7600735364055575 4.110686489630902,2.172288284113084 4.006158026363249,3.1668101794813577"/>
<polygon class="face_stroke" points="4.110685973636752,2.172287820518642 3.1971405159941506,2.5790244635944424 4.006157510369098,3.1668097158869157"/>
<polygon class="face_stroke" points="4.11068648400585,2.1722885364055577 3.301669489630902,1.5845032841130844 3.1971410263632487,2.579025179481358"/>
<polygon class="face_stroke" points="3.3016689736367515,1.584502820518642 2.3881235159941507,1.9912394635944421 3.197140510369098,2.5790247158869155"/>
<text class="face_text" text-anchor="middle" dominant-baseline="middle" transform="matrix(0.015205237241093763 0 0 0.015205237241093763 0.0 0.0)">40</text>
<text class="face_text" text-anchor="middle" dominant-baseline="middle" transform="matrix(0.015205237241093763 0 0 0.015205237241093763 3.445551 0.0)">0</text>
<text class="face_text" text-anchor="middle" dominant-baseline="middle" transform="matrix(0.015205237241093763 0 0 0.015205237241093763 3.734226 0.5)">1</text>
<text class="face_text" text-anchor="middle" dominant-baseline="middle" transform="matrix(0.015205237241093763 0 0 0.015205237241093763 7.179777 0.5)">41</text>
<text class="face_text" text-anchor="middle" dominant-baseline="middle" transform="matrix(0.015205237241093763 0 0 0.015205237241093763 5.154533 3.287509)">7</text>
<text class="face_text" text-anchor="middle" dominant-baseline="middle" transform="matrix(0.015205237241093763 0 0 0.015205237241093763 4.580345 3.22716)">6</text>
<text class="face_text" text-anchor="middle" dominant-baseline="middle" transform="matrix(0.015205237241093763 0 0 0.015205237241093763 4.345516 2.699724)">5</text>
<text class="face_text" text-anchor="middle" dominant-baseline="middle" transform="matrix(0.015205237241093763 0 0 0.015205237241093763 3.771328 2.639374)">4</text>
<text class="face_text" text-anchor="middle" dominant-baseline="middle" transform="matrix(0.015205237241093763 0 0 0.015205237241093763 3.536499 2.111939)">3</text>
<text class="face_text" text-anchor="middle" dominant-baseline="middle" transform="matrix(0.015205237241093763 0 0 0.015205237241093763 2.962311 2.051589)">2</text>
<rect class="edge_bg" x="3.0048234929942494" y="-0.15205237241093766" width="0.3041047448218753" height="0.3041047448218753"/>
<text class="edge_text" text-anchor="middle" dominant-baseline="middle" transform="matrix(0.015205237241093763 0 0 0.015205237241093763 3.156875865405187 -3.535250795749691e-17)">1</text>
<rect class="edge_bg" x="3.437836060291656" y="0.09794762758906225" width="0.3041047448218753" height="0.3041047448218753"/>
<text class="edge_text" text-anchor="middle" dominant-baseline="middle" transform="matrix(0.015205237241093763 0 0 0.015205237241093763 3.5898884327025935 0.2499999999999999)">4</text>
<rect class="edge_bg" x="3.8708488702515402" y="0.34794762758906195" width="0.3041047448218753" height="0.3041047448218753"/>
<text class="edge_text" text-anchor="middle" dominant-baseline="middle" transform="matrix(0.015205237241093763 0 0 0.015205237241093763 4.022901242662478 0.4999999999999996)">5</text>
<rect class="edge_bg" x="5.1721596144074375" y="2.9019135378483836" width="0.3041047448218753" height="0.3041047448218753"/>
<text class="edge_text" text-anchor="middle" dominant-baseline="middle" transform="matrix(0.015205237241093763 0 0 0.015205237241093763 5.3242119868183755 3.053965910259321)">18</text>
<rect class="edge_bg" x="4.715386369591987" y="3.1052823957918414" width="0.3041047448218753" height="0.3041047448218753"/>
<text class="edge_text" text-anchor="middle" dominant-baseline="middle" transform="matrix(0.015205237241093763 0 0 0.015205237241093763 4.867438742002925 3.257334768202779)">17</text>
<rect class="edge_bg" x="4.310878382773611" y="2.81138948553252" width="0.3041047448218753" height="0.3041047448218753"/>
<text class="edge_text" text-anchor="middle" dominant-baseline="middle" transform="matrix(0.015205237241093763 0 0 0.015205237241093763 4.462930755184549 2.9634418579434576)">15</text>
<rect class="edge_bg" x="3.9063693695919874" y="2.5174963957918415" width="0.3041047448218753" height="0.3041047448218753"/>
<text class="edge_text" text-anchor="middle" dominant-baseline="middle" transform="matrix(0.015205237241093763 0 0 0.015205237241093763 4.058421742002925 2.669548768202779)">13</text>
<rect class="edge_bg" x="3.5018613827736114" y="2.2236044855325203" width="0.3041047448218753" height="0.3041047448218753"/>
<text class="edge_text" text-anchor="middle" dominant-baseline="middle" transform="matrix(0.015205237241093763 0 0 0.015205237241093763 3.653913755184549 2.375656857943458)">11</text>
<rect class="edge_bg" x="3.0973523695919876" y="1.929711395791841" width="0.3041047448218753" height="0.3041047448218753"/>
<text class="edge_text" text-anchor="middle" dominant-baseline="middle" transform="matrix(0.015205237241093763 0 0 0.015205237241093763 3.249404742002925 2.0817637682027788)">9</text>
</svg>
