<?xml version="1.0" encoding="utf-8"?>
<svg version="1.1" id="layer_1" xmlns="http://www.w3.org/2000/svg" xmlns:xlink="http://www.w3.org/1999/xlink" x="0px" y="0px" viewBox="-0.9006508083520399 -0.8590169943749475 3.24801285560386 2.491693204157582" style="enable-background:new -0.9006508083520399 -0.8590169943749475 3.24801285560386 2.491693204157582;" xml:space="preserve">
<style type="text/css">
  .no_fill_black_stroke {fill:none; stroke:#000000; stroke-width:0.02; stroke-miterlimit:10;}
  .face_text {fill:#000000; font-family:monospace;}
  .edge_text {fill:#ff0000; font-family:monospace;}
  .edge_bg {fill:#f3f3f3; stroke:#606060; stroke-width:0.02;}
</style>
<polygon class="no_fill_black_stroke" points="0.6881909602355868, -0.5 -0.26286555605956674, -0.8090169943749475 -0.8506508083520399, -1.0417467896404342e-16 -0.2628655560595669, 0.8090169943749473 0.6881909602355867, 0.5000000000000001"/>
<polygon class="no_fill_black_stroke" points="0.6881908654051868, 0.4999999999999999 1.554216269189626, 1.414100318299876e-16 0.6881908654051876, -0.5000000000000003"/>
<polygon class="no_fill_black_stroke" points="0.6881918179899875, 0.5000001457811754 0.8961035088077465, 1.4781477465149808 1.8906254041760202, 1.5826762097826346 2.2973620472518204, 0.6691307521400344 1.554217221774426, 1.457811755756211e-07"/>
<text class="face_text" text-anchor="middle" dominant-baseline="middle" transform="matrix(0.004983386408315164 0 0 0.004983386408315164 0.0 0.0)">0</text>
<text class="face_text" text-anchor="middle" dominant-baseline="middle" transform="matrix(0.004983386408315164 0 0 0.004983386408315164 0.976866 0.0)">3</text>
<text class="face_text" text-anchor="middle" dominant-baseline="middle" transform="matrix(0.004983386408315164 0 0 0.004983386408315164 1.4653 0.845991)">2</text>
<rect class="edge_bg" x="0.6383570013220354" y="-0.04983386408315168" width="0.09966772816630329" height="0.09966772816630329"/>
<text class="edge_text" text-anchor="middle" dominant-baseline="middle" transform="matrix(0.004983386408315164 0 0 0.004983386408315164 0.688190865405187 -3.535250795749691e-17)">0</text>
<rect class="edge_bg" x="1.071370655799055" y="0.2001662816980237" width="0.09966772816630329" height="0.09966772816630329"/>
<text class="edge_text" text-anchor="middle" dominant-baseline="middle" transform="matrix(0.004983386408315164 0 0 0.004983386408315164 1.1212045198822067 0.25000014578117535)">3</text>
</svg>
