<?xml version="1.0" encoding="utf-8"?>
<svg version="1.1" id="layer_1" xmlns="http://www.w3.org/2000/svg" xmlns:xlink="http://www.w3.org/1999/xlink" x="0px" y="0px" viewBox="-2.15710204725182 -1.1326758542188247 4.03461885560386 3.160826708437649" style="enable-background:new -2.15710204725182 -1.1326758542188247 4.03461885560386 3.160826708437649;" xml:space="preserve">
<style type="text/css">
  .no_fill_black_stroke {fill:none; stroke:#000000; stroke-width:0.02; stroke-miterlimit:10;}
  .face_text {fill:#000000; font-family:monospace;}
  .edge_text {fill:#ff0000; font-family:monospace;}
  .edge_bg {fill:#f3f3f3; stroke:#606060; stroke-width:0.02;}
</style>
<polygon class="no_fill_black_stroke" points="0.288675134594813, -0.5 -0.5773502691896258, -7.07050159149938e-17 0.288675134594813, 0.5"/>
<polygon class="no_fill_black_stroke" points="0.2886750397644132, 0.4999999999999999 1.2397315560595668, 0.8090169943749475 1.82751680835204, 2.0834935792808685e-16 1.239731556059567, -0.8090169943749473 0.28867503976441344, -0.5000000000000001"/>
<polygon class="no_fill_black_stroke" points="0.2886752642956956, 0.5000001349637488 0.4965869551134549, 1.4781477356975548 1.2397317805908494, 0.8090171293386968"/>
<polygon class="no_fill_black_stroke" points="0.28867549119225333, 0.5000032534850191 -0.7058464041760197, 0.39547479021736553 -1.1125830472518201, 1.3090202478599662 -0.36943822177442587, 1.9781508542188246 0.4965871820100126, 1.4781508542188246"/>
<polygon class="no_fill_black_stroke" points="-0.7058438205186421, 0.39547202636324846 -1.7003657158869157, 0.5000004896309018 -1.1125804635944427, 1.3090174840058495"/>
<polygon class="no_fill_black_stroke" points="-0.7058435088077466, 0.39547174651498096 -0.4979318179899873, -0.5826758542188245 -1.3639572217744258, -1.0826758542188246 -2.10710204725182, -0.4135452478599664 -1.7003654041760203, 0.5000002097826342"/>
<text class="face_text" text-anchor="middle" dominant-baseline="middle" transform="matrix(0.006321653416875298 0 0 0.006321653416875298 0.0 0.0)">3</text>
<text class="face_text" text-anchor="middle" dominant-baseline="middle" transform="matrix(0.006321653416875298 0 0 0.006321653416875298 0.976866 0.0)">0</text>
<text class="face_text" text-anchor="middle" dominant-baseline="middle" transform="matrix(0.006321653416875298 0 0 0.006321653416875298 0.674998 0.929055)">4</text>
<text class="face_text" text-anchor="middle" dominant-baseline="middle" transform="matrix(0.006321653416875298 0 0 0.006321653416875298 -0.280521 1.13216)">5</text>
<text class="face_text" text-anchor="middle" dominant-baseline="middle" transform="matrix(0.006321653416875298 0 0 0.006321653416875298 -1.17293 0.73483)">26</text>
<text class="face_text" text-anchor="middle" dominant-baseline="middle" transform="matrix(0.006321653416875298 0 0 0.006321653416875298 -1.27504 -0.236685)">2</text>
<rect class="edge_bg" x="0.22545850559566022" y="-0.06321653416875307" width="0.12643306833750598" height="0.12643306833750598"/>
<text class="edge_text" text-anchor="middle" dominant-baseline="middle" transform="matrix(0.006321653416875298 0 0 0.006321653416875298 0.2886750397644132 -8.427908566546547e-17)">0</text>
<rect class="edge_bg" x="0.7009869882745196" y="0.5912920979824696" width="0.12643306833750598" height="0.12643306833750598"/>
<text class="edge_text" text-anchor="middle" dominant-baseline="middle" transform="matrix(0.006321653416875298 0 0 0.006321653416875298 0.7642035224432725 0.6545086321512226)">5</text>
<rect class="edge_bg" x="0.32941480243238" y="0.9258605196831688" width="0.12643306833750598" height="0.12643306833750598"/>
<text class="edge_text" text-anchor="middle" dominant-baseline="middle" transform="matrix(0.006321653416875298 0 0 0.006321653416875298 0.39263133660113303 0.9890770538519218)">4</text>
<rect class="edge_bg" x="-0.9724286762252952" y="0.7890282210157961" width="0.12643306833750598" height="0.12643306833750598"/>
<text class="edge_text" text-anchor="middle" dominant-baseline="middle" transform="matrix(0.006321653416875298 0 0 0.006321653416875298 -0.9092121420565422 0.852244755184549)">46</text>
<rect class="edge_bg" x="-1.2663209906606363" y="0.3845194439800547" width="0.12643306833750598" height="0.12643306833750598"/>
<text class="edge_text" text-anchor="middle" dominant-baseline="middle" transform="matrix(0.006321653416875298 0 0 0.006321653416875298 -1.2031044564918834 0.4477359781488077)">45</text>
</svg>
