<?xml version="1.0" encoding="utf-8"?>
<svg version="1.1" xmlns="http://www.w3.org/2000/svg" viewBox="-8.559686561998834 -6.2618095619988345 15.041257123997669 15.041257123997669" style="enable-background:new -8.559686561998834 -6.2618095619988345 15.041257123997669 15.041257123997669;">
<style type="text/css">
  .face_stroke {fill:none; stroke:#000000; stroke-width:0.02; stroke-miterlimit:10;}
  .face_text {fill:#000000; font-family:monospace;}
  .edge_text {fill:#ff0000; font-family:monospace;}
  .edge_bg {fill:#f3f3f3; stroke:#606060; stroke-width:0.01;}
</style>
<polygon class="face_stroke" points="0.5000000000000001,-0.5 -0.5,-0.5000000000000001 -0.5000000000000001,0.5 0.4999999999999999,0.5000000000000001"/>
<polygon class="face_stroke" points="0.4999999999999999,0.5 1.5,0.5000000000000001 1.5000000000000007,-0.49999999999999944 0.49999999999999967,-0.4999999999999998"/>
<polygon class="face_stroke" points="1.5,0.5 2.5,0.5000000000000001 2.500000000000001,-0.49999999999999944 1.4999999999999996,-0.4999999999999998"/>
<polygon class="face_stroke" points="1.5000000000000007,0.4999999436374236 0.5340741737109316,0.7588189887399448 -0.33195123007350746,1.2588189887399448 -1.0390580112600554,1.9659257699264931 -1.539058011260055,2.831951173710931 -1.7978770563625757,3.7978769999999997 -1.797877056362576,4.797876999999999 -1.5390580112600558,5.763802826289066 -1.039058011260055,6.629828230073507 -0.33195123007350835,7.336935011260054 0.5340741737109325,7.836935011260055 1.4999999999999998,8.095754056362576 2.500000000000002,8.095754056362576 3.4659258262890695,7.836935011260055 4.331951230073507,7.336935011260055 5.039058011260054,6.6298282300735085 5.539058011260055,5.7638028262890675 5.797877056362576,4.797877 5.7978770563625766,3.797877000000001 5.539058011260057,2.8319511737109337 5.039058011260058,1.9659257699264954 4.331951230073506,1.2588189887399435 3.4659258262890678,0.7588189887399444 2.500000000000001,0.49999994363742406"/>
<polygon class="face_stroke" points="-0.33195121881345246,1.258819 -1.039058,0.5517122188134523 -1.7461647811865477,1.258819 -1.0390580000000003,1.9659257811865474"/>
<polygon class="face_stroke" points="-1.0390579887399447,0.5517122300735076 -0.5390579887399447,-0.31431317371093126 -0.28023894363742397,-1.280239 -0.28023894363742397,-2.280239 -0.5390579887399447,-3.2461648262890686 -1.0390579887399447,-4.112190230073507 -1.7461647699264922,-4.819297011260055 -2.612190173710931,-5.319297011260055 -3.578115999999999,-5.578116056362576 -4.578115999999999,-5.5781160563625765 -5.544041826289068,-5.319297011260055 -6.410067230073507,-4.819297011260055 -7.1171740112600546,-4.112190230073507 -7.6171740112600546,-3.2461648262890686 -7.875993056362575,-2.280239 -7.875993056362576,-1.2802390000000008 -7.617174011260055,-0.3143131737109335 -7.1171740112600546,0.5517122300735076 -6.410067230073508,1.2588190112600541 -5.544041826289067,1.7588190112600555 -4.578116,2.0176380563625758 -3.5781159999999974,2.0176380563625758 -2.61219017371093,1.7588190112600546 -1.7461647699264922,1.258819011260055"/>
<text class="face_text" text-anchor="middle" dominant-baseline="middle" transform="matrix(0.030082514247995337 0 0 0.030082514247995337 0.0 0.0)">0</text>
<text class="face_text" text-anchor="middle" dominant-baseline="middle" transform="matrix(0.030082514247995337 0 0 0.030082514247995337 1.0 0.0)">23</text>
<text class="face_text" text-anchor="middle" dominant-baseline="middle" transform="matrix(0.030082514247995337 0 0 0.030082514247995337 2.0 0.0)">22</text>
<text class="face_text" text-anchor="middle" dominant-baseline="middle" transform="matrix(0.030082514247995337 0 0 0.030082514247995337 2.0 4.297877)">25</text>
<text class="face_text" text-anchor="middle" dominant-baseline="middle" transform="matrix(0.030082514247995337 0 0 0.030082514247995337 -1.039058 1.258819)">1</text>
<text class="face_text" text-anchor="middle" dominant-baseline="middle" transform="matrix(0.030082514247995337 0 0 0.030082514247995337 -4.078116 -1.780239)">24</text>
<rect class="edge_bg" x="0.1991748575200465" y="-0.30082514247995346" width="0.6016502849599068" height="0.6016502849599068"/>
<text class="edge_text" text-anchor="middle" dominant-baseline="middle" transform="matrix(0.030082514247995337 0 0 0.030082514247995337 0.4999999999999999 -6.123233995736767e-17)">0</text>
<rect class="edge_bg" x="1.1991748575200467" y="-0.30082514247995346" width="0.6016502849599068" height="0.6016502849599068"/>
<text class="edge_text" text-anchor="middle" dominant-baseline="middle" transform="matrix(0.030082514247995337 0 0 0.030082514247995337 1.5 -6.123233995736767e-17)">71</text>
<rect class="edge_bg" x="1.6991748575200472" y="0.19917480115747066" width="0.6016502849599068" height="0.6016502849599068"/>
<text class="edge_text" text-anchor="middle" dominant-baseline="middle" transform="matrix(0.030082514247995337 0 0 0.030082514247995337 2.0000000000000004 0.49999994363742406)">70</text>
<rect class="edge_bg" x="-0.9863297518866796" y="1.3115472481133201" width="0.6016502849599068" height="0.6016502849599068"/>
<text class="edge_text" text-anchor="middle" dominant-baseline="middle" transform="matrix(0.030082514247995337 0 0 0.030082514247995337 -0.6855046094067262 1.6123723905932736)">7</text>
<rect class="edge_bg" x="-1.693436521813172" y="0.6044404781868277" width="0.6016502849599068" height="0.6016502849599068"/>
<text class="edge_text" text-anchor="middle" dominant-baseline="middle" transform="matrix(0.030082514247995337 0 0 0.030082514247995337 -1.3926113793332187 0.9052656206667811)">6</text>
</svg>
