<?xml version="1.0" encoding="utf-8"?>
<svg version="1.1" id="layer_1" xmlns="http://www.w3.org/2000/svg" xmlns:xlink="http://www.w3.org/1999/xlink" x="0px" y="0px" viewBox="-0.5500000000000002 -0.5500000000000002 2.100000000000001 3.1" style="enable-background:new -0.5500000000000002 -0.5500000000000002 2.100000000000001 3.1;" xml:space="preserve">
<style type="text/css">
  .no_fill_black_stroke {fill:none; stroke:#000000; stroke-width:0.02; stroke-miterlimit:10;}
  .face_text {fill:#000000; font-family:monospace;}
  .edge_text {fill:#ff0000; font-family:monospace;}
  .edge_bg {fill:#f3f3f3; stroke:#606060; stroke-width:0.02;}
</style>
<polygon class="no_fill_black_stroke" points="0.5000000000000001, -0.5 -0.5, -0.5000000000000001 -0.5000000000000001, 0.5 0.4999999999999999, 0.5000000000000001"/>
<polygon class="no_fill_black_stroke" points="0.4999999999999999, 0.5 1.5, 0.5000000000000001 1.5000000000000007, -0.49999999999999944 0.49999999999999967, -0.4999999999999998"/>
<polygon class="no_fill_black_stroke" points="0.5, 0.4999999999999999 0.4999999999999999, 1.5 1.5, 1.5 1.5000000000000007, 0.5000000000000006"/>
<polygon class="no_fill_black_stroke" points="0.5, 1.5 0.4999999999999999, 2.5 1.5, 2.5 1.5000000000000007, 1.5000000000000004"/>
<polygon class="no_fill_black_stroke" points="0.5000000000000001, 1.5 -0.5, 1.5 -0.5000000000000001, 2.5 0.4999999999999999, 2.5"/>
<polygon class="no_fill_black_stroke" points="0.5000000000000001, 1.4999951345948128 8.364490795749689e-17, 0.6339697308103741 -0.49999999999999994, 1.4999951345948128"/>
<text class="face_text" text-anchor="middle" dominant-baseline="middle" transform="matrix(0.004200000000000002 0 0 0.004200000000000002 0.0 0.0)">0</text>
<text class="face_text" text-anchor="middle" dominant-baseline="middle" transform="matrix(0.004200000000000002 0 0 0.004200000000000002 1.0 0.0)">4</text>
<text class="face_text" text-anchor="middle" dominant-baseline="middle" transform="matrix(0.004200000000000002 0 0 0.004200000000000002 1.0 1.0)">5</text>
<text class="face_text" text-anchor="middle" dominant-baseline="middle" transform="matrix(0.004200000000000002 0 0 0.004200000000000002 1.0 2.0)">24</text>
<text class="face_text" text-anchor="middle" dominant-baseline="middle" transform="matrix(0.004200000000000002 0 0 0.004200000000000002 0.0 2.0)">2</text>
<text class="face_text" text-anchor="middle" dominant-baseline="middle" transform="matrix(0.004200000000000002 0 0 0.004200000000000002 4.82924e-17 1.21132)">3</text>
<rect class="edge_bg" x="0.45799999999999985" y="-0.042000000000000086" width="0.08400000000000005" height="0.08400000000000005"/>
<text class="edge_text" text-anchor="middle" dominant-baseline="middle" transform="matrix(0.004200000000000002 0 0 0.004200000000000002 0.4999999999999999 -6.123233995736767e-17)">5</text>
<rect class="edge_bg" x="0.958" y="0.45799999999999985" width="0.08400000000000005" height="0.08400000000000005"/>
<text class="edge_text" text-anchor="middle" dominant-baseline="middle" transform="matrix(0.004200000000000002 0 0 0.004200000000000002 1.0 0.4999999999999999)">4</text>
<rect class="edge_bg" x="0.958" y="1.458" width="0.08400000000000005" height="0.08400000000000005"/>
<text class="edge_text" text-anchor="middle" dominant-baseline="middle" transform="matrix(0.004200000000000002 0 0 0.004200000000000002 1.0 1.5)">41</text>
<rect class="edge_bg" x="0.4580000000000001" y="1.958" width="0.08400000000000005" height="0.08400000000000005"/>
<text class="edge_text" text-anchor="middle" dominant-baseline="middle" transform="matrix(0.004200000000000002 0 0 0.004200000000000002 0.5000000000000001 2.0)">40</text>
<rect class="edge_bg" x="-0.041999999999999954" y="1.4579951345948128" width="0.08400000000000005" height="0.08400000000000005"/>
<text class="edge_text" text-anchor="middle" dominant-baseline="middle" transform="matrix(0.004200000000000002 0 0 0.004200000000000002 6.596865397874845e-17 1.4999951345948128)">3</text>
</svg>
