<?xml version="1.0" encoding="utf-8"?>
<svg version="1.1" id="layer_1" xmlns="http://www.w3.org/2000/svg" xmlns:xlink="http://www.w3.org/1999/xlink" x="0px" y="0px" viewBox="-1.7613200000000002 -0.5500000000000005 3.0999950000000007 2.1000000000000005" style="enable-background:new -1.7613200000000002 -0.5500000000000005 3.0999950000000007 2.1000000000000005;" xml:space="preserve">
<style type="text/css">
  .no_fill_black_stroke {fill:none; stroke:#000000; stroke-width:0.02; stroke-miterlimit:10;}
  .face_text {fill:#000000; font-family:monospace;}
  .edge_text {fill:#ff0000; font-family:monospace;}
  .edge_bg {fill:#f3f3f3; stroke:#606060; stroke-width:0.02;}
</style>
<polygon class="no_fill_black_stroke" points="0.288675134594813, -0.5 -0.5773502691896258, -7.07050159149938e-17 0.288675134594813, 0.5"/>
<polygon class="no_fill_black_stroke" points="0.2886749999999999, 0.5 1.288675, 0.5000000000000001 1.2886750000000007, -0.49999999999999944 0.2886749999999997, -0.4999999999999998"/>
<polygon class="no_fill_black_stroke" points="0.288675, 0.4999999999999999 0.2886749999999999, 1.5 1.288675, 1.5 1.2886750000000007, 0.5000000000000006"/>
<polygon class="no_fill_black_stroke" points="0.2886750000000001, 0.5 -0.711325, 0.4999999999999999 -0.7113250000000001, 1.5 0.2886749999999999, 1.5"/>
<polygon class="no_fill_black_stroke" points="-0.7113199999999998, 0.5 -1.71132, 0.4999999999999999 -1.7113200000000002, 1.5 -0.7113200000000001, 1.5"/>
<polygon class="no_fill_black_stroke" points="-0.7113199999999998, 0.49999999999999967 -0.7113199999999998, -0.5000000000000003 -1.71132, -0.5000000000000004 -1.7113200000000002, 0.49999999999999967"/>
<text class="face_text" text-anchor="middle" dominant-baseline="middle" transform="matrix(0.0042000000000000015 0 0 0.0042000000000000015 0.0 0.0)">3</text>
<text class="face_text" text-anchor="middle" dominant-baseline="middle" transform="matrix(0.0042000000000000015 0 0 0.0042000000000000015 0.788675 0.0)">0</text>
<text class="face_text" text-anchor="middle" dominant-baseline="middle" transform="matrix(0.0042000000000000015 0 0 0.0042000000000000015 0.788675 1.0)">4</text>
<text class="face_text" text-anchor="middle" dominant-baseline="middle" transform="matrix(0.0042000000000000015 0 0 0.0042000000000000015 -0.211325 1.0)">5</text>
<text class="face_text" text-anchor="middle" dominant-baseline="middle" transform="matrix(0.0042000000000000015 0 0 0.0042000000000000015 -1.21132 1.0)">24</text>
<text class="face_text" text-anchor="middle" dominant-baseline="middle" transform="matrix(0.0042000000000000015 0 0 0.0042000000000000015 -1.21132 -3.33067e-16)">2</text>
<rect class="edge_bg" x="0.2466749999999999" y="-0.04200000000000007" width="0.08400000000000002" height="0.08400000000000002"/>
<text class="edge_text" text-anchor="middle" dominant-baseline="middle" transform="matrix(0.0042000000000000015 0 0 0.0042000000000000015 0.2886749999999999 -6.123233995736767e-17)">0</text>
<rect class="edge_bg" x="0.746675" y="0.45799999999999985" width="0.08400000000000002" height="0.08400000000000002"/>
<text class="edge_text" text-anchor="middle" dominant-baseline="middle" transform="matrix(0.0042000000000000015 0 0 0.0042000000000000015 0.788675 0.4999999999999999)">5</text>
<rect class="edge_bg" x="0.24667500000000012" y="0.958" width="0.08400000000000002" height="0.08400000000000002"/>
<text class="edge_text" text-anchor="middle" dominant-baseline="middle" transform="matrix(0.0042000000000000015 0 0 0.0042000000000000015 0.2886750000000001 1.0)">4</text>
<rect class="edge_bg" x="-0.7533199999999999" y="0.958" width="0.08400000000000002" height="0.08400000000000002"/>
<text class="edge_text" text-anchor="middle" dominant-baseline="middle" transform="matrix(0.0042000000000000015 0 0 0.0042000000000000015 -0.7113199999999998 1.0)">41</text>
<rect class="edge_bg" x="-1.25332" y="0.45799999999999974" width="0.08400000000000002" height="0.08400000000000002"/>
<text class="edge_text" text-anchor="middle" dominant-baseline="middle" transform="matrix(0.0042000000000000015 0 0 0.0042000000000000015 -1.21132 0.4999999999999998)">40</text>
</svg>
