<?xml version="1.0" encoding="utf-8"?>
<svg version="1.1" id="layer_1" xmlns="http://www.w3.org/2000/svg" xmlns:xlink="http://www.w3.org/1999/xlink" x="0px" y="0px" viewBox="-0.5500000000000002 -0.5500000000000002 2.100000000000001 1.9660252691896258" style="enable-background:new -0.5500000000000002 -0.5500000000000002 2.100000000000001 1.9660252691896258;" xml:space="preserve">
<style type="text/css">
  .no_fill_black_stroke {fill:none; stroke:#000000; stroke-width:0.02; stroke-miterlimit:10;}
  .face_text {fill:#000000; font-family:monospace;}
  .edge_text {fill:#ff0000; font-family:monospace;}
  .edge_bg {fill:#f3f3f3; stroke:#606060; stroke-width:0.02;}
</style>
<polygon class="no_fill_black_stroke" points="0.5000000000000001, -0.5 -0.5, -0.5000000000000001 -0.5000000000000001, 0.5 0.4999999999999999, 0.5000000000000001"/>
<polygon class="no_fill_black_stroke" points="0.4999999999999999, 0.5 1.5, 0.5000000000000001 1.5000000000000007, -0.49999999999999944 0.49999999999999967, -0.4999999999999998"/>
<polygon class="no_fill_black_stroke" points="0.4999999999999999, 0.49999986540518715 0.9999999999999999, 1.3660252691896257 1.5000000000000004, 0.49999986540518754"/>
<text class="face_text" text-anchor="middle" dominant-baseline="middle" transform="matrix(0.003932050538379252 0 0 0.003932050538379252 0.0 0.0)">4</text>
<text class="face_text" text-anchor="middle" dominant-baseline="middle" transform="matrix(0.003932050538379252 0 0 0.003932050538379252 1.0 0.0)">0</text>
<text class="face_text" text-anchor="middle" dominant-baseline="middle" transform="matrix(0.003932050538379252 0 0 0.003932050538379252 1.0 0.788675)">16</text>
<rect class="edge_bg" x="0.4606794946162074" y="-0.03932050538379258" width="0.07864101076758503" height="0.07864101076758503"/>
<text class="edge_text" text-anchor="middle" dominant-baseline="middle" transform="matrix(0.003932050538379252 0 0 0.003932050538379252 0.4999999999999999 -6.123233995736767e-17)">5</text>
<rect class="edge_bg" x="0.9606794946162075" y="0.46067936002139453" width="0.07864101076758503" height="0.07864101076758503"/>
<text class="edge_text" text-anchor="middle" dominant-baseline="middle" transform="matrix(0.003932050538379252 0 0 0.003932050538379252 1.0 0.49999986540518704)">24</text>
</svg>
