<?xml version="1.0" encoding="utf-8"?>
<svg version="1.1" id="layer_1" xmlns="http://www.w3.org/2000/svg" xmlns:xlink="http://www.w3.org/1999/xlink" x="0px" y="0px" viewBox="-0.5500000000000002 -0.5500000000000002 2.100000000000001 2.4660227018922196" style="enable-background:new -0.5500000000000002 -0.5500000000000002 2.100000000000001 2.4660227018922196;" xml:space="preserve">
<style type="text/css">
  .no_fill_black_stroke {fill:none; stroke:#000000; stroke-width:0.02; stroke-miterlimit:10;}
  .face_text {fill:#000000; font-family:monospace;}
  .edge_text {fill:#ff0000; font-family:monospace;}
  .edge_bg {fill:#f3f3f3; stroke:#606060; stroke-width:0.02;}
</style>
<polygon class="no_fill_black_stroke" points="0.5000000000000001, -0.5 -0.5, -0.5000000000000001 -0.5000000000000001, 0.5 0.4999999999999999, 0.5000000000000001"/>
<polygon class="no_fill_black_stroke" points="0.4999999999999999, 0.5 1.5, 0.5000000000000001 1.5000000000000007, -0.49999999999999944 0.49999999999999967, -0.4999999999999998"/>
<polygon class="no_fill_black_stroke" points="0.4999999999999999, 0.49999986540518715 0.9999999999999999, 1.3660252691896257 1.5000000000000004, 0.49999986540518754"/>
<polygon class="no_fill_black_stroke" points="0.4999997018922193, 0.4999972981077805 -0.3660257018922193, 0.9999972981077804 0.13397429810778078, 1.8660227018922193 0.9999997018922194, 1.366022701892219"/>
<text class="face_text" text-anchor="middle" dominant-baseline="middle" transform="matrix(0.004200000000000002 0 0 0.004200000000000002 0.0 0.0)">4</text>
<text class="face_text" text-anchor="middle" dominant-baseline="middle" transform="matrix(0.004200000000000002 0 0 0.004200000000000002 1.0 0.0)">0</text>
<text class="face_text" text-anchor="middle" dominant-baseline="middle" transform="matrix(0.004200000000000002 0 0 0.004200000000000002 1.0 0.788675)">16</text>
<text class="face_text" text-anchor="middle" dominant-baseline="middle" transform="matrix(0.004200000000000002 0 0 0.004200000000000002 0.316987 1.18301)">18</text>
<rect class="edge_bg" x="0.45799999999999985" y="-0.042000000000000086" width="0.08400000000000005" height="0.08400000000000005"/>
<text class="edge_text" text-anchor="middle" dominant-baseline="middle" transform="matrix(0.004200000000000002 0 0 0.004200000000000002 0.4999999999999999 -6.123233995736767e-17)">5</text>
<rect class="edge_bg" x="0.958" y="0.457999865405187" width="0.08400000000000005" height="0.08400000000000005"/>
<text class="edge_text" text-anchor="middle" dominant-baseline="middle" transform="matrix(0.004200000000000002 0 0 0.004200000000000002 1.0 0.49999986540518704)">24</text>
<rect class="edge_bg" x="0.7079997018922195" y="0.8910099999999999" width="0.08400000000000005" height="0.08400000000000005"/>
<text class="edge_text" text-anchor="middle" dominant-baseline="middle" transform="matrix(0.004200000000000002 0 0 0.004200000000000002 0.7499997018922195 0.9330099999999999)">28</text>
</svg>
