<?xml version="1.0" encoding="utf-8"?>
<svg version="1.1" xmlns="http://www.w3.org/2000/svg" viewBox="-1.8466101454463895 -1.9328785913874627 6.770904290892778 6.92658125802649" style="enable-background:new -1.8466101454463895 -1.9328785913874627 6.770904290892778 6.92658125802649;">
<style type="text/css">
  .face_stroke {fill:none; stroke:#000000; stroke-width:0.02; stroke-miterlimit:10;}
  .face_text {fill:#000000; font-family:monospace;}
  .edge_text {fill:#ff0000; font-family:monospace;}
  .edge_bg {fill:#f3f3f3; stroke:#606060; stroke-width:0.01;}
</style>
<polygon class="face_stroke" points="1.5388417685876268,-0.49999999999999994 0.9510565162951536,-1.3090169943749475 9.907600726170916e-17,-1.618033988749895 -0.9510565162951534,-1.3090169943749475 -1.5388417685876268,-0.5000000000000001 -1.5388417685876268,0.5000000000000006 -0.9510565162951538,1.3090169943749472 -2.9722802178512745e-16,1.618033988749895 0.9510565162951533,1.3090169943749477 1.5388417685876268,0.5000000000000004"/>
<polygon class="face_stroke" points="1.5388422314123733,0.5000000000000006 2.1266274837048464,1.3090169943749472 3.0776839999999996,1.618033988749895 4.028740516295153,1.3090169943749477 4.616525768587627,0.5000000000000004 4.616525768587627,-0.4999999999999996 4.028740516295155,-1.3090169943749463 3.0776840000000005,-1.618033988749895 2.126627483704847,-1.309016994374948 1.5388422314123735,-0.5000000000000006"/>
<polygon class="face_stroke" points="3.077683219409151,1.6180341293386964 3.820828044886545,2.2871647356975546 4.028739735704304,1.3090171349637494"/>
<polygon class="face_stroke" points="3.0776837129666794,1.6180343992661945 2.0831618175984064,1.513505935998541 1.2171364138139678,2.0135059359985408 0.8103997707381674,2.9270513936411415 1.0183114615559268,3.905198994374948 1.761456287033321,4.574329600733806 2.755978182401593,4.67885806400146 3.6220035861860334,4.178858064001459 4.0287402292618335,3.2653126063588584 3.8208285384440748,2.287165005625054"/>
<polygon class="face_stroke" points="2.0831612691896257,1.513506 1.2171358654051871,1.013506 1.217135865405187,2.013506"/>
<text class="face_text" text-anchor="middle" dominant-baseline="middle" transform="matrix(0.013541808581785556 0 0 0.013541808581785556 0.0 0.0)">0</text>
<text class="face_text" text-anchor="middle" dominant-baseline="middle" transform="matrix(0.013541808581785556 0 0 0.013541808581785556 3.077684 0.0)">2</text>
<text class="face_text" text-anchor="middle" dominant-baseline="middle" transform="matrix(0.013541808581785556 0 0 0.013541808581785556 3.642417 1.738072)">9</text>
<text class="face_text" text-anchor="middle" dominant-baseline="middle" transform="matrix(0.013541808581785556 0 0 0.013541808581785556 2.41957 3.096182)">10</text>
<text class="face_text" text-anchor="middle" dominant-baseline="middle" transform="matrix(0.013541808581785556 0 0 0.013541808581785556 1.505811 1.513506)">1</text>
<rect class="edge_bg" x="1.4034241455945176" y="-0.13541808581785575" width="0.2708361716357111" height="0.2708361716357111"/>
<text class="edge_text" text-anchor="middle" dominant-baseline="middle" transform="matrix(0.013541808581785556 0 0 0.013541808581785556 1.538842231412373 -1.8845376462950893e-16)">0</text>
<rect class="edge_bg" x="3.417793391738872" y="1.3281075463333671" width="0.2708361716357111" height="0.2708361716357111"/>
<text class="edge_text" text-anchor="middle" dominant-baseline="middle" transform="matrix(0.013541808581785556 0 0 0.013541808581785556 3.5532114775567276 1.4635256321512227)">15</text>
<rect class="edge_bg" x="3.3138380398875213" y="1.817181616627768" width="0.2708361716357111" height="0.2708361716357111"/>
<text class="edge_text" text-anchor="middle" dominant-baseline="middle" transform="matrix(0.013541808581785556 0 0 0.013541808581785556 3.449256125705377 1.9525997024456234)">18</text>
<rect class="edge_bg" x="1.514730481479551" y="1.6280879141821445" width="0.2708361716357111" height="0.2708361716357111"/>
<text class="edge_text" text-anchor="middle" dominant-baseline="middle" transform="matrix(0.013541808581785556 0 0 0.013541808581785556 1.6501485672974066 1.763506)">19</text>
</svg>
